M48
INCH,TZ
T1C0.0118
T2C0.0157
T3C0.0236
T4C0.0256
T5C0.0315
T6C0.0394
T7C0.0472
%
G90
G05
T1
X54479Y-39497
X54479Y-40009
X54479Y-40521
X54479Y-41033
X54479Y-41544
X54479Y-42056
X54991Y-39497
X54991Y-40009
X54991Y-40521
X54991Y-41033
X54991Y-41544
X54991Y-42056
X55503Y-39497
X55503Y-40009
X55503Y-40521
X55503Y-41033
X55503Y-41544
X55503Y-42056
T2
X26807Y-51189
X26811Y-29185
X27000Y-34689
X27008Y-45606
X27039Y-47543
X27043Y-30921
X27063Y-32760
X27114Y-40606
X27114Y-49602
X27146Y-38413
X27728Y-46315
X28008Y-39724
X28114Y-42709
X28335Y-50504
X28406Y-41815
X28705Y-30091
X28839Y-48417
X28882Y-33555
X28913Y-46811
X29217Y-31024
X29402Y-40063
X29846Y-49768
X29906Y-32343
X29937Y-47350
X30004Y-51205
X30280Y-41827
X30445Y-39252
X30563Y-37642
X30584Y-39797
X30705Y-29185
X31091Y-48354
X31122Y-46268
X31161Y-34016
X31205Y-31004
X31425Y-37476
X31492Y-42917
X31720Y-41331
X31827Y-47244
X31876Y-41694
X31885Y-40681
X31913Y-32866
X31957Y-50504
X31987Y-36418
X31987Y-43898
X32177Y-42035
X32240Y-30114
X32354Y-49709
X32610Y-46268
X32654Y-48311
X32665Y-42886
X32772Y-34035
X32913Y-38079
X32917Y-31693
X33196Y-38574
X33362Y-39285
X33366Y-39680
X33425Y-38896
X33539Y-35917
X33756Y-43516
X34028Y-42815
X34287Y-36787
X34331Y-44417
X34591Y-37488
X34736Y-49114
X34748Y-30953
X35020Y-30102
X35126Y-50535
X35530Y-36418
X35530Y-43898
X35563Y-42850
X35744Y-37496
X36059Y-31413
X36165Y-51173
X36232Y-29276
X36331Y-39295
X36387Y-41150
X36618Y-49819
X36840Y-41018
X37008Y-45350
X37043Y-35945
X37067Y-43543
X37138Y-42913
X37165Y-34941
X37177Y-37610
X37193Y-40424
X37437Y-50551
X37457Y-30894
X37516Y-38972
X37520Y-30122
X37791Y-44449
X37827Y-42209
X37846Y-36815
X38054Y-41272
X38201Y-34933
X38256Y-32898
X38291Y-47508
X38319Y-45535
X38563Y-37988
X38646Y-42913
X38650Y-31744
X38717Y-48827
X39074Y-36418
X39074Y-43898
X39303Y-34933
X39331Y-33606
X39425Y-38819
X39453Y-41126
X39465Y-46378
X39638Y-42547
X39681Y-41854
X39701Y-49661
X39823Y-37559
X39913Y-31016
X39984Y-39630
X40315Y-48744
X40343Y-42890
X40492Y-30114
X40504Y-47469
X40516Y-35130
X40535Y-45264
X40559Y-32843
X40614Y-43575
X40626Y-35945
X40634Y-50551
X41087Y-31815
X41142Y-44417
X41192Y-41978
X41256Y-38075
X41283Y-33913
X41358Y-36752
X41410Y-39647
X41465Y-42861
X41465Y-40038
X41465Y-40433
X41764Y-51185
X41787Y-49335
X41840Y-42736
X41906Y-29295
X42094Y-37764
X42180Y-42535
X42252Y-40899
X42359Y-39054
X42421Y-40154
X42461Y-46280
X42587Y-30976
X42617Y-36418
X42617Y-43898
X42650Y-35323
X42917Y-37791
X42937Y-30055
X42972Y-34138
X42988Y-40929
X43008Y-47417
X43035Y-50551
X43039Y-44953
X43043Y-32799
X43622Y-49772
X43677Y-31835
X43728Y-40307
X44083Y-43528
X44138Y-39567
X44177Y-36043
X44217Y-41083
X44248Y-38130
X44591Y-44240
X44642Y-36764
X45059Y-42890
X45083Y-49331
X45374Y-40260
X45496Y-30933
X45677Y-50535
X45744Y-37756
X45776Y-30106
X45882Y-32087
X46160Y-36418
X46160Y-43898
X46213Y-34921
X46248Y-47488
X46252Y-33398
X46260Y-45406
X46287Y-39150
X46307Y-41039
X46807Y-29256
X46921Y-49854
X47012Y-42764
X47012Y-51220
X47213Y-38213
X47217Y-46390
X47394Y-35969
X47457Y-43598
X47602Y-40118
X47705Y-31016
X48059Y-50504
X48102Y-44417
X48122Y-36748
X48154Y-30071
X48252Y-32260
X48445Y-37736
X48445Y-45441
X48472Y-47260
X48512Y-33807
X48941Y-39248
X48949Y-40969
X49079Y-42827
X49189Y-34969
X49634Y-49323
X49661Y-46425
X49704Y-36418
X49704Y-43898
X49941Y-40126
X49945Y-41594
X49949Y-38043
X49949Y-39217
X50067Y-32878
X50405Y-38574
X50406Y-37389
X50480Y-31047
X50516Y-47346
X50701Y-39311
X50768Y-45307
X50839Y-34992
X50941Y-43567
X50961Y-36000
X51015Y-38653
X51161Y-40862
X51189Y-50555
X51232Y-30043
X51689Y-31921
X51697Y-41984
X51713Y-44402
X51724Y-36780
X51846Y-38232
X51921Y-49717
X52220Y-51189
X52250Y-40908
X52390Y-29205
X52447Y-41829
X52465Y-40577
X52555Y-45319
X52628Y-40217
X52736Y-34980
X52806Y-39865
X52978Y-39510
X53135Y-39147
X53247Y-36418
X53247Y-43898
X53328Y-38803
X53339Y-30953
X53457Y-50535
X53477Y-42876
X53503Y-38450
X53610Y-30083
X54085Y-42318
X54087Y-38839
X54402Y-34980
X54433Y-35906
X54449Y-43571
X54492Y-49689
X54531Y-31890
X54626Y-36795
X54850Y-44366
X54858Y-45075
X55181Y-34102
X55776Y-32571
X56028Y-38937
X56043Y-38134
X56161Y-47791
X56224Y-44992
X56292Y-42609
X56382Y-46500
X56390Y-29165
X56425Y-37389
X56461Y-50567
X56591Y-31008
X56790Y-36418
X56790Y-43898
X56900Y-42428
X56984Y-32264
X57264Y-38921
X57307Y-42539
X57394Y-45732
X57406Y-51201
X57465Y-47752
X57512Y-34528
X57579Y-40000
X57710Y-42711
X57921Y-37984
X57941Y-29689
X58323Y-35024
X58394Y-38744
X58413Y-30823
X58673Y-50917
X58862Y-50141
X59201Y-33268
X59354Y-50346
X59402Y-38457
X59417Y-41846
X59894Y-34217
X60157Y-29181
X60181Y-51240
X60224Y-46374
X60287Y-32122
X60299Y-44382
X60327Y-42949
X60685Y-38807
X60693Y-35209
X61563Y-30874
X61575Y-43744
X61642Y-41465
X61795Y-39673
X61843Y-47496
X61870Y-34390
X61882Y-33406
X61913Y-45260
X62000Y-48606
X62043Y-34909
X62102Y-32106
X62306Y-37028
X62335Y-47561
X62417Y-42890
X62472Y-48932
X62626Y-33543
X62654Y-39598
X62860Y-49095
X62992Y-37996
X63094Y-45634
X63114Y-34878
X63122Y-47051
X63154Y-31004
X63169Y-37224
X63228Y-41303
X63274Y-49705
X63307Y-32366
X63429Y-49148
X63576Y-48776
X63657Y-49868
X63776Y-42587
X63828Y-38659
X63839Y-44496
X63862Y-46307
X64390Y-32366
X64413Y-31315
X64417Y-34488
X64425Y-38484
X64520Y-47098
X64531Y-40961
X64787Y-43543
X65028Y-45626
X65047Y-36398
X65453Y-32398
X65492Y-31315
X65524Y-33760
X65906Y-46272
X66079Y-38850
X66122Y-44433
X66405Y-37920
X66496Y-36028
X66567Y-31374
X66591Y-34051
X66709Y-32472
X66886Y-47051
X67015Y-36531
X67193Y-45661
X67421Y-43276
X67484Y-51291
X67768Y-29161
X67929Y-33949
X67976Y-40413
X68028Y-42441
X68343Y-44736
X68358Y-46449
X68617Y-33979
X69102Y-41772
X69213Y-37803
X69236Y-43524
X69307Y-40382
X69312Y-33979
X69350Y-36575
X69358Y-50965
X69366Y-47039
X69453Y-45697
X69803Y-33979
X69870Y-29323
X70012Y-37248
X70345Y-47328
X70425Y-41457
X70496Y-46276
X70512Y-51280
X70701Y-47158
X70744Y-42587
X70756Y-44346
X70815Y-50764
X70815Y-45787
X70879Y-40010
X70898Y-37248
X70978Y-46877
X70997Y-40390
X71012Y-39638
X71154Y-29563
X71296Y-47979
X71304Y-45224
X71304Y-47575
X71476Y-37248
X71677Y-32756
X71729Y-50131
X71740Y-41724
X71984Y-36093
X71992Y-37248
X72185Y-40606
X72350Y-48142
X72350Y-48536
X72366Y-46173
X72378Y-47417
X72417Y-29421
X72433Y-37243
X72493Y-39643
X72913Y-47827
X73031Y-42449
X73067Y-44768
X73073Y-32839
X73128Y-48566
X73130Y-41252
X73161Y-37831
X73169Y-43654
X73252Y-46016
X73373Y-39201
X73381Y-48872
X73461Y-29169
X73485Y-31385
X73541Y-33683
X73843Y-30701
X73882Y-39500
X73984Y-49421
X74037Y-29747
X74273Y-39101
X74394Y-46106
X74453Y-41276
X74453Y-43657
X74614Y-33828
X74772Y-42386
X74921Y-32630
X74937Y-45063
X74984Y-29948
X75106Y-50118
X75173Y-33874
X75247Y-38228
X75515Y-39505
X75567Y-33841
X75681Y-32756
X75728Y-29378
X76024Y-49382
X76071Y-44512
X76110Y-46031
X76161Y-33705
X76224Y-37878
X76295Y-30484
X76303Y-47583
X76374Y-41319
X76401Y-29997
X76693Y-30496
X76717Y-36433
X76736Y-39543
X76736Y-50488
X76969Y-45118
X77275Y-48694
X77287Y-49323
X77287Y-29378
X77512Y-38547
X77541Y-30301
X77811Y-45988
X77839Y-41252
X77839Y-44484
X77850Y-42701
X77878Y-31626
X77913Y-39421
X78015Y-48655
X78067Y-49173
X78134Y-37799
X78178Y-48295
X78581Y-35990
X78638Y-45217
X78665Y-41874
X78665Y-43654
X78736Y-40783
X78768Y-50512
X78772Y-30012
X78959Y-31057
X79035Y-48677
X79059Y-29169
X79071Y-47559
X79358Y-39409
X79398Y-42772
X79413Y-40866
X79441Y-44512
X79441Y-46004
X79718Y-32515
X79819Y-49563
X79839Y-30417
X79949Y-50744
X80854Y-29071
X81709Y-32453
X81764Y-30783
X81854Y-34543
X81870Y-37268
X81886Y-35882
X81886Y-51252
X81906Y-49622
T4
X34740Y-42146
X35240Y-42146
X35740Y-42146
X36240Y-42146
X36740Y-42146
X37240Y-42146
X74236Y-47520
T5
X41744Y-38657
X41744Y-41657
X42744Y-38657
X42744Y-41657
X43744Y-38657
X43744Y-41657
X44744Y-38657
X44744Y-41657
X45744Y-38657
X45744Y-41657
X46744Y-38657
X46744Y-41657
X47744Y-38657
X47744Y-41657
X48744Y-38657
X48744Y-41657
T6
X34929Y-40254
X34929Y-41254
X61535Y-35293
X61535Y-36293
X62610Y-35293
X62610Y-36293
X62787Y-31925
X62787Y-32925
X63233Y-41974
X63233Y-42974
X63233Y-43974
X63233Y-44974
X63862Y-31925
X63862Y-32925
X64229Y-30461
X64229Y-49854
X64937Y-31925
X64937Y-32925
X65229Y-30461
X65229Y-49854
X66012Y-31925
X66012Y-32925
X66229Y-30461
X66229Y-49854
X67229Y-30461
X67229Y-49854
X68229Y-30461
X68229Y-49854
X69229Y-30461
X69229Y-49854
X70229Y-30461
X70229Y-49854
X71229Y-30461
X71229Y-49854
X72229Y-30461
X72229Y-49854
X73229Y-30461
X73229Y-49854
X73229Y-50866
X73863Y-48297
X73863Y-38652
X74229Y-50866
X74863Y-38652
X74863Y-48297
X75229Y-50866
X75863Y-38652
X75863Y-48297
X76229Y-50866
X76863Y-38652
X76863Y-48297
X77229Y-50866
X78229Y-50866
X79229Y-50866
T7
X75532Y-35748
X75532Y-37126
X80736Y-35307
X80736Y-36685
T3
G00X74791Y-29535
M15
G01X74791Y-29220
M16
G05
G00X74791Y-31031
M15
G01X74791Y-30716
M16
G05
G00X78192Y-29535
M15
G01X78192Y-29220
M16
G05
G00X78192Y-31031
M15
G01X78192Y-30716
M16
G05
T6
G00X78581Y-32209
M15
G01X78581Y-32996
M16
G05
G00X80825Y-31421
M15
G01X80038Y-31421
M16
G05
G00X80825Y-33783
M15
G01X80038Y-33783
M16
G05
T0
M30
