G04 #@! TF.GenerationSoftware,KiCad,Pcbnew,(6.0.1-0)*
G04 #@! TF.CreationDate,2022-03-07T17:57:35+09:00*
G04 #@! TF.ProjectId,qLAMP-main,714c414d-502d-46d6-9169-6e2e6b696361,rev?*
G04 #@! TF.SameCoordinates,Original*
G04 #@! TF.FileFunction,Profile,NP*
%FSLAX46Y46*%
G04 Gerber Fmt 4.6, Leading zero omitted, Abs format (unit mm)*
G04 Created by KiCad (PCBNEW (6.0.1-0)) date 2022-03-07 17:57:35*
%MOMM*%
%LPD*%
G01*
G04 APERTURE LIST*
G04 #@! TA.AperFunction,Profile*
%ADD10C,0.100000*%
G04 #@! TD*
G04 APERTURE END LIST*
D10*
X204335000Y-129840000D02*
G75*
G03*
X204335000Y-129840000I-475000J0D01*
G01*
X207825000Y-74695000D02*
G75*
G03*
X207825000Y-74695000I-475000J0D01*
G01*
X86942944Y-74501749D02*
X87296497Y-74148195D01*
X111357157Y-127898251D02*
X111003604Y-127544698D01*
X96150050Y-76101749D02*
X96150050Y-74501749D01*
X110150050Y-76101750D02*
G75*
G03*
X111003604Y-76455302I500000J1D01*
G01*
X110150050Y-76101749D02*
X110150050Y-74501749D01*
X87296497Y-127544698D02*
X86942944Y-127898251D01*
X96150050Y-129498251D02*
G75*
G03*
X97003603Y-129851804I500000J1D01*
G01*
X138357157Y-74501749D02*
X140942944Y-74501749D01*
X78036000Y-92500000D02*
G75*
G03*
X78036000Y-92500000I-3500000J0D01*
G01*
X124357157Y-74501749D02*
X126942944Y-74501749D01*
X72636000Y-84000000D02*
G75*
G03*
X72636000Y-84000000I-1600000J0D01*
G01*
X115150050Y-129498251D02*
X115150050Y-127898251D01*
X111003604Y-127544698D02*
G75*
G03*
X110150050Y-127898250I-353554J-353553D01*
G01*
X88150050Y-127898251D02*
G75*
G03*
X87296497Y-127544698I-500000J-1D01*
G01*
X82150050Y-76101749D02*
X82150050Y-74501749D01*
X129135050Y-121998251D02*
X139135050Y-121998251D01*
X138357157Y-127898251D02*
X138003604Y-127544698D01*
X115136000Y-114500000D02*
G75*
G03*
X114636000Y-114000000I-500001J-1D01*
G01*
X209000000Y-95000000D02*
X209000000Y-73500000D01*
X113942944Y-129498251D02*
X114296497Y-129851805D01*
X140942944Y-127898251D02*
X138357157Y-127898251D01*
X208500000Y-95500000D02*
G75*
G03*
X209000000Y-95000000I-1J500001D01*
G01*
X142150050Y-127898251D02*
G75*
G03*
X141296497Y-127544698I-500000J-1D01*
G01*
X139135050Y-86894642D02*
X139488604Y-87248195D01*
X128781497Y-116751805D02*
X129135050Y-117105358D01*
X128781497Y-121144698D02*
G75*
G03*
X129135050Y-121998250I353553J-353553D01*
G01*
X111003604Y-129851805D02*
X111357157Y-129498251D01*
X139488604Y-116751805D02*
G75*
G03*
X139135050Y-115898250I-353554J353554D01*
G01*
X110136000Y-89500000D02*
X110136000Y-83500000D01*
X207600000Y-128000000D02*
G75*
G03*
X207600000Y-128000000I-1600000J0D01*
G01*
X129135050Y-115898251D02*
G75*
G03*
X128781497Y-116751804I1J-500000D01*
G01*
X208500000Y-131000000D02*
X67500000Y-131000000D01*
X96135050Y-120791145D02*
X96135050Y-117105358D01*
X96488604Y-121144698D02*
X96135050Y-120791145D01*
X139488603Y-82855302D02*
G75*
G03*
X139135050Y-82001749I-353552J353554D01*
G01*
X96488604Y-116751805D02*
G75*
G03*
X96135050Y-115898250I-353554J353554D01*
G01*
X96150050Y-127898251D02*
X96150050Y-129498251D01*
X126942944Y-76101749D02*
X124357157Y-76101749D01*
X114636000Y-121000000D02*
X110636000Y-121000000D01*
X87296497Y-76455302D02*
G75*
G03*
X88150050Y-76101749I353554J353552D01*
G01*
X110150050Y-129498251D02*
G75*
G03*
X111003603Y-129851804I500000J1D01*
G01*
X97357157Y-127898251D02*
X97003604Y-127544698D01*
X110136000Y-120500000D02*
G75*
G03*
X110636000Y-121000000I500001J1D01*
G01*
X140942944Y-76101749D02*
X138357157Y-76101749D01*
X139135050Y-82001749D02*
X129135050Y-82001749D01*
X110636000Y-114000000D02*
G75*
G03*
X110136000Y-114500000I1J-500001D01*
G01*
X85781497Y-116751805D02*
X86135050Y-117105358D01*
X141296497Y-76455302D02*
G75*
G03*
X142150050Y-76101749I353554J353552D01*
G01*
X139135050Y-120791145D02*
X139135050Y-117105358D01*
X123150050Y-76101749D02*
X123150050Y-74501749D01*
X85781497Y-87248196D02*
G75*
G03*
X86135050Y-88101749I353552J-353554D01*
G01*
X67000000Y-130500000D02*
G75*
G03*
X67500000Y-131000000I500001J1D01*
G01*
X96135050Y-115898251D02*
X86135050Y-115898251D01*
X129150050Y-129498251D02*
X129150050Y-127898251D01*
X139135050Y-115898251D02*
X129135050Y-115898251D01*
X208500000Y-125000000D02*
X203000000Y-125000000D01*
X102150050Y-129498251D02*
X102150050Y-127898251D01*
X128150050Y-74501749D02*
X128150050Y-76101749D01*
X115136000Y-83500000D02*
G75*
G03*
X114636000Y-83000000I-500001J-1D01*
G01*
X87296497Y-129851805D02*
G75*
G03*
X88150050Y-129498250I353553J353554D01*
G01*
X113942944Y-127898251D02*
X111357157Y-127898251D01*
X78036000Y-111500000D02*
G75*
G03*
X78036000Y-111500000I-3500000J0D01*
G01*
X209000000Y-73500000D02*
G75*
G03*
X208500000Y-73000000I-500001J-1D01*
G01*
X124357157Y-76101749D02*
X124003604Y-76455302D01*
X96488604Y-82855302D02*
X96135050Y-83208855D01*
X72636000Y-120000000D02*
G75*
G03*
X72636000Y-120000000I-1600000J0D01*
G01*
X115150050Y-127898251D02*
G75*
G03*
X114296497Y-127544698I-500000J-1D01*
G01*
X83357157Y-76101749D02*
X83003604Y-76455302D01*
X154278441Y-92500000D02*
G75*
G03*
X154278441Y-92500000I-3500000J0D01*
G01*
X83150050Y-129498251D02*
G75*
G03*
X84003603Y-129851804I500000J1D01*
G01*
X139488604Y-121144698D02*
X139135050Y-120791145D01*
X128781497Y-87248195D02*
X129135050Y-86894642D01*
X97357157Y-74501749D02*
X100942944Y-74501749D01*
X84357157Y-127898251D02*
X84003604Y-127544698D01*
X97357157Y-76101749D02*
X97003604Y-76455302D01*
X123150050Y-127898251D02*
X123150050Y-129498251D01*
X202500000Y-124500000D02*
G75*
G03*
X203000000Y-125000000I500001J1D01*
G01*
X127942944Y-127898251D02*
X124357157Y-127898251D01*
X100942944Y-127898251D02*
X97357157Y-127898251D01*
X85781497Y-87248195D02*
X86135050Y-86894642D01*
X97003604Y-129851805D02*
X97357157Y-129498251D01*
X203000000Y-95500000D02*
X208500000Y-95500000D01*
X86135050Y-83208855D02*
X85781497Y-82855302D01*
X114296497Y-127544698D02*
X113942944Y-127898251D01*
X102150050Y-74501749D02*
X102150050Y-76101749D01*
X86942944Y-127898251D02*
X84357157Y-127898251D01*
X96135050Y-86894642D02*
X96488604Y-87248195D01*
X141296497Y-129851805D02*
G75*
G03*
X142150050Y-129498250I353553J353554D01*
G01*
X128150050Y-74501750D02*
G75*
G03*
X127296497Y-74148195I-500000J1D01*
G01*
X137150050Y-129498251D02*
G75*
G03*
X138003603Y-129851804I500000J1D01*
G01*
X85781497Y-121144698D02*
G75*
G03*
X86135050Y-121998250I353553J-353553D01*
G01*
X86135050Y-121998251D02*
X96135050Y-121998251D01*
X102150050Y-74501750D02*
G75*
G03*
X101296497Y-74148195I-500000J1D01*
G01*
X139135050Y-88101749D02*
X129135050Y-88101749D01*
X155836000Y-120000000D02*
G75*
G03*
X155836000Y-120000000I-1600000J0D01*
G01*
X86135050Y-115898251D02*
G75*
G03*
X85781497Y-116751804I1J-500000D01*
G01*
X110636000Y-114000000D02*
X114636000Y-114000000D01*
X128781497Y-87248196D02*
G75*
G03*
X129135050Y-88101749I353552J-353554D01*
G01*
X86942944Y-129498251D02*
X87296497Y-129851805D01*
X83003603Y-74148196D02*
G75*
G03*
X82150050Y-74501749I-353554J-353552D01*
G01*
X77711000Y-126500000D02*
G75*
G03*
X77711000Y-126500000I-475000J0D01*
G01*
X86942944Y-76101749D02*
X83357157Y-76101749D01*
X101296497Y-76455302D02*
X100942944Y-76101749D01*
X208500000Y-131000000D02*
G75*
G03*
X209000000Y-130500000I-1J500001D01*
G01*
X88150050Y-74501749D02*
X88150050Y-76101749D01*
X123150050Y-76101750D02*
G75*
G03*
X124003604Y-76455302I500000J1D01*
G01*
X96135050Y-121998251D02*
G75*
G03*
X96488603Y-121144698I-1J500000D01*
G01*
X110136000Y-89500000D02*
G75*
G03*
X110636000Y-90000000I500001J1D01*
G01*
X110136000Y-120500000D02*
X110136000Y-114500000D01*
X142150050Y-129498251D02*
X142150050Y-127898251D01*
X114296497Y-76455302D02*
X113942944Y-76101749D01*
X86135050Y-120791145D02*
X85781497Y-121144698D01*
X139135050Y-121998251D02*
G75*
G03*
X139488603Y-121144698I-1J500000D01*
G01*
X140942944Y-129498251D02*
X141296497Y-129851805D01*
X67500000Y-73000000D02*
G75*
G03*
X67000000Y-73500000I1J-500001D01*
G01*
X114636000Y-121000000D02*
G75*
G03*
X115136000Y-120500000I-1J500001D01*
G01*
X138357157Y-76101749D02*
X138003604Y-76455302D01*
X111003604Y-74148195D02*
X111357157Y-74501749D01*
X148711000Y-76000000D02*
G75*
G03*
X148711000Y-76000000I-475000J0D01*
G01*
X67000000Y-130500000D02*
X67000000Y-73500000D01*
X124003603Y-74148196D02*
G75*
G03*
X123150050Y-74501749I-353554J-353552D01*
G01*
X129150050Y-127898251D02*
G75*
G03*
X128296497Y-127544698I-500000J-1D01*
G01*
X140942944Y-74501749D02*
X141296497Y-74148195D01*
X124003604Y-74148195D02*
X124357157Y-74501749D01*
X101296497Y-127544698D02*
X100942944Y-127898251D01*
X154331000Y-102000000D02*
G75*
G03*
X154331000Y-102000000I-3500000J0D01*
G01*
X142150050Y-74501749D02*
X142150050Y-76101749D01*
X203000000Y-95500000D02*
G75*
G03*
X202500000Y-96000000I1J-500001D01*
G01*
X139135050Y-88101750D02*
G75*
G03*
X139488604Y-87248195I0J500001D01*
G01*
X137150050Y-76101749D02*
X137150050Y-74501749D01*
X111357157Y-76101749D02*
X111003604Y-76455302D01*
X124003604Y-129851805D02*
X124357157Y-129498251D01*
X84357157Y-129498251D02*
X86942944Y-129498251D01*
X97003603Y-74148196D02*
G75*
G03*
X96150050Y-74501749I-353554J-353552D01*
G01*
X115136000Y-89500000D02*
X115136000Y-83500000D01*
X113942944Y-74501749D02*
X114296497Y-74148195D01*
X82150050Y-76101750D02*
G75*
G03*
X83003604Y-76455302I500000J1D01*
G01*
X128296497Y-127544698D02*
X127942944Y-127898251D01*
X87296497Y-76455302D02*
X86942944Y-76101749D01*
X111003603Y-74148196D02*
G75*
G03*
X110150050Y-74501749I-353554J-353552D01*
G01*
X129135050Y-120791145D02*
X128781497Y-121144698D01*
X86135050Y-82001750D02*
G75*
G03*
X85781497Y-82855302I0J-499999D01*
G01*
X127296497Y-76455302D02*
X126942944Y-76101749D01*
X138003604Y-74148195D02*
X138357157Y-74501749D01*
X101296497Y-129851805D02*
G75*
G03*
X102150050Y-129498250I353553J353554D01*
G01*
X76711000Y-75000000D02*
G75*
G03*
X76711000Y-75000000I-475000J0D01*
G01*
X129135050Y-117105358D02*
X129135050Y-120791145D01*
X139135050Y-117105358D02*
X139488604Y-116751805D01*
X100942944Y-129498251D02*
X101296497Y-129851805D01*
X142150050Y-74501750D02*
G75*
G03*
X141296497Y-74148195I-500000J1D01*
G01*
X111357157Y-74501749D02*
X113942944Y-74501749D01*
X129135050Y-86894642D02*
X129135050Y-83208855D01*
X111357157Y-129498251D02*
X113942944Y-129498251D01*
X114296497Y-129851805D02*
G75*
G03*
X115150050Y-129498250I353553J353554D01*
G01*
X148711000Y-128000000D02*
G75*
G03*
X148711000Y-128000000I-475000J0D01*
G01*
X155836000Y-84000000D02*
G75*
G03*
X155836000Y-84000000I-1600000J0D01*
G01*
X127942944Y-129498251D02*
X128296497Y-129851805D01*
X102150050Y-127898251D02*
G75*
G03*
X101296497Y-127544698I-500000J-1D01*
G01*
X110150050Y-127898251D02*
X110150050Y-129498251D01*
X96135050Y-83208855D02*
X96135050Y-86894642D01*
X83357157Y-74501749D02*
X86942944Y-74501749D01*
X141296497Y-127544698D02*
X140942944Y-127898251D01*
X129135050Y-82001750D02*
G75*
G03*
X128781497Y-82855302I0J-499999D01*
G01*
X101296497Y-76455302D02*
G75*
G03*
X102150050Y-76101749I353554J353552D01*
G01*
X124003604Y-127544698D02*
G75*
G03*
X123150050Y-127898250I-353554J-353553D01*
G01*
X115136000Y-120500000D02*
X115136000Y-114500000D01*
X138003604Y-127544698D02*
G75*
G03*
X137150050Y-127898250I-353554J-353553D01*
G01*
X100942944Y-74501749D02*
X101296497Y-74148195D01*
X124357157Y-129498251D02*
X127942944Y-129498251D01*
X126942944Y-74501749D02*
X127296497Y-74148195D01*
X124357157Y-127898251D02*
X124003604Y-127544698D01*
X115150050Y-74501750D02*
G75*
G03*
X114296497Y-74148195I-500000J1D01*
G01*
X128296497Y-129851805D02*
G75*
G03*
X129150050Y-129498250I353553J353554D01*
G01*
X141296497Y-76455302D02*
X140942944Y-76101749D01*
X97003604Y-127544698D02*
G75*
G03*
X96150050Y-127898250I-353554J-353553D01*
G01*
X86135050Y-86894642D02*
X86135050Y-83208855D01*
X96135050Y-88101750D02*
G75*
G03*
X96488604Y-87248195I0J500001D01*
G01*
X137150050Y-76101750D02*
G75*
G03*
X138003604Y-76455302I500000J1D01*
G01*
X97357157Y-129498251D02*
X100942944Y-129498251D01*
X139135050Y-83208855D02*
X139135050Y-86894642D01*
X138003603Y-74148196D02*
G75*
G03*
X137150050Y-74501749I-353554J-353552D01*
G01*
X138357157Y-129498251D02*
X140942944Y-129498251D01*
X115150050Y-74501749D02*
X115150050Y-76101749D01*
X110636000Y-83000000D02*
G75*
G03*
X110136000Y-83500000I1J-500001D01*
G01*
X96135050Y-88101749D02*
X86135050Y-88101749D01*
X110636000Y-83000000D02*
X114636000Y-83000000D01*
X139488604Y-82855302D02*
X139135050Y-83208855D01*
X88150050Y-74501750D02*
G75*
G03*
X87296497Y-74148195I-500000J1D01*
G01*
X86135050Y-117105358D02*
X86135050Y-120791145D01*
X138003604Y-129851805D02*
X138357157Y-129498251D01*
X209000000Y-125500000D02*
X209000000Y-130500000D01*
X114636000Y-90000000D02*
G75*
G03*
X115136000Y-89500000I-1J500001D01*
G01*
X202500000Y-124500000D02*
X202500000Y-96000000D01*
X84003604Y-129851805D02*
X84357157Y-129498251D01*
X96488603Y-82855302D02*
G75*
G03*
X96135050Y-82001749I-353552J353554D01*
G01*
X83150050Y-127898251D02*
X83150050Y-129498251D01*
X96150050Y-76101750D02*
G75*
G03*
X97003604Y-76455302I500000J1D01*
G01*
X129135050Y-83208855D02*
X128781497Y-82855302D01*
X96135050Y-117105358D02*
X96488604Y-116751805D01*
X123150050Y-129498251D02*
G75*
G03*
X124003603Y-129851804I500000J1D01*
G01*
X127296497Y-76455302D02*
G75*
G03*
X128150050Y-76101749I353554J353552D01*
G01*
X114636000Y-90000000D02*
X110636000Y-90000000D01*
X86135050Y-82001749D02*
X96135050Y-82001749D01*
X209000000Y-125500000D02*
G75*
G03*
X208500000Y-125000000I-500001J-1D01*
G01*
X100942944Y-76101749D02*
X97357157Y-76101749D01*
X97003604Y-74148195D02*
X97357157Y-74501749D01*
X84003604Y-127544698D02*
G75*
G03*
X83150050Y-127898250I-353554J-353553D01*
G01*
X83003604Y-74148195D02*
X83357157Y-74501749D01*
X114296497Y-76455302D02*
G75*
G03*
X115150050Y-76101749I353554J353552D01*
G01*
X88150050Y-129498251D02*
X88150050Y-127898251D01*
X113942944Y-76101749D02*
X111357157Y-76101749D01*
X137150050Y-127898251D02*
X137150050Y-129498251D01*
X208500000Y-73000000D02*
X67500000Y-73000000D01*
M02*
