0
SECTION
2
HEADER
9
$INSUNITS
70
4
9
$ACADVER
1
AC1014
9
$HANDSEED
5
FFFF
0
ENDSEC
0
SECTION
2
TABLES
0
TABLE
2
VPORT
5
8
100
AcDbSymbolTable
0
ENDTAB
0
TABLE
2
LTYPE
5
5
100
AcDbSymbolTable
0
LTYPE
5
14
100
AcDbSymbolTableRecord
100
AcDbLinetypeTableRecord
2
BYBLOCK
70
0
0
LTYPE
5
15
100
AcDbSymbolTableRecord
100
AcDbLinetypeTableRecord
2
BYLAYER
70
0
0
ENDTAB
0
TABLE
2
LAYER
5
2
100
AcDbSymbolTable
70
2
0
LAYER
5
50
100
AcDbSymbolTableRecord
100
AcDbLayerTableRecord
2
0
70
0
6
CONTINUOUS
0
ENDTAB
0
TABLE
2
STYLE
5
3
100
AcDbSymbolTable
70
1
0
STYLE
5
11
100
AcDbSymbolTableRecord
100
AcDbTextStyleTableRecord
2
STANDARD
70
0
0
ENDTAB
0
TABLE
2
VIEW
5
6
100
AcDbSymbolTable
70
0
0
ENDTAB
0
TABLE
2
UCS
5
7
100
AcDbSymbolTable
70
0
0
ENDTAB
0
TABLE
2
APPID
5
9
100
AcDbSymbolTable
70
2
0
APPID
5
12
100
AcDbSymbolTableRecord
100
AcDbRegAppTableRecord
2
ACAD
70
0
0
ENDTAB
0
TABLE
2
DIMSTYLE
5
A
100
AcDbSymbolTable
70
1
0
ENDTAB
0
TABLE
2
BLOCK_RECORD
5
1
100
AcDbSymbolTable
70
1
0
BLOCK_RECORD
5
1F
100
AcDbSymbolTableRecord
100
AcDbBlockTableRecord
2
*MODEL_SPACE
0
BLOCK_RECORD
5
1B
100
AcDbSymbolTableRecord
100
AcDbBlockTableRecord
2
*PAPER_SPACE
0
ENDTAB
0
ENDSEC
0
SECTION
2
BLOCKS
0
BLOCK
5
20
100
AcDbEntity
100
AcDbBlockBegin
2
*MODEL_SPACE
0
ENDBLK
5
21
100
AcDbEntity
100
AcDbBlockEnd
0
BLOCK
5
1C
100
AcDbEntity
100
AcDbBlockBegin
2
*PAPER_SPACE
0
ENDBLK
5
1D
100
AcDbEntity
100
AcDbBlockEnd
0
ENDSEC
0
SECTION
2
ENTITIES
0
CIRCLE
5
100
100
AcDbEntity
8
0
100
AcDbCircle
10
127.09219868981353
20
59.587980212495822
30
0
40
0.99999999999999645
210
0
220
0
230
1
0
CIRCLE
5
101
100
AcDbEntity
8
0
100
AcDbCircle
10
82.908094856557128
20
59.587980212495822
30
0
40
0.99999999999999645
210
0
220
0
230
1
0
CIRCLE
5
102
100
AcDbEntity
8
0
100
AcDbCircle
10
82.906929643401511
20
107.58798019835291
30
0
40
0.99999999999999645
210
0
220
0
230
1
0
CIRCLE
5
103
100
AcDbEntity
8
0
100
AcDbCircle
10
127.09092964340149
20
107.58798019835291
30
0
40
0.99999999999999645
210
0
220
0
230
1
0
CIRCLE
5
104
100
AcDbEntity
8
0
100
AcDbCircle
10
134.99951224997938
20
61.08798020542438
30
0
40
1.6000000000000014
210
0
220
0
230
1
0
CIRCLE
5
105
100
AcDbEntity
8
0
100
AcDbCircle
10
134.99951224997938
20
106.08798020542439
30
0
40
1.6000000000000014
210
0
220
0
230
1
0
CIRCLE
5
106
100
AcDbEntity
8
0
100
AcDbCircle
10
104.99892964340154
20
107.58798019835294
30
0
40
1.5000000000000036
210
0
220
0
230
1
0
CIRCLE
5
107
100
AcDbEntity
8
0
100
AcDbCircle
10
74.999512249979375
20
61.08798020542438
30
0
40
1.6000000000000014
210
0
220
0
230
1
0
CIRCLE
5
108
100
AcDbEntity
8
0
100
AcDbCircle
10
74.999512249979361
20
106.08798020542439
30
0
40
1.6000000000000014
210
0
220
0
230
1
0
CIRCLE
5
109
100
AcDbEntity
8
0
100
AcDbCircle
10
80.99951225705081
20
83.587397598846593
30
0
40
1.5000000000000036
210
0
220
0
230
1
0
CIRCLE
5
110
100
AcDbEntity
8
0
100
AcDbCircle
10
128.99951224290791
20
83.588562812002195
30
0
40
1.5000000000000036
210
0
220
0
230
1
0
CIRCLE
5
111
100
AcDbEntity
8
0
100
AcDbCircle
10
105.00009485655717
20
59.58798021249585
30
0
40
1.5000000000000036
210
0
220
0
230
1
0
LWPOLYLINE
5
112
100
AcDbEntity
8
0
100
AcDbPolyline
90
8
70
1
43
0.0
10
137.49951224997938
20
113.58798020542437
42
-0.41421356237309298
10
139.99951224997938
20
111.08798020542439
10
139.99951224997938
20
56.08798020542438
42
-0.41421356237309193
10
137.49951224997938
20
53.58798020542438
10
72.499512249979375
20
53.587980205424373
42
-0.41421356237309404
10
69.999512249979375
20
56.087980205424387
10
69.999512249979347
20
111.0879802054244
42
-0.41421356237308982
10
72.499512249979361
20
113.58798020542439
0
LWPOLYLINE
5
113
100
AcDbEntity
8
0
100
AcDbPolyline
90
76
70
1
43
0.0
10
81.499512249979404
20
94.087446148216003
42
-0.41421356237309509
10
82.999512249979404
20
92.587446148216003
10
82.999512249979389
20
87.587446150573186
42
-0.41419934326753488
10
84.999463705324018
20
85.587494701710455
10
84.999560806420419
20
81.587494700532204
42
-0.41421356237310542
10
82.999609357557844
20
79.587446150573328
10
82.999512249979389
20
79.587446148216003
10
82.999512249979389
20
74.587446150573172
42
-0.4142135623730881
10
81.499512249979375
20
73.087446150573172
10
80.499706452275888
20
73.087446150573172
42
0.99999999999999989
10
80.499706452275873
20
70.087446150573157
10
81.499512249979418
20
70.087446150573129
42
-0.41421356237308982
10
82.999512249979389
20
68.587446150573157
10
82.999512249979404
20
64.587980205424415
42
0.41421356237309587
10
85.999512249979389
20
61.587980205424408
10
92.549658331903188
20
61.587980205424401
42
-0.41421356237308982
10
94.049658331903174
20
60.087980205424401
10
94.049658331903174
20
59.087980205424408
42
0.99999999999999989
10
97.049658331903174
20
59.087980205424408
10
97.049658331903174
20
60.087980205424401
42
-0.41421356237309331
10
98.549658331903188
20
61.587980205424408
10
101.00004630483058
20
61.587980205424408
42
-0.41419934326753749
10
102.99999775369331
20
63.587931660769065
10
106.99999775487159
20
63.588028761865417
42
-0.41421356237309892
10
109.00004630483045
20
61.588077313002856
10
109.00004630718776
20
61.587980205424408
10
114.00004630247345
20
61.587980205424408
42
-0.4142135623730881
10
115.50004630247345
20
60.087980205424401
10
115.50004630247346
20
59.088174407720864
42
0.99999999999999989
10
118.50004630247346
20
59.088174407720864
10
118.50004630247346
20
60.087980205424401
42
-0.4142135623730881
10
120.00004630247346
20
61.587980205424408
10
123.99951224997938
20
61.587980205424401
42
0.41421356237309509
10
126.99951224997939
20
64.587980205424401
10
126.99951224997939
20
68.588514260275602
42
-0.41421356237309331
10
128.4995122499794
20
70.088514260275602
10
129.49951224997938
20
70.088514260275602
42
0.99999999999999989
10
129.49951224997938
20
73.088514260275602
10
128.49951224997938
20
73.088514260275602
42
-0.41421356237308982
10
126.99951224997939
20
74.588514260275602
10
126.99951224997939
20
79.588514260275616
42
-0.41419934326754532
10
124.99956079463468
20
81.588465709138347
10
124.99946369353833
20
85.588465710316598
42
-0.41421356237309509
10
126.99941514240088
20
87.58851426027546
10
126.99951224997939
20
87.588514262632771
10
126.99951224997939
20
92.588514257918291
42
-0.4142135623730881
10
128.4995122499794
20
94.088514257918291
10
129.49922094010449
20
94.088514257918305
42
0.99999999999999989
10
129.49922094010449
20
97.088514257918291
10
128.4995122499794
20
97.088514257918291
42
-0.4142135623730881
10
126.99951224997939
20
98.588514257918291
10
126.99951224997939
20
102.58798020542442
42
0.41421356237309509
10
123.99951224997938
20
105.58798020542442
10
119.9989781951281
20
105.58798020542442
42
-0.41421356237308121
10
118.4989781951281
20
107.08798020542443
10
118.49897819512807
20
108.08798020542442
42
0.99999999999999989
10
115.49897819512809
20
108.08798020542442
10
115.49897819512807
20
107.0879802054244
42
-0.4142135623730881
10
113.99897819512809
20
105.58798020542442
10
108.9989781951281
20
105.58798020542442
42
-0.41419934326754276
10
106.9990267462654
20
103.5880287500797
10
102.99902674508712
20
103.58793164898336
42
-0.4142135623731002
10
100.99897819512826
20
105.5878830978459
10
100.99897819277095
20
105.58798020542442
10
95.998978202115651
20
105.5879802054244
42
-0.41421356237309509
10
94.498978202115637
20
107.0879802054244
10
94.498978202115637
20
108.08768889554962
42
0.99999999999999989
10
91.498978202115637
20
108.08768889554962
10
91.498978202115637
20
107.08798020542443
42
-0.4142135623730881
10
89.998978202115637
20
105.58798020542442
10
85.999512249979375
20
105.58798020542443
42
0.41421356237309331
10
82.999512249979389
20
102.58798020542443
10
82.999512249979404
20
98.587446148216017
42
-0.4142135623730881
10
81.499512249979375
20
97.087446148215989
10
80.499318047786801
20
97.087446148216003
42
0.99999999999999989
10
80.499318047786787
20
94.087446148216017
0
ENDSEC
0
SECTION
2
OBJECTS
0
DICTIONARY
5
C
100
AcDbDictionary
3
ACAD_GROUP
350
D
3
ACAD_MLINESTYLE
350
17
0
DICTIONARY
5
D
100
AcDbDictionary
0
DICTIONARY
5
1A
330
C
100
AcDbDictionary
0
DICTIONARY
5
17
100
AcDbDictionary
0
ENDSEC
0
EOF
