0
SECTION
2
HEADER
9
$INSUNITS
70
4
9
$ACADVER
1
AC1014
9
$HANDSEED
5
FFFF
0
ENDSEC
0
SECTION
2
TABLES
0
TABLE
2
VPORT
5
8
100
AcDbSymbolTable
0
ENDTAB
0
TABLE
2
LTYPE
5
5
100
AcDbSymbolTable
0
LTYPE
5
14
100
AcDbSymbolTableRecord
100
AcDbLinetypeTableRecord
2
BYBLOCK
70
0
0
LTYPE
5
15
100
AcDbSymbolTableRecord
100
AcDbLinetypeTableRecord
2
BYLAYER
70
0
0
ENDTAB
0
TABLE
2
LAYER
5
2
100
AcDbSymbolTable
70
2
0
LAYER
5
50
100
AcDbSymbolTableRecord
100
AcDbLayerTableRecord
2
0
70
0
6
CONTINUOUS
0
ENDTAB
0
TABLE
2
STYLE
5
3
100
AcDbSymbolTable
70
1
0
STYLE
5
11
100
AcDbSymbolTableRecord
100
AcDbTextStyleTableRecord
2
STANDARD
70
0
0
ENDTAB
0
TABLE
2
VIEW
5
6
100
AcDbSymbolTable
70
0
0
ENDTAB
0
TABLE
2
UCS
5
7
100
AcDbSymbolTable
70
0
0
ENDTAB
0
TABLE
2
APPID
5
9
100
AcDbSymbolTable
70
2
0
APPID
5
12
100
AcDbSymbolTableRecord
100
AcDbRegAppTableRecord
2
ACAD
70
0
0
ENDTAB
0
TABLE
2
DIMSTYLE
5
A
100
AcDbSymbolTable
70
1
0
ENDTAB
0
TABLE
2
BLOCK_RECORD
5
1
100
AcDbSymbolTable
70
1
0
BLOCK_RECORD
5
1F
100
AcDbSymbolTableRecord
100
AcDbBlockTableRecord
2
*MODEL_SPACE
0
BLOCK_RECORD
5
1B
100
AcDbSymbolTableRecord
100
AcDbBlockTableRecord
2
*PAPER_SPACE
0
ENDTAB
0
ENDSEC
0
SECTION
2
BLOCKS
0
BLOCK
5
20
100
AcDbEntity
100
AcDbBlockBegin
2
*MODEL_SPACE
0
ENDBLK
5
21
100
AcDbEntity
100
AcDbBlockEnd
0
BLOCK
5
1C
100
AcDbEntity
100
AcDbBlockBegin
2
*PAPER_SPACE
0
ENDBLK
5
1D
100
AcDbEntity
100
AcDbBlockEnd
0
ENDSEC
0
SECTION
2
ENTITIES
0
LWPOLYLINE
5
100
100
AcDbEntity
8
0
100
AcDbPolyline
90
28
70
1
43
0.0
10
62.226470677006844
20
-254.02647483021983
10
24.226470677006851
20
-254.02647483021994
10
24.226470677006855
20
-259.52647483021985
10
-5.7735293229931504
20
-259.52647483021991
10
-5.7735293229931495
20
-254.02647483021997
10
-27.773529322993159
20
-254.02647483022002
10
-27.773529322993184
20
-244.52647483021997
10
-33.273529322993028
20
-244.52647483021997
10
-33.273529322993049
20
-233.52647483021997
10
-27.773529322993195
20
-233.52647483021997
10
-27.773529322993223
20
-224.02647483021997
10
-5.773529322993177
20
-224.02647483021983
10
-5.773529322993185
20
-218.52647483021983
10
24.226470677006816
20
-218.52647483021985
10
24.226470677006819
20
-224.02647483021983
10
62.226470677006802
20
-224.02647483021983
10
62.226470677006802
20
-218.52647483021983
10
92.226470677006787
20
-218.5264748302198
10
92.226470677006787
20
-224.02647483021977
10
114.22647067700674
20
-224.02647483021966
10
114.22647067700693
20
-233.52647483021968
10
119.72647067700694
20
-233.52647483021968
10
119.72647067700697
20
-244.52647483021974
10
114.22647067700696
20
-244.52647483021968
10
114.2264706770068
20
-254.02647483021968
10
92.22647067700683
20
-254.02647483021985
10
92.22647067700683
20
-259.52647483021985
10
62.226470677006837
20
-259.52647483021985
0
LWPOLYLINE
5
101
100
AcDbEntity
8
0
100
AcDbPolyline
90
8
70
1
43
0.0
10
98.726470677007001
20
-231.52647483021968
10
-12.273529322993229
20
-231.52647483021977
42
0.41421356237310197
10
-13.77352932299322
20
-233.0264748302198
10
-13.77352932299322
20
-235.02647483021974
42
0.41421356237309509
10
-12.27352932299322
20
-236.5264748302198
10
98.726470677006986
20
-236.52647483021968
42
0.41421356237312973
10
100.22647067700696
20
-235.02647483021968
10
100.22647067700697
20
-233.02647483021968
42
0.41421356237310886
0
LWPOLYLINE
5
102
100
AcDbEntity
8
0
100
AcDbPolyline
90
8
70
1
43
0.0
10
-12.273529322993202
20
-246.52647483021966
10
98.726470677007001
20
-246.52647483021968
42
0.41421356237312629
10
100.22647067700697
20
-245.02647483021968
10
100.226470677007
20
-243.02647483021968
42
0.41421356237311929
10
98.726470677007001
20
-241.52647483021974
10
-12.273529322993205
20
-241.52647483021977
42
0.41421356237310109
10
-13.773529322993209
20
-243.0264748302198
10
-13.773529322993209
20
-245.02647483021974
42
0.41421356237309681
0
ENDSEC
0
SECTION
2
OBJECTS
0
DICTIONARY
5
C
100
AcDbDictionary
3
ACAD_GROUP
350
D
3
ACAD_MLINESTYLE
350
17
0
DICTIONARY
5
D
100
AcDbDictionary
0
DICTIONARY
5
1A
330
C
100
AcDbDictionary
0
DICTIONARY
5
17
100
AcDbDictionary
0
ENDSEC
0
EOF
