0
SECTION
2
HEADER
9
$INSUNITS
70
4
9
$ACADVER
1
AC1014
9
$HANDSEED
5
FFFF
0
ENDSEC
0
SECTION
2
TABLES
0
TABLE
2
VPORT
5
8
100
AcDbSymbolTable
0
ENDTAB
0
TABLE
2
LTYPE
5
5
100
AcDbSymbolTable
0
LTYPE
5
14
100
AcDbSymbolTableRecord
100
AcDbLinetypeTableRecord
2
BYBLOCK
70
0
0
LTYPE
5
15
100
AcDbSymbolTableRecord
100
AcDbLinetypeTableRecord
2
BYLAYER
70
0
0
ENDTAB
0
TABLE
2
LAYER
5
2
100
AcDbSymbolTable
70
2
0
LAYER
5
50
100
AcDbSymbolTableRecord
100
AcDbLayerTableRecord
2
0
70
0
6
CONTINUOUS
0
ENDTAB
0
TABLE
2
STYLE
5
3
100
AcDbSymbolTable
70
1
0
STYLE
5
11
100
AcDbSymbolTableRecord
100
AcDbTextStyleTableRecord
2
STANDARD
70
0
0
ENDTAB
0
TABLE
2
VIEW
5
6
100
AcDbSymbolTable
70
0
0
ENDTAB
0
TABLE
2
UCS
5
7
100
AcDbSymbolTable
70
0
0
ENDTAB
0
TABLE
2
APPID
5
9
100
AcDbSymbolTable
70
2
0
APPID
5
12
100
AcDbSymbolTableRecord
100
AcDbRegAppTableRecord
2
ACAD
70
0
0
ENDTAB
0
TABLE
2
DIMSTYLE
5
A
100
AcDbSymbolTable
70
1
0
ENDTAB
0
TABLE
2
BLOCK_RECORD
5
1
100
AcDbSymbolTable
70
1
0
BLOCK_RECORD
5
1F
100
AcDbSymbolTableRecord
100
AcDbBlockTableRecord
2
*MODEL_SPACE
0
BLOCK_RECORD
5
1B
100
AcDbSymbolTableRecord
100
AcDbBlockTableRecord
2
*PAPER_SPACE
0
ENDTAB
0
ENDSEC
0
SECTION
2
BLOCKS
0
BLOCK
5
20
100
AcDbEntity
100
AcDbBlockBegin
2
*MODEL_SPACE
0
ENDBLK
5
21
100
AcDbEntity
100
AcDbBlockEnd
0
BLOCK
5
1C
100
AcDbEntity
100
AcDbBlockBegin
2
*PAPER_SPACE
0
ENDBLK
5
1D
100
AcDbEntity
100
AcDbBlockEnd
0
ENDSEC
0
SECTION
2
ENTITIES
0
CIRCLE
5
100
100
AcDbEntity
8
0
100
AcDbCircle
10
-151.49999868981374
20
109.12647010890082
30
0
40
1.6000000000000003
210
-2.189528850507523e-47
220
3.9443045261050599e-31
230
1
0
CIRCLE
5
101
100
AcDbEntity
8
0
100
AcDbCircle
10
-58.499998689813822
20
109.12647010890062
30
0
40
1.6000000000000003
210
-2.189528850507523e-47
220
3.9443045261050599e-31
230
1
0
LWPOLYLINE
5
102
100
AcDbEntity
8
0
100
AcDbPolyline
90
4
70
1
43
0.0
10
-79.899998689813501
20
114.02647010890087
10
-79.899998689813515
20
119.72647010890086
10
-130.09999868981348
20
119.72647010890086
10
-130.09999868981345
20
114.02647010890085
0
LWPOLYLINE
5
103
100
AcDbEntity
8
0
100
AcDbPolyline
90
4
70
1
43
0.0
10
-47.899998689813884
20
62.126470108900818
10
-47.899998689813813
20
92.326470108900793
10
-53.599998689813795
20
92.326470108900821
10
-53.599998689813873
20
62.126470108900833
0
LWPOLYLINE
5
104
100
AcDbEntity
8
0
100
AcDbPolyline
90
4
70
1
43
0.0
10
-156.49999868981388
20
62.126470108900861
10
-156.49999868981379
20
92.326470108900835
10
-162.19999868981387
20
92.326470108900835
10
-162.1999986898139
20
62.126470108900875
0
CIRCLE
5
105
100
AcDbEntity
8
0
100
AcDbCircle
10
-58.49999868981385
20
-22.873529891090669
30
0
40
1.6000000000000003
210
-6.1629758220390671e-33
220
3.9443045261050599e-31
230
1
0
CIRCLE
5
106
100
AcDbEntity
8
0
100
AcDbCircle
10
-151.49999868981374
20
-22.873529891090577
30
0
40
1.6000000000000003
210
-6.1629758220390671e-33
220
3.9443045261050599e-31
230
1
0
LWPOLYLINE
5
107
100
AcDbEntity
8
0
100
AcDbPolyline
90
8
70
1
43
0.0
10
-167.99999868981385
20
-33.37352989109899
10
-167.99999868981362
20
119.62647010890088
42
-0.41421356237309509
10
-161.99999868981365
20
125.62647010890086
10
-47.999998689813658
20
125.62647010890068
42
-0.41421356237309587
10
-41.999998689813665
20
119.62647010890066
10
-41.9999986898139
20
-33.373529891099196
42
-0.41421356237309509
10
-47.999998689813914
20
-39.373529891099174
10
-161.99999868981388
20
-39.373529891098975
42
-0.41421356237309198
0
LWPOLYLINE
5
108
100
AcDbEntity
8
0
100
AcDbPolyline
90
4
70
1
43
0.0
10
-162.19999868981398
20
-5.8735298910990954
10
-156.49999868981394
20
-5.8735298910991096
10
-156.49999868981388
20
24.326470108900882
10
-162.19999868981398
20
24.326470108900878
0
LWPOLYLINE
5
109
100
AcDbEntity
8
0
100
AcDbPolyline
90
4
70
1
43
0.0
10
-79.899998689813827
20
-27.773529891098953
10
-130.09999868981376
20
-27.773529891098988
10
-130.09999868981379
20
-33.473529891098991
10
-79.899998689813813
20
-33.47352989109892
0
LWPOLYLINE
5
110
100
AcDbEntity
8
0
100
AcDbPolyline
90
4
70
1
43
0.0
10
-53.599998689813958
20
24.326470108900857
10
-53.599998689814008
20
-5.8735298910991212
10
-47.899998689814012
20
-5.8735298910991363
10
-47.899998689813934
20
24.326470108900846
0
ENDSEC
0
SECTION
2
OBJECTS
0
DICTIONARY
5
C
100
AcDbDictionary
3
ACAD_GROUP
350
D
3
ACAD_MLINESTYLE
350
17
0
DICTIONARY
5
D
100
AcDbDictionary
0
DICTIONARY
5
1A
330
C
100
AcDbDictionary
0
DICTIONARY
5
17
100
AcDbDictionary
0
ENDSEC
0
EOF
