0
SECTION
2
HEADER
9
$INSUNITS
70
4
9
$ACADVER
1
AC1014
9
$HANDSEED
5
FFFF
0
ENDSEC
0
SECTION
2
TABLES
0
TABLE
2
VPORT
5
8
100
AcDbSymbolTable
0
ENDTAB
0
TABLE
2
LTYPE
5
5
100
AcDbSymbolTable
0
LTYPE
5
14
100
AcDbSymbolTableRecord
100
AcDbLinetypeTableRecord
2
BYBLOCK
70
0
0
LTYPE
5
15
100
AcDbSymbolTableRecord
100
AcDbLinetypeTableRecord
2
BYLAYER
70
0
0
ENDTAB
0
TABLE
2
LAYER
5
2
100
AcDbSymbolTable
70
2
0
LAYER
5
50
100
AcDbSymbolTableRecord
100
AcDbLayerTableRecord
2
0
70
0
6
CONTINUOUS
0
ENDTAB
0
TABLE
2
STYLE
5
3
100
AcDbSymbolTable
70
1
0
STYLE
5
11
100
AcDbSymbolTableRecord
100
AcDbTextStyleTableRecord
2
STANDARD
70
0
0
ENDTAB
0
TABLE
2
VIEW
5
6
100
AcDbSymbolTable
70
0
0
ENDTAB
0
TABLE
2
UCS
5
7
100
AcDbSymbolTable
70
0
0
ENDTAB
0
TABLE
2
APPID
5
9
100
AcDbSymbolTable
70
2
0
APPID
5
12
100
AcDbSymbolTableRecord
100
AcDbRegAppTableRecord
2
ACAD
70
0
0
ENDTAB
0
TABLE
2
DIMSTYLE
5
A
100
AcDbSymbolTable
70
1
0
ENDTAB
0
TABLE
2
BLOCK_RECORD
5
1
100
AcDbSymbolTable
70
1
0
BLOCK_RECORD
5
1F
100
AcDbSymbolTableRecord
100
AcDbBlockTableRecord
2
*MODEL_SPACE
0
BLOCK_RECORD
5
1B
100
AcDbSymbolTableRecord
100
AcDbBlockTableRecord
2
*PAPER_SPACE
0
ENDTAB
0
ENDSEC
0
SECTION
2
BLOCKS
0
BLOCK
5
20
100
AcDbEntity
100
AcDbBlockBegin
2
*MODEL_SPACE
0
ENDBLK
5
21
100
AcDbEntity
100
AcDbBlockEnd
0
BLOCK
5
1C
100
AcDbEntity
100
AcDbBlockBegin
2
*PAPER_SPACE
0
ENDBLK
5
1D
100
AcDbEntity
100
AcDbBlockEnd
0
ENDSEC
0
SECTION
2
ENTITIES
0
CIRCLE
5
100
100
AcDbEntity
8
0
100
AcDbCircle
10
84.999512249457482
20
68.588001535355048
30
0
40
0.99999999999999645
210
0
220
-0
230
1
0
CIRCLE
5
101
100
AcDbEntity
8
0
100
AcDbCircle
10
84.999512249457482
20
98.588001535355062
30
0
40
0.99999999999999645
210
0
220
-0
230
1
0
CIRCLE
5
102
100
AcDbEntity
8
0
100
AcDbCircle
10
124.99951224945752
20
68.588001535355062
30
0
40
1.0000000000000142
210
0
220
-0
230
1
0
CIRCLE
5
103
100
AcDbEntity
8
0
100
AcDbCircle
10
124.99951224945752
20
98.588001535355062
30
0
40
1.0000000000000142
210
0
220
-0
230
1
0
ARC
5
104
100
AcDbEntity
8
0
100
AcDbCircle
10
64.523059677819418
20
75.087467473874383
30
9.0646494411011604e-44
40
1.4999999999999778
210
-3.1554436208840206e-30
220
3.2047474274608308e-31
230
1
100
AcDbArc
50
32.58963648080784
51
90.00000000000054
0
LINE
5
105
100
AcDbEntity
8
0
100
AcDbLine
10
64.523059677819404
20
76.587467473874369
30
-4.8071211411905433e-31
11
63.499390875090782
21
76.587467473874355
31
0
0
ARC
5
106
100
AcDbEntity
8
0
100
AcDbCircle
10
63.499390875090782
20
78.087467473874355
30
0
40
1.5000000000000036
210
-3.1554436208840472e-30
220
-7.3955709864470273e-32
230
1
100
AcDbArc
50
90
51
270
0
LINE
5
107
100
AcDbEntity
8
0
100
AcDbLine
10
63.499390875090782
20
79.587467473874355
30
1.1093356479670568e-31
11
64.999390875090782
21
79.587467473874355
31
0
0
ARC
5
108
100
AcDbEntity
8
0
100
AcDbCircle
10
64.999560801184202
20
81.58746747858865
30
3.5032461608120427e-45
40
2.0000000000000022
210
3.1554436199543137e-30
220
7.6599258724479272e-35
230
1
100
AcDbArc
50
-89.998609129248607
51
0.0013908703810691446
0
LINE
5
109
100
AcDbEntity
8
0
100
AcDbLine
10
66.999560800594921
20
81.587516029136808
30
-6.3108872417680986e-30
11
66.999463699498619
21
85.587516027958216
31
0
0
ARC
5
110
100
AcDbEntity
8
0
100
AcDbCircle
10
64.999463700087915
20
85.587467477410087
30
-3.3937697182866663e-44
40
1.9999999999999842
210
5.6851012145376516e-36
220
-2.341930811684452e-31
230
1
100
AcDbArc
50
0.0013908703810691446
51
90.001390870751379
0
LINE
5
111
100
AcDbEntity
8
0
100
AcDbLine
10
64.999390875090768
20
87.587467476820763
30
0
11
63.499415149539765
21
87.587467476820763
31
0
0
ARC
5
112
100
AcDbEntity
8
0
100
AcDbCircle
10
63.499415149539772
20
89.087467476820763
30
0
40
1.5000000000000036
210
-3.1554436208840472e-30
220
8.504906634414009e-31
230
1
100
AcDbArc
50
90
51
269.99999999999972
0
LINE
5
113
100
AcDbEntity
8
0
100
AcDbLine
10
63.499415149539772
20
90.587467476820777
30
-1.2757359951621043e-30
11
64.5221342762961
21
90.587467476820777
31
0
0
ARC
5
114
100
AcDbEntity
8
0
100
AcDbCircle
10
64.522134276296072
20
92.087467476820834
30
-2.5661278127948213e-43
40
1.5000000000000568
210
-2.6589499066058791e-30
220
1.2384274899742996e-43
230
1
100
AcDbArc
50
270.00000000000108
51
327.4215374676175
0
ARC
5
115
100
AcDbEntity
8
0
100
AcDbCircle
10
69.999390874560433
20
88.587516026190301
30
1.1254178291608687e-43
40
5.0000000000000355
210
8.4953072909965696e-31
220
1.3294749533029508e-30
230
1
100
AcDbArc
50
90.000000000000171
51
147.42153746761841
0
LINE
5
116
100
AcDbEntity
8
0
100
AcDbLine
10
69.999390874560419
20
93.587516026190343
30
-6.6473747665146815e-30
11
139.99939089518551
21
93.587516026190372
31
0
0
ARC
5
117
100
AcDbEntity
8
0
100
AcDbCircle
10
139.99939089518551
20
88.587516026190286
30
0
40
5.0000000000000746
210
0
220
-0
230
1
100
AcDbArc
50
32.58963641916305
51
90
0
ARC
5
118
100
AcDbEntity
8
0
100
AcDbCircle
10
145.47596482486244
20
92.088535590943451
30
1.5720817146644042e-43
40
1.5000000000000415
210
-4.623373543222519e-31
220
7.2322495049377496e-31
230
1
100
AcDbArc
50
212.58963641916344
51
270
0
LINE
5
119
100
AcDbEntity
8
0
100
AcDbLine
10
145.47596482486244
20
90.588535590943422
30
-1.4976031247555453e-30
11
146.49939089465522
21
90.588535590943422
31
0
0
ARC
5
120
100
AcDbEntity
8
0
100
AcDbCircle
10
146.49939089465522
20
89.088535590943408
30
0
40
1.5000000000000036
210
-3.1554436208840472e-30
220
7.0257924371246145e-31
230
1
100
AcDbArc
50
-90
51
90
0
LINE
5
121
100
AcDbEntity
8
0
100
AcDbLine
10
146.49939089465522
20
87.588535590943408
30
1.0538688655686948e-30
11
144.99939089465522
21
87.588535590943408
31
0
0
ARC
5
122
100
AcDbEntity
8
0
100
AcDbCircle
10
144.9994636977294
20
85.588535592268485
30
0
40
1.9999999999999911
210
0
220
0
230
1
100
AcDbArc
50
90.002085654443377
51
180.00139087038104
0
LINE
5
123
100
AcDbEntity
8
0
100
AcDbLine
10
142.99946369831869
20
85.588487041719958
30
0
11
142.999560799416
21
81.588487030820872
31
0
0
ARC
5
124
100
AcDbEntity
8
0
100
AcDbCircle
10
144.99956079882674
20
81.588535581369428
30
0
40
2.0000000000000111
210
0
220
0
230
1
100
AcDbArc
50
180.00139087038104
51
269.99513260401943
0
LINE
5
125
100
AcDbEntity
8
0
100
AcDbLine
10
144.99939089465522
20
79.588535588586268
30
0
11
146.49939089465522
21
79.58853558858624
31
0
0
ARC
5
126
100
AcDbEntity
8
0
100
AcDbCircle
10
146.49939089465522
20
78.088535588586254
30
0
40
1.5000000000000036
210
-3.1554436208840472e-30
220
-9.9840208317034149e-31
230
1
100
AcDbArc
50
-90
51
90
0
LINE
5
127
100
AcDbEntity
8
0
100
AcDbLine
10
146.49939089465522
20
76.588535588586254
30
-1.4976031247555157e-30
11
145.47689021923031
21
76.588535588586254
31
0
0
ARC
5
128
100
AcDbEntity
8
0
100
AcDbCircle
10
145.47689021923031
20
75.08853558858624
30
0
40
1.5000000000000036
210
0
220
-0
230
1
100
AcDbArc
50
90
51
147.42153741214523
0
ARC
5
129
100
AcDbEntity
8
0
100
AcDbCircle
10
139.99963362435463
20
78.588487044519738
30
6.56858655152258e-44
40
5
210
-8.4953073038685207e-31
220
-1.3294749524804371e-30
230
1
100
AcDbArc
50
270
51
327.4215374121452
0
LINE
5
130
100
AcDbEntity
8
0
100
AcDbLine
10
139.99963362435463
20
73.588487044519738
30
-6.6473747624021354e-30
11
69.999633603729492
21
73.588487044519724
31
0
0
ARC
5
131
100
AcDbEntity
8
0
100
AcDbCircle
10
69.999633603729507
20
78.588487044519738
30
1.0263416486754031e-46
40
5.0000000000000178
210
6.3396858286432203e-31
220
3.9295232010196705e-31
230
1
100
AcDbArc
50
212.58963648080763
51
269.99999999999983
0
CIRCLE
5
132
100
AcDbEntity
8
0
100
AcDbCircle
10
62.999730739299096
20
83.587418932755071
30
0
40
1.4999999999999993
210
3.1554436199543134e-30
220
7.6599258726918148e-35
230
1
0
LWPOLYLINE
5
133
100
AcDbEntity
8
0
100
AcDbPolyline
90
8
70
1
43
0.0
10
139.99939089518551
20
103.58751602619036
42
-0.41421214035591447
10
154.99939089500879
20
88.587588852282053
10
154.99939089465522
20
78.673820695943107
42
-0.41588079785783377
10
139.99963362435463
20
63.588487044519731
10
69.999633603729507
20
63.588487044519724
42
-0.41420645238310749
10
54.99963360814909
20
78.588122918240785
10
54.999390875090754
20
88.587389888056094
42
-0.41421602537551699
10
69.999390874560476
20
103.58751602619034
0
CIRCLE
5
134
100
AcDbEntity
8
0
100
AcDbCircle
10
146.99929375961551
20
83.588584137955024
30
0
40
1.4999999999999993
210
3.1554436199543134e-30
220
7.6599258727304577e-35
230
1
0
CIRCLE
5
135
100
AcDbEntity
8
0
100
AcDbCircle
10
134.99951224997531
20
68.588487044519738
30
0
40
1.6000000000000014
210
8.4797098658685354e-64
220
1.2325951644078309e-32
230
1
0
CIRCLE
5
136
100
AcDbEntity
8
0
100
AcDbCircle
10
74.999512249975311
20
98.587516026190343
30
0
40
1.6000000000000014
210
8.4797098658685354e-64
220
1.2325951644078309e-32
230
1
0
CIRCLE
5
137
100
AcDbEntity
8
0
100
AcDbCircle
10
134.99951224997531
20
98.587516026190372
30
0
40
1.6000000000000014
210
8.4797098658685354e-64
220
1.2325951644078309e-32
230
1
0
CIRCLE
5
138
100
AcDbEntity
8
0
100
AcDbCircle
10
74.999512249975325
20
68.588487044519724
30
0
40
1.6000000000000014
210
8.4797098658685354e-64
220
1.2325951644078309e-32
230
1
0
ENDSEC
0
SECTION
2
OBJECTS
0
DICTIONARY
5
C
100
AcDbDictionary
3
ACAD_GROUP
350
D
3
ACAD_MLINESTYLE
350
17
0
DICTIONARY
5
D
100
AcDbDictionary
0
DICTIONARY
5
1A
330
C
100
AcDbDictionary
0
DICTIONARY
5
17
100
AcDbDictionary
0
ENDSEC
0
EOF
