G04 #@! TF.GenerationSoftware,KiCad,Pcbnew,(6.0.5-0)*
G04 #@! TF.CreationDate,2022-08-16T03:19:52+09:00*
G04 #@! TF.ProjectId,qLAMP-main,714c414d-502d-46d6-9169-6e2e6b696361,rev?*
G04 #@! TF.SameCoordinates,Original*
G04 #@! TF.FileFunction,Paste,Top*
G04 #@! TF.FilePolarity,Positive*
%FSLAX46Y46*%
G04 Gerber Fmt 4.6, Leading zero omitted, Abs format (unit mm)*
G04 Created by KiCad (PCBNEW (6.0.5-0)) date 2022-08-16 03:19:52*
%MOMM*%
%LPD*%
G01*
G04 APERTURE LIST*
G04 Aperture macros list*
%AMRoundRect*
0 Rectangle with rounded corners*
0 $1 Rounding radius*
0 $2 $3 $4 $5 $6 $7 $8 $9 X,Y pos of 4 corners*
0 Add a 4 corners polygon primitive as box body*
4,1,4,$2,$3,$4,$5,$6,$7,$8,$9,$2,$3,0*
0 Add four circle primitives for the rounded corners*
1,1,$1+$1,$2,$3*
1,1,$1+$1,$4,$5*
1,1,$1+$1,$6,$7*
1,1,$1+$1,$8,$9*
0 Add four rect primitives between the rounded corners*
20,1,$1+$1,$2,$3,$4,$5,0*
20,1,$1+$1,$4,$5,$6,$7,0*
20,1,$1+$1,$6,$7,$8,$9,0*
20,1,$1+$1,$8,$9,$2,$3,0*%
G04 Aperture macros list end*
%ADD10C,0.475000*%
%ADD11C,0.120000*%
%ADD12RoundRect,0.100000X-0.100000X0.637500X-0.100000X-0.637500X0.100000X-0.637500X0.100000X0.637500X0*%
%ADD13RoundRect,0.150000X-0.512500X-0.150000X0.512500X-0.150000X0.512500X0.150000X-0.512500X0.150000X0*%
%ADD14RoundRect,0.250000X-0.250000X-0.475000X0.250000X-0.475000X0.250000X0.475000X-0.250000X0.475000X0*%
%ADD15R,1.219200X3.098800*%
%ADD16RoundRect,0.225000X-0.225000X-0.250000X0.225000X-0.250000X0.225000X0.250000X-0.225000X0.250000X0*%
%ADD17RoundRect,0.250000X0.325000X1.100000X-0.325000X1.100000X-0.325000X-1.100000X0.325000X-1.100000X0*%
%ADD18RoundRect,0.225000X0.225000X0.250000X-0.225000X0.250000X-0.225000X-0.250000X0.225000X-0.250000X0*%
%ADD19RoundRect,0.250000X-1.100000X0.325000X-1.100000X-0.325000X1.100000X-0.325000X1.100000X0.325000X0*%
%ADD20RoundRect,0.225000X0.250000X-0.225000X0.250000X0.225000X-0.250000X0.225000X-0.250000X-0.225000X0*%
%ADD21RoundRect,0.250000X0.250000X0.475000X-0.250000X0.475000X-0.250000X-0.475000X0.250000X-0.475000X0*%
%ADD22RoundRect,0.250000X1.100000X-0.325000X1.100000X0.325000X-1.100000X0.325000X-1.100000X-0.325000X0*%
%ADD23RoundRect,0.111230X0.763770X0.111230X-0.763770X0.111230X-0.763770X-0.111230X0.763770X-0.111230X0*%
%ADD24RoundRect,0.225000X-0.250000X0.225000X-0.250000X-0.225000X0.250000X-0.225000X0.250000X0.225000X0*%
%ADD25RoundRect,0.111665X0.111665X-0.550835X0.111665X0.550835X-0.111665X0.550835X-0.111665X-0.550835X0*%
%ADD26RoundRect,0.200000X0.200000X0.275000X-0.200000X0.275000X-0.200000X-0.275000X0.200000X-0.275000X0*%
%ADD27RoundRect,0.200000X-0.275000X0.200000X-0.275000X-0.200000X0.275000X-0.200000X0.275000X0.200000X0*%
%ADD28RoundRect,0.150000X-0.150000X0.825000X-0.150000X-0.825000X0.150000X-0.825000X0.150000X0.825000X0*%
%ADD29R,1.320800X0.558800*%
%ADD30R,0.558800X1.320800*%
%ADD31RoundRect,0.250000X0.715000X0.695000X-0.715000X0.695000X-0.715000X-0.695000X0.715000X-0.695000X0*%
%ADD32RoundRect,0.100000X0.687500X0.100000X-0.687500X0.100000X-0.687500X-0.100000X0.687500X-0.100000X0*%
%ADD33RoundRect,0.200000X-0.200000X-0.275000X0.200000X-0.275000X0.200000X0.275000X-0.200000X0.275000X0*%
%ADD34R,1.600000X1.000000*%
%ADD35RoundRect,0.260000X0.390000X-0.640000X0.390000X0.640000X-0.390000X0.640000X-0.390000X-0.640000X0*%
%ADD36RoundRect,0.200000X0.300000X-0.700000X0.300000X0.700000X-0.300000X0.700000X-0.300000X-0.700000X0*%
%ADD37RoundRect,0.035000X0.315000X0.465000X-0.315000X0.465000X-0.315000X-0.465000X0.315000X-0.465000X0*%
%ADD38RoundRect,0.040000X0.360000X0.460000X-0.360000X0.460000X-0.360000X-0.460000X0.360000X-0.460000X0*%
%ADD39RoundRect,0.150000X-0.825000X-0.150000X0.825000X-0.150000X0.825000X0.150000X-0.825000X0.150000X0*%
%ADD40RoundRect,0.280000X0.420000X0.720000X-0.420000X0.720000X-0.420000X-0.720000X0.420000X-0.720000X0*%
%ADD41RoundRect,0.240000X0.460000X0.360000X-0.460000X0.360000X-0.460000X-0.360000X0.460000X-0.360000X0*%
%ADD42RoundRect,0.250000X0.475000X-0.250000X0.475000X0.250000X-0.475000X0.250000X-0.475000X-0.250000X0*%
%ADD43R,0.900000X2.000000*%
%ADD44R,2.000000X0.900000*%
%ADD45R,5.000000X5.000000*%
%ADD46R,3.300000X3.300000*%
%ADD47R,3.500000X2.000000*%
%ADD48R,2.000000X3.500000*%
%ADD49RoundRect,0.260000X-0.390000X0.640000X-0.390000X-0.640000X0.390000X-0.640000X0.390000X0.640000X0*%
%ADD50RoundRect,0.200000X-0.300000X0.700000X-0.300000X-0.700000X0.300000X-0.700000X0.300000X0.700000X0*%
G04 APERTURE END LIST*
D10*
X148473500Y-128000000D02*
G75*
G03*
X148473500Y-128000000I-237500J0D01*
G01*
X77473500Y-126500000D02*
G75*
G03*
X77473500Y-126500000I-237500J0D01*
G01*
X76473500Y-75000000D02*
G75*
G03*
X76473500Y-75000000I-237500J0D01*
G01*
X204097500Y-129840000D02*
G75*
G03*
X204097500Y-129840000I-237500J0D01*
G01*
X149177500Y-81660000D02*
G75*
G03*
X149177500Y-81660000I-237500J0D01*
G01*
X207587500Y-74695000D02*
G75*
G03*
X207587500Y-74695000I-237500J0D01*
G01*
G36*
X101422212Y-112651633D02*
G01*
X100822212Y-112651633D01*
X100822212Y-111651633D01*
X101422212Y-111651633D01*
X101422212Y-112651633D01*
G37*
D11*
X101422212Y-112651633D02*
X100822212Y-112651633D01*
X100822212Y-111651633D01*
X101422212Y-111651633D01*
X101422212Y-112651633D01*
G36*
X96892212Y-112701633D02*
G01*
X96292212Y-112701633D01*
X96292212Y-111701633D01*
X96892212Y-111701633D01*
X96892212Y-112701633D01*
G37*
X96892212Y-112701633D02*
X96292212Y-112701633D01*
X96292212Y-111701633D01*
X96892212Y-111701633D01*
X96892212Y-112701633D01*
G36*
X96892212Y-111301633D02*
G01*
X96292212Y-111301633D01*
X96292212Y-110301633D01*
X96892212Y-110301633D01*
X96892212Y-111301633D01*
G37*
X96892212Y-111301633D02*
X96292212Y-111301633D01*
X96292212Y-110301633D01*
X96892212Y-110301633D01*
X96892212Y-111301633D01*
G36*
X101422212Y-111351633D02*
G01*
X100822212Y-111351633D01*
X100822212Y-110351633D01*
X101422212Y-110351633D01*
X101422212Y-111351633D01*
G37*
X101422212Y-111351633D02*
X100822212Y-111351633D01*
X100822212Y-110351633D01*
X101422212Y-110351633D01*
X101422212Y-111351633D01*
G36*
X114892212Y-112701633D02*
G01*
X114292212Y-112701633D01*
X114292212Y-111701633D01*
X114892212Y-111701633D01*
X114892212Y-112701633D01*
G37*
X114892212Y-112701633D02*
X114292212Y-112701633D01*
X114292212Y-111701633D01*
X114892212Y-111701633D01*
X114892212Y-112701633D01*
G36*
X119422212Y-111351633D02*
G01*
X118822212Y-111351633D01*
X118822212Y-110351633D01*
X119422212Y-110351633D01*
X119422212Y-111351633D01*
G37*
X119422212Y-111351633D02*
X118822212Y-111351633D01*
X118822212Y-110351633D01*
X119422212Y-110351633D01*
X119422212Y-111351633D01*
G36*
X119422212Y-112651633D02*
G01*
X118822212Y-112651633D01*
X118822212Y-111651633D01*
X119422212Y-111651633D01*
X119422212Y-112651633D01*
G37*
X119422212Y-112651633D02*
X118822212Y-112651633D01*
X118822212Y-111651633D01*
X119422212Y-111651633D01*
X119422212Y-112651633D01*
G36*
X114892212Y-111301633D02*
G01*
X114292212Y-111301633D01*
X114292212Y-110301633D01*
X114892212Y-110301633D01*
X114892212Y-111301633D01*
G37*
X114892212Y-111301633D02*
X114292212Y-111301633D01*
X114292212Y-110301633D01*
X114892212Y-110301633D01*
X114892212Y-111301633D01*
G36*
X137422212Y-111351633D02*
G01*
X136822212Y-111351633D01*
X136822212Y-110351633D01*
X137422212Y-110351633D01*
X137422212Y-111351633D01*
G37*
X137422212Y-111351633D02*
X136822212Y-111351633D01*
X136822212Y-110351633D01*
X137422212Y-110351633D01*
X137422212Y-111351633D01*
G36*
X132892212Y-112701633D02*
G01*
X132292212Y-112701633D01*
X132292212Y-111701633D01*
X132892212Y-111701633D01*
X132892212Y-112701633D01*
G37*
X132892212Y-112701633D02*
X132292212Y-112701633D01*
X132292212Y-111701633D01*
X132892212Y-111701633D01*
X132892212Y-112701633D01*
G36*
X132892212Y-111301633D02*
G01*
X132292212Y-111301633D01*
X132292212Y-110301633D01*
X132892212Y-110301633D01*
X132892212Y-111301633D01*
G37*
X132892212Y-111301633D02*
X132292212Y-111301633D01*
X132292212Y-110301633D01*
X132892212Y-110301633D01*
X132892212Y-111301633D01*
G36*
X137422212Y-112651633D02*
G01*
X136822212Y-112651633D01*
X136822212Y-111651633D01*
X137422212Y-111651633D01*
X137422212Y-112651633D01*
G37*
X137422212Y-112651633D02*
X136822212Y-112651633D01*
X136822212Y-111651633D01*
X137422212Y-111651633D01*
X137422212Y-112651633D01*
D12*
X193553292Y-81537300D03*
X192903292Y-81537300D03*
X192253292Y-81537300D03*
X191603292Y-81537300D03*
X190953292Y-81537300D03*
X190303292Y-81537300D03*
X189653292Y-81537300D03*
X189003292Y-81537300D03*
X189003292Y-87262300D03*
X189653292Y-87262300D03*
X190303292Y-87262300D03*
X190953292Y-87262300D03*
X191603292Y-87262300D03*
X192253292Y-87262300D03*
X192903292Y-87262300D03*
X193553292Y-87262300D03*
D13*
X127665878Y-102840011D03*
X127665878Y-103790011D03*
X127665878Y-104740011D03*
X129940878Y-104740011D03*
X129940878Y-102840011D03*
D14*
X127853378Y-100919989D03*
X129753378Y-100919989D03*
D15*
X176200000Y-89387300D03*
X176200000Y-94492700D03*
D16*
X128028376Y-98850000D03*
X129578376Y-98850000D03*
D17*
X171795000Y-88130000D03*
X168845000Y-88130000D03*
D18*
X171235010Y-91440000D03*
X169685010Y-91440000D03*
D19*
X181790000Y-81695000D03*
X181790000Y-84645000D03*
D20*
X163940000Y-101755000D03*
X163940000Y-100205000D03*
D21*
X129733376Y-106560000D03*
X127833376Y-106560000D03*
D16*
X195195000Y-81780000D03*
X196745000Y-81780000D03*
D22*
X94990006Y-100675005D03*
X94990006Y-97725005D03*
D23*
X86295999Y-106695011D03*
X86295999Y-106045013D03*
X86295999Y-105395012D03*
X86295999Y-104745012D03*
X86295999Y-104095012D03*
X86295999Y-103445012D03*
X86295999Y-102795012D03*
X86295999Y-102145012D03*
X86295999Y-101495012D03*
X86295999Y-100845012D03*
X86295999Y-100195011D03*
X86295999Y-99545013D03*
X79095999Y-99545013D03*
X79095999Y-100195011D03*
X79095999Y-100845012D03*
X79095999Y-101495012D03*
X79095999Y-102145012D03*
X79095999Y-102795012D03*
X79095999Y-103445012D03*
X79095999Y-104095012D03*
X79095999Y-104745012D03*
X79095999Y-105395012D03*
X79095999Y-106045013D03*
X79095999Y-106695011D03*
D24*
X88080012Y-98635012D03*
X88080012Y-100185012D03*
D20*
X179705000Y-123711000D03*
X179705000Y-122161000D03*
D18*
X92174995Y-103796008D03*
X90624995Y-103796008D03*
D25*
X155235000Y-101287500D03*
X155885000Y-101287500D03*
X156535000Y-101287500D03*
X157185000Y-101287500D03*
X157185000Y-99012500D03*
X156535000Y-99012500D03*
X155885000Y-99012500D03*
X155235000Y-99012500D03*
D13*
X89732499Y-98460012D03*
X89732499Y-99410012D03*
X89732499Y-100360012D03*
X92007499Y-100360012D03*
X92007499Y-98460012D03*
D26*
X92224995Y-102272008D03*
X90574995Y-102272008D03*
D27*
X156670000Y-95535000D03*
X156670000Y-97185000D03*
X155030000Y-95545000D03*
X155030000Y-97195000D03*
D28*
X167105000Y-92465000D03*
X165835000Y-92465000D03*
X164565000Y-92465000D03*
X163295000Y-92465000D03*
X162025000Y-92465000D03*
X160755000Y-92465000D03*
X159485000Y-92465000D03*
X158215000Y-92465000D03*
X158215000Y-97415000D03*
X159485000Y-97415000D03*
X160755000Y-97415000D03*
X162025000Y-97415000D03*
X163295000Y-97415000D03*
X164565000Y-97415000D03*
X165835000Y-97415000D03*
X167105000Y-97415000D03*
D16*
X128028376Y-97050000D03*
X129578376Y-97050000D03*
D29*
X197927800Y-93340200D03*
X197927800Y-95219800D03*
X200112200Y-94280000D03*
X185087800Y-94180200D03*
X185087800Y-96059800D03*
X187272200Y-95120000D03*
D30*
X194820200Y-85652200D03*
X196699800Y-85652200D03*
X195760000Y-83467800D03*
D31*
X138410000Y-102610000D03*
X138410000Y-100270000D03*
D32*
X141272500Y-105015000D03*
X141272500Y-104365000D03*
X141272500Y-103715000D03*
X141272500Y-103065000D03*
X141272500Y-102415000D03*
X141272500Y-101765000D03*
X141272500Y-101115000D03*
X141272500Y-100465000D03*
X141272500Y-99815000D03*
X141272500Y-99165000D03*
X141272500Y-98515000D03*
X141272500Y-97865000D03*
X135547500Y-97865000D03*
X135547500Y-98515000D03*
X135547500Y-99165000D03*
X135547500Y-99815000D03*
X135547500Y-100465000D03*
X135547500Y-101115000D03*
X135547500Y-101765000D03*
X135547500Y-102415000D03*
X135547500Y-103065000D03*
X135547500Y-103715000D03*
X135547500Y-104365000D03*
X135547500Y-105015000D03*
D33*
X180531000Y-98819995D03*
X182181000Y-98819995D03*
D21*
X201475000Y-97020000D03*
X199575000Y-97020000D03*
D26*
X198845000Y-91305000D03*
X197195000Y-91305000D03*
X185815000Y-92860000D03*
X184165000Y-92860000D03*
D27*
X187500006Y-79896200D03*
X187500006Y-81546200D03*
X187500006Y-82944200D03*
X187500006Y-84594200D03*
X196100000Y-92745000D03*
X196100000Y-94395000D03*
X183390000Y-94365000D03*
X183390000Y-96015000D03*
D33*
X139574998Y-106699991D03*
X141224998Y-106699991D03*
D26*
X201575000Y-98940000D03*
X199925000Y-98940000D03*
D27*
X187500006Y-85992200D03*
X187500006Y-87642200D03*
D16*
X135785001Y-106699991D03*
X137335001Y-106699991D03*
D22*
X166870000Y-102825000D03*
X166870000Y-99875000D03*
D16*
X180905000Y-80050000D03*
X182455000Y-80050000D03*
D27*
X185039000Y-122111000D03*
X185039000Y-123761000D03*
D34*
X89157211Y-91002066D03*
X89157211Y-94002066D03*
X134157211Y-91002066D03*
X134157211Y-94002066D03*
X127157211Y-113001633D03*
X127157211Y-110001633D03*
X136157211Y-91002066D03*
X136157211Y-94002066D03*
X143157211Y-91002066D03*
X143157211Y-94002066D03*
D35*
X100236001Y-94300000D03*
D36*
X100886001Y-90100000D03*
X99586001Y-90100000D03*
D27*
X181483000Y-122111000D03*
X181483000Y-123761000D03*
D34*
X125157211Y-113001633D03*
X125157211Y-110001633D03*
D37*
X194788282Y-78419792D03*
X192788282Y-78419792D03*
D38*
X191588282Y-78419792D03*
D37*
X193788282Y-78419792D03*
X195788282Y-78419792D03*
D38*
X196988282Y-78419792D03*
D39*
X98335009Y-97554999D03*
X98335009Y-98824999D03*
X98335009Y-100094999D03*
X98335009Y-101364999D03*
X98335009Y-102634999D03*
X98335009Y-103904999D03*
X98335009Y-105174999D03*
X98335009Y-106444999D03*
X103285009Y-106444999D03*
X103285009Y-105174999D03*
X103285009Y-103904999D03*
X103285009Y-102634999D03*
X103285009Y-101364999D03*
X103285009Y-100094999D03*
X103285009Y-98824999D03*
X103285009Y-97554999D03*
D34*
X82157211Y-113001633D03*
X82157211Y-110001633D03*
X109157211Y-113001633D03*
X109157211Y-110001633D03*
D33*
X94165006Y-103796008D03*
X95815006Y-103796008D03*
D40*
X119907212Y-92502066D03*
D41*
X113807212Y-92502066D03*
D40*
X110907212Y-92502066D03*
D41*
X104807212Y-92502066D03*
D34*
X80157211Y-91002066D03*
X80157211Y-94002066D03*
D42*
X198308292Y-87719800D03*
X198308292Y-85819800D03*
D43*
X201261000Y-101920000D03*
X199991000Y-101920000D03*
X198721000Y-101920000D03*
X197451000Y-101920000D03*
X196181000Y-101920000D03*
X194910989Y-101919989D03*
X193640989Y-101919989D03*
X192371000Y-101920000D03*
X191101000Y-101920000D03*
X189831000Y-101920000D03*
X188561000Y-101920000D03*
X187291000Y-101920000D03*
X186021000Y-101920000D03*
X184751000Y-101920000D03*
D44*
X183751000Y-104705000D03*
X183751000Y-105975000D03*
X183751000Y-107245000D03*
X183751000Y-108515000D03*
X183751000Y-109785000D03*
X183751000Y-111055000D03*
X183751000Y-112325000D03*
X183751000Y-113595000D03*
X183751000Y-114865000D03*
X183751000Y-116135000D03*
D43*
X184751000Y-118920000D03*
X186021000Y-118920000D03*
X187291000Y-118920000D03*
X188561000Y-118920000D03*
X189831000Y-118920000D03*
X191101000Y-118920000D03*
X192371000Y-118920000D03*
X193641000Y-118920000D03*
X194911000Y-118920000D03*
X196181000Y-118920000D03*
X197451000Y-118920000D03*
X198721000Y-118920000D03*
X199991000Y-118920000D03*
X201261000Y-118920000D03*
D45*
X193761000Y-109420000D03*
D34*
X80157211Y-113001633D03*
X80157211Y-110001633D03*
D33*
X183579000Y-98819995D03*
X185229000Y-98819995D03*
D40*
X92907212Y-111501633D03*
D41*
X86807212Y-111501633D03*
D34*
X127157211Y-91002066D03*
X127157211Y-94002066D03*
X125157211Y-91002066D03*
X125157211Y-94002066D03*
D18*
X95765006Y-105320008D03*
X94215006Y-105320008D03*
D34*
X145157211Y-113001633D03*
X145157211Y-110001633D03*
D27*
X183261000Y-122111000D03*
X183261000Y-123761000D03*
D46*
X172320000Y-81110000D03*
X168770000Y-81110000D03*
X172320000Y-84710000D03*
X168770000Y-84710000D03*
D47*
X177945000Y-85210000D03*
X177945000Y-80630000D03*
D33*
X94165006Y-102272008D03*
X95815006Y-102272008D03*
D46*
X167770000Y-111440000D03*
X167770000Y-114990000D03*
X164170000Y-111440000D03*
X164170000Y-114990000D03*
D48*
X168270000Y-105815000D03*
X163690000Y-105815000D03*
D33*
X90574995Y-105320008D03*
X92224995Y-105320008D03*
D34*
X91157211Y-91002066D03*
X91157211Y-94002066D03*
X145157211Y-91002066D03*
X145157211Y-94002066D03*
X82157211Y-91002066D03*
X82157211Y-94002066D03*
X107157211Y-113001633D03*
X107157211Y-110001633D03*
D49*
X98136001Y-90700000D03*
D50*
X97486001Y-94900000D03*
X98786001Y-94900000D03*
D34*
X143157211Y-113001633D03*
X143157211Y-110001633D03*
M02*
