M48
INCH,TZ
T1C0.0118
T2C0.0157
T3C0.0236
T4C0.0256
T5C0.0315
T6C0.0394
T7C0.0472
%
G90
G05
T1
X53980Y-38657
X53980Y-39169
X53980Y-39681
X53980Y-40193
X53980Y-40705
X53980Y-41217
X54492Y-38657
X54492Y-39169
X54492Y-39681
X54492Y-40193
X54492Y-40705
X54492Y-41217
X55004Y-38657
X55004Y-39169
X55004Y-39681
X55004Y-40193
X55004Y-40705
X55004Y-41217
T2
X26717Y-30205
X26740Y-50551
X26768Y-47323
X26772Y-42760
X26791Y-49933
X26803Y-40311
X26839Y-37587
X26874Y-45122
X26898Y-35193
X26913Y-30854
X26933Y-32559
X26933Y-33945
X27756Y-39185
X27764Y-48720
X27984Y-34020
X28079Y-42862
X28079Y-46291
X28114Y-31657
X28177Y-40980
X28260Y-51343
X28350Y-29016
X28902Y-39134
X28969Y-32508
X28972Y-47287
X29059Y-41681
X29394Y-33823
X29492Y-30831
X29618Y-50016
X29835Y-39634
X29886Y-30224
X29941Y-42346
X30071Y-50508
X30319Y-41063
X30504Y-38988
X30579Y-44882
X30602Y-39680
X30630Y-37559
X30650Y-48638
X30677Y-35433
X30736Y-34051
X30752Y-31693
X30831Y-46213
X31142Y-42339
X31346Y-42736
X31394Y-43846
X31461Y-36465
X31713Y-32862
X31717Y-47437
X32173Y-42260
X32276Y-43831
X32291Y-50004
X32319Y-36469
X32343Y-29055
X32366Y-30118
X32378Y-37598
X32394Y-51374
X32425Y-50488
X32465Y-30768
X32500Y-34102
X32539Y-46134
X32593Y-42711
X32791Y-31610
X32791Y-48748
X32905Y-37727
X32937Y-42047
X32988Y-42711
X33264Y-35882
X33303Y-36862
X33417Y-39027
X33417Y-39680
X33744Y-42362
X33760Y-43445
X33776Y-45087
X33827Y-35094
X33846Y-49193
X33854Y-38906
X33886Y-36193
X34378Y-44449
X34500Y-42677
X34520Y-35764
X34524Y-36819
X34614Y-30732
X34740Y-49945
X35008Y-43909
X35024Y-51276
X35028Y-36551
X35039Y-50520
X35209Y-30134
X35256Y-29000
X35528Y-34957
X35783Y-36484
X35801Y-38473
X35815Y-37811
X35866Y-45362
X35878Y-43858
X35933Y-49311
X35957Y-39866
X36283Y-50933
X36366Y-29587
X36563Y-37811
X36575Y-38311
X36591Y-31098
X36760Y-35374
X36839Y-43453
X36902Y-36858
X37173Y-44594
X37425Y-49980
X37524Y-29020
X37551Y-30161
X37583Y-36165
X37587Y-50457
X37610Y-51362
X37799Y-37878
X38035Y-43480
X38039Y-42626
X38102Y-41846
X38130Y-40386
X38173Y-34902
X38335Y-47906
X38339Y-32413
X38343Y-45327
X38343Y-46713
X38598Y-43866
X38602Y-36437
X38713Y-49260
X38839Y-42268
X39063Y-30764
X39283Y-36500
X39291Y-37984
X39362Y-43858
X39386Y-41189
X39480Y-35327
X39512Y-39335
X39516Y-33764
X39575Y-42634
X40028Y-40043
X40059Y-38697
X40173Y-46681
X40181Y-47890
X40217Y-37043
X40256Y-43327
X40358Y-45126
X40445Y-29031
X40457Y-50453
X40465Y-30236
X40484Y-49961
X40575Y-51319
X40646Y-37862
X40724Y-31110
X40744Y-34807
X40807Y-32402
X41051Y-44268
X41184Y-39189
X41273Y-39574
X41365Y-39958
X41429Y-35862
X41469Y-43315
X41476Y-36996
X41681Y-33858
X41780Y-29665
X41890Y-49209
X41941Y-50898
X42020Y-40492
X42189Y-36524
X42248Y-43854
X42303Y-30740
X42370Y-47894
X42378Y-45213
X42382Y-46673
X42634Y-32685
X42705Y-42606
X42776Y-35122
X42843Y-39594
X42909Y-36492
X42913Y-40394
X42972Y-49992
X43023Y-37768
X43118Y-51319
X43138Y-30232
X43138Y-50457
X43157Y-29020
X43610Y-35732
X43657Y-31634
X43720Y-44638
X43724Y-37035
X43760Y-43319
X43772Y-42209
X43850Y-39929
X44260Y-49173
X44366Y-36394
X44382Y-43945
X44732Y-42610
X44756Y-40508
X44768Y-39240
X44846Y-35756
X44961Y-44587
X45079Y-36929
X45146Y-43315
X45484Y-30760
X45563Y-29028
X45563Y-30201
X45587Y-51303
X45610Y-50492
X45622Y-39780
X45661Y-49984
X45685Y-43874
X45689Y-42031
X45732Y-36437
X46083Y-31953
X46130Y-39051
X46213Y-40543
X46366Y-47555
X46378Y-45571
X46390Y-34728
X46394Y-36461
X46457Y-43843
X46598Y-42665
X46799Y-49228
X46874Y-50949
X47012Y-29634
X47059Y-41831
X47150Y-39937
X47240Y-44598
X47248Y-46520
X47343Y-35760
X47402Y-33465
X47425Y-43437
X47528Y-30870
X47709Y-36878
X47906Y-39047
X47917Y-42685
X47953Y-44004
X48031Y-50055
X48217Y-40835
X48228Y-50508
X48240Y-45449
X48248Y-30240
X48260Y-29051
X48260Y-47543
X48276Y-34890
X48280Y-51354
X48398Y-42087
X48469Y-32020
X48504Y-35787
X48630Y-43480
X48661Y-44587
X48886Y-39878
X49094Y-36496
X49248Y-43783
X49287Y-33630
X49362Y-38681
X49402Y-41307
X49421Y-42661
X49508Y-46520
X49791Y-49201
X49846Y-36496
X49882Y-30858
X49913Y-38740
X49953Y-40142
X50008Y-43831
X50059Y-37931
X50201Y-50024
X50287Y-32594
X50445Y-45465
X50453Y-47476
X50524Y-34831
X50764Y-39343
X50902Y-44524
X51012Y-43449
X51016Y-31677
X51091Y-30228
X51106Y-51307
X51110Y-29035
X51122Y-50449
X51480Y-43976
X51520Y-49524
X51689Y-42102
X51805Y-37702
X51887Y-41342
X52004Y-40965
X52024Y-45303
X52031Y-30870
X52067Y-36642
X52111Y-40575
X52118Y-44555
X52188Y-37606
X52197Y-43453
X52198Y-40190
X52293Y-39807
X52378Y-50862
X52387Y-39423
X52469Y-39037
X52488Y-41491
X52524Y-29583
X52555Y-38652
X52681Y-43882
X52772Y-42437
X53004Y-49972
X53354Y-31988
X53377Y-41664
X53398Y-38079
X53575Y-43843
X53740Y-29079
X53748Y-30260
X53752Y-50500
X53776Y-51354
X53823Y-36432
X53925Y-45327
X54024Y-31024
X54520Y-42060
X54520Y-49559
X54563Y-36780
X54661Y-44587
X54783Y-43433
X54953Y-42711
X55146Y-38083
X55185Y-42391
X55524Y-30748
X55533Y-42670
X55555Y-36799
X55858Y-41654
X56181Y-45059
X56193Y-51374
X56205Y-29039
X56205Y-30028
X56217Y-42711
X56217Y-50429
X56220Y-47713
X56240Y-36555
X56280Y-43827
X56590Y-42548
X56728Y-38476
X56878Y-46366
X56980Y-32890
X57000Y-35339
X57122Y-43811
X57146Y-36496
X57186Y-42389
X57256Y-29055
X57413Y-34839
X57496Y-39343
X57618Y-45079
X57622Y-33854
X57622Y-47654
X57630Y-31791
X57689Y-50866
X57760Y-38028
X58177Y-34512
X58205Y-32476
X58209Y-35228
X58287Y-31161
X58287Y-45469
X58287Y-47650
X58303Y-43571
X58626Y-38693
X59031Y-50122
X59059Y-51039
X59217Y-33531
X59535Y-32067
X59669Y-41976
X60138Y-34480
X60181Y-38693
X60256Y-31059
X60425Y-50484
X60614Y-35311
X61130Y-40375
X61307Y-45154
X61319Y-42772
X61354Y-51350
X61449Y-31941
X61528Y-47803
X61598Y-33346
X61626Y-34453
X61807Y-41249
X61996Y-44323
X62099Y-39437
X62102Y-41752
X62130Y-31071
X62268Y-37731
X62420Y-47461
X62458Y-47051
X62488Y-32087
X62709Y-43579
X62709Y-46091
X62791Y-33740
X62791Y-35843
X62835Y-37480
X62860Y-40169
X63000Y-40870
X63111Y-49400
X63217Y-39374
X63254Y-49027
X63327Y-31063
X63398Y-32020
X63509Y-48632
X63511Y-37168
X63591Y-34469
X63646Y-45689
X63732Y-33780
X63736Y-49564
X63736Y-42449
X63894Y-39693
X63894Y-40441
X64020Y-35110
X64264Y-31941
X64394Y-40039
X64551Y-46925
X64568Y-37355
X64669Y-35583
X64736Y-33555
X64768Y-39189
X64988Y-31941
X65059Y-31220
X65276Y-42236
X65303Y-41106
X65343Y-44573
X65413Y-37366
X65693Y-33697
X65709Y-31402
X65772Y-32709
X65894Y-34736
X66091Y-38169
X66283Y-39091
X66488Y-31969
X66583Y-33390
X66693Y-35480
X66843Y-37437
X67055Y-46469
X67144Y-32642
X67299Y-43449
X67354Y-33870
X67476Y-51339
X67531Y-31315
X67850Y-44980
X68157Y-31925
X68394Y-51169
X68437Y-29055
X68476Y-33531
X68543Y-39882
X68807Y-45823
X68874Y-31457
X68921Y-41398
X68933Y-44071
X68980Y-36528
X68984Y-37661
X69020Y-32579
X69114Y-46878
X69220Y-38827
X69579Y-50921
X69716Y-33889
X69717Y-42630
X69839Y-37201
X69980Y-39850
X70067Y-38118
X70110Y-45382
X70224Y-41291
X70425Y-29465
X70437Y-32488
X70461Y-51331
X70465Y-43969
X70537Y-46250
X70608Y-45860
X70730Y-47663
X70732Y-50240
X70811Y-39362
X70862Y-36217
X71105Y-47787
X71150Y-37972
X71173Y-50913
X71587Y-32819
X71665Y-41720
X71732Y-45228
X71752Y-37008
X71799Y-48725
X71841Y-39948
X71850Y-38429
X71956Y-39391
X72142Y-29323
X72181Y-40598
X72299Y-40061
X72626Y-33870
X72646Y-32496
X72677Y-31319
X72858Y-36201
X72894Y-36732
X73012Y-38076
X73138Y-45890
X73139Y-33703
X73157Y-42957
X73173Y-44602
X73177Y-41311
X73228Y-38913
X73504Y-33854
X73732Y-47354
X73839Y-29280
X73937Y-43799
X73953Y-45346
X74000Y-42035
X74059Y-49591
X74122Y-31000
X74246Y-39079
X74736Y-47461
X74772Y-42953
X74772Y-44614
X74772Y-46094
X74791Y-51283
X74807Y-41299
X74827Y-50106
X74925Y-32622
X75177Y-33744
X75228Y-47457
X75408Y-39550
X75563Y-42039
X75571Y-33712
X75610Y-43740
X75610Y-49382
X75669Y-30024
X75705Y-51280
X75724Y-45390
X75732Y-47488
X75802Y-39583
X76213Y-49850
X76294Y-30595
X76472Y-29094
X76618Y-44689
X76634Y-46087
X76677Y-41165
X76689Y-30594
X76724Y-51291
X76728Y-42921
X76736Y-47528
X76756Y-50382
X77134Y-49256
X77358Y-29992
X77555Y-45354
X77626Y-42071
X77634Y-43748
X77744Y-51295
X77937Y-37740
X78012Y-36323
X78098Y-50063
X78240Y-47500
X78382Y-44571
X78382Y-46087
X78394Y-48217
X78445Y-42906
X78732Y-47524
X78736Y-40776
X78736Y-51295
X78870Y-41398
X79059Y-49193
X79071Y-29256
X79094Y-31413
X79256Y-43894
X79362Y-47602
X79386Y-45303
X79406Y-42524
X79776Y-51295
X80075Y-49673
X80102Y-30067
X80307Y-32646
X80898Y-29154
X81736Y-32673
X81795Y-30843
X81799Y-35744
X81811Y-37224
X81839Y-33992
X81874Y-49555
X81929Y-51185
T3
X62831Y-34171
X62831Y-34663
X64581Y-34171
X64581Y-34663
T4
X33105Y-38161
X33605Y-38161
X34105Y-38161
X34605Y-38161
X34740Y-42146
X35105Y-38161
X35240Y-42146
X35740Y-42146
X36240Y-42146
X36740Y-42146
X37240Y-42146
X62853Y-32472
X62853Y-32972
X63928Y-32472
X63928Y-32972
X65003Y-32472
X65003Y-32972
X71764Y-46913
X76237Y-39398
X76737Y-39398
T5
X41744Y-38311
X41744Y-41311
X42744Y-38311
X42744Y-41311
X43744Y-38311
X43744Y-41311
X44744Y-38311
X44744Y-41311
X45744Y-38311
X45744Y-41311
X46744Y-38311
X46744Y-41311
X47744Y-38311
X47744Y-41311
X48744Y-38311
X48744Y-41311
T6
X34929Y-40254
X34929Y-41254
X61425Y-35187
X61425Y-36187
X63233Y-41974
X63233Y-42974
X63233Y-43974
X63233Y-44974
X64229Y-30461
X64229Y-49854
X65229Y-30461
X65229Y-49854
X66229Y-30461
X66229Y-49854
X67229Y-30461
X67229Y-49854
X68229Y-30461
X68229Y-49854
X69229Y-30461
X69229Y-49854
X70229Y-30461
X70229Y-49854
X71229Y-30461
X71229Y-49854
X72229Y-30461
X72229Y-49854
X73229Y-50866
X73229Y-30461
X73229Y-49854
X73863Y-38652
X73863Y-48297
X74229Y-50866
X74863Y-38652
X74863Y-48297
X75229Y-50866
X75863Y-38652
X75863Y-48297
X76229Y-50866
X76863Y-38652
X76863Y-48297
X77229Y-50866
X78229Y-50866
X79229Y-50866
T7
X75531Y-35748
X75531Y-37126
X80736Y-35307
X80736Y-36685
T3
G00X74791Y-29535
M15
G01X74791Y-29220
M16
G05
G00X74791Y-31031
M15
G01X74791Y-30716
M16
G05
G00X78192Y-29535
M15
G01X78192Y-29220
M16
G05
G00X78192Y-31031
M15
G01X78192Y-30716
M16
G05
T6
G00X78581Y-32209
M15
G01X78581Y-32996
M16
G05
G00X80825Y-31421
M15
G01X80038Y-31421
M16
G05
G00X80825Y-33783
M15
G01X80038Y-33783
M16
G05
T0
M30
