G04 #@! TF.GenerationSoftware,KiCad,Pcbnew,(6.0.5-0)*
G04 #@! TF.CreationDate,2022-08-15T05:54:33+09:00*
G04 #@! TF.ProjectId,qLAMP-main,714c414d-502d-46d6-9169-6e2e6b696361,rev?*
G04 #@! TF.SameCoordinates,Original*
G04 #@! TF.FileFunction,Soldermask,Bot*
G04 #@! TF.FilePolarity,Negative*
%FSLAX46Y46*%
G04 Gerber Fmt 4.6, Leading zero omitted, Abs format (unit mm)*
G04 Created by KiCad (PCBNEW (6.0.5-0)) date 2022-08-15 05:54:33*
%MOMM*%
%LPD*%
G01*
G04 APERTURE LIST*
G04 Aperture macros list*
%AMRoundRect*
0 Rectangle with rounded corners*
0 $1 Rounding radius*
0 $2 $3 $4 $5 $6 $7 $8 $9 X,Y pos of 4 corners*
0 Add a 4 corners polygon primitive as box body*
4,1,4,$2,$3,$4,$5,$6,$7,$8,$9,$2,$3,0*
0 Add four circle primitives for the rounded corners*
1,1,$1+$1,$2,$3*
1,1,$1+$1,$4,$5*
1,1,$1+$1,$6,$7*
1,1,$1+$1,$8,$9*
0 Add four rect primitives between the rounded corners*
20,1,$1+$1,$2,$3,$4,$5,0*
20,1,$1+$1,$4,$5,$6,$7,0*
20,1,$1+$1,$6,$7,$8,$9,0*
20,1,$1+$1,$8,$9,$2,$3,0*%
%AMFreePoly0*
4,1,6,1.000000,0.000000,0.500000,-0.750000,-0.500000,-0.750000,-0.500000,0.750000,0.500000,0.750000,1.000000,0.000000,1.000000,0.000000,$1*%
%AMFreePoly1*
4,1,6,0.500000,-0.750000,-0.650000,-0.750000,-0.150000,0.000000,-0.650000,0.750000,0.500000,0.750000,0.500000,-0.750000,0.500000,-0.750000,$1*%
G04 Aperture macros list end*
%ADD10C,2.000000*%
%ADD11RoundRect,0.225000X-0.475000X0.225000X-0.475000X-0.225000X0.475000X-0.225000X0.475000X0.225000X0*%
%ADD12O,1.400000X0.900000*%
%ADD13R,1.000000X1.000000*%
%ADD14O,1.000000X1.000000*%
%ADD15R,1.700000X1.700000*%
%ADD16O,1.700000X1.700000*%
%ADD17R,3.500000X3.500000*%
%ADD18RoundRect,0.750000X-1.000000X0.750000X-1.000000X-0.750000X1.000000X-0.750000X1.000000X0.750000X0*%
%ADD19RoundRect,0.875000X-0.875000X0.875000X-0.875000X-0.875000X0.875000X-0.875000X0.875000X0.875000X0*%
%ADD20C,1.700000*%
%ADD21O,1.000000X1.800000*%
%ADD22R,1.600000X1.600000*%
%ADD23O,1.600000X1.600000*%
%ADD24R,1.500000X1.500000*%
%ADD25FreePoly0,180.000000*%
%ADD26FreePoly0,0.000000*%
%ADD27FreePoly1,180.000000*%
%ADD28FreePoly0,90.000000*%
%ADD29FreePoly0,270.000000*%
G04 APERTURE END LIST*
D10*
X205069999Y-89680009D03*
X205069999Y-93180009D03*
X191850000Y-90800000D03*
X191850000Y-94300000D03*
D11*
X164035003Y-86795000D03*
D12*
X164035003Y-88045000D03*
D11*
X159590003Y-86795000D03*
D12*
X159590003Y-88045000D03*
D13*
X165106960Y-83749058D03*
D14*
X165106960Y-82479058D03*
D13*
X162376968Y-83749058D03*
D14*
X162376968Y-82479058D03*
D13*
X159646950Y-83749058D03*
D14*
X159646950Y-82479058D03*
D15*
X156020008Y-91915005D03*
D16*
X156020008Y-89375005D03*
D17*
X204295792Y-85809800D03*
D18*
X204295792Y-79809800D03*
D19*
X199595792Y-82809800D03*
D20*
X187611003Y-98175006D03*
X190151003Y-98175006D03*
X192691003Y-98175006D03*
X195231003Y-98175006D03*
X187611003Y-122675006D03*
X190151003Y-122675006D03*
X192691003Y-122675006D03*
X195231003Y-122675006D03*
X160611003Y-106615006D03*
X160611003Y-109155006D03*
X160611003Y-111695006D03*
X160611003Y-114235006D03*
D21*
X198608282Y-78419792D03*
X198608282Y-74619792D03*
X189968282Y-78419792D03*
X189968282Y-74619792D03*
D15*
X186001000Y-126628000D03*
D16*
X183461000Y-126628000D03*
X180921000Y-126628000D03*
X178381000Y-126628000D03*
X175841000Y-126628000D03*
X173301000Y-126628000D03*
X170761000Y-126628000D03*
X168221000Y-126628000D03*
X165681000Y-126628000D03*
X163141000Y-126628000D03*
D15*
X186000993Y-129200000D03*
D16*
X188540993Y-129200000D03*
X191080993Y-129200000D03*
X193620993Y-129200000D03*
X196160993Y-129200000D03*
X198701000Y-129199996D03*
X201240993Y-129200000D03*
D15*
X163141000Y-77372000D03*
D16*
X165681000Y-77372000D03*
X168221000Y-77372000D03*
X170761000Y-77372000D03*
X173301000Y-77372000D03*
X175841000Y-77372000D03*
X178381000Y-77372000D03*
X180921000Y-77372000D03*
X183461000Y-77372000D03*
X186001000Y-77372000D03*
D22*
X106029989Y-104929991D03*
D23*
X108569989Y-104929991D03*
X111109989Y-104929991D03*
X113649989Y-104929991D03*
X116189989Y-104929991D03*
X118729989Y-104929991D03*
X121269989Y-104929991D03*
X123809989Y-104929991D03*
X123809989Y-97309991D03*
X121269989Y-97309991D03*
X118729989Y-97309991D03*
X116189989Y-97309991D03*
X113649989Y-97309991D03*
X111109989Y-97309991D03*
X108569989Y-97309991D03*
X106029989Y-97309991D03*
D15*
X88719990Y-104785008D03*
D16*
X88719990Y-102245008D03*
D13*
X88240000Y-107050000D03*
X94590009Y-107050012D03*
D24*
X89444980Y-99519994D03*
X91844980Y-99519994D03*
D25*
X92644980Y-99519994D03*
D26*
X88644980Y-99519994D03*
D13*
X193640989Y-100070006D03*
X89166011Y-96930033D03*
D24*
X95049994Y-103719999D03*
X92649994Y-103719999D03*
D26*
X91849994Y-103719999D03*
D25*
X95849994Y-103719999D03*
X183415000Y-129350000D03*
D27*
X181965000Y-129350000D03*
D13*
X84085995Y-96930009D03*
D14*
X85355995Y-96930009D03*
D24*
X186957487Y-81190005D03*
X186957487Y-83590005D03*
D28*
X186957487Y-84390005D03*
D29*
X186957487Y-80390005D03*
D13*
X182280001Y-119160011D03*
X90780000Y-107050000D03*
D14*
X89510000Y-107050000D03*
D13*
X92050000Y-107050000D03*
D14*
X93320000Y-107050000D03*
D13*
X194910989Y-100070006D03*
X86625995Y-96930009D03*
D14*
X87896003Y-96930021D03*
D24*
X189100003Y-83590005D03*
X189100003Y-81190005D03*
D28*
X189100003Y-84390005D03*
D29*
X189100003Y-80390005D03*
M02*
