M48
INCH,TZ
T1C0.0118
T2C0.0157
T3C0.0157
T4C0.0236
T5C0.0256
T6C0.0394
T7C0.0472
%
G90
G05
T1
X59254Y-43043
X59254Y-43555
X59254Y-44067
X59766Y-43043
X59766Y-43555
X59766Y-44067
X60278Y-43043
X60278Y-43555
X60278Y-44067
X60790Y-43043
X60790Y-43555
X60790Y-44067
X61302Y-43043
X61302Y-43555
X61302Y-44067
X61813Y-43043
X61813Y-43555
X61813Y-44067
T2
X26701Y-32031
X26760Y-51146
X26768Y-42118
X26799Y-38220
X26835Y-48583
X26846Y-29220
X26850Y-49870
X27087Y-40232
X27500Y-34945
X27516Y-45390
X27642Y-30295
X27720Y-39390
X27961Y-40902
X27988Y-31110
X28406Y-33957
X28476Y-49339
X28654Y-50795
X28709Y-32350
X28709Y-46374
X28756Y-48000
X29429Y-29276
X29504Y-42094
X29594Y-39583
X29783Y-49969
X30140Y-39371
X30169Y-33098
X30232Y-42512
X30378Y-51161
X30394Y-49228
X30428Y-39677
X30512Y-47890
X30551Y-31130
X30567Y-46299
X30799Y-37161
X30984Y-35882
X31075Y-30185
X31213Y-34480
X31713Y-41904
X31720Y-47157
X31724Y-49146
X31866Y-45457
X31913Y-47894
X32004Y-29236
X32067Y-42256
X32177Y-33717
X32252Y-50713
X32349Y-37346
X32353Y-42925
X32693Y-36299
X33069Y-36835
X33103Y-37734
X33256Y-31130
X33268Y-42161
X33354Y-47453
X33362Y-46114
X33378Y-38083
X33425Y-34866
X33461Y-32280
X33464Y-36846
X33469Y-30339
X33508Y-29028
X33657Y-51260
X33748Y-35843
X34256Y-49169
X34534Y-42366
X34807Y-36354
X34852Y-40857
X34869Y-40028
X35134Y-50858
X35213Y-35028
X35228Y-29654
X35268Y-45307
X35673Y-31130
X35872Y-42925
X35876Y-37339
X36028Y-41320
X36057Y-40165
X36067Y-38110
X36110Y-36465
X36526Y-39030
X36902Y-40094
X36909Y-49165
X37169Y-41236
X37248Y-35807
X37386Y-50858
X37476Y-29614
X37575Y-40701
X37583Y-38020
X37740Y-39795
X38130Y-42307
X38295Y-36421
X38343Y-38992
X38343Y-46626
X38453Y-32378
X38520Y-40807
X38520Y-41685
X38524Y-31217
X38591Y-34992
X38650Y-47996
X38705Y-45150
X38969Y-51287
X39063Y-30260
X39083Y-29106
X39307Y-38008
X39331Y-41232
X39394Y-42272
X39420Y-37339
X39428Y-42925
X39461Y-46634
X39535Y-36559
X39713Y-33642
X40047Y-39461
X40307Y-40587
X40449Y-49134
X40488Y-45189
X40563Y-46689
X40583Y-47984
X40618Y-41516
X40665Y-29594
X40681Y-35469
X40803Y-50933
X40931Y-43327
X41020Y-38055
X41059Y-32335
X41197Y-31122
X41295Y-47925
X41331Y-45217
X41555Y-42060
X41709Y-34217
X41713Y-40831
X41921Y-41327
X41937Y-36390
X42252Y-46634
X42264Y-38913
X42287Y-40335
X42520Y-39834
X42622Y-38039
X42664Y-42538
X42764Y-50858
X42929Y-29579
X42939Y-37339
X42955Y-42925
X43016Y-45091
X43028Y-33335
X43034Y-41790
X43071Y-35299
X43110Y-40295
X43193Y-36551
X43319Y-39787
X43339Y-47965
X43372Y-38217
X43591Y-42339
X43689Y-40276
X43900Y-41737
X43979Y-42205
X44295Y-31173
X44303Y-51252
X44378Y-30346
X44417Y-36839
X44457Y-44520
X44496Y-29043
X44610Y-39764
X44665Y-32323
X44672Y-37339
X44963Y-42925
X44978Y-38468
X44996Y-35780
X45077Y-40332
X45321Y-39976
X45416Y-40534
X45547Y-36323
X45567Y-39532
X45638Y-48949
X45685Y-29654
X45701Y-50988
X46012Y-31795
X46307Y-42366
X46514Y-42925
X46526Y-37339
X46538Y-41315
X46555Y-34843
X46567Y-47693
X46622Y-33150
X46638Y-45591
X46717Y-36520
X46825Y-42368
X46917Y-30303
X46942Y-40266
X46967Y-43902
X47098Y-39402
X47236Y-42368
X47302Y-43693
X47571Y-44398
X47581Y-43990
X47631Y-42368
X47807Y-39421
X47835Y-38697
X47929Y-35819
X47944Y-44528
X47961Y-48197
X47988Y-46858
X48012Y-42263
X48028Y-45480
X48035Y-50933
X48075Y-29665
X48302Y-41472
X48378Y-33551
X48626Y-40717
X48894Y-31713
X48921Y-42315
X49012Y-40094
X49012Y-36323
X49169Y-46118
X49259Y-37734
X49259Y-39421
X49350Y-35047
X49425Y-45307
X49476Y-29059
X49524Y-30299
X49752Y-51287
X49795Y-38173
X49957Y-39878
X50030Y-42925
X50065Y-37339
X50339Y-36480
X50398Y-46740
X50402Y-33512
X50465Y-48165
X50709Y-41886
X50732Y-38098
X50894Y-29622
X51209Y-50827
X51472Y-44429
X51488Y-35831
X51559Y-38921
X51575Y-41563
X51676Y-40398
X52287Y-38717
X52413Y-36465
X52531Y-40280
X52772Y-31681
X52780Y-35157
X52839Y-45122
X53315Y-38724
X53559Y-29642
X53577Y-37339
X53610Y-50843
X53628Y-42925
X53720Y-40268
X54000Y-36496
X54094Y-44075
X54579Y-41976
X54622Y-35520
X54783Y-45181
X54803Y-43252
X54949Y-29028
X54980Y-30276
X54984Y-51311
X55043Y-36276
X55142Y-33528
X55157Y-46591
X55317Y-39366
X55343Y-48055
X55760Y-44150
X56028Y-36417
X56154Y-45594
X56264Y-35150
X56268Y-47457
X56291Y-29614
X56307Y-50748
X56388Y-40854
X56413Y-41992
X56953Y-33307
X57002Y-41524
X57006Y-40303
X57091Y-46657
X57144Y-37339
X57148Y-42929
X57197Y-48134
X57252Y-45114
X57315Y-43768
X57331Y-41874
X57669Y-38354
X57736Y-39161
X57748Y-37031
X57985Y-42195
X58016Y-31327
X58051Y-35272
X58323Y-38728
X58729Y-48353
X58803Y-50815
X58815Y-30343
X58931Y-42602
X59207Y-45248
X59311Y-33146
X59439Y-46085
X59500Y-46933
X59535Y-45467
X59871Y-45806
X59871Y-41760
X60350Y-46311
X60531Y-38728
X60618Y-29563
X60720Y-34394
X60878Y-35539
X61280Y-31031
X62233Y-45474
X62657Y-51169
X62697Y-50350
X62732Y-34205
X62825Y-40594
X62957Y-29185
X62988Y-46343
X62990Y-38756
X63295Y-31606
X63317Y-41383
X63431Y-38232
X63571Y-49760
X63622Y-32602
X63663Y-41574
X63666Y-40621
X63744Y-38785
X63770Y-46953
X63839Y-37713
X63949Y-35110
X64224Y-40686
X64430Y-40349
X64701Y-50421
X64990Y-39174
X65074Y-40875
X65189Y-45236
X65193Y-43982
X65205Y-40260
X65209Y-35736
X65232Y-37004
X65268Y-32370
X65335Y-31465
X65354Y-41154
X65362Y-29122
X65551Y-39665
X65633Y-41433
X65681Y-39031
X65780Y-51268
X65799Y-34965
X65826Y-42091
X65878Y-42482
X66000Y-37996
X66022Y-47185
X66250Y-47799
X66290Y-42121
X66394Y-40496
X66421Y-41378
X66799Y-50394
X66913Y-39217
X66937Y-32063
X66953Y-40618
X67042Y-44949
X67091Y-48438
X67098Y-31114
X67228Y-44142
X67429Y-37720
X67437Y-36240
X67460Y-48299
X67520Y-46075
X67539Y-39087
X67591Y-43126
X67844Y-48391
X68142Y-45311
X68228Y-32535
X68280Y-48004
X68291Y-29350
X68386Y-51209
X68649Y-44247
X68787Y-30988
X69007Y-48330
X69055Y-31909
X69185Y-43311
X69291Y-33244
X69426Y-48793
X69539Y-46067
X69661Y-50382
X69817Y-48956
X69917Y-37366
X70043Y-39147
X70079Y-45185
X70197Y-41949
X70205Y-29677
X70207Y-49119
X70465Y-31835
X70472Y-43260
X70551Y-51213
X70728Y-45815
X70772Y-30898
X70898Y-36274
X71280Y-34244
X71413Y-39005
X71539Y-50386
X71546Y-47121
X71618Y-32720
X71620Y-41720
X71687Y-45224
X71707Y-39297
X71732Y-29118
X71748Y-30028
X71810Y-38154
X72028Y-40524
X72207Y-32524
X72307Y-39579
X72311Y-50744
X72760Y-32354
X72768Y-30035
X72795Y-38020
X72839Y-34244
X73079Y-43803
X73091Y-45949
X73139Y-33587
X73161Y-41776
X73331Y-45157
X73344Y-36434
X73433Y-33850
X73665Y-31031
X73705Y-29921
X73823Y-43146
X73972Y-28976
X74114Y-44335
X74243Y-47400
X74315Y-39549
X74360Y-38933
X74492Y-42012
X74705Y-45535
X74709Y-39386
X74743Y-47452
X75043Y-32705
X75057Y-30175
X75124Y-47563
X75345Y-29592
X75510Y-39464
X75554Y-32982
X75740Y-41831
X75755Y-32628
X75878Y-45228
X75887Y-47726
X75961Y-44374
X76287Y-47575
X76294Y-30580
X76502Y-29592
X76682Y-37591
X76688Y-30580
X76739Y-47555
X77028Y-45677
X77433Y-41858
X77660Y-29592
X77681Y-37095
X77717Y-39393
X78031Y-44346
X78201Y-43118
X78227Y-47579
X78570Y-36040
X78681Y-40654
X78727Y-47594
X78776Y-41717
X78803Y-45957
X79235Y-47524
X79240Y-39535
X79241Y-29592
X79362Y-30874
X79373Y-31810
X80025Y-30376
X80791Y-32646
X80819Y-29280
X81594Y-34626
X81740Y-30669
X81740Y-33520
X81783Y-37177
T3
X54711Y-40264
X55105Y-40067
X55105Y-40500
X55498Y-40264
T5
X33825Y-38232
X34325Y-38232
X34825Y-38232
X35101Y-41898
X35325Y-38232
X35601Y-41898
X36101Y-41898
X36601Y-41898
X36825Y-38232
X37101Y-41898
X37601Y-41898
T6
X62853Y-32472
X62853Y-33472
X62853Y-35661
X62853Y-36661
X63233Y-41974
X63233Y-42974
X63233Y-43974
X63233Y-44974
X64229Y-30461
X64229Y-49854
X64428Y-32472
X64428Y-33472
X64428Y-35661
X64428Y-36661
X65229Y-30461
X65229Y-49854
X66003Y-32472
X66003Y-33472
X66003Y-35661
X66003Y-36661
X66229Y-30461
X66229Y-49854
X67229Y-30461
X67229Y-49854
X68229Y-30461
X68229Y-49854
X69229Y-30461
X69229Y-49854
X70229Y-30461
X70229Y-49854
X71229Y-30461
X71229Y-49854
X72229Y-30461
X72229Y-49854
X73229Y-30461
X73229Y-49854
X73863Y-38652
X73863Y-48297
X74506Y-49756
X74863Y-38652
X74863Y-48297
X75506Y-49756
X75863Y-38652
X75863Y-48297
X76506Y-49756
X76863Y-38652
X76863Y-48297
X77506Y-49756
X78506Y-49756
X79506Y-49756
T7
X75531Y-35748
X75531Y-37126
X80736Y-35307
X80736Y-36685
T4
G00X74791Y-29535
M15
G01X74791Y-29220
M16
G05
G00X74791Y-31031
M15
G01X74791Y-30716
M16
G05
G00X78192Y-29535
M15
G01X78192Y-29220
M16
G05
G00X78192Y-31031
M15
G01X78192Y-30716
M16
G05
T6
G00X78581Y-32209
M15
G01X78581Y-32996
M16
G05
G00X80825Y-31421
M15
G01X80038Y-31421
M16
G05
G00X80825Y-33783
M15
G01X80038Y-33783
M16
G05
T0
M30
