0
SECTION
2
HEADER
9
$INSUNITS
70
4
9
$ACADVER
1
AC1014
9
$HANDSEED
5
FFFF
0
ENDSEC
0
SECTION
2
TABLES
0
TABLE
2
VPORT
5
8
100
AcDbSymbolTable
0
ENDTAB
0
TABLE
2
LTYPE
5
5
100
AcDbSymbolTable
0
LTYPE
5
14
100
AcDbSymbolTableRecord
100
AcDbLinetypeTableRecord
2
BYBLOCK
70
0
0
LTYPE
5
15
100
AcDbSymbolTableRecord
100
AcDbLinetypeTableRecord
2
BYLAYER
70
0
0
ENDTAB
0
TABLE
2
LAYER
5
2
100
AcDbSymbolTable
70
2
0
LAYER
5
50
100
AcDbSymbolTableRecord
100
AcDbLayerTableRecord
2
0
70
0
6
CONTINUOUS
0
ENDTAB
0
TABLE
2
STYLE
5
3
100
AcDbSymbolTable
70
1
0
STYLE
5
11
100
AcDbSymbolTableRecord
100
AcDbTextStyleTableRecord
2
STANDARD
70
0
0
ENDTAB
0
TABLE
2
VIEW
5
6
100
AcDbSymbolTable
70
0
0
ENDTAB
0
TABLE
2
UCS
5
7
100
AcDbSymbolTable
70
0
0
ENDTAB
0
TABLE
2
APPID
5
9
100
AcDbSymbolTable
70
2
0
APPID
5
12
100
AcDbSymbolTableRecord
100
AcDbRegAppTableRecord
2
ACAD
70
0
0
ENDTAB
0
TABLE
2
DIMSTYLE
5
A
100
AcDbSymbolTable
70
1
0
ENDTAB
0
TABLE
2
BLOCK_RECORD
5
1
100
AcDbSymbolTable
70
1
0
BLOCK_RECORD
5
1F
100
AcDbSymbolTableRecord
100
AcDbBlockTableRecord
2
*MODEL_SPACE
0
BLOCK_RECORD
5
1B
100
AcDbSymbolTableRecord
100
AcDbBlockTableRecord
2
*PAPER_SPACE
0
ENDTAB
0
ENDSEC
0
SECTION
2
BLOCKS
0
BLOCK
5
20
100
AcDbEntity
100
AcDbBlockBegin
2
*MODEL_SPACE
0
ENDBLK
5
21
100
AcDbEntity
100
AcDbBlockEnd
0
BLOCK
5
1C
100
AcDbEntity
100
AcDbBlockBegin
2
*PAPER_SPACE
0
ENDBLK
5
1D
100
AcDbEntity
100
AcDbBlockEnd
0
ENDSEC
0
SECTION
2
ENTITIES
0
LWPOLYLINE
5
100
100
AcDbEntity
8
0
100
AcDbPolyline
90
8
70
1
43
0.0
10
139.99999618530251
20
-254.02647399902429
42
-0.41421356237308204
10
137.99999618530254
20
-256.02647399902418
10
71.999996185302507
20
-256.02647399902423
42
-0.41421356237310414
10
69.999996185302493
20
-254.02647399902429
10
69.999996185302479
20
-250.02647399902426
42
-0.41421356237310414
10
71.999996185302507
20
-248.02647399902423
10
137.99999618530254
20
-248.02647399902423
42
-0.41421356237309243
10
139.99999618530251
20
-250.02647399902423
0
LWPOLYLINE
5
101
100
AcDbEntity
8
0
100
AcDbPolyline
90
8
70
1
43
0.0
10
139.99999618530251
20
-238.02647399902426
42
-0.41421356237308204
10
137.99999618530254
20
-240.02647399902418
10
71.999996185302507
20
-240.02647399902418
42
-0.41421356237310281
10
69.999996185302507
20
-238.02647399902423
10
69.999996185302507
20
-234.02647399902423
42
-0.41421356237309892
10
71.999996185302493
20
-232.0264739990242
10
137.99999618530254
20
-232.02647399902418
42
-0.41421356237310281
10
139.99999618530251
20
-234.02647399902418
0
LWPOLYLINE
5
102
100
AcDbEntity
8
0
100
AcDbPolyline
90
20
70
1
43
0.0
10
161.99999618530282
20
-236.52647399902452
10
156.49999618530279
20
-236.52647399902452
10
156.49999618530285
20
-251.52647399902457
10
161.99999618530282
20
-251.52647399902452
10
161.99999618530279
20
-264.02647399902446
10
129.99999618530279
20
-264.02647399902457
10
129.99999618530279
20
-269.52647399902457
10
79.999996185302763
20
-269.52647399902457
10
79.999996185302777
20
-264.02647399902457
10
47.999996185302763
20
-264.02647399902446
10
47.999996185302798
20
-251.52647957804533
10
53.499996185302798
20
-251.52647957804533
10
53.499996185302805
20
-236.52647957804533
10
47.999996185302805
20
-236.52647957804533
10
47.999996185302756
20
-224.02647399902449
10
79.999996185302791
20
-224.02647399902457
10
79.999996185302777
20
-218.52647399902455
10
129.99999618530279
20
-218.52647399902457
10
129.99999618530279
20
-224.0264739990246
10
161.99999618530282
20
-224.0264739990244
0
ENDSEC
0
SECTION
2
OBJECTS
0
DICTIONARY
5
C
100
AcDbDictionary
3
ACAD_GROUP
350
D
3
ACAD_MLINESTYLE
350
17
0
DICTIONARY
5
D
100
AcDbDictionary
0
DICTIONARY
5
1A
330
C
100
AcDbDictionary
0
DICTIONARY
5
17
100
AcDbDictionary
0
ENDSEC
0
EOF
