0
SECTION
2
HEADER
9
$INSUNITS
70
4
9
$ACADVER
1
AC1014
9
$HANDSEED
5
FFFF
0
ENDSEC
0
SECTION
2
TABLES
0
TABLE
2
VPORT
5
8
100
AcDbSymbolTable
0
ENDTAB
0
TABLE
2
LTYPE
5
5
100
AcDbSymbolTable
0
LTYPE
5
14
100
AcDbSymbolTableRecord
100
AcDbLinetypeTableRecord
2
BYBLOCK
70
0
0
LTYPE
5
15
100
AcDbSymbolTableRecord
100
AcDbLinetypeTableRecord
2
BYLAYER
70
0
0
ENDTAB
0
TABLE
2
LAYER
5
2
100
AcDbSymbolTable
70
2
0
LAYER
5
50
100
AcDbSymbolTableRecord
100
AcDbLayerTableRecord
2
0
70
0
6
CONTINUOUS
0
ENDTAB
0
TABLE
2
STYLE
5
3
100
AcDbSymbolTable
70
1
0
STYLE
5
11
100
AcDbSymbolTableRecord
100
AcDbTextStyleTableRecord
2
STANDARD
70
0
0
ENDTAB
0
TABLE
2
VIEW
5
6
100
AcDbSymbolTable
70
0
0
ENDTAB
0
TABLE
2
UCS
5
7
100
AcDbSymbolTable
70
0
0
ENDTAB
0
TABLE
2
APPID
5
9
100
AcDbSymbolTable
70
2
0
APPID
5
12
100
AcDbSymbolTableRecord
100
AcDbRegAppTableRecord
2
ACAD
70
0
0
ENDTAB
0
TABLE
2
DIMSTYLE
5
A
100
AcDbSymbolTable
70
1
0
ENDTAB
0
TABLE
2
BLOCK_RECORD
5
1
100
AcDbSymbolTable
70
1
0
BLOCK_RECORD
5
1F
100
AcDbSymbolTableRecord
100
AcDbBlockTableRecord
2
*MODEL_SPACE
0
BLOCK_RECORD
5
1B
100
AcDbSymbolTableRecord
100
AcDbBlockTableRecord
2
*PAPER_SPACE
0
ENDTAB
0
ENDSEC
0
SECTION
2
BLOCKS
0
BLOCK
5
20
100
AcDbEntity
100
AcDbBlockBegin
2
*MODEL_SPACE
0
ENDBLK
5
21
100
AcDbEntity
100
AcDbBlockEnd
0
BLOCK
5
1C
100
AcDbEntity
100
AcDbBlockBegin
2
*PAPER_SPACE
0
ENDBLK
5
1D
100
AcDbEntity
100
AcDbBlockEnd
0
ENDSEC
0
SECTION
2
ENTITIES
0
LWPOLYLINE
5
100
100
AcDbEntity
8
0
100
AcDbPolyline
90
8
70
1
43
0.0
10
-62.804199999999653
20
58.532670140740883
10
-75.804199999999653
20
58.53267014074089
42
0.41421356237309243
10
-76.804199999999653
20
57.532670140740905
10
-76.804199999999653
20
39.532670140740905
42
0.4142135623730937
10
-75.804199999999653
20
38.532670140740905
10
-62.804199999999653
20
38.532670140740912
42
0.41421356237309509
10
-61.804199999999653
20
39.532670140740912
10
-61.804199999999661
20
57.532670140740905
42
0.41421356237309509
0
LWPOLYLINE
5
101
100
AcDbEntity
8
0
100
AcDbPolyline
90
8
70
1
43
0.0
10
-134.19619999999964
20
35.7206701407409
10
-147.19619999999961
20
35.7206701407409
42
0.41421356237309637
10
-148.19619999999961
20
34.720670140740907
10
-148.19619999999961
20
16.720670140740911
42
0.41421356237308982
10
-147.19619999999961
20
15.720670140740914
10
-134.19619999999964
20
15.720670140740911
42
0.41421356237309637
10
-133.19619999999964
20
16.720670140740914
10
-133.19619999999964
20
34.720670140740907
42
0.41421356237308982
0
CIRCLE
5
102
100
AcDbEntity
8
0
100
AcDbCircle
10
-151.49999999999989
20
109.12647014074076
30
0
40
1.6000000000000003
210
-1.0947644252537635e-46
220
3.9443045261050599e-31
230
1
0
CIRCLE
5
103
100
AcDbEntity
8
0
100
AcDbCircle
10
-58.500000000000014
20
109.12647014074057
30
0
40
1.6000000000000003
210
-1.0947644252537635e-46
220
3.9443045261050599e-31
230
1
0
LWPOLYLINE
5
104
100
AcDbEntity
8
0
100
AcDbPolyline
90
4
70
1
43
0.0
10
-156.39999999999984
20
93.226470140740943
10
-162.09999999999994
20
93.226470140740958
10
-162.09999999999997
20
58.026470140740969
10
-156.39999999999989
20
58.026470140740983
0
LWPOLYLINE
5
105
100
AcDbEntity
8
0
100
AcDbPolyline
90
4
70
1
43
0.0
10
-47.900000000000027
20
16.226470140741004
10
-53.599999999999966
20
16.226470140741004
10
-53.600000000000023
20
-18.973529859258992
10
-47.900000000000055
20
-18.973529859258988
0
LWPOLYLINE
5
106
100
AcDbEntity
8
0
100
AcDbPolyline
90
4
70
1
43
0.0
10
-156.39999999999992
20
16.226470140741
10
-162.10000000000005
20
16.226470140741
10
-162.10000000000005
20
-18.973529859258996
10
-156.40000000000001
20
-18.973529859258992
0
LWPOLYLINE
5
107
100
AcDbEntity
8
0
100
AcDbPolyline
90
4
70
1
43
0.0
10
-47.899999999999906
20
93.226470140740958
10
-53.599999999999845
20
93.226470140740958
10
-53.599999999999916
20
58.026470140740969
10
-47.89999999999992
20
58.026470140740976
0
LWPOLYLINE
5
108
100
AcDbEntity
8
0
100
AcDbPolyline
90
4
70
1
43
0.0
10
-130.00000000000003
20
-39.873529859259165
10
-130.00000000000003
20
-45.373529859259143
10
-80.000000000000028
20
-45.373529859259129
10
-80.000000000000028
20
-39.87352985925915
0
LWPOLYLINE
5
109
100
AcDbEntity
8
0
100
AcDbPolyline
90
4
70
1
43
0.0
10
-129.99999999999974
20
119.62647014074082
10
-129.99999999999974
20
114.12647014074082
10
-79.999999999999773
20
114.12647014074082
10
-79.999999999999773
20
119.62647014074082
0
LWPOLYLINE
5
110
100
AcDbEntity
8
0
100
AcDbPolyline
90
8
70
1
43
0.0
10
-42.000000000000071
20
-45.373529859259342
42
-0.4142135623730942
10
-48.000000000000078
20
-51.373529859259307
10
-162.00000000000011
20
-51.373529859259065
42
-0.41421356237309587
10
-168
20
-45.373529859259122
10
-167.99999999999983
20
119.62647014074081
42
-0.41421356237309587
10
-161.99999999999986
20
125.62647014074081
10
-47.999999999999858
20
125.62647014074062
42
-0.41421356237309587
10
-41.999999999999858
20
119.62647014074062
0
CIRCLE
5
111
100
AcDbEntity
8
0
100
AcDbCircle
10
-58.500000000000021
20
-34.873529859250766
30
0
40
1.6000000000000003
210
-1.0947644252537649e-46
220
3.9443045261050599e-31
230
1
0
CIRCLE
5
112
100
AcDbEntity
8
0
100
AcDbCircle
10
-151.49999999999997
20
-34.873529859250688
30
0
40
1.6000000000000003
210
-1.0947644252537649e-46
220
3.9443045261050599e-31
230
1
0
ENDSEC
0
SECTION
2
OBJECTS
0
DICTIONARY
5
C
100
AcDbDictionary
3
ACAD_GROUP
350
D
3
ACAD_MLINESTYLE
350
17
0
DICTIONARY
5
D
100
AcDbDictionary
0
DICTIONARY
5
1A
330
C
100
AcDbDictionary
0
DICTIONARY
5
17
100
AcDbDictionary
0
ENDSEC
0
EOF
