0
SECTION
2
HEADER
9
$INSUNITS
70
4
9
$ACADVER
1
AC1014
9
$HANDSEED
5
FFFF
0
ENDSEC
0
SECTION
2
TABLES
0
TABLE
2
VPORT
5
8
100
AcDbSymbolTable
0
ENDTAB
0
TABLE
2
LTYPE
5
5
100
AcDbSymbolTable
0
LTYPE
5
14
100
AcDbSymbolTableRecord
100
AcDbLinetypeTableRecord
2
BYBLOCK
70
0
0
LTYPE
5
15
100
AcDbSymbolTableRecord
100
AcDbLinetypeTableRecord
2
BYLAYER
70
0
0
ENDTAB
0
TABLE
2
LAYER
5
2
100
AcDbSymbolTable
70
2
0
LAYER
5
50
100
AcDbSymbolTableRecord
100
AcDbLayerTableRecord
2
0
70
0
6
CONTINUOUS
0
ENDTAB
0
TABLE
2
STYLE
5
3
100
AcDbSymbolTable
70
1
0
STYLE
5
11
100
AcDbSymbolTableRecord
100
AcDbTextStyleTableRecord
2
STANDARD
70
0
0
ENDTAB
0
TABLE
2
VIEW
5
6
100
AcDbSymbolTable
70
0
0
ENDTAB
0
TABLE
2
UCS
5
7
100
AcDbSymbolTable
70
0
0
ENDTAB
0
TABLE
2
APPID
5
9
100
AcDbSymbolTable
70
2
0
APPID
5
12
100
AcDbSymbolTableRecord
100
AcDbRegAppTableRecord
2
ACAD
70
0
0
ENDTAB
0
TABLE
2
DIMSTYLE
5
A
100
AcDbSymbolTable
70
1
0
ENDTAB
0
TABLE
2
BLOCK_RECORD
5
1
100
AcDbSymbolTable
70
1
0
BLOCK_RECORD
5
1F
100
AcDbSymbolTableRecord
100
AcDbBlockTableRecord
2
*MODEL_SPACE
0
BLOCK_RECORD
5
1B
100
AcDbSymbolTableRecord
100
AcDbBlockTableRecord
2
*PAPER_SPACE
0
ENDTAB
0
ENDSEC
0
SECTION
2
BLOCKS
0
BLOCK
5
20
100
AcDbEntity
100
AcDbBlockBegin
2
*MODEL_SPACE
0
ENDBLK
5
21
100
AcDbEntity
100
AcDbBlockEnd
0
BLOCK
5
1C
100
AcDbEntity
100
AcDbBlockBegin
2
*PAPER_SPACE
0
ENDBLK
5
1D
100
AcDbEntity
100
AcDbBlockEnd
0
ENDSEC
0
SECTION
2
ENTITIES
0
LWPOLYLINE
5
100
100
AcDbEntity
8
0
100
AcDbPolyline
90
8
70
1
43
0.0
10
-137.9999999999998
20
-256.02647014074137
42
-0.41421356237309509
10
-139.9999999999998
20
-254.02647014074137
10
-139.9999999999998
20
-250.0264701407414
42
-0.41421356237309509
10
-137.9999999999998
20
-248.0264701407414
10
-71.999999999999801
20
-248.0264701407414
42
-0.4142135623730937
10
-69.999999999999801
20
-250.0264701407414
10
-69.999999999999801
20
-254.02647014074142
42
-0.41421356237309637
10
-71.999999999999801
20
-256.02647014074142
0
LWPOLYLINE
5
101
100
AcDbEntity
8
0
100
AcDbPolyline
90
8
70
1
43
0.0
10
-137.9999999999998
20
-240.02647014074137
42
-0.41421356237309509
10
-139.9999999999998
20
-238.02647014074137
10
-139.99999999999983
20
-234.02647014074134
42
-0.4142135623730977
10
-137.9999999999998
20
-232.02647014074134
10
-71.999999999999801
20
-232.02647014074137
42
-0.4142135623730937
10
-69.999999999999801
20
-234.02647014074137
10
-69.999999999999815
20
-238.02647014074137
42
-0.4142135623730937
10
-71.999999999999801
20
-240.02647014074137
0
LWPOLYLINE
5
102
100
AcDbEntity
8
0
100
AcDbPolyline
90
20
70
1
43
0.0
10
-53.499999999999837
20
-251.52647014074134
10
-47.999999999999837
20
-251.52647014074134
10
-47.999999999999822
20
-264.02647014074142
10
-79.999999999999801
20
-264.02647014074137
10
-79.999999999999801
20
-269.52647014074137
10
-129.9999999999998
20
-269.52647014074137
10
-129.9999999999998
20
-264.02647014074137
10
-161.99999999999983
20
-264.02647014074142
10
-161.99999999999986
20
-251.52647014074142
10
-156.49999999999983
20
-251.52647014074142
10
-156.49999999999983
20
-236.52647014074142
10
-161.99999999999986
20
-236.52647014074142
10
-161.99999999999983
20
-224.02647014074142
10
-129.9999999999998
20
-224.02647014074137
10
-129.9999999999998
20
-218.52647014074137
10
-79.999999999999801
20
-218.52647014074137
10
-79.999999999999801
20
-224.02647014074137
10
-47.999999999999822
20
-224.02647014074142
10
-47.999999999999837
20
-236.52647014074134
10
-53.499999999999837
20
-236.52647014074134
0
ENDSEC
0
SECTION
2
OBJECTS
0
DICTIONARY
5
C
100
AcDbDictionary
3
ACAD_GROUP
350
D
3
ACAD_MLINESTYLE
350
17
0
DICTIONARY
5
D
100
AcDbDictionary
0
DICTIONARY
5
1A
330
C
100
AcDbDictionary
0
DICTIONARY
5
17
100
AcDbDictionary
0
ENDSEC
0
EOF
