0
SECTION
2
HEADER
9
$INSUNITS
70
4
9
$ACADVER
1
AC1014
9
$HANDSEED
5
FFFF
0
ENDSEC
0
SECTION
2
TABLES
0
TABLE
2
VPORT
5
8
100
AcDbSymbolTable
0
ENDTAB
0
TABLE
2
LTYPE
5
5
100
AcDbSymbolTable
0
LTYPE
5
14
100
AcDbSymbolTableRecord
100
AcDbLinetypeTableRecord
2
BYBLOCK
70
0
0
LTYPE
5
15
100
AcDbSymbolTableRecord
100
AcDbLinetypeTableRecord
2
BYLAYER
70
0
0
ENDTAB
0
TABLE
2
LAYER
5
2
100
AcDbSymbolTable
70
2
0
LAYER
5
50
100
AcDbSymbolTableRecord
100
AcDbLayerTableRecord
2
0
70
0
6
CONTINUOUS
0
ENDTAB
0
TABLE
2
STYLE
5
3
100
AcDbSymbolTable
70
1
0
STYLE
5
11
100
AcDbSymbolTableRecord
100
AcDbTextStyleTableRecord
2
STANDARD
70
0
0
ENDTAB
0
TABLE
2
VIEW
5
6
100
AcDbSymbolTable
70
0
0
ENDTAB
0
TABLE
2
UCS
5
7
100
AcDbSymbolTable
70
0
0
ENDTAB
0
TABLE
2
APPID
5
9
100
AcDbSymbolTable
70
2
0
APPID
5
12
100
AcDbSymbolTableRecord
100
AcDbRegAppTableRecord
2
ACAD
70
0
0
ENDTAB
0
TABLE
2
DIMSTYLE
5
A
100
AcDbSymbolTable
70
1
0
ENDTAB
0
TABLE
2
BLOCK_RECORD
5
1
100
AcDbSymbolTable
70
1
0
BLOCK_RECORD
5
1F
100
AcDbSymbolTableRecord
100
AcDbBlockTableRecord
2
*MODEL_SPACE
0
BLOCK_RECORD
5
1B
100
AcDbSymbolTableRecord
100
AcDbBlockTableRecord
2
*PAPER_SPACE
0
ENDTAB
0
ENDSEC
0
SECTION
2
BLOCKS
0
BLOCK
5
20
100
AcDbEntity
100
AcDbBlockBegin
2
*MODEL_SPACE
0
ENDBLK
5
21
100
AcDbEntity
100
AcDbBlockEnd
0
BLOCK
5
1C
100
AcDbEntity
100
AcDbBlockBegin
2
*PAPER_SPACE
0
ENDBLK
5
1D
100
AcDbEntity
100
AcDbBlockEnd
0
ENDSEC
0
SECTION
2
ENTITIES
0
LWPOLYLINE
5
100
100
AcDbEntity
8
0
100
AcDbPolyline
90
8
70
1
43
0.0
10
27.126469612121369
20
-256.02646484374986
42
-0.4142135623730937
10
25.126469612121369
20
-254.02646484374986
10
25.12646961212138
20
-250.02646484374989
42
-0.41421356237309509
10
27.126469612121369
20
-248.02646484374989
10
93.126469612121383
20
-248.02646484374989
42
-0.41421356237310281
10
95.126469612121355
20
-250.02646484374989
10
95.126469612121397
20
-254.02646484374992
42
-0.4142135623730977
10
93.126469612121383
20
-256.02646484374992
0
LWPOLYLINE
5
101
100
AcDbEntity
8
0
100
AcDbPolyline
90
8
70
1
43
0.0
10
27.126469612121369
20
-240.02646484374986
42
-0.4142135623730937
10
25.126469612121369
20
-238.02646484374986
10
25.126469612121362
20
-234.02646484374984
42
-0.4142135623730977
10
27.126469612121369
20
-232.02646484374984
10
93.126469612121383
20
-232.02646484374986
42
-0.41421356237310281
10
95.126469612121355
20
-234.02646484374986
10
95.126469612121383
20
-238.02646484374986
42
-0.41421356237309509
10
93.126469612121383
20
-240.02646484374986
0
LWPOLYLINE
5
102
100
AcDbEntity
8
0
100
AcDbPolyline
90
28
70
1
43
0.0
10
-18.873530387878684
20
-264.02646484375015
10
-39.873530387878603
20
-264.02646484375009
10
-39.87353038787866
20
-251.5264648437502
10
-45.373530387878631
20
-251.52646484375015
10
-45.373530387878667
20
-236.52646484375015
10
-39.873530387878652
20
-236.5264648437502
10
-39.873530387878674
20
-224.02646484375023
10
-18.87353038787867
20
-224.02646484375015
10
-18.873530387878684
20
-218.52646484375012
10
16.126469612121326
20
-218.52646484375009
10
16.126469612121337
20
-224.02646484375009
10
58.126469612121326
20
-224.02646484374998
10
58.126469612121319
20
-218.52646484374998
10
93.126469612121326
20
-218.52646484374989
10
93.126469612121326
20
-224.02646484374992
10
114.12646961212133
20
-224.02646484374984
10
114.12646961212141
20
-236.52646484374986
10
119.62646961212143
20
-236.52646484374986
10
119.62646961212143
20
-251.52646484374986
10
114.12646961212141
20
-251.52646484374986
10
114.12646961212145
20
-264.02646484374998
10
93.126469612121326
20
-264.02646484374992
10
93.126469612121326
20
-269.52646484374992
10
58.126469612121326
20
-269.52646484374998
10
58.126469612121319
20
-264.02646484374998
10
16.126469612121326
20
-264.02646484375003
10
16.12646961212134
20
-269.52646484375009
10
-18.87353038787867
20
-269.52646484375015
0
LWPOLYLINE
5
103
100
AcDbEntity
8
0
100
AcDbPolyline
90
8
70
1
43
0.0
10
-18.873530387878603
20
-242.62646484374997
10
-9.8735303878785974
20
-242.62646484374994
42
0.41421356237309243
10
-8.8735303878786116
20
-241.62646484374994
10
-8.873530387878624
20
-230.62646484374997
42
0.41421356237309698
10
-9.8735303878786311
20
-229.62646484374997
10
-18.873530387878631
20
-229.62646484374997
42
0.4142135623731048
10
-19.87353038787862
20
-230.62646484375
10
-19.87353038787861
20
-241.62646484375
42
0.41421356237309698
0
CIRCLE
5
104
100
AcDbEntity
8
0
100
AcDbCircle
10
3.1264696121213742
20
-237.62646484374994
30
0
40
7.5000000000000018
210
-7.8419344236458324e-45
220
-1.7086106203661965e-59
230
1
0
ENDSEC
0
SECTION
2
OBJECTS
0
DICTIONARY
5
C
100
AcDbDictionary
3
ACAD_GROUP
350
D
3
ACAD_MLINESTYLE
350
17
0
DICTIONARY
5
D
100
AcDbDictionary
0
DICTIONARY
5
1A
330
C
100
AcDbDictionary
0
DICTIONARY
5
17
100
AcDbDictionary
0
ENDSEC
0
EOF
