0
SECTION
2
HEADER
9
$INSUNITS
70
4
9
$ACADVER
1
AC1014
9
$HANDSEED
5
FFFF
0
ENDSEC
0
SECTION
2
TABLES
0
TABLE
2
VPORT
5
8
100
AcDbSymbolTable
0
ENDTAB
0
TABLE
2
LTYPE
5
5
100
AcDbSymbolTable
0
LTYPE
5
14
100
AcDbSymbolTableRecord
100
AcDbLinetypeTableRecord
2
BYBLOCK
70
0
0
LTYPE
5
15
100
AcDbSymbolTableRecord
100
AcDbLinetypeTableRecord
2
BYLAYER
70
0
0
ENDTAB
0
TABLE
2
LAYER
5
2
100
AcDbSymbolTable
70
2
0
LAYER
5
50
100
AcDbSymbolTableRecord
100
AcDbLayerTableRecord
2
0
70
0
6
CONTINUOUS
0
ENDTAB
0
TABLE
2
STYLE
5
3
100
AcDbSymbolTable
70
1
0
STYLE
5
11
100
AcDbSymbolTableRecord
100
AcDbTextStyleTableRecord
2
STANDARD
70
0
0
ENDTAB
0
TABLE
2
VIEW
5
6
100
AcDbSymbolTable
70
0
0
ENDTAB
0
TABLE
2
UCS
5
7
100
AcDbSymbolTable
70
0
0
ENDTAB
0
TABLE
2
APPID
5
9
100
AcDbSymbolTable
70
2
0
APPID
5
12
100
AcDbSymbolTableRecord
100
AcDbRegAppTableRecord
2
ACAD
70
0
0
ENDTAB
0
TABLE
2
DIMSTYLE
5
A
100
AcDbSymbolTable
70
1
0
ENDTAB
0
TABLE
2
BLOCK_RECORD
5
1
100
AcDbSymbolTable
70
1
0
BLOCK_RECORD
5
1F
100
AcDbSymbolTableRecord
100
AcDbBlockTableRecord
2
*MODEL_SPACE
0
BLOCK_RECORD
5
1B
100
AcDbSymbolTableRecord
100
AcDbBlockTableRecord
2
*PAPER_SPACE
0
ENDTAB
0
ENDSEC
0
SECTION
2
BLOCKS
0
BLOCK
5
20
100
AcDbEntity
100
AcDbBlockBegin
2
*MODEL_SPACE
0
ENDBLK
5
21
100
AcDbEntity
100
AcDbBlockEnd
0
BLOCK
5
1C
100
AcDbEntity
100
AcDbBlockBegin
2
*PAPER_SPACE
0
ENDBLK
5
1D
100
AcDbEntity
100
AcDbBlockEnd
0
ENDSEC
0
SECTION
2
ENTITIES
0
ARC
5
100
100
AcDbEntity
8
0
100
AcDbCircle
10
64.523060988005611
20
70.087467505714358
30
3.0653403907105373e-45
40
1.4999999999999778
210
2.2990052930329026e-46
220
-8.6281661508547564e-32
230
1
100
AcDbArc
50
32.589636480807563
51
90
0
LINE
5
101
100
AcDbEntity
8
0
100
AcDbLine
10
64.523060988005611
20
71.587467505714343
30
1.2942249226282251e-31
11
63.499392185276982
21
71.587467505714343
31
0
0
ARC
5
102
100
AcDbEntity
8
0
100
AcDbCircle
10
63.499392185276982
20
73.087467505714329
30
0
40
1.5000000000000036
210
-3.1554436208840472e-30
220
1.2202692127637493e-30
230
1
100
AcDbArc
50
90
51
270
0
LINE
5
103
100
AcDbEntity
8
0
100
AcDbLine
10
63.499392185276982
20
74.587467505714343
30
-1.8304038191456283e-30
11
64.999392185276974
21
74.587467505714343
31
0
0
ARC
5
104
100
AcDbEntity
8
0
100
AcDbCircle
10
64.999562111370381
20
76.587467510428652
30
0
40
2.00000000000002
210
0
220
0
230
1
100
AcDbArc
50
-89.998609129248194
51
0.0013908703810691446
0
LINE
5
105
100
AcDbEntity
8
0
100
AcDbLine
10
66.999562110781113
20
76.587516060976782
30
0
11
66.999465009684812
21
80.58751605979819
31
0
0
ARC
5
106
100
AcDbEntity
8
0
100
AcDbCircle
10
64.999465010274122
20
80.587467509250075
30
2.1895288505075267e-46
40
1.9999999999999842
210
1.4960792719966957e-37
220
-6.1629758202232081e-33
230
1
100
AcDbArc
50
0.0013908703810691446
51
90.001390870751791
0
LINE
5
107
100
AcDbEntity
8
0
100
AcDbLine
10
64.999392185276974
20
82.587467508660751
30
0
11
63.499416459725964
21
82.587467508660751
31
0
0
ARC
5
108
100
AcDbEntity
8
0
100
AcDbCircle
10
63.499416459725978
20
84.087467508660751
30
0
40
1.5000000000000036
210
-3.1554436208840472e-30
220
-4.868750899410927e-31
230
1
100
AcDbArc
50
90
51
269.99999999999943
0
LINE
5
109
100
AcDbEntity
8
0
100
AcDbLine
10
63.499416459725978
20
85.587467508660765
30
7.303126349116408e-31
11
64.522135586482307
21
85.587467508660765
31
0
0
ARC
5
110
100
AcDbEntity
8
0
100
AcDbCircle
10
64.522135586482278
20
87.087467508660822
30
0
40
1.5000000000000568
210
0
220
0
230
1
100
AcDbArc
50
270.00000000000108
51
327.4215374676175
0
ARC
5
111
100
AcDbEntity
8
0
100
AcDbCircle
10
69.999392184746625
20
83.587516058030289
30
1.1254178291608687e-43
40
5.0000000000000355
210
8.4953072909965696e-31
220
1.3294749533029508e-30
230
1
100
AcDbArc
50
90
51
147.42153746761835
0
LINE
5
112
100
AcDbEntity
8
0
100
AcDbLine
10
69.999392184746625
20
88.587516058030332
30
-6.6473747665146815e-30
11
139.99939220537172
21
88.58751605803036
31
0
0
ARC
5
113
100
AcDbEntity
8
0
100
AcDbCircle
10
139.99939220537166
20
83.587516058030246
30
0
40
5.0000000000001146
210
0
220
-0
230
1
100
AcDbArc
50
32.58963641916317
51
89.999999999999346
0
ARC
5
114
100
AcDbEntity
8
0
100
AcDbCircle
10
145.47596613504859
20
87.088535622783382
30
1.3815927046702493e-43
40
1.4999999999999831
210
-1.0468764040596879e-30
220
1.6376075357553742e-30
230
1
100
AcDbArc
50
212.58963641916216
51
270.00000000000108
0
LINE
5
115
100
AcDbEntity
8
0
100
AcDbLine
10
145.47596613504862
20
85.588535622783411
30
4.3448979545376943e-31
11
146.4993922048414
21
85.588535622783411
31
0
0
ARC
5
116
100
AcDbEntity
8
0
100
AcDbCircle
10
146.4993922048414
20
84.088535622783397
30
0
40
1.5000000000000036
210
-3.1554436208840472e-30
220
-6.3478650967003215e-31
230
1
100
AcDbArc
50
-90
51
90
0
LINE
5
117
100
AcDbEntity
8
0
100
AcDbLine
10
146.4993922048414
20
82.588535622783397
30
-9.5217976450505046e-31
11
144.9993922048414
21
82.588535622783397
31
0
0
ARC
5
118
100
AcDbEntity
8
0
100
AcDbCircle
10
144.99946500791555
20
80.588535624108474
30
0
40
1.9999999999999911
210
0
220
0
230
1
100
AcDbArc
50
90.002085654442553
51
180.00139087038104
0
LINE
5
119
100
AcDbEntity
8
0
100
AcDbLine
10
142.99946500850484
20
80.588487073559946
30
0
11
142.99956210960218
21
76.58848706266086
31
0
0
ARC
5
120
100
AcDbEntity
8
0
100
AcDbCircle
10
144.99956210901286
20
76.588535613209373
30
0
40
1.9999999999999754
210
0
220
0
230
1
100
AcDbArc
50
180.00139087038104
51
269.99513260402108
0
LINE
5
121
100
AcDbEntity
8
0
100
AcDbLine
10
144.9993922048414
20
74.588535620426228
30
0
11
146.4993922048414
21
74.588535620426228
31
0
0
ARC
5
122
100
AcDbEntity
8
0
100
AcDbCircle
10
146.4993922048414
20
73.088535620426228
30
0
40
1.5000000000000036
210
-3.1554436208840472e-30
220
2.8965986363583905e-31
230
1
100
AcDbArc
50
-90
51
90
0
LINE
5
123
100
AcDbEntity
8
0
100
AcDbLine
10
146.4993922048414
20
71.588535620426228
30
4.3448979545375953e-31
11
145.47689152941649
21
71.588535620426228
31
0
0
ARC
5
124
100
AcDbEntity
8
0
100
AcDbCircle
10
145.47689152941649
20
70.0885356204262
30
-1.0006146846819397e-43
40
1.5000000000000213
210
-8.4953073038684034e-31
220
-7.6768110466817245e-44
230
1
100
AcDbArc
50
90
51
147.42153741214477
0
ARC
5
125
100
AcDbEntity
8
0
100
AcDbCircle
10
139.99963493454078
20
73.588487076359741
30
-3.1529215447308384e-44
40
5.0000000000000355
210
-1.8094191745739804e-30
220
3.0285364132541339e-30
230
1
100
AcDbArc
50
270.00000000000034
51
327.42153741214503
0
LINE
5
126
100
AcDbEntity
8
0
100
AcDbLine
10
139.99963493454081
20
68.588487076359712
30
1.5142682066270777e-29
11
69.999634913915671
21
68.588487076359698
31
0
0
ARC
5
127
100
AcDbEntity
8
0
100
AcDbCircle
10
69.999634913915699
20
73.588487076359726
30
0
40
5.0000000000000275
210
1.1746717757611693e-32
220
7.5093460467461874e-33
230
1
100
AcDbArc
50
212.58963648080788
51
269.99999999999972
0
CIRCLE
5
128
100
AcDbEntity
8
0
100
AcDbCircle
10
62.999732049485331
20
78.587418964595045
30
0
40
1.4999999999999993
210
1.4960792719962217e-37
220
-6.1629758202232683e-33
230
1
0
LWPOLYLINE
5
129
100
AcDbEntity
8
0
100
AcDbPolyline
90
8
70
1
43
0.0
10
139.99939220537169
20
98.58751605803036
42
-0.41421214035591342
10
154.99939220519497
20
83.587588884122042
10
154.9993922048414
20
73.673820727783081
42
-0.415880797857832
10
139.99963493454084
20
58.588487076359712
10
69.999634913915699
20
58.588487076359712
42
-0.41420645238310744
10
54.999634918335289
20
73.588122950080773
10
54.999392185276946
20
83.587389919896054
42
-0.41421602537551666
10
69.999392184746654
20
98.587516058030332
0
CIRCLE
5
130
100
AcDbEntity
8
0
100
AcDbCircle
10
146.99929506980172
20
78.588584169794984
30
0
40
1.4999999999999993
210
3.1554436199543134e-30
220
7.659925872659298e-35
230
1
0
CIRCLE
5
131
100
AcDbEntity
8
0
100
AcDbCircle
10
134.99951356016149
20
63.588487076359712
30
0
40
1.6000000000000014
210
0
220
-0
230
1
0
CIRCLE
5
132
100
AcDbEntity
8
0
100
AcDbCircle
10
74.999513560161517
20
93.587516058030332
30
0
40
1.6000000000000014
210
0
220
-0
230
1
0
CIRCLE
5
133
100
AcDbEntity
8
0
100
AcDbCircle
10
134.99951356016149
20
93.58751605803036
30
0
40
1.6000000000000014
210
0
220
-0
230
1
0
CIRCLE
5
134
100
AcDbEntity
8
0
100
AcDbCircle
10
74.999513560161517
20
63.588487076359705
30
0
40
1.6000000000000014
210
0
220
-0
230
1
0
ENDSEC
0
SECTION
2
OBJECTS
0
DICTIONARY
5
C
100
AcDbDictionary
3
ACAD_GROUP
350
D
3
ACAD_MLINESTYLE
350
17
0
DICTIONARY
5
D
100
AcDbDictionary
0
DICTIONARY
5
1A
330
C
100
AcDbDictionary
0
DICTIONARY
5
17
100
AcDbDictionary
0
ENDSEC
0
EOF
