0
SECTION
2
HEADER
9
$INSUNITS
70
4
9
$ACADVER
1
AC1014
9
$HANDSEED
5
FFFF
0
ENDSEC
0
SECTION
2
TABLES
0
TABLE
2
VPORT
5
8
100
AcDbSymbolTable
0
ENDTAB
0
TABLE
2
LTYPE
5
5
100
AcDbSymbolTable
0
LTYPE
5
14
100
AcDbSymbolTableRecord
100
AcDbLinetypeTableRecord
2
BYBLOCK
70
0
0
LTYPE
5
15
100
AcDbSymbolTableRecord
100
AcDbLinetypeTableRecord
2
BYLAYER
70
0
0
ENDTAB
0
TABLE
2
LAYER
5
2
100
AcDbSymbolTable
70
2
0
LAYER
5
50
100
AcDbSymbolTableRecord
100
AcDbLayerTableRecord
2
0
70
0
6
CONTINUOUS
0
ENDTAB
0
TABLE
2
STYLE
5
3
100
AcDbSymbolTable
70
1
0
STYLE
5
11
100
AcDbSymbolTableRecord
100
AcDbTextStyleTableRecord
2
STANDARD
70
0
0
ENDTAB
0
TABLE
2
VIEW
5
6
100
AcDbSymbolTable
70
0
0
ENDTAB
0
TABLE
2
UCS
5
7
100
AcDbSymbolTable
70
0
0
ENDTAB
0
TABLE
2
APPID
5
9
100
AcDbSymbolTable
70
2
0
APPID
5
12
100
AcDbSymbolTableRecord
100
AcDbRegAppTableRecord
2
ACAD
70
0
0
ENDTAB
0
TABLE
2
DIMSTYLE
5
A
100
AcDbSymbolTable
70
1
0
ENDTAB
0
TABLE
2
BLOCK_RECORD
5
1
100
AcDbSymbolTable
70
1
0
BLOCK_RECORD
5
1F
100
AcDbSymbolTableRecord
100
AcDbBlockTableRecord
2
*MODEL_SPACE
0
BLOCK_RECORD
5
1B
100
AcDbSymbolTableRecord
100
AcDbBlockTableRecord
2
*PAPER_SPACE
0
ENDTAB
0
ENDSEC
0
SECTION
2
BLOCKS
0
BLOCK
5
20
100
AcDbEntity
100
AcDbBlockBegin
2
*MODEL_SPACE
0
ENDBLK
5
21
100
AcDbEntity
100
AcDbBlockEnd
0
BLOCK
5
1C
100
AcDbEntity
100
AcDbBlockBegin
2
*PAPER_SPACE
0
ENDBLK
5
1D
100
AcDbEntity
100
AcDbBlockEnd
0
ENDSEC
0
SECTION
2
ENTITIES
0
CIRCLE
5
100
100
AcDbEntity
8
0
100
AcDbCircle
10
127.09219999999975
20
59.587980244335803
30
0
40
0.99999999999999645
210
6.402780733292224e-64
220
1.5407439555097887e-33
230
1
0
CIRCLE
5
101
100
AcDbEntity
8
0
100
AcDbCircle
10
82.908096166743348
20
59.587980244335803
30
0
40
0.99999999999999645
210
6.402780733292224e-64
220
1.5407439555097887e-33
230
1
0
CIRCLE
5
102
100
AcDbEntity
8
0
100
AcDbCircle
10
82.906930953587732
20
107.58798023019288
30
0
40
0.99999999999999645
210
6.4027807332922105e-64
220
1.5407439555097887e-33
230
1
0
CIRCLE
5
103
100
AcDbEntity
8
0
100
AcDbCircle
10
127.0909309535877
20
107.58798023019288
30
0
40
0.99999999999999645
210
6.4027807332922105e-64
220
1.5407439555097887e-33
230
1
0
CIRCLE
5
104
100
AcDbEntity
8
0
100
AcDbCircle
10
134.99951356016558
20
61.087980237264361
30
0
40
1.6000000000000014
210
0
220
0
230
1
0
CIRCLE
5
105
100
AcDbEntity
8
0
100
AcDbCircle
10
134.99951356016558
20
106.08798023726436
30
0
40
1.6000000000000014
210
0
220
0
230
1
0
CIRCLE
5
106
100
AcDbEntity
8
0
100
AcDbCircle
10
104.99893095358775
20
107.5879802301929
30
0
40
1.5000000000000036
210
-9.6902268845478746e-63
220
1.5407439555097887e-33
230
1
0
CIRCLE
5
107
100
AcDbEntity
8
0
100
AcDbCircle
10
74.999513560165568
20
61.087980237264361
30
0
40
1.6000000000000014
210
0
220
0
230
1
0
CIRCLE
5
108
100
AcDbEntity
8
0
100
AcDbCircle
10
74.999513560165568
20
106.08798023726436
30
0
40
1.6000000000000014
210
0
220
0
230
1
0
CIRCLE
5
109
100
AcDbEntity
8
0
100
AcDbCircle
10
80.999513567237017
20
83.587397630686567
30
0
40
1.5000000000000036
210
-9.6902268845478746e-63
220
1.5407439555097887e-33
230
1
0
CIRCLE
5
110
100
AcDbEntity
8
0
100
AcDbCircle
10
128.99951355309412
20
83.588562843842169
30
0
40
1.5000000000000036
210
-9.6902268845478746e-63
220
1.5407439555097887e-33
230
1
0
CIRCLE
5
111
100
AcDbEntity
8
0
100
AcDbCircle
10
105.00009616674339
20
59.587980244335832
30
0
40
1.5000000000000036
210
-9.6902268845478746e-63
220
1.5407439555097887e-33
230
1
0
LWPOLYLINE
5
112
100
AcDbEntity
8
0
100
AcDbPolyline
90
8
70
1
43
0.0
10
137.49951356016558
20
113.58798023726438
42
-0.41421356237309298
10
139.99951356016558
20
111.08798023726436
10
139.99951356016555
20
56.087980237264361
42
-0.41421356237309404
10
137.49951356016555
20
53.587980237264361
10
72.499513560165568
20
53.587980237264361
42
-0.41421356237309298
10
69.999513560165568
20
56.087980237264361
10
69.999513560165582
20
111.08798023726436
42
-0.41421356237309509
10
72.499513560165582
20
113.58798023726436
0
LWPOLYLINE
5
113
100
AcDbEntity
8
0
100
AcDbPolyline
90
76
70
1
43
0.0
10
81.49951356016561
20
94.087446180055977
42
-0.41421356237308121
10
82.999513560165624
20
92.587446180055963
10
82.99951356016561
20
87.587446182413117
42
-0.41419934326752966
10
84.999465015510239
20
85.587494733550429
10
84.999562116606626
20
81.587494732372164
42
-0.41421356237310542
10
82.999610667744065
20
79.587446182413302
10
82.99951356016561
20
79.587446180055991
10
82.99951356016561
20
74.587446182413146
42
-0.41421356237309331
10
81.499513560165596
20
73.087446182413146
10
80.499707762462108
20
73.087446182413146
42
0.99999999999999989
10
80.499707762462094
20
70.087446182413146
10
81.49951356016561
20
70.087446182413117
42
-0.4142135623730881
10
82.99951356016561
20
68.587446182413146
10
82.99951356016561
20
64.587980237264389
42
0.41421356237309587
10
85.99951356016561
20
61.587980237264389
10
92.549659642089381
20
61.587980237264389
42
-0.4142135623730881
10
94.049659642089395
20
60.087980237264382
10
94.049659642089395
20
59.087980237264389
42
0.99999999999999989
10
97.049659642089395
20
59.087980237264389
10
97.049659642089395
20
60.087980237264382
42
-0.4142135623730881
10
98.549659642089409
20
61.587980237264389
10
101.0000476150168
20
61.587980237264389
42
-0.41419934326753233
10
102.99999906387953
20
63.587931692609047
10
106.99999906505781
20
63.588028793705391
42
-0.4142135623731002
10
109.00004761501665
20
61.588077344842837
10
109.00004761737398
20
61.587980237264389
10
114.00004761265969
20
61.587980237264375
42
-0.41421356237308982
10
115.50004761265967
20
60.087980237264382
10
115.50004761265969
20
59.088174439560845
42
0.99999999999999989
10
118.50004761265967
20
59.088174439560845
10
118.50004761265967
20
60.087980237264382
42
-0.41421356237309331
10
120.00004761265969
20
61.587980237264389
10
123.9995135601656
20
61.587980237264375
42
0.41421356237309509
10
126.99951356016561
20
64.587980237264389
10
126.99951356016561
20
68.588514292115576
42
-0.4142135623730881
10
128.49951356016561
20
70.08851429211559
10
129.49951356016561
20
70.08851429211559
42
0.99999999999999989
10
129.49951356016561
20
73.088514292115576
10
128.49951356016561
20
73.088514292115576
42
-0.4142135623730881
10
126.99951356016561
20
74.588514292115576
10
126.99951356016561
20
79.588514292115576
42
-0.4141993432675401
10
124.9995621048209
20
81.588465740978293
10
124.99946500372454
20
85.588465742156572
42
-0.4142135623731002
10
126.9994164525871
20
87.588514292115434
10
126.99951356016561
20
87.588514294472745
10
126.99951356016561
20
92.588514289758251
42
-0.4142135623730881
10
128.49951356016561
20
94.088514289758251
10
129.4992222502907
20
94.08851428975828
42
0.99999999999999989
10
129.4992222502907
20
97.088514289758265
10
128.49951356016561
20
97.088514289758265
42
-0.4142135623730881
10
126.99951356016561
20
98.588514289758265
10
126.99951356016561
20
102.58798023726439
42
0.41421356237309509
10
123.9995135601656
20
105.58798023726439
10
119.99897950531432
20
105.58798023726439
42
-0.41421356237309509
10
118.49897950531431
20
107.08798023726439
10
118.4989795053143
20
108.08798023726439
42
0.99999999999999989
10
115.49897950531431
20
108.08798023726439
10
115.4989795053143
20
107.08798023726438
42
-0.4142135623730881
10
113.99897950531431
20
105.58798023726439
10
108.99897950531431
20
105.58798023726439
42
-0.41419934326754532
10
106.99902805645161
20
103.58802878191968
10
102.99902805527333
20
103.58793168082332
42
-0.41421356237309509
10
100.99897950531448
20
105.58788312968588
10
100.99897950295716
20
105.58798023726439
10
95.998979512301872
20
105.58798023726438
42
-0.41421356237308121
10
94.498979512301858
20
107.08798023726438
10
94.498979512301858
20
108.08768892738959
42
0.99999999999999989
10
91.498979512301858
20
108.08768892738959
10
91.498979512301858
20
107.08798023726439
42
-0.4142135623730881
10
89.998979512301844
20
105.58798023726439
10
85.999513560165596
20
105.5879802372644
42
0.41421356237309331
10
82.99951356016561
20
102.5879802372644
10
82.999513560165624
20
98.587446180055991
42
-0.4142135623730881
10
81.499513560165596
20
97.087446180055963
10
80.499319357973022
20
97.087446180055977
42
0.99999999999999989
10
80.499319357973008
20
94.087446180055991
0
ENDSEC
0
SECTION
2
OBJECTS
0
DICTIONARY
5
C
100
AcDbDictionary
3
ACAD_GROUP
350
D
3
ACAD_MLINESTYLE
350
17
0
DICTIONARY
5
D
100
AcDbDictionary
0
DICTIONARY
5
1A
330
C
100
AcDbDictionary
0
DICTIONARY
5
17
100
AcDbDictionary
0
ENDSEC
0
EOF
