G04 #@! TF.GenerationSoftware,KiCad,Pcbnew,(5.1.6-0-10_14)*
G04 #@! TF.CreationDate,2020-10-30T11:13:33+09:00*
G04 #@! TF.ProjectId,NinjaLAMP,4e696e6a-614c-4414-9d50-2e6b69636164,rev?*
G04 #@! TF.SameCoordinates,Original*
G04 #@! TF.FileFunction,Copper,L1,Top*
G04 #@! TF.FilePolarity,Positive*
%FSLAX46Y46*%
G04 Gerber Fmt 4.6, Leading zero omitted, Abs format (unit mm)*
G04 Created by KiCad (PCBNEW (5.1.6-0-10_14)) date 2020-10-30 11:13:33*
%MOMM*%
%LPD*%
G01*
G04 APERTURE LIST*
G04 #@! TA.AperFunction,ComponentPad*
%ADD10R,1.000000X1.000000*%
G04 #@! TD*
G04 #@! TA.AperFunction,ComponentPad*
%ADD11O,1.000000X1.000000*%
G04 #@! TD*
G04 #@! TA.AperFunction,ComponentPad*
%ADD12O,2.032000X2.032000*%
G04 #@! TD*
G04 #@! TA.AperFunction,ComponentPad*
%ADD13C,1.399540*%
G04 #@! TD*
G04 #@! TA.AperFunction,ComponentPad*
%ADD14R,1.700000X1.700000*%
G04 #@! TD*
G04 #@! TA.AperFunction,ComponentPad*
%ADD15O,1.700000X1.700000*%
G04 #@! TD*
G04 #@! TA.AperFunction,ComponentPad*
%ADD16R,3.500000X3.500000*%
G04 #@! TD*
G04 #@! TA.AperFunction,ComponentPad*
%ADD17R,2.000000X2.600000*%
G04 #@! TD*
G04 #@! TA.AperFunction,ComponentPad*
%ADD18O,2.000000X2.600000*%
G04 #@! TD*
G04 #@! TA.AperFunction,SMDPad,CuDef*
%ADD19R,1.320800X0.558800*%
G04 #@! TD*
G04 #@! TA.AperFunction,SMDPad,CuDef*
%ADD20R,0.558800X1.320800*%
G04 #@! TD*
G04 #@! TA.AperFunction,SMDPad,CuDef*
%ADD21R,1.200000X0.900000*%
G04 #@! TD*
G04 #@! TA.AperFunction,SMDPad,CuDef*
%ADD22C,1.143000*%
G04 #@! TD*
G04 #@! TA.AperFunction,SMDPad,CuDef*
%ADD23O,1.016000X2.032000*%
G04 #@! TD*
G04 #@! TA.AperFunction,SMDPad,CuDef*
%ADD24O,2.748280X1.998980*%
G04 #@! TD*
G04 #@! TA.AperFunction,ComponentPad*
%ADD25O,1.800000X1.800000*%
G04 #@! TD*
G04 #@! TA.AperFunction,ComponentPad*
%ADD26R,1.800000X1.800000*%
G04 #@! TD*
G04 #@! TA.AperFunction,SMDPad,CuDef*
%ADD27R,0.900000X1.200000*%
G04 #@! TD*
G04 #@! TA.AperFunction,ComponentPad*
%ADD28C,1.270000*%
G04 #@! TD*
G04 #@! TA.AperFunction,SMDPad,CuDef*
%ADD29R,1.549400X0.558800*%
G04 #@! TD*
G04 #@! TA.AperFunction,SMDPad,CuDef*
%ADD30R,0.750000X1.200000*%
G04 #@! TD*
G04 #@! TA.AperFunction,SMDPad,CuDef*
%ADD31R,1.016000X1.651000*%
G04 #@! TD*
G04 #@! TA.AperFunction,SMDPad,CuDef*
%ADD32R,5.298440X6.197600*%
G04 #@! TD*
G04 #@! TA.AperFunction,SMDPad,CuDef*
%ADD33C,0.100000*%
G04 #@! TD*
G04 #@! TA.AperFunction,SMDPad,CuDef*
%ADD34R,5.200000X1.700000*%
G04 #@! TD*
G04 #@! TA.AperFunction,ViaPad*
%ADD35C,0.800000*%
G04 #@! TD*
G04 #@! TA.AperFunction,Conductor*
%ADD36C,1.270000*%
G04 #@! TD*
G04 #@! TA.AperFunction,Conductor*
%ADD37C,2.540000*%
G04 #@! TD*
G04 #@! TA.AperFunction,Conductor*
%ADD38C,0.508000*%
G04 #@! TD*
G04 #@! TA.AperFunction,Conductor*
%ADD39C,0.254000*%
G04 #@! TD*
G04 APERTURE END LIST*
D10*
G04 #@! TO.P,J2,1*
G04 #@! TO.N,TACT0*
X168732500Y-101697000D03*
D11*
G04 #@! TO.P,J2,2*
G04 #@! TO.N,TACT1*
X168732500Y-100427000D03*
G04 #@! TO.P,J2,3*
G04 #@! TO.N,TACT2*
X168732500Y-99157000D03*
G04 #@! TO.P,J2,4*
G04 #@! TO.N,+3V3*
X168732500Y-97887000D03*
G04 #@! TO.P,J2,5*
G04 #@! TO.N,GND*
X168732500Y-96617000D03*
G04 #@! TD*
D12*
G04 #@! TO.P,D2,4*
G04 #@! TO.N,SDA*
X129710000Y-90040000D03*
G04 #@! TO.P,D2,3*
G04 #@! TO.N,SCL*
X132250000Y-90040000D03*
G04 #@! TO.P,D2,2*
G04 #@! TO.N,+3V3*
X134790000Y-90040000D03*
G04 #@! TO.P,D2,1*
G04 #@! TO.N,GND*
X137330000Y-90040000D03*
G04 #@! TD*
D13*
G04 #@! TO.P,D1,4*
G04 #@! TO.N,Net-(D1-Pad4)*
X133520000Y-97660260D03*
G04 #@! TO.P,D1,3*
G04 #@! TO.N,+3V3*
X133520000Y-99661780D03*
G04 #@! TO.P,D1,2*
G04 #@! TO.N,Net-(D1-Pad2)*
X133520000Y-101658220D03*
G04 #@! TO.P,D1,1*
G04 #@! TO.N,Net-(D1-Pad1)*
X133520000Y-103659740D03*
G04 #@! TD*
D14*
G04 #@! TO.P,HEATER1,1*
G04 #@! TO.N,+12V*
X172149240Y-115442800D03*
D15*
G04 #@! TO.P,HEATER1,2*
G04 #@! TO.N,/Q2*
X169609240Y-115442800D03*
G04 #@! TD*
G04 #@! TO.P,HEATER2,2*
G04 #@! TO.N,/Q2*
X169619400Y-111369400D03*
D14*
G04 #@! TO.P,HEATER2,1*
G04 #@! TO.N,+12V*
X172159400Y-111369400D03*
G04 #@! TD*
D16*
G04 #@! TO.P,J1,1*
G04 #@! TO.N,+12V*
X182624200Y-100574400D03*
G04 #@! TO.P,J1,2*
G04 #@! TO.N,GND*
G04 #@! TA.AperFunction,ComponentPad*
G36*
G01*
X181624200Y-93074400D02*
X183624200Y-93074400D01*
G75*
G02*
X184374200Y-93824400I0J-750000D01*
G01*
X184374200Y-95324400D01*
G75*
G02*
X183624200Y-96074400I-750000J0D01*
G01*
X181624200Y-96074400D01*
G75*
G02*
X180874200Y-95324400I0J750000D01*
G01*
X180874200Y-93824400D01*
G75*
G02*
X181624200Y-93074400I750000J0D01*
G01*
G37*
G04 #@! TD.AperFunction*
G04 #@! TO.P,J1,3*
G04 #@! TA.AperFunction,ComponentPad*
G36*
G01*
X177049200Y-95824400D02*
X178799200Y-95824400D01*
G75*
G02*
X179674200Y-96699400I0J-875000D01*
G01*
X179674200Y-98449400D01*
G75*
G02*
X178799200Y-99324400I-875000J0D01*
G01*
X177049200Y-99324400D01*
G75*
G02*
X176174200Y-98449400I0J875000D01*
G01*
X176174200Y-96699400D01*
G75*
G02*
X177049200Y-95824400I875000J0D01*
G01*
G37*
G04 #@! TD.AperFunction*
G04 #@! TD*
D17*
G04 #@! TO.P,FAN1,1*
G04 #@! TO.N,Net-(FAN1-Pad1)*
X169759100Y-91439800D03*
D18*
G04 #@! TO.P,FAN1,2*
G04 #@! TO.N,+12V*
X172299100Y-91439800D03*
G04 #@! TO.P,FAN1,3*
G04 #@! TO.N,N/C*
X174839100Y-91439800D03*
G04 #@! TD*
D14*
G04 #@! TO.P,NTC_AIR1,1*
G04 #@! TO.N,AIN_AIR*
X136320000Y-114630000D03*
D15*
G04 #@! TO.P,NTC_AIR1,2*
G04 #@! TO.N,GND*
X138860000Y-114630000D03*
G04 #@! TD*
G04 #@! TO.P,NTC_WELL1,2*
G04 #@! TO.N,GND*
X150752500Y-114630000D03*
D14*
G04 #@! TO.P,NTC_WELL1,1*
G04 #@! TO.N,AIN_WELL*
X153292500Y-114630000D03*
G04 #@! TD*
D19*
G04 #@! TO.P,Q1,3*
G04 #@! TO.N,GND*
X173467500Y-106908400D03*
G04 #@! TO.P,Q1,2*
G04 #@! TO.N,/Q2*
X171283100Y-107848200D03*
G04 #@! TO.P,Q1,1*
G04 #@! TO.N,/Q1*
X171283100Y-105968600D03*
G04 #@! TD*
D20*
G04 #@! TO.P,Q2,1*
G04 #@! TO.N,Net-(Q2-Pad1)*
X172248300Y-94017900D03*
G04 #@! TO.P,Q2,2*
G04 #@! TO.N,Net-(FAN1-Pad1)*
X170368700Y-94017900D03*
G04 #@! TO.P,Q2,3*
G04 #@! TO.N,GND*
X171308500Y-96202300D03*
G04 #@! TD*
D21*
G04 #@! TO.P,R4,2*
G04 #@! TO.N,+3V3*
X142410000Y-106934000D03*
G04 #@! TO.P,R4,1*
G04 #@! TO.N,SCL*
X144610000Y-106934000D03*
G04 #@! TD*
G04 #@! TO.P,R5,1*
G04 #@! TO.N,SDA*
X144610000Y-104902000D03*
G04 #@! TO.P,R5,2*
G04 #@! TO.N,+3V3*
X142410000Y-104902000D03*
G04 #@! TD*
G04 #@! TO.P,R7,2*
G04 #@! TO.N,AIN_WELL*
X144610000Y-110998000D03*
G04 #@! TO.P,R7,1*
G04 #@! TO.N,+3V3*
X142410000Y-110998000D03*
G04 #@! TD*
G04 #@! TO.P,R8,1*
G04 #@! TO.N,+3V3*
X142410000Y-108966000D03*
G04 #@! TO.P,R8,2*
G04 #@! TO.N,AIN_AIR*
X144610000Y-108966000D03*
G04 #@! TD*
G04 #@! TO.P,R11,2*
G04 #@! TO.N,HEATER*
X171221960Y-101676000D03*
G04 #@! TO.P,R11,1*
G04 #@! TO.N,/Q1*
X173421960Y-101676000D03*
G04 #@! TD*
G04 #@! TO.P,R12,1*
G04 #@! TO.N,GND*
X173421960Y-103454000D03*
G04 #@! TO.P,R12,2*
G04 #@! TO.N,/Q1*
X171221960Y-103454000D03*
G04 #@! TD*
G04 #@! TO.P,R9,2*
G04 #@! TO.N,TACT1*
X121110000Y-107126000D03*
G04 #@! TO.P,R9,1*
G04 #@! TO.N,+3V3*
X118910000Y-107126000D03*
G04 #@! TD*
G04 #@! TO.P,R1,2*
G04 #@! TO.N,Net-(D1-Pad1)*
X142410000Y-97536000D03*
G04 #@! TO.P,R1,1*
G04 #@! TO.N,LED_B*
X144610000Y-97536000D03*
G04 #@! TD*
G04 #@! TO.P,R2,1*
G04 #@! TO.N,LED_R*
X144610000Y-93980000D03*
G04 #@! TO.P,R2,2*
G04 #@! TO.N,Net-(D1-Pad4)*
X142410000Y-93980000D03*
G04 #@! TD*
G04 #@! TO.P,R13,1*
G04 #@! TO.N,Net-(Q2-Pad1)*
X173421960Y-99898000D03*
G04 #@! TO.P,R13,2*
G04 #@! TO.N,TACT0*
X171221960Y-99898000D03*
G04 #@! TD*
G04 #@! TO.P,R3,2*
G04 #@! TO.N,Net-(D1-Pad2)*
X142410000Y-95758000D03*
G04 #@! TO.P,R3,1*
G04 #@! TO.N,LED_G*
X144610000Y-95758000D03*
G04 #@! TD*
G04 #@! TO.P,R14,2*
G04 #@! TO.N,Net-(Q2-Pad1)*
X173421960Y-98120000D03*
G04 #@! TO.P,R14,1*
G04 #@! TO.N,GND*
X171221960Y-98120000D03*
G04 #@! TD*
D22*
G04 #@! TO.P,U1,20*
G04 #@! TO.N,N/C*
X158758803Y-93275813D03*
G04 #@! TO.P,U1,19*
X156218803Y-93275813D03*
G04 #@! TO.P,U1,18*
X158758803Y-90735813D03*
G04 #@! TO.P,U1,17*
X156218803Y-90735813D03*
D23*
G04 #@! TO.P,U1,16*
X158770000Y-107740000D03*
G04 #@! TO.P,U1,15*
X156220000Y-107740000D03*
D24*
G04 #@! TO.P,U1,1*
G04 #@! TO.N,LED_R*
X149353120Y-91422180D03*
G04 #@! TO.P,U1,2*
G04 #@! TO.N,LED_G*
X149353120Y-93962180D03*
G04 #@! TO.P,U1,3*
G04 #@! TO.N,LED_B*
X149353120Y-96502180D03*
G04 #@! TO.P,U1,4*
G04 #@! TO.N,HEATER*
X149353120Y-99042180D03*
G04 #@! TO.P,U1,5*
G04 #@! TO.N,SDA*
X149353120Y-101582180D03*
G04 #@! TO.P,U1,6*
G04 #@! TO.N,SCL*
X149353120Y-104122180D03*
G04 #@! TO.P,U1,7*
G04 #@! TO.N,AIN_AIR*
X149353120Y-106662180D03*
G04 #@! TO.P,U1,8*
G04 #@! TO.N,AIN_WELL*
X165517680Y-106662180D03*
G04 #@! TO.P,U1,9*
G04 #@! TO.N,TACT0*
X165517680Y-104122180D03*
G04 #@! TO.P,U1,10*
G04 #@! TO.N,TACT1*
X165517680Y-101582180D03*
G04 #@! TO.P,U1,11*
G04 #@! TO.N,TACT2*
X165517680Y-99042180D03*
G04 #@! TO.P,U1,12*
G04 #@! TO.N,+3V3*
X165517680Y-96502180D03*
G04 #@! TO.P,U1,13*
G04 #@! TO.N,GND*
X165517680Y-93962180D03*
G04 #@! TO.P,U1,14*
G04 #@! TO.N,+5V*
X165517680Y-91422180D03*
G04 #@! TD*
D25*
G04 #@! TO.P,EXTRA_Q1,3*
G04 #@! TO.N,GND*
X163762500Y-114557000D03*
G04 #@! TO.P,EXTRA_Q1,2*
G04 #@! TO.N,/Q2*
X161222500Y-114557000D03*
D26*
G04 #@! TO.P,EXTRA_Q1,1*
G04 #@! TO.N,/Q1*
X158682500Y-114557000D03*
G04 #@! TD*
D27*
G04 #@! TO.P,TH1,2*
G04 #@! TO.N,GND*
X133002500Y-115727000D03*
G04 #@! TO.P,TH1,1*
G04 #@! TO.N,AIN_AIR*
X133002500Y-113527000D03*
G04 #@! TD*
D28*
G04 #@! TO.P,SW1,2*
G04 #@! TO.N,GND*
X112020000Y-100040640D03*
G04 #@! TO.P,SW1,1*
G04 #@! TO.N,TACT1*
X112020000Y-105039360D03*
G04 #@! TD*
D21*
G04 #@! TO.P,R6,1*
G04 #@! TO.N,+3V3*
X118910000Y-108904000D03*
G04 #@! TO.P,R6,2*
G04 #@! TO.N,TACT0*
X121110000Y-108904000D03*
G04 #@! TD*
G04 #@! TO.P,R10,2*
G04 #@! TO.N,TACT2*
X121110000Y-105348000D03*
G04 #@! TO.P,R10,1*
G04 #@! TO.N,+3V3*
X118910000Y-105348000D03*
G04 #@! TD*
D28*
G04 #@! TO.P,SW0,1*
G04 #@! TO.N,TACT0*
X112020000Y-111739360D03*
G04 #@! TO.P,SW0,2*
G04 #@! TO.N,GND*
X112020000Y-106740640D03*
G04 #@! TD*
G04 #@! TO.P,SW2,2*
G04 #@! TO.N,GND*
X112020000Y-93340640D03*
G04 #@! TO.P,SW2,1*
G04 #@! TO.N,TACT2*
X112020000Y-98339360D03*
G04 #@! TD*
D29*
G04 #@! TO.P,CR1,8*
G04 #@! TO.N,+3V3*
X123072200Y-96215000D03*
G04 #@! TO.P,CR1,7*
G04 #@! TO.N,N/C*
X123072200Y-97485000D03*
G04 #@! TO.P,CR1,6*
G04 #@! TO.N,SCL*
X123072200Y-98755000D03*
G04 #@! TO.P,CR1,5*
G04 #@! TO.N,SDA*
X123072200Y-100025000D03*
G04 #@! TO.P,CR1,4*
G04 #@! TO.N,GND*
X117712800Y-100025000D03*
G04 #@! TO.P,CR1,3*
X117712800Y-98755000D03*
G04 #@! TO.P,CR1,2*
X117712800Y-97485000D03*
G04 #@! TO.P,CR1,1*
X117712800Y-96215000D03*
G04 #@! TD*
D30*
G04 #@! TO.P,C2,1*
G04 #@! TO.N,Net-(C2-Pad1)*
X191892500Y-107027000D03*
G04 #@! TO.P,C2,2*
G04 #@! TO.N,GND*
X191892500Y-108927000D03*
G04 #@! TD*
G04 #@! TO.P,C3,2*
G04 #@! TO.N,GND*
X193292500Y-108927000D03*
G04 #@! TO.P,C3,1*
G04 #@! TO.N,+5V*
X193292500Y-107027000D03*
G04 #@! TD*
D31*
G04 #@! TO.P,U2,1*
G04 #@! TO.N,Net-(C2-Pad1)*
X188660500Y-104957000D03*
D32*
G04 #@! TO.P,U2,2*
G04 #@! TO.N,GND*
X190946500Y-97631640D03*
D31*
G04 #@! TO.P,U2,3*
G04 #@! TO.N,+5V*
X193232500Y-104957000D03*
G04 #@! TD*
G04 #@! TA.AperFunction,SMDPad,CuDef*
D33*
G04 #@! TO.P,JP1,2*
G04 #@! TO.N,Net-(C2-Pad1)*
G36*
X190642500Y-106552000D02*
G01*
X190642500Y-107702000D01*
X189892500Y-107202000D01*
X189142500Y-107702000D01*
X189142500Y-106552000D01*
X190642500Y-106552000D01*
G37*
G04 #@! TD.AperFunction*
G04 #@! TA.AperFunction,SMDPad,CuDef*
G04 #@! TO.P,JP1,1*
G04 #@! TO.N,+12V*
G36*
X189892500Y-107502000D02*
G01*
X190642500Y-108002000D01*
X190642500Y-109002000D01*
X189142500Y-109002000D01*
X189142500Y-108002000D01*
X189892500Y-107502000D01*
G37*
G04 #@! TD.AperFunction*
G04 #@! TD*
D34*
G04 #@! TO.P,C1,1*
G04 #@! TO.N,+12V*
X176642500Y-110367880D03*
G04 #@! TO.P,C1,2*
G04 #@! TO.N,GND*
X185742500Y-110367880D03*
G04 #@! TD*
D35*
G04 #@! TO.N,*
X163202500Y-96067000D03*
G04 #@! TO.N,GND*
X173467500Y-108216500D03*
X118352500Y-92177000D03*
X118932500Y-88997000D03*
X148722500Y-113277000D03*
X156382500Y-115517000D03*
X128452500Y-88577000D03*
X140582500Y-88537000D03*
X143592500Y-91947000D03*
X143722500Y-89137000D03*
X155182500Y-96017000D03*
X151412500Y-94367000D03*
X148322500Y-89787000D03*
X151582500Y-88847000D03*
X151122500Y-92397000D03*
X154702500Y-88957000D03*
X155212500Y-92027000D03*
X157532500Y-91877000D03*
X157612500Y-89477000D03*
X160192500Y-91997000D03*
X160192500Y-96197000D03*
X163682500Y-92657000D03*
X165172500Y-89737000D03*
X167682500Y-90677000D03*
X161682500Y-89847000D03*
X170372500Y-89087000D03*
X174582500Y-89057000D03*
X177552500Y-89047000D03*
X181922500Y-89227000D03*
X187102500Y-89177000D03*
X192902500Y-93097000D03*
X188892500Y-112447000D03*
X186762500Y-116407000D03*
X185992500Y-112477000D03*
X174352500Y-116627000D03*
X174712500Y-112557000D03*
X179402500Y-116707000D03*
X176852500Y-114777000D03*
X182542500Y-115127000D03*
X178292500Y-107277000D03*
X180212500Y-106167000D03*
X179732500Y-101487000D03*
X176592500Y-101607000D03*
X176462500Y-104917000D03*
X181512500Y-98057000D03*
G04 #@! TO.N,+12V*
X183752500Y-99147000D03*
G04 #@! TO.N,GND*
X156412500Y-112337000D03*
X167402500Y-105457000D03*
X169902500Y-104307000D03*
X123392500Y-94877000D03*
X119492500Y-96977000D03*
X111592500Y-89777000D03*
X111292500Y-95877000D03*
X115192500Y-96377000D03*
X110992500Y-102177000D03*
X115692500Y-99677000D03*
X110892500Y-109177000D03*
X114092500Y-107277000D03*
X115092500Y-104077000D03*
X117792500Y-104077000D03*
X124192500Y-101977000D03*
X126592500Y-100577000D03*
X127592500Y-98477000D03*
X131992500Y-100877000D03*
X130192500Y-103677000D03*
X115492500Y-108977000D03*
X111292500Y-113577000D03*
X113292500Y-116177000D03*
X118292500Y-111877000D03*
X119192500Y-116277000D03*
X121392500Y-110477000D03*
X124492500Y-115677000D03*
X124592500Y-112377000D03*
X128192500Y-115777000D03*
X128192500Y-112477000D03*
X131492500Y-115677000D03*
X131392500Y-112477000D03*
X134792500Y-111877000D03*
X141092500Y-111777000D03*
X138392500Y-111877000D03*
X140492500Y-113777000D03*
X142992500Y-116377000D03*
X139592500Y-116477000D03*
X146192500Y-111977000D03*
X146992500Y-109077000D03*
X149892500Y-109077000D03*
X152392500Y-111577000D03*
X149492500Y-111377000D03*
X148092500Y-116077000D03*
X154292500Y-112877000D03*
X151792500Y-108077000D03*
X154892500Y-107277000D03*
X153992500Y-110077000D03*
X157492500Y-109177000D03*
X160292500Y-107277000D03*
X164692500Y-108377000D03*
X162392500Y-109277000D03*
X160192500Y-110577000D03*
X160492500Y-116377000D03*
X163792500Y-105277000D03*
X158792500Y-105177000D03*
X154892500Y-105277000D03*
X151492500Y-105477000D03*
X151492500Y-103877000D03*
X154592500Y-100877000D03*
X161692500Y-100877000D03*
X157992500Y-100877000D03*
X163192500Y-103077000D03*
X160092500Y-103177000D03*
X156292500Y-103077000D03*
X135892500Y-102177000D03*
X135892500Y-103877000D03*
X138792500Y-103777000D03*
X140792500Y-101877000D03*
X144392500Y-101977000D03*
X145792500Y-103677000D03*
X147292500Y-102077000D03*
X147492500Y-100177000D03*
X147192500Y-98277000D03*
X144392500Y-98677000D03*
X141392500Y-98577000D03*
X138592500Y-98577000D03*
X136592500Y-98977000D03*
X137492500Y-101077000D03*
X139692500Y-100077000D03*
X142792500Y-100577000D03*
X145692500Y-100277000D03*
X133592500Y-107577000D03*
X131792500Y-106577000D03*
X130092500Y-107577000D03*
X127992500Y-106277000D03*
X126592500Y-107677000D03*
X126292500Y-104077000D03*
X120492500Y-103977000D03*
X120192500Y-100177000D03*
X126792500Y-93777000D03*
X126592500Y-96177000D03*
X130992500Y-92977000D03*
X129092500Y-95577000D03*
X131492500Y-97377000D03*
X129292500Y-100777000D03*
X133392500Y-92877000D03*
X121892500Y-92977000D03*
X124192500Y-89077000D03*
X124792500Y-91577000D03*
X127592500Y-90977000D03*
X135992500Y-91577000D03*
X138792500Y-91477000D03*
X141492500Y-92077000D03*
X140192500Y-94877000D03*
X136692500Y-94977000D03*
X133992500Y-96077000D03*
X135792500Y-107577000D03*
X137192500Y-106377000D03*
X138592500Y-107677000D03*
X140992500Y-105377000D03*
X121192500Y-102177000D03*
X186492500Y-97677000D03*
X186592500Y-102177000D03*
X189492500Y-103077000D03*
X193192500Y-101777000D03*
X191992500Y-103177000D03*
X184692500Y-104677000D03*
X187692500Y-107077000D03*
X177092500Y-92777000D03*
X179692500Y-91277000D03*
X185992500Y-91177000D03*
X186892500Y-94677000D03*
G04 #@! TO.N,+3V3*
X118941501Y-104226001D03*
X140492500Y-108277000D03*
G04 #@! TO.N,SDA*
X128492500Y-93077000D03*
G04 #@! TO.N,/Q2*
X170787800Y-108889600D03*
G04 #@! TO.N,HEATER*
X168046550Y-102801050D03*
X151692500Y-98977000D03*
G04 #@! TO.N,TACT0*
X162888630Y-100680870D03*
X122992500Y-108577000D03*
G04 #@! TO.N,TACT1*
X162992500Y-99577000D03*
X122700510Y-106985010D03*
G04 #@! TO.N,TACT2*
X163392500Y-98620290D03*
X123092500Y-105877000D03*
G04 #@! TO.N,+5V*
X190792500Y-104477000D03*
X163192500Y-91077000D03*
G04 #@! TD*
D36*
G04 #@! TO.N,+12V*
X175169300Y-109284160D02*
X176253020Y-110367880D01*
X175169300Y-94665096D02*
X175169300Y-109284160D01*
X172299100Y-91439800D02*
X172299100Y-91794896D01*
D37*
X176253020Y-110367880D02*
X174160920Y-110367880D01*
X172159400Y-115432640D02*
X172149240Y-115442800D01*
X172359410Y-112504349D02*
X172359410Y-111369400D01*
X172149240Y-112714519D02*
X172359410Y-112504349D01*
X172149240Y-115442800D02*
X172149240Y-112714519D01*
X173184479Y-110367880D02*
X172359410Y-111192949D01*
X176253020Y-110367880D02*
X173184479Y-110367880D01*
D36*
X172299100Y-91794896D02*
X175169300Y-94665096D01*
D37*
X182624200Y-106522902D02*
X178779222Y-110367880D01*
X178779222Y-110367880D02*
X176642500Y-110367880D01*
X182624200Y-101574400D02*
X182624200Y-106522902D01*
D36*
X186398379Y-108682879D02*
X189711621Y-108682879D01*
X189711621Y-108682879D02*
X189892500Y-108502000D01*
X184238402Y-106522902D02*
X186398379Y-108682879D01*
X182624200Y-106522902D02*
X184238402Y-106522902D01*
D38*
G04 #@! TO.N,GND*
X165517680Y-93962180D02*
X166640140Y-93962180D01*
D36*
X173475300Y-106900600D02*
X173467500Y-106908400D01*
X173467500Y-106908400D02*
X173467500Y-108216500D01*
X171308500Y-98033460D02*
X171221960Y-98120000D01*
X173421960Y-106862860D02*
X173467500Y-106908400D01*
X173421960Y-103454000D02*
X173421960Y-106862860D01*
X169082199Y-96202300D02*
X168732500Y-96551999D01*
X171308500Y-96202300D02*
X169082199Y-96202300D01*
X171221960Y-96288840D02*
X171308500Y-96202300D01*
X171221960Y-98120000D02*
X171221960Y-96288840D01*
D38*
X133209501Y-115934001D02*
X133002500Y-115727000D01*
X137555999Y-115934001D02*
X133209501Y-115934001D01*
X138860000Y-114630000D02*
X137555999Y-115934001D01*
X132795499Y-115934001D02*
X133002500Y-115727000D01*
X134792500Y-108577000D02*
X135792500Y-107577000D01*
X134792500Y-111877000D02*
X134792500Y-108577000D01*
X134592500Y-108577000D02*
X134792500Y-108577000D01*
X133592500Y-107577000D02*
X134592500Y-108577000D01*
G04 #@! TO.N,+3V3*
X165517680Y-96502180D02*
X166073780Y-97058280D01*
X168025394Y-97887000D02*
X167342500Y-97204106D01*
X168732500Y-97887000D02*
X168025394Y-97887000D01*
X166219606Y-97204106D02*
X165517680Y-96502180D01*
X167342500Y-97204106D02*
X166219606Y-97204106D01*
X118910000Y-105348000D02*
X118910000Y-107126000D01*
X118910000Y-107126000D02*
X118910000Y-108904000D01*
X142410000Y-110998000D02*
X142410000Y-108966000D01*
X142410000Y-108966000D02*
X142410000Y-106934000D01*
X142410000Y-106934000D02*
X142410000Y-104902000D01*
X118941501Y-105316499D02*
X118910000Y-105348000D01*
X123072200Y-96215000D02*
X122470898Y-96215000D01*
X120650699Y-98035199D02*
X118941501Y-99744397D01*
X122470898Y-96215000D02*
X120650699Y-98035199D01*
X132366229Y-92463771D02*
X134790000Y-90040000D01*
X132366229Y-98508009D02*
X132366229Y-92463771D01*
X133520000Y-99661780D02*
X132366229Y-98508009D01*
X118941501Y-104226001D02*
X118941501Y-105316499D01*
X118941501Y-99744397D02*
X118941501Y-104226001D01*
X142410000Y-108966000D02*
X141281500Y-108966000D01*
X140592500Y-108277000D02*
X140492500Y-108277000D01*
X141281500Y-108966000D02*
X140592500Y-108277000D01*
G04 #@! TO.N,SCL*
X149353120Y-104122180D02*
X148937680Y-104122180D01*
X149353120Y-104122180D02*
X148452544Y-104122180D01*
X145640724Y-106934000D02*
X144610000Y-106934000D01*
X148452544Y-104122180D02*
X145640724Y-106934000D01*
X121392500Y-100216602D02*
X121392500Y-99077000D01*
X124372625Y-100758401D02*
X121934299Y-100758401D01*
X121392500Y-99077000D02*
X121714500Y-98755000D01*
X121934299Y-100758401D02*
X121392500Y-100216602D01*
X128721001Y-105106777D02*
X124372625Y-100758401D01*
X139447979Y-105521521D02*
X129135744Y-105521521D01*
X144610000Y-106934000D02*
X143464001Y-105788001D01*
X129135744Y-105521521D02*
X128721001Y-105106777D01*
X141492500Y-103477000D02*
X139447979Y-105521521D01*
X121714500Y-98755000D02*
X123072200Y-98755000D01*
X143464001Y-104088799D02*
X142852202Y-103477000D01*
X142852202Y-103477000D02*
X141492500Y-103477000D01*
X143464001Y-105788001D02*
X143464001Y-104088799D01*
X124354900Y-98755000D02*
X124792500Y-98317400D01*
X123072200Y-98755000D02*
X124354900Y-98755000D01*
X124792500Y-98317400D02*
X124792500Y-92877000D01*
X125692500Y-91977000D02*
X131851723Y-91977000D01*
X124792500Y-92877000D02*
X125692500Y-91977000D01*
X132250000Y-91578723D02*
X132250000Y-90040000D01*
X131851723Y-91977000D02*
X132250000Y-91578723D01*
G04 #@! TO.N,SDA*
X149353120Y-101582180D02*
X149353120Y-101477620D01*
X149353120Y-101472389D02*
X149353120Y-101582180D01*
X149353120Y-101582180D02*
X148897680Y-101582180D01*
X149353120Y-101582180D02*
X147524970Y-103410330D01*
X147524970Y-103410330D02*
X147524970Y-104048478D01*
X146671448Y-104902000D02*
X144610000Y-104902000D01*
X147524970Y-104048478D02*
X146671448Y-104902000D01*
X144610000Y-103694500D02*
X144610000Y-104902000D01*
X141199234Y-102768990D02*
X143684490Y-102768990D01*
X129429011Y-104813511D02*
X139154713Y-104813511D01*
X143684490Y-102768990D02*
X144610000Y-103694500D01*
X124640500Y-100025000D02*
X129429011Y-104813511D01*
X139154713Y-104813511D02*
X141199234Y-102768990D01*
X123072200Y-100025000D02*
X124640500Y-100025000D01*
X124640500Y-100025000D02*
X125547143Y-99118357D01*
X125547143Y-93222357D02*
X126084490Y-92685010D01*
X125547143Y-99118357D02*
X125547143Y-93222357D01*
X128100510Y-92685010D02*
X128492500Y-93077000D01*
X126084490Y-92685010D02*
X128100510Y-92685010D01*
D37*
G04 #@! TO.N,/Q2*
X170787800Y-108343500D02*
X171283100Y-107848200D01*
X170787800Y-108889600D02*
X170787800Y-108343500D01*
X169465878Y-111369400D02*
X169042639Y-111792639D01*
X169619400Y-111369400D02*
X169465878Y-111369400D01*
X162624899Y-112186999D02*
X161222500Y-113589398D01*
X161222500Y-113589398D02*
X161222500Y-114557000D01*
X168801801Y-112186999D02*
X162624899Y-112186999D01*
X169619400Y-111369400D02*
X168801801Y-112186999D01*
D38*
G04 #@! TO.N,TACT2*
X165632500Y-99157000D02*
X165517680Y-99042180D01*
X168732500Y-99157000D02*
X165632500Y-99157000D01*
G04 #@! TO.N,TACT0*
X167942860Y-101697000D02*
X165517680Y-104122180D01*
X168732500Y-101697000D02*
X167942860Y-101697000D01*
X169422960Y-101697000D02*
X168732500Y-101697000D01*
X171221960Y-99898000D02*
X169422960Y-101697000D01*
G04 #@! TO.N,AIN_AIR*
X135217000Y-113527000D02*
X136320000Y-114630000D01*
X133002500Y-113527000D02*
X135217000Y-113527000D01*
X146913820Y-106662180D02*
X144610000Y-108966000D01*
X149353120Y-106662180D02*
X146913820Y-106662180D01*
X143555999Y-110020001D02*
X144610000Y-108966000D01*
X142792500Y-112777000D02*
X143555999Y-112013501D01*
X138173000Y-112777000D02*
X142792500Y-112777000D01*
X143555999Y-112013501D02*
X143555999Y-110020001D01*
X136320000Y-114630000D02*
X138173000Y-112777000D01*
G04 #@! TO.N,AIN_WELL*
X165125490Y-106269990D02*
X165517680Y-106662180D01*
X152175519Y-106269990D02*
X150329829Y-108115680D01*
X165125490Y-106269990D02*
X152175519Y-106269990D01*
X150329829Y-108115680D02*
X146461596Y-108115680D01*
X145664001Y-109943999D02*
X144610000Y-110998000D01*
X145664001Y-108913275D02*
X145664001Y-109943999D01*
X146461596Y-108115680D02*
X145664001Y-108913275D01*
X153292500Y-111078351D02*
X150329829Y-108115680D01*
X153292500Y-114630000D02*
X153292500Y-111078351D01*
G04 #@! TO.N,/Q1*
X170724582Y-105968600D02*
X171283100Y-105968600D01*
X170780000Y-103454000D02*
X170780000Y-105567100D01*
X171181500Y-105968600D02*
X171283100Y-105968600D01*
X170780000Y-105567100D02*
X171181500Y-105968600D01*
X171221960Y-103454000D02*
X171369460Y-103454000D01*
X173147460Y-101676000D02*
X173421960Y-101676000D01*
X171369460Y-103454000D02*
X173147460Y-101676000D01*
X159396780Y-112977000D02*
X159396780Y-113842720D01*
X161910790Y-110462990D02*
X159396780Y-112977000D01*
X169063790Y-109285710D02*
X167886511Y-110462989D01*
X167886511Y-110462989D02*
X161910790Y-110462990D01*
X169063790Y-107629392D02*
X169063790Y-109285710D01*
X159396780Y-113842720D02*
X158682500Y-114557000D01*
X171195309Y-106124191D02*
X170568991Y-106124191D01*
X170568991Y-106124191D02*
X169063790Y-107629392D01*
X171283100Y-106036400D02*
X171195309Y-106124191D01*
X171283100Y-105968600D02*
X171283100Y-106036400D01*
G04 #@! TO.N,HEATER*
X149348200Y-99047100D02*
X149353120Y-99042180D01*
X170096910Y-102801050D02*
X168046550Y-102801050D01*
X171221960Y-101676000D02*
X170096910Y-102801050D01*
X149418300Y-98977000D02*
X149353120Y-99042180D01*
X151692500Y-98977000D02*
X149418300Y-98977000D01*
G04 #@! TO.N,LED_B*
X149353120Y-96502180D02*
X149257320Y-96502180D01*
X149353120Y-96502180D02*
X147467320Y-96502180D01*
X146433500Y-97536000D02*
X144610000Y-97536000D01*
X147467320Y-96502180D02*
X146433500Y-97536000D01*
G04 #@! TO.N,LED_R*
X149353120Y-91422180D02*
X148732820Y-91422180D01*
X149353120Y-91422180D02*
X146798300Y-93977000D01*
X144613000Y-93977000D02*
X144610000Y-93980000D01*
X146798300Y-93977000D02*
X144613000Y-93977000D01*
G04 #@! TO.N,LED_G*
X149353120Y-93962180D02*
X148707320Y-93962180D01*
X146911500Y-95758000D02*
X144610000Y-95758000D01*
X148707320Y-93962180D02*
X146911500Y-95758000D01*
D36*
G04 #@! TO.N,Net-(FAN1-Pad1)*
X169759100Y-93408300D02*
X170368700Y-94017900D01*
X169759100Y-91439800D02*
X169759100Y-93408300D01*
D38*
G04 #@! TO.N,Net-(Q2-Pad1)*
X172980000Y-94749600D02*
X172980000Y-98120000D01*
X172248300Y-94017900D02*
X172980000Y-94749600D01*
X173421960Y-100152000D02*
X173421960Y-98120000D01*
G04 #@! TO.N,Net-(D1-Pad4)*
X134314697Y-97660260D02*
X133520000Y-97660260D01*
X135854976Y-96119980D02*
X134314697Y-97660260D01*
X141292500Y-95785022D02*
X140957542Y-96119980D01*
X141292500Y-95008298D02*
X141292500Y-95785022D01*
X142320798Y-93980000D02*
X141292500Y-95008298D01*
X140957542Y-96119980D02*
X135854976Y-96119980D01*
X142410000Y-93980000D02*
X142320798Y-93980000D01*
G04 #@! TO.N,Net-(D1-Pad2)*
X134892500Y-100285720D02*
X133520000Y-101658220D01*
X136148243Y-96827990D02*
X134892500Y-98083733D01*
X141250808Y-96827990D02*
X136148243Y-96827990D01*
X142320798Y-95758000D02*
X141250808Y-96827990D01*
X134892500Y-98083733D02*
X134892500Y-100285720D01*
X142410000Y-95758000D02*
X142320798Y-95758000D01*
G04 #@! TO.N,Net-(D1-Pad1)*
X136441510Y-97536000D02*
X135600510Y-98377000D01*
X134673771Y-101505725D02*
X134673771Y-102505969D01*
X135600510Y-100578987D02*
X134673771Y-101505725D01*
X134673771Y-102505969D02*
X133520000Y-103659740D01*
X135600510Y-98377000D02*
X135600510Y-100578987D01*
X142410000Y-97536000D02*
X136441510Y-97536000D01*
G04 #@! TO.N,TACT0*
X162888630Y-101493130D02*
X162888630Y-100680870D01*
X165517680Y-104122180D02*
X162888630Y-101493130D01*
X122665500Y-108904000D02*
X121110000Y-108904000D01*
X122992500Y-108577000D02*
X122665500Y-108904000D01*
G04 #@! TO.N,TACT1*
X165517680Y-101582180D02*
X165517680Y-101502180D01*
X166672860Y-100427000D02*
X168732500Y-100427000D01*
X165517680Y-101582180D02*
X166672860Y-100427000D01*
X164997680Y-101582180D02*
X162992500Y-99577000D01*
X165517680Y-101582180D02*
X164997680Y-101582180D01*
X121110000Y-107126000D02*
X122559520Y-107126000D01*
X122559520Y-107126000D02*
X122700510Y-106985010D01*
G04 #@! TO.N,TACT2*
X163814390Y-99042180D02*
X163392500Y-98620290D01*
X165517680Y-99042180D02*
X163814390Y-99042180D01*
X122563500Y-105348000D02*
X121110000Y-105348000D01*
X123092500Y-105877000D02*
X122563500Y-105348000D01*
D36*
G04 #@! TO.N,Net-(C2-Pad1)*
X189507490Y-106666990D02*
X188660500Y-105820000D01*
X190488374Y-106666990D02*
X189507490Y-106666990D01*
X188660500Y-105820000D02*
X188660500Y-104957000D01*
X190848384Y-107027000D02*
X190488374Y-106666990D01*
X191892500Y-107027000D02*
X190848384Y-107027000D01*
G04 #@! TO.N,+5V*
X193362510Y-106418102D02*
X193362510Y-107027000D01*
X193232500Y-106288092D02*
X193362510Y-106418102D01*
X193232500Y-104957000D02*
X193232500Y-106288092D01*
X191272500Y-104957000D02*
X190792500Y-104477000D01*
X193232500Y-104957000D02*
X191272500Y-104957000D01*
X165172500Y-91077000D02*
X165517680Y-91422180D01*
X163192500Y-91077000D02*
X165172500Y-91077000D01*
G04 #@! TD*
D39*
G04 #@! TO.N,GND*
G36*
X193810001Y-93934268D02*
G01*
X193720202Y-93907028D01*
X193595720Y-93894768D01*
X191232250Y-93897840D01*
X191073500Y-94056590D01*
X191073500Y-97504640D01*
X191093500Y-97504640D01*
X191093500Y-97758640D01*
X191073500Y-97758640D01*
X191073500Y-101206690D01*
X191232250Y-101365440D01*
X193595720Y-101368512D01*
X193720202Y-101356252D01*
X193810001Y-101329012D01*
X193810000Y-103500273D01*
X193740500Y-103493428D01*
X192724500Y-103493428D01*
X192600018Y-103505688D01*
X192480320Y-103541998D01*
X192370006Y-103600963D01*
X192273315Y-103680315D01*
X192267829Y-103687000D01*
X191798550Y-103687000D01*
X191646416Y-103534866D01*
X191501487Y-103415926D01*
X191280859Y-103297998D01*
X191041463Y-103225377D01*
X190792500Y-103200857D01*
X190543537Y-103225377D01*
X190304141Y-103297998D01*
X190083513Y-103415926D01*
X189890130Y-103574630D01*
X189731426Y-103768013D01*
X189712828Y-103802807D01*
X189699037Y-103777006D01*
X189619685Y-103680315D01*
X189522994Y-103600963D01*
X189412680Y-103541998D01*
X189292982Y-103505688D01*
X189168500Y-103493428D01*
X188152500Y-103493428D01*
X188028018Y-103505688D01*
X187908320Y-103541998D01*
X187798006Y-103600963D01*
X187701315Y-103680315D01*
X187621963Y-103777006D01*
X187562998Y-103887320D01*
X187526688Y-104007018D01*
X187514428Y-104131500D01*
X187514428Y-104407031D01*
X187481497Y-104468641D01*
X187408877Y-104708037D01*
X187390500Y-104894620D01*
X187390500Y-105757627D01*
X187384357Y-105820000D01*
X187390500Y-105882373D01*
X187390500Y-105882379D01*
X187402823Y-106007495D01*
X187408877Y-106068963D01*
X187425764Y-106124630D01*
X187481497Y-106308358D01*
X187599425Y-106528987D01*
X187758130Y-106722370D01*
X187806591Y-106762141D01*
X188457328Y-107412879D01*
X186924431Y-107412879D01*
X185180543Y-105668993D01*
X185140772Y-105620532D01*
X184947390Y-105461827D01*
X184726761Y-105343899D01*
X184529200Y-105283970D01*
X184529200Y-102940954D01*
X184618380Y-102913902D01*
X184728694Y-102854937D01*
X184825385Y-102775585D01*
X184904737Y-102678894D01*
X184963702Y-102568580D01*
X185000012Y-102448882D01*
X185012272Y-102324400D01*
X185012272Y-100730440D01*
X187659208Y-100730440D01*
X187671468Y-100854922D01*
X187707778Y-100974620D01*
X187766743Y-101084934D01*
X187846095Y-101181625D01*
X187942786Y-101260977D01*
X188053100Y-101319942D01*
X188172798Y-101356252D01*
X188297280Y-101368512D01*
X190660750Y-101365440D01*
X190819500Y-101206690D01*
X190819500Y-97758640D01*
X187821030Y-97758640D01*
X187662280Y-97917390D01*
X187659208Y-100730440D01*
X185012272Y-100730440D01*
X185012272Y-98824400D01*
X185000012Y-98699918D01*
X184963702Y-98580220D01*
X184904737Y-98469906D01*
X184825385Y-98373215D01*
X184728694Y-98293863D01*
X184618380Y-98234898D01*
X184498682Y-98198588D01*
X184374200Y-98186328D01*
X184137818Y-98186328D01*
X184054398Y-98151774D01*
X183854439Y-98112000D01*
X183650561Y-98112000D01*
X183450602Y-98151774D01*
X183367182Y-98186328D01*
X180874200Y-98186328D01*
X180749718Y-98198588D01*
X180630020Y-98234898D01*
X180519706Y-98293863D01*
X180423015Y-98373215D01*
X180343663Y-98469906D01*
X180310609Y-98531745D01*
X180309200Y-97860150D01*
X180150450Y-97701400D01*
X178051200Y-97701400D01*
X178051200Y-99800650D01*
X178209950Y-99959400D01*
X179674200Y-99962472D01*
X179798682Y-99950212D01*
X179918380Y-99913902D01*
X180028694Y-99854937D01*
X180125385Y-99775585D01*
X180204737Y-99678894D01*
X180236128Y-99620167D01*
X180236128Y-102324400D01*
X180248388Y-102448882D01*
X180284698Y-102568580D01*
X180343663Y-102678894D01*
X180423015Y-102775585D01*
X180519706Y-102854937D01*
X180630020Y-102913902D01*
X180719200Y-102940955D01*
X180719201Y-105733825D01*
X177990147Y-108462880D01*
X176548918Y-108462880D01*
X176447760Y-108472843D01*
X176439300Y-108472010D01*
X176439300Y-99961916D01*
X177638450Y-99959400D01*
X177797200Y-99800650D01*
X177797200Y-97701400D01*
X177777200Y-97701400D01*
X177777200Y-97447400D01*
X177797200Y-97447400D01*
X177797200Y-95348150D01*
X178051200Y-95348150D01*
X178051200Y-97447400D01*
X180150450Y-97447400D01*
X180309200Y-97288650D01*
X180311131Y-96368033D01*
X180343663Y-96428894D01*
X180423015Y-96525585D01*
X180519706Y-96604937D01*
X180630020Y-96663902D01*
X180749718Y-96700212D01*
X180874200Y-96712472D01*
X182338450Y-96709400D01*
X182497200Y-96550650D01*
X182497200Y-94701400D01*
X182751200Y-94701400D01*
X182751200Y-96550650D01*
X182909950Y-96709400D01*
X184374200Y-96712472D01*
X184498682Y-96700212D01*
X184618380Y-96663902D01*
X184728694Y-96604937D01*
X184825385Y-96525585D01*
X184904737Y-96428894D01*
X184963702Y-96318580D01*
X185000012Y-96198882D01*
X185012272Y-96074400D01*
X185009200Y-94860150D01*
X184850450Y-94701400D01*
X182751200Y-94701400D01*
X182497200Y-94701400D01*
X180397950Y-94701400D01*
X180239200Y-94860150D01*
X180237502Y-95531205D01*
X180204737Y-95469906D01*
X180125385Y-95373215D01*
X180028694Y-95293863D01*
X179918380Y-95234898D01*
X179798682Y-95198588D01*
X179674200Y-95186328D01*
X178209950Y-95189400D01*
X178051200Y-95348150D01*
X177797200Y-95348150D01*
X177638450Y-95189400D01*
X176439300Y-95186884D01*
X176439300Y-94727476D01*
X176445444Y-94665096D01*
X176432418Y-94532840D01*
X187659208Y-94532840D01*
X187662280Y-97345890D01*
X187821030Y-97504640D01*
X190819500Y-97504640D01*
X190819500Y-94056590D01*
X190660750Y-93897840D01*
X188297280Y-93894768D01*
X188172798Y-93907028D01*
X188053100Y-93943338D01*
X187942786Y-94002303D01*
X187846095Y-94081655D01*
X187766743Y-94178346D01*
X187707778Y-94288660D01*
X187671468Y-94408358D01*
X187659208Y-94532840D01*
X176432418Y-94532840D01*
X176420923Y-94416133D01*
X176348303Y-94176737D01*
X176336296Y-94154274D01*
X176230375Y-93956108D01*
X176146590Y-93854016D01*
X176111435Y-93811179D01*
X176111432Y-93811176D01*
X176071670Y-93762726D01*
X176023221Y-93722965D01*
X175526526Y-93226270D01*
X175751852Y-93105831D01*
X175790150Y-93074400D01*
X180236128Y-93074400D01*
X180239200Y-94288650D01*
X180397950Y-94447400D01*
X182497200Y-94447400D01*
X182497200Y-92598150D01*
X182751200Y-92598150D01*
X182751200Y-94447400D01*
X184850450Y-94447400D01*
X185009200Y-94288650D01*
X185012272Y-93074400D01*
X185000012Y-92949918D01*
X184963702Y-92830220D01*
X184904737Y-92719906D01*
X184825385Y-92623215D01*
X184728694Y-92543863D01*
X184618380Y-92484898D01*
X184498682Y-92448588D01*
X184374200Y-92436328D01*
X182909950Y-92439400D01*
X182751200Y-92598150D01*
X182497200Y-92598150D01*
X182338450Y-92439400D01*
X180874200Y-92436328D01*
X180749718Y-92448588D01*
X180630020Y-92484898D01*
X180519706Y-92543863D01*
X180423015Y-92623215D01*
X180343663Y-92719906D01*
X180284698Y-92830220D01*
X180248388Y-92949918D01*
X180236128Y-93074400D01*
X175790150Y-93074400D01*
X176000814Y-92901514D01*
X176205131Y-92652552D01*
X176356952Y-92368515D01*
X176450443Y-92060315D01*
X176474100Y-91820121D01*
X176474100Y-91059478D01*
X176450443Y-90819284D01*
X176449605Y-90816521D01*
X188750979Y-90816521D01*
X188750979Y-91263479D01*
X188838176Y-91701849D01*
X189009220Y-92114785D01*
X189257536Y-92486417D01*
X189573583Y-92802464D01*
X189945215Y-93050780D01*
X190358151Y-93221824D01*
X190796521Y-93309021D01*
X191243479Y-93309021D01*
X191681849Y-93221824D01*
X192094785Y-93050780D01*
X192466417Y-92802464D01*
X192782464Y-92486417D01*
X193030780Y-92114785D01*
X193201824Y-91701849D01*
X193289021Y-91263479D01*
X193289021Y-90816521D01*
X193201824Y-90378151D01*
X193030780Y-89965215D01*
X192782464Y-89593583D01*
X192466417Y-89277536D01*
X192094785Y-89029220D01*
X191681849Y-88858176D01*
X191243479Y-88770979D01*
X190796521Y-88770979D01*
X190358151Y-88858176D01*
X189945215Y-89029220D01*
X189573583Y-89277536D01*
X189257536Y-89593583D01*
X189009220Y-89965215D01*
X188838176Y-90378151D01*
X188750979Y-90816521D01*
X176449605Y-90816521D01*
X176356952Y-90511085D01*
X176205131Y-90227048D01*
X176000814Y-89978086D01*
X175751851Y-89773769D01*
X175467814Y-89621948D01*
X175159615Y-89528457D01*
X174839100Y-89496889D01*
X174518584Y-89528457D01*
X174210385Y-89621948D01*
X173926348Y-89773769D01*
X173677386Y-89978086D01*
X173569100Y-90110034D01*
X173460814Y-89978086D01*
X173211851Y-89773769D01*
X172927814Y-89621948D01*
X172619615Y-89528457D01*
X172299100Y-89496889D01*
X171978584Y-89528457D01*
X171670385Y-89621948D01*
X171386348Y-89773769D01*
X171314839Y-89832455D01*
X171289637Y-89785306D01*
X171210285Y-89688615D01*
X171113594Y-89609263D01*
X171003280Y-89550298D01*
X170883582Y-89513988D01*
X170759100Y-89501728D01*
X168759100Y-89501728D01*
X168634618Y-89513988D01*
X168514920Y-89550298D01*
X168404606Y-89609263D01*
X168307915Y-89688615D01*
X168228563Y-89785306D01*
X168169598Y-89895620D01*
X168133288Y-90015318D01*
X168121028Y-90139800D01*
X168121028Y-92739800D01*
X168133288Y-92864282D01*
X168169598Y-92983980D01*
X168228563Y-93094294D01*
X168307915Y-93190985D01*
X168404606Y-93270337D01*
X168489101Y-93315501D01*
X168489101Y-93345918D01*
X168482957Y-93408300D01*
X168507477Y-93657263D01*
X168567162Y-93854016D01*
X168580098Y-93896659D01*
X168698026Y-94117288D01*
X168856731Y-94310670D01*
X168905187Y-94350437D01*
X169514785Y-94960035D01*
X169523847Y-94967472D01*
X169558763Y-95032794D01*
X169638115Y-95129485D01*
X169734806Y-95208837D01*
X169845120Y-95267802D01*
X169964818Y-95304112D01*
X170089300Y-95316372D01*
X170433791Y-95316372D01*
X170402888Y-95419451D01*
X170391031Y-95543972D01*
X170394100Y-95916550D01*
X170552850Y-96075300D01*
X171181500Y-96075300D01*
X171181500Y-95065650D01*
X171165118Y-95049268D01*
X171178637Y-95032794D01*
X171213552Y-94967473D01*
X171271070Y-94920270D01*
X171349673Y-94824491D01*
X171379398Y-94922480D01*
X171438363Y-95032794D01*
X171451882Y-95049268D01*
X171435500Y-95065650D01*
X171435500Y-96075300D01*
X171455500Y-96075300D01*
X171455500Y-96329300D01*
X171435500Y-96329300D01*
X171435500Y-97107210D01*
X171348960Y-97193750D01*
X171348960Y-97993000D01*
X171368960Y-97993000D01*
X171368960Y-98247000D01*
X171348960Y-98247000D01*
X171348960Y-98267000D01*
X171094960Y-98267000D01*
X171094960Y-98247000D01*
X170145710Y-98247000D01*
X169986960Y-98405750D01*
X169983888Y-98570000D01*
X169996148Y-98694482D01*
X170032458Y-98814180D01*
X170091423Y-98924494D01*
X170160775Y-99009000D01*
X170091423Y-99093506D01*
X170032458Y-99203820D01*
X169996148Y-99323518D01*
X169983888Y-99448000D01*
X169983888Y-99878836D01*
X169807161Y-100055563D01*
X169738324Y-99889376D01*
X169673259Y-99792000D01*
X169738324Y-99694624D01*
X169823883Y-99488067D01*
X169867500Y-99268788D01*
X169867500Y-99045212D01*
X169823883Y-98825933D01*
X169738324Y-98619376D01*
X169673259Y-98522000D01*
X169738324Y-98424624D01*
X169823883Y-98218067D01*
X169867500Y-97998788D01*
X169867500Y-97775212D01*
X169846573Y-97670000D01*
X169983888Y-97670000D01*
X169986960Y-97834250D01*
X170145710Y-97993000D01*
X171094960Y-97993000D01*
X171094960Y-97425490D01*
X171181500Y-97338950D01*
X171181500Y-96329300D01*
X170552850Y-96329300D01*
X170394100Y-96488050D01*
X170391031Y-96860628D01*
X170402888Y-96985149D01*
X170426998Y-97065568D01*
X170377780Y-97080498D01*
X170267466Y-97139463D01*
X170170775Y-97218815D01*
X170091423Y-97315506D01*
X170032458Y-97425820D01*
X169996148Y-97545518D01*
X169983888Y-97670000D01*
X169846573Y-97670000D01*
X169823883Y-97555933D01*
X169738324Y-97349376D01*
X169670147Y-97247342D01*
X169719623Y-97177206D01*
X169809946Y-96973864D01*
X169826619Y-96918874D01*
X169700454Y-96744000D01*
X168859500Y-96744000D01*
X168859500Y-96755026D01*
X168844288Y-96752000D01*
X168620712Y-96752000D01*
X168605500Y-96755026D01*
X168605500Y-96744000D01*
X168585500Y-96744000D01*
X168585500Y-96490000D01*
X168605500Y-96490000D01*
X168605500Y-95647871D01*
X168859500Y-95647871D01*
X168859500Y-96490000D01*
X169700454Y-96490000D01*
X169826619Y-96315126D01*
X169809946Y-96260136D01*
X169719623Y-96056794D01*
X169591365Y-95874980D01*
X169430101Y-95721682D01*
X169242029Y-95602790D01*
X169034376Y-95522874D01*
X168859500Y-95647871D01*
X168605500Y-95647871D01*
X168430624Y-95522874D01*
X168222971Y-95602790D01*
X168034899Y-95721682D01*
X167873635Y-95874980D01*
X167745377Y-96056794D01*
X167655054Y-96260136D01*
X167638381Y-96315126D01*
X167684313Y-96378792D01*
X167517594Y-96328219D01*
X167503170Y-96181764D01*
X167409708Y-95873661D01*
X167257934Y-95589713D01*
X167053681Y-95340829D01*
X166923425Y-95233931D01*
X167137892Y-95028136D01*
X167321917Y-94764657D01*
X167451003Y-94470339D01*
X167481949Y-94342534D01*
X167362595Y-94089180D01*
X165644680Y-94089180D01*
X165644680Y-94109180D01*
X165390680Y-94109180D01*
X165390680Y-94089180D01*
X163672765Y-94089180D01*
X163553411Y-94342534D01*
X163584357Y-94470339D01*
X163713443Y-94764657D01*
X163897468Y-95028136D01*
X164111935Y-95233931D01*
X163981679Y-95340829D01*
X163962910Y-95363699D01*
X163862274Y-95263063D01*
X163692756Y-95149795D01*
X163504398Y-95071774D01*
X163304439Y-95032000D01*
X163100561Y-95032000D01*
X162900602Y-95071774D01*
X162712244Y-95149795D01*
X162542726Y-95263063D01*
X162398563Y-95407226D01*
X162285295Y-95576744D01*
X162207274Y-95765102D01*
X162167500Y-95965061D01*
X162167500Y-96168939D01*
X162207274Y-96368898D01*
X162285295Y-96557256D01*
X162398563Y-96726774D01*
X162542726Y-96870937D01*
X162712244Y-96984205D01*
X162900602Y-97062226D01*
X163100561Y-97102000D01*
X163304439Y-97102000D01*
X163504398Y-97062226D01*
X163593665Y-97025250D01*
X163625652Y-97130699D01*
X163777426Y-97414647D01*
X163981679Y-97663531D01*
X164114069Y-97772180D01*
X164055866Y-97819945D01*
X164052274Y-97816353D01*
X163882756Y-97703085D01*
X163694398Y-97625064D01*
X163494439Y-97585290D01*
X163290561Y-97585290D01*
X163090602Y-97625064D01*
X162902244Y-97703085D01*
X162732726Y-97816353D01*
X162588563Y-97960516D01*
X162475295Y-98130034D01*
X162397274Y-98318392D01*
X162357500Y-98518351D01*
X162357500Y-98722229D01*
X162363519Y-98752488D01*
X162332726Y-98773063D01*
X162188563Y-98917226D01*
X162075295Y-99086744D01*
X161997274Y-99275102D01*
X161957500Y-99475061D01*
X161957500Y-99678939D01*
X161997274Y-99878898D01*
X162067088Y-100047443D01*
X161971425Y-100190614D01*
X161893404Y-100378972D01*
X161853630Y-100578931D01*
X161853630Y-100782809D01*
X161893404Y-100982768D01*
X161971425Y-101171126D01*
X161999630Y-101213338D01*
X161999630Y-101449470D01*
X161995330Y-101493130D01*
X161999630Y-101536790D01*
X161999630Y-101536796D01*
X162005666Y-101598075D01*
X162012494Y-101667404D01*
X162021472Y-101697000D01*
X162063327Y-101834980D01*
X162145877Y-101989420D01*
X162256971Y-102124789D01*
X162290894Y-102152629D01*
X163627837Y-103489573D01*
X163625652Y-103493661D01*
X163532190Y-103801764D01*
X163500632Y-104122180D01*
X163532190Y-104442596D01*
X163625652Y-104750699D01*
X163777426Y-105034647D01*
X163981679Y-105283531D01*
X164100434Y-105380990D01*
X152219179Y-105380990D01*
X152175519Y-105376690D01*
X152131859Y-105380990D01*
X152131852Y-105380990D01*
X152017844Y-105392219D01*
X152001244Y-105393854D01*
X151930325Y-105415367D01*
X151833668Y-105444687D01*
X151679228Y-105527237D01*
X151543860Y-105638331D01*
X151516025Y-105672248D01*
X151213612Y-105974661D01*
X151093374Y-105749713D01*
X150889121Y-105500829D01*
X150756731Y-105392180D01*
X150889121Y-105283531D01*
X151093374Y-105034647D01*
X151245148Y-104750699D01*
X151338610Y-104442596D01*
X151370168Y-104122180D01*
X151338610Y-103801764D01*
X151245148Y-103493661D01*
X151093374Y-103209713D01*
X150889121Y-102960829D01*
X150756731Y-102852180D01*
X150889121Y-102743531D01*
X151093374Y-102494647D01*
X151245148Y-102210699D01*
X151338610Y-101902596D01*
X151370168Y-101582180D01*
X151338610Y-101261764D01*
X151245148Y-100953661D01*
X151093374Y-100669713D01*
X150889121Y-100420829D01*
X150756731Y-100312180D01*
X150889121Y-100203531D01*
X151093374Y-99954647D01*
X151140757Y-99866000D01*
X151160032Y-99866000D01*
X151202244Y-99894205D01*
X151390602Y-99972226D01*
X151590561Y-100012000D01*
X151794439Y-100012000D01*
X151994398Y-99972226D01*
X152182756Y-99894205D01*
X152352274Y-99780937D01*
X152496437Y-99636774D01*
X152609705Y-99467256D01*
X152687726Y-99278898D01*
X152727500Y-99078939D01*
X152727500Y-98875061D01*
X152687726Y-98675102D01*
X152609705Y-98486744D01*
X152496437Y-98317226D01*
X152352274Y-98173063D01*
X152182756Y-98059795D01*
X151994398Y-97981774D01*
X151794439Y-97942000D01*
X151590561Y-97942000D01*
X151390602Y-97981774D01*
X151202244Y-98059795D01*
X151160032Y-98088000D01*
X151059141Y-98088000D01*
X150889121Y-97880829D01*
X150756731Y-97772180D01*
X150889121Y-97663531D01*
X151093374Y-97414647D01*
X151245148Y-97130699D01*
X151338610Y-96822596D01*
X151370168Y-96502180D01*
X151338610Y-96181764D01*
X151245148Y-95873661D01*
X151093374Y-95589713D01*
X150889121Y-95340829D01*
X150756731Y-95232180D01*
X150889121Y-95123531D01*
X151093374Y-94874647D01*
X151245148Y-94590699D01*
X151338610Y-94282596D01*
X151370168Y-93962180D01*
X151338610Y-93641764D01*
X151245148Y-93333661D01*
X151150712Y-93156983D01*
X155012303Y-93156983D01*
X155012303Y-93394643D01*
X155058668Y-93627736D01*
X155149616Y-93847305D01*
X155281653Y-94044912D01*
X155449704Y-94212963D01*
X155647311Y-94345000D01*
X155866880Y-94435948D01*
X156099973Y-94482313D01*
X156337633Y-94482313D01*
X156570726Y-94435948D01*
X156662181Y-94398066D01*
X156576651Y-94483596D01*
X156448136Y-94675932D01*
X156359613Y-94889644D01*
X156314485Y-95116520D01*
X156314485Y-95347840D01*
X156359613Y-95574716D01*
X156448136Y-95788428D01*
X156576651Y-95980764D01*
X156740219Y-96144332D01*
X156932555Y-96272847D01*
X157146267Y-96361370D01*
X157373143Y-96406498D01*
X157604463Y-96406498D01*
X157831339Y-96361370D01*
X158045051Y-96272847D01*
X158237387Y-96144332D01*
X158400955Y-95980764D01*
X158529470Y-95788428D01*
X158617993Y-95574716D01*
X158663121Y-95347840D01*
X158663121Y-95116520D01*
X158617993Y-94889644D01*
X158529470Y-94675932D01*
X158400955Y-94483596D01*
X158315425Y-94398066D01*
X158406880Y-94435948D01*
X158639973Y-94482313D01*
X158877633Y-94482313D01*
X159110726Y-94435948D01*
X159330295Y-94345000D01*
X159527902Y-94212963D01*
X159695953Y-94044912D01*
X159827990Y-93847305D01*
X159918938Y-93627736D01*
X159965303Y-93394643D01*
X159965303Y-93156983D01*
X159918938Y-92923890D01*
X159827990Y-92704321D01*
X159695953Y-92506714D01*
X159527902Y-92338663D01*
X159330295Y-92206626D01*
X159110726Y-92115678D01*
X158877633Y-92069313D01*
X158639973Y-92069313D01*
X158406880Y-92115678D01*
X158187311Y-92206626D01*
X157989704Y-92338663D01*
X157821653Y-92506714D01*
X157689616Y-92704321D01*
X157598668Y-92923890D01*
X157552303Y-93156983D01*
X157552303Y-93394643D01*
X157598668Y-93627736D01*
X157689616Y-93847305D01*
X157821653Y-94044912D01*
X157913950Y-94137209D01*
X157831339Y-94102990D01*
X157604463Y-94057862D01*
X157373143Y-94057862D01*
X157146267Y-94102990D01*
X157063656Y-94137209D01*
X157155953Y-94044912D01*
X157287990Y-93847305D01*
X157378938Y-93627736D01*
X157425303Y-93394643D01*
X157425303Y-93156983D01*
X157378938Y-92923890D01*
X157287990Y-92704321D01*
X157155953Y-92506714D01*
X156987902Y-92338663D01*
X156790295Y-92206626D01*
X156570726Y-92115678D01*
X156337633Y-92069313D01*
X156099973Y-92069313D01*
X155866880Y-92115678D01*
X155647311Y-92206626D01*
X155449704Y-92338663D01*
X155281653Y-92506714D01*
X155149616Y-92704321D01*
X155058668Y-92923890D01*
X155012303Y-93156983D01*
X151150712Y-93156983D01*
X151093374Y-93049713D01*
X150889121Y-92800829D01*
X150756731Y-92692180D01*
X150889121Y-92583531D01*
X151093374Y-92334647D01*
X151245148Y-92050699D01*
X151338610Y-91742596D01*
X151370168Y-91422180D01*
X151338610Y-91101764D01*
X151245148Y-90793661D01*
X151150712Y-90616983D01*
X155012303Y-90616983D01*
X155012303Y-90854643D01*
X155058668Y-91087736D01*
X155149616Y-91307305D01*
X155281653Y-91504912D01*
X155449704Y-91672963D01*
X155647311Y-91805000D01*
X155866880Y-91895948D01*
X156099973Y-91942313D01*
X156337633Y-91942313D01*
X156570726Y-91895948D01*
X156790295Y-91805000D01*
X156987902Y-91672963D01*
X157155953Y-91504912D01*
X157287990Y-91307305D01*
X157378938Y-91087736D01*
X157425303Y-90854643D01*
X157425303Y-90616983D01*
X157552303Y-90616983D01*
X157552303Y-90854643D01*
X157598668Y-91087736D01*
X157689616Y-91307305D01*
X157821653Y-91504912D01*
X157989704Y-91672963D01*
X158187311Y-91805000D01*
X158406880Y-91895948D01*
X158639973Y-91942313D01*
X158877633Y-91942313D01*
X159110726Y-91895948D01*
X159330295Y-91805000D01*
X159527902Y-91672963D01*
X159695953Y-91504912D01*
X159827990Y-91307305D01*
X159918938Y-91087736D01*
X159921073Y-91077000D01*
X161916356Y-91077000D01*
X161940877Y-91325963D01*
X162013497Y-91565359D01*
X162131425Y-91785988D01*
X162290130Y-91979370D01*
X162483512Y-92138075D01*
X162704141Y-92256003D01*
X162943537Y-92328623D01*
X163130120Y-92347000D01*
X163787564Y-92347000D01*
X163981679Y-92583531D01*
X164111935Y-92690429D01*
X163897468Y-92896224D01*
X163713443Y-93159703D01*
X163584357Y-93454021D01*
X163553411Y-93581826D01*
X163672765Y-93835180D01*
X165390680Y-93835180D01*
X165390680Y-93815180D01*
X165644680Y-93815180D01*
X165644680Y-93835180D01*
X167362595Y-93835180D01*
X167481949Y-93581826D01*
X167451003Y-93454021D01*
X167321917Y-93159703D01*
X167137892Y-92896224D01*
X166923425Y-92690429D01*
X167053681Y-92583531D01*
X167257934Y-92334647D01*
X167409708Y-92050699D01*
X167503170Y-91742596D01*
X167534728Y-91422180D01*
X167503170Y-91101764D01*
X167409708Y-90793661D01*
X167257934Y-90509713D01*
X167053681Y-90260829D01*
X166804797Y-90056576D01*
X166520849Y-89904802D01*
X166212746Y-89811340D01*
X165972622Y-89787690D01*
X165062738Y-89787690D01*
X164866679Y-89807000D01*
X163130120Y-89807000D01*
X162943537Y-89825377D01*
X162704141Y-89897997D01*
X162483512Y-90015925D01*
X162290130Y-90174630D01*
X162131425Y-90368012D01*
X162013497Y-90588641D01*
X161940877Y-90828037D01*
X161916356Y-91077000D01*
X159921073Y-91077000D01*
X159965303Y-90854643D01*
X159965303Y-90616983D01*
X159918938Y-90383890D01*
X159827990Y-90164321D01*
X159695953Y-89966714D01*
X159527902Y-89798663D01*
X159330295Y-89666626D01*
X159110726Y-89575678D01*
X158877633Y-89529313D01*
X158639973Y-89529313D01*
X158406880Y-89575678D01*
X158187311Y-89666626D01*
X157989704Y-89798663D01*
X157821653Y-89966714D01*
X157689616Y-90164321D01*
X157598668Y-90383890D01*
X157552303Y-90616983D01*
X157425303Y-90616983D01*
X157378938Y-90383890D01*
X157287990Y-90164321D01*
X157155953Y-89966714D01*
X156987902Y-89798663D01*
X156790295Y-89666626D01*
X156570726Y-89575678D01*
X156337633Y-89529313D01*
X156099973Y-89529313D01*
X155866880Y-89575678D01*
X155647311Y-89666626D01*
X155449704Y-89798663D01*
X155281653Y-89966714D01*
X155149616Y-90164321D01*
X155058668Y-90383890D01*
X155012303Y-90616983D01*
X151150712Y-90616983D01*
X151093374Y-90509713D01*
X150889121Y-90260829D01*
X150640237Y-90056576D01*
X150356289Y-89904802D01*
X150048186Y-89811340D01*
X149808062Y-89787690D01*
X148898178Y-89787690D01*
X148658054Y-89811340D01*
X148349951Y-89904802D01*
X148066003Y-90056576D01*
X147817119Y-90260829D01*
X147612866Y-90509713D01*
X147461092Y-90793661D01*
X147367630Y-91101764D01*
X147336072Y-91422180D01*
X147367630Y-91742596D01*
X147461092Y-92050699D01*
X147463277Y-92054787D01*
X146430065Y-93088000D01*
X145668723Y-93088000D01*
X145661185Y-93078815D01*
X145564494Y-92999463D01*
X145454180Y-92940498D01*
X145334482Y-92904188D01*
X145210000Y-92891928D01*
X144010000Y-92891928D01*
X143885518Y-92904188D01*
X143765820Y-92940498D01*
X143655506Y-92999463D01*
X143558815Y-93078815D01*
X143510000Y-93138296D01*
X143461185Y-93078815D01*
X143364494Y-92999463D01*
X143254180Y-92940498D01*
X143134482Y-92904188D01*
X143010000Y-92891928D01*
X141810000Y-92891928D01*
X141685518Y-92904188D01*
X141565820Y-92940498D01*
X141455506Y-92999463D01*
X141358815Y-93078815D01*
X141279463Y-93175506D01*
X141220498Y-93285820D01*
X141184188Y-93405518D01*
X141171928Y-93530000D01*
X141171928Y-93871635D01*
X140694764Y-94348799D01*
X140660841Y-94376639D01*
X140549747Y-94512008D01*
X140467197Y-94666448D01*
X140441974Y-94749599D01*
X140425077Y-94805303D01*
X140416364Y-94834025D01*
X140403500Y-94964632D01*
X140403500Y-94964638D01*
X140399200Y-95008298D01*
X140403500Y-95051958D01*
X140403500Y-95230980D01*
X135898635Y-95230980D01*
X135854975Y-95226680D01*
X135811315Y-95230980D01*
X135811309Y-95230980D01*
X135713900Y-95240574D01*
X135680700Y-95243844D01*
X135596048Y-95269523D01*
X135513125Y-95294677D01*
X135358685Y-95377227D01*
X135223317Y-95488321D01*
X135195481Y-95522239D01*
X134205043Y-96512678D01*
X134152251Y-96477403D01*
X133909338Y-96376785D01*
X133651463Y-96325490D01*
X133388537Y-96325490D01*
X133255229Y-96352007D01*
X133255229Y-92832006D01*
X134434587Y-91652649D01*
X134627391Y-91691000D01*
X134952609Y-91691000D01*
X135271579Y-91627553D01*
X135572042Y-91503097D01*
X135842451Y-91322415D01*
X136068831Y-91096035D01*
X136119358Y-91162569D01*
X136361623Y-91377184D01*
X136641102Y-91540411D01*
X136947055Y-91645978D01*
X137203000Y-91527362D01*
X137203000Y-90167000D01*
X137457000Y-90167000D01*
X137457000Y-91527362D01*
X137712945Y-91645978D01*
X138018898Y-91540411D01*
X138298377Y-91377184D01*
X138540642Y-91162569D01*
X138736382Y-90904815D01*
X138878076Y-90613826D01*
X138935975Y-90422944D01*
X138915505Y-90378967D01*
X143635000Y-90378967D01*
X143635000Y-90701033D01*
X143697832Y-91016912D01*
X143821082Y-91314463D01*
X144000013Y-91582252D01*
X144227748Y-91809987D01*
X144495537Y-91988918D01*
X144793088Y-92112168D01*
X145108967Y-92175000D01*
X145431033Y-92175000D01*
X145746912Y-92112168D01*
X146044463Y-91988918D01*
X146312252Y-91809987D01*
X146539987Y-91582252D01*
X146718918Y-91314463D01*
X146842168Y-91016912D01*
X146905000Y-90701033D01*
X146905000Y-90378967D01*
X146842168Y-90063088D01*
X146718918Y-89765537D01*
X146539987Y-89497748D01*
X146312252Y-89270013D01*
X146044463Y-89091082D01*
X145746912Y-88967832D01*
X145431033Y-88905000D01*
X145108967Y-88905000D01*
X144793088Y-88967832D01*
X144495537Y-89091082D01*
X144227748Y-89270013D01*
X144000013Y-89497748D01*
X143821082Y-89765537D01*
X143697832Y-90063088D01*
X143635000Y-90378967D01*
X138915505Y-90378967D01*
X138816836Y-90167000D01*
X137457000Y-90167000D01*
X137203000Y-90167000D01*
X137183000Y-90167000D01*
X137183000Y-89913000D01*
X137203000Y-89913000D01*
X137203000Y-88552638D01*
X137457000Y-88552638D01*
X137457000Y-89913000D01*
X138816836Y-89913000D01*
X138935975Y-89657056D01*
X138878076Y-89466174D01*
X138736382Y-89175185D01*
X138540642Y-88917431D01*
X138298377Y-88702816D01*
X138018898Y-88539589D01*
X137712945Y-88434022D01*
X137457000Y-88552638D01*
X137203000Y-88552638D01*
X136947055Y-88434022D01*
X136641102Y-88539589D01*
X136361623Y-88702816D01*
X136119358Y-88917431D01*
X136068831Y-88983965D01*
X135842451Y-88757585D01*
X135572042Y-88576903D01*
X135271579Y-88452447D01*
X134952609Y-88389000D01*
X134627391Y-88389000D01*
X134308421Y-88452447D01*
X134007958Y-88576903D01*
X133737549Y-88757585D01*
X133520000Y-88975134D01*
X133302451Y-88757585D01*
X133032042Y-88576903D01*
X132731579Y-88452447D01*
X132412609Y-88389000D01*
X132087391Y-88389000D01*
X131768421Y-88452447D01*
X131467958Y-88576903D01*
X131197549Y-88757585D01*
X130980000Y-88975134D01*
X130762451Y-88757585D01*
X130492042Y-88576903D01*
X130191579Y-88452447D01*
X129872609Y-88389000D01*
X129547391Y-88389000D01*
X129228421Y-88452447D01*
X128927958Y-88576903D01*
X128657549Y-88757585D01*
X128427585Y-88987549D01*
X128246903Y-89257958D01*
X128122447Y-89558421D01*
X128059000Y-89877391D01*
X128059000Y-90202609D01*
X128122447Y-90521579D01*
X128246903Y-90822042D01*
X128424611Y-91088000D01*
X125736159Y-91088000D01*
X125692499Y-91083700D01*
X125648839Y-91088000D01*
X125648833Y-91088000D01*
X125551424Y-91097594D01*
X125518224Y-91100864D01*
X125416558Y-91131704D01*
X125350649Y-91151697D01*
X125196209Y-91234247D01*
X125060841Y-91345341D01*
X125033005Y-91379259D01*
X124194759Y-92217506D01*
X124160842Y-92245341D01*
X124133007Y-92279258D01*
X124133005Y-92279260D01*
X124049748Y-92380709D01*
X123967198Y-92535148D01*
X123916364Y-92702726D01*
X123899200Y-92877000D01*
X123903501Y-92920670D01*
X123903501Y-95303102D01*
X123846900Y-95297528D01*
X122297500Y-95297528D01*
X122173018Y-95309788D01*
X122053320Y-95346098D01*
X121943006Y-95405063D01*
X121846315Y-95484415D01*
X121766963Y-95581106D01*
X121707998Y-95691420D01*
X121695264Y-95733398D01*
X120052963Y-97375700D01*
X120052958Y-97375704D01*
X119105068Y-98323595D01*
X119076289Y-98229708D01*
X119017239Y-98120000D01*
X119076289Y-98010292D01*
X119112947Y-97890700D01*
X119122500Y-97770750D01*
X118963750Y-97612000D01*
X117839800Y-97612000D01*
X117839800Y-98628000D01*
X117859800Y-98628000D01*
X117859800Y-98882000D01*
X117839800Y-98882000D01*
X117839800Y-99898000D01*
X117859800Y-99898000D01*
X117859800Y-100152000D01*
X117839800Y-100152000D01*
X117839800Y-100780650D01*
X117998550Y-100939400D01*
X118052501Y-100939740D01*
X118052502Y-103693532D01*
X118024296Y-103735745D01*
X117946275Y-103924103D01*
X117906501Y-104124062D01*
X117906501Y-104327940D01*
X117920136Y-104396490D01*
X117858815Y-104446815D01*
X117779463Y-104543506D01*
X117720498Y-104653820D01*
X117684188Y-104773518D01*
X117671928Y-104898000D01*
X117671928Y-105798000D01*
X117684188Y-105922482D01*
X117720498Y-106042180D01*
X117779463Y-106152494D01*
X117848815Y-106237000D01*
X117779463Y-106321506D01*
X117720498Y-106431820D01*
X117684188Y-106551518D01*
X117671928Y-106676000D01*
X117671928Y-107576000D01*
X117684188Y-107700482D01*
X117720498Y-107820180D01*
X117779463Y-107930494D01*
X117848815Y-108015000D01*
X117779463Y-108099506D01*
X117720498Y-108209820D01*
X117684188Y-108329518D01*
X117671928Y-108454000D01*
X117671928Y-109354000D01*
X117684188Y-109478482D01*
X117720498Y-109598180D01*
X117779463Y-109708494D01*
X117858815Y-109805185D01*
X117955506Y-109884537D01*
X118065820Y-109943502D01*
X118185518Y-109979812D01*
X118310000Y-109992072D01*
X119510000Y-109992072D01*
X119634482Y-109979812D01*
X119754180Y-109943502D01*
X119864494Y-109884537D01*
X119961185Y-109805185D01*
X120010000Y-109745704D01*
X120058815Y-109805185D01*
X120155506Y-109884537D01*
X120265820Y-109943502D01*
X120385518Y-109979812D01*
X120510000Y-109992072D01*
X121710000Y-109992072D01*
X121834482Y-109979812D01*
X121954180Y-109943502D01*
X122064494Y-109884537D01*
X122161185Y-109805185D01*
X122171185Y-109793000D01*
X122621840Y-109793000D01*
X122665500Y-109797300D01*
X122709160Y-109793000D01*
X122709167Y-109793000D01*
X122839774Y-109780136D01*
X123007351Y-109729303D01*
X123161791Y-109646753D01*
X123239231Y-109583199D01*
X123294398Y-109572226D01*
X123482756Y-109494205D01*
X123652274Y-109380937D01*
X123796437Y-109236774D01*
X123909705Y-109067256D01*
X123987726Y-108878898D01*
X124027500Y-108678939D01*
X124027500Y-108475061D01*
X123987726Y-108275102D01*
X123909705Y-108086744D01*
X123796437Y-107917226D01*
X123652274Y-107773063D01*
X123486760Y-107662471D01*
X123504447Y-107644784D01*
X123617715Y-107475266D01*
X123695736Y-107286908D01*
X123735510Y-107086949D01*
X123735510Y-106883071D01*
X123701987Y-106714538D01*
X123752274Y-106680937D01*
X123896437Y-106536774D01*
X124009705Y-106367256D01*
X124087726Y-106178898D01*
X124127500Y-105978939D01*
X124127500Y-105775061D01*
X124087726Y-105575102D01*
X124009705Y-105386744D01*
X123896437Y-105217226D01*
X123752274Y-105073063D01*
X123582756Y-104959795D01*
X123394398Y-104881774D01*
X123344605Y-104871870D01*
X123222999Y-104750264D01*
X123195159Y-104716341D01*
X123059791Y-104605247D01*
X122905351Y-104522697D01*
X122737774Y-104471864D01*
X122607167Y-104459000D01*
X122607160Y-104459000D01*
X122563500Y-104454700D01*
X122519840Y-104459000D01*
X122171185Y-104459000D01*
X122161185Y-104446815D01*
X122064494Y-104367463D01*
X121954180Y-104308498D01*
X121834482Y-104272188D01*
X121710000Y-104259928D01*
X120510000Y-104259928D01*
X120385518Y-104272188D01*
X120265820Y-104308498D01*
X120155506Y-104367463D01*
X120058815Y-104446815D01*
X120010000Y-104506296D01*
X119961185Y-104446815D01*
X119954024Y-104440938D01*
X119976501Y-104327940D01*
X119976501Y-104124062D01*
X119936727Y-103924103D01*
X119858706Y-103735745D01*
X119830501Y-103693533D01*
X119830501Y-100112632D01*
X120503501Y-99439633D01*
X120503500Y-100172941D01*
X120499200Y-100216602D01*
X120503500Y-100260262D01*
X120503500Y-100260268D01*
X120512141Y-100348000D01*
X120516364Y-100390876D01*
X120536399Y-100456924D01*
X120567197Y-100558452D01*
X120649747Y-100712892D01*
X120760841Y-100848261D01*
X120794764Y-100876101D01*
X121274800Y-101356137D01*
X121302640Y-101390060D01*
X121438008Y-101501154D01*
X121592448Y-101583704D01*
X121639824Y-101598075D01*
X121760023Y-101634537D01*
X121793223Y-101637807D01*
X121890632Y-101647401D01*
X121890638Y-101647401D01*
X121934298Y-101651701D01*
X121977958Y-101647401D01*
X124004390Y-101647401D01*
X128123260Y-105766271D01*
X128123264Y-105766274D01*
X128476244Y-106119256D01*
X128504085Y-106153180D01*
X128639453Y-106264274D01*
X128746526Y-106321506D01*
X128793890Y-106346823D01*
X128961468Y-106397657D01*
X128994668Y-106400927D01*
X129092077Y-106410521D01*
X129092083Y-106410521D01*
X129135743Y-106414821D01*
X129179403Y-106410521D01*
X139404319Y-106410521D01*
X139447979Y-106414821D01*
X139491639Y-106410521D01*
X139491646Y-106410521D01*
X139622253Y-106397657D01*
X139789830Y-106346824D01*
X139944270Y-106264274D01*
X140079638Y-106153180D01*
X140107478Y-106119257D01*
X141171928Y-105054807D01*
X141171928Y-105352000D01*
X141184188Y-105476482D01*
X141220498Y-105596180D01*
X141279463Y-105706494D01*
X141358815Y-105803185D01*
X141455506Y-105882537D01*
X141521001Y-105917545D01*
X141521000Y-105918455D01*
X141455506Y-105953463D01*
X141358815Y-106032815D01*
X141279463Y-106129506D01*
X141220498Y-106239820D01*
X141184188Y-106359518D01*
X141171928Y-106484000D01*
X141171928Y-107384000D01*
X141183805Y-107504594D01*
X141152274Y-107473063D01*
X140982756Y-107359795D01*
X140794398Y-107281774D01*
X140594439Y-107242000D01*
X140390561Y-107242000D01*
X140190602Y-107281774D01*
X140002244Y-107359795D01*
X139832726Y-107473063D01*
X139688563Y-107617226D01*
X139575295Y-107786744D01*
X139497274Y-107975102D01*
X139457500Y-108175061D01*
X139457500Y-108378939D01*
X139497274Y-108578898D01*
X139575295Y-108767256D01*
X139688563Y-108936774D01*
X139832726Y-109080937D01*
X140002244Y-109194205D01*
X140190602Y-109272226D01*
X140365225Y-109306960D01*
X140622005Y-109563741D01*
X140649841Y-109597659D01*
X140683758Y-109625494D01*
X140683759Y-109625495D01*
X140686279Y-109627563D01*
X140785209Y-109708753D01*
X140939649Y-109791303D01*
X140985413Y-109805185D01*
X141107224Y-109842136D01*
X141140424Y-109845406D01*
X141237833Y-109855000D01*
X141237839Y-109855000D01*
X141281499Y-109859300D01*
X141325159Y-109855000D01*
X141348815Y-109855000D01*
X141358815Y-109867185D01*
X141455506Y-109946537D01*
X141521001Y-109981545D01*
X141521000Y-109982455D01*
X141455506Y-110017463D01*
X141358815Y-110096815D01*
X141279463Y-110193506D01*
X141220498Y-110303820D01*
X141184188Y-110423518D01*
X141171928Y-110548000D01*
X141171928Y-111448000D01*
X141184188Y-111572482D01*
X141220498Y-111692180D01*
X141279463Y-111802494D01*
X141349636Y-111888000D01*
X138216660Y-111888000D01*
X138173000Y-111883700D01*
X138129340Y-111888000D01*
X138129333Y-111888000D01*
X138015773Y-111899185D01*
X137998725Y-111900864D01*
X137947892Y-111916284D01*
X137831149Y-111951697D01*
X137676709Y-112034247D01*
X137676707Y-112034248D01*
X137676708Y-112034248D01*
X137584642Y-112109805D01*
X137541341Y-112145341D01*
X137513506Y-112179258D01*
X136550837Y-113141928D01*
X136089163Y-113141928D01*
X135876499Y-112929264D01*
X135848659Y-112895341D01*
X135713291Y-112784247D01*
X135558851Y-112701697D01*
X135391274Y-112650864D01*
X135260667Y-112638000D01*
X135260660Y-112638000D01*
X135217000Y-112633700D01*
X135173340Y-112638000D01*
X134018045Y-112638000D01*
X133983037Y-112572506D01*
X133903685Y-112475815D01*
X133806994Y-112396463D01*
X133696680Y-112337498D01*
X133576982Y-112301188D01*
X133452500Y-112288928D01*
X132552500Y-112288928D01*
X132428018Y-112301188D01*
X132308320Y-112337498D01*
X132198006Y-112396463D01*
X132101315Y-112475815D01*
X132021963Y-112572506D01*
X131962998Y-112682820D01*
X131926688Y-112802518D01*
X131914428Y-112927000D01*
X131914428Y-114127000D01*
X131926688Y-114251482D01*
X131962998Y-114371180D01*
X132021963Y-114481494D01*
X132101315Y-114578185D01*
X132160796Y-114627000D01*
X132101315Y-114675815D01*
X132021963Y-114772506D01*
X131962998Y-114882820D01*
X131926688Y-115002518D01*
X131914428Y-115127000D01*
X131917500Y-115441250D01*
X132076250Y-115600000D01*
X132875500Y-115600000D01*
X132875500Y-115580000D01*
X133129500Y-115580000D01*
X133129500Y-115600000D01*
X133928750Y-115600000D01*
X134087500Y-115441250D01*
X134090572Y-115127000D01*
X134078312Y-115002518D01*
X134042002Y-114882820D01*
X133983037Y-114772506D01*
X133903685Y-114675815D01*
X133844204Y-114627000D01*
X133903685Y-114578185D01*
X133983037Y-114481494D01*
X134018045Y-114416000D01*
X134831928Y-114416000D01*
X134831928Y-115480000D01*
X134844188Y-115604482D01*
X134880498Y-115724180D01*
X134939463Y-115834494D01*
X135018815Y-115931185D01*
X135115506Y-116010537D01*
X135225820Y-116069502D01*
X135345518Y-116105812D01*
X135470000Y-116118072D01*
X137170000Y-116118072D01*
X137294482Y-116105812D01*
X137414180Y-116069502D01*
X137524494Y-116010537D01*
X137621185Y-115931185D01*
X137700537Y-115834494D01*
X137759502Y-115724180D01*
X137783966Y-115643534D01*
X137859731Y-115727588D01*
X138093080Y-115901641D01*
X138355901Y-116026825D01*
X138503110Y-116071476D01*
X138733000Y-115950155D01*
X138733000Y-114757000D01*
X138987000Y-114757000D01*
X138987000Y-115950155D01*
X139216890Y-116071476D01*
X139364099Y-116026825D01*
X139626920Y-115901641D01*
X139860269Y-115727588D01*
X140055178Y-115511355D01*
X140204157Y-115261252D01*
X140301481Y-114986891D01*
X140180814Y-114757000D01*
X138987000Y-114757000D01*
X138733000Y-114757000D01*
X138713000Y-114757000D01*
X138713000Y-114503000D01*
X138733000Y-114503000D01*
X138733000Y-114483000D01*
X138987000Y-114483000D01*
X138987000Y-114503000D01*
X140180814Y-114503000D01*
X140301481Y-114273109D01*
X140268087Y-114178967D01*
X143635000Y-114178967D01*
X143635000Y-114501033D01*
X143697832Y-114816912D01*
X143821082Y-115114463D01*
X144000013Y-115382252D01*
X144227748Y-115609987D01*
X144495537Y-115788918D01*
X144793088Y-115912168D01*
X145108967Y-115975000D01*
X145431033Y-115975000D01*
X145746912Y-115912168D01*
X146044463Y-115788918D01*
X146312252Y-115609987D01*
X146539987Y-115382252D01*
X146718918Y-115114463D01*
X146771760Y-114986891D01*
X149311019Y-114986891D01*
X149408343Y-115261252D01*
X149557322Y-115511355D01*
X149752231Y-115727588D01*
X149985580Y-115901641D01*
X150248401Y-116026825D01*
X150395610Y-116071476D01*
X150625500Y-115950155D01*
X150625500Y-114757000D01*
X149431686Y-114757000D01*
X149311019Y-114986891D01*
X146771760Y-114986891D01*
X146842168Y-114816912D01*
X146905000Y-114501033D01*
X146905000Y-114273109D01*
X149311019Y-114273109D01*
X149431686Y-114503000D01*
X150625500Y-114503000D01*
X150625500Y-113309845D01*
X150395610Y-113188524D01*
X150248401Y-113233175D01*
X149985580Y-113358359D01*
X149752231Y-113532412D01*
X149557322Y-113748645D01*
X149408343Y-113998748D01*
X149311019Y-114273109D01*
X146905000Y-114273109D01*
X146905000Y-114178967D01*
X146842168Y-113863088D01*
X146718918Y-113565537D01*
X146539987Y-113297748D01*
X146312252Y-113070013D01*
X146044463Y-112891082D01*
X145746912Y-112767832D01*
X145431033Y-112705000D01*
X145108967Y-112705000D01*
X144793088Y-112767832D01*
X144495537Y-112891082D01*
X144227748Y-113070013D01*
X144000013Y-113297748D01*
X143821082Y-113565537D01*
X143697832Y-113863088D01*
X143635000Y-114178967D01*
X140268087Y-114178967D01*
X140204157Y-113998748D01*
X140055178Y-113748645D01*
X139980683Y-113666000D01*
X142748840Y-113666000D01*
X142792500Y-113670300D01*
X142836160Y-113666000D01*
X142836167Y-113666000D01*
X142966774Y-113653136D01*
X143134351Y-113602303D01*
X143288791Y-113519753D01*
X143424159Y-113408659D01*
X143451999Y-113374737D01*
X144153741Y-112672994D01*
X144187658Y-112645160D01*
X144219666Y-112606159D01*
X144298751Y-112509793D01*
X144298752Y-112509792D01*
X144381302Y-112355352D01*
X144432135Y-112187775D01*
X144432212Y-112186999D01*
X144436314Y-112145341D01*
X144442152Y-112086072D01*
X145210000Y-112086072D01*
X145334482Y-112073812D01*
X145454180Y-112037502D01*
X145564494Y-111978537D01*
X145661185Y-111899185D01*
X145740537Y-111802494D01*
X145799502Y-111692180D01*
X145835812Y-111572482D01*
X145848072Y-111448000D01*
X145848072Y-111017164D01*
X146261742Y-110603494D01*
X146295660Y-110575658D01*
X146406754Y-110440290D01*
X146489304Y-110285850D01*
X146534130Y-110138076D01*
X146540137Y-110118274D01*
X146557302Y-109943999D01*
X146553001Y-109900331D01*
X146553001Y-109281510D01*
X146829832Y-109004680D01*
X149961594Y-109004680D01*
X152403501Y-111446588D01*
X152403500Y-113145769D01*
X152318018Y-113154188D01*
X152198320Y-113190498D01*
X152088006Y-113249463D01*
X151991315Y-113328815D01*
X151911963Y-113425506D01*
X151852998Y-113535820D01*
X151828534Y-113616466D01*
X151752769Y-113532412D01*
X151519420Y-113358359D01*
X151256599Y-113233175D01*
X151109390Y-113188524D01*
X150879500Y-113309845D01*
X150879500Y-114503000D01*
X150899500Y-114503000D01*
X150899500Y-114757000D01*
X150879500Y-114757000D01*
X150879500Y-115950155D01*
X151109390Y-116071476D01*
X151256599Y-116026825D01*
X151519420Y-115901641D01*
X151752769Y-115727588D01*
X151828534Y-115643534D01*
X151852998Y-115724180D01*
X151911963Y-115834494D01*
X151991315Y-115931185D01*
X152088006Y-116010537D01*
X152198320Y-116069502D01*
X152318018Y-116105812D01*
X152442500Y-116118072D01*
X154142500Y-116118072D01*
X154266982Y-116105812D01*
X154386680Y-116069502D01*
X154496994Y-116010537D01*
X154593685Y-115931185D01*
X154673037Y-115834494D01*
X154732002Y-115724180D01*
X154768312Y-115604482D01*
X154780572Y-115480000D01*
X154780572Y-113780000D01*
X154768312Y-113655518D01*
X154732002Y-113535820D01*
X154673037Y-113425506D01*
X154593685Y-113328815D01*
X154496994Y-113249463D01*
X154386680Y-113190498D01*
X154266982Y-113154188D01*
X154181500Y-113145769D01*
X154181500Y-111122019D01*
X154185801Y-111078351D01*
X154168636Y-110904076D01*
X154143173Y-110820135D01*
X154117803Y-110736500D01*
X154035253Y-110582060D01*
X153924159Y-110446692D01*
X153890242Y-110418857D01*
X151587064Y-108115680D01*
X152543755Y-107158990D01*
X155078661Y-107158990D01*
X155077000Y-107175855D01*
X155077000Y-108304146D01*
X155093539Y-108472067D01*
X155158897Y-108687523D01*
X155265033Y-108886089D01*
X155407868Y-109060133D01*
X155581912Y-109202968D01*
X155780478Y-109309103D01*
X155995934Y-109374461D01*
X156220000Y-109396530D01*
X156444067Y-109374461D01*
X156659523Y-109309103D01*
X156858089Y-109202968D01*
X157032133Y-109060133D01*
X157174968Y-108886089D01*
X157281103Y-108687523D01*
X157346461Y-108472067D01*
X157363000Y-108304146D01*
X157363000Y-107175854D01*
X157361339Y-107158990D01*
X157628661Y-107158990D01*
X157627000Y-107175855D01*
X157627000Y-108304146D01*
X157643539Y-108472067D01*
X157708897Y-108687523D01*
X157815033Y-108886089D01*
X157957868Y-109060133D01*
X158131912Y-109202968D01*
X158330478Y-109309103D01*
X158545934Y-109374461D01*
X158770000Y-109396530D01*
X158994067Y-109374461D01*
X159209523Y-109309103D01*
X159408089Y-109202968D01*
X159582133Y-109060133D01*
X159724968Y-108886089D01*
X159831103Y-108687523D01*
X159896461Y-108472067D01*
X159913000Y-108304146D01*
X159913000Y-107175854D01*
X159911339Y-107158990D01*
X163585699Y-107158990D01*
X163625652Y-107290699D01*
X163777426Y-107574647D01*
X163981679Y-107823531D01*
X164230563Y-108027784D01*
X164514511Y-108179558D01*
X164822614Y-108273020D01*
X165062738Y-108296670D01*
X165972622Y-108296670D01*
X166212746Y-108273020D01*
X166520849Y-108179558D01*
X166804797Y-108027784D01*
X167053681Y-107823531D01*
X167257934Y-107574647D01*
X167409708Y-107290699D01*
X167503170Y-106982596D01*
X167534728Y-106662180D01*
X167503170Y-106341764D01*
X167409708Y-106033661D01*
X167257934Y-105749713D01*
X167053681Y-105500829D01*
X166921291Y-105392180D01*
X167053681Y-105283531D01*
X167257934Y-105034647D01*
X167409708Y-104750699D01*
X167503170Y-104442596D01*
X167534728Y-104122180D01*
X167503170Y-103801764D01*
X167457893Y-103652506D01*
X167556294Y-103718255D01*
X167744652Y-103796276D01*
X167944611Y-103836050D01*
X168148489Y-103836050D01*
X168348448Y-103796276D01*
X168536806Y-103718255D01*
X168579018Y-103690050D01*
X169891000Y-103690050D01*
X169891001Y-105523430D01*
X169888651Y-105547296D01*
X168466054Y-106969893D01*
X168432131Y-106997733D01*
X168321037Y-107133102D01*
X168262830Y-107242000D01*
X168244737Y-107275850D01*
X168238487Y-107287542D01*
X168227732Y-107322997D01*
X168188692Y-107451698D01*
X168187654Y-107455119D01*
X168174790Y-107585726D01*
X168174790Y-107585732D01*
X168170490Y-107629392D01*
X168174790Y-107673052D01*
X168174791Y-108917473D01*
X167518276Y-109573989D01*
X161954459Y-109573991D01*
X161910789Y-109569690D01*
X161736515Y-109586854D01*
X161568937Y-109637688D01*
X161414498Y-109720238D01*
X161313049Y-109803495D01*
X161313043Y-109803501D01*
X161279131Y-109831332D01*
X161251300Y-109865244D01*
X158799044Y-112317501D01*
X158765121Y-112345341D01*
X158654027Y-112480710D01*
X158571477Y-112635150D01*
X158560728Y-112670585D01*
X158522281Y-112797332D01*
X158520644Y-112802727D01*
X158507780Y-112933334D01*
X158507780Y-112933340D01*
X158503480Y-112977000D01*
X158507609Y-113018928D01*
X157782500Y-113018928D01*
X157658018Y-113031188D01*
X157538320Y-113067498D01*
X157428006Y-113126463D01*
X157331315Y-113205815D01*
X157251963Y-113302506D01*
X157192998Y-113412820D01*
X157156688Y-113532518D01*
X157144428Y-113657000D01*
X157144428Y-115457000D01*
X157156688Y-115581482D01*
X157192998Y-115701180D01*
X157251963Y-115811494D01*
X157331315Y-115908185D01*
X157428006Y-115987537D01*
X157538320Y-116046502D01*
X157658018Y-116082812D01*
X157782500Y-116095072D01*
X159582500Y-116095072D01*
X159706982Y-116082812D01*
X159826680Y-116046502D01*
X159936994Y-115987537D01*
X159949870Y-115976970D01*
X160159019Y-116148613D01*
X160489962Y-116325506D01*
X160849056Y-116434436D01*
X161222500Y-116471217D01*
X161595945Y-116434436D01*
X161955039Y-116325506D01*
X162285982Y-116148613D01*
X162576056Y-115910556D01*
X162748908Y-115699934D01*
X162854927Y-115794962D01*
X163113880Y-115948234D01*
X163397759Y-116048041D01*
X163635500Y-115927992D01*
X163635500Y-114684000D01*
X163889500Y-114684000D01*
X163889500Y-115927992D01*
X164127241Y-116048041D01*
X164411120Y-115948234D01*
X164670073Y-115794962D01*
X164894149Y-115594116D01*
X165074736Y-115353414D01*
X165204894Y-115082107D01*
X165253536Y-114921740D01*
X165132878Y-114684000D01*
X163889500Y-114684000D01*
X163635500Y-114684000D01*
X163615500Y-114684000D01*
X163615500Y-114430000D01*
X163635500Y-114430000D01*
X163635500Y-114410000D01*
X163889500Y-114410000D01*
X163889500Y-114430000D01*
X165132878Y-114430000D01*
X165253536Y-114192260D01*
X165223125Y-114091999D01*
X168708221Y-114091999D01*
X168801801Y-114101216D01*
X168895381Y-114091999D01*
X168895383Y-114091999D01*
X169019346Y-114079790D01*
X168905829Y-114126810D01*
X168662608Y-114289325D01*
X168455765Y-114496168D01*
X168293250Y-114739389D01*
X168181308Y-115009642D01*
X168124240Y-115296540D01*
X168124240Y-115589060D01*
X168181308Y-115875958D01*
X168293250Y-116146211D01*
X168455765Y-116389432D01*
X168662608Y-116596275D01*
X168905829Y-116758790D01*
X169077746Y-116830000D01*
X133840548Y-116830000D01*
X133903685Y-116778185D01*
X133983037Y-116681494D01*
X134042002Y-116571180D01*
X134078312Y-116451482D01*
X134090572Y-116327000D01*
X134087500Y-116012750D01*
X133928750Y-115854000D01*
X133129500Y-115854000D01*
X133129500Y-115874000D01*
X132875500Y-115874000D01*
X132875500Y-115854000D01*
X132076250Y-115854000D01*
X131917500Y-116012750D01*
X131914428Y-116327000D01*
X131926688Y-116451482D01*
X131962998Y-116571180D01*
X132021963Y-116681494D01*
X132101315Y-116778185D01*
X132164452Y-116830000D01*
X110730000Y-116830000D01*
X110730000Y-113816521D01*
X113750979Y-113816521D01*
X113750979Y-114263479D01*
X113838176Y-114701849D01*
X114009220Y-115114785D01*
X114257536Y-115486417D01*
X114573583Y-115802464D01*
X114945215Y-116050780D01*
X115358151Y-116221824D01*
X115796521Y-116309021D01*
X116243479Y-116309021D01*
X116681849Y-116221824D01*
X117094785Y-116050780D01*
X117466417Y-115802464D01*
X117782464Y-115486417D01*
X118030780Y-115114785D01*
X118201824Y-114701849D01*
X118289021Y-114263479D01*
X118289021Y-114178967D01*
X120135000Y-114178967D01*
X120135000Y-114501033D01*
X120197832Y-114816912D01*
X120321082Y-115114463D01*
X120500013Y-115382252D01*
X120727748Y-115609987D01*
X120995537Y-115788918D01*
X121293088Y-115912168D01*
X121608967Y-115975000D01*
X121931033Y-115975000D01*
X122246912Y-115912168D01*
X122544463Y-115788918D01*
X122812252Y-115609987D01*
X123039987Y-115382252D01*
X123218918Y-115114463D01*
X123342168Y-114816912D01*
X123405000Y-114501033D01*
X123405000Y-114178967D01*
X123342168Y-113863088D01*
X123218918Y-113565537D01*
X123039987Y-113297748D01*
X122812252Y-113070013D01*
X122544463Y-112891082D01*
X122246912Y-112767832D01*
X121931033Y-112705000D01*
X121608967Y-112705000D01*
X121293088Y-112767832D01*
X120995537Y-112891082D01*
X120727748Y-113070013D01*
X120500013Y-113297748D01*
X120321082Y-113565537D01*
X120197832Y-113863088D01*
X120135000Y-114178967D01*
X118289021Y-114178967D01*
X118289021Y-113816521D01*
X118201824Y-113378151D01*
X118030780Y-112965215D01*
X117782464Y-112593583D01*
X117466417Y-112277536D01*
X117094785Y-112029220D01*
X116681849Y-111858176D01*
X116243479Y-111770979D01*
X115796521Y-111770979D01*
X115358151Y-111858176D01*
X114945215Y-112029220D01*
X114573583Y-112277536D01*
X114257536Y-112593583D01*
X114009220Y-112965215D01*
X113838176Y-113378151D01*
X113750979Y-113816521D01*
X110730000Y-113816521D01*
X110730000Y-111614276D01*
X110750000Y-111614276D01*
X110750000Y-111864444D01*
X110798805Y-112109805D01*
X110894541Y-112340931D01*
X111033527Y-112548938D01*
X111210422Y-112725833D01*
X111418429Y-112864819D01*
X111649555Y-112960555D01*
X111894916Y-113009360D01*
X112145084Y-113009360D01*
X112390445Y-112960555D01*
X112621571Y-112864819D01*
X112829578Y-112725833D01*
X113006473Y-112548938D01*
X113145459Y-112340931D01*
X113241195Y-112109805D01*
X113290000Y-111864444D01*
X113290000Y-111614276D01*
X113241195Y-111368915D01*
X113145459Y-111137789D01*
X113006473Y-110929782D01*
X112829578Y-110752887D01*
X112621571Y-110613901D01*
X112390445Y-110518165D01*
X112145084Y-110469360D01*
X111894916Y-110469360D01*
X111649555Y-110518165D01*
X111418429Y-110613901D01*
X111210422Y-110752887D01*
X111033527Y-110929782D01*
X110894541Y-111137789D01*
X110798805Y-111368915D01*
X110750000Y-111614276D01*
X110730000Y-111614276D01*
X110730000Y-107615440D01*
X111324805Y-107615440D01*
X111376369Y-107842586D01*
X111603716Y-107946979D01*
X111847059Y-108005013D01*
X112097049Y-108014458D01*
X112344078Y-107974950D01*
X112578653Y-107888009D01*
X112663631Y-107842586D01*
X112715195Y-107615440D01*
X112020000Y-106920245D01*
X111324805Y-107615440D01*
X110730000Y-107615440D01*
X110730000Y-106817689D01*
X110746182Y-106817689D01*
X110785690Y-107064718D01*
X110872631Y-107299293D01*
X110918054Y-107384271D01*
X111145200Y-107435835D01*
X111840395Y-106740640D01*
X111826253Y-106726498D01*
X112005858Y-106546893D01*
X112020000Y-106561035D01*
X112034143Y-106546893D01*
X112213748Y-106726498D01*
X112199605Y-106740640D01*
X112894800Y-107435835D01*
X113121946Y-107384271D01*
X113226339Y-107156924D01*
X113284373Y-106913581D01*
X113293818Y-106663591D01*
X113254310Y-106416562D01*
X113167369Y-106181987D01*
X113121946Y-106097009D01*
X112894802Y-106045446D01*
X113011740Y-105928508D01*
X112969322Y-105886090D01*
X113006473Y-105848938D01*
X113145459Y-105640931D01*
X113241195Y-105409805D01*
X113290000Y-105164444D01*
X113290000Y-104914276D01*
X113241195Y-104668915D01*
X113145459Y-104437789D01*
X113006473Y-104229782D01*
X112829578Y-104052887D01*
X112621571Y-103913901D01*
X112390445Y-103818165D01*
X112145084Y-103769360D01*
X111894916Y-103769360D01*
X111649555Y-103818165D01*
X111418429Y-103913901D01*
X111210422Y-104052887D01*
X111033527Y-104229782D01*
X110894541Y-104437789D01*
X110798805Y-104668915D01*
X110750000Y-104914276D01*
X110750000Y-105164444D01*
X110798805Y-105409805D01*
X110894541Y-105640931D01*
X111033527Y-105848938D01*
X111070679Y-105886090D01*
X111028260Y-105928508D01*
X111145198Y-106045446D01*
X110918054Y-106097009D01*
X110813661Y-106324356D01*
X110755627Y-106567699D01*
X110746182Y-106817689D01*
X110730000Y-106817689D01*
X110730000Y-100915440D01*
X111324805Y-100915440D01*
X111376369Y-101142586D01*
X111603716Y-101246979D01*
X111847059Y-101305013D01*
X112097049Y-101314458D01*
X112344078Y-101274950D01*
X112578653Y-101188009D01*
X112663631Y-101142586D01*
X112715195Y-100915440D01*
X112020000Y-100220245D01*
X111324805Y-100915440D01*
X110730000Y-100915440D01*
X110730000Y-100117689D01*
X110746182Y-100117689D01*
X110785690Y-100364718D01*
X110872631Y-100599293D01*
X110918054Y-100684271D01*
X111145200Y-100735835D01*
X111840395Y-100040640D01*
X111826253Y-100026498D01*
X112005858Y-99846893D01*
X112020000Y-99861035D01*
X112034143Y-99846893D01*
X112213748Y-100026498D01*
X112199605Y-100040640D01*
X112894800Y-100735835D01*
X113121946Y-100684271D01*
X113226339Y-100456924D01*
X113261199Y-100310750D01*
X116303100Y-100310750D01*
X116312653Y-100430700D01*
X116349311Y-100550292D01*
X116408595Y-100660435D01*
X116488228Y-100756895D01*
X116585150Y-100835966D01*
X116695635Y-100894609D01*
X116815438Y-100930571D01*
X116939955Y-100942469D01*
X117427050Y-100939400D01*
X117585800Y-100780650D01*
X117585800Y-100152000D01*
X116461850Y-100152000D01*
X116303100Y-100310750D01*
X113261199Y-100310750D01*
X113284373Y-100213581D01*
X113293818Y-99963591D01*
X113254310Y-99716562D01*
X113167369Y-99481987D01*
X113121946Y-99397009D01*
X112894802Y-99345446D01*
X113011740Y-99228508D01*
X112969322Y-99186090D01*
X113006473Y-99148938D01*
X113078761Y-99040750D01*
X116303100Y-99040750D01*
X116312653Y-99160700D01*
X116349311Y-99280292D01*
X116408361Y-99390000D01*
X116349311Y-99499708D01*
X116312653Y-99619300D01*
X116303100Y-99739250D01*
X116461850Y-99898000D01*
X117585800Y-99898000D01*
X117585800Y-98882000D01*
X116461850Y-98882000D01*
X116303100Y-99040750D01*
X113078761Y-99040750D01*
X113145459Y-98940931D01*
X113241195Y-98709805D01*
X113290000Y-98464444D01*
X113290000Y-98214276D01*
X113241195Y-97968915D01*
X113159112Y-97770750D01*
X116303100Y-97770750D01*
X116312653Y-97890700D01*
X116349311Y-98010292D01*
X116408361Y-98120000D01*
X116349311Y-98229708D01*
X116312653Y-98349300D01*
X116303100Y-98469250D01*
X116461850Y-98628000D01*
X117585800Y-98628000D01*
X117585800Y-97612000D01*
X116461850Y-97612000D01*
X116303100Y-97770750D01*
X113159112Y-97770750D01*
X113145459Y-97737789D01*
X113006473Y-97529782D01*
X112829578Y-97352887D01*
X112621571Y-97213901D01*
X112390445Y-97118165D01*
X112145084Y-97069360D01*
X111894916Y-97069360D01*
X111649555Y-97118165D01*
X111418429Y-97213901D01*
X111210422Y-97352887D01*
X111033527Y-97529782D01*
X110894541Y-97737789D01*
X110798805Y-97968915D01*
X110750000Y-98214276D01*
X110750000Y-98464444D01*
X110798805Y-98709805D01*
X110894541Y-98940931D01*
X111033527Y-99148938D01*
X111070679Y-99186090D01*
X111028260Y-99228508D01*
X111145198Y-99345446D01*
X110918054Y-99397009D01*
X110813661Y-99624356D01*
X110755627Y-99867699D01*
X110746182Y-100117689D01*
X110730000Y-100117689D01*
X110730000Y-96500750D01*
X116303100Y-96500750D01*
X116312653Y-96620700D01*
X116349311Y-96740292D01*
X116408361Y-96850000D01*
X116349311Y-96959708D01*
X116312653Y-97079300D01*
X116303100Y-97199250D01*
X116461850Y-97358000D01*
X117585800Y-97358000D01*
X117585800Y-96342000D01*
X117839800Y-96342000D01*
X117839800Y-97358000D01*
X118963750Y-97358000D01*
X119122500Y-97199250D01*
X119112947Y-97079300D01*
X119076289Y-96959708D01*
X119017239Y-96850000D01*
X119076289Y-96740292D01*
X119112947Y-96620700D01*
X119122500Y-96500750D01*
X118963750Y-96342000D01*
X117839800Y-96342000D01*
X117585800Y-96342000D01*
X116461850Y-96342000D01*
X116303100Y-96500750D01*
X110730000Y-96500750D01*
X110730000Y-95929250D01*
X116303100Y-95929250D01*
X116461850Y-96088000D01*
X117585800Y-96088000D01*
X117585800Y-95459350D01*
X117839800Y-95459350D01*
X117839800Y-96088000D01*
X118963750Y-96088000D01*
X119122500Y-95929250D01*
X119112947Y-95809300D01*
X119076289Y-95689708D01*
X119017005Y-95579565D01*
X118937372Y-95483105D01*
X118840450Y-95404034D01*
X118729965Y-95345391D01*
X118610162Y-95309429D01*
X118485645Y-95297531D01*
X117998550Y-95300600D01*
X117839800Y-95459350D01*
X117585800Y-95459350D01*
X117427050Y-95300600D01*
X116939955Y-95297531D01*
X116815438Y-95309429D01*
X116695635Y-95345391D01*
X116585150Y-95404034D01*
X116488228Y-95483105D01*
X116408595Y-95579565D01*
X116349311Y-95689708D01*
X116312653Y-95809300D01*
X116303100Y-95929250D01*
X110730000Y-95929250D01*
X110730000Y-94215440D01*
X111324805Y-94215440D01*
X111376369Y-94442586D01*
X111603716Y-94546979D01*
X111847059Y-94605013D01*
X112097049Y-94614458D01*
X112344078Y-94574950D01*
X112578653Y-94488009D01*
X112663631Y-94442586D01*
X112715195Y-94215440D01*
X112020000Y-93520245D01*
X111324805Y-94215440D01*
X110730000Y-94215440D01*
X110730000Y-93417689D01*
X110746182Y-93417689D01*
X110785690Y-93664718D01*
X110872631Y-93899293D01*
X110918054Y-93984271D01*
X111145200Y-94035835D01*
X111840395Y-93340640D01*
X112199605Y-93340640D01*
X112894800Y-94035835D01*
X113121946Y-93984271D01*
X113226339Y-93756924D01*
X113284373Y-93513581D01*
X113293818Y-93263591D01*
X113254310Y-93016562D01*
X113167369Y-92781987D01*
X113121946Y-92697009D01*
X112894800Y-92645445D01*
X112199605Y-93340640D01*
X111840395Y-93340640D01*
X111145200Y-92645445D01*
X110918054Y-92697009D01*
X110813661Y-92924356D01*
X110755627Y-93167699D01*
X110746182Y-93417689D01*
X110730000Y-93417689D01*
X110730000Y-92465840D01*
X111324805Y-92465840D01*
X112020000Y-93161035D01*
X112715195Y-92465840D01*
X112663631Y-92238694D01*
X112436284Y-92134301D01*
X112192941Y-92076267D01*
X111942951Y-92066822D01*
X111695922Y-92106330D01*
X111461347Y-92193271D01*
X111376369Y-92238694D01*
X111324805Y-92465840D01*
X110730000Y-92465840D01*
X110730000Y-90816521D01*
X113750979Y-90816521D01*
X113750979Y-91263479D01*
X113838176Y-91701849D01*
X114009220Y-92114785D01*
X114257536Y-92486417D01*
X114573583Y-92802464D01*
X114945215Y-93050780D01*
X115358151Y-93221824D01*
X115796521Y-93309021D01*
X116243479Y-93309021D01*
X116681849Y-93221824D01*
X117094785Y-93050780D01*
X117466417Y-92802464D01*
X117782464Y-92486417D01*
X118030780Y-92114785D01*
X118201824Y-91701849D01*
X118289021Y-91263479D01*
X118289021Y-90816521D01*
X118201987Y-90378967D01*
X120135000Y-90378967D01*
X120135000Y-90701033D01*
X120197832Y-91016912D01*
X120321082Y-91314463D01*
X120500013Y-91582252D01*
X120727748Y-91809987D01*
X120995537Y-91988918D01*
X121293088Y-92112168D01*
X121608967Y-92175000D01*
X121931033Y-92175000D01*
X122246912Y-92112168D01*
X122544463Y-91988918D01*
X122812252Y-91809987D01*
X123039987Y-91582252D01*
X123218918Y-91314463D01*
X123342168Y-91016912D01*
X123405000Y-90701033D01*
X123405000Y-90378967D01*
X123342168Y-90063088D01*
X123218918Y-89765537D01*
X123039987Y-89497748D01*
X122812252Y-89270013D01*
X122544463Y-89091082D01*
X122246912Y-88967832D01*
X121931033Y-88905000D01*
X121608967Y-88905000D01*
X121293088Y-88967832D01*
X120995537Y-89091082D01*
X120727748Y-89270013D01*
X120500013Y-89497748D01*
X120321082Y-89765537D01*
X120197832Y-90063088D01*
X120135000Y-90378967D01*
X118201987Y-90378967D01*
X118201824Y-90378151D01*
X118030780Y-89965215D01*
X117782464Y-89593583D01*
X117466417Y-89277536D01*
X117094785Y-89029220D01*
X116681849Y-88858176D01*
X116243479Y-88770979D01*
X115796521Y-88770979D01*
X115358151Y-88858176D01*
X114945215Y-89029220D01*
X114573583Y-89277536D01*
X114257536Y-89593583D01*
X114009220Y-89965215D01*
X113838176Y-90378151D01*
X113750979Y-90816521D01*
X110730000Y-90816521D01*
X110730000Y-88250000D01*
X193810001Y-88250000D01*
X193810001Y-93934268D01*
G37*
X193810001Y-93934268D02*
X193720202Y-93907028D01*
X193595720Y-93894768D01*
X191232250Y-93897840D01*
X191073500Y-94056590D01*
X191073500Y-97504640D01*
X191093500Y-97504640D01*
X191093500Y-97758640D01*
X191073500Y-97758640D01*
X191073500Y-101206690D01*
X191232250Y-101365440D01*
X193595720Y-101368512D01*
X193720202Y-101356252D01*
X193810001Y-101329012D01*
X193810000Y-103500273D01*
X193740500Y-103493428D01*
X192724500Y-103493428D01*
X192600018Y-103505688D01*
X192480320Y-103541998D01*
X192370006Y-103600963D01*
X192273315Y-103680315D01*
X192267829Y-103687000D01*
X191798550Y-103687000D01*
X191646416Y-103534866D01*
X191501487Y-103415926D01*
X191280859Y-103297998D01*
X191041463Y-103225377D01*
X190792500Y-103200857D01*
X190543537Y-103225377D01*
X190304141Y-103297998D01*
X190083513Y-103415926D01*
X189890130Y-103574630D01*
X189731426Y-103768013D01*
X189712828Y-103802807D01*
X189699037Y-103777006D01*
X189619685Y-103680315D01*
X189522994Y-103600963D01*
X189412680Y-103541998D01*
X189292982Y-103505688D01*
X189168500Y-103493428D01*
X188152500Y-103493428D01*
X188028018Y-103505688D01*
X187908320Y-103541998D01*
X187798006Y-103600963D01*
X187701315Y-103680315D01*
X187621963Y-103777006D01*
X187562998Y-103887320D01*
X187526688Y-104007018D01*
X187514428Y-104131500D01*
X187514428Y-104407031D01*
X187481497Y-104468641D01*
X187408877Y-104708037D01*
X187390500Y-104894620D01*
X187390500Y-105757627D01*
X187384357Y-105820000D01*
X187390500Y-105882373D01*
X187390500Y-105882379D01*
X187402823Y-106007495D01*
X187408877Y-106068963D01*
X187425764Y-106124630D01*
X187481497Y-106308358D01*
X187599425Y-106528987D01*
X187758130Y-106722370D01*
X187806591Y-106762141D01*
X188457328Y-107412879D01*
X186924431Y-107412879D01*
X185180543Y-105668993D01*
X185140772Y-105620532D01*
X184947390Y-105461827D01*
X184726761Y-105343899D01*
X184529200Y-105283970D01*
X184529200Y-102940954D01*
X184618380Y-102913902D01*
X184728694Y-102854937D01*
X184825385Y-102775585D01*
X184904737Y-102678894D01*
X184963702Y-102568580D01*
X185000012Y-102448882D01*
X185012272Y-102324400D01*
X185012272Y-100730440D01*
X187659208Y-100730440D01*
X187671468Y-100854922D01*
X187707778Y-100974620D01*
X187766743Y-101084934D01*
X187846095Y-101181625D01*
X187942786Y-101260977D01*
X188053100Y-101319942D01*
X188172798Y-101356252D01*
X188297280Y-101368512D01*
X190660750Y-101365440D01*
X190819500Y-101206690D01*
X190819500Y-97758640D01*
X187821030Y-97758640D01*
X187662280Y-97917390D01*
X187659208Y-100730440D01*
X185012272Y-100730440D01*
X185012272Y-98824400D01*
X185000012Y-98699918D01*
X184963702Y-98580220D01*
X184904737Y-98469906D01*
X184825385Y-98373215D01*
X184728694Y-98293863D01*
X184618380Y-98234898D01*
X184498682Y-98198588D01*
X184374200Y-98186328D01*
X184137818Y-98186328D01*
X184054398Y-98151774D01*
X183854439Y-98112000D01*
X183650561Y-98112000D01*
X183450602Y-98151774D01*
X183367182Y-98186328D01*
X180874200Y-98186328D01*
X180749718Y-98198588D01*
X180630020Y-98234898D01*
X180519706Y-98293863D01*
X180423015Y-98373215D01*
X180343663Y-98469906D01*
X180310609Y-98531745D01*
X180309200Y-97860150D01*
X180150450Y-97701400D01*
X178051200Y-97701400D01*
X178051200Y-99800650D01*
X178209950Y-99959400D01*
X179674200Y-99962472D01*
X179798682Y-99950212D01*
X179918380Y-99913902D01*
X180028694Y-99854937D01*
X180125385Y-99775585D01*
X180204737Y-99678894D01*
X180236128Y-99620167D01*
X180236128Y-102324400D01*
X180248388Y-102448882D01*
X180284698Y-102568580D01*
X180343663Y-102678894D01*
X180423015Y-102775585D01*
X180519706Y-102854937D01*
X180630020Y-102913902D01*
X180719200Y-102940955D01*
X180719201Y-105733825D01*
X177990147Y-108462880D01*
X176548918Y-108462880D01*
X176447760Y-108472843D01*
X176439300Y-108472010D01*
X176439300Y-99961916D01*
X177638450Y-99959400D01*
X177797200Y-99800650D01*
X177797200Y-97701400D01*
X177777200Y-97701400D01*
X177777200Y-97447400D01*
X177797200Y-97447400D01*
X177797200Y-95348150D01*
X178051200Y-95348150D01*
X178051200Y-97447400D01*
X180150450Y-97447400D01*
X180309200Y-97288650D01*
X180311131Y-96368033D01*
X180343663Y-96428894D01*
X180423015Y-96525585D01*
X180519706Y-96604937D01*
X180630020Y-96663902D01*
X180749718Y-96700212D01*
X180874200Y-96712472D01*
X182338450Y-96709400D01*
X182497200Y-96550650D01*
X182497200Y-94701400D01*
X182751200Y-94701400D01*
X182751200Y-96550650D01*
X182909950Y-96709400D01*
X184374200Y-96712472D01*
X184498682Y-96700212D01*
X184618380Y-96663902D01*
X184728694Y-96604937D01*
X184825385Y-96525585D01*
X184904737Y-96428894D01*
X184963702Y-96318580D01*
X185000012Y-96198882D01*
X185012272Y-96074400D01*
X185009200Y-94860150D01*
X184850450Y-94701400D01*
X182751200Y-94701400D01*
X182497200Y-94701400D01*
X180397950Y-94701400D01*
X180239200Y-94860150D01*
X180237502Y-95531205D01*
X180204737Y-95469906D01*
X180125385Y-95373215D01*
X180028694Y-95293863D01*
X179918380Y-95234898D01*
X179798682Y-95198588D01*
X179674200Y-95186328D01*
X178209950Y-95189400D01*
X178051200Y-95348150D01*
X177797200Y-95348150D01*
X177638450Y-95189400D01*
X176439300Y-95186884D01*
X176439300Y-94727476D01*
X176445444Y-94665096D01*
X176432418Y-94532840D01*
X187659208Y-94532840D01*
X187662280Y-97345890D01*
X187821030Y-97504640D01*
X190819500Y-97504640D01*
X190819500Y-94056590D01*
X190660750Y-93897840D01*
X188297280Y-93894768D01*
X188172798Y-93907028D01*
X188053100Y-93943338D01*
X187942786Y-94002303D01*
X187846095Y-94081655D01*
X187766743Y-94178346D01*
X187707778Y-94288660D01*
X187671468Y-94408358D01*
X187659208Y-94532840D01*
X176432418Y-94532840D01*
X176420923Y-94416133D01*
X176348303Y-94176737D01*
X176336296Y-94154274D01*
X176230375Y-93956108D01*
X176146590Y-93854016D01*
X176111435Y-93811179D01*
X176111432Y-93811176D01*
X176071670Y-93762726D01*
X176023221Y-93722965D01*
X175526526Y-93226270D01*
X175751852Y-93105831D01*
X175790150Y-93074400D01*
X180236128Y-93074400D01*
X180239200Y-94288650D01*
X180397950Y-94447400D01*
X182497200Y-94447400D01*
X182497200Y-92598150D01*
X182751200Y-92598150D01*
X182751200Y-94447400D01*
X184850450Y-94447400D01*
X185009200Y-94288650D01*
X185012272Y-93074400D01*
X185000012Y-92949918D01*
X184963702Y-92830220D01*
X184904737Y-92719906D01*
X184825385Y-92623215D01*
X184728694Y-92543863D01*
X184618380Y-92484898D01*
X184498682Y-92448588D01*
X184374200Y-92436328D01*
X182909950Y-92439400D01*
X182751200Y-92598150D01*
X182497200Y-92598150D01*
X182338450Y-92439400D01*
X180874200Y-92436328D01*
X180749718Y-92448588D01*
X180630020Y-92484898D01*
X180519706Y-92543863D01*
X180423015Y-92623215D01*
X180343663Y-92719906D01*
X180284698Y-92830220D01*
X180248388Y-92949918D01*
X180236128Y-93074400D01*
X175790150Y-93074400D01*
X176000814Y-92901514D01*
X176205131Y-92652552D01*
X176356952Y-92368515D01*
X176450443Y-92060315D01*
X176474100Y-91820121D01*
X176474100Y-91059478D01*
X176450443Y-90819284D01*
X176449605Y-90816521D01*
X188750979Y-90816521D01*
X188750979Y-91263479D01*
X188838176Y-91701849D01*
X189009220Y-92114785D01*
X189257536Y-92486417D01*
X189573583Y-92802464D01*
X189945215Y-93050780D01*
X190358151Y-93221824D01*
X190796521Y-93309021D01*
X191243479Y-93309021D01*
X191681849Y-93221824D01*
X192094785Y-93050780D01*
X192466417Y-92802464D01*
X192782464Y-92486417D01*
X193030780Y-92114785D01*
X193201824Y-91701849D01*
X193289021Y-91263479D01*
X193289021Y-90816521D01*
X193201824Y-90378151D01*
X193030780Y-89965215D01*
X192782464Y-89593583D01*
X192466417Y-89277536D01*
X192094785Y-89029220D01*
X191681849Y-88858176D01*
X191243479Y-88770979D01*
X190796521Y-88770979D01*
X190358151Y-88858176D01*
X189945215Y-89029220D01*
X189573583Y-89277536D01*
X189257536Y-89593583D01*
X189009220Y-89965215D01*
X188838176Y-90378151D01*
X188750979Y-90816521D01*
X176449605Y-90816521D01*
X176356952Y-90511085D01*
X176205131Y-90227048D01*
X176000814Y-89978086D01*
X175751851Y-89773769D01*
X175467814Y-89621948D01*
X175159615Y-89528457D01*
X174839100Y-89496889D01*
X174518584Y-89528457D01*
X174210385Y-89621948D01*
X173926348Y-89773769D01*
X173677386Y-89978086D01*
X173569100Y-90110034D01*
X173460814Y-89978086D01*
X173211851Y-89773769D01*
X172927814Y-89621948D01*
X172619615Y-89528457D01*
X172299100Y-89496889D01*
X171978584Y-89528457D01*
X171670385Y-89621948D01*
X171386348Y-89773769D01*
X171314839Y-89832455D01*
X171289637Y-89785306D01*
X171210285Y-89688615D01*
X171113594Y-89609263D01*
X171003280Y-89550298D01*
X170883582Y-89513988D01*
X170759100Y-89501728D01*
X168759100Y-89501728D01*
X168634618Y-89513988D01*
X168514920Y-89550298D01*
X168404606Y-89609263D01*
X168307915Y-89688615D01*
X168228563Y-89785306D01*
X168169598Y-89895620D01*
X168133288Y-90015318D01*
X168121028Y-90139800D01*
X168121028Y-92739800D01*
X168133288Y-92864282D01*
X168169598Y-92983980D01*
X168228563Y-93094294D01*
X168307915Y-93190985D01*
X168404606Y-93270337D01*
X168489101Y-93315501D01*
X168489101Y-93345918D01*
X168482957Y-93408300D01*
X168507477Y-93657263D01*
X168567162Y-93854016D01*
X168580098Y-93896659D01*
X168698026Y-94117288D01*
X168856731Y-94310670D01*
X168905187Y-94350437D01*
X169514785Y-94960035D01*
X169523847Y-94967472D01*
X169558763Y-95032794D01*
X169638115Y-95129485D01*
X169734806Y-95208837D01*
X169845120Y-95267802D01*
X169964818Y-95304112D01*
X170089300Y-95316372D01*
X170433791Y-95316372D01*
X170402888Y-95419451D01*
X170391031Y-95543972D01*
X170394100Y-95916550D01*
X170552850Y-96075300D01*
X171181500Y-96075300D01*
X171181500Y-95065650D01*
X171165118Y-95049268D01*
X171178637Y-95032794D01*
X171213552Y-94967473D01*
X171271070Y-94920270D01*
X171349673Y-94824491D01*
X171379398Y-94922480D01*
X171438363Y-95032794D01*
X171451882Y-95049268D01*
X171435500Y-95065650D01*
X171435500Y-96075300D01*
X171455500Y-96075300D01*
X171455500Y-96329300D01*
X171435500Y-96329300D01*
X171435500Y-97107210D01*
X171348960Y-97193750D01*
X171348960Y-97993000D01*
X171368960Y-97993000D01*
X171368960Y-98247000D01*
X171348960Y-98247000D01*
X171348960Y-98267000D01*
X171094960Y-98267000D01*
X171094960Y-98247000D01*
X170145710Y-98247000D01*
X169986960Y-98405750D01*
X169983888Y-98570000D01*
X169996148Y-98694482D01*
X170032458Y-98814180D01*
X170091423Y-98924494D01*
X170160775Y-99009000D01*
X170091423Y-99093506D01*
X170032458Y-99203820D01*
X169996148Y-99323518D01*
X169983888Y-99448000D01*
X169983888Y-99878836D01*
X169807161Y-100055563D01*
X169738324Y-99889376D01*
X169673259Y-99792000D01*
X169738324Y-99694624D01*
X169823883Y-99488067D01*
X169867500Y-99268788D01*
X169867500Y-99045212D01*
X169823883Y-98825933D01*
X169738324Y-98619376D01*
X169673259Y-98522000D01*
X169738324Y-98424624D01*
X169823883Y-98218067D01*
X169867500Y-97998788D01*
X169867500Y-97775212D01*
X169846573Y-97670000D01*
X169983888Y-97670000D01*
X169986960Y-97834250D01*
X170145710Y-97993000D01*
X171094960Y-97993000D01*
X171094960Y-97425490D01*
X171181500Y-97338950D01*
X171181500Y-96329300D01*
X170552850Y-96329300D01*
X170394100Y-96488050D01*
X170391031Y-96860628D01*
X170402888Y-96985149D01*
X170426998Y-97065568D01*
X170377780Y-97080498D01*
X170267466Y-97139463D01*
X170170775Y-97218815D01*
X170091423Y-97315506D01*
X170032458Y-97425820D01*
X169996148Y-97545518D01*
X169983888Y-97670000D01*
X169846573Y-97670000D01*
X169823883Y-97555933D01*
X169738324Y-97349376D01*
X169670147Y-97247342D01*
X169719623Y-97177206D01*
X169809946Y-96973864D01*
X169826619Y-96918874D01*
X169700454Y-96744000D01*
X168859500Y-96744000D01*
X168859500Y-96755026D01*
X168844288Y-96752000D01*
X168620712Y-96752000D01*
X168605500Y-96755026D01*
X168605500Y-96744000D01*
X168585500Y-96744000D01*
X168585500Y-96490000D01*
X168605500Y-96490000D01*
X168605500Y-95647871D01*
X168859500Y-95647871D01*
X168859500Y-96490000D01*
X169700454Y-96490000D01*
X169826619Y-96315126D01*
X169809946Y-96260136D01*
X169719623Y-96056794D01*
X169591365Y-95874980D01*
X169430101Y-95721682D01*
X169242029Y-95602790D01*
X169034376Y-95522874D01*
X168859500Y-95647871D01*
X168605500Y-95647871D01*
X168430624Y-95522874D01*
X168222971Y-95602790D01*
X168034899Y-95721682D01*
X167873635Y-95874980D01*
X167745377Y-96056794D01*
X167655054Y-96260136D01*
X167638381Y-96315126D01*
X167684313Y-96378792D01*
X167517594Y-96328219D01*
X167503170Y-96181764D01*
X167409708Y-95873661D01*
X167257934Y-95589713D01*
X167053681Y-95340829D01*
X166923425Y-95233931D01*
X167137892Y-95028136D01*
X167321917Y-94764657D01*
X167451003Y-94470339D01*
X167481949Y-94342534D01*
X167362595Y-94089180D01*
X165644680Y-94089180D01*
X165644680Y-94109180D01*
X165390680Y-94109180D01*
X165390680Y-94089180D01*
X163672765Y-94089180D01*
X163553411Y-94342534D01*
X163584357Y-94470339D01*
X163713443Y-94764657D01*
X163897468Y-95028136D01*
X164111935Y-95233931D01*
X163981679Y-95340829D01*
X163962910Y-95363699D01*
X163862274Y-95263063D01*
X163692756Y-95149795D01*
X163504398Y-95071774D01*
X163304439Y-95032000D01*
X163100561Y-95032000D01*
X162900602Y-95071774D01*
X162712244Y-95149795D01*
X162542726Y-95263063D01*
X162398563Y-95407226D01*
X162285295Y-95576744D01*
X162207274Y-95765102D01*
X162167500Y-95965061D01*
X162167500Y-96168939D01*
X162207274Y-96368898D01*
X162285295Y-96557256D01*
X162398563Y-96726774D01*
X162542726Y-96870937D01*
X162712244Y-96984205D01*
X162900602Y-97062226D01*
X163100561Y-97102000D01*
X163304439Y-97102000D01*
X163504398Y-97062226D01*
X163593665Y-97025250D01*
X163625652Y-97130699D01*
X163777426Y-97414647D01*
X163981679Y-97663531D01*
X164114069Y-97772180D01*
X164055866Y-97819945D01*
X164052274Y-97816353D01*
X163882756Y-97703085D01*
X163694398Y-97625064D01*
X163494439Y-97585290D01*
X163290561Y-97585290D01*
X163090602Y-97625064D01*
X162902244Y-97703085D01*
X162732726Y-97816353D01*
X162588563Y-97960516D01*
X162475295Y-98130034D01*
X162397274Y-98318392D01*
X162357500Y-98518351D01*
X162357500Y-98722229D01*
X162363519Y-98752488D01*
X162332726Y-98773063D01*
X162188563Y-98917226D01*
X162075295Y-99086744D01*
X161997274Y-99275102D01*
X161957500Y-99475061D01*
X161957500Y-99678939D01*
X161997274Y-99878898D01*
X162067088Y-100047443D01*
X161971425Y-100190614D01*
X161893404Y-100378972D01*
X161853630Y-100578931D01*
X161853630Y-100782809D01*
X161893404Y-100982768D01*
X161971425Y-101171126D01*
X161999630Y-101213338D01*
X161999630Y-101449470D01*
X161995330Y-101493130D01*
X161999630Y-101536790D01*
X161999630Y-101536796D01*
X162005666Y-101598075D01*
X162012494Y-101667404D01*
X162021472Y-101697000D01*
X162063327Y-101834980D01*
X162145877Y-101989420D01*
X162256971Y-102124789D01*
X162290894Y-102152629D01*
X163627837Y-103489573D01*
X163625652Y-103493661D01*
X163532190Y-103801764D01*
X163500632Y-104122180D01*
X163532190Y-104442596D01*
X163625652Y-104750699D01*
X163777426Y-105034647D01*
X163981679Y-105283531D01*
X164100434Y-105380990D01*
X152219179Y-105380990D01*
X152175519Y-105376690D01*
X152131859Y-105380990D01*
X152131852Y-105380990D01*
X152017844Y-105392219D01*
X152001244Y-105393854D01*
X151930325Y-105415367D01*
X151833668Y-105444687D01*
X151679228Y-105527237D01*
X151543860Y-105638331D01*
X151516025Y-105672248D01*
X151213612Y-105974661D01*
X151093374Y-105749713D01*
X150889121Y-105500829D01*
X150756731Y-105392180D01*
X150889121Y-105283531D01*
X151093374Y-105034647D01*
X151245148Y-104750699D01*
X151338610Y-104442596D01*
X151370168Y-104122180D01*
X151338610Y-103801764D01*
X151245148Y-103493661D01*
X151093374Y-103209713D01*
X150889121Y-102960829D01*
X150756731Y-102852180D01*
X150889121Y-102743531D01*
X151093374Y-102494647D01*
X151245148Y-102210699D01*
X151338610Y-101902596D01*
X151370168Y-101582180D01*
X151338610Y-101261764D01*
X151245148Y-100953661D01*
X151093374Y-100669713D01*
X150889121Y-100420829D01*
X150756731Y-100312180D01*
X150889121Y-100203531D01*
X151093374Y-99954647D01*
X151140757Y-99866000D01*
X151160032Y-99866000D01*
X151202244Y-99894205D01*
X151390602Y-99972226D01*
X151590561Y-100012000D01*
X151794439Y-100012000D01*
X151994398Y-99972226D01*
X152182756Y-99894205D01*
X152352274Y-99780937D01*
X152496437Y-99636774D01*
X152609705Y-99467256D01*
X152687726Y-99278898D01*
X152727500Y-99078939D01*
X152727500Y-98875061D01*
X152687726Y-98675102D01*
X152609705Y-98486744D01*
X152496437Y-98317226D01*
X152352274Y-98173063D01*
X152182756Y-98059795D01*
X151994398Y-97981774D01*
X151794439Y-97942000D01*
X151590561Y-97942000D01*
X151390602Y-97981774D01*
X151202244Y-98059795D01*
X151160032Y-98088000D01*
X151059141Y-98088000D01*
X150889121Y-97880829D01*
X150756731Y-97772180D01*
X150889121Y-97663531D01*
X151093374Y-97414647D01*
X151245148Y-97130699D01*
X151338610Y-96822596D01*
X151370168Y-96502180D01*
X151338610Y-96181764D01*
X151245148Y-95873661D01*
X151093374Y-95589713D01*
X150889121Y-95340829D01*
X150756731Y-95232180D01*
X150889121Y-95123531D01*
X151093374Y-94874647D01*
X151245148Y-94590699D01*
X151338610Y-94282596D01*
X151370168Y-93962180D01*
X151338610Y-93641764D01*
X151245148Y-93333661D01*
X151150712Y-93156983D01*
X155012303Y-93156983D01*
X155012303Y-93394643D01*
X155058668Y-93627736D01*
X155149616Y-93847305D01*
X155281653Y-94044912D01*
X155449704Y-94212963D01*
X155647311Y-94345000D01*
X155866880Y-94435948D01*
X156099973Y-94482313D01*
X156337633Y-94482313D01*
X156570726Y-94435948D01*
X156662181Y-94398066D01*
X156576651Y-94483596D01*
X156448136Y-94675932D01*
X156359613Y-94889644D01*
X156314485Y-95116520D01*
X156314485Y-95347840D01*
X156359613Y-95574716D01*
X156448136Y-95788428D01*
X156576651Y-95980764D01*
X156740219Y-96144332D01*
X156932555Y-96272847D01*
X157146267Y-96361370D01*
X157373143Y-96406498D01*
X157604463Y-96406498D01*
X157831339Y-96361370D01*
X158045051Y-96272847D01*
X158237387Y-96144332D01*
X158400955Y-95980764D01*
X158529470Y-95788428D01*
X158617993Y-95574716D01*
X158663121Y-95347840D01*
X158663121Y-95116520D01*
X158617993Y-94889644D01*
X158529470Y-94675932D01*
X158400955Y-94483596D01*
X158315425Y-94398066D01*
X158406880Y-94435948D01*
X158639973Y-94482313D01*
X158877633Y-94482313D01*
X159110726Y-94435948D01*
X159330295Y-94345000D01*
X159527902Y-94212963D01*
X159695953Y-94044912D01*
X159827990Y-93847305D01*
X159918938Y-93627736D01*
X159965303Y-93394643D01*
X159965303Y-93156983D01*
X159918938Y-92923890D01*
X159827990Y-92704321D01*
X159695953Y-92506714D01*
X159527902Y-92338663D01*
X159330295Y-92206626D01*
X159110726Y-92115678D01*
X158877633Y-92069313D01*
X158639973Y-92069313D01*
X158406880Y-92115678D01*
X158187311Y-92206626D01*
X157989704Y-92338663D01*
X157821653Y-92506714D01*
X157689616Y-92704321D01*
X157598668Y-92923890D01*
X157552303Y-93156983D01*
X157552303Y-93394643D01*
X157598668Y-93627736D01*
X157689616Y-93847305D01*
X157821653Y-94044912D01*
X157913950Y-94137209D01*
X157831339Y-94102990D01*
X157604463Y-94057862D01*
X157373143Y-94057862D01*
X157146267Y-94102990D01*
X157063656Y-94137209D01*
X157155953Y-94044912D01*
X157287990Y-93847305D01*
X157378938Y-93627736D01*
X157425303Y-93394643D01*
X157425303Y-93156983D01*
X157378938Y-92923890D01*
X157287990Y-92704321D01*
X157155953Y-92506714D01*
X156987902Y-92338663D01*
X156790295Y-92206626D01*
X156570726Y-92115678D01*
X156337633Y-92069313D01*
X156099973Y-92069313D01*
X155866880Y-92115678D01*
X155647311Y-92206626D01*
X155449704Y-92338663D01*
X155281653Y-92506714D01*
X155149616Y-92704321D01*
X155058668Y-92923890D01*
X155012303Y-93156983D01*
X151150712Y-93156983D01*
X151093374Y-93049713D01*
X150889121Y-92800829D01*
X150756731Y-92692180D01*
X150889121Y-92583531D01*
X151093374Y-92334647D01*
X151245148Y-92050699D01*
X151338610Y-91742596D01*
X151370168Y-91422180D01*
X151338610Y-91101764D01*
X151245148Y-90793661D01*
X151150712Y-90616983D01*
X155012303Y-90616983D01*
X155012303Y-90854643D01*
X155058668Y-91087736D01*
X155149616Y-91307305D01*
X155281653Y-91504912D01*
X155449704Y-91672963D01*
X155647311Y-91805000D01*
X155866880Y-91895948D01*
X156099973Y-91942313D01*
X156337633Y-91942313D01*
X156570726Y-91895948D01*
X156790295Y-91805000D01*
X156987902Y-91672963D01*
X157155953Y-91504912D01*
X157287990Y-91307305D01*
X157378938Y-91087736D01*
X157425303Y-90854643D01*
X157425303Y-90616983D01*
X157552303Y-90616983D01*
X157552303Y-90854643D01*
X157598668Y-91087736D01*
X157689616Y-91307305D01*
X157821653Y-91504912D01*
X157989704Y-91672963D01*
X158187311Y-91805000D01*
X158406880Y-91895948D01*
X158639973Y-91942313D01*
X158877633Y-91942313D01*
X159110726Y-91895948D01*
X159330295Y-91805000D01*
X159527902Y-91672963D01*
X159695953Y-91504912D01*
X159827990Y-91307305D01*
X159918938Y-91087736D01*
X159921073Y-91077000D01*
X161916356Y-91077000D01*
X161940877Y-91325963D01*
X162013497Y-91565359D01*
X162131425Y-91785988D01*
X162290130Y-91979370D01*
X162483512Y-92138075D01*
X162704141Y-92256003D01*
X162943537Y-92328623D01*
X163130120Y-92347000D01*
X163787564Y-92347000D01*
X163981679Y-92583531D01*
X164111935Y-92690429D01*
X163897468Y-92896224D01*
X163713443Y-93159703D01*
X163584357Y-93454021D01*
X163553411Y-93581826D01*
X163672765Y-93835180D01*
X165390680Y-93835180D01*
X165390680Y-93815180D01*
X165644680Y-93815180D01*
X165644680Y-93835180D01*
X167362595Y-93835180D01*
X167481949Y-93581826D01*
X167451003Y-93454021D01*
X167321917Y-93159703D01*
X167137892Y-92896224D01*
X166923425Y-92690429D01*
X167053681Y-92583531D01*
X167257934Y-92334647D01*
X167409708Y-92050699D01*
X167503170Y-91742596D01*
X167534728Y-91422180D01*
X167503170Y-91101764D01*
X167409708Y-90793661D01*
X167257934Y-90509713D01*
X167053681Y-90260829D01*
X166804797Y-90056576D01*
X166520849Y-89904802D01*
X166212746Y-89811340D01*
X165972622Y-89787690D01*
X165062738Y-89787690D01*
X164866679Y-89807000D01*
X163130120Y-89807000D01*
X162943537Y-89825377D01*
X162704141Y-89897997D01*
X162483512Y-90015925D01*
X162290130Y-90174630D01*
X162131425Y-90368012D01*
X162013497Y-90588641D01*
X161940877Y-90828037D01*
X161916356Y-91077000D01*
X159921073Y-91077000D01*
X159965303Y-90854643D01*
X159965303Y-90616983D01*
X159918938Y-90383890D01*
X159827990Y-90164321D01*
X159695953Y-89966714D01*
X159527902Y-89798663D01*
X159330295Y-89666626D01*
X159110726Y-89575678D01*
X158877633Y-89529313D01*
X158639973Y-89529313D01*
X158406880Y-89575678D01*
X158187311Y-89666626D01*
X157989704Y-89798663D01*
X157821653Y-89966714D01*
X157689616Y-90164321D01*
X157598668Y-90383890D01*
X157552303Y-90616983D01*
X157425303Y-90616983D01*
X157378938Y-90383890D01*
X157287990Y-90164321D01*
X157155953Y-89966714D01*
X156987902Y-89798663D01*
X156790295Y-89666626D01*
X156570726Y-89575678D01*
X156337633Y-89529313D01*
X156099973Y-89529313D01*
X155866880Y-89575678D01*
X155647311Y-89666626D01*
X155449704Y-89798663D01*
X155281653Y-89966714D01*
X155149616Y-90164321D01*
X155058668Y-90383890D01*
X155012303Y-90616983D01*
X151150712Y-90616983D01*
X151093374Y-90509713D01*
X150889121Y-90260829D01*
X150640237Y-90056576D01*
X150356289Y-89904802D01*
X150048186Y-89811340D01*
X149808062Y-89787690D01*
X148898178Y-89787690D01*
X148658054Y-89811340D01*
X148349951Y-89904802D01*
X148066003Y-90056576D01*
X147817119Y-90260829D01*
X147612866Y-90509713D01*
X147461092Y-90793661D01*
X147367630Y-91101764D01*
X147336072Y-91422180D01*
X147367630Y-91742596D01*
X147461092Y-92050699D01*
X147463277Y-92054787D01*
X146430065Y-93088000D01*
X145668723Y-93088000D01*
X145661185Y-93078815D01*
X145564494Y-92999463D01*
X145454180Y-92940498D01*
X145334482Y-92904188D01*
X145210000Y-92891928D01*
X144010000Y-92891928D01*
X143885518Y-92904188D01*
X143765820Y-92940498D01*
X143655506Y-92999463D01*
X143558815Y-93078815D01*
X143510000Y-93138296D01*
X143461185Y-93078815D01*
X143364494Y-92999463D01*
X143254180Y-92940498D01*
X143134482Y-92904188D01*
X143010000Y-92891928D01*
X141810000Y-92891928D01*
X141685518Y-92904188D01*
X141565820Y-92940498D01*
X141455506Y-92999463D01*
X141358815Y-93078815D01*
X141279463Y-93175506D01*
X141220498Y-93285820D01*
X141184188Y-93405518D01*
X141171928Y-93530000D01*
X141171928Y-93871635D01*
X140694764Y-94348799D01*
X140660841Y-94376639D01*
X140549747Y-94512008D01*
X140467197Y-94666448D01*
X140441974Y-94749599D01*
X140425077Y-94805303D01*
X140416364Y-94834025D01*
X140403500Y-94964632D01*
X140403500Y-94964638D01*
X140399200Y-95008298D01*
X140403500Y-95051958D01*
X140403500Y-95230980D01*
X135898635Y-95230980D01*
X135854975Y-95226680D01*
X135811315Y-95230980D01*
X135811309Y-95230980D01*
X135713900Y-95240574D01*
X135680700Y-95243844D01*
X135596048Y-95269523D01*
X135513125Y-95294677D01*
X135358685Y-95377227D01*
X135223317Y-95488321D01*
X135195481Y-95522239D01*
X134205043Y-96512678D01*
X134152251Y-96477403D01*
X133909338Y-96376785D01*
X133651463Y-96325490D01*
X133388537Y-96325490D01*
X133255229Y-96352007D01*
X133255229Y-92832006D01*
X134434587Y-91652649D01*
X134627391Y-91691000D01*
X134952609Y-91691000D01*
X135271579Y-91627553D01*
X135572042Y-91503097D01*
X135842451Y-91322415D01*
X136068831Y-91096035D01*
X136119358Y-91162569D01*
X136361623Y-91377184D01*
X136641102Y-91540411D01*
X136947055Y-91645978D01*
X137203000Y-91527362D01*
X137203000Y-90167000D01*
X137457000Y-90167000D01*
X137457000Y-91527362D01*
X137712945Y-91645978D01*
X138018898Y-91540411D01*
X138298377Y-91377184D01*
X138540642Y-91162569D01*
X138736382Y-90904815D01*
X138878076Y-90613826D01*
X138935975Y-90422944D01*
X138915505Y-90378967D01*
X143635000Y-90378967D01*
X143635000Y-90701033D01*
X143697832Y-91016912D01*
X143821082Y-91314463D01*
X144000013Y-91582252D01*
X144227748Y-91809987D01*
X144495537Y-91988918D01*
X144793088Y-92112168D01*
X145108967Y-92175000D01*
X145431033Y-92175000D01*
X145746912Y-92112168D01*
X146044463Y-91988918D01*
X146312252Y-91809987D01*
X146539987Y-91582252D01*
X146718918Y-91314463D01*
X146842168Y-91016912D01*
X146905000Y-90701033D01*
X146905000Y-90378967D01*
X146842168Y-90063088D01*
X146718918Y-89765537D01*
X146539987Y-89497748D01*
X146312252Y-89270013D01*
X146044463Y-89091082D01*
X145746912Y-88967832D01*
X145431033Y-88905000D01*
X145108967Y-88905000D01*
X144793088Y-88967832D01*
X144495537Y-89091082D01*
X144227748Y-89270013D01*
X144000013Y-89497748D01*
X143821082Y-89765537D01*
X143697832Y-90063088D01*
X143635000Y-90378967D01*
X138915505Y-90378967D01*
X138816836Y-90167000D01*
X137457000Y-90167000D01*
X137203000Y-90167000D01*
X137183000Y-90167000D01*
X137183000Y-89913000D01*
X137203000Y-89913000D01*
X137203000Y-88552638D01*
X137457000Y-88552638D01*
X137457000Y-89913000D01*
X138816836Y-89913000D01*
X138935975Y-89657056D01*
X138878076Y-89466174D01*
X138736382Y-89175185D01*
X138540642Y-88917431D01*
X138298377Y-88702816D01*
X138018898Y-88539589D01*
X137712945Y-88434022D01*
X137457000Y-88552638D01*
X137203000Y-88552638D01*
X136947055Y-88434022D01*
X136641102Y-88539589D01*
X136361623Y-88702816D01*
X136119358Y-88917431D01*
X136068831Y-88983965D01*
X135842451Y-88757585D01*
X135572042Y-88576903D01*
X135271579Y-88452447D01*
X134952609Y-88389000D01*
X134627391Y-88389000D01*
X134308421Y-88452447D01*
X134007958Y-88576903D01*
X133737549Y-88757585D01*
X133520000Y-88975134D01*
X133302451Y-88757585D01*
X133032042Y-88576903D01*
X132731579Y-88452447D01*
X132412609Y-88389000D01*
X132087391Y-88389000D01*
X131768421Y-88452447D01*
X131467958Y-88576903D01*
X131197549Y-88757585D01*
X130980000Y-88975134D01*
X130762451Y-88757585D01*
X130492042Y-88576903D01*
X130191579Y-88452447D01*
X129872609Y-88389000D01*
X129547391Y-88389000D01*
X129228421Y-88452447D01*
X128927958Y-88576903D01*
X128657549Y-88757585D01*
X128427585Y-88987549D01*
X128246903Y-89257958D01*
X128122447Y-89558421D01*
X128059000Y-89877391D01*
X128059000Y-90202609D01*
X128122447Y-90521579D01*
X128246903Y-90822042D01*
X128424611Y-91088000D01*
X125736159Y-91088000D01*
X125692499Y-91083700D01*
X125648839Y-91088000D01*
X125648833Y-91088000D01*
X125551424Y-91097594D01*
X125518224Y-91100864D01*
X125416558Y-91131704D01*
X125350649Y-91151697D01*
X125196209Y-91234247D01*
X125060841Y-91345341D01*
X125033005Y-91379259D01*
X124194759Y-92217506D01*
X124160842Y-92245341D01*
X124133007Y-92279258D01*
X124133005Y-92279260D01*
X124049748Y-92380709D01*
X123967198Y-92535148D01*
X123916364Y-92702726D01*
X123899200Y-92877000D01*
X123903501Y-92920670D01*
X123903501Y-95303102D01*
X123846900Y-95297528D01*
X122297500Y-95297528D01*
X122173018Y-95309788D01*
X122053320Y-95346098D01*
X121943006Y-95405063D01*
X121846315Y-95484415D01*
X121766963Y-95581106D01*
X121707998Y-95691420D01*
X121695264Y-95733398D01*
X120052963Y-97375700D01*
X120052958Y-97375704D01*
X119105068Y-98323595D01*
X119076289Y-98229708D01*
X119017239Y-98120000D01*
X119076289Y-98010292D01*
X119112947Y-97890700D01*
X119122500Y-97770750D01*
X118963750Y-97612000D01*
X117839800Y-97612000D01*
X117839800Y-98628000D01*
X117859800Y-98628000D01*
X117859800Y-98882000D01*
X117839800Y-98882000D01*
X117839800Y-99898000D01*
X117859800Y-99898000D01*
X117859800Y-100152000D01*
X117839800Y-100152000D01*
X117839800Y-100780650D01*
X117998550Y-100939400D01*
X118052501Y-100939740D01*
X118052502Y-103693532D01*
X118024296Y-103735745D01*
X117946275Y-103924103D01*
X117906501Y-104124062D01*
X117906501Y-104327940D01*
X117920136Y-104396490D01*
X117858815Y-104446815D01*
X117779463Y-104543506D01*
X117720498Y-104653820D01*
X117684188Y-104773518D01*
X117671928Y-104898000D01*
X117671928Y-105798000D01*
X117684188Y-105922482D01*
X117720498Y-106042180D01*
X117779463Y-106152494D01*
X117848815Y-106237000D01*
X117779463Y-106321506D01*
X117720498Y-106431820D01*
X117684188Y-106551518D01*
X117671928Y-106676000D01*
X117671928Y-107576000D01*
X117684188Y-107700482D01*
X117720498Y-107820180D01*
X117779463Y-107930494D01*
X117848815Y-108015000D01*
X117779463Y-108099506D01*
X117720498Y-108209820D01*
X117684188Y-108329518D01*
X117671928Y-108454000D01*
X117671928Y-109354000D01*
X117684188Y-109478482D01*
X117720498Y-109598180D01*
X117779463Y-109708494D01*
X117858815Y-109805185D01*
X117955506Y-109884537D01*
X118065820Y-109943502D01*
X118185518Y-109979812D01*
X118310000Y-109992072D01*
X119510000Y-109992072D01*
X119634482Y-109979812D01*
X119754180Y-109943502D01*
X119864494Y-109884537D01*
X119961185Y-109805185D01*
X120010000Y-109745704D01*
X120058815Y-109805185D01*
X120155506Y-109884537D01*
X120265820Y-109943502D01*
X120385518Y-109979812D01*
X120510000Y-109992072D01*
X121710000Y-109992072D01*
X121834482Y-109979812D01*
X121954180Y-109943502D01*
X122064494Y-109884537D01*
X122161185Y-109805185D01*
X122171185Y-109793000D01*
X122621840Y-109793000D01*
X122665500Y-109797300D01*
X122709160Y-109793000D01*
X122709167Y-109793000D01*
X122839774Y-109780136D01*
X123007351Y-109729303D01*
X123161791Y-109646753D01*
X123239231Y-109583199D01*
X123294398Y-109572226D01*
X123482756Y-109494205D01*
X123652274Y-109380937D01*
X123796437Y-109236774D01*
X123909705Y-109067256D01*
X123987726Y-108878898D01*
X124027500Y-108678939D01*
X124027500Y-108475061D01*
X123987726Y-108275102D01*
X123909705Y-108086744D01*
X123796437Y-107917226D01*
X123652274Y-107773063D01*
X123486760Y-107662471D01*
X123504447Y-107644784D01*
X123617715Y-107475266D01*
X123695736Y-107286908D01*
X123735510Y-107086949D01*
X123735510Y-106883071D01*
X123701987Y-106714538D01*
X123752274Y-106680937D01*
X123896437Y-106536774D01*
X124009705Y-106367256D01*
X124087726Y-106178898D01*
X124127500Y-105978939D01*
X124127500Y-105775061D01*
X124087726Y-105575102D01*
X124009705Y-105386744D01*
X123896437Y-105217226D01*
X123752274Y-105073063D01*
X123582756Y-104959795D01*
X123394398Y-104881774D01*
X123344605Y-104871870D01*
X123222999Y-104750264D01*
X123195159Y-104716341D01*
X123059791Y-104605247D01*
X122905351Y-104522697D01*
X122737774Y-104471864D01*
X122607167Y-104459000D01*
X122607160Y-104459000D01*
X122563500Y-104454700D01*
X122519840Y-104459000D01*
X122171185Y-104459000D01*
X122161185Y-104446815D01*
X122064494Y-104367463D01*
X121954180Y-104308498D01*
X121834482Y-104272188D01*
X121710000Y-104259928D01*
X120510000Y-104259928D01*
X120385518Y-104272188D01*
X120265820Y-104308498D01*
X120155506Y-104367463D01*
X120058815Y-104446815D01*
X120010000Y-104506296D01*
X119961185Y-104446815D01*
X119954024Y-104440938D01*
X119976501Y-104327940D01*
X119976501Y-104124062D01*
X119936727Y-103924103D01*
X119858706Y-103735745D01*
X119830501Y-103693533D01*
X119830501Y-100112632D01*
X120503501Y-99439633D01*
X120503500Y-100172941D01*
X120499200Y-100216602D01*
X120503500Y-100260262D01*
X120503500Y-100260268D01*
X120512141Y-100348000D01*
X120516364Y-100390876D01*
X120536399Y-100456924D01*
X120567197Y-100558452D01*
X120649747Y-100712892D01*
X120760841Y-100848261D01*
X120794764Y-100876101D01*
X121274800Y-101356137D01*
X121302640Y-101390060D01*
X121438008Y-101501154D01*
X121592448Y-101583704D01*
X121639824Y-101598075D01*
X121760023Y-101634537D01*
X121793223Y-101637807D01*
X121890632Y-101647401D01*
X121890638Y-101647401D01*
X121934298Y-101651701D01*
X121977958Y-101647401D01*
X124004390Y-101647401D01*
X128123260Y-105766271D01*
X128123264Y-105766274D01*
X128476244Y-106119256D01*
X128504085Y-106153180D01*
X128639453Y-106264274D01*
X128746526Y-106321506D01*
X128793890Y-106346823D01*
X128961468Y-106397657D01*
X128994668Y-106400927D01*
X129092077Y-106410521D01*
X129092083Y-106410521D01*
X129135743Y-106414821D01*
X129179403Y-106410521D01*
X139404319Y-106410521D01*
X139447979Y-106414821D01*
X139491639Y-106410521D01*
X139491646Y-106410521D01*
X139622253Y-106397657D01*
X139789830Y-106346824D01*
X139944270Y-106264274D01*
X140079638Y-106153180D01*
X140107478Y-106119257D01*
X141171928Y-105054807D01*
X141171928Y-105352000D01*
X141184188Y-105476482D01*
X141220498Y-105596180D01*
X141279463Y-105706494D01*
X141358815Y-105803185D01*
X141455506Y-105882537D01*
X141521001Y-105917545D01*
X141521000Y-105918455D01*
X141455506Y-105953463D01*
X141358815Y-106032815D01*
X141279463Y-106129506D01*
X141220498Y-106239820D01*
X141184188Y-106359518D01*
X141171928Y-106484000D01*
X141171928Y-107384000D01*
X141183805Y-107504594D01*
X141152274Y-107473063D01*
X140982756Y-107359795D01*
X140794398Y-107281774D01*
X140594439Y-107242000D01*
X140390561Y-107242000D01*
X140190602Y-107281774D01*
X140002244Y-107359795D01*
X139832726Y-107473063D01*
X139688563Y-107617226D01*
X139575295Y-107786744D01*
X139497274Y-107975102D01*
X139457500Y-108175061D01*
X139457500Y-108378939D01*
X139497274Y-108578898D01*
X139575295Y-108767256D01*
X139688563Y-108936774D01*
X139832726Y-109080937D01*
X140002244Y-109194205D01*
X140190602Y-109272226D01*
X140365225Y-109306960D01*
X140622005Y-109563741D01*
X140649841Y-109597659D01*
X140683758Y-109625494D01*
X140683759Y-109625495D01*
X140686279Y-109627563D01*
X140785209Y-109708753D01*
X140939649Y-109791303D01*
X140985413Y-109805185D01*
X141107224Y-109842136D01*
X141140424Y-109845406D01*
X141237833Y-109855000D01*
X141237839Y-109855000D01*
X141281499Y-109859300D01*
X141325159Y-109855000D01*
X141348815Y-109855000D01*
X141358815Y-109867185D01*
X141455506Y-109946537D01*
X141521001Y-109981545D01*
X141521000Y-109982455D01*
X141455506Y-110017463D01*
X141358815Y-110096815D01*
X141279463Y-110193506D01*
X141220498Y-110303820D01*
X141184188Y-110423518D01*
X141171928Y-110548000D01*
X141171928Y-111448000D01*
X141184188Y-111572482D01*
X141220498Y-111692180D01*
X141279463Y-111802494D01*
X141349636Y-111888000D01*
X138216660Y-111888000D01*
X138173000Y-111883700D01*
X138129340Y-111888000D01*
X138129333Y-111888000D01*
X138015773Y-111899185D01*
X137998725Y-111900864D01*
X137947892Y-111916284D01*
X137831149Y-111951697D01*
X137676709Y-112034247D01*
X137676707Y-112034248D01*
X137676708Y-112034248D01*
X137584642Y-112109805D01*
X137541341Y-112145341D01*
X137513506Y-112179258D01*
X136550837Y-113141928D01*
X136089163Y-113141928D01*
X135876499Y-112929264D01*
X135848659Y-112895341D01*
X135713291Y-112784247D01*
X135558851Y-112701697D01*
X135391274Y-112650864D01*
X135260667Y-112638000D01*
X135260660Y-112638000D01*
X135217000Y-112633700D01*
X135173340Y-112638000D01*
X134018045Y-112638000D01*
X133983037Y-112572506D01*
X133903685Y-112475815D01*
X133806994Y-112396463D01*
X133696680Y-112337498D01*
X133576982Y-112301188D01*
X133452500Y-112288928D01*
X132552500Y-112288928D01*
X132428018Y-112301188D01*
X132308320Y-112337498D01*
X132198006Y-112396463D01*
X132101315Y-112475815D01*
X132021963Y-112572506D01*
X131962998Y-112682820D01*
X131926688Y-112802518D01*
X131914428Y-112927000D01*
X131914428Y-114127000D01*
X131926688Y-114251482D01*
X131962998Y-114371180D01*
X132021963Y-114481494D01*
X132101315Y-114578185D01*
X132160796Y-114627000D01*
X132101315Y-114675815D01*
X132021963Y-114772506D01*
X131962998Y-114882820D01*
X131926688Y-115002518D01*
X131914428Y-115127000D01*
X131917500Y-115441250D01*
X132076250Y-115600000D01*
X132875500Y-115600000D01*
X132875500Y-115580000D01*
X133129500Y-115580000D01*
X133129500Y-115600000D01*
X133928750Y-115600000D01*
X134087500Y-115441250D01*
X134090572Y-115127000D01*
X134078312Y-115002518D01*
X134042002Y-114882820D01*
X133983037Y-114772506D01*
X133903685Y-114675815D01*
X133844204Y-114627000D01*
X133903685Y-114578185D01*
X133983037Y-114481494D01*
X134018045Y-114416000D01*
X134831928Y-114416000D01*
X134831928Y-115480000D01*
X134844188Y-115604482D01*
X134880498Y-115724180D01*
X134939463Y-115834494D01*
X135018815Y-115931185D01*
X135115506Y-116010537D01*
X135225820Y-116069502D01*
X135345518Y-116105812D01*
X135470000Y-116118072D01*
X137170000Y-116118072D01*
X137294482Y-116105812D01*
X137414180Y-116069502D01*
X137524494Y-116010537D01*
X137621185Y-115931185D01*
X137700537Y-115834494D01*
X137759502Y-115724180D01*
X137783966Y-115643534D01*
X137859731Y-115727588D01*
X138093080Y-115901641D01*
X138355901Y-116026825D01*
X138503110Y-116071476D01*
X138733000Y-115950155D01*
X138733000Y-114757000D01*
X138987000Y-114757000D01*
X138987000Y-115950155D01*
X139216890Y-116071476D01*
X139364099Y-116026825D01*
X139626920Y-115901641D01*
X139860269Y-115727588D01*
X140055178Y-115511355D01*
X140204157Y-115261252D01*
X140301481Y-114986891D01*
X140180814Y-114757000D01*
X138987000Y-114757000D01*
X138733000Y-114757000D01*
X138713000Y-114757000D01*
X138713000Y-114503000D01*
X138733000Y-114503000D01*
X138733000Y-114483000D01*
X138987000Y-114483000D01*
X138987000Y-114503000D01*
X140180814Y-114503000D01*
X140301481Y-114273109D01*
X140268087Y-114178967D01*
X143635000Y-114178967D01*
X143635000Y-114501033D01*
X143697832Y-114816912D01*
X143821082Y-115114463D01*
X144000013Y-115382252D01*
X144227748Y-115609987D01*
X144495537Y-115788918D01*
X144793088Y-115912168D01*
X145108967Y-115975000D01*
X145431033Y-115975000D01*
X145746912Y-115912168D01*
X146044463Y-115788918D01*
X146312252Y-115609987D01*
X146539987Y-115382252D01*
X146718918Y-115114463D01*
X146771760Y-114986891D01*
X149311019Y-114986891D01*
X149408343Y-115261252D01*
X149557322Y-115511355D01*
X149752231Y-115727588D01*
X149985580Y-115901641D01*
X150248401Y-116026825D01*
X150395610Y-116071476D01*
X150625500Y-115950155D01*
X150625500Y-114757000D01*
X149431686Y-114757000D01*
X149311019Y-114986891D01*
X146771760Y-114986891D01*
X146842168Y-114816912D01*
X146905000Y-114501033D01*
X146905000Y-114273109D01*
X149311019Y-114273109D01*
X149431686Y-114503000D01*
X150625500Y-114503000D01*
X150625500Y-113309845D01*
X150395610Y-113188524D01*
X150248401Y-113233175D01*
X149985580Y-113358359D01*
X149752231Y-113532412D01*
X149557322Y-113748645D01*
X149408343Y-113998748D01*
X149311019Y-114273109D01*
X146905000Y-114273109D01*
X146905000Y-114178967D01*
X146842168Y-113863088D01*
X146718918Y-113565537D01*
X146539987Y-113297748D01*
X146312252Y-113070013D01*
X146044463Y-112891082D01*
X145746912Y-112767832D01*
X145431033Y-112705000D01*
X145108967Y-112705000D01*
X144793088Y-112767832D01*
X144495537Y-112891082D01*
X144227748Y-113070013D01*
X144000013Y-113297748D01*
X143821082Y-113565537D01*
X143697832Y-113863088D01*
X143635000Y-114178967D01*
X140268087Y-114178967D01*
X140204157Y-113998748D01*
X140055178Y-113748645D01*
X139980683Y-113666000D01*
X142748840Y-113666000D01*
X142792500Y-113670300D01*
X142836160Y-113666000D01*
X142836167Y-113666000D01*
X142966774Y-113653136D01*
X143134351Y-113602303D01*
X143288791Y-113519753D01*
X143424159Y-113408659D01*
X143451999Y-113374737D01*
X144153741Y-112672994D01*
X144187658Y-112645160D01*
X144219666Y-112606159D01*
X144298751Y-112509793D01*
X144298752Y-112509792D01*
X144381302Y-112355352D01*
X144432135Y-112187775D01*
X144432212Y-112186999D01*
X144436314Y-112145341D01*
X144442152Y-112086072D01*
X145210000Y-112086072D01*
X145334482Y-112073812D01*
X145454180Y-112037502D01*
X145564494Y-111978537D01*
X145661185Y-111899185D01*
X145740537Y-111802494D01*
X145799502Y-111692180D01*
X145835812Y-111572482D01*
X145848072Y-111448000D01*
X145848072Y-111017164D01*
X146261742Y-110603494D01*
X146295660Y-110575658D01*
X146406754Y-110440290D01*
X146489304Y-110285850D01*
X146534130Y-110138076D01*
X146540137Y-110118274D01*
X146557302Y-109943999D01*
X146553001Y-109900331D01*
X146553001Y-109281510D01*
X146829832Y-109004680D01*
X149961594Y-109004680D01*
X152403501Y-111446588D01*
X152403500Y-113145769D01*
X152318018Y-113154188D01*
X152198320Y-113190498D01*
X152088006Y-113249463D01*
X151991315Y-113328815D01*
X151911963Y-113425506D01*
X151852998Y-113535820D01*
X151828534Y-113616466D01*
X151752769Y-113532412D01*
X151519420Y-113358359D01*
X151256599Y-113233175D01*
X151109390Y-113188524D01*
X150879500Y-113309845D01*
X150879500Y-114503000D01*
X150899500Y-114503000D01*
X150899500Y-114757000D01*
X150879500Y-114757000D01*
X150879500Y-115950155D01*
X151109390Y-116071476D01*
X151256599Y-116026825D01*
X151519420Y-115901641D01*
X151752769Y-115727588D01*
X151828534Y-115643534D01*
X151852998Y-115724180D01*
X151911963Y-115834494D01*
X151991315Y-115931185D01*
X152088006Y-116010537D01*
X152198320Y-116069502D01*
X152318018Y-116105812D01*
X152442500Y-116118072D01*
X154142500Y-116118072D01*
X154266982Y-116105812D01*
X154386680Y-116069502D01*
X154496994Y-116010537D01*
X154593685Y-115931185D01*
X154673037Y-115834494D01*
X154732002Y-115724180D01*
X154768312Y-115604482D01*
X154780572Y-115480000D01*
X154780572Y-113780000D01*
X154768312Y-113655518D01*
X154732002Y-113535820D01*
X154673037Y-113425506D01*
X154593685Y-113328815D01*
X154496994Y-113249463D01*
X154386680Y-113190498D01*
X154266982Y-113154188D01*
X154181500Y-113145769D01*
X154181500Y-111122019D01*
X154185801Y-111078351D01*
X154168636Y-110904076D01*
X154143173Y-110820135D01*
X154117803Y-110736500D01*
X154035253Y-110582060D01*
X153924159Y-110446692D01*
X153890242Y-110418857D01*
X151587064Y-108115680D01*
X152543755Y-107158990D01*
X155078661Y-107158990D01*
X155077000Y-107175855D01*
X155077000Y-108304146D01*
X155093539Y-108472067D01*
X155158897Y-108687523D01*
X155265033Y-108886089D01*
X155407868Y-109060133D01*
X155581912Y-109202968D01*
X155780478Y-109309103D01*
X155995934Y-109374461D01*
X156220000Y-109396530D01*
X156444067Y-109374461D01*
X156659523Y-109309103D01*
X156858089Y-109202968D01*
X157032133Y-109060133D01*
X157174968Y-108886089D01*
X157281103Y-108687523D01*
X157346461Y-108472067D01*
X157363000Y-108304146D01*
X157363000Y-107175854D01*
X157361339Y-107158990D01*
X157628661Y-107158990D01*
X157627000Y-107175855D01*
X157627000Y-108304146D01*
X157643539Y-108472067D01*
X157708897Y-108687523D01*
X157815033Y-108886089D01*
X157957868Y-109060133D01*
X158131912Y-109202968D01*
X158330478Y-109309103D01*
X158545934Y-109374461D01*
X158770000Y-109396530D01*
X158994067Y-109374461D01*
X159209523Y-109309103D01*
X159408089Y-109202968D01*
X159582133Y-109060133D01*
X159724968Y-108886089D01*
X159831103Y-108687523D01*
X159896461Y-108472067D01*
X159913000Y-108304146D01*
X159913000Y-107175854D01*
X159911339Y-107158990D01*
X163585699Y-107158990D01*
X163625652Y-107290699D01*
X163777426Y-107574647D01*
X163981679Y-107823531D01*
X164230563Y-108027784D01*
X164514511Y-108179558D01*
X164822614Y-108273020D01*
X165062738Y-108296670D01*
X165972622Y-108296670D01*
X166212746Y-108273020D01*
X166520849Y-108179558D01*
X166804797Y-108027784D01*
X167053681Y-107823531D01*
X167257934Y-107574647D01*
X167409708Y-107290699D01*
X167503170Y-106982596D01*
X167534728Y-106662180D01*
X167503170Y-106341764D01*
X167409708Y-106033661D01*
X167257934Y-105749713D01*
X167053681Y-105500829D01*
X166921291Y-105392180D01*
X167053681Y-105283531D01*
X167257934Y-105034647D01*
X167409708Y-104750699D01*
X167503170Y-104442596D01*
X167534728Y-104122180D01*
X167503170Y-103801764D01*
X167457893Y-103652506D01*
X167556294Y-103718255D01*
X167744652Y-103796276D01*
X167944611Y-103836050D01*
X168148489Y-103836050D01*
X168348448Y-103796276D01*
X168536806Y-103718255D01*
X168579018Y-103690050D01*
X169891000Y-103690050D01*
X169891001Y-105523430D01*
X169888651Y-105547296D01*
X168466054Y-106969893D01*
X168432131Y-106997733D01*
X168321037Y-107133102D01*
X168262830Y-107242000D01*
X168244737Y-107275850D01*
X168238487Y-107287542D01*
X168227732Y-107322997D01*
X168188692Y-107451698D01*
X168187654Y-107455119D01*
X168174790Y-107585726D01*
X168174790Y-107585732D01*
X168170490Y-107629392D01*
X168174790Y-107673052D01*
X168174791Y-108917473D01*
X167518276Y-109573989D01*
X161954459Y-109573991D01*
X161910789Y-109569690D01*
X161736515Y-109586854D01*
X161568937Y-109637688D01*
X161414498Y-109720238D01*
X161313049Y-109803495D01*
X161313043Y-109803501D01*
X161279131Y-109831332D01*
X161251300Y-109865244D01*
X158799044Y-112317501D01*
X158765121Y-112345341D01*
X158654027Y-112480710D01*
X158571477Y-112635150D01*
X158560728Y-112670585D01*
X158522281Y-112797332D01*
X158520644Y-112802727D01*
X158507780Y-112933334D01*
X158507780Y-112933340D01*
X158503480Y-112977000D01*
X158507609Y-113018928D01*
X157782500Y-113018928D01*
X157658018Y-113031188D01*
X157538320Y-113067498D01*
X157428006Y-113126463D01*
X157331315Y-113205815D01*
X157251963Y-113302506D01*
X157192998Y-113412820D01*
X157156688Y-113532518D01*
X157144428Y-113657000D01*
X157144428Y-115457000D01*
X157156688Y-115581482D01*
X157192998Y-115701180D01*
X157251963Y-115811494D01*
X157331315Y-115908185D01*
X157428006Y-115987537D01*
X157538320Y-116046502D01*
X157658018Y-116082812D01*
X157782500Y-116095072D01*
X159582500Y-116095072D01*
X159706982Y-116082812D01*
X159826680Y-116046502D01*
X159936994Y-115987537D01*
X159949870Y-115976970D01*
X160159019Y-116148613D01*
X160489962Y-116325506D01*
X160849056Y-116434436D01*
X161222500Y-116471217D01*
X161595945Y-116434436D01*
X161955039Y-116325506D01*
X162285982Y-116148613D01*
X162576056Y-115910556D01*
X162748908Y-115699934D01*
X162854927Y-115794962D01*
X163113880Y-115948234D01*
X163397759Y-116048041D01*
X163635500Y-115927992D01*
X163635500Y-114684000D01*
X163889500Y-114684000D01*
X163889500Y-115927992D01*
X164127241Y-116048041D01*
X164411120Y-115948234D01*
X164670073Y-115794962D01*
X164894149Y-115594116D01*
X165074736Y-115353414D01*
X165204894Y-115082107D01*
X165253536Y-114921740D01*
X165132878Y-114684000D01*
X163889500Y-114684000D01*
X163635500Y-114684000D01*
X163615500Y-114684000D01*
X163615500Y-114430000D01*
X163635500Y-114430000D01*
X163635500Y-114410000D01*
X163889500Y-114410000D01*
X163889500Y-114430000D01*
X165132878Y-114430000D01*
X165253536Y-114192260D01*
X165223125Y-114091999D01*
X168708221Y-114091999D01*
X168801801Y-114101216D01*
X168895381Y-114091999D01*
X168895383Y-114091999D01*
X169019346Y-114079790D01*
X168905829Y-114126810D01*
X168662608Y-114289325D01*
X168455765Y-114496168D01*
X168293250Y-114739389D01*
X168181308Y-115009642D01*
X168124240Y-115296540D01*
X168124240Y-115589060D01*
X168181308Y-115875958D01*
X168293250Y-116146211D01*
X168455765Y-116389432D01*
X168662608Y-116596275D01*
X168905829Y-116758790D01*
X169077746Y-116830000D01*
X133840548Y-116830000D01*
X133903685Y-116778185D01*
X133983037Y-116681494D01*
X134042002Y-116571180D01*
X134078312Y-116451482D01*
X134090572Y-116327000D01*
X134087500Y-116012750D01*
X133928750Y-115854000D01*
X133129500Y-115854000D01*
X133129500Y-115874000D01*
X132875500Y-115874000D01*
X132875500Y-115854000D01*
X132076250Y-115854000D01*
X131917500Y-116012750D01*
X131914428Y-116327000D01*
X131926688Y-116451482D01*
X131962998Y-116571180D01*
X132021963Y-116681494D01*
X132101315Y-116778185D01*
X132164452Y-116830000D01*
X110730000Y-116830000D01*
X110730000Y-113816521D01*
X113750979Y-113816521D01*
X113750979Y-114263479D01*
X113838176Y-114701849D01*
X114009220Y-115114785D01*
X114257536Y-115486417D01*
X114573583Y-115802464D01*
X114945215Y-116050780D01*
X115358151Y-116221824D01*
X115796521Y-116309021D01*
X116243479Y-116309021D01*
X116681849Y-116221824D01*
X117094785Y-116050780D01*
X117466417Y-115802464D01*
X117782464Y-115486417D01*
X118030780Y-115114785D01*
X118201824Y-114701849D01*
X118289021Y-114263479D01*
X118289021Y-114178967D01*
X120135000Y-114178967D01*
X120135000Y-114501033D01*
X120197832Y-114816912D01*
X120321082Y-115114463D01*
X120500013Y-115382252D01*
X120727748Y-115609987D01*
X120995537Y-115788918D01*
X121293088Y-115912168D01*
X121608967Y-115975000D01*
X121931033Y-115975000D01*
X122246912Y-115912168D01*
X122544463Y-115788918D01*
X122812252Y-115609987D01*
X123039987Y-115382252D01*
X123218918Y-115114463D01*
X123342168Y-114816912D01*
X123405000Y-114501033D01*
X123405000Y-114178967D01*
X123342168Y-113863088D01*
X123218918Y-113565537D01*
X123039987Y-113297748D01*
X122812252Y-113070013D01*
X122544463Y-112891082D01*
X122246912Y-112767832D01*
X121931033Y-112705000D01*
X121608967Y-112705000D01*
X121293088Y-112767832D01*
X120995537Y-112891082D01*
X120727748Y-113070013D01*
X120500013Y-113297748D01*
X120321082Y-113565537D01*
X120197832Y-113863088D01*
X120135000Y-114178967D01*
X118289021Y-114178967D01*
X118289021Y-113816521D01*
X118201824Y-113378151D01*
X118030780Y-112965215D01*
X117782464Y-112593583D01*
X117466417Y-112277536D01*
X117094785Y-112029220D01*
X116681849Y-111858176D01*
X116243479Y-111770979D01*
X115796521Y-111770979D01*
X115358151Y-111858176D01*
X114945215Y-112029220D01*
X114573583Y-112277536D01*
X114257536Y-112593583D01*
X114009220Y-112965215D01*
X113838176Y-113378151D01*
X113750979Y-113816521D01*
X110730000Y-113816521D01*
X110730000Y-111614276D01*
X110750000Y-111614276D01*
X110750000Y-111864444D01*
X110798805Y-112109805D01*
X110894541Y-112340931D01*
X111033527Y-112548938D01*
X111210422Y-112725833D01*
X111418429Y-112864819D01*
X111649555Y-112960555D01*
X111894916Y-113009360D01*
X112145084Y-113009360D01*
X112390445Y-112960555D01*
X112621571Y-112864819D01*
X112829578Y-112725833D01*
X113006473Y-112548938D01*
X113145459Y-112340931D01*
X113241195Y-112109805D01*
X113290000Y-111864444D01*
X113290000Y-111614276D01*
X113241195Y-111368915D01*
X113145459Y-111137789D01*
X113006473Y-110929782D01*
X112829578Y-110752887D01*
X112621571Y-110613901D01*
X112390445Y-110518165D01*
X112145084Y-110469360D01*
X111894916Y-110469360D01*
X111649555Y-110518165D01*
X111418429Y-110613901D01*
X111210422Y-110752887D01*
X111033527Y-110929782D01*
X110894541Y-111137789D01*
X110798805Y-111368915D01*
X110750000Y-111614276D01*
X110730000Y-111614276D01*
X110730000Y-107615440D01*
X111324805Y-107615440D01*
X111376369Y-107842586D01*
X111603716Y-107946979D01*
X111847059Y-108005013D01*
X112097049Y-108014458D01*
X112344078Y-107974950D01*
X112578653Y-107888009D01*
X112663631Y-107842586D01*
X112715195Y-107615440D01*
X112020000Y-106920245D01*
X111324805Y-107615440D01*
X110730000Y-107615440D01*
X110730000Y-106817689D01*
X110746182Y-106817689D01*
X110785690Y-107064718D01*
X110872631Y-107299293D01*
X110918054Y-107384271D01*
X111145200Y-107435835D01*
X111840395Y-106740640D01*
X111826253Y-106726498D01*
X112005858Y-106546893D01*
X112020000Y-106561035D01*
X112034143Y-106546893D01*
X112213748Y-106726498D01*
X112199605Y-106740640D01*
X112894800Y-107435835D01*
X113121946Y-107384271D01*
X113226339Y-107156924D01*
X113284373Y-106913581D01*
X113293818Y-106663591D01*
X113254310Y-106416562D01*
X113167369Y-106181987D01*
X113121946Y-106097009D01*
X112894802Y-106045446D01*
X113011740Y-105928508D01*
X112969322Y-105886090D01*
X113006473Y-105848938D01*
X113145459Y-105640931D01*
X113241195Y-105409805D01*
X113290000Y-105164444D01*
X113290000Y-104914276D01*
X113241195Y-104668915D01*
X113145459Y-104437789D01*
X113006473Y-104229782D01*
X112829578Y-104052887D01*
X112621571Y-103913901D01*
X112390445Y-103818165D01*
X112145084Y-103769360D01*
X111894916Y-103769360D01*
X111649555Y-103818165D01*
X111418429Y-103913901D01*
X111210422Y-104052887D01*
X111033527Y-104229782D01*
X110894541Y-104437789D01*
X110798805Y-104668915D01*
X110750000Y-104914276D01*
X110750000Y-105164444D01*
X110798805Y-105409805D01*
X110894541Y-105640931D01*
X111033527Y-105848938D01*
X111070679Y-105886090D01*
X111028260Y-105928508D01*
X111145198Y-106045446D01*
X110918054Y-106097009D01*
X110813661Y-106324356D01*
X110755627Y-106567699D01*
X110746182Y-106817689D01*
X110730000Y-106817689D01*
X110730000Y-100915440D01*
X111324805Y-100915440D01*
X111376369Y-101142586D01*
X111603716Y-101246979D01*
X111847059Y-101305013D01*
X112097049Y-101314458D01*
X112344078Y-101274950D01*
X112578653Y-101188009D01*
X112663631Y-101142586D01*
X112715195Y-100915440D01*
X112020000Y-100220245D01*
X111324805Y-100915440D01*
X110730000Y-100915440D01*
X110730000Y-100117689D01*
X110746182Y-100117689D01*
X110785690Y-100364718D01*
X110872631Y-100599293D01*
X110918054Y-100684271D01*
X111145200Y-100735835D01*
X111840395Y-100040640D01*
X111826253Y-100026498D01*
X112005858Y-99846893D01*
X112020000Y-99861035D01*
X112034143Y-99846893D01*
X112213748Y-100026498D01*
X112199605Y-100040640D01*
X112894800Y-100735835D01*
X113121946Y-100684271D01*
X113226339Y-100456924D01*
X113261199Y-100310750D01*
X116303100Y-100310750D01*
X116312653Y-100430700D01*
X116349311Y-100550292D01*
X116408595Y-100660435D01*
X116488228Y-100756895D01*
X116585150Y-100835966D01*
X116695635Y-100894609D01*
X116815438Y-100930571D01*
X116939955Y-100942469D01*
X117427050Y-100939400D01*
X117585800Y-100780650D01*
X117585800Y-100152000D01*
X116461850Y-100152000D01*
X116303100Y-100310750D01*
X113261199Y-100310750D01*
X113284373Y-100213581D01*
X113293818Y-99963591D01*
X113254310Y-99716562D01*
X113167369Y-99481987D01*
X113121946Y-99397009D01*
X112894802Y-99345446D01*
X113011740Y-99228508D01*
X112969322Y-99186090D01*
X113006473Y-99148938D01*
X113078761Y-99040750D01*
X116303100Y-99040750D01*
X116312653Y-99160700D01*
X116349311Y-99280292D01*
X116408361Y-99390000D01*
X116349311Y-99499708D01*
X116312653Y-99619300D01*
X116303100Y-99739250D01*
X116461850Y-99898000D01*
X117585800Y-99898000D01*
X117585800Y-98882000D01*
X116461850Y-98882000D01*
X116303100Y-99040750D01*
X113078761Y-99040750D01*
X113145459Y-98940931D01*
X113241195Y-98709805D01*
X113290000Y-98464444D01*
X113290000Y-98214276D01*
X113241195Y-97968915D01*
X113159112Y-97770750D01*
X116303100Y-97770750D01*
X116312653Y-97890700D01*
X116349311Y-98010292D01*
X116408361Y-98120000D01*
X116349311Y-98229708D01*
X116312653Y-98349300D01*
X116303100Y-98469250D01*
X116461850Y-98628000D01*
X117585800Y-98628000D01*
X117585800Y-97612000D01*
X116461850Y-97612000D01*
X116303100Y-97770750D01*
X113159112Y-97770750D01*
X113145459Y-97737789D01*
X113006473Y-97529782D01*
X112829578Y-97352887D01*
X112621571Y-97213901D01*
X112390445Y-97118165D01*
X112145084Y-97069360D01*
X111894916Y-97069360D01*
X111649555Y-97118165D01*
X111418429Y-97213901D01*
X111210422Y-97352887D01*
X111033527Y-97529782D01*
X110894541Y-97737789D01*
X110798805Y-97968915D01*
X110750000Y-98214276D01*
X110750000Y-98464444D01*
X110798805Y-98709805D01*
X110894541Y-98940931D01*
X111033527Y-99148938D01*
X111070679Y-99186090D01*
X111028260Y-99228508D01*
X111145198Y-99345446D01*
X110918054Y-99397009D01*
X110813661Y-99624356D01*
X110755627Y-99867699D01*
X110746182Y-100117689D01*
X110730000Y-100117689D01*
X110730000Y-96500750D01*
X116303100Y-96500750D01*
X116312653Y-96620700D01*
X116349311Y-96740292D01*
X116408361Y-96850000D01*
X116349311Y-96959708D01*
X116312653Y-97079300D01*
X116303100Y-97199250D01*
X116461850Y-97358000D01*
X117585800Y-97358000D01*
X117585800Y-96342000D01*
X117839800Y-96342000D01*
X117839800Y-97358000D01*
X118963750Y-97358000D01*
X119122500Y-97199250D01*
X119112947Y-97079300D01*
X119076289Y-96959708D01*
X119017239Y-96850000D01*
X119076289Y-96740292D01*
X119112947Y-96620700D01*
X119122500Y-96500750D01*
X118963750Y-96342000D01*
X117839800Y-96342000D01*
X117585800Y-96342000D01*
X116461850Y-96342000D01*
X116303100Y-96500750D01*
X110730000Y-96500750D01*
X110730000Y-95929250D01*
X116303100Y-95929250D01*
X116461850Y-96088000D01*
X117585800Y-96088000D01*
X117585800Y-95459350D01*
X117839800Y-95459350D01*
X117839800Y-96088000D01*
X118963750Y-96088000D01*
X119122500Y-95929250D01*
X119112947Y-95809300D01*
X119076289Y-95689708D01*
X119017005Y-95579565D01*
X118937372Y-95483105D01*
X118840450Y-95404034D01*
X118729965Y-95345391D01*
X118610162Y-95309429D01*
X118485645Y-95297531D01*
X117998550Y-95300600D01*
X117839800Y-95459350D01*
X117585800Y-95459350D01*
X117427050Y-95300600D01*
X116939955Y-95297531D01*
X116815438Y-95309429D01*
X116695635Y-95345391D01*
X116585150Y-95404034D01*
X116488228Y-95483105D01*
X116408595Y-95579565D01*
X116349311Y-95689708D01*
X116312653Y-95809300D01*
X116303100Y-95929250D01*
X110730000Y-95929250D01*
X110730000Y-94215440D01*
X111324805Y-94215440D01*
X111376369Y-94442586D01*
X111603716Y-94546979D01*
X111847059Y-94605013D01*
X112097049Y-94614458D01*
X112344078Y-94574950D01*
X112578653Y-94488009D01*
X112663631Y-94442586D01*
X112715195Y-94215440D01*
X112020000Y-93520245D01*
X111324805Y-94215440D01*
X110730000Y-94215440D01*
X110730000Y-93417689D01*
X110746182Y-93417689D01*
X110785690Y-93664718D01*
X110872631Y-93899293D01*
X110918054Y-93984271D01*
X111145200Y-94035835D01*
X111840395Y-93340640D01*
X112199605Y-93340640D01*
X112894800Y-94035835D01*
X113121946Y-93984271D01*
X113226339Y-93756924D01*
X113284373Y-93513581D01*
X113293818Y-93263591D01*
X113254310Y-93016562D01*
X113167369Y-92781987D01*
X113121946Y-92697009D01*
X112894800Y-92645445D01*
X112199605Y-93340640D01*
X111840395Y-93340640D01*
X111145200Y-92645445D01*
X110918054Y-92697009D01*
X110813661Y-92924356D01*
X110755627Y-93167699D01*
X110746182Y-93417689D01*
X110730000Y-93417689D01*
X110730000Y-92465840D01*
X111324805Y-92465840D01*
X112020000Y-93161035D01*
X112715195Y-92465840D01*
X112663631Y-92238694D01*
X112436284Y-92134301D01*
X112192941Y-92076267D01*
X111942951Y-92066822D01*
X111695922Y-92106330D01*
X111461347Y-92193271D01*
X111376369Y-92238694D01*
X111324805Y-92465840D01*
X110730000Y-92465840D01*
X110730000Y-90816521D01*
X113750979Y-90816521D01*
X113750979Y-91263479D01*
X113838176Y-91701849D01*
X114009220Y-92114785D01*
X114257536Y-92486417D01*
X114573583Y-92802464D01*
X114945215Y-93050780D01*
X115358151Y-93221824D01*
X115796521Y-93309021D01*
X116243479Y-93309021D01*
X116681849Y-93221824D01*
X117094785Y-93050780D01*
X117466417Y-92802464D01*
X117782464Y-92486417D01*
X118030780Y-92114785D01*
X118201824Y-91701849D01*
X118289021Y-91263479D01*
X118289021Y-90816521D01*
X118201987Y-90378967D01*
X120135000Y-90378967D01*
X120135000Y-90701033D01*
X120197832Y-91016912D01*
X120321082Y-91314463D01*
X120500013Y-91582252D01*
X120727748Y-91809987D01*
X120995537Y-91988918D01*
X121293088Y-92112168D01*
X121608967Y-92175000D01*
X121931033Y-92175000D01*
X122246912Y-92112168D01*
X122544463Y-91988918D01*
X122812252Y-91809987D01*
X123039987Y-91582252D01*
X123218918Y-91314463D01*
X123342168Y-91016912D01*
X123405000Y-90701033D01*
X123405000Y-90378967D01*
X123342168Y-90063088D01*
X123218918Y-89765537D01*
X123039987Y-89497748D01*
X122812252Y-89270013D01*
X122544463Y-89091082D01*
X122246912Y-88967832D01*
X121931033Y-88905000D01*
X121608967Y-88905000D01*
X121293088Y-88967832D01*
X120995537Y-89091082D01*
X120727748Y-89270013D01*
X120500013Y-89497748D01*
X120321082Y-89765537D01*
X120197832Y-90063088D01*
X120135000Y-90378967D01*
X118201987Y-90378967D01*
X118201824Y-90378151D01*
X118030780Y-89965215D01*
X117782464Y-89593583D01*
X117466417Y-89277536D01*
X117094785Y-89029220D01*
X116681849Y-88858176D01*
X116243479Y-88770979D01*
X115796521Y-88770979D01*
X115358151Y-88858176D01*
X114945215Y-89029220D01*
X114573583Y-89277536D01*
X114257536Y-89593583D01*
X114009220Y-89965215D01*
X113838176Y-90378151D01*
X113750979Y-90816521D01*
X110730000Y-90816521D01*
X110730000Y-88250000D01*
X193810001Y-88250000D01*
X193810001Y-93934268D01*
G36*
X192019500Y-108800000D02*
G01*
X193165500Y-108800000D01*
X193165500Y-108780000D01*
X193419500Y-108780000D01*
X193419500Y-108800000D01*
X193439500Y-108800000D01*
X193439500Y-109054000D01*
X193419500Y-109054000D01*
X193419500Y-110003250D01*
X193578250Y-110162000D01*
X193667500Y-110165072D01*
X193791982Y-110152812D01*
X193810000Y-110147346D01*
X193810000Y-116830000D01*
X173461801Y-116830000D01*
X173502796Y-116796356D01*
X173562456Y-116723660D01*
X173572610Y-116713506D01*
X173751012Y-116496122D01*
X173927905Y-116165179D01*
X174036835Y-115806085D01*
X174073616Y-115432641D01*
X174054240Y-115235913D01*
X174054240Y-113816521D01*
X188750979Y-113816521D01*
X188750979Y-114263479D01*
X188838176Y-114701849D01*
X189009220Y-115114785D01*
X189257536Y-115486417D01*
X189573583Y-115802464D01*
X189945215Y-116050780D01*
X190358151Y-116221824D01*
X190796521Y-116309021D01*
X191243479Y-116309021D01*
X191681849Y-116221824D01*
X192094785Y-116050780D01*
X192466417Y-115802464D01*
X192782464Y-115486417D01*
X193030780Y-115114785D01*
X193201824Y-114701849D01*
X193289021Y-114263479D01*
X193289021Y-113816521D01*
X193201824Y-113378151D01*
X193030780Y-112965215D01*
X192782464Y-112593583D01*
X192466417Y-112277536D01*
X192094785Y-112029220D01*
X191681849Y-111858176D01*
X191243479Y-111770979D01*
X190796521Y-111770979D01*
X190358151Y-111858176D01*
X189945215Y-112029220D01*
X189573583Y-112277536D01*
X189257536Y-112593583D01*
X189009220Y-112965215D01*
X188838176Y-113378151D01*
X188750979Y-113816521D01*
X174054240Y-113816521D01*
X174054240Y-113374726D01*
X174127916Y-113236888D01*
X174236846Y-112877794D01*
X174264410Y-112597931D01*
X174264410Y-112597929D01*
X174273627Y-112504350D01*
X174264410Y-112410770D01*
X174264410Y-112272880D01*
X176346602Y-112272880D01*
X176447760Y-112262917D01*
X176548918Y-112272880D01*
X178685642Y-112272880D01*
X178779222Y-112282097D01*
X178872802Y-112272880D01*
X178872804Y-112272880D01*
X179152667Y-112245316D01*
X179511761Y-112136386D01*
X179842704Y-111959493D01*
X180132778Y-111721436D01*
X180192442Y-111648735D01*
X180623297Y-111217880D01*
X182504428Y-111217880D01*
X182516688Y-111342362D01*
X182552998Y-111462060D01*
X182611963Y-111572374D01*
X182691315Y-111669065D01*
X182788006Y-111748417D01*
X182898320Y-111807382D01*
X183018018Y-111843692D01*
X183142500Y-111855952D01*
X185456750Y-111852880D01*
X185615500Y-111694130D01*
X185615500Y-110494880D01*
X185869500Y-110494880D01*
X185869500Y-111694130D01*
X186028250Y-111852880D01*
X188342500Y-111855952D01*
X188466982Y-111843692D01*
X188586680Y-111807382D01*
X188696994Y-111748417D01*
X188793685Y-111669065D01*
X188873037Y-111572374D01*
X188932002Y-111462060D01*
X188968312Y-111342362D01*
X188980572Y-111217880D01*
X188977500Y-110653630D01*
X188818750Y-110494880D01*
X185869500Y-110494880D01*
X185615500Y-110494880D01*
X182666250Y-110494880D01*
X182507500Y-110653630D01*
X182504428Y-111217880D01*
X180623297Y-111217880D01*
X182546693Y-109294485D01*
X182516688Y-109393398D01*
X182504428Y-109517880D01*
X182507500Y-110082130D01*
X182666250Y-110240880D01*
X185615500Y-110240880D01*
X185615500Y-110220880D01*
X185869500Y-110220880D01*
X185869500Y-110240880D01*
X188818750Y-110240880D01*
X188977500Y-110082130D01*
X188978204Y-109952879D01*
X189649248Y-109952879D01*
X189711621Y-109959022D01*
X189773994Y-109952879D01*
X189774001Y-109952879D01*
X189960584Y-109934502D01*
X190199980Y-109861882D01*
X190420609Y-109743954D01*
X190547189Y-109640072D01*
X190642500Y-109640072D01*
X190766982Y-109627812D01*
X190885807Y-109591767D01*
X190891688Y-109651482D01*
X190927998Y-109771180D01*
X190986963Y-109881494D01*
X191066315Y-109978185D01*
X191163006Y-110057537D01*
X191273320Y-110116502D01*
X191393018Y-110152812D01*
X191517500Y-110165072D01*
X191606750Y-110162000D01*
X191765500Y-110003250D01*
X191765500Y-109054000D01*
X192019500Y-109054000D01*
X192019500Y-110003250D01*
X192178250Y-110162000D01*
X192267500Y-110165072D01*
X192391982Y-110152812D01*
X192511680Y-110116502D01*
X192592500Y-110073302D01*
X192673320Y-110116502D01*
X192793018Y-110152812D01*
X192917500Y-110165072D01*
X193006750Y-110162000D01*
X193165500Y-110003250D01*
X193165500Y-109054000D01*
X192019500Y-109054000D01*
X191765500Y-109054000D01*
X191745500Y-109054000D01*
X191745500Y-108800000D01*
X191765500Y-108800000D01*
X191765500Y-108780000D01*
X192019500Y-108780000D01*
X192019500Y-108800000D01*
G37*
X192019500Y-108800000D02*
X193165500Y-108800000D01*
X193165500Y-108780000D01*
X193419500Y-108780000D01*
X193419500Y-108800000D01*
X193439500Y-108800000D01*
X193439500Y-109054000D01*
X193419500Y-109054000D01*
X193419500Y-110003250D01*
X193578250Y-110162000D01*
X193667500Y-110165072D01*
X193791982Y-110152812D01*
X193810000Y-110147346D01*
X193810000Y-116830000D01*
X173461801Y-116830000D01*
X173502796Y-116796356D01*
X173562456Y-116723660D01*
X173572610Y-116713506D01*
X173751012Y-116496122D01*
X173927905Y-116165179D01*
X174036835Y-115806085D01*
X174073616Y-115432641D01*
X174054240Y-115235913D01*
X174054240Y-113816521D01*
X188750979Y-113816521D01*
X188750979Y-114263479D01*
X188838176Y-114701849D01*
X189009220Y-115114785D01*
X189257536Y-115486417D01*
X189573583Y-115802464D01*
X189945215Y-116050780D01*
X190358151Y-116221824D01*
X190796521Y-116309021D01*
X191243479Y-116309021D01*
X191681849Y-116221824D01*
X192094785Y-116050780D01*
X192466417Y-115802464D01*
X192782464Y-115486417D01*
X193030780Y-115114785D01*
X193201824Y-114701849D01*
X193289021Y-114263479D01*
X193289021Y-113816521D01*
X193201824Y-113378151D01*
X193030780Y-112965215D01*
X192782464Y-112593583D01*
X192466417Y-112277536D01*
X192094785Y-112029220D01*
X191681849Y-111858176D01*
X191243479Y-111770979D01*
X190796521Y-111770979D01*
X190358151Y-111858176D01*
X189945215Y-112029220D01*
X189573583Y-112277536D01*
X189257536Y-112593583D01*
X189009220Y-112965215D01*
X188838176Y-113378151D01*
X188750979Y-113816521D01*
X174054240Y-113816521D01*
X174054240Y-113374726D01*
X174127916Y-113236888D01*
X174236846Y-112877794D01*
X174264410Y-112597931D01*
X174264410Y-112597929D01*
X174273627Y-112504350D01*
X174264410Y-112410770D01*
X174264410Y-112272880D01*
X176346602Y-112272880D01*
X176447760Y-112262917D01*
X176548918Y-112272880D01*
X178685642Y-112272880D01*
X178779222Y-112282097D01*
X178872802Y-112272880D01*
X178872804Y-112272880D01*
X179152667Y-112245316D01*
X179511761Y-112136386D01*
X179842704Y-111959493D01*
X180132778Y-111721436D01*
X180192442Y-111648735D01*
X180623297Y-111217880D01*
X182504428Y-111217880D01*
X182516688Y-111342362D01*
X182552998Y-111462060D01*
X182611963Y-111572374D01*
X182691315Y-111669065D01*
X182788006Y-111748417D01*
X182898320Y-111807382D01*
X183018018Y-111843692D01*
X183142500Y-111855952D01*
X185456750Y-111852880D01*
X185615500Y-111694130D01*
X185615500Y-110494880D01*
X185869500Y-110494880D01*
X185869500Y-111694130D01*
X186028250Y-111852880D01*
X188342500Y-111855952D01*
X188466982Y-111843692D01*
X188586680Y-111807382D01*
X188696994Y-111748417D01*
X188793685Y-111669065D01*
X188873037Y-111572374D01*
X188932002Y-111462060D01*
X188968312Y-111342362D01*
X188980572Y-111217880D01*
X188977500Y-110653630D01*
X188818750Y-110494880D01*
X185869500Y-110494880D01*
X185615500Y-110494880D01*
X182666250Y-110494880D01*
X182507500Y-110653630D01*
X182504428Y-111217880D01*
X180623297Y-111217880D01*
X182546693Y-109294485D01*
X182516688Y-109393398D01*
X182504428Y-109517880D01*
X182507500Y-110082130D01*
X182666250Y-110240880D01*
X185615500Y-110240880D01*
X185615500Y-110220880D01*
X185869500Y-110220880D01*
X185869500Y-110240880D01*
X188818750Y-110240880D01*
X188977500Y-110082130D01*
X188978204Y-109952879D01*
X189649248Y-109952879D01*
X189711621Y-109959022D01*
X189773994Y-109952879D01*
X189774001Y-109952879D01*
X189960584Y-109934502D01*
X190199980Y-109861882D01*
X190420609Y-109743954D01*
X190547189Y-109640072D01*
X190642500Y-109640072D01*
X190766982Y-109627812D01*
X190885807Y-109591767D01*
X190891688Y-109651482D01*
X190927998Y-109771180D01*
X190986963Y-109881494D01*
X191066315Y-109978185D01*
X191163006Y-110057537D01*
X191273320Y-110116502D01*
X191393018Y-110152812D01*
X191517500Y-110165072D01*
X191606750Y-110162000D01*
X191765500Y-110003250D01*
X191765500Y-109054000D01*
X192019500Y-109054000D01*
X192019500Y-110003250D01*
X192178250Y-110162000D01*
X192267500Y-110165072D01*
X192391982Y-110152812D01*
X192511680Y-110116502D01*
X192592500Y-110073302D01*
X192673320Y-110116502D01*
X192793018Y-110152812D01*
X192917500Y-110165072D01*
X193006750Y-110162000D01*
X193165500Y-110003250D01*
X193165500Y-109054000D01*
X192019500Y-109054000D01*
X191765500Y-109054000D01*
X191745500Y-109054000D01*
X191745500Y-108800000D01*
X191765500Y-108800000D01*
X191765500Y-108780000D01*
X192019500Y-108780000D01*
X192019500Y-108800000D01*
G36*
X173548960Y-103327000D02*
G01*
X173568960Y-103327000D01*
X173568960Y-103581000D01*
X173548960Y-103581000D01*
X173548960Y-104380250D01*
X173707710Y-104539000D01*
X173899301Y-104540873D01*
X173899301Y-105992797D01*
X173753250Y-105994000D01*
X173594500Y-106152750D01*
X173594500Y-106781400D01*
X173614500Y-106781400D01*
X173614500Y-107035400D01*
X173594500Y-107035400D01*
X173594500Y-107664050D01*
X173753250Y-107822800D01*
X173899301Y-107824003D01*
X173899301Y-108462880D01*
X173278059Y-108462880D01*
X173184479Y-108453663D01*
X173090899Y-108462880D01*
X173090897Y-108462880D01*
X173087248Y-108463239D01*
X173160535Y-108221645D01*
X173197317Y-107848200D01*
X173193644Y-107810906D01*
X173340500Y-107664050D01*
X173340500Y-107035400D01*
X173320500Y-107035400D01*
X173320500Y-106781400D01*
X173340500Y-106781400D01*
X173340500Y-106152750D01*
X173181750Y-105994000D01*
X172809172Y-105990931D01*
X172684651Y-106002788D01*
X172581572Y-106033691D01*
X172581572Y-105689200D01*
X172569312Y-105564718D01*
X172533002Y-105445020D01*
X172474037Y-105334706D01*
X172394685Y-105238015D01*
X172297994Y-105158663D01*
X172187680Y-105099698D01*
X172067982Y-105063388D01*
X171943500Y-105051128D01*
X171669000Y-105051128D01*
X171669000Y-104542072D01*
X171821960Y-104542072D01*
X171946442Y-104529812D01*
X172066140Y-104493502D01*
X172176454Y-104434537D01*
X172273145Y-104355185D01*
X172321960Y-104295704D01*
X172370775Y-104355185D01*
X172467466Y-104434537D01*
X172577780Y-104493502D01*
X172697478Y-104529812D01*
X172821960Y-104542072D01*
X173136210Y-104539000D01*
X173294960Y-104380250D01*
X173294960Y-103581000D01*
X173274960Y-103581000D01*
X173274960Y-103327000D01*
X173294960Y-103327000D01*
X173294960Y-103307000D01*
X173548960Y-103307000D01*
X173548960Y-103327000D01*
G37*
X173548960Y-103327000D02*
X173568960Y-103327000D01*
X173568960Y-103581000D01*
X173548960Y-103581000D01*
X173548960Y-104380250D01*
X173707710Y-104539000D01*
X173899301Y-104540873D01*
X173899301Y-105992797D01*
X173753250Y-105994000D01*
X173594500Y-106152750D01*
X173594500Y-106781400D01*
X173614500Y-106781400D01*
X173614500Y-107035400D01*
X173594500Y-107035400D01*
X173594500Y-107664050D01*
X173753250Y-107822800D01*
X173899301Y-107824003D01*
X173899301Y-108462880D01*
X173278059Y-108462880D01*
X173184479Y-108453663D01*
X173090899Y-108462880D01*
X173090897Y-108462880D01*
X173087248Y-108463239D01*
X173160535Y-108221645D01*
X173197317Y-107848200D01*
X173193644Y-107810906D01*
X173340500Y-107664050D01*
X173340500Y-107035400D01*
X173320500Y-107035400D01*
X173320500Y-106781400D01*
X173340500Y-106781400D01*
X173340500Y-106152750D01*
X173181750Y-105994000D01*
X172809172Y-105990931D01*
X172684651Y-106002788D01*
X172581572Y-106033691D01*
X172581572Y-105689200D01*
X172569312Y-105564718D01*
X172533002Y-105445020D01*
X172474037Y-105334706D01*
X172394685Y-105238015D01*
X172297994Y-105158663D01*
X172187680Y-105099698D01*
X172067982Y-105063388D01*
X171943500Y-105051128D01*
X171669000Y-105051128D01*
X171669000Y-104542072D01*
X171821960Y-104542072D01*
X171946442Y-104529812D01*
X172066140Y-104493502D01*
X172176454Y-104434537D01*
X172273145Y-104355185D01*
X172321960Y-104295704D01*
X172370775Y-104355185D01*
X172467466Y-104434537D01*
X172577780Y-104493502D01*
X172697478Y-104529812D01*
X172821960Y-104542072D01*
X173136210Y-104539000D01*
X173294960Y-104380250D01*
X173294960Y-103581000D01*
X173274960Y-103581000D01*
X173274960Y-103327000D01*
X173294960Y-103327000D01*
X173294960Y-103307000D01*
X173548960Y-103307000D01*
X173548960Y-103327000D01*
G36*
X147817119Y-97663531D02*
G01*
X147949509Y-97772180D01*
X147817119Y-97880829D01*
X147612866Y-98129713D01*
X147461092Y-98413661D01*
X147367630Y-98721764D01*
X147336072Y-99042180D01*
X147367630Y-99362596D01*
X147461092Y-99670699D01*
X147612866Y-99954647D01*
X147817119Y-100203531D01*
X147949509Y-100312180D01*
X147817119Y-100420829D01*
X147612866Y-100669713D01*
X147461092Y-100953661D01*
X147367630Y-101261764D01*
X147336072Y-101582180D01*
X147367630Y-101902596D01*
X147461092Y-102210699D01*
X147463277Y-102214787D01*
X146927234Y-102750831D01*
X146893311Y-102778671D01*
X146782217Y-102914040D01*
X146699667Y-103068480D01*
X146686420Y-103112150D01*
X146649707Y-103233180D01*
X146648834Y-103236057D01*
X146635970Y-103366664D01*
X146635970Y-103366670D01*
X146631670Y-103410330D01*
X146635970Y-103453990D01*
X146635970Y-103680243D01*
X146303213Y-104013000D01*
X145671185Y-104013000D01*
X145661185Y-104000815D01*
X145564494Y-103921463D01*
X145499000Y-103886455D01*
X145499000Y-103738160D01*
X145503300Y-103694500D01*
X145499000Y-103650840D01*
X145499000Y-103650833D01*
X145486136Y-103520226D01*
X145468682Y-103462685D01*
X145454769Y-103416820D01*
X145435303Y-103352649D01*
X145352753Y-103198209D01*
X145281052Y-103110841D01*
X145269495Y-103096759D01*
X145269494Y-103096758D01*
X145241659Y-103062841D01*
X145207743Y-103035007D01*
X144343989Y-102171254D01*
X144316149Y-102137331D01*
X144180781Y-102026237D01*
X144026341Y-101943687D01*
X143858764Y-101892854D01*
X143728157Y-101879990D01*
X143728150Y-101879990D01*
X143684490Y-101875690D01*
X143640830Y-101879990D01*
X141242893Y-101879990D01*
X141199233Y-101875690D01*
X141155573Y-101879990D01*
X141155567Y-101879990D01*
X141058158Y-101889584D01*
X141024958Y-101892854D01*
X140923292Y-101923694D01*
X140857383Y-101943687D01*
X140702943Y-102026237D01*
X140567575Y-102137331D01*
X140539735Y-102171254D01*
X138786478Y-103924511D01*
X134828253Y-103924511D01*
X134854770Y-103791203D01*
X134854770Y-103582206D01*
X135271512Y-103165464D01*
X135305430Y-103137628D01*
X135338971Y-103096759D01*
X135416523Y-103002261D01*
X135416524Y-103002260D01*
X135499074Y-102847820D01*
X135535561Y-102727537D01*
X135549907Y-102680244D01*
X135567072Y-102505969D01*
X135562771Y-102462301D01*
X135562771Y-101873961D01*
X136198251Y-101238482D01*
X136232169Y-101210646D01*
X136343263Y-101075278D01*
X136425813Y-100920838D01*
X136458118Y-100814342D01*
X136476646Y-100753263D01*
X136482339Y-100695463D01*
X136489510Y-100622654D01*
X136489510Y-100622648D01*
X136493810Y-100578988D01*
X136489510Y-100535328D01*
X136489510Y-98745235D01*
X136809746Y-98425000D01*
X141348815Y-98425000D01*
X141358815Y-98437185D01*
X141455506Y-98516537D01*
X141565820Y-98575502D01*
X141685518Y-98611812D01*
X141810000Y-98624072D01*
X143010000Y-98624072D01*
X143134482Y-98611812D01*
X143254180Y-98575502D01*
X143364494Y-98516537D01*
X143461185Y-98437185D01*
X143510000Y-98377704D01*
X143558815Y-98437185D01*
X143655506Y-98516537D01*
X143765820Y-98575502D01*
X143885518Y-98611812D01*
X144010000Y-98624072D01*
X145210000Y-98624072D01*
X145334482Y-98611812D01*
X145454180Y-98575502D01*
X145564494Y-98516537D01*
X145661185Y-98437185D01*
X145671185Y-98425000D01*
X146389840Y-98425000D01*
X146433500Y-98429300D01*
X146477160Y-98425000D01*
X146477167Y-98425000D01*
X146607774Y-98412136D01*
X146775351Y-98361303D01*
X146929791Y-98278753D01*
X147065159Y-98167659D01*
X147092999Y-98133736D01*
X147702666Y-97524069D01*
X147817119Y-97663531D01*
G37*
X147817119Y-97663531D02*
X147949509Y-97772180D01*
X147817119Y-97880829D01*
X147612866Y-98129713D01*
X147461092Y-98413661D01*
X147367630Y-98721764D01*
X147336072Y-99042180D01*
X147367630Y-99362596D01*
X147461092Y-99670699D01*
X147612866Y-99954647D01*
X147817119Y-100203531D01*
X147949509Y-100312180D01*
X147817119Y-100420829D01*
X147612866Y-100669713D01*
X147461092Y-100953661D01*
X147367630Y-101261764D01*
X147336072Y-101582180D01*
X147367630Y-101902596D01*
X147461092Y-102210699D01*
X147463277Y-102214787D01*
X146927234Y-102750831D01*
X146893311Y-102778671D01*
X146782217Y-102914040D01*
X146699667Y-103068480D01*
X146686420Y-103112150D01*
X146649707Y-103233180D01*
X146648834Y-103236057D01*
X146635970Y-103366664D01*
X146635970Y-103366670D01*
X146631670Y-103410330D01*
X146635970Y-103453990D01*
X146635970Y-103680243D01*
X146303213Y-104013000D01*
X145671185Y-104013000D01*
X145661185Y-104000815D01*
X145564494Y-103921463D01*
X145499000Y-103886455D01*
X145499000Y-103738160D01*
X145503300Y-103694500D01*
X145499000Y-103650840D01*
X145499000Y-103650833D01*
X145486136Y-103520226D01*
X145468682Y-103462685D01*
X145454769Y-103416820D01*
X145435303Y-103352649D01*
X145352753Y-103198209D01*
X145281052Y-103110841D01*
X145269495Y-103096759D01*
X145269494Y-103096758D01*
X145241659Y-103062841D01*
X145207743Y-103035007D01*
X144343989Y-102171254D01*
X144316149Y-102137331D01*
X144180781Y-102026237D01*
X144026341Y-101943687D01*
X143858764Y-101892854D01*
X143728157Y-101879990D01*
X143728150Y-101879990D01*
X143684490Y-101875690D01*
X143640830Y-101879990D01*
X141242893Y-101879990D01*
X141199233Y-101875690D01*
X141155573Y-101879990D01*
X141155567Y-101879990D01*
X141058158Y-101889584D01*
X141024958Y-101892854D01*
X140923292Y-101923694D01*
X140857383Y-101943687D01*
X140702943Y-102026237D01*
X140567575Y-102137331D01*
X140539735Y-102171254D01*
X138786478Y-103924511D01*
X134828253Y-103924511D01*
X134854770Y-103791203D01*
X134854770Y-103582206D01*
X135271512Y-103165464D01*
X135305430Y-103137628D01*
X135338971Y-103096759D01*
X135416523Y-103002261D01*
X135416524Y-103002260D01*
X135499074Y-102847820D01*
X135535561Y-102727537D01*
X135549907Y-102680244D01*
X135567072Y-102505969D01*
X135562771Y-102462301D01*
X135562771Y-101873961D01*
X136198251Y-101238482D01*
X136232169Y-101210646D01*
X136343263Y-101075278D01*
X136425813Y-100920838D01*
X136458118Y-100814342D01*
X136476646Y-100753263D01*
X136482339Y-100695463D01*
X136489510Y-100622654D01*
X136489510Y-100622648D01*
X136493810Y-100578988D01*
X136489510Y-100535328D01*
X136489510Y-98745235D01*
X136809746Y-98425000D01*
X141348815Y-98425000D01*
X141358815Y-98437185D01*
X141455506Y-98516537D01*
X141565820Y-98575502D01*
X141685518Y-98611812D01*
X141810000Y-98624072D01*
X143010000Y-98624072D01*
X143134482Y-98611812D01*
X143254180Y-98575502D01*
X143364494Y-98516537D01*
X143461185Y-98437185D01*
X143510000Y-98377704D01*
X143558815Y-98437185D01*
X143655506Y-98516537D01*
X143765820Y-98575502D01*
X143885518Y-98611812D01*
X144010000Y-98624072D01*
X145210000Y-98624072D01*
X145334482Y-98611812D01*
X145454180Y-98575502D01*
X145564494Y-98516537D01*
X145661185Y-98437185D01*
X145671185Y-98425000D01*
X146389840Y-98425000D01*
X146433500Y-98429300D01*
X146477160Y-98425000D01*
X146477167Y-98425000D01*
X146607774Y-98412136D01*
X146775351Y-98361303D01*
X146929791Y-98278753D01*
X147065159Y-98167659D01*
X147092999Y-98133736D01*
X147702666Y-97524069D01*
X147817119Y-97663531D01*
G36*
X131477229Y-98464349D02*
G01*
X131472929Y-98508009D01*
X131477229Y-98551669D01*
X131477229Y-98551675D01*
X131487825Y-98659251D01*
X131490093Y-98682283D01*
X131506129Y-98735148D01*
X131540926Y-98849859D01*
X131623476Y-99004299D01*
X131734570Y-99139668D01*
X131768493Y-99167508D01*
X132185230Y-99584245D01*
X132185230Y-99793243D01*
X132236525Y-100051118D01*
X132337143Y-100294031D01*
X132483217Y-100512646D01*
X132630571Y-100660000D01*
X132483217Y-100807354D01*
X132337143Y-101025969D01*
X132236525Y-101268882D01*
X132185230Y-101526757D01*
X132185230Y-101789683D01*
X132236525Y-102047558D01*
X132337143Y-102290471D01*
X132483217Y-102509086D01*
X132633111Y-102658980D01*
X132483217Y-102808874D01*
X132337143Y-103027489D01*
X132236525Y-103270402D01*
X132185230Y-103528277D01*
X132185230Y-103791203D01*
X132211747Y-103924511D01*
X129797247Y-103924511D01*
X125897735Y-100025000D01*
X126144886Y-99777850D01*
X126178802Y-99750016D01*
X126217510Y-99702851D01*
X126271342Y-99637256D01*
X126289896Y-99614648D01*
X126372446Y-99460208D01*
X126402056Y-99362596D01*
X126423279Y-99292632D01*
X126424914Y-99276032D01*
X126436143Y-99162024D01*
X126436143Y-99162017D01*
X126440443Y-99118357D01*
X126436143Y-99074697D01*
X126436143Y-93590592D01*
X126452724Y-93574010D01*
X127579808Y-93574010D01*
X127688563Y-93736774D01*
X127832726Y-93880937D01*
X128002244Y-93994205D01*
X128190602Y-94072226D01*
X128390561Y-94112000D01*
X128594439Y-94112000D01*
X128794398Y-94072226D01*
X128982756Y-93994205D01*
X129152274Y-93880937D01*
X129296437Y-93736774D01*
X129409705Y-93567256D01*
X129487726Y-93378898D01*
X129527500Y-93178939D01*
X129527500Y-92975061D01*
X129505807Y-92866000D01*
X131477230Y-92866000D01*
X131477229Y-98464349D01*
G37*
X131477229Y-98464349D02*
X131472929Y-98508009D01*
X131477229Y-98551669D01*
X131477229Y-98551675D01*
X131487825Y-98659251D01*
X131490093Y-98682283D01*
X131506129Y-98735148D01*
X131540926Y-98849859D01*
X131623476Y-99004299D01*
X131734570Y-99139668D01*
X131768493Y-99167508D01*
X132185230Y-99584245D01*
X132185230Y-99793243D01*
X132236525Y-100051118D01*
X132337143Y-100294031D01*
X132483217Y-100512646D01*
X132630571Y-100660000D01*
X132483217Y-100807354D01*
X132337143Y-101025969D01*
X132236525Y-101268882D01*
X132185230Y-101526757D01*
X132185230Y-101789683D01*
X132236525Y-102047558D01*
X132337143Y-102290471D01*
X132483217Y-102509086D01*
X132633111Y-102658980D01*
X132483217Y-102808874D01*
X132337143Y-103027489D01*
X132236525Y-103270402D01*
X132185230Y-103528277D01*
X132185230Y-103791203D01*
X132211747Y-103924511D01*
X129797247Y-103924511D01*
X125897735Y-100025000D01*
X126144886Y-99777850D01*
X126178802Y-99750016D01*
X126217510Y-99702851D01*
X126271342Y-99637256D01*
X126289896Y-99614648D01*
X126372446Y-99460208D01*
X126402056Y-99362596D01*
X126423279Y-99292632D01*
X126424914Y-99276032D01*
X126436143Y-99162024D01*
X126436143Y-99162017D01*
X126440443Y-99118357D01*
X126436143Y-99074697D01*
X126436143Y-93590592D01*
X126452724Y-93574010D01*
X127579808Y-93574010D01*
X127688563Y-93736774D01*
X127832726Y-93880937D01*
X128002244Y-93994205D01*
X128190602Y-94072226D01*
X128390561Y-94112000D01*
X128594439Y-94112000D01*
X128794398Y-94072226D01*
X128982756Y-93994205D01*
X129152274Y-93880937D01*
X129296437Y-93736774D01*
X129409705Y-93567256D01*
X129487726Y-93378898D01*
X129527500Y-93178939D01*
X129527500Y-92975061D01*
X129505807Y-92866000D01*
X131477230Y-92866000D01*
X131477229Y-98464349D01*
G04 #@! TD*
M02*
