G04 #@! TF.GenerationSoftware,KiCad,Pcbnew,(5.1.6-0-10_14)*
G04 #@! TF.CreationDate,2020-10-30T11:13:34+09:00*
G04 #@! TF.ProjectId,NinjaLAMP,4e696e6a-614c-4414-9d50-2e6b69636164,rev?*
G04 #@! TF.SameCoordinates,Original*
G04 #@! TF.FileFunction,Soldermask,Bot*
G04 #@! TF.FilePolarity,Negative*
%FSLAX46Y46*%
G04 Gerber Fmt 4.6, Leading zero omitted, Abs format (unit mm)*
G04 Created by KiCad (PCBNEW (5.1.6-0-10_14)) date 2020-10-30 11:13:34*
%MOMM*%
%LPD*%
G01*
G04 APERTURE LIST*
%ADD10R,1.100000X1.100000*%
%ADD11O,1.100000X1.100000*%
%ADD12C,2.100000*%
%ADD13O,2.132000X2.132000*%
%ADD14C,1.499540*%
%ADD15R,1.800000X1.800000*%
%ADD16O,1.800000X1.800000*%
%ADD17R,3.600000X3.600000*%
%ADD18R,2.100000X2.700000*%
%ADD19O,2.100000X2.700000*%
%ADD20O,1.900000X1.900000*%
%ADD21R,1.900000X1.900000*%
%ADD22C,1.370000*%
G04 APERTURE END LIST*
D10*
G04 #@! TO.C,J2*
X168732500Y-101697000D03*
D11*
X168732500Y-100427000D03*
X168732500Y-99157000D03*
X168732500Y-97887000D03*
X168732500Y-96617000D03*
G04 #@! TD*
D12*
G04 #@! TO.C,D2*
X145270000Y-90540000D03*
X121770000Y-90540000D03*
X121770000Y-114340000D03*
X145270000Y-114340000D03*
D13*
X129710000Y-90040000D03*
X132250000Y-90040000D03*
X134790000Y-90040000D03*
X137330000Y-90040000D03*
G04 #@! TD*
D14*
G04 #@! TO.C,D1*
X133520000Y-97660260D03*
X133520000Y-99661780D03*
X133520000Y-101658220D03*
X133520000Y-103659740D03*
G04 #@! TD*
D15*
G04 #@! TO.C,HEATER1*
X172149240Y-115442800D03*
D16*
X169609240Y-115442800D03*
G04 #@! TD*
G04 #@! TO.C,HEATER2*
X169619400Y-111369400D03*
D15*
X172159400Y-111369400D03*
G04 #@! TD*
D17*
G04 #@! TO.C,J1*
X182624200Y-100574400D03*
G36*
G01*
X181599200Y-93024400D02*
X183649200Y-93024400D01*
G75*
G02*
X184424200Y-93799400I0J-775000D01*
G01*
X184424200Y-95349400D01*
G75*
G02*
X183649200Y-96124400I-775000J0D01*
G01*
X181599200Y-96124400D01*
G75*
G02*
X180824200Y-95349400I0J775000D01*
G01*
X180824200Y-93799400D01*
G75*
G02*
X181599200Y-93024400I775000J0D01*
G01*
G37*
G36*
G01*
X177024200Y-95774400D02*
X178824200Y-95774400D01*
G75*
G02*
X179724200Y-96674400I0J-900000D01*
G01*
X179724200Y-98474400D01*
G75*
G02*
X178824200Y-99374400I-900000J0D01*
G01*
X177024200Y-99374400D01*
G75*
G02*
X176124200Y-98474400I0J900000D01*
G01*
X176124200Y-96674400D01*
G75*
G02*
X177024200Y-95774400I900000J0D01*
G01*
G37*
G04 #@! TD*
D18*
G04 #@! TO.C,FAN1*
X169759100Y-91439800D03*
D19*
X172299100Y-91439800D03*
X174839100Y-91439800D03*
G04 #@! TD*
D15*
G04 #@! TO.C,NTC_AIR1*
X136320000Y-114630000D03*
D16*
X138860000Y-114630000D03*
G04 #@! TD*
G04 #@! TO.C,NTC_WELL1*
X150752500Y-114630000D03*
D15*
X153292500Y-114630000D03*
G04 #@! TD*
D20*
G04 #@! TO.C,EXTRA_Q1*
X163762500Y-114557000D03*
X161222500Y-114557000D03*
D21*
X158682500Y-114557000D03*
G04 #@! TD*
D22*
G04 #@! TO.C,SW1*
X112020000Y-100040640D03*
X112020000Y-105039360D03*
G04 #@! TD*
G04 #@! TO.C,SW0*
X112020000Y-111739360D03*
X112020000Y-106740640D03*
G04 #@! TD*
G04 #@! TO.C,SW2*
X112020000Y-93340640D03*
X112020000Y-98339360D03*
G04 #@! TD*
M02*
