M48
; DRILL file {KiCad (5.1.6-0-10_14)} date Friday, October 30, 2020 at 11:13:44 AM
; FORMAT={-:-/ absolute / inch / decimal}
; #@! TF.CreationDate,2020-10-30T11:13:44+09:00
; #@! TF.GenerationSoftware,Kicad,Pcbnew,(5.1.6-0-10_14)
FMAT,2
INCH
T1C0.0157
T2C0.0256
T3C0.0314
T4C0.0334
T5C0.0394
T6C0.0400
T7C0.0472
T8C0.0787
%
G90
G05
T1
X4.3658Y-4.2983
X4.3698Y-4.0227
X4.3816Y-3.7747
X4.3816Y-4.4715
X4.3934Y-3.5345
X4.4603Y-4.5739
X4.4918Y-4.2235
X4.5312Y-4.0975
X4.5351Y-3.7944
X4.5469Y-4.2904
X4.5548Y-3.9243
X4.6375Y-4.0975
X4.6572Y-4.4046
X4.6595Y-3.629
X4.6824Y-3.5038
X4.6827Y-4.1034
X4.6926Y-4.5778
X4.7044Y-3.818
X4.732Y-3.944
X4.7438Y-4.0936
X4.7714Y-4.0227
X4.7792Y-4.3495
X4.7989Y-3.6605
X4.8307Y-4.212
X4.8422Y-4.2747
X4.8462Y-4.1684
X4.858Y-3.7353
X4.8895Y-3.507
X4.8895Y-4.0148
X4.9013Y-4.5542
X4.9052Y-4.4243
X4.9131Y-3.6054
X4.9721Y-4.0975
X4.984Y-3.7865
X4.984Y-3.9597
X4.984Y-4.2393
X4.9918Y-3.692
X5.0233Y-3.5818
X5.0233Y-3.877
X5.0391Y-4.1841
X5.0469Y-4.4282
X5.0469Y-4.5581
X5.0572Y-3.4873
X5.0588Y-3.6644
X5.0824Y-3.7629
X5.0903Y-3.9676
X5.1218Y-4.2353
X5.1257Y-4.0818
X5.1572Y-3.6605
X5.1729Y-4.4282
X5.1769Y-3.8337
X5.1769Y-4.5542
X5.1887Y-4.1959
X5.1966Y-3.9715
X5.2517Y-3.6566
X5.2595Y-4.2353
X5.2753Y-3.7826
X5.3068Y-4.4046
X5.3462Y-4.2353
X5.3501Y-4.0227
X5.3501Y-4.0896
X5.354Y-3.6054
X5.3777Y-3.8967
X5.3816Y-3.7393
X5.4013Y-4.1881
X5.4131Y-3.9794
X5.4485Y-4.4046
X5.4564Y-3.881
X5.4564Y-4.2393
X5.4643Y-3.6015
X5.4643Y-4.0857
X5.4958Y-4.5857
X5.4997Y-3.94
X5.5194Y-3.7353
X5.5312Y-4.2629
X5.5312Y-4.4794
X5.5347Y-3.4857
X5.543Y-4.0109
X5.5509Y-4.1487
X5.5548Y-4.4007
X5.5666Y-3.881
X5.5706Y-3.6251
X5.6218Y-3.9597
X5.6296Y-4.5818
X5.6532Y-3.62
X5.6584Y-3.5093
X5.6847Y-3.8849
X5.6847Y-4.0148
X5.7359Y-3.9479
X5.7399Y-4.0818
X5.7556Y-4.4085
X5.7871Y-4.2944
X5.795Y-3.8692
X5.7989Y-4.0188
X5.8068Y-3.944
X5.8304Y-4.57
X5.8395Y-3.5349
X5.8552Y-4.4597
X5.8855Y-4.3849
X5.9013Y-4.2944
X5.9497Y-3.6377
X5.9611Y-3.7152
X5.9643Y-4.0896
X5.9643Y-4.1526
X5.9678Y-3.4979
X5.9721Y-3.8967
X5.9761Y-4.255
X5.9997Y-4.3928
X6.0627Y-4.3337
X6.0745Y-4.444
X6.0863Y-3.9715
X6.0906Y-3.5022
X6.0981Y-4.1448
X6.0981Y-4.2235
X6.1095Y-3.7802
X6.1107Y-3.6231
X6.1532Y-4.0581
X6.1568Y-4.5479
X6.158Y-4.4227
X6.2005Y-4.2983
X6.2021Y-3.6172
X6.2052Y-3.5227
X6.2202Y-3.9715
X6.2517Y-4.1408
X6.3029Y-4.0621
X6.3068Y-3.6219
X6.3068Y-3.7873
X6.3068Y-4.3534
X6.3107Y-4.2235
X6.3186Y-4.5818
X6.3655Y-3.5373
X6.3658Y-3.9715
X6.3934Y-4.3022
X6.4129Y-3.9638
X6.417Y-3.9204
X6.4249Y-3.5857
X6.4249Y-4.0581
X6.4253Y-3.7822
X6.4328Y-3.8827
X6.4442Y-3.6479
X6.4485Y-4.1448
X6.484Y-4.2668
X6.5029Y-3.533
X6.5906Y-4.1519
X6.6017Y-3.57
X6.616Y-4.0473
X6.6891Y-4.1066
X6.7076Y-3.5074
X6.7239Y-4.287
X6.8294Y-4.2605
X6.8643Y-4.5916
X6.8733Y-3.5062
X6.8784Y-4.4314
X6.9473Y-4.1306
X6.9525Y-4.0003
X6.9627Y-4.5188
X6.9721Y-3.6526
X6.9903Y-3.5058
X7.0194Y-4.2235
X7.0631Y-4.5948
X7.0745Y-3.5936
X7.0761Y-3.9956
X7.095Y-4.1798
X7.1462Y-3.8605
X7.1623Y-3.5129
X7.1867Y-4.5326
X7.2344Y-3.9034
X7.2714Y-4.1211
X7.3225Y-3.5896
X7.3225Y-4.4282
X7.3422Y-3.8456
X7.3462Y-4.0227
X7.3529Y-4.583
X7.358Y-3.7274
X7.3662Y-3.5109
X7.3895Y-4.2156
X7.4367Y-4.427
X7.4603Y-4.0581
X7.5115Y-4.1133
X7.5588Y-4.0621
X7.5946Y-3.6652
X7.606Y-4.007
T2
X6.643Y-3.8038
X6.643Y-3.8538
X6.643Y-3.9038
X6.643Y-3.9538
X6.643Y-4.0038
T3
X4.4102Y-3.9386
X4.4102Y-4.1354
X4.4102Y-3.6748
X4.4102Y-3.8716
X4.4102Y-4.2024
X4.4102Y-4.3992
T4
X5.2567Y-3.8449
X5.2567Y-3.9237
X5.2567Y-4.0023
X5.2567Y-4.0811
T5
X6.6779Y-4.3846
X6.7779Y-4.3846
X6.2473Y-4.5101
X6.3473Y-4.5101
X6.4473Y-4.5101
X6.6775Y-4.545
X6.7775Y-4.545
X5.3669Y-4.513
X5.4669Y-4.513
X5.9351Y-4.513
X6.0351Y-4.513
T6
X5.1067Y-3.5449
X5.2067Y-3.5449
X5.3067Y-3.5449
X5.4067Y-3.5449
T7
X6.6834Y-3.6
X6.7834Y-3.6
X6.8834Y-3.6
T8
X4.7941Y-3.5646
X4.7941Y-4.5016
X5.7193Y-3.5646
X5.7193Y-4.5016
T5
G00X7.0049Y-3.8021
M15
G01X7.0049Y-3.8809
M16
G05
G00X7.2293Y-3.7234
M15
G01X7.1506Y-3.7234
M16
G05
G00X7.2293Y-3.9596
M15
G01X7.1506Y-3.9596
M16
G05
T0
M30
