G04 #@! TF.GenerationSoftware,KiCad,Pcbnew,(5.1.6-0-10_14)*
G04 #@! TF.CreationDate,2020-10-30T11:13:33+09:00*
G04 #@! TF.ProjectId,NinjaLAMP,4e696e6a-614c-4414-9d50-2e6b69636164,rev?*
G04 #@! TF.SameCoordinates,Original*
G04 #@! TF.FileFunction,Paste,Top*
G04 #@! TF.FilePolarity,Positive*
%FSLAX46Y46*%
G04 Gerber Fmt 4.6, Leading zero omitted, Abs format (unit mm)*
G04 Created by KiCad (PCBNEW (5.1.6-0-10_14)) date 2020-10-30 11:13:33*
%MOMM*%
%LPD*%
G01*
G04 APERTURE LIST*
%ADD10R,1.320800X0.558800*%
%ADD11R,0.558800X1.320800*%
%ADD12R,1.200000X0.900000*%
%ADD13C,1.143000*%
%ADD14O,1.016000X2.032000*%
%ADD15O,2.748280X1.998980*%
%ADD16R,0.900000X1.200000*%
%ADD17R,1.549400X0.558800*%
%ADD18R,0.750000X1.200000*%
%ADD19R,1.016000X1.651000*%
%ADD20R,5.298440X6.197600*%
%ADD21R,5.200000X1.700000*%
G04 APERTURE END LIST*
D10*
G04 #@! TO.C,Q1*
X173467500Y-106908400D03*
X171283100Y-107848200D03*
X171283100Y-105968600D03*
G04 #@! TD*
D11*
G04 #@! TO.C,Q2*
X172248300Y-94017900D03*
X170368700Y-94017900D03*
X171308500Y-96202300D03*
G04 #@! TD*
D12*
G04 #@! TO.C,R4*
X142410000Y-106934000D03*
X144610000Y-106934000D03*
G04 #@! TD*
G04 #@! TO.C,R5*
X144610000Y-104902000D03*
X142410000Y-104902000D03*
G04 #@! TD*
G04 #@! TO.C,R7*
X144610000Y-110998000D03*
X142410000Y-110998000D03*
G04 #@! TD*
G04 #@! TO.C,R8*
X142410000Y-108966000D03*
X144610000Y-108966000D03*
G04 #@! TD*
G04 #@! TO.C,R11*
X171221960Y-101676000D03*
X173421960Y-101676000D03*
G04 #@! TD*
G04 #@! TO.C,R12*
X173421960Y-103454000D03*
X171221960Y-103454000D03*
G04 #@! TD*
G04 #@! TO.C,R9*
X121110000Y-107126000D03*
X118910000Y-107126000D03*
G04 #@! TD*
G04 #@! TO.C,R1*
X142410000Y-97536000D03*
X144610000Y-97536000D03*
G04 #@! TD*
G04 #@! TO.C,R2*
X144610000Y-93980000D03*
X142410000Y-93980000D03*
G04 #@! TD*
G04 #@! TO.C,R13*
X173421960Y-99898000D03*
X171221960Y-99898000D03*
G04 #@! TD*
G04 #@! TO.C,R3*
X142410000Y-95758000D03*
X144610000Y-95758000D03*
G04 #@! TD*
G04 #@! TO.C,R14*
X173421960Y-98120000D03*
X171221960Y-98120000D03*
G04 #@! TD*
D13*
G04 #@! TO.C,U1*
X158758803Y-93275813D03*
X156218803Y-93275813D03*
X158758803Y-90735813D03*
X156218803Y-90735813D03*
D14*
X158770000Y-107740000D03*
X156220000Y-107740000D03*
D15*
X149353120Y-91422180D03*
X149353120Y-93962180D03*
X149353120Y-96502180D03*
X149353120Y-99042180D03*
X149353120Y-101582180D03*
X149353120Y-104122180D03*
X149353120Y-106662180D03*
X165517680Y-106662180D03*
X165517680Y-104122180D03*
X165517680Y-101582180D03*
X165517680Y-99042180D03*
X165517680Y-96502180D03*
X165517680Y-93962180D03*
X165517680Y-91422180D03*
G04 #@! TD*
D16*
G04 #@! TO.C,TH1*
X133002500Y-115727000D03*
X133002500Y-113527000D03*
G04 #@! TD*
D12*
G04 #@! TO.C,R6*
X118910000Y-108904000D03*
X121110000Y-108904000D03*
G04 #@! TD*
G04 #@! TO.C,R10*
X121110000Y-105348000D03*
X118910000Y-105348000D03*
G04 #@! TD*
D17*
G04 #@! TO.C,CR1*
X123072200Y-96215000D03*
X123072200Y-97485000D03*
X123072200Y-98755000D03*
X123072200Y-100025000D03*
X117712800Y-100025000D03*
X117712800Y-98755000D03*
X117712800Y-97485000D03*
X117712800Y-96215000D03*
G04 #@! TD*
D18*
G04 #@! TO.C,C2*
X191892500Y-107027000D03*
X191892500Y-108927000D03*
G04 #@! TD*
G04 #@! TO.C,C3*
X193292500Y-108927000D03*
X193292500Y-107027000D03*
G04 #@! TD*
D19*
G04 #@! TO.C,U2*
X188660500Y-104957000D03*
D20*
X190946500Y-97631640D03*
D19*
X193232500Y-104957000D03*
G04 #@! TD*
D21*
G04 #@! TO.C,C1*
X176642500Y-110367880D03*
X185742500Y-110367880D03*
G04 #@! TD*
M02*
