G04 #@! TF.GenerationSoftware,KiCad,Pcbnew,(5.1.6-0-10_14)*
G04 #@! TF.CreationDate,2020-10-30T11:13:34+09:00*
G04 #@! TF.ProjectId,NinjaLAMP,4e696e6a-614c-4414-9d50-2e6b69636164,rev?*
G04 #@! TF.SameCoordinates,Original*
G04 #@! TF.FileFunction,Legend,Bot*
G04 #@! TF.FilePolarity,Positive*
%FSLAX46Y46*%
G04 Gerber Fmt 4.6, Leading zero omitted, Abs format (unit mm)*
G04 Created by KiCad (PCBNEW (5.1.6-0-10_14)) date 2020-10-30 11:13:34*
%MOMM*%
%LPD*%
G01*
G04 APERTURE LIST*
%ADD10C,0.400000*%
%ADD11C,0.150000*%
%ADD12C,0.120000*%
%ADD13C,0.127000*%
G04 APERTURE END LIST*
D10*
X185125833Y-112038428D02*
X184649642Y-113371761D01*
X184173452Y-112038428D01*
X182649642Y-113276523D02*
X182840119Y-113371761D01*
X183221071Y-113371761D01*
X183411547Y-113276523D01*
X183506785Y-113086047D01*
X183506785Y-112324142D01*
X183411547Y-112133666D01*
X183221071Y-112038428D01*
X182840119Y-112038428D01*
X182649642Y-112133666D01*
X182554404Y-112324142D01*
X182554404Y-112514619D01*
X183506785Y-112705095D01*
X181697261Y-113371761D02*
X181697261Y-112038428D01*
X181697261Y-112419380D02*
X181602023Y-112228904D01*
X181506785Y-112133666D01*
X181316309Y-112038428D01*
X181125833Y-112038428D01*
X179411547Y-113371761D02*
X180554404Y-113371761D01*
X179982976Y-113371761D02*
X179982976Y-111371761D01*
X180173452Y-111657476D01*
X180363928Y-111847952D01*
X180554404Y-111943190D01*
X178554404Y-113181285D02*
X178459166Y-113276523D01*
X178554404Y-113371761D01*
X178649642Y-113276523D01*
X178554404Y-113181285D01*
X178554404Y-113371761D01*
X177221071Y-111371761D02*
X177030595Y-111371761D01*
X176840119Y-111467000D01*
X176744880Y-111562238D01*
X176649642Y-111752714D01*
X176554404Y-112133666D01*
X176554404Y-112609857D01*
X176649642Y-112990809D01*
X176744880Y-113181285D01*
X176840119Y-113276523D01*
X177030595Y-113371761D01*
X177221071Y-113371761D01*
X177411547Y-113276523D01*
X177506785Y-113181285D01*
X177602023Y-112990809D01*
X177697261Y-112609857D01*
X177697261Y-112133666D01*
X177602023Y-111752714D01*
X177506785Y-111562238D01*
X177411547Y-111467000D01*
X177221071Y-111371761D01*
X188625357Y-109701761D02*
X188625357Y-107701761D01*
X187482500Y-109701761D01*
X187482500Y-107701761D01*
X186530119Y-109701761D02*
X186530119Y-108368428D01*
X186530119Y-107701761D02*
X186625357Y-107797000D01*
X186530119Y-107892238D01*
X186434880Y-107797000D01*
X186530119Y-107701761D01*
X186530119Y-107892238D01*
X185577738Y-108368428D02*
X185577738Y-109701761D01*
X185577738Y-108558904D02*
X185482500Y-108463666D01*
X185292023Y-108368428D01*
X185006309Y-108368428D01*
X184815833Y-108463666D01*
X184720595Y-108654142D01*
X184720595Y-109701761D01*
X183768214Y-108368428D02*
X183768214Y-110082714D01*
X183863452Y-110273190D01*
X184053928Y-110368428D01*
X184149166Y-110368428D01*
X183768214Y-107701761D02*
X183863452Y-107797000D01*
X183768214Y-107892238D01*
X183672976Y-107797000D01*
X183768214Y-107701761D01*
X183768214Y-107892238D01*
X181958690Y-109701761D02*
X181958690Y-108654142D01*
X182053928Y-108463666D01*
X182244404Y-108368428D01*
X182625357Y-108368428D01*
X182815833Y-108463666D01*
X181958690Y-109606523D02*
X182149166Y-109701761D01*
X182625357Y-109701761D01*
X182815833Y-109606523D01*
X182911071Y-109416047D01*
X182911071Y-109225571D01*
X182815833Y-109035095D01*
X182625357Y-108939857D01*
X182149166Y-108939857D01*
X181958690Y-108844619D01*
X180053928Y-109701761D02*
X181006309Y-109701761D01*
X181006309Y-107701761D01*
X179482500Y-109130333D02*
X178530119Y-109130333D01*
X179672976Y-109701761D02*
X179006309Y-107701761D01*
X178339642Y-109701761D01*
X177672976Y-109701761D02*
X177672976Y-107701761D01*
X177006309Y-109130333D01*
X176339642Y-107701761D01*
X176339642Y-109701761D01*
X175387261Y-109701761D02*
X175387261Y-107701761D01*
X174625357Y-107701761D01*
X174434880Y-107797000D01*
X174339642Y-107892238D01*
X174244404Y-108082714D01*
X174244404Y-108368428D01*
X174339642Y-108558904D01*
X174434880Y-108654142D01*
X174625357Y-108749380D01*
X175387261Y-108749380D01*
D11*
X173138214Y-102171761D02*
X172995357Y-102219380D01*
X172757261Y-102219380D01*
X172662023Y-102171761D01*
X172614404Y-102124142D01*
X172566785Y-102028904D01*
X172566785Y-101933666D01*
X172614404Y-101838428D01*
X172662023Y-101790809D01*
X172757261Y-101743190D01*
X172947738Y-101695571D01*
X173042976Y-101647952D01*
X173090595Y-101600333D01*
X173138214Y-101505095D01*
X173138214Y-101409857D01*
X173090595Y-101314619D01*
X173042976Y-101267000D01*
X172947738Y-101219380D01*
X172709642Y-101219380D01*
X172566785Y-101267000D01*
X171566785Y-102124142D02*
X171614404Y-102171761D01*
X171757261Y-102219380D01*
X171852500Y-102219380D01*
X171995357Y-102171761D01*
X172090595Y-102076523D01*
X172138214Y-101981285D01*
X172185833Y-101790809D01*
X172185833Y-101647952D01*
X172138214Y-101457476D01*
X172090595Y-101362238D01*
X171995357Y-101267000D01*
X171852500Y-101219380D01*
X171757261Y-101219380D01*
X171614404Y-101267000D01*
X171566785Y-101314619D01*
X171138214Y-102219380D02*
X171138214Y-101219380D01*
X170566785Y-102219380D02*
X170995357Y-101647952D01*
X170566785Y-101219380D02*
X171138214Y-101790809D01*
X173423928Y-100949380D02*
X173423928Y-99949380D01*
X173090595Y-100663666D01*
X172757261Y-99949380D01*
X172757261Y-100949380D01*
X172281071Y-100949380D02*
X172281071Y-99949380D01*
X171852500Y-100901761D02*
X171709642Y-100949380D01*
X171471547Y-100949380D01*
X171376309Y-100901761D01*
X171328690Y-100854142D01*
X171281071Y-100758904D01*
X171281071Y-100663666D01*
X171328690Y-100568428D01*
X171376309Y-100520809D01*
X171471547Y-100473190D01*
X171662023Y-100425571D01*
X171757261Y-100377952D01*
X171804880Y-100330333D01*
X171852500Y-100235095D01*
X171852500Y-100139857D01*
X171804880Y-100044619D01*
X171757261Y-99997000D01*
X171662023Y-99949380D01*
X171423928Y-99949380D01*
X171281071Y-99997000D01*
X170662023Y-99949380D02*
X170471547Y-99949380D01*
X170376309Y-99997000D01*
X170281071Y-100092238D01*
X170233452Y-100282714D01*
X170233452Y-100616047D01*
X170281071Y-100806523D01*
X170376309Y-100901761D01*
X170471547Y-100949380D01*
X170662023Y-100949380D01*
X170757261Y-100901761D01*
X170852500Y-100806523D01*
X170900119Y-100616047D01*
X170900119Y-100282714D01*
X170852500Y-100092238D01*
X170757261Y-99997000D01*
X170662023Y-99949380D01*
X173423928Y-99679380D02*
X173423928Y-98679380D01*
X173090595Y-99393666D01*
X172757261Y-98679380D01*
X172757261Y-99679380D01*
X172090595Y-98679380D02*
X171900119Y-98679380D01*
X171804880Y-98727000D01*
X171709642Y-98822238D01*
X171662023Y-99012714D01*
X171662023Y-99346047D01*
X171709642Y-99536523D01*
X171804880Y-99631761D01*
X171900119Y-99679380D01*
X172090595Y-99679380D01*
X172185833Y-99631761D01*
X172281071Y-99536523D01*
X172328690Y-99346047D01*
X172328690Y-99012714D01*
X172281071Y-98822238D01*
X172185833Y-98727000D01*
X172090595Y-98679380D01*
X171281071Y-99631761D02*
X171138214Y-99679380D01*
X170900119Y-99679380D01*
X170804880Y-99631761D01*
X170757261Y-99584142D01*
X170709642Y-99488904D01*
X170709642Y-99393666D01*
X170757261Y-99298428D01*
X170804880Y-99250809D01*
X170900119Y-99203190D01*
X171090595Y-99155571D01*
X171185833Y-99107952D01*
X171233452Y-99060333D01*
X171281071Y-98965095D01*
X171281071Y-98869857D01*
X171233452Y-98774619D01*
X171185833Y-98727000D01*
X171090595Y-98679380D01*
X170852500Y-98679380D01*
X170709642Y-98727000D01*
X170281071Y-99679380D02*
X170281071Y-98679380D01*
X173090595Y-97409380D02*
X172471547Y-97409380D01*
X172804880Y-97790333D01*
X172662023Y-97790333D01*
X172566785Y-97837952D01*
X172519166Y-97885571D01*
X172471547Y-97980809D01*
X172471547Y-98218904D01*
X172519166Y-98314142D01*
X172566785Y-98361761D01*
X172662023Y-98409380D01*
X172947738Y-98409380D01*
X173042976Y-98361761D01*
X173090595Y-98314142D01*
X172185833Y-97409380D02*
X171852500Y-98409380D01*
X171519166Y-97409380D01*
X171281071Y-97409380D02*
X170662023Y-97409380D01*
X170995357Y-97790333D01*
X170852500Y-97790333D01*
X170757261Y-97837952D01*
X170709642Y-97885571D01*
X170662023Y-97980809D01*
X170662023Y-98218904D01*
X170709642Y-98314142D01*
X170757261Y-98361761D01*
X170852500Y-98409380D01*
X171138214Y-98409380D01*
X171233452Y-98361761D01*
X171281071Y-98314142D01*
X172614404Y-96187000D02*
X172709642Y-96139380D01*
X172852500Y-96139380D01*
X172995357Y-96187000D01*
X173090595Y-96282238D01*
X173138214Y-96377476D01*
X173185833Y-96567952D01*
X173185833Y-96710809D01*
X173138214Y-96901285D01*
X173090595Y-96996523D01*
X172995357Y-97091761D01*
X172852500Y-97139380D01*
X172757261Y-97139380D01*
X172614404Y-97091761D01*
X172566785Y-97044142D01*
X172566785Y-96710809D01*
X172757261Y-96710809D01*
X172138214Y-97139380D02*
X172138214Y-96139380D01*
X171566785Y-97139380D01*
X171566785Y-96139380D01*
X171090595Y-97139380D02*
X171090595Y-96139380D01*
X170852500Y-96139380D01*
X170709642Y-96187000D01*
X170614404Y-96282238D01*
X170566785Y-96377476D01*
X170519166Y-96567952D01*
X170519166Y-96710809D01*
X170566785Y-96901285D01*
X170614404Y-96996523D01*
X170709642Y-97091761D01*
X170852500Y-97139380D01*
X171090595Y-97139380D01*
X168270119Y-94898904D02*
X168270119Y-95375095D01*
X167793928Y-95422714D01*
X167841547Y-95375095D01*
X167889166Y-95279857D01*
X167889166Y-95041761D01*
X167841547Y-94946523D01*
X167793928Y-94898904D01*
X167698690Y-94851285D01*
X167460595Y-94851285D01*
X167365357Y-94898904D01*
X167317738Y-94946523D01*
X167270119Y-95041761D01*
X167270119Y-95279857D01*
X167317738Y-95375095D01*
X167365357Y-95422714D01*
X167270119Y-102951285D02*
X167270119Y-103522714D01*
X167270119Y-103237000D02*
X168270119Y-103237000D01*
X168127261Y-103332238D01*
X168032023Y-103427476D01*
X167984404Y-103522714D01*
X137797261Y-91582714D02*
X137844880Y-91725571D01*
X137844880Y-91963666D01*
X137797261Y-92058904D01*
X137749642Y-92106523D01*
X137654404Y-92154142D01*
X137559166Y-92154142D01*
X137463928Y-92106523D01*
X137416309Y-92058904D01*
X137368690Y-91963666D01*
X137321071Y-91773190D01*
X137273452Y-91677952D01*
X137225833Y-91630333D01*
X137130595Y-91582714D01*
X137035357Y-91582714D01*
X136940119Y-91630333D01*
X136892500Y-91677952D01*
X136844880Y-91773190D01*
X136844880Y-92011285D01*
X136892500Y-92154142D01*
X137844880Y-92582714D02*
X136844880Y-92582714D01*
X136844880Y-92820809D01*
X136892500Y-92963666D01*
X136987738Y-93058904D01*
X137082976Y-93106523D01*
X137273452Y-93154142D01*
X137416309Y-93154142D01*
X137606785Y-93106523D01*
X137702023Y-93058904D01*
X137797261Y-92963666D01*
X137844880Y-92820809D01*
X137844880Y-92582714D01*
X137559166Y-93535095D02*
X137559166Y-94011285D01*
X137844880Y-93439857D02*
X136844880Y-93773190D01*
X137844880Y-94106523D01*
X135257261Y-91606523D02*
X135304880Y-91749380D01*
X135304880Y-91987476D01*
X135257261Y-92082714D01*
X135209642Y-92130333D01*
X135114404Y-92177952D01*
X135019166Y-92177952D01*
X134923928Y-92130333D01*
X134876309Y-92082714D01*
X134828690Y-91987476D01*
X134781071Y-91797000D01*
X134733452Y-91701761D01*
X134685833Y-91654142D01*
X134590595Y-91606523D01*
X134495357Y-91606523D01*
X134400119Y-91654142D01*
X134352500Y-91701761D01*
X134304880Y-91797000D01*
X134304880Y-92035095D01*
X134352500Y-92177952D01*
X135209642Y-93177952D02*
X135257261Y-93130333D01*
X135304880Y-92987476D01*
X135304880Y-92892238D01*
X135257261Y-92749380D01*
X135162023Y-92654142D01*
X135066785Y-92606523D01*
X134876309Y-92558904D01*
X134733452Y-92558904D01*
X134542976Y-92606523D01*
X134447738Y-92654142D01*
X134352500Y-92749380D01*
X134304880Y-92892238D01*
X134304880Y-92987476D01*
X134352500Y-93130333D01*
X134400119Y-93177952D01*
X135304880Y-94082714D02*
X135304880Y-93606523D01*
X134304880Y-93606523D01*
X131764880Y-91558904D02*
X131764880Y-92177952D01*
X132145833Y-91844619D01*
X132145833Y-91987476D01*
X132193452Y-92082714D01*
X132241071Y-92130333D01*
X132336309Y-92177952D01*
X132574404Y-92177952D01*
X132669642Y-92130333D01*
X132717261Y-92082714D01*
X132764880Y-91987476D01*
X132764880Y-91701761D01*
X132717261Y-91606523D01*
X132669642Y-91558904D01*
X131764880Y-92463666D02*
X132764880Y-92797000D01*
X131764880Y-93130333D01*
X131764880Y-93368428D02*
X131764880Y-93987476D01*
X132145833Y-93654142D01*
X132145833Y-93797000D01*
X132193452Y-93892238D01*
X132241071Y-93939857D01*
X132336309Y-93987476D01*
X132574404Y-93987476D01*
X132669642Y-93939857D01*
X132717261Y-93892238D01*
X132764880Y-93797000D01*
X132764880Y-93511285D01*
X132717261Y-93416047D01*
X132669642Y-93368428D01*
X129272500Y-92035095D02*
X129224880Y-91939857D01*
X129224880Y-91797000D01*
X129272500Y-91654142D01*
X129367738Y-91558904D01*
X129462976Y-91511285D01*
X129653452Y-91463666D01*
X129796309Y-91463666D01*
X129986785Y-91511285D01*
X130082023Y-91558904D01*
X130177261Y-91654142D01*
X130224880Y-91797000D01*
X130224880Y-91892238D01*
X130177261Y-92035095D01*
X130129642Y-92082714D01*
X129796309Y-92082714D01*
X129796309Y-91892238D01*
X130224880Y-92511285D02*
X129224880Y-92511285D01*
X130224880Y-93082714D01*
X129224880Y-93082714D01*
X130224880Y-93558904D02*
X129224880Y-93558904D01*
X129224880Y-93797000D01*
X129272500Y-93939857D01*
X129367738Y-94035095D01*
X129462976Y-94082714D01*
X129653452Y-94130333D01*
X129796309Y-94130333D01*
X129986785Y-94082714D01*
X130082023Y-94035095D01*
X130177261Y-93939857D01*
X130224880Y-93797000D01*
X130224880Y-93558904D01*
D12*
G04 #@! TO.C,J2*
X167622500Y-95922000D02*
X168424970Y-95922000D01*
X169040030Y-95922000D02*
X169842500Y-95922000D01*
X167622500Y-100937000D02*
X167622500Y-95922000D01*
X169842500Y-100937000D02*
X169842500Y-95922000D01*
X167622500Y-100937000D02*
X168169029Y-100937000D01*
X169295971Y-100937000D02*
X169842500Y-100937000D01*
X167622500Y-101697000D02*
X167622500Y-102457000D01*
X167622500Y-102457000D02*
X168732500Y-102457000D01*
G04 #@! TO.C,D2*
X147270000Y-88540000D02*
X119770000Y-88540000D01*
X147270000Y-116340000D02*
X119770000Y-116340000D01*
X119770000Y-88540000D02*
X119770000Y-116340000D01*
X147270000Y-88540000D02*
X147270000Y-116340000D01*
D13*
G04 #@! TO.C,D1*
X137523208Y-100660314D02*
G75*
G03*
X137523208Y-100660314I-4000000J0D01*
G01*
X131273208Y-96660314D02*
X135773208Y-96660314D01*
X131253374Y-96671535D02*
G75*
G03*
X135773208Y-96660314I2269834J-3988779D01*
G01*
D12*
G04 #@! TO.C,FAN1*
X175639100Y-93839800D02*
X175639100Y-94459800D01*
X174039100Y-93839800D02*
X175639100Y-93839800D01*
X174039100Y-94459800D02*
X174039100Y-93839800D01*
X173099100Y-93839800D02*
X173099100Y-94459800D01*
X171499100Y-93839800D02*
X173099100Y-93839800D01*
X171499100Y-94459800D02*
X171499100Y-93839800D01*
X170559100Y-93839800D02*
X170559100Y-94459800D01*
X168959100Y-93839800D02*
X170559100Y-93839800D01*
X168959100Y-94459800D02*
X168959100Y-93839800D01*
X174589100Y-88459800D02*
X174589100Y-89459800D01*
X170009100Y-88459800D02*
X170009100Y-89459800D01*
X174589100Y-89889800D02*
X174839100Y-89459800D01*
X170009100Y-89889800D02*
X174589100Y-89889800D01*
X169759100Y-89459800D02*
X170009100Y-89889800D01*
X174839100Y-89459800D02*
X174839100Y-88459800D01*
X169759100Y-89459800D02*
X174839100Y-89459800D01*
X169759100Y-88459800D02*
X169759100Y-89459800D01*
X176209100Y-94459800D02*
X168389100Y-94459800D01*
X176209100Y-88459800D02*
X176209100Y-94459800D01*
X168389100Y-88459800D02*
X176209100Y-88459800D01*
X168389100Y-94459800D02*
X168389100Y-88459800D01*
G04 #@! TO.C,EXTRA_Q1*
X156102500Y-117177000D02*
X166342500Y-117177000D01*
X156102500Y-112536000D02*
X166342500Y-112536000D01*
X156102500Y-117177000D02*
X156102500Y-112536000D01*
X166342500Y-117177000D02*
X166342500Y-112536000D01*
X156102500Y-115667000D02*
X166342500Y-115667000D01*
X159372500Y-117177000D02*
X159372500Y-115667000D01*
X163073500Y-117177000D02*
X163073500Y-115667000D01*
G04 #@! TO.C,J2*
D11*
X167220119Y-99560333D02*
X166505833Y-99560333D01*
X166362976Y-99607952D01*
X166267738Y-99703190D01*
X166220119Y-99846047D01*
X166220119Y-99941285D01*
X167124880Y-99131761D02*
X167172500Y-99084142D01*
X167220119Y-98988904D01*
X167220119Y-98750809D01*
X167172500Y-98655571D01*
X167124880Y-98607952D01*
X167029642Y-98560333D01*
X166934404Y-98560333D01*
X166791547Y-98607952D01*
X166220119Y-99179380D01*
X166220119Y-98560333D01*
G04 #@! TO.C,D2*
X142265595Y-90669380D02*
X142265595Y-89669380D01*
X142027500Y-89669380D01*
X141884642Y-89717000D01*
X141789404Y-89812238D01*
X141741785Y-89907476D01*
X141694166Y-90097952D01*
X141694166Y-90240809D01*
X141741785Y-90431285D01*
X141789404Y-90526523D01*
X141884642Y-90621761D01*
X142027500Y-90669380D01*
X142265595Y-90669380D01*
X141313214Y-89764619D02*
X141265595Y-89717000D01*
X141170357Y-89669380D01*
X140932261Y-89669380D01*
X140837023Y-89717000D01*
X140789404Y-89764619D01*
X140741785Y-89859857D01*
X140741785Y-89955095D01*
X140789404Y-90097952D01*
X141360833Y-90669380D01*
X140741785Y-90669380D01*
G04 #@! TO.C,D1*
X134520595Y-95705380D02*
X134520595Y-94705380D01*
X134282500Y-94705380D01*
X134139642Y-94753000D01*
X134044404Y-94848238D01*
X133996785Y-94943476D01*
X133949166Y-95133952D01*
X133949166Y-95276809D01*
X133996785Y-95467285D01*
X134044404Y-95562523D01*
X134139642Y-95657761D01*
X134282500Y-95705380D01*
X134520595Y-95705380D01*
X132996785Y-95705380D02*
X133568214Y-95705380D01*
X133282500Y-95705380D02*
X133282500Y-94705380D01*
X133377738Y-94848238D01*
X133472976Y-94943476D01*
X133568214Y-94991095D01*
X134948571Y-103500342D02*
X134996190Y-103643199D01*
X135043809Y-103690818D01*
X135139047Y-103738437D01*
X135281904Y-103738437D01*
X135377142Y-103690818D01*
X135424761Y-103643199D01*
X135472380Y-103547961D01*
X135472380Y-103167009D01*
X134472380Y-103167009D01*
X134472380Y-103500342D01*
X134520000Y-103595580D01*
X134567619Y-103643199D01*
X134662857Y-103690818D01*
X134758095Y-103690818D01*
X134853333Y-103643199D01*
X134900952Y-103595580D01*
X134948571Y-103500342D01*
X134948571Y-103167009D01*
X134520000Y-101785818D02*
X134472380Y-101690580D01*
X134472380Y-101547723D01*
X134520000Y-101404866D01*
X134615238Y-101309628D01*
X134710476Y-101262009D01*
X134900952Y-101214390D01*
X135043809Y-101214390D01*
X135234285Y-101262009D01*
X135329523Y-101309628D01*
X135424761Y-101404866D01*
X135472380Y-101547723D01*
X135472380Y-101642961D01*
X135424761Y-101785818D01*
X135377142Y-101833437D01*
X135043809Y-101833437D01*
X135043809Y-101642961D01*
X135472380Y-98059837D02*
X134996190Y-97726504D01*
X135472380Y-97488409D02*
X134472380Y-97488409D01*
X134472380Y-97869361D01*
X134520000Y-97964599D01*
X134567619Y-98012218D01*
X134662857Y-98059837D01*
X134805714Y-98059837D01*
X134900952Y-98012218D01*
X134948571Y-97964599D01*
X134996190Y-97869361D01*
X134996190Y-97488409D01*
X134881428Y-99259047D02*
X134881428Y-100020952D01*
X135262380Y-99640000D02*
X134500476Y-99640000D01*
G04 #@! TO.C,FAN1*
X177298214Y-95335571D02*
X177631547Y-95335571D01*
X177631547Y-95859380D02*
X177631547Y-94859380D01*
X177155357Y-94859380D01*
X176822023Y-95573666D02*
X176345833Y-95573666D01*
X176917261Y-95859380D02*
X176583928Y-94859380D01*
X176250595Y-95859380D01*
X175917261Y-95859380D02*
X175917261Y-94859380D01*
X175345833Y-95859380D01*
X175345833Y-94859380D01*
X174345833Y-95859380D02*
X174917261Y-95859380D01*
X174631547Y-95859380D02*
X174631547Y-94859380D01*
X174726785Y-95002238D01*
X174822023Y-95097476D01*
X174917261Y-95145095D01*
G04 #@! TO.C,EXTRA_Q1*
X164263552Y-111479931D02*
X163930219Y-111479931D01*
X163787361Y-112003740D02*
X164263552Y-112003740D01*
X164263552Y-111003740D01*
X163787361Y-111003740D01*
X163454028Y-111003740D02*
X162787361Y-112003740D01*
X162787361Y-111003740D02*
X163454028Y-112003740D01*
X162549266Y-111003740D02*
X161977838Y-111003740D01*
X162263552Y-112003740D02*
X162263552Y-111003740D01*
X161073076Y-112003740D02*
X161406409Y-111527550D01*
X161644504Y-112003740D02*
X161644504Y-111003740D01*
X161263552Y-111003740D01*
X161168314Y-111051360D01*
X161120695Y-111098979D01*
X161073076Y-111194217D01*
X161073076Y-111337074D01*
X161120695Y-111432312D01*
X161168314Y-111479931D01*
X161263552Y-111527550D01*
X161644504Y-111527550D01*
X160692123Y-111718026D02*
X160215933Y-111718026D01*
X160787361Y-112003740D02*
X160454028Y-111003740D01*
X160120695Y-112003740D01*
X160025457Y-112098979D02*
X159263552Y-112098979D01*
X158358790Y-112098979D02*
X158454028Y-112051360D01*
X158549266Y-111956121D01*
X158692123Y-111813264D01*
X158787361Y-111765645D01*
X158882600Y-111765645D01*
X158834980Y-112003740D02*
X158930219Y-111956121D01*
X159025457Y-111860883D01*
X159073076Y-111670407D01*
X159073076Y-111337074D01*
X159025457Y-111146598D01*
X158930219Y-111051360D01*
X158834980Y-111003740D01*
X158644504Y-111003740D01*
X158549266Y-111051360D01*
X158454028Y-111146598D01*
X158406409Y-111337074D01*
X158406409Y-111670407D01*
X158454028Y-111860883D01*
X158549266Y-111956121D01*
X158644504Y-112003740D01*
X158834980Y-112003740D01*
X157454028Y-112003740D02*
X158025457Y-112003740D01*
X157739742Y-112003740D02*
X157739742Y-111003740D01*
X157834980Y-111146598D01*
X157930219Y-111241836D01*
X158025457Y-111289455D01*
G04 #@! TD*
M02*
