G04 #@! TF.GenerationSoftware,KiCad,Pcbnew,(5.1.6-0-10_14)*
G04 #@! TF.CreationDate,2020-10-30T11:13:34+09:00*
G04 #@! TF.ProjectId,NinjaLAMP,4e696e6a-614c-4414-9d50-2e6b69636164,rev?*
G04 #@! TF.SameCoordinates,Original*
G04 #@! TF.FileFunction,Soldermask,Top*
G04 #@! TF.FilePolarity,Negative*
%FSLAX46Y46*%
G04 Gerber Fmt 4.6, Leading zero omitted, Abs format (unit mm)*
G04 Created by KiCad (PCBNEW (5.1.6-0-10_14)) date 2020-10-30 11:13:34*
%MOMM*%
%LPD*%
G01*
G04 APERTURE LIST*
%ADD10R,1.100000X1.100000*%
%ADD11O,1.100000X1.100000*%
%ADD12C,2.100000*%
%ADD13O,2.132000X2.132000*%
%ADD14C,1.499540*%
%ADD15R,1.800000X1.800000*%
%ADD16O,1.800000X1.800000*%
%ADD17R,3.600000X3.600000*%
%ADD18R,2.100000X2.700000*%
%ADD19O,2.100000X2.700000*%
%ADD20R,1.420800X0.658800*%
%ADD21R,0.658800X1.420800*%
%ADD22R,1.300000X1.000000*%
%ADD23C,1.243000*%
%ADD24O,1.116000X2.132000*%
%ADD25O,2.848280X2.098980*%
%ADD26O,1.900000X1.900000*%
%ADD27R,1.900000X1.900000*%
%ADD28R,1.000000X1.300000*%
%ADD29C,1.370000*%
%ADD30R,1.649400X0.658800*%
%ADD31R,0.850000X1.300000*%
%ADD32R,1.116000X1.751000*%
%ADD33R,5.398440X6.297600*%
%ADD34C,0.100000*%
%ADD35R,5.300000X1.800000*%
G04 APERTURE END LIST*
D10*
G04 #@! TO.C,J2*
X168732500Y-101697000D03*
D11*
X168732500Y-100427000D03*
X168732500Y-99157000D03*
X168732500Y-97887000D03*
X168732500Y-96617000D03*
G04 #@! TD*
D12*
G04 #@! TO.C,D2*
X145270000Y-90540000D03*
X121770000Y-90540000D03*
X121770000Y-114340000D03*
X145270000Y-114340000D03*
D13*
X129710000Y-90040000D03*
X132250000Y-90040000D03*
X134790000Y-90040000D03*
X137330000Y-90040000D03*
G04 #@! TD*
D14*
G04 #@! TO.C,D1*
X133520000Y-97660260D03*
X133520000Y-99661780D03*
X133520000Y-101658220D03*
X133520000Y-103659740D03*
G04 #@! TD*
D15*
G04 #@! TO.C,HEATER1*
X172149240Y-115442800D03*
D16*
X169609240Y-115442800D03*
G04 #@! TD*
G04 #@! TO.C,HEATER2*
X169619400Y-111369400D03*
D15*
X172159400Y-111369400D03*
G04 #@! TD*
D17*
G04 #@! TO.C,J1*
X182624200Y-100574400D03*
G36*
G01*
X181599200Y-93024400D02*
X183649200Y-93024400D01*
G75*
G02*
X184424200Y-93799400I0J-775000D01*
G01*
X184424200Y-95349400D01*
G75*
G02*
X183649200Y-96124400I-775000J0D01*
G01*
X181599200Y-96124400D01*
G75*
G02*
X180824200Y-95349400I0J775000D01*
G01*
X180824200Y-93799400D01*
G75*
G02*
X181599200Y-93024400I775000J0D01*
G01*
G37*
G36*
G01*
X177024200Y-95774400D02*
X178824200Y-95774400D01*
G75*
G02*
X179724200Y-96674400I0J-900000D01*
G01*
X179724200Y-98474400D01*
G75*
G02*
X178824200Y-99374400I-900000J0D01*
G01*
X177024200Y-99374400D01*
G75*
G02*
X176124200Y-98474400I0J900000D01*
G01*
X176124200Y-96674400D01*
G75*
G02*
X177024200Y-95774400I900000J0D01*
G01*
G37*
G04 #@! TD*
D18*
G04 #@! TO.C,FAN1*
X169759100Y-91439800D03*
D19*
X172299100Y-91439800D03*
X174839100Y-91439800D03*
G04 #@! TD*
D15*
G04 #@! TO.C,NTC_AIR1*
X136320000Y-114630000D03*
D16*
X138860000Y-114630000D03*
G04 #@! TD*
G04 #@! TO.C,NTC_WELL1*
X150752500Y-114630000D03*
D15*
X153292500Y-114630000D03*
G04 #@! TD*
D20*
G04 #@! TO.C,Q1*
X173467500Y-106908400D03*
X171283100Y-107848200D03*
X171283100Y-105968600D03*
G04 #@! TD*
D21*
G04 #@! TO.C,Q2*
X172248300Y-94017900D03*
X170368700Y-94017900D03*
X171308500Y-96202300D03*
G04 #@! TD*
D22*
G04 #@! TO.C,R4*
X142410000Y-106934000D03*
X144610000Y-106934000D03*
G04 #@! TD*
G04 #@! TO.C,R5*
X144610000Y-104902000D03*
X142410000Y-104902000D03*
G04 #@! TD*
G04 #@! TO.C,R7*
X144610000Y-110998000D03*
X142410000Y-110998000D03*
G04 #@! TD*
G04 #@! TO.C,R8*
X142410000Y-108966000D03*
X144610000Y-108966000D03*
G04 #@! TD*
G04 #@! TO.C,R11*
X171221960Y-101676000D03*
X173421960Y-101676000D03*
G04 #@! TD*
G04 #@! TO.C,R12*
X173421960Y-103454000D03*
X171221960Y-103454000D03*
G04 #@! TD*
G04 #@! TO.C,R9*
X121110000Y-107126000D03*
X118910000Y-107126000D03*
G04 #@! TD*
G04 #@! TO.C,R1*
X142410000Y-97536000D03*
X144610000Y-97536000D03*
G04 #@! TD*
G04 #@! TO.C,R2*
X144610000Y-93980000D03*
X142410000Y-93980000D03*
G04 #@! TD*
G04 #@! TO.C,R13*
X173421960Y-99898000D03*
X171221960Y-99898000D03*
G04 #@! TD*
G04 #@! TO.C,R3*
X142410000Y-95758000D03*
X144610000Y-95758000D03*
G04 #@! TD*
G04 #@! TO.C,R14*
X173421960Y-98120000D03*
X171221960Y-98120000D03*
G04 #@! TD*
D23*
G04 #@! TO.C,U1*
X158758803Y-93275813D03*
X156218803Y-93275813D03*
X158758803Y-90735813D03*
X156218803Y-90735813D03*
D24*
X158770000Y-107740000D03*
X156220000Y-107740000D03*
D25*
X149353120Y-91422180D03*
X149353120Y-93962180D03*
X149353120Y-96502180D03*
X149353120Y-99042180D03*
X149353120Y-101582180D03*
X149353120Y-104122180D03*
X149353120Y-106662180D03*
X165517680Y-106662180D03*
X165517680Y-104122180D03*
X165517680Y-101582180D03*
X165517680Y-99042180D03*
X165517680Y-96502180D03*
X165517680Y-93962180D03*
X165517680Y-91422180D03*
G04 #@! TD*
D26*
G04 #@! TO.C,EXTRA_Q1*
X163762500Y-114557000D03*
X161222500Y-114557000D03*
D27*
X158682500Y-114557000D03*
G04 #@! TD*
D28*
G04 #@! TO.C,TH1*
X133002500Y-115727000D03*
X133002500Y-113527000D03*
G04 #@! TD*
D29*
G04 #@! TO.C,SW1*
X112020000Y-100040640D03*
X112020000Y-105039360D03*
G04 #@! TD*
D22*
G04 #@! TO.C,R6*
X118910000Y-108904000D03*
X121110000Y-108904000D03*
G04 #@! TD*
G04 #@! TO.C,R10*
X121110000Y-105348000D03*
X118910000Y-105348000D03*
G04 #@! TD*
D29*
G04 #@! TO.C,SW0*
X112020000Y-111739360D03*
X112020000Y-106740640D03*
G04 #@! TD*
G04 #@! TO.C,SW2*
X112020000Y-93340640D03*
X112020000Y-98339360D03*
G04 #@! TD*
D30*
G04 #@! TO.C,CR1*
X123072200Y-96215000D03*
X123072200Y-97485000D03*
X123072200Y-98755000D03*
X123072200Y-100025000D03*
X117712800Y-100025000D03*
X117712800Y-98755000D03*
X117712800Y-97485000D03*
X117712800Y-96215000D03*
G04 #@! TD*
D31*
G04 #@! TO.C,C2*
X191892500Y-107027000D03*
X191892500Y-108927000D03*
G04 #@! TD*
G04 #@! TO.C,C3*
X193292500Y-108927000D03*
X193292500Y-107027000D03*
G04 #@! TD*
D32*
G04 #@! TO.C,U2*
X188660500Y-104957000D03*
D33*
X190946500Y-97631640D03*
D32*
X193232500Y-104957000D03*
G04 #@! TD*
D34*
G04 #@! TO.C,JP1*
G36*
X189093461Y-106542245D02*
G01*
X189096306Y-106532866D01*
X189100927Y-106524221D01*
X189107145Y-106516645D01*
X189114721Y-106510427D01*
X189123366Y-106505806D01*
X189132745Y-106502961D01*
X189142500Y-106502000D01*
X190642500Y-106502000D01*
X190652255Y-106502961D01*
X190661634Y-106505806D01*
X190670279Y-106510427D01*
X190677855Y-106516645D01*
X190684073Y-106524221D01*
X190688694Y-106532866D01*
X190691539Y-106542245D01*
X190692500Y-106552000D01*
X190692500Y-107702000D01*
X190691539Y-107711755D01*
X190688694Y-107721134D01*
X190684073Y-107729779D01*
X190677855Y-107737355D01*
X190670279Y-107743573D01*
X190661634Y-107748194D01*
X190652255Y-107751039D01*
X190642500Y-107752000D01*
X190632745Y-107751039D01*
X190623366Y-107748194D01*
X190614765Y-107743603D01*
X189892500Y-107262093D01*
X189170235Y-107743603D01*
X189161586Y-107748214D01*
X189152203Y-107751049D01*
X189142448Y-107752000D01*
X189132694Y-107751029D01*
X189123318Y-107748174D01*
X189114678Y-107743544D01*
X189107108Y-107737318D01*
X189100897Y-107729735D01*
X189096286Y-107721086D01*
X189093451Y-107711703D01*
X189092500Y-107702000D01*
X189092500Y-106552000D01*
X189093461Y-106542245D01*
G37*
G36*
X189093461Y-107992245D02*
G01*
X189096306Y-107982866D01*
X189100927Y-107974221D01*
X189107145Y-107966645D01*
X189114765Y-107960397D01*
X189864765Y-107460397D01*
X189873414Y-107455786D01*
X189882797Y-107452951D01*
X189892552Y-107452000D01*
X189902306Y-107452971D01*
X189911682Y-107455826D01*
X189920235Y-107460397D01*
X190670235Y-107960397D01*
X190677818Y-107966608D01*
X190684044Y-107974178D01*
X190688674Y-107982818D01*
X190691529Y-107992194D01*
X190692500Y-108002000D01*
X190692500Y-109002000D01*
X190691539Y-109011755D01*
X190688694Y-109021134D01*
X190684073Y-109029779D01*
X190677855Y-109037355D01*
X190670279Y-109043573D01*
X190661634Y-109048194D01*
X190652255Y-109051039D01*
X190642500Y-109052000D01*
X189142500Y-109052000D01*
X189132745Y-109051039D01*
X189123366Y-109048194D01*
X189114721Y-109043573D01*
X189107145Y-109037355D01*
X189100927Y-109029779D01*
X189096306Y-109021134D01*
X189093461Y-109011755D01*
X189092500Y-109002000D01*
X189092500Y-108002000D01*
X189093461Y-107992245D01*
G37*
G04 #@! TD*
D35*
G04 #@! TO.C,C1*
X176642500Y-110367880D03*
X185742500Y-110367880D03*
G04 #@! TD*
M02*
