0
SECTION
2
HEADER
9
$INSUNITS
70
4
9
$ACADVER
1
AC1014
9
$HANDSEED
5
FFFF
0
ENDSEC
0
SECTION
2
TABLES
0
TABLE
2
VPORT
5
8
100
AcDbSymbolTable
0
ENDTAB
0
TABLE
2
LTYPE
5
5
100
AcDbSymbolTable
0
LTYPE
5
14
100
AcDbSymbolTableRecord
100
AcDbLinetypeTableRecord
2
BYBLOCK
70
0
0
LTYPE
5
15
100
AcDbSymbolTableRecord
100
AcDbLinetypeTableRecord
2
BYLAYER
70
0
0
ENDTAB
0
TABLE
2
LAYER
5
2
100
AcDbSymbolTable
70
2
0
LAYER
5
50
100
AcDbSymbolTableRecord
100
AcDbLayerTableRecord
2
0
70
0
6
CONTINUOUS
0
ENDTAB
0
TABLE
2
STYLE
5
3
100
AcDbSymbolTable
70
1
0
STYLE
5
11
100
AcDbSymbolTableRecord
100
AcDbTextStyleTableRecord
2
STANDARD
70
0
0
ENDTAB
0
TABLE
2
VIEW
5
6
100
AcDbSymbolTable
70
0
0
ENDTAB
0
TABLE
2
UCS
5
7
100
AcDbSymbolTable
70
0
0
ENDTAB
0
TABLE
2
APPID
5
9
100
AcDbSymbolTable
70
2
0
APPID
5
12
100
AcDbSymbolTableRecord
100
AcDbRegAppTableRecord
2
ACAD
70
0
0
ENDTAB
0
TABLE
2
DIMSTYLE
5
A
100
AcDbSymbolTable
70
1
0
ENDTAB
0
TABLE
2
BLOCK_RECORD
5
1
100
AcDbSymbolTable
70
1
0
BLOCK_RECORD
5
1F
100
AcDbSymbolTableRecord
100
AcDbBlockTableRecord
2
*MODEL_SPACE
0
BLOCK_RECORD
5
1B
100
AcDbSymbolTableRecord
100
AcDbBlockTableRecord
2
*PAPER_SPACE
0
ENDTAB
0
ENDSEC
0
SECTION
2
BLOCKS
0
BLOCK
5
20
100
AcDbEntity
100
AcDbBlockBegin
2
*MODEL_SPACE
0
ENDBLK
5
21
100
AcDbEntity
100
AcDbBlockEnd
0
BLOCK
5
1C
100
AcDbEntity
100
AcDbBlockBegin
2
*PAPER_SPACE
0
ENDBLK
5
1D
100
AcDbEntity
100
AcDbBlockEnd
0
ENDSEC
0
SECTION
2
ENTITIES
0
LWPOLYLINE
5
100
100
AcDbEntity
8
0
100
AcDbPolyline
90
54
70
1
43
0.0
10
-105.90876692454857
20
-34.190359999945429
10
-105.90876692454857
20
-19.989639999945432
10
-100.90876692454859
20
-19.989639999945442
10
-100.90876692454859
20
-18.489999999945432
10
-95.908766794117525
20
-18.489999999945432
10
-95.908767283115935
20
-19.989639433524765
10
-87.908766924548587
20
-19.989640216226181
10
-87.908766924548587
20
-18.489999999945432
10
-81.908766794117525
20
-18.489999999945432
10
-81.908767283115992
20
-19.989637205463076
10
-73.908766924548587
20
-19.989637871892111
10
-73.908766924548587
20
-18.489999999945432
10
-68.908766794117525
20
-18.489999999945432
10
-68.908767283116333
20
-19.989638288410209
10
-60.908766924548566
20
-19.98963895483924
10
-60.908766924548573
20
-18.489999999945432
10
-54.90876679410681
20
-18.489999999945432
10
-54.90876728314192
20
-19.98963945466096
10
-46.908766924548573
20
-19.989640121089995
10
-46.908766924548573
20
-18.489999999945432
10
-41.90876679411754
20
-18.489999999945432
10
-41.908767283116745
20
-19.989639540651385
10
-36.908766924548573
20
-19.989639661518247
10
-36.908766924548573
20
-34.190359999945429
10
-41.908766924548573
20
-34.190359999945429
10
-41.908766924548573
20
-35.274999999945436
42
-0.41421356237309509
10
-42.408766924548573
20
-35.774999999945436
10
-46.408766924548566
20
-35.77499999994545
42
-0.4142135623730977
10
-46.908766924548573
20
-35.274999999945436
10
-46.908766924548573
20
-34.190359999945429
10
-54.90876692454858
20
-34.190359999945429
10
-54.90876692454858
20
-35.275358999945439
42
-0.41421356237309509
10
-55.40876692454858
20
-35.775358999945439
10
-60.408766924548587
20
-35.775358999945432
42
-0.4142135623730977
10
-60.908766924548573
20
-35.275358999945439
10
-60.908766924548573
20
-34.190359999945429
10
-68.908766924548587
20
-34.190359999945429
10
-68.908766924548587
20
-35.274999999945436
42
-0.41421356237309509
10
-69.408766924548587
20
-35.774999999945436
10
-73.408766924548587
20
-35.774999999945436
42
-0.41421356237309509
10
-73.908766924548587
20
-35.274999999945436
10
-73.908766924548587
20
-34.190359999945429
10
-81.908766924548573
20
-34.190359999945429
10
-81.908766924548573
20
-35.275358999945439
42
-0.41421356237310542
10
-82.408766924548587
20
-35.775358999945439
10
-87.408766924548587
20
-35.775358999945432
42
-0.41421356237310542
10
-87.908766924548587
20
-35.275358999945439
10
-87.908766924548587
20
-34.190359999945429
10
-95.908766924548573
20
-34.190359999945429
10
-95.908766924548587
20
-35.274999999945436
42
-0.41421356237307422
10
-96.408766924548587
20
-35.774999999945436
10
-100.40876692454859
20
-35.774999999945429
42
-0.41421356237310542
10
-100.90876692454859
20
-35.274999999945436
10
-100.90876692454859
20
-34.190359999945429
0
ENDSEC
0
SECTION
2
OBJECTS
0
DICTIONARY
5
C
100
AcDbDictionary
3
ACAD_GROUP
350
D
3
ACAD_MLINESTYLE
350
17
0
DICTIONARY
5
D
100
AcDbDictionary
0
DICTIONARY
5
1A
330
C
100
AcDbDictionary
0
DICTIONARY
5
17
100
AcDbDictionary
0
ENDSEC
0
EOF
