0
SECTION
2
HEADER
9
$INSUNITS
70
4
9
$ACADVER
1
AC1014
9
$HANDSEED
5
FFFF
0
ENDSEC
0
SECTION
2
TABLES
0
TABLE
2
VPORT
5
8
100
AcDbSymbolTable
0
ENDTAB
0
TABLE
2
LTYPE
5
5
100
AcDbSymbolTable
0
LTYPE
5
14
100
AcDbSymbolTableRecord
100
AcDbLinetypeTableRecord
2
BYBLOCK
70
0
0
LTYPE
5
15
100
AcDbSymbolTableRecord
100
AcDbLinetypeTableRecord
2
BYLAYER
70
0
0
ENDTAB
0
TABLE
2
LAYER
5
2
100
AcDbSymbolTable
70
2
0
LAYER
5
50
100
AcDbSymbolTableRecord
100
AcDbLayerTableRecord
2
0
70
0
6
CONTINUOUS
0
ENDTAB
0
TABLE
2
STYLE
5
3
100
AcDbSymbolTable
70
1
0
STYLE
5
11
100
AcDbSymbolTableRecord
100
AcDbTextStyleTableRecord
2
STANDARD
70
0
0
ENDTAB
0
TABLE
2
VIEW
5
6
100
AcDbSymbolTable
70
0
0
ENDTAB
0
TABLE
2
UCS
5
7
100
AcDbSymbolTable
70
0
0
ENDTAB
0
TABLE
2
APPID
5
9
100
AcDbSymbolTable
70
2
0
APPID
5
12
100
AcDbSymbolTableRecord
100
AcDbRegAppTableRecord
2
ACAD
70
0
0
ENDTAB
0
TABLE
2
DIMSTYLE
5
A
100
AcDbSymbolTable
70
1
0
ENDTAB
0
TABLE
2
BLOCK_RECORD
5
1
100
AcDbSymbolTable
70
1
0
BLOCK_RECORD
5
1F
100
AcDbSymbolTableRecord
100
AcDbBlockTableRecord
2
*MODEL_SPACE
0
BLOCK_RECORD
5
1B
100
AcDbSymbolTableRecord
100
AcDbBlockTableRecord
2
*PAPER_SPACE
0
ENDTAB
0
ENDSEC
0
SECTION
2
BLOCKS
0
BLOCK
5
20
100
AcDbEntity
100
AcDbBlockBegin
2
*MODEL_SPACE
0
ENDBLK
5
21
100
AcDbEntity
100
AcDbBlockEnd
0
BLOCK
5
1C
100
AcDbEntity
100
AcDbBlockBegin
2
*PAPER_SPACE
0
ENDBLK
5
1D
100
AcDbEntity
100
AcDbBlockEnd
0
ENDSEC
0
SECTION
2
ENTITIES
0
LWPOLYLINE
5
100
100
AcDbEntity
8
0
100
AcDbPolyline
90
4
70
1
43
0.0
10
-39.369067488876411
20
70.720417207438473
10
-39.369067488876411
20
72.220417207438473
10
-59.369067488876411
20
72.220417207438473
10
-59.369067488876411
20
70.720417207438473
0
LWPOLYLINE
5
101
100
AcDbEntity
8
0
100
AcDbPolyline
90
4
70
1
43
0.0
10
-84.369067488876397
20
70.720417207438473
10
-84.369067488876397
20
72.220417207438473
10
-104.3690674888764
20
72.220417207438473
10
-104.3690674888764
20
70.720417207438473
0
LWPOLYLINE
5
102
100
AcDbEntity
8
0
100
AcDbPolyline
90
24
70
1
43
0.0
10
-36.370311347719827
20
30.629140119465319
42
-0.23406365653386429
10
-32.395590093869174
20
28.654662808590974
42
1.1448936745643823
10
-27.838416746947722
20
33.206360233639657
42
-0.2340636565338641
10
-29.808113716644691
20
37.183452581641674
10
-29.808113716644694
20
40.05701608481705
42
0.26794919243112275
10
-32.308113716644698
20
44.387143103739241
42
-0.5773502691896254
10
-32.308113716644712
20
53.047397141583623
42
0.26794919243112303
10
-29.808113716644712
20
57.377524160505828
10
-29.808113716644719
20
60.057381833235013
42
-0.23406365653386441
10
-27.838416746947754
20
64.03447418123703
42
1.1435054721961491
10
-32.390853654812766
20
68.592387900610007
42
-0.2340636565338656
10
-36.370311347719863
20
66.627474119465333
10
-106.41791608556946
20
66.711694295411547
42
-0.23406365653386174
10
-110.39263733942011
20
68.686171606285882
42
1.1448936745643781
10
-114.94981068634158
20
64.134474181237195
42
-0.23406365653386782
10
-112.9801137166446
20
60.157381833235178
10
-112.9801137166446
20
57.380671245282912
42
0.26794919243112281
10
-110.4801137166446
20
53.050544226360714
42
-0.57735026918962595
10
-110.4801137166446
20
44.390290188516317
42
0.26794919243112281
10
-112.9801137166446
20
40.060163169594119
10
-112.9801137166446
20
37.283452581641868
42
-0.23406365653386782
10
-114.94981068634158
20
33.306360233639836
42
1.1435054721961506
10
-110.39737377847655
20
28.748446514266849
42
-0.2340636565338656
10
-106.41791608556944
20
30.713360295411533
0
LWPOLYLINE
5
103
100
AcDbEntity
8
0
100
AcDbPolyline
90
4
70
1
43
0.0
10
-39.369067488876425
20
26.720584207438449
10
-59.369067488876425
20
26.720584207438449
10
-59.369067488876425
20
25.220584207438446
10
-39.369067488876425
20
25.220584207438446
0
LWPOLYLINE
5
104
100
AcDbEntity
8
0
100
AcDbPolyline
90
4
70
1
43
0.0
10
-118.36906748887642
20
44.720417207438516
10
-118.36906748887642
20
34.720417207438516
10
-116.86906748887644
20
34.720417207438516
10
-116.86906748887644
20
44.720417207438516
0
LWPOLYLINE
5
105
100
AcDbEntity
8
0
100
AcDbPolyline
90
4
70
1
43
0.0
10
-104.36906748887642
20
26.720584207438449
10
-104.36906748887642
20
25.220584207438446
10
-84.369067488876425
20
25.220584207438446
10
-84.369067488876425
20
26.720584207438449
0
LWPOLYLINE
5
106
100
AcDbEntity
8
0
100
AcDbPolyline
90
4
70
1
43
0.0
10
-116.86906748887642
20
52.720417207438516
10
-116.86906748887642
20
62.720417207438516
10
-118.36906748887642
20
62.720417207438516
10
-118.36906748887642
20
52.720417207438516
0
LWPOLYLINE
5
107
100
AcDbEntity
8
0
100
AcDbPolyline
90
4
70
1
43
0.0
10
-26.869067488876432
20
41.717270122661425
10
-26.869067488876432
20
34.717270122661432
10
-25.369067488876425
20
34.717270122661432
10
-25.369067488876425
20
41.717270122661425
0
CIRCLE
5
108
100
AcDbEntity
8
0
100
AcDbCircle
10
-112.9801137166446
20
48.720417207438516
30
0
40
1.6000000000000014
210
0
220
-0
230
1
0
CIRCLE
5
109
100
AcDbEntity
8
0
100
AcDbCircle
10
-29.808113716644705
20
48.717270122661432
30
0
40
1.599999999999997
210
0
220
-0
230
1
0
LWPOLYLINE
5
110
100
AcDbEntity
8
0
100
AcDbPolyline
90
12
70
1
43
0.0
10
-25.95451271463304
20
74.220415961638466
42
-0.70106053311684091
10
-24.672447128846361
20
70.685388980200841
42
0.22229499744428541
10
-25.369202477840403
20
69.195645294715632
10
-25.369202477840368
20
45.395645294715621
42
0.27027136122810985
10
-24.384106813395043
20
43.706347244853546
42
-0.27027136122811357
10
-23.369067488876421
20
41.965700104346524
10
-23.369067488876432
20
25.220584207438446
42
-0.41421356237309243
10
-25.369067488876418
20
23.220584207438453
10
-118.36905920257642
20
23.220584207438463
42
-0.41421356237309509
10
-120.36905920257641
20
25.220584207438456
10
-120.36905920257641
20
72.220415961638466
42
-0.41421356237309509
10
-118.36905920257642
20
74.220415961638466
0
ENDSEC
0
SECTION
2
OBJECTS
0
DICTIONARY
5
C
100
AcDbDictionary
3
ACAD_GROUP
350
D
3
ACAD_MLINESTYLE
350
17
0
DICTIONARY
5
D
100
AcDbDictionary
0
DICTIONARY
5
1A
330
C
100
AcDbDictionary
0
DICTIONARY
5
17
100
AcDbDictionary
0
ENDSEC
0
EOF
