G04 #@! TF.GenerationSoftware,KiCad,Pcbnew,(7.0.0-122-g9f10c142c4)*
G04 #@! TF.CreationDate,2023-02-26T11:30:32+09:00*
G04 #@! TF.ProjectId,qLAMP-main,714c414d-502d-46d6-9169-6e2e6b696361,rev?*
G04 #@! TF.SameCoordinates,Original*
G04 #@! TF.FileFunction,Soldermask,Bot*
G04 #@! TF.FilePolarity,Negative*
%FSLAX46Y46*%
G04 Gerber Fmt 4.6, Leading zero omitted, Abs format (unit mm)*
G04 Created by KiCad (PCBNEW (7.0.0-122-g9f10c142c4)) date 2023-02-26 11:30:32*
%MOMM*%
%LPD*%
G01*
G04 APERTURE LIST*
G04 Aperture macros list*
%AMRoundRect*
0 Rectangle with rounded corners*
0 $1 Rounding radius*
0 $2 $3 $4 $5 $6 $7 $8 $9 X,Y pos of 4 corners*
0 Add a 4 corners polygon primitive as box body*
4,1,4,$2,$3,$4,$5,$6,$7,$8,$9,$2,$3,0*
0 Add four circle primitives for the rounded corners*
1,1,$1+$1,$2,$3*
1,1,$1+$1,$4,$5*
1,1,$1+$1,$6,$7*
1,1,$1+$1,$8,$9*
0 Add four rect primitives between the rounded corners*
20,1,$1+$1,$2,$3,$4,$5,0*
20,1,$1+$1,$4,$5,$6,$7,0*
20,1,$1+$1,$6,$7,$8,$9,0*
20,1,$1+$1,$8,$9,$2,$3,0*%
%AMFreePoly0*
4,1,6,1.000000,0.000000,0.500000,-0.750000,-0.500000,-0.750000,-0.500000,0.750000,0.500000,0.750000,1.000000,0.000000,1.000000,0.000000,$1*%
G04 Aperture macros list end*
%ADD10C,2.000000*%
%ADD11R,1.700000X1.700000*%
%ADD12O,1.700000X1.700000*%
%ADD13R,3.500000X3.500000*%
%ADD14RoundRect,0.750000X-1.000000X0.750000X-1.000000X-0.750000X1.000000X-0.750000X1.000000X0.750000X0*%
%ADD15RoundRect,0.875000X-0.875000X0.875000X-0.875000X-0.875000X0.875000X-0.875000X0.875000X0.875000X0*%
%ADD16O,1.000000X1.800000*%
%ADD17C,1.400000*%
%ADD18R,1.600000X1.600000*%
%ADD19O,1.600000X1.600000*%
%ADD20R,1.000000X1.000000*%
%ADD21R,1.500000X1.500000*%
%ADD22FreePoly0,270.000000*%
%ADD23FreePoly0,90.000000*%
%ADD24O,1.000000X1.000000*%
G04 APERTURE END LIST*
D10*
X229680000Y-45070000D03*
X229680000Y-48570000D03*
X241980000Y-50360000D03*
X241980000Y-53860000D03*
D11*
X156179999Y-54190125D03*
D12*
X156179999Y-51650125D03*
D11*
X160666123Y-50650125D03*
D12*
X163206123Y-50650125D03*
D11*
X160666123Y-43030125D03*
D12*
X163206123Y-43030125D03*
D11*
X160666122Y-45570125D03*
D12*
X163206122Y-45570125D03*
D11*
X160666123Y-48110125D03*
D12*
X163206123Y-48110125D03*
D11*
X160666123Y-53190125D03*
D12*
X163206123Y-53190125D03*
D13*
X239795999Y-45809810D03*
D14*
X239796000Y-39809811D03*
D15*
X235096000Y-42809811D03*
D11*
X194599999Y-73679999D03*
D16*
X225107999Y-38419781D03*
X225107999Y-34619781D03*
X216467999Y-38419781D03*
X216467999Y-34619781D03*
D11*
X207999999Y-53269999D03*
D12*
X205459999Y-53269999D03*
D17*
X205250000Y-35900000D03*
X209750000Y-35900000D03*
D10*
X204000000Y-38400000D03*
X211000000Y-38400000D03*
D11*
X197249999Y-39499999D03*
D12*
X194709999Y-39499999D03*
X192169999Y-39499999D03*
X189629999Y-39499999D03*
X187089999Y-39499999D03*
X184549999Y-39499999D03*
X182009999Y-39499999D03*
D11*
X247000123Y-54190125D03*
D12*
X247000123Y-56730125D03*
X247000123Y-59270125D03*
X247000123Y-61810125D03*
D11*
X166000123Y-56730125D03*
D12*
X166000123Y-54190125D03*
X166000123Y-51650125D03*
X166000123Y-49110125D03*
X166000123Y-46570125D03*
X166000123Y-44030125D03*
X166000123Y-41490125D03*
D18*
X106029988Y-65809998D03*
D19*
X108569988Y-65809998D03*
X111109988Y-65809998D03*
X113649988Y-65809998D03*
X116189988Y-65809998D03*
X118729988Y-65809998D03*
X121269988Y-65809998D03*
X123809988Y-65809998D03*
X123809988Y-58189998D03*
X121269988Y-58189998D03*
X118729988Y-58189998D03*
X116189988Y-58189998D03*
X113649988Y-58189998D03*
X111109988Y-58189998D03*
X108569988Y-58189998D03*
X106029988Y-58189998D03*
D11*
X247000123Y-51650125D03*
D12*
X247000123Y-49110125D03*
X247000123Y-46570125D03*
X247000123Y-44030125D03*
X247000123Y-41490125D03*
X247000123Y-38950125D03*
X247000123Y-36410125D03*
D11*
X88719989Y-64785007D03*
D12*
X88719989Y-62245007D03*
D11*
X166000123Y-74510125D03*
D12*
X166000123Y-71970125D03*
X166000123Y-69430125D03*
X166000123Y-66890125D03*
X166000123Y-64350125D03*
X166000123Y-61810125D03*
X166000123Y-59270125D03*
D20*
X88239999Y-67049999D03*
X94590005Y-67050001D03*
D21*
X91240012Y-62355993D03*
X91240012Y-64755993D03*
D22*
X91240013Y-61555994D03*
D23*
X91240013Y-65555994D03*
D21*
X213457196Y-43590004D03*
X213457196Y-41190004D03*
D23*
X213457197Y-44390005D03*
D22*
X213457197Y-40390005D03*
D20*
X90779999Y-67049999D03*
D24*
X89509999Y-67049999D03*
D20*
X92049999Y-67049999D03*
D24*
X93319999Y-67049999D03*
D21*
X215599712Y-43590004D03*
X215599712Y-41190004D03*
D23*
X215599713Y-44390005D03*
D22*
X215599713Y-40390005D03*
M02*
