G04 #@! TF.GenerationSoftware,KiCad,Pcbnew,(7.0.0-122-g9f10c142c4)*
G04 #@! TF.CreationDate,2023-02-26T11:30:32+09:00*
G04 #@! TF.ProjectId,qLAMP-main,714c414d-502d-46d6-9169-6e2e6b696361,rev?*
G04 #@! TF.SameCoordinates,Original*
G04 #@! TF.FileFunction,Legend,Bot*
G04 #@! TF.FilePolarity,Positive*
%FSLAX46Y46*%
G04 Gerber Fmt 4.6, Leading zero omitted, Abs format (unit mm)*
G04 Created by KiCad (PCBNEW (7.0.0-122-g9f10c142c4)) date 2023-02-26 11:30:32*
%MOMM*%
%LPD*%
G01*
G04 APERTURE LIST*
%ADD10C,0.127000*%
%ADD11C,0.150000*%
%ADD12C,0.250000*%
%ADD13C,0.120000*%
G04 APERTURE END LIST*
D10*
X92465535Y-59677857D02*
X92465535Y-60106429D01*
X93215535Y-59892143D02*
X92465535Y-59892143D01*
X92465535Y-60499286D02*
X92465535Y-60642143D01*
X92465535Y-60642143D02*
X92501250Y-60713572D01*
X92501250Y-60713572D02*
X92572678Y-60785000D01*
X92572678Y-60785000D02*
X92715535Y-60820715D01*
X92715535Y-60820715D02*
X92965535Y-60820715D01*
X92965535Y-60820715D02*
X93108392Y-60785000D01*
X93108392Y-60785000D02*
X93179821Y-60713572D01*
X93179821Y-60713572D02*
X93215535Y-60642143D01*
X93215535Y-60642143D02*
X93215535Y-60499286D01*
X93215535Y-60499286D02*
X93179821Y-60427858D01*
X93179821Y-60427858D02*
X93108392Y-60356429D01*
X93108392Y-60356429D02*
X92965535Y-60320715D01*
X92965535Y-60320715D02*
X92715535Y-60320715D01*
X92715535Y-60320715D02*
X92572678Y-60356429D01*
X92572678Y-60356429D02*
X92501250Y-60427858D01*
X92501250Y-60427858D02*
X92465535Y-60499286D01*
X93215535Y-61142143D02*
X92465535Y-61142143D01*
X92465535Y-61142143D02*
X92465535Y-61427857D01*
X92465535Y-61427857D02*
X92501250Y-61499286D01*
X92501250Y-61499286D02*
X92536964Y-61535000D01*
X92536964Y-61535000D02*
X92608392Y-61570714D01*
X92608392Y-61570714D02*
X92715535Y-61570714D01*
X92715535Y-61570714D02*
X92786964Y-61535000D01*
X92786964Y-61535000D02*
X92822678Y-61499286D01*
X92822678Y-61499286D02*
X92858392Y-61427857D01*
X92858392Y-61427857D02*
X92858392Y-61142143D01*
X93275535Y-63942143D02*
X92525535Y-63942143D01*
X92525535Y-63942143D02*
X92525535Y-64227857D01*
X92525535Y-64227857D02*
X92561250Y-64299286D01*
X92561250Y-64299286D02*
X92596964Y-64335000D01*
X92596964Y-64335000D02*
X92668392Y-64370714D01*
X92668392Y-64370714D02*
X92775535Y-64370714D01*
X92775535Y-64370714D02*
X92846964Y-64335000D01*
X92846964Y-64335000D02*
X92882678Y-64299286D01*
X92882678Y-64299286D02*
X92918392Y-64227857D01*
X92918392Y-64227857D02*
X92918392Y-63942143D01*
X93275535Y-64692143D02*
X92525535Y-64692143D01*
X93275535Y-65049286D02*
X92525535Y-65049286D01*
X92525535Y-65049286D02*
X93275535Y-65477857D01*
X93275535Y-65477857D02*
X92525535Y-65477857D01*
D11*
X212189761Y-41017143D02*
X212237380Y-41160000D01*
X212237380Y-41160000D02*
X212237380Y-41398095D01*
X212237380Y-41398095D02*
X212189761Y-41493333D01*
X212189761Y-41493333D02*
X212142142Y-41540952D01*
X212142142Y-41540952D02*
X212046904Y-41588571D01*
X212046904Y-41588571D02*
X211951666Y-41588571D01*
X211951666Y-41588571D02*
X211856428Y-41540952D01*
X211856428Y-41540952D02*
X211808809Y-41493333D01*
X211808809Y-41493333D02*
X211761190Y-41398095D01*
X211761190Y-41398095D02*
X211713571Y-41207619D01*
X211713571Y-41207619D02*
X211665952Y-41112381D01*
X211665952Y-41112381D02*
X211618333Y-41064762D01*
X211618333Y-41064762D02*
X211523095Y-41017143D01*
X211523095Y-41017143D02*
X211427857Y-41017143D01*
X211427857Y-41017143D02*
X211332619Y-41064762D01*
X211332619Y-41064762D02*
X211285000Y-41112381D01*
X211285000Y-41112381D02*
X211237380Y-41207619D01*
X211237380Y-41207619D02*
X211237380Y-41445714D01*
X211237380Y-41445714D02*
X211285000Y-41588571D01*
X211713571Y-42017143D02*
X211713571Y-42350476D01*
X212237380Y-42493333D02*
X212237380Y-42017143D01*
X212237380Y-42017143D02*
X211237380Y-42017143D01*
X211237380Y-42017143D02*
X211237380Y-42493333D01*
X212237380Y-43398095D02*
X212237380Y-42921905D01*
X212237380Y-42921905D02*
X211237380Y-42921905D01*
X215007380Y-45482381D02*
X214007380Y-45482381D01*
X214483571Y-45482381D02*
X214483571Y-46053809D01*
X215007380Y-46053809D02*
X214007380Y-46053809D01*
X215007380Y-46530000D02*
X214007380Y-46530000D01*
X214055000Y-47529999D02*
X214007380Y-47434761D01*
X214007380Y-47434761D02*
X214007380Y-47291904D01*
X214007380Y-47291904D02*
X214055000Y-47149047D01*
X214055000Y-47149047D02*
X214150238Y-47053809D01*
X214150238Y-47053809D02*
X214245476Y-47006190D01*
X214245476Y-47006190D02*
X214435952Y-46958571D01*
X214435952Y-46958571D02*
X214578809Y-46958571D01*
X214578809Y-46958571D02*
X214769285Y-47006190D01*
X214769285Y-47006190D02*
X214864523Y-47053809D01*
X214864523Y-47053809D02*
X214959761Y-47149047D01*
X214959761Y-47149047D02*
X215007380Y-47291904D01*
X215007380Y-47291904D02*
X215007380Y-47387142D01*
X215007380Y-47387142D02*
X214959761Y-47529999D01*
X214959761Y-47529999D02*
X214912142Y-47577618D01*
X214912142Y-47577618D02*
X214578809Y-47577618D01*
X214578809Y-47577618D02*
X214578809Y-47387142D01*
X215007380Y-48006190D02*
X214007380Y-48006190D01*
X214483571Y-48006190D02*
X214483571Y-48577618D01*
X215007380Y-48577618D02*
X214007380Y-48577618D01*
X217759761Y-40677143D02*
X217807380Y-40820000D01*
X217807380Y-40820000D02*
X217807380Y-41058095D01*
X217807380Y-41058095D02*
X217759761Y-41153333D01*
X217759761Y-41153333D02*
X217712142Y-41200952D01*
X217712142Y-41200952D02*
X217616904Y-41248571D01*
X217616904Y-41248571D02*
X217521666Y-41248571D01*
X217521666Y-41248571D02*
X217426428Y-41200952D01*
X217426428Y-41200952D02*
X217378809Y-41153333D01*
X217378809Y-41153333D02*
X217331190Y-41058095D01*
X217331190Y-41058095D02*
X217283571Y-40867619D01*
X217283571Y-40867619D02*
X217235952Y-40772381D01*
X217235952Y-40772381D02*
X217188333Y-40724762D01*
X217188333Y-40724762D02*
X217093095Y-40677143D01*
X217093095Y-40677143D02*
X216997857Y-40677143D01*
X216997857Y-40677143D02*
X216902619Y-40724762D01*
X216902619Y-40724762D02*
X216855000Y-40772381D01*
X216855000Y-40772381D02*
X216807380Y-40867619D01*
X216807380Y-40867619D02*
X216807380Y-41105714D01*
X216807380Y-41105714D02*
X216855000Y-41248571D01*
X217283571Y-41677143D02*
X217283571Y-42010476D01*
X217807380Y-42153333D02*
X217807380Y-41677143D01*
X217807380Y-41677143D02*
X216807380Y-41677143D01*
X216807380Y-41677143D02*
X216807380Y-42153333D01*
X217807380Y-43058095D02*
X217807380Y-42581905D01*
X217807380Y-42581905D02*
X216807380Y-42581905D01*
X217807380Y-43391429D02*
X216807380Y-43391429D01*
X216807380Y-43391429D02*
X216807380Y-43772381D01*
X216807380Y-43772381D02*
X216855000Y-43867619D01*
X216855000Y-43867619D02*
X216902619Y-43915238D01*
X216902619Y-43915238D02*
X216997857Y-43962857D01*
X216997857Y-43962857D02*
X217140714Y-43962857D01*
X217140714Y-43962857D02*
X217235952Y-43915238D01*
X217235952Y-43915238D02*
X217283571Y-43867619D01*
X217283571Y-43867619D02*
X217331190Y-43772381D01*
X217331190Y-43772381D02*
X217331190Y-43391429D01*
D12*
X219067380Y-40265238D02*
X220067380Y-40598571D01*
X220067380Y-40598571D02*
X219067380Y-40931904D01*
X220448333Y-41550952D02*
X220400714Y-41503333D01*
X220400714Y-41503333D02*
X220257857Y-41408095D01*
X220257857Y-41408095D02*
X220162619Y-41360476D01*
X220162619Y-41360476D02*
X220019761Y-41312857D01*
X220019761Y-41312857D02*
X219781666Y-41265238D01*
X219781666Y-41265238D02*
X219591190Y-41265238D01*
X219591190Y-41265238D02*
X219353095Y-41312857D01*
X219353095Y-41312857D02*
X219210238Y-41360476D01*
X219210238Y-41360476D02*
X219115000Y-41408095D01*
X219115000Y-41408095D02*
X218972142Y-41503333D01*
X218972142Y-41503333D02*
X218924523Y-41550952D01*
X220067380Y-41931905D02*
X219067380Y-41931905D01*
X219972142Y-42979523D02*
X220019761Y-42931904D01*
X220019761Y-42931904D02*
X220067380Y-42789047D01*
X220067380Y-42789047D02*
X220067380Y-42693809D01*
X220067380Y-42693809D02*
X220019761Y-42550952D01*
X220019761Y-42550952D02*
X219924523Y-42455714D01*
X219924523Y-42455714D02*
X219829285Y-42408095D01*
X219829285Y-42408095D02*
X219638809Y-42360476D01*
X219638809Y-42360476D02*
X219495952Y-42360476D01*
X219495952Y-42360476D02*
X219305476Y-42408095D01*
X219305476Y-42408095D02*
X219210238Y-42455714D01*
X219210238Y-42455714D02*
X219115000Y-42550952D01*
X219115000Y-42550952D02*
X219067380Y-42693809D01*
X219067380Y-42693809D02*
X219067380Y-42789047D01*
X219067380Y-42789047D02*
X219115000Y-42931904D01*
X219115000Y-42931904D02*
X219162619Y-42979523D01*
X220019761Y-43455714D02*
X220067380Y-43455714D01*
X220067380Y-43455714D02*
X220162619Y-43408095D01*
X220162619Y-43408095D02*
X220210238Y-43360476D01*
X220019761Y-43836666D02*
X220067380Y-43979523D01*
X220067380Y-43979523D02*
X220067380Y-44217618D01*
X220067380Y-44217618D02*
X220019761Y-44312856D01*
X220019761Y-44312856D02*
X219972142Y-44360475D01*
X219972142Y-44360475D02*
X219876904Y-44408094D01*
X219876904Y-44408094D02*
X219781666Y-44408094D01*
X219781666Y-44408094D02*
X219686428Y-44360475D01*
X219686428Y-44360475D02*
X219638809Y-44312856D01*
X219638809Y-44312856D02*
X219591190Y-44217618D01*
X219591190Y-44217618D02*
X219543571Y-44027142D01*
X219543571Y-44027142D02*
X219495952Y-43931904D01*
X219495952Y-43931904D02*
X219448333Y-43884285D01*
X219448333Y-43884285D02*
X219353095Y-43836666D01*
X219353095Y-43836666D02*
X219257857Y-43836666D01*
X219257857Y-43836666D02*
X219162619Y-43884285D01*
X219162619Y-43884285D02*
X219115000Y-43931904D01*
X219115000Y-43931904D02*
X219067380Y-44027142D01*
X219067380Y-44027142D02*
X219067380Y-44265237D01*
X219067380Y-44265237D02*
X219115000Y-44408094D01*
X219543571Y-44836666D02*
X219543571Y-45169999D01*
X220067380Y-45312856D02*
X220067380Y-44836666D01*
X220067380Y-44836666D02*
X219067380Y-44836666D01*
X219067380Y-44836666D02*
X219067380Y-45312856D01*
X220067380Y-46217618D02*
X220067380Y-45741428D01*
X220067380Y-45741428D02*
X219067380Y-45741428D01*
X220019761Y-46598571D02*
X220067380Y-46598571D01*
X220067380Y-46598571D02*
X220162619Y-46550952D01*
X220162619Y-46550952D02*
X220210238Y-46503333D01*
X220019761Y-46979523D02*
X220067380Y-47122380D01*
X220067380Y-47122380D02*
X220067380Y-47360475D01*
X220067380Y-47360475D02*
X220019761Y-47455713D01*
X220019761Y-47455713D02*
X219972142Y-47503332D01*
X219972142Y-47503332D02*
X219876904Y-47550951D01*
X219876904Y-47550951D02*
X219781666Y-47550951D01*
X219781666Y-47550951D02*
X219686428Y-47503332D01*
X219686428Y-47503332D02*
X219638809Y-47455713D01*
X219638809Y-47455713D02*
X219591190Y-47360475D01*
X219591190Y-47360475D02*
X219543571Y-47169999D01*
X219543571Y-47169999D02*
X219495952Y-47074761D01*
X219495952Y-47074761D02*
X219448333Y-47027142D01*
X219448333Y-47027142D02*
X219353095Y-46979523D01*
X219353095Y-46979523D02*
X219257857Y-46979523D01*
X219257857Y-46979523D02*
X219162619Y-47027142D01*
X219162619Y-47027142D02*
X219115000Y-47074761D01*
X219115000Y-47074761D02*
X219067380Y-47169999D01*
X219067380Y-47169999D02*
X219067380Y-47408094D01*
X219067380Y-47408094D02*
X219115000Y-47550951D01*
X219543571Y-47979523D02*
X219543571Y-48312856D01*
X220067380Y-48455713D02*
X220067380Y-47979523D01*
X220067380Y-47979523D02*
X219067380Y-47979523D01*
X219067380Y-47979523D02*
X219067380Y-48455713D01*
X220067380Y-49360475D02*
X220067380Y-48884285D01*
X220067380Y-48884285D02*
X219067380Y-48884285D01*
X220067380Y-49693809D02*
X219067380Y-49693809D01*
X219067380Y-49693809D02*
X219067380Y-50074761D01*
X219067380Y-50074761D02*
X219115000Y-50169999D01*
X219115000Y-50169999D02*
X219162619Y-50217618D01*
X219162619Y-50217618D02*
X219257857Y-50265237D01*
X219257857Y-50265237D02*
X219400714Y-50265237D01*
X219400714Y-50265237D02*
X219495952Y-50217618D01*
X219495952Y-50217618D02*
X219543571Y-50169999D01*
X219543571Y-50169999D02*
X219591190Y-50074761D01*
X219591190Y-50074761D02*
X219591190Y-49693809D01*
X220448333Y-50598571D02*
X220400714Y-50646190D01*
X220400714Y-50646190D02*
X220257857Y-50741428D01*
X220257857Y-50741428D02*
X220162619Y-50789047D01*
X220162619Y-50789047D02*
X220019761Y-50836666D01*
X220019761Y-50836666D02*
X219781666Y-50884285D01*
X219781666Y-50884285D02*
X219591190Y-50884285D01*
X219591190Y-50884285D02*
X219353095Y-50836666D01*
X219353095Y-50836666D02*
X219210238Y-50789047D01*
X219210238Y-50789047D02*
X219115000Y-50741428D01*
X219115000Y-50741428D02*
X218972142Y-50646190D01*
X218972142Y-50646190D02*
X218924523Y-50598571D01*
X220067380Y-51960476D02*
X219400714Y-51960476D01*
X219495952Y-51960476D02*
X219448333Y-52008095D01*
X219448333Y-52008095D02*
X219400714Y-52103333D01*
X219400714Y-52103333D02*
X219400714Y-52246190D01*
X219400714Y-52246190D02*
X219448333Y-52341428D01*
X219448333Y-52341428D02*
X219543571Y-52389047D01*
X219543571Y-52389047D02*
X220067380Y-52389047D01*
X219543571Y-52389047D02*
X219448333Y-52436666D01*
X219448333Y-52436666D02*
X219400714Y-52531904D01*
X219400714Y-52531904D02*
X219400714Y-52674761D01*
X219400714Y-52674761D02*
X219448333Y-52770000D01*
X219448333Y-52770000D02*
X219543571Y-52817619D01*
X219543571Y-52817619D02*
X220067380Y-52817619D01*
X219400714Y-53722380D02*
X220067380Y-53722380D01*
X219400714Y-53293809D02*
X219924523Y-53293809D01*
X219924523Y-53293809D02*
X220019761Y-53341428D01*
X220019761Y-53341428D02*
X220067380Y-53436666D01*
X220067380Y-53436666D02*
X220067380Y-53579523D01*
X220067380Y-53579523D02*
X220019761Y-53674761D01*
X220019761Y-53674761D02*
X219972142Y-53722380D01*
X220019761Y-54150952D02*
X220067380Y-54246190D01*
X220067380Y-54246190D02*
X220067380Y-54436666D01*
X220067380Y-54436666D02*
X220019761Y-54531904D01*
X220019761Y-54531904D02*
X219924523Y-54579523D01*
X219924523Y-54579523D02*
X219876904Y-54579523D01*
X219876904Y-54579523D02*
X219781666Y-54531904D01*
X219781666Y-54531904D02*
X219734047Y-54436666D01*
X219734047Y-54436666D02*
X219734047Y-54293809D01*
X219734047Y-54293809D02*
X219686428Y-54198571D01*
X219686428Y-54198571D02*
X219591190Y-54150952D01*
X219591190Y-54150952D02*
X219543571Y-54150952D01*
X219543571Y-54150952D02*
X219448333Y-54198571D01*
X219448333Y-54198571D02*
X219400714Y-54293809D01*
X219400714Y-54293809D02*
X219400714Y-54436666D01*
X219400714Y-54436666D02*
X219448333Y-54531904D01*
X219400714Y-54865238D02*
X219400714Y-55246190D01*
X219067380Y-55008095D02*
X219924523Y-55008095D01*
X219924523Y-55008095D02*
X220019761Y-55055714D01*
X220019761Y-55055714D02*
X220067380Y-55150952D01*
X220067380Y-55150952D02*
X220067380Y-55246190D01*
X220067380Y-56179524D02*
X219067380Y-56179524D01*
X219448333Y-56179524D02*
X219400714Y-56274762D01*
X219400714Y-56274762D02*
X219400714Y-56465238D01*
X219400714Y-56465238D02*
X219448333Y-56560476D01*
X219448333Y-56560476D02*
X219495952Y-56608095D01*
X219495952Y-56608095D02*
X219591190Y-56655714D01*
X219591190Y-56655714D02*
X219876904Y-56655714D01*
X219876904Y-56655714D02*
X219972142Y-56608095D01*
X219972142Y-56608095D02*
X220019761Y-56560476D01*
X220019761Y-56560476D02*
X220067380Y-56465238D01*
X220067380Y-56465238D02*
X220067380Y-56274762D01*
X220067380Y-56274762D02*
X220019761Y-56179524D01*
X220019761Y-57465238D02*
X220067380Y-57370000D01*
X220067380Y-57370000D02*
X220067380Y-57179524D01*
X220067380Y-57179524D02*
X220019761Y-57084286D01*
X220019761Y-57084286D02*
X219924523Y-57036667D01*
X219924523Y-57036667D02*
X219543571Y-57036667D01*
X219543571Y-57036667D02*
X219448333Y-57084286D01*
X219448333Y-57084286D02*
X219400714Y-57179524D01*
X219400714Y-57179524D02*
X219400714Y-57370000D01*
X219400714Y-57370000D02*
X219448333Y-57465238D01*
X219448333Y-57465238D02*
X219543571Y-57512857D01*
X219543571Y-57512857D02*
X219638809Y-57512857D01*
X219638809Y-57512857D02*
X219734047Y-57036667D01*
X220067380Y-58684286D02*
X220019761Y-58589048D01*
X220019761Y-58589048D02*
X219972142Y-58541429D01*
X219972142Y-58541429D02*
X219876904Y-58493810D01*
X219876904Y-58493810D02*
X219591190Y-58493810D01*
X219591190Y-58493810D02*
X219495952Y-58541429D01*
X219495952Y-58541429D02*
X219448333Y-58589048D01*
X219448333Y-58589048D02*
X219400714Y-58684286D01*
X219400714Y-58684286D02*
X219400714Y-58827143D01*
X219400714Y-58827143D02*
X219448333Y-58922381D01*
X219448333Y-58922381D02*
X219495952Y-58970000D01*
X219495952Y-58970000D02*
X219591190Y-59017619D01*
X219591190Y-59017619D02*
X219876904Y-59017619D01*
X219876904Y-59017619D02*
X219972142Y-58970000D01*
X219972142Y-58970000D02*
X220019761Y-58922381D01*
X220019761Y-58922381D02*
X220067380Y-58827143D01*
X220067380Y-58827143D02*
X220067380Y-58684286D01*
X219400714Y-59446191D02*
X220067380Y-59446191D01*
X219495952Y-59446191D02*
X219448333Y-59493810D01*
X219448333Y-59493810D02*
X219400714Y-59589048D01*
X219400714Y-59589048D02*
X219400714Y-59731905D01*
X219400714Y-59731905D02*
X219448333Y-59827143D01*
X219448333Y-59827143D02*
X219543571Y-59874762D01*
X219543571Y-59874762D02*
X220067380Y-59874762D01*
X220019761Y-60731905D02*
X220067380Y-60636667D01*
X220067380Y-60636667D02*
X220067380Y-60446191D01*
X220067380Y-60446191D02*
X220019761Y-60350953D01*
X220019761Y-60350953D02*
X219924523Y-60303334D01*
X219924523Y-60303334D02*
X219543571Y-60303334D01*
X219543571Y-60303334D02*
X219448333Y-60350953D01*
X219448333Y-60350953D02*
X219400714Y-60446191D01*
X219400714Y-60446191D02*
X219400714Y-60636667D01*
X219400714Y-60636667D02*
X219448333Y-60731905D01*
X219448333Y-60731905D02*
X219543571Y-60779524D01*
X219543571Y-60779524D02*
X219638809Y-60779524D01*
X219638809Y-60779524D02*
X219734047Y-60303334D01*
X220067380Y-61950953D02*
X220019761Y-61855715D01*
X220019761Y-61855715D02*
X219972142Y-61808096D01*
X219972142Y-61808096D02*
X219876904Y-61760477D01*
X219876904Y-61760477D02*
X219591190Y-61760477D01*
X219591190Y-61760477D02*
X219495952Y-61808096D01*
X219495952Y-61808096D02*
X219448333Y-61855715D01*
X219448333Y-61855715D02*
X219400714Y-61950953D01*
X219400714Y-61950953D02*
X219400714Y-62093810D01*
X219400714Y-62093810D02*
X219448333Y-62189048D01*
X219448333Y-62189048D02*
X219495952Y-62236667D01*
X219495952Y-62236667D02*
X219591190Y-62284286D01*
X219591190Y-62284286D02*
X219876904Y-62284286D01*
X219876904Y-62284286D02*
X219972142Y-62236667D01*
X219972142Y-62236667D02*
X220019761Y-62189048D01*
X220019761Y-62189048D02*
X220067380Y-62093810D01*
X220067380Y-62093810D02*
X220067380Y-61950953D01*
X219400714Y-62570001D02*
X219400714Y-62950953D01*
X220067380Y-62712858D02*
X219210238Y-62712858D01*
X219210238Y-62712858D02*
X219115000Y-62760477D01*
X219115000Y-62760477D02*
X219067380Y-62855715D01*
X219067380Y-62855715D02*
X219067380Y-62950953D01*
X219400714Y-63741430D02*
X219400714Y-64122382D01*
X219067380Y-63884287D02*
X219924523Y-63884287D01*
X219924523Y-63884287D02*
X220019761Y-63931906D01*
X220019761Y-63931906D02*
X220067380Y-64027144D01*
X220067380Y-64027144D02*
X220067380Y-64122382D01*
X220067380Y-64455716D02*
X219067380Y-64455716D01*
X220067380Y-64884287D02*
X219543571Y-64884287D01*
X219543571Y-64884287D02*
X219448333Y-64836668D01*
X219448333Y-64836668D02*
X219400714Y-64741430D01*
X219400714Y-64741430D02*
X219400714Y-64598573D01*
X219400714Y-64598573D02*
X219448333Y-64503335D01*
X219448333Y-64503335D02*
X219495952Y-64455716D01*
X220019761Y-65741430D02*
X220067380Y-65646192D01*
X220067380Y-65646192D02*
X220067380Y-65455716D01*
X220067380Y-65455716D02*
X220019761Y-65360478D01*
X220019761Y-65360478D02*
X219924523Y-65312859D01*
X219924523Y-65312859D02*
X219543571Y-65312859D01*
X219543571Y-65312859D02*
X219448333Y-65360478D01*
X219448333Y-65360478D02*
X219400714Y-65455716D01*
X219400714Y-65455716D02*
X219400714Y-65646192D01*
X219400714Y-65646192D02*
X219448333Y-65741430D01*
X219448333Y-65741430D02*
X219543571Y-65789049D01*
X219543571Y-65789049D02*
X219638809Y-65789049D01*
X219638809Y-65789049D02*
X219734047Y-65312859D01*
X220067380Y-66217621D02*
X219400714Y-66217621D01*
X219495952Y-66217621D02*
X219448333Y-66265240D01*
X219448333Y-66265240D02*
X219400714Y-66360478D01*
X219400714Y-66360478D02*
X219400714Y-66503335D01*
X219400714Y-66503335D02*
X219448333Y-66598573D01*
X219448333Y-66598573D02*
X219543571Y-66646192D01*
X219543571Y-66646192D02*
X220067380Y-66646192D01*
X219543571Y-66646192D02*
X219448333Y-66693811D01*
X219448333Y-66693811D02*
X219400714Y-66789049D01*
X219400714Y-66789049D02*
X219400714Y-66931906D01*
X219400714Y-66931906D02*
X219448333Y-67027145D01*
X219448333Y-67027145D02*
X219543571Y-67074764D01*
X219543571Y-67074764D02*
X220067380Y-67074764D01*
X219972142Y-67550954D02*
X220019761Y-67598573D01*
X220019761Y-67598573D02*
X220067380Y-67550954D01*
X220067380Y-67550954D02*
X220019761Y-67503335D01*
X220019761Y-67503335D02*
X219972142Y-67550954D01*
X219972142Y-67550954D02*
X220067380Y-67550954D01*
X220687380Y-40265238D02*
X221687380Y-40598571D01*
X221687380Y-40598571D02*
X220687380Y-40931904D01*
X222068333Y-41550952D02*
X222020714Y-41503333D01*
X222020714Y-41503333D02*
X221877857Y-41408095D01*
X221877857Y-41408095D02*
X221782619Y-41360476D01*
X221782619Y-41360476D02*
X221639761Y-41312857D01*
X221639761Y-41312857D02*
X221401666Y-41265238D01*
X221401666Y-41265238D02*
X221211190Y-41265238D01*
X221211190Y-41265238D02*
X220973095Y-41312857D01*
X220973095Y-41312857D02*
X220830238Y-41360476D01*
X220830238Y-41360476D02*
X220735000Y-41408095D01*
X220735000Y-41408095D02*
X220592142Y-41503333D01*
X220592142Y-41503333D02*
X220544523Y-41550952D01*
X221687380Y-41931905D02*
X220687380Y-41931905D01*
X221687380Y-42408095D02*
X220687380Y-42408095D01*
X220687380Y-42408095D02*
X220687380Y-42789047D01*
X220687380Y-42789047D02*
X220735000Y-42884285D01*
X220735000Y-42884285D02*
X220782619Y-42931904D01*
X220782619Y-42931904D02*
X220877857Y-42979523D01*
X220877857Y-42979523D02*
X221020714Y-42979523D01*
X221020714Y-42979523D02*
X221115952Y-42931904D01*
X221115952Y-42931904D02*
X221163571Y-42884285D01*
X221163571Y-42884285D02*
X221211190Y-42789047D01*
X221211190Y-42789047D02*
X221211190Y-42408095D01*
X220782619Y-43360476D02*
X220735000Y-43408095D01*
X220735000Y-43408095D02*
X220687380Y-43503333D01*
X220687380Y-43503333D02*
X220687380Y-43741428D01*
X220687380Y-43741428D02*
X220735000Y-43836666D01*
X220735000Y-43836666D02*
X220782619Y-43884285D01*
X220782619Y-43884285D02*
X220877857Y-43931904D01*
X220877857Y-43931904D02*
X220973095Y-43931904D01*
X220973095Y-43931904D02*
X221115952Y-43884285D01*
X221115952Y-43884285D02*
X221687380Y-43312857D01*
X221687380Y-43312857D02*
X221687380Y-43931904D01*
X220687380Y-44265238D02*
X220687380Y-44931904D01*
X220687380Y-44931904D02*
X221687380Y-44503333D01*
X220782619Y-45265238D02*
X220735000Y-45312857D01*
X220735000Y-45312857D02*
X220687380Y-45408095D01*
X220687380Y-45408095D02*
X220687380Y-45646190D01*
X220687380Y-45646190D02*
X220735000Y-45741428D01*
X220735000Y-45741428D02*
X220782619Y-45789047D01*
X220782619Y-45789047D02*
X220877857Y-45836666D01*
X220877857Y-45836666D02*
X220973095Y-45836666D01*
X220973095Y-45836666D02*
X221115952Y-45789047D01*
X221115952Y-45789047D02*
X221687380Y-45217619D01*
X221687380Y-45217619D02*
X221687380Y-45836666D01*
X221687380Y-46789047D02*
X221687380Y-46217619D01*
X221687380Y-46503333D02*
X220687380Y-46503333D01*
X220687380Y-46503333D02*
X220830238Y-46408095D01*
X220830238Y-46408095D02*
X220925476Y-46312857D01*
X220925476Y-46312857D02*
X220973095Y-46217619D01*
X222020714Y-47455714D02*
X220592142Y-47455714D01*
X221687380Y-48170000D02*
X220687380Y-48170000D01*
X221687380Y-48646190D02*
X220687380Y-48646190D01*
X220687380Y-48646190D02*
X220687380Y-49027142D01*
X220687380Y-49027142D02*
X220735000Y-49122380D01*
X220735000Y-49122380D02*
X220782619Y-49169999D01*
X220782619Y-49169999D02*
X220877857Y-49217618D01*
X220877857Y-49217618D02*
X221020714Y-49217618D01*
X221020714Y-49217618D02*
X221115952Y-49169999D01*
X221115952Y-49169999D02*
X221163571Y-49122380D01*
X221163571Y-49122380D02*
X221211190Y-49027142D01*
X221211190Y-49027142D02*
X221211190Y-48646190D01*
X220782619Y-49598571D02*
X220735000Y-49646190D01*
X220735000Y-49646190D02*
X220687380Y-49741428D01*
X220687380Y-49741428D02*
X220687380Y-49979523D01*
X220687380Y-49979523D02*
X220735000Y-50074761D01*
X220735000Y-50074761D02*
X220782619Y-50122380D01*
X220782619Y-50122380D02*
X220877857Y-50169999D01*
X220877857Y-50169999D02*
X220973095Y-50169999D01*
X220973095Y-50169999D02*
X221115952Y-50122380D01*
X221115952Y-50122380D02*
X221687380Y-49550952D01*
X221687380Y-49550952D02*
X221687380Y-50169999D01*
X220687380Y-50503333D02*
X220687380Y-51169999D01*
X220687380Y-51169999D02*
X221687380Y-50741428D01*
X220782619Y-51503333D02*
X220735000Y-51550952D01*
X220735000Y-51550952D02*
X220687380Y-51646190D01*
X220687380Y-51646190D02*
X220687380Y-51884285D01*
X220687380Y-51884285D02*
X220735000Y-51979523D01*
X220735000Y-51979523D02*
X220782619Y-52027142D01*
X220782619Y-52027142D02*
X220877857Y-52074761D01*
X220877857Y-52074761D02*
X220973095Y-52074761D01*
X220973095Y-52074761D02*
X221115952Y-52027142D01*
X221115952Y-52027142D02*
X221687380Y-51455714D01*
X221687380Y-51455714D02*
X221687380Y-52074761D01*
X221687380Y-53027142D02*
X221687380Y-52455714D01*
X221687380Y-52741428D02*
X220687380Y-52741428D01*
X220687380Y-52741428D02*
X220830238Y-52646190D01*
X220830238Y-52646190D02*
X220925476Y-52550952D01*
X220925476Y-52550952D02*
X220973095Y-52455714D01*
X221782619Y-53217619D02*
X221782619Y-53979523D01*
X221687380Y-54217619D02*
X220687380Y-54217619D01*
X220687380Y-54217619D02*
X220687380Y-54455714D01*
X220687380Y-54455714D02*
X220735000Y-54598571D01*
X220735000Y-54598571D02*
X220830238Y-54693809D01*
X220830238Y-54693809D02*
X220925476Y-54741428D01*
X220925476Y-54741428D02*
X221115952Y-54789047D01*
X221115952Y-54789047D02*
X221258809Y-54789047D01*
X221258809Y-54789047D02*
X221449285Y-54741428D01*
X221449285Y-54741428D02*
X221544523Y-54693809D01*
X221544523Y-54693809D02*
X221639761Y-54598571D01*
X221639761Y-54598571D02*
X221687380Y-54455714D01*
X221687380Y-54455714D02*
X221687380Y-54217619D01*
X221639761Y-55265238D02*
X221687380Y-55265238D01*
X221687380Y-55265238D02*
X221782619Y-55217619D01*
X221782619Y-55217619D02*
X221830238Y-55170000D01*
X221687380Y-55693809D02*
X220687380Y-55693809D01*
X221163571Y-55693809D02*
X221163571Y-56265237D01*
X221687380Y-56265237D02*
X220687380Y-56265237D01*
X221687380Y-56741428D02*
X221020714Y-56741428D01*
X220687380Y-56741428D02*
X220735000Y-56693809D01*
X220735000Y-56693809D02*
X220782619Y-56741428D01*
X220782619Y-56741428D02*
X220735000Y-56789047D01*
X220735000Y-56789047D02*
X220687380Y-56741428D01*
X220687380Y-56741428D02*
X220782619Y-56741428D01*
X221020714Y-57646189D02*
X221830238Y-57646189D01*
X221830238Y-57646189D02*
X221925476Y-57598570D01*
X221925476Y-57598570D02*
X221973095Y-57550951D01*
X221973095Y-57550951D02*
X222020714Y-57455713D01*
X222020714Y-57455713D02*
X222020714Y-57312856D01*
X222020714Y-57312856D02*
X221973095Y-57217618D01*
X221639761Y-57646189D02*
X221687380Y-57550951D01*
X221687380Y-57550951D02*
X221687380Y-57360475D01*
X221687380Y-57360475D02*
X221639761Y-57265237D01*
X221639761Y-57265237D02*
X221592142Y-57217618D01*
X221592142Y-57217618D02*
X221496904Y-57169999D01*
X221496904Y-57169999D02*
X221211190Y-57169999D01*
X221211190Y-57169999D02*
X221115952Y-57217618D01*
X221115952Y-57217618D02*
X221068333Y-57265237D01*
X221068333Y-57265237D02*
X221020714Y-57360475D01*
X221020714Y-57360475D02*
X221020714Y-57550951D01*
X221020714Y-57550951D02*
X221068333Y-57646189D01*
X221687380Y-58122380D02*
X220687380Y-58122380D01*
X221687380Y-58550951D02*
X221163571Y-58550951D01*
X221163571Y-58550951D02*
X221068333Y-58503332D01*
X221068333Y-58503332D02*
X221020714Y-58408094D01*
X221020714Y-58408094D02*
X221020714Y-58265237D01*
X221020714Y-58265237D02*
X221068333Y-58169999D01*
X221068333Y-58169999D02*
X221115952Y-58122380D01*
X221639761Y-59074761D02*
X221687380Y-59074761D01*
X221687380Y-59074761D02*
X221782619Y-59027142D01*
X221782619Y-59027142D02*
X221830238Y-58979523D01*
X221163571Y-59836665D02*
X221163571Y-59503332D01*
X221687380Y-59503332D02*
X220687380Y-59503332D01*
X220687380Y-59503332D02*
X220687380Y-59979522D01*
X221687380Y-60503332D02*
X221639761Y-60408094D01*
X221639761Y-60408094D02*
X221544523Y-60360475D01*
X221544523Y-60360475D02*
X220687380Y-60360475D01*
X221687380Y-61027142D02*
X221639761Y-60931904D01*
X221639761Y-60931904D02*
X221592142Y-60884285D01*
X221592142Y-60884285D02*
X221496904Y-60836666D01*
X221496904Y-60836666D02*
X221211190Y-60836666D01*
X221211190Y-60836666D02*
X221115952Y-60884285D01*
X221115952Y-60884285D02*
X221068333Y-60931904D01*
X221068333Y-60931904D02*
X221020714Y-61027142D01*
X221020714Y-61027142D02*
X221020714Y-61169999D01*
X221020714Y-61169999D02*
X221068333Y-61265237D01*
X221068333Y-61265237D02*
X221115952Y-61312856D01*
X221115952Y-61312856D02*
X221211190Y-61360475D01*
X221211190Y-61360475D02*
X221496904Y-61360475D01*
X221496904Y-61360475D02*
X221592142Y-61312856D01*
X221592142Y-61312856D02*
X221639761Y-61265237D01*
X221639761Y-61265237D02*
X221687380Y-61169999D01*
X221687380Y-61169999D02*
X221687380Y-61027142D01*
X221687380Y-62217618D02*
X221163571Y-62217618D01*
X221163571Y-62217618D02*
X221068333Y-62169999D01*
X221068333Y-62169999D02*
X221020714Y-62074761D01*
X221020714Y-62074761D02*
X221020714Y-61884285D01*
X221020714Y-61884285D02*
X221068333Y-61789047D01*
X221639761Y-62217618D02*
X221687380Y-62122380D01*
X221687380Y-62122380D02*
X221687380Y-61884285D01*
X221687380Y-61884285D02*
X221639761Y-61789047D01*
X221639761Y-61789047D02*
X221544523Y-61741428D01*
X221544523Y-61741428D02*
X221449285Y-61741428D01*
X221449285Y-61741428D02*
X221354047Y-61789047D01*
X221354047Y-61789047D02*
X221306428Y-61884285D01*
X221306428Y-61884285D02*
X221306428Y-62122380D01*
X221306428Y-62122380D02*
X221258809Y-62217618D01*
X221020714Y-62550952D02*
X221020714Y-62931904D01*
X220687380Y-62693809D02*
X221544523Y-62693809D01*
X221544523Y-62693809D02*
X221639761Y-62741428D01*
X221639761Y-62741428D02*
X221687380Y-62836666D01*
X221687380Y-62836666D02*
X221687380Y-62931904D01*
X221687380Y-63265238D02*
X221020714Y-63265238D01*
X220687380Y-63265238D02*
X220735000Y-63217619D01*
X220735000Y-63217619D02*
X220782619Y-63265238D01*
X220782619Y-63265238D02*
X220735000Y-63312857D01*
X220735000Y-63312857D02*
X220687380Y-63265238D01*
X220687380Y-63265238D02*
X220782619Y-63265238D01*
X221020714Y-63741428D02*
X221687380Y-63741428D01*
X221115952Y-63741428D02*
X221068333Y-63789047D01*
X221068333Y-63789047D02*
X221020714Y-63884285D01*
X221020714Y-63884285D02*
X221020714Y-64027142D01*
X221020714Y-64027142D02*
X221068333Y-64122380D01*
X221068333Y-64122380D02*
X221163571Y-64169999D01*
X221163571Y-64169999D02*
X221687380Y-64169999D01*
X221020714Y-65074761D02*
X221830238Y-65074761D01*
X221830238Y-65074761D02*
X221925476Y-65027142D01*
X221925476Y-65027142D02*
X221973095Y-64979523D01*
X221973095Y-64979523D02*
X222020714Y-64884285D01*
X222020714Y-64884285D02*
X222020714Y-64741428D01*
X222020714Y-64741428D02*
X221973095Y-64646190D01*
X221639761Y-65074761D02*
X221687380Y-64979523D01*
X221687380Y-64979523D02*
X221687380Y-64789047D01*
X221687380Y-64789047D02*
X221639761Y-64693809D01*
X221639761Y-64693809D02*
X221592142Y-64646190D01*
X221592142Y-64646190D02*
X221496904Y-64598571D01*
X221496904Y-64598571D02*
X221211190Y-64598571D01*
X221211190Y-64598571D02*
X221115952Y-64646190D01*
X221115952Y-64646190D02*
X221068333Y-64693809D01*
X221068333Y-64693809D02*
X221020714Y-64789047D01*
X221020714Y-64789047D02*
X221020714Y-64979523D01*
X221020714Y-64979523D02*
X221068333Y-65074761D01*
X222068333Y-65455714D02*
X222020714Y-65503333D01*
X222020714Y-65503333D02*
X221877857Y-65598571D01*
X221877857Y-65598571D02*
X221782619Y-65646190D01*
X221782619Y-65646190D02*
X221639761Y-65693809D01*
X221639761Y-65693809D02*
X221401666Y-65741428D01*
X221401666Y-65741428D02*
X221211190Y-65741428D01*
X221211190Y-65741428D02*
X220973095Y-65693809D01*
X220973095Y-65693809D02*
X220830238Y-65646190D01*
X220830238Y-65646190D02*
X220735000Y-65598571D01*
X220735000Y-65598571D02*
X220592142Y-65503333D01*
X220592142Y-65503333D02*
X220544523Y-65455714D01*
X221163571Y-66217619D02*
X221163571Y-66979524D01*
X221449285Y-66979524D02*
X221449285Y-66217619D01*
X220782619Y-67408095D02*
X220735000Y-67455714D01*
X220735000Y-67455714D02*
X220687380Y-67550952D01*
X220687380Y-67550952D02*
X220687380Y-67789047D01*
X220687380Y-67789047D02*
X220735000Y-67884285D01*
X220735000Y-67884285D02*
X220782619Y-67931904D01*
X220782619Y-67931904D02*
X220877857Y-67979523D01*
X220877857Y-67979523D02*
X220973095Y-67979523D01*
X220973095Y-67979523D02*
X221115952Y-67931904D01*
X221115952Y-67931904D02*
X221687380Y-67360476D01*
X221687380Y-67360476D02*
X221687380Y-67979523D01*
X220687380Y-68598571D02*
X220687380Y-68693809D01*
X220687380Y-68693809D02*
X220735000Y-68789047D01*
X220735000Y-68789047D02*
X220782619Y-68836666D01*
X220782619Y-68836666D02*
X220877857Y-68884285D01*
X220877857Y-68884285D02*
X221068333Y-68931904D01*
X221068333Y-68931904D02*
X221306428Y-68931904D01*
X221306428Y-68931904D02*
X221496904Y-68884285D01*
X221496904Y-68884285D02*
X221592142Y-68836666D01*
X221592142Y-68836666D02*
X221639761Y-68789047D01*
X221639761Y-68789047D02*
X221687380Y-68693809D01*
X221687380Y-68693809D02*
X221687380Y-68598571D01*
X221687380Y-68598571D02*
X221639761Y-68503333D01*
X221639761Y-68503333D02*
X221592142Y-68455714D01*
X221592142Y-68455714D02*
X221496904Y-68408095D01*
X221496904Y-68408095D02*
X221306428Y-68360476D01*
X221306428Y-68360476D02*
X221068333Y-68360476D01*
X221068333Y-68360476D02*
X220877857Y-68408095D01*
X220877857Y-68408095D02*
X220782619Y-68455714D01*
X220782619Y-68455714D02*
X220735000Y-68503333D01*
X220735000Y-68503333D02*
X220687380Y-68598571D01*
X222307380Y-40265238D02*
X223307380Y-40598571D01*
X223307380Y-40598571D02*
X222307380Y-40931904D01*
X223688333Y-41550952D02*
X223640714Y-41503333D01*
X223640714Y-41503333D02*
X223497857Y-41408095D01*
X223497857Y-41408095D02*
X223402619Y-41360476D01*
X223402619Y-41360476D02*
X223259761Y-41312857D01*
X223259761Y-41312857D02*
X223021666Y-41265238D01*
X223021666Y-41265238D02*
X222831190Y-41265238D01*
X222831190Y-41265238D02*
X222593095Y-41312857D01*
X222593095Y-41312857D02*
X222450238Y-41360476D01*
X222450238Y-41360476D02*
X222355000Y-41408095D01*
X222355000Y-41408095D02*
X222212142Y-41503333D01*
X222212142Y-41503333D02*
X222164523Y-41550952D01*
X223307380Y-41931905D02*
X222307380Y-41931905D01*
X223307380Y-42408095D02*
X222307380Y-42408095D01*
X222307380Y-42408095D02*
X222307380Y-42789047D01*
X222307380Y-42789047D02*
X222355000Y-42884285D01*
X222355000Y-42884285D02*
X222402619Y-42931904D01*
X222402619Y-42931904D02*
X222497857Y-42979523D01*
X222497857Y-42979523D02*
X222640714Y-42979523D01*
X222640714Y-42979523D02*
X222735952Y-42931904D01*
X222735952Y-42931904D02*
X222783571Y-42884285D01*
X222783571Y-42884285D02*
X222831190Y-42789047D01*
X222831190Y-42789047D02*
X222831190Y-42408095D01*
X222402619Y-43360476D02*
X222355000Y-43408095D01*
X222355000Y-43408095D02*
X222307380Y-43503333D01*
X222307380Y-43503333D02*
X222307380Y-43741428D01*
X222307380Y-43741428D02*
X222355000Y-43836666D01*
X222355000Y-43836666D02*
X222402619Y-43884285D01*
X222402619Y-43884285D02*
X222497857Y-43931904D01*
X222497857Y-43931904D02*
X222593095Y-43931904D01*
X222593095Y-43931904D02*
X222735952Y-43884285D01*
X222735952Y-43884285D02*
X223307380Y-43312857D01*
X223307380Y-43312857D02*
X223307380Y-43931904D01*
X222307380Y-44265238D02*
X222307380Y-44931904D01*
X222307380Y-44931904D02*
X223307380Y-44503333D01*
X222402619Y-45265238D02*
X222355000Y-45312857D01*
X222355000Y-45312857D02*
X222307380Y-45408095D01*
X222307380Y-45408095D02*
X222307380Y-45646190D01*
X222307380Y-45646190D02*
X222355000Y-45741428D01*
X222355000Y-45741428D02*
X222402619Y-45789047D01*
X222402619Y-45789047D02*
X222497857Y-45836666D01*
X222497857Y-45836666D02*
X222593095Y-45836666D01*
X222593095Y-45836666D02*
X222735952Y-45789047D01*
X222735952Y-45789047D02*
X223307380Y-45217619D01*
X223307380Y-45217619D02*
X223307380Y-45836666D01*
X223307380Y-46789047D02*
X223307380Y-46217619D01*
X223307380Y-46503333D02*
X222307380Y-46503333D01*
X222307380Y-46503333D02*
X222450238Y-46408095D01*
X222450238Y-46408095D02*
X222545476Y-46312857D01*
X222545476Y-46312857D02*
X222593095Y-46217619D01*
X223640714Y-47455714D02*
X222212142Y-47455714D01*
X223307380Y-48170000D02*
X222307380Y-48170000D01*
X223307380Y-48646190D02*
X222307380Y-48646190D01*
X222307380Y-48646190D02*
X222307380Y-49027142D01*
X222307380Y-49027142D02*
X222355000Y-49122380D01*
X222355000Y-49122380D02*
X222402619Y-49169999D01*
X222402619Y-49169999D02*
X222497857Y-49217618D01*
X222497857Y-49217618D02*
X222640714Y-49217618D01*
X222640714Y-49217618D02*
X222735952Y-49169999D01*
X222735952Y-49169999D02*
X222783571Y-49122380D01*
X222783571Y-49122380D02*
X222831190Y-49027142D01*
X222831190Y-49027142D02*
X222831190Y-48646190D01*
X222402619Y-49598571D02*
X222355000Y-49646190D01*
X222355000Y-49646190D02*
X222307380Y-49741428D01*
X222307380Y-49741428D02*
X222307380Y-49979523D01*
X222307380Y-49979523D02*
X222355000Y-50074761D01*
X222355000Y-50074761D02*
X222402619Y-50122380D01*
X222402619Y-50122380D02*
X222497857Y-50169999D01*
X222497857Y-50169999D02*
X222593095Y-50169999D01*
X222593095Y-50169999D02*
X222735952Y-50122380D01*
X222735952Y-50122380D02*
X223307380Y-49550952D01*
X223307380Y-49550952D02*
X223307380Y-50169999D01*
X222307380Y-50503333D02*
X222307380Y-51169999D01*
X222307380Y-51169999D02*
X223307380Y-50741428D01*
X222402619Y-51503333D02*
X222355000Y-51550952D01*
X222355000Y-51550952D02*
X222307380Y-51646190D01*
X222307380Y-51646190D02*
X222307380Y-51884285D01*
X222307380Y-51884285D02*
X222355000Y-51979523D01*
X222355000Y-51979523D02*
X222402619Y-52027142D01*
X222402619Y-52027142D02*
X222497857Y-52074761D01*
X222497857Y-52074761D02*
X222593095Y-52074761D01*
X222593095Y-52074761D02*
X222735952Y-52027142D01*
X222735952Y-52027142D02*
X223307380Y-51455714D01*
X223307380Y-51455714D02*
X223307380Y-52074761D01*
X223307380Y-53027142D02*
X223307380Y-52455714D01*
X223307380Y-52741428D02*
X222307380Y-52741428D01*
X222307380Y-52741428D02*
X222450238Y-52646190D01*
X222450238Y-52646190D02*
X222545476Y-52550952D01*
X222545476Y-52550952D02*
X222593095Y-52455714D01*
X223402619Y-53217619D02*
X223402619Y-53979523D01*
X223307380Y-54217619D02*
X222307380Y-54217619D01*
X222307380Y-54217619D02*
X222307380Y-54455714D01*
X222307380Y-54455714D02*
X222355000Y-54598571D01*
X222355000Y-54598571D02*
X222450238Y-54693809D01*
X222450238Y-54693809D02*
X222545476Y-54741428D01*
X222545476Y-54741428D02*
X222735952Y-54789047D01*
X222735952Y-54789047D02*
X222878809Y-54789047D01*
X222878809Y-54789047D02*
X223069285Y-54741428D01*
X223069285Y-54741428D02*
X223164523Y-54693809D01*
X223164523Y-54693809D02*
X223259761Y-54598571D01*
X223259761Y-54598571D02*
X223307380Y-54455714D01*
X223307380Y-54455714D02*
X223307380Y-54217619D01*
X223259761Y-55265238D02*
X223307380Y-55265238D01*
X223307380Y-55265238D02*
X223402619Y-55217619D01*
X223402619Y-55217619D02*
X223450238Y-55170000D01*
X222783571Y-56027142D02*
X222783571Y-55693809D01*
X223307380Y-55693809D02*
X222307380Y-55693809D01*
X222307380Y-55693809D02*
X222307380Y-56169999D01*
X223259761Y-56598571D02*
X223307380Y-56598571D01*
X223307380Y-56598571D02*
X223402619Y-56550952D01*
X223402619Y-56550952D02*
X223450238Y-56503333D01*
X222783571Y-57360475D02*
X222783571Y-57027142D01*
X223307380Y-57027142D02*
X222307380Y-57027142D01*
X222307380Y-57027142D02*
X222307380Y-57503332D01*
X223688333Y-57789047D02*
X223640714Y-57836666D01*
X223640714Y-57836666D02*
X223497857Y-57931904D01*
X223497857Y-57931904D02*
X223402619Y-57979523D01*
X223402619Y-57979523D02*
X223259761Y-58027142D01*
X223259761Y-58027142D02*
X223021666Y-58074761D01*
X223021666Y-58074761D02*
X222831190Y-58074761D01*
X222831190Y-58074761D02*
X222593095Y-58027142D01*
X222593095Y-58027142D02*
X222450238Y-57979523D01*
X222450238Y-57979523D02*
X222355000Y-57931904D01*
X222355000Y-57931904D02*
X222212142Y-57836666D01*
X222212142Y-57836666D02*
X222164523Y-57789047D01*
X222783571Y-58550952D02*
X222783571Y-59312857D01*
X223069285Y-59312857D02*
X223069285Y-58550952D01*
X223307380Y-60312856D02*
X223307380Y-59741428D01*
X223307380Y-60027142D02*
X222307380Y-60027142D01*
X222307380Y-60027142D02*
X222450238Y-59931904D01*
X222450238Y-59931904D02*
X222545476Y-59836666D01*
X222545476Y-59836666D02*
X222593095Y-59741428D01*
X222307380Y-61217618D02*
X222307380Y-60741428D01*
X222307380Y-60741428D02*
X222783571Y-60693809D01*
X222783571Y-60693809D02*
X222735952Y-60741428D01*
X222735952Y-60741428D02*
X222688333Y-60836666D01*
X222688333Y-60836666D02*
X222688333Y-61074761D01*
X222688333Y-61074761D02*
X222735952Y-61169999D01*
X222735952Y-61169999D02*
X222783571Y-61217618D01*
X222783571Y-61217618D02*
X222878809Y-61265237D01*
X222878809Y-61265237D02*
X223116904Y-61265237D01*
X223116904Y-61265237D02*
X223212142Y-61217618D01*
X223212142Y-61217618D02*
X223259761Y-61169999D01*
X223259761Y-61169999D02*
X223307380Y-61074761D01*
X223307380Y-61074761D02*
X223307380Y-60836666D01*
X223307380Y-60836666D02*
X223259761Y-60741428D01*
X223259761Y-60741428D02*
X223212142Y-60693809D01*
X223927380Y-40265238D02*
X224927380Y-40598571D01*
X224927380Y-40598571D02*
X223927380Y-40931904D01*
X225308333Y-41550952D02*
X225260714Y-41503333D01*
X225260714Y-41503333D02*
X225117857Y-41408095D01*
X225117857Y-41408095D02*
X225022619Y-41360476D01*
X225022619Y-41360476D02*
X224879761Y-41312857D01*
X224879761Y-41312857D02*
X224641666Y-41265238D01*
X224641666Y-41265238D02*
X224451190Y-41265238D01*
X224451190Y-41265238D02*
X224213095Y-41312857D01*
X224213095Y-41312857D02*
X224070238Y-41360476D01*
X224070238Y-41360476D02*
X223975000Y-41408095D01*
X223975000Y-41408095D02*
X223832142Y-41503333D01*
X223832142Y-41503333D02*
X223784523Y-41550952D01*
X224927380Y-41931905D02*
X223927380Y-41931905D01*
X224927380Y-42408095D02*
X223927380Y-42408095D01*
X223927380Y-42408095D02*
X223927380Y-42789047D01*
X223927380Y-42789047D02*
X223975000Y-42884285D01*
X223975000Y-42884285D02*
X224022619Y-42931904D01*
X224022619Y-42931904D02*
X224117857Y-42979523D01*
X224117857Y-42979523D02*
X224260714Y-42979523D01*
X224260714Y-42979523D02*
X224355952Y-42931904D01*
X224355952Y-42931904D02*
X224403571Y-42884285D01*
X224403571Y-42884285D02*
X224451190Y-42789047D01*
X224451190Y-42789047D02*
X224451190Y-42408095D01*
X224022619Y-43360476D02*
X223975000Y-43408095D01*
X223975000Y-43408095D02*
X223927380Y-43503333D01*
X223927380Y-43503333D02*
X223927380Y-43741428D01*
X223927380Y-43741428D02*
X223975000Y-43836666D01*
X223975000Y-43836666D02*
X224022619Y-43884285D01*
X224022619Y-43884285D02*
X224117857Y-43931904D01*
X224117857Y-43931904D02*
X224213095Y-43931904D01*
X224213095Y-43931904D02*
X224355952Y-43884285D01*
X224355952Y-43884285D02*
X224927380Y-43312857D01*
X224927380Y-43312857D02*
X224927380Y-43931904D01*
X223927380Y-44265238D02*
X223927380Y-44931904D01*
X223927380Y-44931904D02*
X224927380Y-44503333D01*
X224022619Y-45265238D02*
X223975000Y-45312857D01*
X223975000Y-45312857D02*
X223927380Y-45408095D01*
X223927380Y-45408095D02*
X223927380Y-45646190D01*
X223927380Y-45646190D02*
X223975000Y-45741428D01*
X223975000Y-45741428D02*
X224022619Y-45789047D01*
X224022619Y-45789047D02*
X224117857Y-45836666D01*
X224117857Y-45836666D02*
X224213095Y-45836666D01*
X224213095Y-45836666D02*
X224355952Y-45789047D01*
X224355952Y-45789047D02*
X224927380Y-45217619D01*
X224927380Y-45217619D02*
X224927380Y-45836666D01*
X224927380Y-46789047D02*
X224927380Y-46217619D01*
X224927380Y-46503333D02*
X223927380Y-46503333D01*
X223927380Y-46503333D02*
X224070238Y-46408095D01*
X224070238Y-46408095D02*
X224165476Y-46312857D01*
X224165476Y-46312857D02*
X224213095Y-46217619D01*
X225260714Y-47455714D02*
X223832142Y-47455714D01*
X224927380Y-48170000D02*
X223927380Y-48170000D01*
X224927380Y-48646190D02*
X223927380Y-48646190D01*
X223927380Y-48646190D02*
X223927380Y-49027142D01*
X223927380Y-49027142D02*
X223975000Y-49122380D01*
X223975000Y-49122380D02*
X224022619Y-49169999D01*
X224022619Y-49169999D02*
X224117857Y-49217618D01*
X224117857Y-49217618D02*
X224260714Y-49217618D01*
X224260714Y-49217618D02*
X224355952Y-49169999D01*
X224355952Y-49169999D02*
X224403571Y-49122380D01*
X224403571Y-49122380D02*
X224451190Y-49027142D01*
X224451190Y-49027142D02*
X224451190Y-48646190D01*
X224022619Y-49598571D02*
X223975000Y-49646190D01*
X223975000Y-49646190D02*
X223927380Y-49741428D01*
X223927380Y-49741428D02*
X223927380Y-49979523D01*
X223927380Y-49979523D02*
X223975000Y-50074761D01*
X223975000Y-50074761D02*
X224022619Y-50122380D01*
X224022619Y-50122380D02*
X224117857Y-50169999D01*
X224117857Y-50169999D02*
X224213095Y-50169999D01*
X224213095Y-50169999D02*
X224355952Y-50122380D01*
X224355952Y-50122380D02*
X224927380Y-49550952D01*
X224927380Y-49550952D02*
X224927380Y-50169999D01*
X223927380Y-50503333D02*
X223927380Y-51169999D01*
X223927380Y-51169999D02*
X224927380Y-50741428D01*
X224022619Y-51503333D02*
X223975000Y-51550952D01*
X223975000Y-51550952D02*
X223927380Y-51646190D01*
X223927380Y-51646190D02*
X223927380Y-51884285D01*
X223927380Y-51884285D02*
X223975000Y-51979523D01*
X223975000Y-51979523D02*
X224022619Y-52027142D01*
X224022619Y-52027142D02*
X224117857Y-52074761D01*
X224117857Y-52074761D02*
X224213095Y-52074761D01*
X224213095Y-52074761D02*
X224355952Y-52027142D01*
X224355952Y-52027142D02*
X224927380Y-51455714D01*
X224927380Y-51455714D02*
X224927380Y-52074761D01*
X224927380Y-53027142D02*
X224927380Y-52455714D01*
X224927380Y-52741428D02*
X223927380Y-52741428D01*
X223927380Y-52741428D02*
X224070238Y-52646190D01*
X224070238Y-52646190D02*
X224165476Y-52550952D01*
X224165476Y-52550952D02*
X224213095Y-52455714D01*
X225022619Y-53217619D02*
X225022619Y-53979523D01*
X224927380Y-54217619D02*
X223927380Y-54217619D01*
X223927380Y-54217619D02*
X223927380Y-54455714D01*
X223927380Y-54455714D02*
X223975000Y-54598571D01*
X223975000Y-54598571D02*
X224070238Y-54693809D01*
X224070238Y-54693809D02*
X224165476Y-54741428D01*
X224165476Y-54741428D02*
X224355952Y-54789047D01*
X224355952Y-54789047D02*
X224498809Y-54789047D01*
X224498809Y-54789047D02*
X224689285Y-54741428D01*
X224689285Y-54741428D02*
X224784523Y-54693809D01*
X224784523Y-54693809D02*
X224879761Y-54598571D01*
X224879761Y-54598571D02*
X224927380Y-54455714D01*
X224927380Y-54455714D02*
X224927380Y-54217619D01*
X224879761Y-55265238D02*
X224927380Y-55265238D01*
X224927380Y-55265238D02*
X225022619Y-55217619D01*
X225022619Y-55217619D02*
X225070238Y-55170000D01*
X224927380Y-56169999D02*
X224927380Y-55693809D01*
X224927380Y-55693809D02*
X223927380Y-55693809D01*
X224927380Y-56646190D02*
X224879761Y-56550952D01*
X224879761Y-56550952D02*
X224832142Y-56503333D01*
X224832142Y-56503333D02*
X224736904Y-56455714D01*
X224736904Y-56455714D02*
X224451190Y-56455714D01*
X224451190Y-56455714D02*
X224355952Y-56503333D01*
X224355952Y-56503333D02*
X224308333Y-56550952D01*
X224308333Y-56550952D02*
X224260714Y-56646190D01*
X224260714Y-56646190D02*
X224260714Y-56789047D01*
X224260714Y-56789047D02*
X224308333Y-56884285D01*
X224308333Y-56884285D02*
X224355952Y-56931904D01*
X224355952Y-56931904D02*
X224451190Y-56979523D01*
X224451190Y-56979523D02*
X224736904Y-56979523D01*
X224736904Y-56979523D02*
X224832142Y-56931904D01*
X224832142Y-56931904D02*
X224879761Y-56884285D01*
X224879761Y-56884285D02*
X224927380Y-56789047D01*
X224927380Y-56789047D02*
X224927380Y-56646190D01*
X224260714Y-57312857D02*
X224927380Y-57503333D01*
X224927380Y-57503333D02*
X224451190Y-57693809D01*
X224451190Y-57693809D02*
X224927380Y-57884285D01*
X224927380Y-57884285D02*
X224260714Y-58074761D01*
X224879761Y-58503333D02*
X224927380Y-58503333D01*
X224927380Y-58503333D02*
X225022619Y-58455714D01*
X225022619Y-58455714D02*
X225070238Y-58408095D01*
X224403571Y-59265237D02*
X224403571Y-58931904D01*
X224927380Y-58931904D02*
X223927380Y-58931904D01*
X223927380Y-58931904D02*
X223927380Y-59408094D01*
X225308333Y-59693809D02*
X225260714Y-59741428D01*
X225260714Y-59741428D02*
X225117857Y-59836666D01*
X225117857Y-59836666D02*
X225022619Y-59884285D01*
X225022619Y-59884285D02*
X224879761Y-59931904D01*
X224879761Y-59931904D02*
X224641666Y-59979523D01*
X224641666Y-59979523D02*
X224451190Y-59979523D01*
X224451190Y-59979523D02*
X224213095Y-59931904D01*
X224213095Y-59931904D02*
X224070238Y-59884285D01*
X224070238Y-59884285D02*
X223975000Y-59836666D01*
X223975000Y-59836666D02*
X223832142Y-59741428D01*
X223832142Y-59741428D02*
X223784523Y-59693809D01*
X224403571Y-60455714D02*
X224403571Y-61217619D01*
X224689285Y-61217619D02*
X224689285Y-60455714D01*
X223927380Y-62169999D02*
X223927380Y-61693809D01*
X223927380Y-61693809D02*
X224403571Y-61646190D01*
X224403571Y-61646190D02*
X224355952Y-61693809D01*
X224355952Y-61693809D02*
X224308333Y-61789047D01*
X224308333Y-61789047D02*
X224308333Y-62027142D01*
X224308333Y-62027142D02*
X224355952Y-62122380D01*
X224355952Y-62122380D02*
X224403571Y-62169999D01*
X224403571Y-62169999D02*
X224498809Y-62217618D01*
X224498809Y-62217618D02*
X224736904Y-62217618D01*
X224736904Y-62217618D02*
X224832142Y-62169999D01*
X224832142Y-62169999D02*
X224879761Y-62122380D01*
X224879761Y-62122380D02*
X224927380Y-62027142D01*
X224927380Y-62027142D02*
X224927380Y-61789047D01*
X224927380Y-61789047D02*
X224879761Y-61693809D01*
X224879761Y-61693809D02*
X224832142Y-61646190D01*
X225547380Y-40265238D02*
X226547380Y-40598571D01*
X226547380Y-40598571D02*
X225547380Y-40931904D01*
X226928333Y-41550952D02*
X226880714Y-41503333D01*
X226880714Y-41503333D02*
X226737857Y-41408095D01*
X226737857Y-41408095D02*
X226642619Y-41360476D01*
X226642619Y-41360476D02*
X226499761Y-41312857D01*
X226499761Y-41312857D02*
X226261666Y-41265238D01*
X226261666Y-41265238D02*
X226071190Y-41265238D01*
X226071190Y-41265238D02*
X225833095Y-41312857D01*
X225833095Y-41312857D02*
X225690238Y-41360476D01*
X225690238Y-41360476D02*
X225595000Y-41408095D01*
X225595000Y-41408095D02*
X225452142Y-41503333D01*
X225452142Y-41503333D02*
X225404523Y-41550952D01*
X226547380Y-41931905D02*
X225547380Y-41931905D01*
X226547380Y-42408095D02*
X225547380Y-42408095D01*
X225547380Y-42408095D02*
X225547380Y-42789047D01*
X225547380Y-42789047D02*
X225595000Y-42884285D01*
X225595000Y-42884285D02*
X225642619Y-42931904D01*
X225642619Y-42931904D02*
X225737857Y-42979523D01*
X225737857Y-42979523D02*
X225880714Y-42979523D01*
X225880714Y-42979523D02*
X225975952Y-42931904D01*
X225975952Y-42931904D02*
X226023571Y-42884285D01*
X226023571Y-42884285D02*
X226071190Y-42789047D01*
X226071190Y-42789047D02*
X226071190Y-42408095D01*
X225642619Y-43360476D02*
X225595000Y-43408095D01*
X225595000Y-43408095D02*
X225547380Y-43503333D01*
X225547380Y-43503333D02*
X225547380Y-43741428D01*
X225547380Y-43741428D02*
X225595000Y-43836666D01*
X225595000Y-43836666D02*
X225642619Y-43884285D01*
X225642619Y-43884285D02*
X225737857Y-43931904D01*
X225737857Y-43931904D02*
X225833095Y-43931904D01*
X225833095Y-43931904D02*
X225975952Y-43884285D01*
X225975952Y-43884285D02*
X226547380Y-43312857D01*
X226547380Y-43312857D02*
X226547380Y-43931904D01*
X225547380Y-44265238D02*
X225547380Y-44931904D01*
X225547380Y-44931904D02*
X226547380Y-44503333D01*
X225642619Y-45265238D02*
X225595000Y-45312857D01*
X225595000Y-45312857D02*
X225547380Y-45408095D01*
X225547380Y-45408095D02*
X225547380Y-45646190D01*
X225547380Y-45646190D02*
X225595000Y-45741428D01*
X225595000Y-45741428D02*
X225642619Y-45789047D01*
X225642619Y-45789047D02*
X225737857Y-45836666D01*
X225737857Y-45836666D02*
X225833095Y-45836666D01*
X225833095Y-45836666D02*
X225975952Y-45789047D01*
X225975952Y-45789047D02*
X226547380Y-45217619D01*
X226547380Y-45217619D02*
X226547380Y-45836666D01*
X226547380Y-46789047D02*
X226547380Y-46217619D01*
X226547380Y-46503333D02*
X225547380Y-46503333D01*
X225547380Y-46503333D02*
X225690238Y-46408095D01*
X225690238Y-46408095D02*
X225785476Y-46312857D01*
X225785476Y-46312857D02*
X225833095Y-46217619D01*
X226642619Y-46979524D02*
X226642619Y-47741428D01*
X226547380Y-47979524D02*
X225547380Y-47979524D01*
X225547380Y-47979524D02*
X225547380Y-48217619D01*
X225547380Y-48217619D02*
X225595000Y-48360476D01*
X225595000Y-48360476D02*
X225690238Y-48455714D01*
X225690238Y-48455714D02*
X225785476Y-48503333D01*
X225785476Y-48503333D02*
X225975952Y-48550952D01*
X225975952Y-48550952D02*
X226118809Y-48550952D01*
X226118809Y-48550952D02*
X226309285Y-48503333D01*
X226309285Y-48503333D02*
X226404523Y-48455714D01*
X226404523Y-48455714D02*
X226499761Y-48360476D01*
X226499761Y-48360476D02*
X226547380Y-48217619D01*
X226547380Y-48217619D02*
X226547380Y-47979524D01*
X226499761Y-49027143D02*
X226547380Y-49027143D01*
X226547380Y-49027143D02*
X226642619Y-48979524D01*
X226642619Y-48979524D02*
X226690238Y-48931905D01*
X226023571Y-49789047D02*
X226023571Y-49455714D01*
X226547380Y-49455714D02*
X225547380Y-49455714D01*
X225547380Y-49455714D02*
X225547380Y-49931904D01*
X226499761Y-50360476D02*
X226547380Y-50360476D01*
X226547380Y-50360476D02*
X226642619Y-50312857D01*
X226642619Y-50312857D02*
X226690238Y-50265238D01*
X226547380Y-50789047D02*
X225547380Y-50789047D01*
X226023571Y-50789047D02*
X226023571Y-51360475D01*
X226547380Y-51360475D02*
X225547380Y-51360475D01*
X226928333Y-51741428D02*
X226880714Y-51789047D01*
X226880714Y-51789047D02*
X226737857Y-51884285D01*
X226737857Y-51884285D02*
X226642619Y-51931904D01*
X226642619Y-51931904D02*
X226499761Y-51979523D01*
X226499761Y-51979523D02*
X226261666Y-52027142D01*
X226261666Y-52027142D02*
X226071190Y-52027142D01*
X226071190Y-52027142D02*
X225833095Y-51979523D01*
X225833095Y-51979523D02*
X225690238Y-51931904D01*
X225690238Y-51931904D02*
X225595000Y-51884285D01*
X225595000Y-51884285D02*
X225452142Y-51789047D01*
X225452142Y-51789047D02*
X225404523Y-51741428D01*
X226023571Y-52503333D02*
X226023571Y-53265238D01*
X226309285Y-53265238D02*
X226309285Y-52503333D01*
X226547380Y-54265237D02*
X226547380Y-53693809D01*
X226547380Y-53979523D02*
X225547380Y-53979523D01*
X225547380Y-53979523D02*
X225690238Y-53884285D01*
X225690238Y-53884285D02*
X225785476Y-53789047D01*
X225785476Y-53789047D02*
X225833095Y-53693809D01*
X225642619Y-54646190D02*
X225595000Y-54693809D01*
X225595000Y-54693809D02*
X225547380Y-54789047D01*
X225547380Y-54789047D02*
X225547380Y-55027142D01*
X225547380Y-55027142D02*
X225595000Y-55122380D01*
X225595000Y-55122380D02*
X225642619Y-55169999D01*
X225642619Y-55169999D02*
X225737857Y-55217618D01*
X225737857Y-55217618D02*
X225833095Y-55217618D01*
X225833095Y-55217618D02*
X225975952Y-55169999D01*
X225975952Y-55169999D02*
X226547380Y-54598571D01*
X226547380Y-54598571D02*
X226547380Y-55217618D01*
X227167380Y-40265238D02*
X228167380Y-40598571D01*
X228167380Y-40598571D02*
X227167380Y-40931904D01*
X228548333Y-41550952D02*
X228500714Y-41503333D01*
X228500714Y-41503333D02*
X228357857Y-41408095D01*
X228357857Y-41408095D02*
X228262619Y-41360476D01*
X228262619Y-41360476D02*
X228119761Y-41312857D01*
X228119761Y-41312857D02*
X227881666Y-41265238D01*
X227881666Y-41265238D02*
X227691190Y-41265238D01*
X227691190Y-41265238D02*
X227453095Y-41312857D01*
X227453095Y-41312857D02*
X227310238Y-41360476D01*
X227310238Y-41360476D02*
X227215000Y-41408095D01*
X227215000Y-41408095D02*
X227072142Y-41503333D01*
X227072142Y-41503333D02*
X227024523Y-41550952D01*
X228167380Y-41931905D02*
X227167380Y-41931905D01*
X228167380Y-42408095D02*
X227167380Y-42408095D01*
X227167380Y-42408095D02*
X227167380Y-42789047D01*
X227167380Y-42789047D02*
X227215000Y-42884285D01*
X227215000Y-42884285D02*
X227262619Y-42931904D01*
X227262619Y-42931904D02*
X227357857Y-42979523D01*
X227357857Y-42979523D02*
X227500714Y-42979523D01*
X227500714Y-42979523D02*
X227595952Y-42931904D01*
X227595952Y-42931904D02*
X227643571Y-42884285D01*
X227643571Y-42884285D02*
X227691190Y-42789047D01*
X227691190Y-42789047D02*
X227691190Y-42408095D01*
X227262619Y-43360476D02*
X227215000Y-43408095D01*
X227215000Y-43408095D02*
X227167380Y-43503333D01*
X227167380Y-43503333D02*
X227167380Y-43741428D01*
X227167380Y-43741428D02*
X227215000Y-43836666D01*
X227215000Y-43836666D02*
X227262619Y-43884285D01*
X227262619Y-43884285D02*
X227357857Y-43931904D01*
X227357857Y-43931904D02*
X227453095Y-43931904D01*
X227453095Y-43931904D02*
X227595952Y-43884285D01*
X227595952Y-43884285D02*
X228167380Y-43312857D01*
X228167380Y-43312857D02*
X228167380Y-43931904D01*
X227167380Y-44265238D02*
X227167380Y-44931904D01*
X227167380Y-44931904D02*
X228167380Y-44503333D01*
X227262619Y-45265238D02*
X227215000Y-45312857D01*
X227215000Y-45312857D02*
X227167380Y-45408095D01*
X227167380Y-45408095D02*
X227167380Y-45646190D01*
X227167380Y-45646190D02*
X227215000Y-45741428D01*
X227215000Y-45741428D02*
X227262619Y-45789047D01*
X227262619Y-45789047D02*
X227357857Y-45836666D01*
X227357857Y-45836666D02*
X227453095Y-45836666D01*
X227453095Y-45836666D02*
X227595952Y-45789047D01*
X227595952Y-45789047D02*
X228167380Y-45217619D01*
X228167380Y-45217619D02*
X228167380Y-45836666D01*
X228167380Y-46789047D02*
X228167380Y-46217619D01*
X228167380Y-46503333D02*
X227167380Y-46503333D01*
X227167380Y-46503333D02*
X227310238Y-46408095D01*
X227310238Y-46408095D02*
X227405476Y-46312857D01*
X227405476Y-46312857D02*
X227453095Y-46217619D01*
X228262619Y-46979524D02*
X228262619Y-47741428D01*
X228167380Y-47979524D02*
X227167380Y-47979524D01*
X227167380Y-47979524D02*
X227167380Y-48217619D01*
X227167380Y-48217619D02*
X227215000Y-48360476D01*
X227215000Y-48360476D02*
X227310238Y-48455714D01*
X227310238Y-48455714D02*
X227405476Y-48503333D01*
X227405476Y-48503333D02*
X227595952Y-48550952D01*
X227595952Y-48550952D02*
X227738809Y-48550952D01*
X227738809Y-48550952D02*
X227929285Y-48503333D01*
X227929285Y-48503333D02*
X228024523Y-48455714D01*
X228024523Y-48455714D02*
X228119761Y-48360476D01*
X228119761Y-48360476D02*
X228167380Y-48217619D01*
X228167380Y-48217619D02*
X228167380Y-47979524D01*
X228119761Y-49027143D02*
X228167380Y-49027143D01*
X228167380Y-49027143D02*
X228262619Y-48979524D01*
X228262619Y-48979524D02*
X228310238Y-48931905D01*
X227643571Y-49789047D02*
X227643571Y-49455714D01*
X228167380Y-49455714D02*
X227167380Y-49455714D01*
X227167380Y-49455714D02*
X227167380Y-49931904D01*
X228119761Y-50360476D02*
X228167380Y-50360476D01*
X228167380Y-50360476D02*
X228262619Y-50312857D01*
X228262619Y-50312857D02*
X228310238Y-50265238D01*
X228167380Y-51265237D02*
X228167380Y-50789047D01*
X228167380Y-50789047D02*
X227167380Y-50789047D01*
X228548333Y-51503333D02*
X228500714Y-51550952D01*
X228500714Y-51550952D02*
X228357857Y-51646190D01*
X228357857Y-51646190D02*
X228262619Y-51693809D01*
X228262619Y-51693809D02*
X228119761Y-51741428D01*
X228119761Y-51741428D02*
X227881666Y-51789047D01*
X227881666Y-51789047D02*
X227691190Y-51789047D01*
X227691190Y-51789047D02*
X227453095Y-51741428D01*
X227453095Y-51741428D02*
X227310238Y-51693809D01*
X227310238Y-51693809D02*
X227215000Y-51646190D01*
X227215000Y-51646190D02*
X227072142Y-51550952D01*
X227072142Y-51550952D02*
X227024523Y-51503333D01*
X227643571Y-52265238D02*
X227643571Y-53027143D01*
X227929285Y-53027143D02*
X227929285Y-52265238D01*
X228167380Y-53550952D02*
X228167380Y-53741428D01*
X228167380Y-53741428D02*
X228119761Y-53836666D01*
X228119761Y-53836666D02*
X228072142Y-53884285D01*
X228072142Y-53884285D02*
X227929285Y-53979523D01*
X227929285Y-53979523D02*
X227738809Y-54027142D01*
X227738809Y-54027142D02*
X227357857Y-54027142D01*
X227357857Y-54027142D02*
X227262619Y-53979523D01*
X227262619Y-53979523D02*
X227215000Y-53931904D01*
X227215000Y-53931904D02*
X227167380Y-53836666D01*
X227167380Y-53836666D02*
X227167380Y-53646190D01*
X227167380Y-53646190D02*
X227215000Y-53550952D01*
X227215000Y-53550952D02*
X227262619Y-53503333D01*
X227262619Y-53503333D02*
X227357857Y-53455714D01*
X227357857Y-53455714D02*
X227595952Y-53455714D01*
X227595952Y-53455714D02*
X227691190Y-53503333D01*
X227691190Y-53503333D02*
X227738809Y-53550952D01*
X227738809Y-53550952D02*
X227786428Y-53646190D01*
X227786428Y-53646190D02*
X227786428Y-53836666D01*
X227786428Y-53836666D02*
X227738809Y-53931904D01*
X227738809Y-53931904D02*
X227691190Y-53979523D01*
X227691190Y-53979523D02*
X227595952Y-54027142D01*
X228787380Y-40265238D02*
X229787380Y-40598571D01*
X229787380Y-40598571D02*
X228787380Y-40931904D01*
X230168333Y-41550952D02*
X230120714Y-41503333D01*
X230120714Y-41503333D02*
X229977857Y-41408095D01*
X229977857Y-41408095D02*
X229882619Y-41360476D01*
X229882619Y-41360476D02*
X229739761Y-41312857D01*
X229739761Y-41312857D02*
X229501666Y-41265238D01*
X229501666Y-41265238D02*
X229311190Y-41265238D01*
X229311190Y-41265238D02*
X229073095Y-41312857D01*
X229073095Y-41312857D02*
X228930238Y-41360476D01*
X228930238Y-41360476D02*
X228835000Y-41408095D01*
X228835000Y-41408095D02*
X228692142Y-41503333D01*
X228692142Y-41503333D02*
X228644523Y-41550952D01*
X229787380Y-41931905D02*
X228787380Y-41931905D01*
X229787380Y-42408095D02*
X228787380Y-42408095D01*
X228787380Y-42408095D02*
X228787380Y-42789047D01*
X228787380Y-42789047D02*
X228835000Y-42884285D01*
X228835000Y-42884285D02*
X228882619Y-42931904D01*
X228882619Y-42931904D02*
X228977857Y-42979523D01*
X228977857Y-42979523D02*
X229120714Y-42979523D01*
X229120714Y-42979523D02*
X229215952Y-42931904D01*
X229215952Y-42931904D02*
X229263571Y-42884285D01*
X229263571Y-42884285D02*
X229311190Y-42789047D01*
X229311190Y-42789047D02*
X229311190Y-42408095D01*
X228882619Y-43360476D02*
X228835000Y-43408095D01*
X228835000Y-43408095D02*
X228787380Y-43503333D01*
X228787380Y-43503333D02*
X228787380Y-43741428D01*
X228787380Y-43741428D02*
X228835000Y-43836666D01*
X228835000Y-43836666D02*
X228882619Y-43884285D01*
X228882619Y-43884285D02*
X228977857Y-43931904D01*
X228977857Y-43931904D02*
X229073095Y-43931904D01*
X229073095Y-43931904D02*
X229215952Y-43884285D01*
X229215952Y-43884285D02*
X229787380Y-43312857D01*
X229787380Y-43312857D02*
X229787380Y-43931904D01*
X228787380Y-44265238D02*
X228787380Y-44931904D01*
X228787380Y-44931904D02*
X229787380Y-44503333D01*
X228882619Y-45265238D02*
X228835000Y-45312857D01*
X228835000Y-45312857D02*
X228787380Y-45408095D01*
X228787380Y-45408095D02*
X228787380Y-45646190D01*
X228787380Y-45646190D02*
X228835000Y-45741428D01*
X228835000Y-45741428D02*
X228882619Y-45789047D01*
X228882619Y-45789047D02*
X228977857Y-45836666D01*
X228977857Y-45836666D02*
X229073095Y-45836666D01*
X229073095Y-45836666D02*
X229215952Y-45789047D01*
X229215952Y-45789047D02*
X229787380Y-45217619D01*
X229787380Y-45217619D02*
X229787380Y-45836666D01*
X229787380Y-46789047D02*
X229787380Y-46217619D01*
X229787380Y-46503333D02*
X228787380Y-46503333D01*
X228787380Y-46503333D02*
X228930238Y-46408095D01*
X228930238Y-46408095D02*
X229025476Y-46312857D01*
X229025476Y-46312857D02*
X229073095Y-46217619D01*
X229882619Y-46979524D02*
X229882619Y-47741428D01*
X229787380Y-47979524D02*
X228787380Y-47979524D01*
X228787380Y-47979524D02*
X229501666Y-48312857D01*
X229501666Y-48312857D02*
X228787380Y-48646190D01*
X228787380Y-48646190D02*
X229787380Y-48646190D01*
X229501666Y-49074762D02*
X229501666Y-49550952D01*
X229787380Y-48979524D02*
X228787380Y-49312857D01*
X228787380Y-49312857D02*
X229787380Y-49646190D01*
X228787380Y-49884286D02*
X229787380Y-50550952D01*
X228787380Y-50550952D02*
X229787380Y-49884286D01*
X229787380Y-51455714D02*
X229787380Y-50884286D01*
X229787380Y-51170000D02*
X228787380Y-51170000D01*
X228787380Y-51170000D02*
X228930238Y-51074762D01*
X228930238Y-51074762D02*
X229025476Y-50979524D01*
X229025476Y-50979524D02*
X229073095Y-50884286D01*
X228882619Y-51836667D02*
X228835000Y-51884286D01*
X228835000Y-51884286D02*
X228787380Y-51979524D01*
X228787380Y-51979524D02*
X228787380Y-52217619D01*
X228787380Y-52217619D02*
X228835000Y-52312857D01*
X228835000Y-52312857D02*
X228882619Y-52360476D01*
X228882619Y-52360476D02*
X228977857Y-52408095D01*
X228977857Y-52408095D02*
X229073095Y-52408095D01*
X229073095Y-52408095D02*
X229215952Y-52360476D01*
X229215952Y-52360476D02*
X229787380Y-51789048D01*
X229787380Y-51789048D02*
X229787380Y-52408095D01*
X229739761Y-52884286D02*
X229787380Y-52884286D01*
X229787380Y-52884286D02*
X229882619Y-52836667D01*
X229882619Y-52836667D02*
X229930238Y-52789048D01*
X229787380Y-53312857D02*
X228787380Y-53312857D01*
X229263571Y-53312857D02*
X229263571Y-53884285D01*
X229787380Y-53884285D02*
X228787380Y-53884285D01*
X229739761Y-54408095D02*
X229787380Y-54408095D01*
X229787380Y-54408095D02*
X229882619Y-54360476D01*
X229882619Y-54360476D02*
X229930238Y-54312857D01*
X229263571Y-55169999D02*
X229263571Y-54836666D01*
X229787380Y-54836666D02*
X228787380Y-54836666D01*
X228787380Y-54836666D02*
X228787380Y-55312856D01*
X230168333Y-55598571D02*
X230120714Y-55646190D01*
X230120714Y-55646190D02*
X229977857Y-55741428D01*
X229977857Y-55741428D02*
X229882619Y-55789047D01*
X229882619Y-55789047D02*
X229739761Y-55836666D01*
X229739761Y-55836666D02*
X229501666Y-55884285D01*
X229501666Y-55884285D02*
X229311190Y-55884285D01*
X229311190Y-55884285D02*
X229073095Y-55836666D01*
X229073095Y-55836666D02*
X228930238Y-55789047D01*
X228930238Y-55789047D02*
X228835000Y-55741428D01*
X228835000Y-55741428D02*
X228692142Y-55646190D01*
X228692142Y-55646190D02*
X228644523Y-55598571D01*
X229263571Y-56360476D02*
X229263571Y-57122381D01*
X229549285Y-57122381D02*
X229549285Y-56360476D01*
X229787380Y-58122380D02*
X229787380Y-57550952D01*
X229787380Y-57836666D02*
X228787380Y-57836666D01*
X228787380Y-57836666D02*
X228930238Y-57741428D01*
X228930238Y-57741428D02*
X229025476Y-57646190D01*
X229025476Y-57646190D02*
X229073095Y-57550952D01*
X228882619Y-58503333D02*
X228835000Y-58550952D01*
X228835000Y-58550952D02*
X228787380Y-58646190D01*
X228787380Y-58646190D02*
X228787380Y-58884285D01*
X228787380Y-58884285D02*
X228835000Y-58979523D01*
X228835000Y-58979523D02*
X228882619Y-59027142D01*
X228882619Y-59027142D02*
X228977857Y-59074761D01*
X228977857Y-59074761D02*
X229073095Y-59074761D01*
X229073095Y-59074761D02*
X229215952Y-59027142D01*
X229215952Y-59027142D02*
X229787380Y-58455714D01*
X229787380Y-58455714D02*
X229787380Y-59074761D01*
X230407380Y-40265238D02*
X231407380Y-40598571D01*
X231407380Y-40598571D02*
X230407380Y-40931904D01*
X231788333Y-41550952D02*
X231740714Y-41503333D01*
X231740714Y-41503333D02*
X231597857Y-41408095D01*
X231597857Y-41408095D02*
X231502619Y-41360476D01*
X231502619Y-41360476D02*
X231359761Y-41312857D01*
X231359761Y-41312857D02*
X231121666Y-41265238D01*
X231121666Y-41265238D02*
X230931190Y-41265238D01*
X230931190Y-41265238D02*
X230693095Y-41312857D01*
X230693095Y-41312857D02*
X230550238Y-41360476D01*
X230550238Y-41360476D02*
X230455000Y-41408095D01*
X230455000Y-41408095D02*
X230312142Y-41503333D01*
X230312142Y-41503333D02*
X230264523Y-41550952D01*
X231407380Y-41931905D02*
X230407380Y-41931905D01*
X231407380Y-42408095D02*
X230407380Y-42408095D01*
X230407380Y-42408095D02*
X230407380Y-42789047D01*
X230407380Y-42789047D02*
X230455000Y-42884285D01*
X230455000Y-42884285D02*
X230502619Y-42931904D01*
X230502619Y-42931904D02*
X230597857Y-42979523D01*
X230597857Y-42979523D02*
X230740714Y-42979523D01*
X230740714Y-42979523D02*
X230835952Y-42931904D01*
X230835952Y-42931904D02*
X230883571Y-42884285D01*
X230883571Y-42884285D02*
X230931190Y-42789047D01*
X230931190Y-42789047D02*
X230931190Y-42408095D01*
X230502619Y-43360476D02*
X230455000Y-43408095D01*
X230455000Y-43408095D02*
X230407380Y-43503333D01*
X230407380Y-43503333D02*
X230407380Y-43741428D01*
X230407380Y-43741428D02*
X230455000Y-43836666D01*
X230455000Y-43836666D02*
X230502619Y-43884285D01*
X230502619Y-43884285D02*
X230597857Y-43931904D01*
X230597857Y-43931904D02*
X230693095Y-43931904D01*
X230693095Y-43931904D02*
X230835952Y-43884285D01*
X230835952Y-43884285D02*
X231407380Y-43312857D01*
X231407380Y-43312857D02*
X231407380Y-43931904D01*
X230407380Y-44265238D02*
X230407380Y-44931904D01*
X230407380Y-44931904D02*
X231407380Y-44503333D01*
X230502619Y-45265238D02*
X230455000Y-45312857D01*
X230455000Y-45312857D02*
X230407380Y-45408095D01*
X230407380Y-45408095D02*
X230407380Y-45646190D01*
X230407380Y-45646190D02*
X230455000Y-45741428D01*
X230455000Y-45741428D02*
X230502619Y-45789047D01*
X230502619Y-45789047D02*
X230597857Y-45836666D01*
X230597857Y-45836666D02*
X230693095Y-45836666D01*
X230693095Y-45836666D02*
X230835952Y-45789047D01*
X230835952Y-45789047D02*
X231407380Y-45217619D01*
X231407380Y-45217619D02*
X231407380Y-45836666D01*
X231407380Y-46789047D02*
X231407380Y-46217619D01*
X231407380Y-46503333D02*
X230407380Y-46503333D01*
X230407380Y-46503333D02*
X230550238Y-46408095D01*
X230550238Y-46408095D02*
X230645476Y-46312857D01*
X230645476Y-46312857D02*
X230693095Y-46217619D01*
X231502619Y-46979524D02*
X231502619Y-47741428D01*
X231407380Y-47979524D02*
X230407380Y-47979524D01*
X230407380Y-47979524D02*
X231121666Y-48312857D01*
X231121666Y-48312857D02*
X230407380Y-48646190D01*
X230407380Y-48646190D02*
X231407380Y-48646190D01*
X231121666Y-49074762D02*
X231121666Y-49550952D01*
X231407380Y-48979524D02*
X230407380Y-49312857D01*
X230407380Y-49312857D02*
X231407380Y-49646190D01*
X230407380Y-49884286D02*
X231407380Y-50550952D01*
X230407380Y-50550952D02*
X231407380Y-49884286D01*
X231407380Y-51455714D02*
X231407380Y-50884286D01*
X231407380Y-51170000D02*
X230407380Y-51170000D01*
X230407380Y-51170000D02*
X230550238Y-51074762D01*
X230550238Y-51074762D02*
X230645476Y-50979524D01*
X230645476Y-50979524D02*
X230693095Y-50884286D01*
X230502619Y-51836667D02*
X230455000Y-51884286D01*
X230455000Y-51884286D02*
X230407380Y-51979524D01*
X230407380Y-51979524D02*
X230407380Y-52217619D01*
X230407380Y-52217619D02*
X230455000Y-52312857D01*
X230455000Y-52312857D02*
X230502619Y-52360476D01*
X230502619Y-52360476D02*
X230597857Y-52408095D01*
X230597857Y-52408095D02*
X230693095Y-52408095D01*
X230693095Y-52408095D02*
X230835952Y-52360476D01*
X230835952Y-52360476D02*
X231407380Y-51789048D01*
X231407380Y-51789048D02*
X231407380Y-52408095D01*
X231359761Y-52884286D02*
X231407380Y-52884286D01*
X231407380Y-52884286D02*
X231502619Y-52836667D01*
X231502619Y-52836667D02*
X231550238Y-52789048D01*
X230883571Y-53646190D02*
X230883571Y-53312857D01*
X231407380Y-53312857D02*
X230407380Y-53312857D01*
X230407380Y-53312857D02*
X230407380Y-53789047D01*
X231359761Y-54217619D02*
X231407380Y-54217619D01*
X231407380Y-54217619D02*
X231502619Y-54170000D01*
X231502619Y-54170000D02*
X231550238Y-54122381D01*
X230883571Y-54979523D02*
X230883571Y-54646190D01*
X231407380Y-54646190D02*
X230407380Y-54646190D01*
X230407380Y-54646190D02*
X230407380Y-55122380D01*
X231788333Y-55408095D02*
X231740714Y-55455714D01*
X231740714Y-55455714D02*
X231597857Y-55550952D01*
X231597857Y-55550952D02*
X231502619Y-55598571D01*
X231502619Y-55598571D02*
X231359761Y-55646190D01*
X231359761Y-55646190D02*
X231121666Y-55693809D01*
X231121666Y-55693809D02*
X230931190Y-55693809D01*
X230931190Y-55693809D02*
X230693095Y-55646190D01*
X230693095Y-55646190D02*
X230550238Y-55598571D01*
X230550238Y-55598571D02*
X230455000Y-55550952D01*
X230455000Y-55550952D02*
X230312142Y-55455714D01*
X230312142Y-55455714D02*
X230264523Y-55408095D01*
X230883571Y-56170000D02*
X230883571Y-56931905D01*
X231169285Y-56931905D02*
X231169285Y-56170000D01*
X231407380Y-57455714D02*
X231407380Y-57646190D01*
X231407380Y-57646190D02*
X231359761Y-57741428D01*
X231359761Y-57741428D02*
X231312142Y-57789047D01*
X231312142Y-57789047D02*
X231169285Y-57884285D01*
X231169285Y-57884285D02*
X230978809Y-57931904D01*
X230978809Y-57931904D02*
X230597857Y-57931904D01*
X230597857Y-57931904D02*
X230502619Y-57884285D01*
X230502619Y-57884285D02*
X230455000Y-57836666D01*
X230455000Y-57836666D02*
X230407380Y-57741428D01*
X230407380Y-57741428D02*
X230407380Y-57550952D01*
X230407380Y-57550952D02*
X230455000Y-57455714D01*
X230455000Y-57455714D02*
X230502619Y-57408095D01*
X230502619Y-57408095D02*
X230597857Y-57360476D01*
X230597857Y-57360476D02*
X230835952Y-57360476D01*
X230835952Y-57360476D02*
X230931190Y-57408095D01*
X230931190Y-57408095D02*
X230978809Y-57455714D01*
X230978809Y-57455714D02*
X231026428Y-57550952D01*
X231026428Y-57550952D02*
X231026428Y-57741428D01*
X231026428Y-57741428D02*
X230978809Y-57836666D01*
X230978809Y-57836666D02*
X230931190Y-57884285D01*
X230931190Y-57884285D02*
X230835952Y-57931904D01*
X232027380Y-40265238D02*
X233027380Y-40598571D01*
X233027380Y-40598571D02*
X232027380Y-40931904D01*
X233408333Y-41550952D02*
X233360714Y-41503333D01*
X233360714Y-41503333D02*
X233217857Y-41408095D01*
X233217857Y-41408095D02*
X233122619Y-41360476D01*
X233122619Y-41360476D02*
X232979761Y-41312857D01*
X232979761Y-41312857D02*
X232741666Y-41265238D01*
X232741666Y-41265238D02*
X232551190Y-41265238D01*
X232551190Y-41265238D02*
X232313095Y-41312857D01*
X232313095Y-41312857D02*
X232170238Y-41360476D01*
X232170238Y-41360476D02*
X232075000Y-41408095D01*
X232075000Y-41408095D02*
X231932142Y-41503333D01*
X231932142Y-41503333D02*
X231884523Y-41550952D01*
X233027380Y-41931905D02*
X232027380Y-41931905D01*
X233027380Y-42408095D02*
X232027380Y-42408095D01*
X232027380Y-42408095D02*
X232027380Y-42789047D01*
X232027380Y-42789047D02*
X232075000Y-42884285D01*
X232075000Y-42884285D02*
X232122619Y-42931904D01*
X232122619Y-42931904D02*
X232217857Y-42979523D01*
X232217857Y-42979523D02*
X232360714Y-42979523D01*
X232360714Y-42979523D02*
X232455952Y-42931904D01*
X232455952Y-42931904D02*
X232503571Y-42884285D01*
X232503571Y-42884285D02*
X232551190Y-42789047D01*
X232551190Y-42789047D02*
X232551190Y-42408095D01*
X232122619Y-43360476D02*
X232075000Y-43408095D01*
X232075000Y-43408095D02*
X232027380Y-43503333D01*
X232027380Y-43503333D02*
X232027380Y-43741428D01*
X232027380Y-43741428D02*
X232075000Y-43836666D01*
X232075000Y-43836666D02*
X232122619Y-43884285D01*
X232122619Y-43884285D02*
X232217857Y-43931904D01*
X232217857Y-43931904D02*
X232313095Y-43931904D01*
X232313095Y-43931904D02*
X232455952Y-43884285D01*
X232455952Y-43884285D02*
X233027380Y-43312857D01*
X233027380Y-43312857D02*
X233027380Y-43931904D01*
X232027380Y-44265238D02*
X232027380Y-44931904D01*
X232027380Y-44931904D02*
X233027380Y-44503333D01*
X232122619Y-45265238D02*
X232075000Y-45312857D01*
X232075000Y-45312857D02*
X232027380Y-45408095D01*
X232027380Y-45408095D02*
X232027380Y-45646190D01*
X232027380Y-45646190D02*
X232075000Y-45741428D01*
X232075000Y-45741428D02*
X232122619Y-45789047D01*
X232122619Y-45789047D02*
X232217857Y-45836666D01*
X232217857Y-45836666D02*
X232313095Y-45836666D01*
X232313095Y-45836666D02*
X232455952Y-45789047D01*
X232455952Y-45789047D02*
X233027380Y-45217619D01*
X233027380Y-45217619D02*
X233027380Y-45836666D01*
X233027380Y-46789047D02*
X233027380Y-46217619D01*
X233027380Y-46503333D02*
X232027380Y-46503333D01*
X232027380Y-46503333D02*
X232170238Y-46408095D01*
X232170238Y-46408095D02*
X232265476Y-46312857D01*
X232265476Y-46312857D02*
X232313095Y-46217619D01*
X233122619Y-46979524D02*
X233122619Y-47741428D01*
X233027380Y-47979524D02*
X232027380Y-47979524D01*
X232027380Y-47979524D02*
X232741666Y-48312857D01*
X232741666Y-48312857D02*
X232027380Y-48646190D01*
X232027380Y-48646190D02*
X233027380Y-48646190D01*
X232741666Y-49074762D02*
X232741666Y-49550952D01*
X233027380Y-48979524D02*
X232027380Y-49312857D01*
X232027380Y-49312857D02*
X233027380Y-49646190D01*
X232027380Y-49884286D02*
X233027380Y-50550952D01*
X232027380Y-50550952D02*
X233027380Y-49884286D01*
X233027380Y-51455714D02*
X233027380Y-50884286D01*
X233027380Y-51170000D02*
X232027380Y-51170000D01*
X232027380Y-51170000D02*
X232170238Y-51074762D01*
X232170238Y-51074762D02*
X232265476Y-50979524D01*
X232265476Y-50979524D02*
X232313095Y-50884286D01*
X232122619Y-51836667D02*
X232075000Y-51884286D01*
X232075000Y-51884286D02*
X232027380Y-51979524D01*
X232027380Y-51979524D02*
X232027380Y-52217619D01*
X232027380Y-52217619D02*
X232075000Y-52312857D01*
X232075000Y-52312857D02*
X232122619Y-52360476D01*
X232122619Y-52360476D02*
X232217857Y-52408095D01*
X232217857Y-52408095D02*
X232313095Y-52408095D01*
X232313095Y-52408095D02*
X232455952Y-52360476D01*
X232455952Y-52360476D02*
X233027380Y-51789048D01*
X233027380Y-51789048D02*
X233027380Y-52408095D01*
X232979761Y-52884286D02*
X233027380Y-52884286D01*
X233027380Y-52884286D02*
X233122619Y-52836667D01*
X233122619Y-52836667D02*
X233170238Y-52789048D01*
X233027380Y-53789047D02*
X233027380Y-53312857D01*
X233027380Y-53312857D02*
X232027380Y-53312857D01*
X232979761Y-54170000D02*
X233027380Y-54170000D01*
X233027380Y-54170000D02*
X233122619Y-54122381D01*
X233122619Y-54122381D02*
X233170238Y-54074762D01*
X232503571Y-54931904D02*
X232503571Y-54598571D01*
X233027380Y-54598571D02*
X232027380Y-54598571D01*
X232027380Y-54598571D02*
X232027380Y-55074761D01*
X233408333Y-55360476D02*
X233360714Y-55408095D01*
X233360714Y-55408095D02*
X233217857Y-55503333D01*
X233217857Y-55503333D02*
X233122619Y-55550952D01*
X233122619Y-55550952D02*
X232979761Y-55598571D01*
X232979761Y-55598571D02*
X232741666Y-55646190D01*
X232741666Y-55646190D02*
X232551190Y-55646190D01*
X232551190Y-55646190D02*
X232313095Y-55598571D01*
X232313095Y-55598571D02*
X232170238Y-55550952D01*
X232170238Y-55550952D02*
X232075000Y-55503333D01*
X232075000Y-55503333D02*
X231932142Y-55408095D01*
X231932142Y-55408095D02*
X231884523Y-55360476D01*
X232503571Y-56122381D02*
X232503571Y-56884286D01*
X232789285Y-56884286D02*
X232789285Y-56122381D01*
X232027380Y-57836666D02*
X232027380Y-57360476D01*
X232027380Y-57360476D02*
X232503571Y-57312857D01*
X232503571Y-57312857D02*
X232455952Y-57360476D01*
X232455952Y-57360476D02*
X232408333Y-57455714D01*
X232408333Y-57455714D02*
X232408333Y-57693809D01*
X232408333Y-57693809D02*
X232455952Y-57789047D01*
X232455952Y-57789047D02*
X232503571Y-57836666D01*
X232503571Y-57836666D02*
X232598809Y-57884285D01*
X232598809Y-57884285D02*
X232836904Y-57884285D01*
X232836904Y-57884285D02*
X232932142Y-57836666D01*
X232932142Y-57836666D02*
X232979761Y-57789047D01*
X232979761Y-57789047D02*
X233027380Y-57693809D01*
X233027380Y-57693809D02*
X233027380Y-57455714D01*
X233027380Y-57455714D02*
X232979761Y-57360476D01*
X232979761Y-57360476D02*
X232932142Y-57312857D01*
D10*
X94802230Y-68173285D02*
X94802230Y-68536143D01*
X95019944Y-68100714D02*
X94257944Y-68354714D01*
X94257944Y-68354714D02*
X95019944Y-68608714D01*
X95019944Y-68862714D02*
X94257944Y-68862714D01*
X94257944Y-68862714D02*
X94802230Y-69116714D01*
X94802230Y-69116714D02*
X94257944Y-69370714D01*
X94257944Y-69370714D02*
X95019944Y-69370714D01*
X95019944Y-69733571D02*
X94257944Y-69733571D01*
X94257944Y-69733571D02*
X94257944Y-70023857D01*
X94257944Y-70023857D02*
X94294230Y-70096428D01*
X94294230Y-70096428D02*
X94330515Y-70132714D01*
X94330515Y-70132714D02*
X94403087Y-70169000D01*
X94403087Y-70169000D02*
X94511944Y-70169000D01*
X94511944Y-70169000D02*
X94584515Y-70132714D01*
X94584515Y-70132714D02*
X94620801Y-70096428D01*
X94620801Y-70096428D02*
X94657087Y-70023857D01*
X94657087Y-70023857D02*
X94657087Y-69733571D01*
X95092515Y-70314143D02*
X95092515Y-70894714D01*
X94257944Y-71221285D02*
X94257944Y-71366428D01*
X94257944Y-71366428D02*
X94294230Y-71438999D01*
X94294230Y-71438999D02*
X94366801Y-71511571D01*
X94366801Y-71511571D02*
X94511944Y-71547856D01*
X94511944Y-71547856D02*
X94765944Y-71547856D01*
X94765944Y-71547856D02*
X94911087Y-71511571D01*
X94911087Y-71511571D02*
X94983658Y-71438999D01*
X94983658Y-71438999D02*
X95019944Y-71366428D01*
X95019944Y-71366428D02*
X95019944Y-71221285D01*
X95019944Y-71221285D02*
X94983658Y-71148714D01*
X94983658Y-71148714D02*
X94911087Y-71076142D01*
X94911087Y-71076142D02*
X94765944Y-71039856D01*
X94765944Y-71039856D02*
X94511944Y-71039856D01*
X94511944Y-71039856D02*
X94366801Y-71076142D01*
X94366801Y-71076142D02*
X94294230Y-71148714D01*
X94294230Y-71148714D02*
X94257944Y-71221285D01*
X94257944Y-71874428D02*
X94874801Y-71874428D01*
X94874801Y-71874428D02*
X94947372Y-71910714D01*
X94947372Y-71910714D02*
X94983658Y-71947000D01*
X94983658Y-71947000D02*
X95019944Y-72019571D01*
X95019944Y-72019571D02*
X95019944Y-72164714D01*
X95019944Y-72164714D02*
X94983658Y-72237285D01*
X94983658Y-72237285D02*
X94947372Y-72273571D01*
X94947372Y-72273571D02*
X94874801Y-72309857D01*
X94874801Y-72309857D02*
X94257944Y-72309857D01*
X94257944Y-72563857D02*
X94257944Y-72999286D01*
X95019944Y-72781571D02*
X94257944Y-72781571D01*
D11*
X214977380Y-37134285D02*
X214977380Y-36658095D01*
X214977380Y-36658095D02*
X213977380Y-36658095D01*
X213977380Y-37658095D02*
X213977380Y-37848571D01*
X213977380Y-37848571D02*
X214025000Y-37943809D01*
X214025000Y-37943809D02*
X214120238Y-38039047D01*
X214120238Y-38039047D02*
X214310714Y-38086666D01*
X214310714Y-38086666D02*
X214644047Y-38086666D01*
X214644047Y-38086666D02*
X214834523Y-38039047D01*
X214834523Y-38039047D02*
X214929761Y-37943809D01*
X214929761Y-37943809D02*
X214977380Y-37848571D01*
X214977380Y-37848571D02*
X214977380Y-37658095D01*
X214977380Y-37658095D02*
X214929761Y-37562857D01*
X214929761Y-37562857D02*
X214834523Y-37467619D01*
X214834523Y-37467619D02*
X214644047Y-37420000D01*
X214644047Y-37420000D02*
X214310714Y-37420000D01*
X214310714Y-37420000D02*
X214120238Y-37467619D01*
X214120238Y-37467619D02*
X214025000Y-37562857D01*
X214025000Y-37562857D02*
X213977380Y-37658095D01*
X213977380Y-38420000D02*
X214977380Y-38658095D01*
X214977380Y-38658095D02*
X214263095Y-38848571D01*
X214263095Y-38848571D02*
X214977380Y-39039047D01*
X214977380Y-39039047D02*
X213977380Y-39277143D01*
D10*
X88639944Y-68092857D02*
X87877944Y-68092857D01*
X87877944Y-68092857D02*
X87877944Y-68383143D01*
X87877944Y-68383143D02*
X87914230Y-68455714D01*
X87914230Y-68455714D02*
X87950515Y-68492000D01*
X87950515Y-68492000D02*
X88023087Y-68528286D01*
X88023087Y-68528286D02*
X88131944Y-68528286D01*
X88131944Y-68528286D02*
X88204515Y-68492000D01*
X88204515Y-68492000D02*
X88240801Y-68455714D01*
X88240801Y-68455714D02*
X88277087Y-68383143D01*
X88277087Y-68383143D02*
X88277087Y-68092857D01*
X88639944Y-68854857D02*
X87877944Y-68854857D01*
X87877944Y-68854857D02*
X87877944Y-69036286D01*
X87877944Y-69036286D02*
X87914230Y-69145143D01*
X87914230Y-69145143D02*
X87986801Y-69217714D01*
X87986801Y-69217714D02*
X88059372Y-69254000D01*
X88059372Y-69254000D02*
X88204515Y-69290286D01*
X88204515Y-69290286D02*
X88313372Y-69290286D01*
X88313372Y-69290286D02*
X88458515Y-69254000D01*
X88458515Y-69254000D02*
X88531087Y-69217714D01*
X88531087Y-69217714D02*
X88603658Y-69145143D01*
X88603658Y-69145143D02*
X88639944Y-69036286D01*
X88639944Y-69036286D02*
X88639944Y-68854857D01*
X88712515Y-69435429D02*
X88712515Y-70016000D01*
X88639944Y-70197428D02*
X87877944Y-70197428D01*
X87877944Y-70197428D02*
X88422230Y-70451428D01*
X88422230Y-70451428D02*
X87877944Y-70705428D01*
X87877944Y-70705428D02*
X88639944Y-70705428D01*
X87877944Y-71068285D02*
X88494801Y-71068285D01*
X88494801Y-71068285D02*
X88567372Y-71104571D01*
X88567372Y-71104571D02*
X88603658Y-71140857D01*
X88603658Y-71140857D02*
X88639944Y-71213428D01*
X88639944Y-71213428D02*
X88639944Y-71358571D01*
X88639944Y-71358571D02*
X88603658Y-71431142D01*
X88603658Y-71431142D02*
X88567372Y-71467428D01*
X88567372Y-71467428D02*
X88494801Y-71503714D01*
X88494801Y-71503714D02*
X87877944Y-71503714D01*
X87877944Y-71794000D02*
X88639944Y-72302000D01*
X87877944Y-72302000D02*
X88639944Y-71794000D01*
X88712515Y-72410857D02*
X88712515Y-72991428D01*
X87877944Y-73317999D02*
X87877944Y-73463142D01*
X87877944Y-73463142D02*
X87914230Y-73535713D01*
X87914230Y-73535713D02*
X87986801Y-73608285D01*
X87986801Y-73608285D02*
X88131944Y-73644570D01*
X88131944Y-73644570D02*
X88385944Y-73644570D01*
X88385944Y-73644570D02*
X88531087Y-73608285D01*
X88531087Y-73608285D02*
X88603658Y-73535713D01*
X88603658Y-73535713D02*
X88639944Y-73463142D01*
X88639944Y-73463142D02*
X88639944Y-73317999D01*
X88639944Y-73317999D02*
X88603658Y-73245428D01*
X88603658Y-73245428D02*
X88531087Y-73172856D01*
X88531087Y-73172856D02*
X88385944Y-73136570D01*
X88385944Y-73136570D02*
X88131944Y-73136570D01*
X88131944Y-73136570D02*
X87986801Y-73172856D01*
X87986801Y-73172856D02*
X87914230Y-73245428D01*
X87914230Y-73245428D02*
X87877944Y-73317999D01*
X87877944Y-73971142D02*
X88494801Y-73971142D01*
X88494801Y-73971142D02*
X88567372Y-74007428D01*
X88567372Y-74007428D02*
X88603658Y-74043714D01*
X88603658Y-74043714D02*
X88639944Y-74116285D01*
X88639944Y-74116285D02*
X88639944Y-74261428D01*
X88639944Y-74261428D02*
X88603658Y-74333999D01*
X88603658Y-74333999D02*
X88567372Y-74370285D01*
X88567372Y-74370285D02*
X88494801Y-74406571D01*
X88494801Y-74406571D02*
X87877944Y-74406571D01*
X87877944Y-74660571D02*
X87877944Y-75096000D01*
X88639944Y-74878285D02*
X87877944Y-74878285D01*
D11*
X90747380Y-58506666D02*
X91461666Y-58506666D01*
X91461666Y-58506666D02*
X91604523Y-58459047D01*
X91604523Y-58459047D02*
X91699761Y-58363809D01*
X91699761Y-58363809D02*
X91747380Y-58220952D01*
X91747380Y-58220952D02*
X91747380Y-58125714D01*
X91747380Y-58982857D02*
X90747380Y-58982857D01*
X90747380Y-58982857D02*
X90747380Y-59363809D01*
X90747380Y-59363809D02*
X90795000Y-59459047D01*
X90795000Y-59459047D02*
X90842619Y-59506666D01*
X90842619Y-59506666D02*
X90937857Y-59554285D01*
X90937857Y-59554285D02*
X91080714Y-59554285D01*
X91080714Y-59554285D02*
X91175952Y-59506666D01*
X91175952Y-59506666D02*
X91223571Y-59459047D01*
X91223571Y-59459047D02*
X91271190Y-59363809D01*
X91271190Y-59363809D02*
X91271190Y-58982857D01*
X90747380Y-60411428D02*
X90747380Y-60220952D01*
X90747380Y-60220952D02*
X90795000Y-60125714D01*
X90795000Y-60125714D02*
X90842619Y-60078095D01*
X90842619Y-60078095D02*
X90985476Y-59982857D01*
X90985476Y-59982857D02*
X91175952Y-59935238D01*
X91175952Y-59935238D02*
X91556904Y-59935238D01*
X91556904Y-59935238D02*
X91652142Y-59982857D01*
X91652142Y-59982857D02*
X91699761Y-60030476D01*
X91699761Y-60030476D02*
X91747380Y-60125714D01*
X91747380Y-60125714D02*
X91747380Y-60316190D01*
X91747380Y-60316190D02*
X91699761Y-60411428D01*
X91699761Y-60411428D02*
X91652142Y-60459047D01*
X91652142Y-60459047D02*
X91556904Y-60506666D01*
X91556904Y-60506666D02*
X91318809Y-60506666D01*
X91318809Y-60506666D02*
X91223571Y-60459047D01*
X91223571Y-60459047D02*
X91175952Y-60411428D01*
X91175952Y-60411428D02*
X91128333Y-60316190D01*
X91128333Y-60316190D02*
X91128333Y-60125714D01*
X91128333Y-60125714D02*
X91175952Y-60030476D01*
X91175952Y-60030476D02*
X91223571Y-59982857D01*
X91223571Y-59982857D02*
X91318809Y-59935238D01*
X89621382Y-69000482D02*
X90335668Y-69000482D01*
X90335668Y-69000482D02*
X90478525Y-68952863D01*
X90478525Y-68952863D02*
X90573763Y-68857625D01*
X90573763Y-68857625D02*
X90621382Y-68714768D01*
X90621382Y-68714768D02*
X90621382Y-68619530D01*
X89716621Y-69429054D02*
X89669002Y-69476673D01*
X89669002Y-69476673D02*
X89621382Y-69571911D01*
X89621382Y-69571911D02*
X89621382Y-69810006D01*
X89621382Y-69810006D02*
X89669002Y-69905244D01*
X89669002Y-69905244D02*
X89716621Y-69952863D01*
X89716621Y-69952863D02*
X89811859Y-70000482D01*
X89811859Y-70000482D02*
X89907097Y-70000482D01*
X89907097Y-70000482D02*
X90049954Y-69952863D01*
X90049954Y-69952863D02*
X90621382Y-69381435D01*
X90621382Y-69381435D02*
X90621382Y-70000482D01*
X89621382Y-70905244D02*
X89621382Y-70429054D01*
X89621382Y-70429054D02*
X90097573Y-70381435D01*
X90097573Y-70381435D02*
X90049954Y-70429054D01*
X90049954Y-70429054D02*
X90002335Y-70524292D01*
X90002335Y-70524292D02*
X90002335Y-70762387D01*
X90002335Y-70762387D02*
X90049954Y-70857625D01*
X90049954Y-70857625D02*
X90097573Y-70905244D01*
X90097573Y-70905244D02*
X90192811Y-70952863D01*
X90192811Y-70952863D02*
X90430906Y-70952863D01*
X90430906Y-70952863D02*
X90526144Y-70905244D01*
X90526144Y-70905244D02*
X90573763Y-70857625D01*
X90573763Y-70857625D02*
X90621382Y-70762387D01*
X90621382Y-70762387D02*
X90621382Y-70524292D01*
X90621382Y-70524292D02*
X90573763Y-70429054D01*
X90573763Y-70429054D02*
X90526144Y-70381435D01*
X92031382Y-69000482D02*
X92745668Y-69000482D01*
X92745668Y-69000482D02*
X92888525Y-68952863D01*
X92888525Y-68952863D02*
X92983763Y-68857625D01*
X92983763Y-68857625D02*
X93031382Y-68714768D01*
X93031382Y-68714768D02*
X93031382Y-68619530D01*
X92126621Y-69429054D02*
X92079002Y-69476673D01*
X92079002Y-69476673D02*
X92031382Y-69571911D01*
X92031382Y-69571911D02*
X92031382Y-69810006D01*
X92031382Y-69810006D02*
X92079002Y-69905244D01*
X92079002Y-69905244D02*
X92126621Y-69952863D01*
X92126621Y-69952863D02*
X92221859Y-70000482D01*
X92221859Y-70000482D02*
X92317097Y-70000482D01*
X92317097Y-70000482D02*
X92459954Y-69952863D01*
X92459954Y-69952863D02*
X93031382Y-69381435D01*
X93031382Y-69381435D02*
X93031382Y-70000482D01*
X92364716Y-70857625D02*
X93031382Y-70857625D01*
X91983763Y-70619530D02*
X92698049Y-70381435D01*
X92698049Y-70381435D02*
X92698049Y-71000482D01*
D13*
X89350000Y-67810000D02*
X89350000Y-67745000D01*
X89350000Y-67810000D02*
X88803471Y-67810000D01*
X89350000Y-67810000D02*
X87130000Y-67810000D01*
X89350000Y-67050000D02*
X89350000Y-66290000D01*
X89350000Y-66290000D02*
X88240000Y-66290000D01*
X87676529Y-67810000D02*
X87130000Y-67810000D01*
X87130000Y-67810000D02*
X87130000Y-67745000D01*
X93480000Y-66290000D02*
X93480000Y-66355000D01*
X93480000Y-66290000D02*
X94026529Y-66290000D01*
X93480000Y-66290000D02*
X95700000Y-66290000D01*
X93480000Y-67050000D02*
X93480000Y-67810000D01*
X93480000Y-67810000D02*
X94590000Y-67810000D01*
X95153471Y-66290000D02*
X95700000Y-66290000D01*
X95700000Y-66290000D02*
X95700000Y-66355000D01*
X92190013Y-60805994D02*
X90240013Y-60805994D01*
X90240013Y-60805994D02*
X90240013Y-66305994D01*
X92740013Y-61855994D02*
X92740013Y-62455994D01*
X92440013Y-62155994D02*
X92740013Y-61855994D01*
X92740013Y-62455994D02*
X92440013Y-62155994D01*
X92190013Y-66305994D02*
X92190013Y-60805994D01*
X90240013Y-66305994D02*
X92190013Y-66305994D01*
X212507197Y-45140005D02*
X214457197Y-45140005D01*
X214457197Y-45140005D02*
X214457197Y-39640005D01*
X211957197Y-44090005D02*
X211957197Y-43490005D01*
X212257197Y-43790005D02*
X211957197Y-44090005D01*
X211957197Y-43490005D02*
X212257197Y-43790005D01*
X212507197Y-39640005D02*
X212507197Y-45140005D01*
X214457197Y-39640005D02*
X212507197Y-39640005D01*
X88815000Y-68160000D02*
X88815000Y-67357530D01*
X90020000Y-68160000D02*
X88815000Y-68160000D01*
X90020000Y-68160000D02*
X90020000Y-67613471D01*
X90780000Y-68160000D02*
X91540000Y-68160000D01*
X91540000Y-68160000D02*
X91540000Y-67050000D01*
X88815000Y-66742470D02*
X88815000Y-65940000D01*
X90020000Y-66486529D02*
X90020000Y-65940000D01*
X90020000Y-65940000D02*
X88815000Y-65940000D01*
X94015000Y-65940000D02*
X94015000Y-66742470D01*
X92810000Y-65940000D02*
X94015000Y-65940000D01*
X92810000Y-65940000D02*
X92810000Y-66486529D01*
X92050000Y-65940000D02*
X91290000Y-65940000D01*
X91290000Y-65940000D02*
X91290000Y-67050000D01*
X94015000Y-67357530D02*
X94015000Y-68160000D01*
X92810000Y-67613471D02*
X92810000Y-68160000D01*
X92810000Y-68160000D02*
X94015000Y-68160000D01*
X214649713Y-45140005D02*
X216599713Y-45140005D01*
X216599713Y-45140005D02*
X216599713Y-39640005D01*
X214099713Y-44090005D02*
X214099713Y-43490005D01*
X214399713Y-43790005D02*
X214099713Y-44090005D01*
X214099713Y-43490005D02*
X214399713Y-43790005D01*
X214649713Y-39640005D02*
X214649713Y-45140005D01*
X216599713Y-39640005D02*
X214649713Y-39640005D01*
M02*
