G04 #@! TF.GenerationSoftware,KiCad,Pcbnew,(6.0.1-0)*
G04 #@! TF.CreationDate,2022-03-07T16:42:41+09:00*
G04 #@! TF.ProjectId,qLAMP-main,714c414d-502d-46d6-9169-6e2e6b696361,rev?*
G04 #@! TF.SameCoordinates,Original*
G04 #@! TF.FileFunction,Soldermask,Bot*
G04 #@! TF.FilePolarity,Negative*
%FSLAX46Y46*%
G04 Gerber Fmt 4.6, Leading zero omitted, Abs format (unit mm)*
G04 Created by KiCad (PCBNEW (6.0.1-0)) date 2022-03-07 16:42:41*
%MOMM*%
%LPD*%
G01*
G04 APERTURE LIST*
G04 Aperture macros list*
%AMRoundRect*
0 Rectangle with rounded corners*
0 $1 Rounding radius*
0 $2 $3 $4 $5 $6 $7 $8 $9 X,Y pos of 4 corners*
0 Add a 4 corners polygon primitive as box body*
4,1,4,$2,$3,$4,$5,$6,$7,$8,$9,$2,$3,0*
0 Add four circle primitives for the rounded corners*
1,1,$1+$1,$2,$3*
1,1,$1+$1,$4,$5*
1,1,$1+$1,$6,$7*
1,1,$1+$1,$8,$9*
0 Add four rect primitives between the rounded corners*
20,1,$1+$1,$2,$3,$4,$5,0*
20,1,$1+$1,$4,$5,$6,$7,0*
20,1,$1+$1,$6,$7,$8,$9,0*
20,1,$1+$1,$8,$9,$2,$3,0*%
%AMFreePoly0*
4,1,6,1.000000,0.000000,0.500000,-0.750000,-0.500000,-0.750000,-0.500000,0.750000,0.500000,0.750000,1.000000,0.000000,1.000000,0.000000,$1*%
G04 Aperture macros list end*
%ADD10C,2.000000*%
%ADD11C,0.600000*%
%ADD12R,1.700000X1.700000*%
%ADD13O,1.700000X1.700000*%
%ADD14R,3.500000X3.500000*%
%ADD15RoundRect,0.750000X-1.000000X0.750000X-1.000000X-0.750000X1.000000X-0.750000X1.000000X0.750000X0*%
%ADD16RoundRect,0.875000X-0.875000X0.875000X-0.875000X-0.875000X0.875000X-0.875000X0.875000X0.875000X0*%
%ADD17C,1.700000*%
%ADD18O,1.000000X1.800000*%
%ADD19R,1.000000X1.000000*%
%ADD20O,1.000000X1.000000*%
%ADD21R,1.500000X1.500000*%
%ADD22FreePoly0,180.000000*%
%ADD23FreePoly0,0.000000*%
%ADD24FreePoly0,90.000000*%
%ADD25FreePoly0,270.000000*%
G04 APERTURE END LIST*
D10*
X205069999Y-89680009D03*
X205069999Y-93180009D03*
D11*
X140966001Y-102270000D03*
X139966000Y-101770001D03*
X139966000Y-102870000D03*
X138965999Y-102270000D03*
D10*
X191850000Y-90800000D03*
X191850000Y-94300000D03*
D12*
X167646956Y-90579052D03*
D13*
X167646956Y-93119052D03*
D12*
X159646956Y-90579052D03*
D13*
X159646956Y-93119052D03*
D12*
X167646956Y-82479052D03*
D13*
X167646956Y-85019052D03*
D12*
X163646956Y-82479052D03*
D13*
X163646956Y-85019052D03*
D12*
X159646956Y-82479052D03*
D13*
X159646956Y-85019052D03*
D12*
X163646956Y-90579052D03*
D13*
X163646956Y-93119052D03*
D14*
X204295792Y-85809800D03*
D15*
X204295792Y-79809800D03*
D16*
X199595792Y-82809800D03*
D17*
X187611003Y-98175006D03*
X190151003Y-98175006D03*
X192691003Y-98175006D03*
X195231003Y-98175006D03*
X187611003Y-122675006D03*
X190151003Y-122675006D03*
X192691003Y-122675006D03*
X195231003Y-122675006D03*
X160611003Y-106615006D03*
X160611003Y-109155006D03*
X160611003Y-111695006D03*
X160611003Y-114235006D03*
D18*
X198608282Y-78419792D03*
X198608282Y-74619792D03*
X189968282Y-78419792D03*
X189968282Y-74619792D03*
D12*
X186001000Y-126628000D03*
D13*
X183461000Y-126628000D03*
X180921000Y-126628000D03*
X178381000Y-126628000D03*
X175841000Y-126628000D03*
X173301000Y-126628000D03*
X170761000Y-126628000D03*
X168221000Y-126628000D03*
X165681000Y-126628000D03*
X163141000Y-126628000D03*
D12*
X201946000Y-126380000D03*
D13*
X199406000Y-126380000D03*
X196866000Y-126380000D03*
X194326000Y-126380000D03*
X191786000Y-126380000D03*
X189246002Y-126380011D03*
D12*
X163141000Y-77372000D03*
D13*
X165681000Y-77372000D03*
X168221000Y-77372000D03*
X170761000Y-77372000D03*
X173301000Y-77372000D03*
X175841000Y-77372000D03*
X178381000Y-77372000D03*
X180921000Y-77372000D03*
X183461000Y-77372000D03*
X186001000Y-77372000D03*
D19*
X89155998Y-106419994D03*
X104732000Y-96888600D03*
D20*
X103462000Y-96888600D03*
X102192000Y-96888600D03*
X100922000Y-96888600D03*
X99652000Y-96888600D03*
X98382000Y-96888600D03*
D19*
X95505998Y-106419994D03*
X115876010Y-106419994D03*
X117146010Y-106419994D03*
D21*
X89416000Y-99500000D03*
X91816000Y-99500000D03*
D22*
X92616000Y-99500000D03*
D23*
X88616000Y-99500000D03*
D19*
X96775998Y-106419994D03*
X93536000Y-97110005D03*
D21*
X91726000Y-103440000D03*
X89326000Y-103440000D03*
D23*
X88526000Y-103440000D03*
D22*
X92526000Y-103440000D03*
D21*
X97283354Y-99318000D03*
X99683354Y-99318000D03*
D22*
X100483354Y-99318000D03*
D23*
X96483354Y-99318000D03*
D19*
X85916000Y-97110005D03*
D20*
X87186000Y-97110005D03*
D19*
X99652000Y-107048600D03*
D20*
X100922000Y-107048600D03*
X102192000Y-107048600D03*
X103462000Y-107048600D03*
X104732000Y-107048600D03*
D21*
X186957487Y-81190005D03*
X186957487Y-83590005D03*
D24*
X186957487Y-84390005D03*
D25*
X186957487Y-80390005D03*
D21*
X99683354Y-101969989D03*
X97283354Y-101969989D03*
D22*
X100483354Y-101969989D03*
D23*
X96483354Y-101969989D03*
D19*
X92266000Y-97110005D03*
D20*
X90996000Y-97110005D03*
D19*
X91695998Y-106419994D03*
D20*
X90425998Y-106419994D03*
D19*
X92965998Y-106419994D03*
D20*
X94235998Y-106419994D03*
D21*
X163496000Y-119680000D03*
X165896000Y-119680000D03*
D22*
X166696000Y-119680000D03*
D23*
X162696000Y-119680000D03*
D19*
X88456000Y-97110005D03*
D20*
X89726000Y-97110005D03*
D21*
X189100003Y-83590005D03*
X189100003Y-81190005D03*
D24*
X189100003Y-84390005D03*
D25*
X189100003Y-80390005D03*
M02*
