G04 #@! TF.GenerationSoftware,KiCad,Pcbnew,(6.0.1-0)*
G04 #@! TF.CreationDate,2022-03-07T16:42:40+09:00*
G04 #@! TF.ProjectId,qLAMP-main,714c414d-502d-46d6-9169-6e2e6b696361,rev?*
G04 #@! TF.SameCoordinates,Original*
G04 #@! TF.FileFunction,Legend,Top*
G04 #@! TF.FilePolarity,Positive*
%FSLAX46Y46*%
G04 Gerber Fmt 4.6, Leading zero omitted, Abs format (unit mm)*
G04 Created by KiCad (PCBNEW (6.0.1-0)) date 2022-03-07 16:42:40*
%MOMM*%
%LPD*%
G01*
G04 APERTURE LIST*
%ADD10C,0.100000*%
%ADD11C,0.150000*%
%ADD12C,0.254000*%
%ADD13C,0.149860*%
%ADD14C,0.120000*%
%ADD15C,0.152400*%
%ADD16C,0.127000*%
%ADD17C,0.200000*%
G04 APERTURE END LIST*
D10*
X147657227Y-111500000D02*
X147657227Y-92500000D01*
X70761537Y-88065895D02*
G75*
G03*
X69793791Y-87266166I-1693537J-1063940D01*
G01*
X70234047Y-116598743D02*
G75*
G03*
X71379757Y-115828755I-474207J1942979D01*
G01*
X127907202Y-111501637D02*
G75*
G03*
X127907202Y-111501637I-1750000J0D01*
G01*
X74563916Y-84004758D02*
G75*
G03*
X69793791Y-87266166I-3500001J1D01*
G01*
X148059038Y-88305442D02*
G75*
G03*
X147886139Y-88404914I1J-200001D01*
G01*
X76697682Y-115698256D02*
G75*
G03*
X76497682Y-115898256I-2J-199998D01*
G01*
X76512016Y-88105442D02*
G75*
G03*
X76712016Y-88305442I200001J1D01*
G01*
X77255380Y-115698256D02*
G75*
G03*
X77428279Y-115598784I-1J200001D01*
G01*
X77562683Y-88683688D02*
G75*
G03*
X77428293Y-88404914I-1863479J-726557D01*
G01*
X70761537Y-88065895D02*
G75*
G03*
X72455067Y-89001961I1693529J1063931D01*
G01*
X145907216Y-92502061D02*
G75*
G03*
X145907216Y-92502061I-1750000J0D01*
G01*
X72999668Y-115001737D02*
G75*
G03*
X71379757Y-115828755I-1J-1999997D01*
G01*
X76512016Y-87717688D02*
X76512016Y-88105442D01*
X150750503Y-118498940D02*
G75*
G03*
X149182810Y-116546221I-1999998J2D01*
G01*
X77657216Y-90864950D02*
G75*
G03*
X74563643Y-89001961I-3093574J-1637012D01*
G01*
X74563901Y-118498940D02*
X74563901Y-119998940D01*
X147657202Y-108501637D02*
X147657202Y-113138748D01*
X148816736Y-88105442D02*
X148816736Y-87712572D01*
X77428279Y-115598784D02*
G75*
G03*
X77562669Y-115320010I-1729089J1005331D01*
G01*
X72999668Y-115001737D02*
X74563629Y-115001737D01*
X147285904Y-89002061D02*
G75*
G03*
X147751749Y-88683688I-1J500001D01*
G01*
X74563915Y-85504758D02*
G75*
G03*
X76131608Y-87457477I1999998J-2D01*
G01*
X74563915Y-84004758D02*
X74563915Y-85504758D01*
X78028528Y-89002061D02*
X147285904Y-89002061D01*
X109907202Y-111501637D02*
G75*
G03*
X109907202Y-111501637I-1750000J0D01*
G01*
X77657216Y-95502061D02*
X77657216Y-90864950D01*
X91907216Y-92502061D02*
G75*
G03*
X91907216Y-92502061I-1750000J0D01*
G01*
X152314750Y-89001961D02*
X150750789Y-89001961D01*
X77657202Y-113138748D02*
X77657202Y-108501637D01*
D11*
X159656011Y-87499996D02*
X157656011Y-87499996D01*
D10*
X147886139Y-88404914D02*
G75*
G03*
X147751749Y-88683688I1729089J-1005331D01*
G01*
X148934323Y-116474066D02*
G75*
G03*
X149182810Y-116546221I680680J1880175D01*
G01*
D11*
X157655999Y-87500000D02*
X157655999Y-86000003D01*
D10*
X77562683Y-88683688D02*
G75*
G03*
X78028528Y-89002061I465848J181631D01*
G01*
X76131594Y-116546221D02*
G75*
G03*
X76364170Y-116479751I-432336J1952848D01*
G01*
X155080371Y-87404954D02*
G75*
G03*
X150750517Y-84004758I-829854J3400197D01*
G01*
X136907202Y-111501637D02*
G75*
G03*
X136907202Y-111501637I-1750000J0D01*
G01*
X154552881Y-115937803D02*
G75*
G03*
X155520627Y-116737532I1693537J1063940D01*
G01*
X70234047Y-116598744D02*
G75*
G03*
X74563901Y-119998940I829854J-3400197D01*
G01*
X118907216Y-92502061D02*
G75*
G03*
X118907216Y-92502061I-1750000J0D01*
G01*
X147157216Y-96002061D02*
X78157216Y-96002061D01*
X118907202Y-111501637D02*
G75*
G03*
X118907202Y-111501637I-1750000J0D01*
G01*
X76131594Y-116546221D02*
G75*
G03*
X74563901Y-118498940I432307J-1952719D01*
G01*
X147657202Y-108501637D02*
G75*
G03*
X147157202Y-108001637I-500001J-1D01*
G01*
X150750502Y-119998940D02*
G75*
G03*
X155520627Y-116737532I3500001J-1D01*
G01*
X91907202Y-111501637D02*
G75*
G03*
X91907202Y-111501637I-1750000J0D01*
G01*
X150750775Y-115001737D02*
X152859351Y-115001737D01*
X147657216Y-90864950D02*
X147657216Y-95502061D01*
X147657202Y-113138748D02*
G75*
G03*
X150750775Y-115001737I3093574J1637012D01*
G01*
X100907202Y-111501637D02*
G75*
G03*
X100907202Y-111501637I-1750000J0D01*
G01*
X76712016Y-88305442D02*
X77255394Y-88305442D01*
X136907216Y-92502061D02*
G75*
G03*
X136907216Y-92502061I-1750000J0D01*
G01*
X147886125Y-115598784D02*
G75*
G03*
X148059024Y-115698256I172901J100532D01*
G01*
X109907216Y-92502061D02*
G75*
G03*
X109907216Y-92502061I-1750000J0D01*
G01*
X148059038Y-88305442D02*
X148616736Y-88305442D01*
X155080371Y-87404955D02*
G75*
G03*
X153934661Y-88174943I474207J-1942979D01*
G01*
X149182824Y-87457477D02*
G75*
G03*
X150750517Y-85504758I-432307J1952719D01*
G01*
X148950248Y-87523947D02*
G75*
G03*
X148816736Y-87712572I66491J-188627D01*
G01*
X145907202Y-111501637D02*
G75*
G03*
X145907202Y-111501637I-1750000J0D01*
G01*
X150750517Y-85504758D02*
X150750517Y-84004758D01*
D11*
X167756004Y-87500000D02*
X169556000Y-87500000D01*
D10*
X76497682Y-115898256D02*
X76497682Y-116291126D01*
X149182824Y-87457477D02*
G75*
G03*
X148950248Y-87523947I432336J-1952848D01*
G01*
X76380095Y-87529632D02*
G75*
G03*
X76131608Y-87457477I-680680J-1880175D01*
G01*
X147751735Y-115320010D02*
G75*
G03*
X147285890Y-115001637I-465848J-181631D01*
G01*
X148802402Y-115898256D02*
G75*
G03*
X148602402Y-115698256I-200001J-1D01*
G01*
D11*
X169556000Y-87500000D02*
X169556000Y-86000003D01*
D10*
X76364170Y-116479751D02*
G75*
G03*
X76497682Y-116291126I-66491J188627D01*
G01*
X154552881Y-115937803D02*
G75*
G03*
X152859351Y-115001737I-1693529J-1063931D01*
G01*
X78028514Y-115001637D02*
G75*
G03*
X77562669Y-115320010I1J-500001D01*
G01*
X147157216Y-96002061D02*
G75*
G03*
X147657216Y-95502061I-1J500001D01*
G01*
X100907216Y-92502061D02*
G75*
G03*
X100907216Y-92502061I-1750000J0D01*
G01*
X152314750Y-89001961D02*
G75*
G03*
X153934661Y-88174943I1J1999997D01*
G01*
X77657214Y-92500000D02*
X77657214Y-111500000D01*
X147751735Y-115320010D02*
G75*
G03*
X147886125Y-115598784I1863479J726557D01*
G01*
X74563643Y-89001961D02*
X72455067Y-89001961D01*
X148616736Y-88305442D02*
G75*
G03*
X148816736Y-88105442I2J199998D01*
G01*
X78157202Y-108001637D02*
X147157202Y-108001637D01*
X148802402Y-116286010D02*
G75*
G03*
X148934323Y-116474066I199999J0D01*
G01*
X77428293Y-88404914D02*
G75*
G03*
X77255394Y-88305442I-172901J-100532D01*
G01*
X77255380Y-115698256D02*
X76697682Y-115698256D01*
X76512016Y-87717688D02*
G75*
G03*
X76380095Y-87529632I-199999J0D01*
G01*
X82907216Y-92502061D02*
G75*
G03*
X82907216Y-92502061I-1750000J0D01*
G01*
X77657216Y-95502061D02*
G75*
G03*
X78157216Y-96002061I500001J1D01*
G01*
X148802402Y-116286010D02*
X148802402Y-115898256D01*
X150750789Y-89001961D02*
G75*
G03*
X147657216Y-90864950I1J-3500001D01*
G01*
X147285890Y-115001637D02*
X78028514Y-115001637D01*
X148602402Y-115698256D02*
X148059024Y-115698256D01*
X82907202Y-111501637D02*
G75*
G03*
X82907202Y-111501637I-1750000J0D01*
G01*
X150750503Y-119998940D02*
X150750503Y-118498940D01*
X74563629Y-115001737D02*
G75*
G03*
X77657202Y-113138748I-1J3500001D01*
G01*
X78157202Y-108001637D02*
G75*
G03*
X77657202Y-108501637I1J-500001D01*
G01*
X127907216Y-92502061D02*
G75*
G03*
X127907216Y-92502061I-1750000J0D01*
G01*
D12*
X115777142Y-125962869D02*
X115777142Y-124762869D01*
X115777142Y-125220012D02*
X115891428Y-125162869D01*
X116120000Y-125162869D01*
X116234285Y-125220012D01*
X116291428Y-125277154D01*
X116348571Y-125391440D01*
X116348571Y-125734297D01*
X116291428Y-125848583D01*
X116234285Y-125905726D01*
X116120000Y-125962869D01*
X115891428Y-125962869D01*
X115777142Y-125905726D01*
X117377142Y-125962869D02*
X117377142Y-125334297D01*
X117320000Y-125220012D01*
X117205714Y-125162869D01*
X116977142Y-125162869D01*
X116862857Y-125220012D01*
X117377142Y-125905726D02*
X117262857Y-125962869D01*
X116977142Y-125962869D01*
X116862857Y-125905726D01*
X116805714Y-125791440D01*
X116805714Y-125677154D01*
X116862857Y-125562869D01*
X116977142Y-125505726D01*
X117262857Y-125505726D01*
X117377142Y-125448583D01*
X117777142Y-125162869D02*
X118234285Y-125162869D01*
X117948571Y-124762869D02*
X117948571Y-125791440D01*
X118005714Y-125905726D01*
X118120000Y-125962869D01*
X118234285Y-125962869D01*
X119148571Y-125905726D02*
X119034285Y-125962869D01*
X118805714Y-125962869D01*
X118691428Y-125905726D01*
X118634285Y-125848583D01*
X118577142Y-125734297D01*
X118577142Y-125391440D01*
X118634285Y-125277154D01*
X118691428Y-125220012D01*
X118805714Y-125162869D01*
X119034285Y-125162869D01*
X119148571Y-125220012D01*
X119662857Y-125962869D02*
X119662857Y-124762869D01*
X120177142Y-125962869D02*
X120177142Y-125334297D01*
X120120000Y-125220012D01*
X120005714Y-125162869D01*
X119834285Y-125162869D01*
X119720000Y-125220012D01*
X119662857Y-125277154D01*
X120977142Y-124762869D02*
X121091428Y-124762869D01*
X121205714Y-124820012D01*
X121262857Y-124877154D01*
X121320000Y-124991440D01*
X121377142Y-125220012D01*
X121377142Y-125505726D01*
X121320000Y-125734297D01*
X121262857Y-125848583D01*
X121205714Y-125905726D01*
X121091428Y-125962869D01*
X120977142Y-125962869D01*
X120862857Y-125905726D01*
X120805714Y-125848583D01*
X120748571Y-125734297D01*
X120691428Y-125505726D01*
X120691428Y-125220012D01*
X120748571Y-124991440D01*
X120805714Y-124877154D01*
X120862857Y-124820012D01*
X120977142Y-124762869D01*
X122520000Y-125962869D02*
X121834285Y-125962869D01*
X122177142Y-125962869D02*
X122177142Y-124762869D01*
X122062857Y-124934297D01*
X121948571Y-125048583D01*
X121834285Y-125105726D01*
X123891428Y-124705726D02*
X122862857Y-126248583D01*
X124291428Y-125962869D02*
X124291428Y-125162869D01*
X124291428Y-125277154D02*
X124348571Y-125220012D01*
X124462857Y-125162869D01*
X124634285Y-125162869D01*
X124748571Y-125220012D01*
X124805714Y-125334297D01*
X124805714Y-125962869D01*
X124805714Y-125334297D02*
X124862857Y-125220012D01*
X124977142Y-125162869D01*
X125148571Y-125162869D01*
X125262857Y-125220012D01*
X125320000Y-125334297D01*
X125320000Y-125962869D01*
X126405714Y-125962869D02*
X126405714Y-125334297D01*
X126348571Y-125220012D01*
X126234285Y-125162869D01*
X126005714Y-125162869D01*
X125891428Y-125220012D01*
X126405714Y-125905726D02*
X126291428Y-125962869D01*
X126005714Y-125962869D01*
X125891428Y-125905726D01*
X125834285Y-125791440D01*
X125834285Y-125677154D01*
X125891428Y-125562869D01*
X126005714Y-125505726D01*
X126291428Y-125505726D01*
X126405714Y-125448583D01*
X126977142Y-125962869D02*
X126977142Y-125162869D01*
X126977142Y-124762869D02*
X126920000Y-124820012D01*
X126977142Y-124877154D01*
X127034285Y-124820012D01*
X126977142Y-124762869D01*
X126977142Y-124877154D01*
X127548571Y-125162869D02*
X127548571Y-125962869D01*
X127548571Y-125277154D02*
X127605714Y-125220012D01*
X127720000Y-125162869D01*
X127891428Y-125162869D01*
X128005714Y-125220012D01*
X128062857Y-125334297D01*
X128062857Y-125962869D01*
X186960380Y-89784571D02*
X186960380Y-89300761D01*
X187976380Y-89300761D01*
X186960380Y-90123238D02*
X187976380Y-90123238D01*
X186960380Y-90607047D02*
X187976380Y-90607047D01*
X187976380Y-90848952D01*
X187928000Y-90994095D01*
X187831238Y-91090857D01*
X187734476Y-91139238D01*
X187540952Y-91187619D01*
X187395809Y-91187619D01*
X187202285Y-91139238D01*
X187105523Y-91090857D01*
X187008761Y-90994095D01*
X186960380Y-90848952D01*
X186960380Y-90607047D01*
X201256380Y-87602476D02*
X200240380Y-87844380D01*
X200966095Y-88037904D01*
X200240380Y-88231428D01*
X201256380Y-88473333D01*
X200772571Y-88860380D02*
X200772571Y-89199047D01*
X200240380Y-89344190D02*
X200240380Y-88860380D01*
X201256380Y-88860380D01*
X201256380Y-89344190D01*
X200240380Y-90263428D02*
X200240380Y-89779619D01*
X201256380Y-89779619D01*
X200240380Y-91085904D02*
X200240380Y-90602095D01*
X201256380Y-90602095D01*
X160071619Y-87497428D02*
X160410285Y-87497428D01*
X160555428Y-88029619D02*
X160071619Y-88029619D01*
X160071619Y-87013619D01*
X160555428Y-87013619D01*
X160894095Y-87013619D02*
X161571428Y-88029619D01*
X161571428Y-87013619D02*
X160894095Y-88029619D01*
X161813333Y-87013619D02*
X162393904Y-87013619D01*
X162103619Y-88029619D02*
X162103619Y-87013619D01*
X163264761Y-88029619D02*
X162684190Y-88029619D01*
X162974476Y-88029619D02*
X162974476Y-87013619D01*
X162877714Y-87158761D01*
X162780952Y-87255523D01*
X162684190Y-87303904D01*
X164425904Y-86965238D02*
X163555047Y-88271523D01*
X164716190Y-87110380D02*
X164764571Y-87062000D01*
X164861333Y-87013619D01*
X165103238Y-87013619D01*
X165200000Y-87062000D01*
X165248380Y-87110380D01*
X165296761Y-87207142D01*
X165296761Y-87303904D01*
X165248380Y-87449047D01*
X164667809Y-88029619D01*
X165296761Y-88029619D01*
X166457904Y-86965238D02*
X165587047Y-88271523D01*
X166699809Y-87013619D02*
X167328761Y-87013619D01*
X166990095Y-87400666D01*
X167135238Y-87400666D01*
X167232000Y-87449047D01*
X167280380Y-87497428D01*
X167328761Y-87594190D01*
X167328761Y-87836095D01*
X167280380Y-87932857D01*
X167232000Y-87981238D01*
X167135238Y-88029619D01*
X166844952Y-88029619D01*
X166748190Y-87981238D01*
X166699809Y-87932857D01*
X162655146Y-95485333D02*
X163138956Y-95485333D01*
X162558384Y-95775619D02*
X162897051Y-94759619D01*
X163235717Y-95775619D01*
X163574384Y-95775619D02*
X163574384Y-94759619D01*
X164638765Y-95775619D02*
X164300098Y-95291809D01*
X164058194Y-95775619D02*
X164058194Y-94759619D01*
X164445241Y-94759619D01*
X164542003Y-94808000D01*
X164590384Y-94856380D01*
X164638765Y-94953142D01*
X164638765Y-95098285D01*
X164590384Y-95195047D01*
X164542003Y-95243428D01*
X164445241Y-95291809D01*
X164058194Y-95291809D01*
X165929432Y-94759619D02*
X166171336Y-95775619D01*
X166364860Y-95049904D01*
X166558384Y-95775619D01*
X166800289Y-94759619D01*
X167187336Y-95243428D02*
X167526003Y-95243428D01*
X167671146Y-95775619D02*
X167187336Y-95775619D01*
X167187336Y-94759619D01*
X167671146Y-94759619D01*
X168590384Y-95775619D02*
X168106575Y-95775619D01*
X168106575Y-94759619D01*
X169412860Y-95775619D02*
X168929051Y-95775619D01*
X168929051Y-94759619D01*
X159211527Y-95775619D02*
X158727717Y-95775619D01*
X158727717Y-94759619D01*
X159550194Y-95775619D02*
X159550194Y-94759619D01*
X160034003Y-95775619D02*
X160034003Y-94759619D01*
X160275908Y-94759619D01*
X160421051Y-94808000D01*
X160517813Y-94904761D01*
X160566194Y-95001523D01*
X160614575Y-95195047D01*
X160614575Y-95340190D01*
X160566194Y-95533714D01*
X160517813Y-95630476D01*
X160421051Y-95727238D01*
X160275908Y-95775619D01*
X160034003Y-95775619D01*
D11*
X170550000Y-116702380D02*
X170550000Y-116940476D01*
X170311904Y-116845238D02*
X170550000Y-116940476D01*
X170788095Y-116845238D01*
X170407142Y-117130952D02*
X170550000Y-116940476D01*
X170692857Y-117130952D01*
X194460000Y-80832380D02*
X194460000Y-81070476D01*
X194221904Y-80975238D02*
X194460000Y-81070476D01*
X194698095Y-80975238D01*
X194317142Y-81260952D02*
X194460000Y-81070476D01*
X194602857Y-81260952D01*
X162830000Y-99392380D02*
X162830000Y-99630476D01*
X162591904Y-99535238D02*
X162830000Y-99630476D01*
X163068095Y-99535238D01*
X162687142Y-99820952D02*
X162830000Y-99630476D01*
X162972857Y-99820952D01*
X115910000Y-104402380D02*
X115910000Y-104640476D01*
X115671904Y-104545238D02*
X115910000Y-104640476D01*
X116148095Y-104545238D01*
X115767142Y-104830952D02*
X115910000Y-104640476D01*
X116052857Y-104830952D01*
D12*
X115005714Y-123962873D02*
X115005714Y-122762873D01*
X115462857Y-122762873D01*
X115577142Y-122820016D01*
X115634285Y-122877158D01*
X115691428Y-122991444D01*
X115691428Y-123162873D01*
X115634285Y-123277158D01*
X115577142Y-123334301D01*
X115462857Y-123391444D01*
X115005714Y-123391444D01*
X116662857Y-123905730D02*
X116548571Y-123962873D01*
X116320000Y-123962873D01*
X116205714Y-123905730D01*
X116148571Y-123791444D01*
X116148571Y-123334301D01*
X116205714Y-123220016D01*
X116320000Y-123162873D01*
X116548571Y-123162873D01*
X116662857Y-123220016D01*
X116720000Y-123334301D01*
X116720000Y-123448587D01*
X116148571Y-123562873D01*
X117234285Y-123962873D02*
X117234285Y-123162873D01*
X117234285Y-123391444D02*
X117291428Y-123277158D01*
X117348571Y-123220016D01*
X117462857Y-123162873D01*
X117577142Y-123162873D01*
X117920000Y-123905730D02*
X118034285Y-123962873D01*
X118262857Y-123962873D01*
X118377142Y-123905730D01*
X118434285Y-123791444D01*
X118434285Y-123734301D01*
X118377142Y-123620016D01*
X118262857Y-123562873D01*
X118091428Y-123562873D01*
X117977142Y-123505730D01*
X117920000Y-123391444D01*
X117920000Y-123334301D01*
X117977142Y-123220016D01*
X118091428Y-123162873D01*
X118262857Y-123162873D01*
X118377142Y-123220016D01*
X119120000Y-123962873D02*
X119005714Y-123905730D01*
X118948571Y-123848587D01*
X118891428Y-123734301D01*
X118891428Y-123391444D01*
X118948571Y-123277158D01*
X119005714Y-123220016D01*
X119120000Y-123162873D01*
X119291428Y-123162873D01*
X119405714Y-123220016D01*
X119462857Y-123277158D01*
X119520000Y-123391444D01*
X119520000Y-123734301D01*
X119462857Y-123848587D01*
X119405714Y-123905730D01*
X119291428Y-123962873D01*
X119120000Y-123962873D01*
X120034285Y-123162873D02*
X120034285Y-123962873D01*
X120034285Y-123277158D02*
X120091428Y-123220016D01*
X120205714Y-123162873D01*
X120377142Y-123162873D01*
X120491428Y-123220016D01*
X120548571Y-123334301D01*
X120548571Y-123962873D01*
X121634285Y-123962873D02*
X121634285Y-123334301D01*
X121577142Y-123220016D01*
X121462857Y-123162873D01*
X121234285Y-123162873D01*
X121120000Y-123220016D01*
X121634285Y-123905730D02*
X121520000Y-123962873D01*
X121234285Y-123962873D01*
X121120000Y-123905730D01*
X121062857Y-123791444D01*
X121062857Y-123677158D01*
X121120000Y-123562873D01*
X121234285Y-123505730D01*
X121520000Y-123505730D01*
X121634285Y-123448587D01*
X122377142Y-123962873D02*
X122262857Y-123905730D01*
X122205714Y-123791444D01*
X122205714Y-122762873D01*
X124262857Y-123162873D02*
X124262857Y-124362873D01*
X124262857Y-123905730D02*
X124148571Y-123962873D01*
X123920000Y-123962873D01*
X123805714Y-123905730D01*
X123748571Y-123848587D01*
X123691428Y-123734301D01*
X123691428Y-123391444D01*
X123748571Y-123277158D01*
X123805714Y-123220016D01*
X123920000Y-123162873D01*
X124148571Y-123162873D01*
X124262857Y-123220016D01*
X125405714Y-123962873D02*
X124834285Y-123962873D01*
X124834285Y-122762873D01*
X125748571Y-123620016D02*
X126320000Y-123620016D01*
X125634285Y-123962873D02*
X126034285Y-122762873D01*
X126434285Y-123962873D01*
X126834285Y-123962873D02*
X126834285Y-122762873D01*
X127234285Y-123620016D01*
X127634285Y-122762873D01*
X127634285Y-123962873D01*
X128205714Y-123962873D02*
X128205714Y-122762873D01*
X128662857Y-122762873D01*
X128777142Y-122820016D01*
X128834285Y-122877158D01*
X128891428Y-122991444D01*
X128891428Y-123162873D01*
X128834285Y-123277158D01*
X128777142Y-123334301D01*
X128662857Y-123391444D01*
X128205714Y-123391444D01*
D11*
X196104097Y-127952377D02*
X196675525Y-127952377D01*
X196389811Y-128952377D02*
X196389811Y-127952377D01*
X196913621Y-127952377D02*
X197580287Y-128952377D01*
X197580287Y-127952377D02*
X196913621Y-128952377D01*
D12*
X115872380Y-121864761D02*
X115872380Y-119864761D01*
X117015238Y-121864761D01*
X117015238Y-119864761D01*
X117967619Y-121864761D02*
X117967619Y-120531428D01*
X117967619Y-119864761D02*
X117872380Y-119960000D01*
X117967619Y-120055238D01*
X118062857Y-119960000D01*
X117967619Y-119864761D01*
X117967619Y-120055238D01*
X118920000Y-120531428D02*
X118920000Y-121864761D01*
X118920000Y-120721904D02*
X119015238Y-120626666D01*
X119205714Y-120531428D01*
X119491428Y-120531428D01*
X119681904Y-120626666D01*
X119777142Y-120817142D01*
X119777142Y-121864761D01*
X120729523Y-120531428D02*
X120729523Y-122245714D01*
X120634285Y-122436190D01*
X120443809Y-122531428D01*
X120348571Y-122531428D01*
X120729523Y-119864761D02*
X120634285Y-119960000D01*
X120729523Y-120055238D01*
X120824761Y-119960000D01*
X120729523Y-119864761D01*
X120729523Y-120055238D01*
X122539047Y-121864761D02*
X122539047Y-120817142D01*
X122443809Y-120626666D01*
X122253333Y-120531428D01*
X121872380Y-120531428D01*
X121681904Y-120626666D01*
X122539047Y-121769523D02*
X122348571Y-121864761D01*
X121872380Y-121864761D01*
X121681904Y-121769523D01*
X121586666Y-121579047D01*
X121586666Y-121388571D01*
X121681904Y-121198095D01*
X121872380Y-121102857D01*
X122348571Y-121102857D01*
X122539047Y-121007619D01*
X124443809Y-121864761D02*
X123491428Y-121864761D01*
X123491428Y-119864761D01*
X125110476Y-121864761D02*
X125110476Y-120531428D01*
X125110476Y-119864761D02*
X125015238Y-119960000D01*
X125110476Y-120055238D01*
X125205714Y-119960000D01*
X125110476Y-119864761D01*
X125110476Y-120055238D01*
X125777142Y-120531428D02*
X126539047Y-120531428D01*
X126062857Y-119864761D02*
X126062857Y-121579047D01*
X126158095Y-121769523D01*
X126348571Y-121864761D01*
X126539047Y-121864761D01*
X127967619Y-121769523D02*
X127777142Y-121864761D01*
X127396190Y-121864761D01*
X127205714Y-121769523D01*
X127110476Y-121579047D01*
X127110476Y-120817142D01*
X127205714Y-120626666D01*
X127396190Y-120531428D01*
X127777142Y-120531428D01*
X127967619Y-120626666D01*
X128062857Y-120817142D01*
X128062857Y-121007619D01*
X127110476Y-121198095D01*
D11*
X194159335Y-128952377D02*
X193826002Y-128476187D01*
X193587906Y-128952377D02*
X193587906Y-127952377D01*
X193968859Y-127952377D01*
X194064097Y-127999997D01*
X194111716Y-128047616D01*
X194159335Y-128142854D01*
X194159335Y-128285711D01*
X194111716Y-128380949D01*
X194064097Y-128428568D01*
X193968859Y-128476187D01*
X193587906Y-128476187D01*
X194492668Y-127952377D02*
X195159335Y-128952377D01*
X195159335Y-127952377D02*
X194492668Y-128952377D01*
X150060000Y-114372380D02*
X150060000Y-114610476D01*
X149821904Y-114515238D02*
X150060000Y-114610476D01*
X150298095Y-114515238D01*
X149917142Y-114800952D02*
X150060000Y-114610476D01*
X150202857Y-114800952D01*
X85020000Y-106492380D02*
X85020000Y-106730476D01*
X84781904Y-106635238D02*
X85020000Y-106730476D01*
X85258095Y-106635238D01*
X84877142Y-106920952D02*
X85020000Y-106730476D01*
X85162857Y-106920952D01*
X201438097Y-127999997D02*
X201342859Y-127952377D01*
X201200002Y-127952377D01*
X201057144Y-127999997D01*
X200961906Y-128095235D01*
X200914287Y-128190473D01*
X200866668Y-128380949D01*
X200866668Y-128523806D01*
X200914287Y-128714282D01*
X200961906Y-128809520D01*
X201057144Y-128904758D01*
X201200002Y-128952377D01*
X201295240Y-128952377D01*
X201438097Y-128904758D01*
X201485716Y-128857139D01*
X201485716Y-128523806D01*
X201295240Y-128523806D01*
X201914287Y-128952377D02*
X201914287Y-127952377D01*
X202485716Y-128952377D01*
X202485716Y-127952377D01*
X202961906Y-128952377D02*
X202961906Y-127952377D01*
X203200002Y-127952377D01*
X203342859Y-127999997D01*
X203438097Y-128095235D01*
X203485716Y-128190473D01*
X203533335Y-128380949D01*
X203533335Y-128523806D01*
X203485716Y-128714282D01*
X203438097Y-128809520D01*
X203342859Y-128904758D01*
X203200002Y-128952377D01*
X202961906Y-128952377D01*
X110430000Y-103172380D02*
X110430000Y-103410476D01*
X110191904Y-103315238D02*
X110430000Y-103410476D01*
X110668095Y-103315238D01*
X110287142Y-103600952D02*
X110430000Y-103410476D01*
X110572857Y-103600952D01*
X191024097Y-127999997D02*
X190928859Y-127952377D01*
X190786002Y-127952377D01*
X190643144Y-127999997D01*
X190547906Y-128095235D01*
X190500287Y-128190473D01*
X190452668Y-128380949D01*
X190452668Y-128523806D01*
X190500287Y-128714282D01*
X190547906Y-128809520D01*
X190643144Y-128904758D01*
X190786002Y-128952377D01*
X190881240Y-128952377D01*
X191024097Y-128904758D01*
X191071716Y-128857139D01*
X191071716Y-128523806D01*
X190881240Y-128523806D01*
X191500287Y-128952377D02*
X191500287Y-127952377D01*
X192071716Y-128952377D01*
X192071716Y-127952377D01*
X192547906Y-128952377D02*
X192547906Y-127952377D01*
X192786002Y-127952377D01*
X192928859Y-127999997D01*
X193024097Y-128095235D01*
X193071716Y-128190473D01*
X193119335Y-128380949D01*
X193119335Y-128523806D01*
X193071716Y-128714282D01*
X193024097Y-128809520D01*
X192928859Y-128904758D01*
X192786002Y-128952377D01*
X192547906Y-128952377D01*
X188206287Y-128952377D02*
X188206287Y-127952377D01*
X188777716Y-128952377D01*
X188777716Y-127952377D01*
X189825335Y-128857139D02*
X189777716Y-128904758D01*
X189634859Y-128952377D01*
X189539621Y-128952377D01*
X189396763Y-128904758D01*
X189301525Y-128809520D01*
X189253906Y-128714282D01*
X189206287Y-128523806D01*
X189206287Y-128380949D01*
X189253906Y-128190473D01*
X189301525Y-128095235D01*
X189396763Y-127999997D01*
X189539621Y-127952377D01*
X189634859Y-127952377D01*
X189777716Y-127999997D01*
X189825335Y-128047616D01*
X91850000Y-101052380D02*
X91850000Y-101290476D01*
X91611904Y-101195238D02*
X91850000Y-101290476D01*
X92088095Y-101195238D01*
X91707142Y-101480952D02*
X91850000Y-101290476D01*
X91992857Y-101480952D01*
X198406002Y-128952377D02*
X198406002Y-127952377D01*
X199072668Y-127952377D02*
X199263144Y-127952377D01*
X199358382Y-127999997D01*
X199453621Y-128095235D01*
X199501240Y-128285711D01*
X199501240Y-128619044D01*
X199453621Y-128809520D01*
X199358382Y-128904758D01*
X199263144Y-128952377D01*
X199072668Y-128952377D01*
X198977430Y-128904758D01*
X198882192Y-128809520D01*
X198834573Y-128619044D01*
X198834573Y-128285711D01*
X198882192Y-128095235D01*
X198977430Y-127999997D01*
X199072668Y-127952377D01*
X200120287Y-127952377D02*
X200215525Y-127952377D01*
X200310763Y-127999997D01*
X200358382Y-128047616D01*
X200406002Y-128142854D01*
X200453621Y-128333330D01*
X200453621Y-128571425D01*
X200406002Y-128761901D01*
X200358382Y-128857139D01*
X200310763Y-128904758D01*
X200215525Y-128952377D01*
X200120287Y-128952377D01*
X200025049Y-128904758D01*
X199977430Y-128857139D01*
X199929811Y-128761901D01*
X199882192Y-128571425D01*
X199882192Y-128333330D01*
X199929811Y-128142854D01*
X199977430Y-128047616D01*
X200025049Y-127999997D01*
X200120287Y-127952377D01*
X206687618Y-88584770D02*
X207687618Y-88584770D01*
X207211427Y-88584770D02*
X207211427Y-89156199D01*
X206687618Y-89156199D02*
X207687618Y-89156199D01*
X207687618Y-89537151D02*
X206687618Y-89775247D01*
X207401903Y-89965723D01*
X206687618Y-90156199D01*
X207687618Y-90394294D01*
X207211427Y-90775247D02*
X207211427Y-91108580D01*
X206687618Y-91251437D02*
X206687618Y-90775247D01*
X207687618Y-90775247D01*
X207687618Y-91251437D01*
X206687618Y-92156199D02*
X206687618Y-91680009D01*
X207687618Y-91680009D01*
X206687618Y-92965723D02*
X206687618Y-92489532D01*
X207687618Y-92489532D01*
X206687618Y-93822866D02*
X206687618Y-93251437D01*
X206687618Y-93537151D02*
X207687618Y-93537151D01*
X207544760Y-93441913D01*
X207449522Y-93346675D01*
X207401903Y-93251437D01*
X149056666Y-125452380D02*
X149056666Y-126166666D01*
X149009047Y-126309523D01*
X148913809Y-126404761D01*
X148770952Y-126452380D01*
X148675714Y-126452380D01*
X149532857Y-126452380D02*
X149532857Y-125452380D01*
X149913809Y-125452380D01*
X150009047Y-125500000D01*
X150056666Y-125547619D01*
X150104285Y-125642857D01*
X150104285Y-125785714D01*
X150056666Y-125880952D01*
X150009047Y-125928571D01*
X149913809Y-125976190D01*
X149532857Y-125976190D01*
X151056666Y-126452380D02*
X150485238Y-126452380D01*
X150770952Y-126452380D02*
X150770952Y-125452380D01*
X150675714Y-125595238D01*
X150580476Y-125690476D01*
X150485238Y-125738095D01*
X189981904Y-83872380D02*
X189981904Y-84681904D01*
X190029523Y-84777142D01*
X190077142Y-84824761D01*
X190172380Y-84872380D01*
X190362857Y-84872380D01*
X190458095Y-84824761D01*
X190505714Y-84777142D01*
X190553333Y-84681904D01*
X190553333Y-83872380D01*
X191553333Y-84872380D02*
X190981904Y-84872380D01*
X191267619Y-84872380D02*
X191267619Y-83872380D01*
X191172380Y-84015238D01*
X191077142Y-84110476D01*
X190981904Y-84158095D01*
X192505714Y-84872380D02*
X191934285Y-84872380D01*
X192220000Y-84872380D02*
X192220000Y-83872380D01*
X192124761Y-84015238D01*
X192029523Y-84110476D01*
X191934285Y-84158095D01*
X138001904Y-99362380D02*
X138001904Y-100171904D01*
X138049523Y-100267142D01*
X138097142Y-100314761D01*
X138192380Y-100362380D01*
X138382857Y-100362380D01*
X138478095Y-100314761D01*
X138525714Y-100267142D01*
X138573333Y-100171904D01*
X138573333Y-99362380D01*
X139573333Y-100362380D02*
X139001904Y-100362380D01*
X139287619Y-100362380D02*
X139287619Y-99362380D01*
X139192380Y-99505238D01*
X139097142Y-99600476D01*
X139001904Y-99648095D01*
X139954285Y-99457619D02*
X140001904Y-99410000D01*
X140097142Y-99362380D01*
X140335238Y-99362380D01*
X140430476Y-99410000D01*
X140478095Y-99457619D01*
X140525714Y-99552857D01*
X140525714Y-99648095D01*
X140478095Y-99790952D01*
X139906666Y-100362380D01*
X140525714Y-100362380D01*
X141132380Y-100160000D02*
X141370476Y-100160000D01*
X141275238Y-100398095D02*
X141370476Y-100160000D01*
X141275238Y-99921904D01*
X141560952Y-100302857D02*
X141370476Y-100160000D01*
X141560952Y-100017142D01*
X122921904Y-103312380D02*
X122921904Y-104121904D01*
X122969523Y-104217142D01*
X123017142Y-104264761D01*
X123112380Y-104312380D01*
X123302857Y-104312380D01*
X123398095Y-104264761D01*
X123445714Y-104217142D01*
X123493333Y-104121904D01*
X123493333Y-103312380D01*
X124493333Y-104312380D02*
X123921904Y-104312380D01*
X124207619Y-104312380D02*
X124207619Y-103312380D01*
X124112380Y-103455238D01*
X124017142Y-103550476D01*
X123921904Y-103598095D01*
X124826666Y-103312380D02*
X125445714Y-103312380D01*
X125112380Y-103693333D01*
X125255238Y-103693333D01*
X125350476Y-103740952D01*
X125398095Y-103788571D01*
X125445714Y-103883809D01*
X125445714Y-104121904D01*
X125398095Y-104217142D01*
X125350476Y-104264761D01*
X125255238Y-104312380D01*
X124969523Y-104312380D01*
X124874285Y-104264761D01*
X124826666Y-104217142D01*
X116441904Y-104512380D02*
X116441904Y-105321904D01*
X116489523Y-105417142D01*
X116537142Y-105464761D01*
X116632380Y-105512380D01*
X116822857Y-105512380D01*
X116918095Y-105464761D01*
X116965714Y-105417142D01*
X117013333Y-105321904D01*
X117013333Y-104512380D01*
X118013333Y-105512380D02*
X117441904Y-105512380D01*
X117727619Y-105512380D02*
X117727619Y-104512380D01*
X117632380Y-104655238D01*
X117537142Y-104750476D01*
X117441904Y-104798095D01*
X118870476Y-104845714D02*
X118870476Y-105512380D01*
X118632380Y-104464761D02*
X118394285Y-105179047D01*
X119013333Y-105179047D01*
X173321904Y-102662380D02*
X173321904Y-103471904D01*
X173369523Y-103567142D01*
X173417142Y-103614761D01*
X173512380Y-103662380D01*
X173702857Y-103662380D01*
X173798095Y-103614761D01*
X173845714Y-103567142D01*
X173893333Y-103471904D01*
X173893333Y-102662380D01*
X174893333Y-103662380D02*
X174321904Y-103662380D01*
X174607619Y-103662380D02*
X174607619Y-102662380D01*
X174512380Y-102805238D01*
X174417142Y-102900476D01*
X174321904Y-102948095D01*
X175798095Y-102662380D02*
X175321904Y-102662380D01*
X175274285Y-103138571D01*
X175321904Y-103090952D01*
X175417142Y-103043333D01*
X175655238Y-103043333D01*
X175750476Y-103090952D01*
X175798095Y-103138571D01*
X175845714Y-103233809D01*
X175845714Y-103471904D01*
X175798095Y-103567142D01*
X175750476Y-103614761D01*
X175655238Y-103662380D01*
X175417142Y-103662380D01*
X175321904Y-103614761D01*
X175274285Y-103567142D01*
X173136904Y-83247380D02*
X173136904Y-84056904D01*
X173184523Y-84152142D01*
X173232142Y-84199761D01*
X173327380Y-84247380D01*
X173517857Y-84247380D01*
X173613095Y-84199761D01*
X173660714Y-84152142D01*
X173708333Y-84056904D01*
X173708333Y-83247380D01*
X174708333Y-84247380D02*
X174136904Y-84247380D01*
X174422619Y-84247380D02*
X174422619Y-83247380D01*
X174327380Y-83390238D01*
X174232142Y-83485476D01*
X174136904Y-83533095D01*
X175565476Y-83247380D02*
X175375000Y-83247380D01*
X175279761Y-83295000D01*
X175232142Y-83342619D01*
X175136904Y-83485476D01*
X175089285Y-83675952D01*
X175089285Y-84056904D01*
X175136904Y-84152142D01*
X175184523Y-84199761D01*
X175279761Y-84247380D01*
X175470238Y-84247380D01*
X175565476Y-84199761D01*
X175613095Y-84152142D01*
X175660714Y-84056904D01*
X175660714Y-83818809D01*
X175613095Y-83723571D01*
X175565476Y-83675952D01*
X175470238Y-83628333D01*
X175279761Y-83628333D01*
X175184523Y-83675952D01*
X175136904Y-83723571D01*
X175089285Y-83818809D01*
X126427142Y-98717142D02*
X126379523Y-98764761D01*
X126236666Y-98812380D01*
X126141428Y-98812380D01*
X125998571Y-98764761D01*
X125903333Y-98669523D01*
X125855714Y-98574285D01*
X125808095Y-98383809D01*
X125808095Y-98240952D01*
X125855714Y-98050476D01*
X125903333Y-97955238D01*
X125998571Y-97860000D01*
X126141428Y-97812380D01*
X126236666Y-97812380D01*
X126379523Y-97860000D01*
X126427142Y-97907619D01*
X126808095Y-97907619D02*
X126855714Y-97860000D01*
X126950952Y-97812380D01*
X127189047Y-97812380D01*
X127284285Y-97860000D01*
X127331904Y-97907619D01*
X127379523Y-98002857D01*
X127379523Y-98098095D01*
X127331904Y-98240952D01*
X126760476Y-98812380D01*
X127379523Y-98812380D01*
X127760476Y-97907619D02*
X127808095Y-97860000D01*
X127903333Y-97812380D01*
X128141428Y-97812380D01*
X128236666Y-97860000D01*
X128284285Y-97907619D01*
X128331904Y-98002857D01*
X128331904Y-98098095D01*
X128284285Y-98240952D01*
X127712857Y-98812380D01*
X128331904Y-98812380D01*
X177847142Y-92567142D02*
X177799523Y-92614761D01*
X177656666Y-92662380D01*
X177561428Y-92662380D01*
X177418571Y-92614761D01*
X177323333Y-92519523D01*
X177275714Y-92424285D01*
X177228095Y-92233809D01*
X177228095Y-92090952D01*
X177275714Y-91900476D01*
X177323333Y-91805238D01*
X177418571Y-91710000D01*
X177561428Y-91662380D01*
X177656666Y-91662380D01*
X177799523Y-91710000D01*
X177847142Y-91757619D01*
X178228095Y-91757619D02*
X178275714Y-91710000D01*
X178370952Y-91662380D01*
X178609047Y-91662380D01*
X178704285Y-91710000D01*
X178751904Y-91757619D01*
X178799523Y-91852857D01*
X178799523Y-91948095D01*
X178751904Y-92090952D01*
X178180476Y-92662380D01*
X178799523Y-92662380D01*
X179132857Y-91662380D02*
X179751904Y-91662380D01*
X179418571Y-92043333D01*
X179561428Y-92043333D01*
X179656666Y-92090952D01*
X179704285Y-92138571D01*
X179751904Y-92233809D01*
X179751904Y-92471904D01*
X179704285Y-92567142D01*
X179656666Y-92614761D01*
X179561428Y-92662380D01*
X179275714Y-92662380D01*
X179180476Y-92614761D01*
X179132857Y-92567142D01*
X177221428Y-90380952D02*
X177221428Y-89619047D01*
X177602380Y-90000000D02*
X176840476Y-90000000D01*
X179272380Y-87930000D02*
X179510476Y-87930000D01*
X179415238Y-88168095D02*
X179510476Y-87930000D01*
X179415238Y-87691904D01*
X179700952Y-88072857D02*
X179510476Y-87930000D01*
X179700952Y-87787142D01*
X122597142Y-96547142D02*
X122549523Y-96594761D01*
X122406666Y-96642380D01*
X122311428Y-96642380D01*
X122168571Y-96594761D01*
X122073333Y-96499523D01*
X122025714Y-96404285D01*
X121978095Y-96213809D01*
X121978095Y-96070952D01*
X122025714Y-95880476D01*
X122073333Y-95785238D01*
X122168571Y-95690000D01*
X122311428Y-95642380D01*
X122406666Y-95642380D01*
X122549523Y-95690000D01*
X122597142Y-95737619D01*
X122978095Y-95737619D02*
X123025714Y-95690000D01*
X123120952Y-95642380D01*
X123359047Y-95642380D01*
X123454285Y-95690000D01*
X123501904Y-95737619D01*
X123549523Y-95832857D01*
X123549523Y-95928095D01*
X123501904Y-96070952D01*
X122930476Y-96642380D01*
X123549523Y-96642380D01*
X124406666Y-95975714D02*
X124406666Y-96642380D01*
X124168571Y-95594761D02*
X123930476Y-96309047D01*
X124549523Y-96309047D01*
X171847142Y-88427142D02*
X171799523Y-88474761D01*
X171656666Y-88522380D01*
X171561428Y-88522380D01*
X171418571Y-88474761D01*
X171323333Y-88379523D01*
X171275714Y-88284285D01*
X171228095Y-88093809D01*
X171228095Y-87950952D01*
X171275714Y-87760476D01*
X171323333Y-87665238D01*
X171418571Y-87570000D01*
X171561428Y-87522380D01*
X171656666Y-87522380D01*
X171799523Y-87570000D01*
X171847142Y-87617619D01*
X172228095Y-87617619D02*
X172275714Y-87570000D01*
X172370952Y-87522380D01*
X172609047Y-87522380D01*
X172704285Y-87570000D01*
X172751904Y-87617619D01*
X172799523Y-87712857D01*
X172799523Y-87808095D01*
X172751904Y-87950952D01*
X172180476Y-88522380D01*
X172799523Y-88522380D01*
X173704285Y-87522380D02*
X173228095Y-87522380D01*
X173180476Y-87998571D01*
X173228095Y-87950952D01*
X173323333Y-87903333D01*
X173561428Y-87903333D01*
X173656666Y-87950952D01*
X173704285Y-87998571D01*
X173751904Y-88093809D01*
X173751904Y-88331904D01*
X173704285Y-88427142D01*
X173656666Y-88474761D01*
X173561428Y-88522380D01*
X173323333Y-88522380D01*
X173228095Y-88474761D01*
X173180476Y-88427142D01*
X171897142Y-95167142D02*
X171849523Y-95214761D01*
X171706666Y-95262380D01*
X171611428Y-95262380D01*
X171468571Y-95214761D01*
X171373333Y-95119523D01*
X171325714Y-95024285D01*
X171278095Y-94833809D01*
X171278095Y-94690952D01*
X171325714Y-94500476D01*
X171373333Y-94405238D01*
X171468571Y-94310000D01*
X171611428Y-94262380D01*
X171706666Y-94262380D01*
X171849523Y-94310000D01*
X171897142Y-94357619D01*
X172278095Y-94357619D02*
X172325714Y-94310000D01*
X172420952Y-94262380D01*
X172659047Y-94262380D01*
X172754285Y-94310000D01*
X172801904Y-94357619D01*
X172849523Y-94452857D01*
X172849523Y-94548095D01*
X172801904Y-94690952D01*
X172230476Y-95262380D01*
X172849523Y-95262380D01*
X173182857Y-94262380D02*
X173849523Y-94262380D01*
X173420952Y-95262380D01*
X181287142Y-87337142D02*
X181239523Y-87384761D01*
X181096666Y-87432380D01*
X181001428Y-87432380D01*
X180858571Y-87384761D01*
X180763333Y-87289523D01*
X180715714Y-87194285D01*
X180668095Y-87003809D01*
X180668095Y-86860952D01*
X180715714Y-86670476D01*
X180763333Y-86575238D01*
X180858571Y-86480000D01*
X181001428Y-86432380D01*
X181096666Y-86432380D01*
X181239523Y-86480000D01*
X181287142Y-86527619D01*
X181668095Y-86527619D02*
X181715714Y-86480000D01*
X181810952Y-86432380D01*
X182049047Y-86432380D01*
X182144285Y-86480000D01*
X182191904Y-86527619D01*
X182239523Y-86622857D01*
X182239523Y-86718095D01*
X182191904Y-86860952D01*
X181620476Y-87432380D01*
X182239523Y-87432380D01*
X182715714Y-87432380D02*
X182906190Y-87432380D01*
X183001428Y-87384761D01*
X183049047Y-87337142D01*
X183144285Y-87194285D01*
X183191904Y-87003809D01*
X183191904Y-86622857D01*
X183144285Y-86527619D01*
X183096666Y-86480000D01*
X183001428Y-86432380D01*
X182810952Y-86432380D01*
X182715714Y-86480000D01*
X182668095Y-86527619D01*
X182620476Y-86622857D01*
X182620476Y-86860952D01*
X182668095Y-86956190D01*
X182715714Y-87003809D01*
X182810952Y-87051428D01*
X183001428Y-87051428D01*
X183096666Y-87003809D01*
X183144285Y-86956190D01*
X183191904Y-86860952D01*
X117087142Y-96537142D02*
X117039523Y-96584761D01*
X116896666Y-96632380D01*
X116801428Y-96632380D01*
X116658571Y-96584761D01*
X116563333Y-96489523D01*
X116515714Y-96394285D01*
X116468095Y-96203809D01*
X116468095Y-96060952D01*
X116515714Y-95870476D01*
X116563333Y-95775238D01*
X116658571Y-95680000D01*
X116801428Y-95632380D01*
X116896666Y-95632380D01*
X117039523Y-95680000D01*
X117087142Y-95727619D01*
X117420476Y-95632380D02*
X118039523Y-95632380D01*
X117706190Y-96013333D01*
X117849047Y-96013333D01*
X117944285Y-96060952D01*
X117991904Y-96108571D01*
X118039523Y-96203809D01*
X118039523Y-96441904D01*
X117991904Y-96537142D01*
X117944285Y-96584761D01*
X117849047Y-96632380D01*
X117563333Y-96632380D01*
X117468095Y-96584761D01*
X117420476Y-96537142D01*
X118658571Y-95632380D02*
X118753809Y-95632380D01*
X118849047Y-95680000D01*
X118896666Y-95727619D01*
X118944285Y-95822857D01*
X118991904Y-96013333D01*
X118991904Y-96251428D01*
X118944285Y-96441904D01*
X118896666Y-96537142D01*
X118849047Y-96584761D01*
X118753809Y-96632380D01*
X118658571Y-96632380D01*
X118563333Y-96584761D01*
X118515714Y-96537142D01*
X118468095Y-96441904D01*
X118420476Y-96251428D01*
X118420476Y-96013333D01*
X118468095Y-95822857D01*
X118515714Y-95727619D01*
X118563333Y-95680000D01*
X118658571Y-95632380D01*
X174717142Y-115237142D02*
X174669523Y-115284761D01*
X174526666Y-115332380D01*
X174431428Y-115332380D01*
X174288571Y-115284761D01*
X174193333Y-115189523D01*
X174145714Y-115094285D01*
X174098095Y-114903809D01*
X174098095Y-114760952D01*
X174145714Y-114570476D01*
X174193333Y-114475238D01*
X174288571Y-114380000D01*
X174431428Y-114332380D01*
X174526666Y-114332380D01*
X174669523Y-114380000D01*
X174717142Y-114427619D01*
X175050476Y-114332380D02*
X175669523Y-114332380D01*
X175336190Y-114713333D01*
X175479047Y-114713333D01*
X175574285Y-114760952D01*
X175621904Y-114808571D01*
X175669523Y-114903809D01*
X175669523Y-115141904D01*
X175621904Y-115237142D01*
X175574285Y-115284761D01*
X175479047Y-115332380D01*
X175193333Y-115332380D01*
X175098095Y-115284761D01*
X175050476Y-115237142D01*
X176621904Y-115332380D02*
X176050476Y-115332380D01*
X176336190Y-115332380D02*
X176336190Y-114332380D01*
X176240952Y-114475238D01*
X176145714Y-114570476D01*
X176050476Y-114618095D01*
X114287142Y-96597142D02*
X114239523Y-96644761D01*
X114096666Y-96692380D01*
X114001428Y-96692380D01*
X113858571Y-96644761D01*
X113763333Y-96549523D01*
X113715714Y-96454285D01*
X113668095Y-96263809D01*
X113668095Y-96120952D01*
X113715714Y-95930476D01*
X113763333Y-95835238D01*
X113858571Y-95740000D01*
X114001428Y-95692380D01*
X114096666Y-95692380D01*
X114239523Y-95740000D01*
X114287142Y-95787619D01*
X114620476Y-95692380D02*
X115239523Y-95692380D01*
X114906190Y-96073333D01*
X115049047Y-96073333D01*
X115144285Y-96120952D01*
X115191904Y-96168571D01*
X115239523Y-96263809D01*
X115239523Y-96501904D01*
X115191904Y-96597142D01*
X115144285Y-96644761D01*
X115049047Y-96692380D01*
X114763333Y-96692380D01*
X114668095Y-96644761D01*
X114620476Y-96597142D01*
X115572857Y-95692380D02*
X116191904Y-95692380D01*
X115858571Y-96073333D01*
X116001428Y-96073333D01*
X116096666Y-96120952D01*
X116144285Y-96168571D01*
X116191904Y-96263809D01*
X116191904Y-96501904D01*
X116144285Y-96597142D01*
X116096666Y-96644761D01*
X116001428Y-96692380D01*
X115715714Y-96692380D01*
X115620476Y-96644761D01*
X115572857Y-96597142D01*
X136329333Y-107702380D02*
X135853142Y-107702380D01*
X135853142Y-106702380D01*
X137186476Y-107702380D02*
X136615047Y-107702380D01*
X136900761Y-107702380D02*
X136900761Y-106702380D01*
X136805523Y-106845238D01*
X136710285Y-106940476D01*
X136615047Y-106988095D01*
X193007142Y-80097142D02*
X192959523Y-80144761D01*
X192816666Y-80192380D01*
X192721428Y-80192380D01*
X192578571Y-80144761D01*
X192483333Y-80049523D01*
X192435714Y-79954285D01*
X192388095Y-79763809D01*
X192388095Y-79620952D01*
X192435714Y-79430476D01*
X192483333Y-79335238D01*
X192578571Y-79240000D01*
X192721428Y-79192380D01*
X192816666Y-79192380D01*
X192959523Y-79240000D01*
X193007142Y-79287619D01*
X193959523Y-80192380D02*
X193388095Y-80192380D01*
X193673809Y-80192380D02*
X193673809Y-79192380D01*
X193578571Y-79335238D01*
X193483333Y-79430476D01*
X193388095Y-79478095D01*
X194292857Y-79192380D02*
X194911904Y-79192380D01*
X194578571Y-79573333D01*
X194721428Y-79573333D01*
X194816666Y-79620952D01*
X194864285Y-79668571D01*
X194911904Y-79763809D01*
X194911904Y-80001904D01*
X194864285Y-80097142D01*
X194816666Y-80144761D01*
X194721428Y-80192380D01*
X194435714Y-80192380D01*
X194340476Y-80144761D01*
X194292857Y-80097142D01*
X137027142Y-97087142D02*
X136979523Y-97134761D01*
X136836666Y-97182380D01*
X136741428Y-97182380D01*
X136598571Y-97134761D01*
X136503333Y-97039523D01*
X136455714Y-96944285D01*
X136408095Y-96753809D01*
X136408095Y-96610952D01*
X136455714Y-96420476D01*
X136503333Y-96325238D01*
X136598571Y-96230000D01*
X136741428Y-96182380D01*
X136836666Y-96182380D01*
X136979523Y-96230000D01*
X137027142Y-96277619D01*
X137979523Y-97182380D02*
X137408095Y-97182380D01*
X137693809Y-97182380D02*
X137693809Y-96182380D01*
X137598571Y-96325238D01*
X137503333Y-96420476D01*
X137408095Y-96468095D01*
X138836666Y-96515714D02*
X138836666Y-97182380D01*
X138598571Y-96134761D02*
X138360476Y-96849047D01*
X138979523Y-96849047D01*
X132447142Y-99777142D02*
X132399523Y-99824761D01*
X132256666Y-99872380D01*
X132161428Y-99872380D01*
X132018571Y-99824761D01*
X131923333Y-99729523D01*
X131875714Y-99634285D01*
X131828095Y-99443809D01*
X131828095Y-99300952D01*
X131875714Y-99110476D01*
X131923333Y-99015238D01*
X132018571Y-98920000D01*
X132161428Y-98872380D01*
X132256666Y-98872380D01*
X132399523Y-98920000D01*
X132447142Y-98967619D01*
X132828095Y-98967619D02*
X132875714Y-98920000D01*
X132970952Y-98872380D01*
X133209047Y-98872380D01*
X133304285Y-98920000D01*
X133351904Y-98967619D01*
X133399523Y-99062857D01*
X133399523Y-99158095D01*
X133351904Y-99300952D01*
X132780476Y-99872380D01*
X133399523Y-99872380D01*
X134351904Y-99872380D02*
X133780476Y-99872380D01*
X134066190Y-99872380D02*
X134066190Y-98872380D01*
X133970952Y-99015238D01*
X133875714Y-99110476D01*
X133780476Y-99158095D01*
X193367619Y-90795238D02*
X194367619Y-90795238D01*
X193891428Y-90795238D02*
X193891428Y-91366666D01*
X193367619Y-91366666D02*
X194367619Y-91366666D01*
X193367619Y-92319047D02*
X193367619Y-91842857D01*
X194367619Y-91842857D01*
X193367619Y-92652380D02*
X194367619Y-92652380D01*
X193367619Y-93128571D02*
X194367619Y-93128571D01*
X194367619Y-93366666D01*
X194320000Y-93509523D01*
X194224761Y-93604761D01*
X194129523Y-93652380D01*
X193939047Y-93700000D01*
X193796190Y-93700000D01*
X193605714Y-93652380D01*
X193510476Y-93604761D01*
X193415238Y-93509523D01*
X193367619Y-93366666D01*
X193367619Y-93128571D01*
X193367619Y-94652380D02*
X193367619Y-94080952D01*
X193367619Y-94366666D02*
X194367619Y-94366666D01*
X194224761Y-94271428D01*
X194129523Y-94176190D01*
X194081904Y-94080952D01*
X81457903Y-102572392D02*
X81457903Y-103381916D01*
X81505522Y-103477154D01*
X81553141Y-103524773D01*
X81648379Y-103572392D01*
X81838856Y-103572392D01*
X81934094Y-103524773D01*
X81981713Y-103477154D01*
X82029332Y-103381916D01*
X82029332Y-102572392D01*
X83029332Y-103572392D02*
X82457903Y-103572392D01*
X82743618Y-103572392D02*
X82743618Y-102572392D01*
X82648379Y-102715250D01*
X82553141Y-102810488D01*
X82457903Y-102858107D01*
X83505522Y-103572392D02*
X83695999Y-103572392D01*
X83791237Y-103524773D01*
X83838856Y-103477154D01*
X83934094Y-103334297D01*
X83981713Y-103143821D01*
X83981713Y-102762869D01*
X83934094Y-102667631D01*
X83886475Y-102620012D01*
X83791237Y-102572392D01*
X83600760Y-102572392D01*
X83505522Y-102620012D01*
X83457903Y-102667631D01*
X83410284Y-102762869D01*
X83410284Y-103000964D01*
X83457903Y-103096202D01*
X83505522Y-103143821D01*
X83600760Y-103191440D01*
X83791237Y-103191440D01*
X83886475Y-103143821D01*
X83934094Y-103096202D01*
X83981713Y-103000964D01*
X93833333Y-103837142D02*
X93785714Y-103884761D01*
X93642857Y-103932380D01*
X93547619Y-103932380D01*
X93404761Y-103884761D01*
X93309523Y-103789523D01*
X93261904Y-103694285D01*
X93214285Y-103503809D01*
X93214285Y-103360952D01*
X93261904Y-103170476D01*
X93309523Y-103075238D01*
X93404761Y-102980000D01*
X93547619Y-102932380D01*
X93642857Y-102932380D01*
X93785714Y-102980000D01*
X93833333Y-103027619D01*
X94404761Y-103360952D02*
X94309523Y-103313333D01*
X94261904Y-103265714D01*
X94214285Y-103170476D01*
X94214285Y-103122857D01*
X94261904Y-103027619D01*
X94309523Y-102980000D01*
X94404761Y-102932380D01*
X94595238Y-102932380D01*
X94690476Y-102980000D01*
X94738095Y-103027619D01*
X94785714Y-103122857D01*
X94785714Y-103170476D01*
X94738095Y-103265714D01*
X94690476Y-103313333D01*
X94595238Y-103360952D01*
X94404761Y-103360952D01*
X94309523Y-103408571D01*
X94261904Y-103456190D01*
X94214285Y-103551428D01*
X94214285Y-103741904D01*
X94261904Y-103837142D01*
X94309523Y-103884761D01*
X94404761Y-103932380D01*
X94595238Y-103932380D01*
X94690476Y-103884761D01*
X94738095Y-103837142D01*
X94785714Y-103741904D01*
X94785714Y-103551428D01*
X94738095Y-103456190D01*
X94690476Y-103408571D01*
X94595238Y-103360952D01*
X177047142Y-123297142D02*
X176999523Y-123344761D01*
X176856666Y-123392380D01*
X176761428Y-123392380D01*
X176618571Y-123344761D01*
X176523333Y-123249523D01*
X176475714Y-123154285D01*
X176428095Y-122963809D01*
X176428095Y-122820952D01*
X176475714Y-122630476D01*
X176523333Y-122535238D01*
X176618571Y-122440000D01*
X176761428Y-122392380D01*
X176856666Y-122392380D01*
X176999523Y-122440000D01*
X177047142Y-122487619D01*
X177999523Y-123392380D02*
X177428095Y-123392380D01*
X177713809Y-123392380D02*
X177713809Y-122392380D01*
X177618571Y-122535238D01*
X177523333Y-122630476D01*
X177428095Y-122678095D01*
X178951904Y-123392380D02*
X178380476Y-123392380D01*
X178666190Y-123392380D02*
X178666190Y-122392380D01*
X178570952Y-122535238D01*
X178475714Y-122630476D01*
X178380476Y-122678095D01*
X88123327Y-105697140D02*
X88075708Y-105744759D01*
X87932851Y-105792378D01*
X87837613Y-105792378D01*
X87694755Y-105744759D01*
X87599517Y-105649521D01*
X87551898Y-105554283D01*
X87504279Y-105363807D01*
X87504279Y-105220950D01*
X87551898Y-105030474D01*
X87599517Y-104935236D01*
X87694755Y-104839998D01*
X87837613Y-104792378D01*
X87932851Y-104792378D01*
X88075708Y-104839998D01*
X88123327Y-104887617D01*
X88980470Y-104792378D02*
X88789994Y-104792378D01*
X88694755Y-104839998D01*
X88647136Y-104887617D01*
X88551898Y-105030474D01*
X88504279Y-105220950D01*
X88504279Y-105601902D01*
X88551898Y-105697140D01*
X88599517Y-105744759D01*
X88694755Y-105792378D01*
X88885232Y-105792378D01*
X88980470Y-105744759D01*
X89028089Y-105697140D01*
X89075708Y-105601902D01*
X89075708Y-105363807D01*
X89028089Y-105268569D01*
X88980470Y-105220950D01*
X88885232Y-105173331D01*
X88694755Y-105173331D01*
X88599517Y-105220950D01*
X88551898Y-105268569D01*
X88504279Y-105363807D01*
X109733333Y-107667142D02*
X109685714Y-107714761D01*
X109542857Y-107762380D01*
X109447619Y-107762380D01*
X109304761Y-107714761D01*
X109209523Y-107619523D01*
X109161904Y-107524285D01*
X109114285Y-107333809D01*
X109114285Y-107190952D01*
X109161904Y-107000476D01*
X109209523Y-106905238D01*
X109304761Y-106810000D01*
X109447619Y-106762380D01*
X109542857Y-106762380D01*
X109685714Y-106810000D01*
X109733333Y-106857619D01*
X110638095Y-106762380D02*
X110161904Y-106762380D01*
X110114285Y-107238571D01*
X110161904Y-107190952D01*
X110257142Y-107143333D01*
X110495238Y-107143333D01*
X110590476Y-107190952D01*
X110638095Y-107238571D01*
X110685714Y-107333809D01*
X110685714Y-107571904D01*
X110638095Y-107667142D01*
X110590476Y-107714761D01*
X110495238Y-107762380D01*
X110257142Y-107762380D01*
X110161904Y-107714761D01*
X110114285Y-107667142D01*
X115573333Y-107877142D02*
X115525714Y-107924761D01*
X115382857Y-107972380D01*
X115287619Y-107972380D01*
X115144761Y-107924761D01*
X115049523Y-107829523D01*
X115001904Y-107734285D01*
X114954285Y-107543809D01*
X114954285Y-107400952D01*
X115001904Y-107210476D01*
X115049523Y-107115238D01*
X115144761Y-107020000D01*
X115287619Y-106972380D01*
X115382857Y-106972380D01*
X115525714Y-107020000D01*
X115573333Y-107067619D01*
X116430476Y-107305714D02*
X116430476Y-107972380D01*
X116192380Y-106924761D02*
X115954285Y-107639047D01*
X116573333Y-107639047D01*
X109713333Y-97797142D02*
X109665714Y-97844761D01*
X109522857Y-97892380D01*
X109427619Y-97892380D01*
X109284761Y-97844761D01*
X109189523Y-97749523D01*
X109141904Y-97654285D01*
X109094285Y-97463809D01*
X109094285Y-97320952D01*
X109141904Y-97130476D01*
X109189523Y-97035238D01*
X109284761Y-96940000D01*
X109427619Y-96892380D01*
X109522857Y-96892380D01*
X109665714Y-96940000D01*
X109713333Y-96987619D01*
X110046666Y-96892380D02*
X110665714Y-96892380D01*
X110332380Y-97273333D01*
X110475238Y-97273333D01*
X110570476Y-97320952D01*
X110618095Y-97368571D01*
X110665714Y-97463809D01*
X110665714Y-97701904D01*
X110618095Y-97797142D01*
X110570476Y-97844761D01*
X110475238Y-97892380D01*
X110189523Y-97892380D01*
X110094285Y-97844761D01*
X110046666Y-97797142D01*
D13*
X98323333Y-105817142D02*
X98275714Y-105864761D01*
X98132857Y-105912380D01*
X98037619Y-105912380D01*
X97894761Y-105864761D01*
X97799523Y-105769523D01*
X97751904Y-105674285D01*
X97704285Y-105483809D01*
X97704285Y-105340952D01*
X97751904Y-105150476D01*
X97799523Y-105055238D01*
X97894761Y-104960000D01*
X98037619Y-104912380D01*
X98132857Y-104912380D01*
X98275714Y-104960000D01*
X98323333Y-105007619D01*
X99275714Y-105912380D02*
X98704285Y-105912380D01*
X98990000Y-105912380D02*
X98990000Y-104912380D01*
X98894761Y-105055238D01*
X98799523Y-105150476D01*
X98704285Y-105198095D01*
D11*
X160118095Y-102922380D02*
X160118095Y-103731904D01*
X160165714Y-103827142D01*
X160213333Y-103874761D01*
X160308571Y-103922380D01*
X160499047Y-103922380D01*
X160594285Y-103874761D01*
X160641904Y-103827142D01*
X160689523Y-103731904D01*
X160689523Y-102922380D01*
X161308571Y-103350952D02*
X161213333Y-103303333D01*
X161165714Y-103255714D01*
X161118095Y-103160476D01*
X161118095Y-103112857D01*
X161165714Y-103017619D01*
X161213333Y-102970000D01*
X161308571Y-102922380D01*
X161499047Y-102922380D01*
X161594285Y-102970000D01*
X161641904Y-103017619D01*
X161689523Y-103112857D01*
X161689523Y-103160476D01*
X161641904Y-103255714D01*
X161594285Y-103303333D01*
X161499047Y-103350952D01*
X161308571Y-103350952D01*
X161213333Y-103398571D01*
X161165714Y-103446190D01*
X161118095Y-103541428D01*
X161118095Y-103731904D01*
X161165714Y-103827142D01*
X161213333Y-103874761D01*
X161308571Y-103922380D01*
X161499047Y-103922380D01*
X161594285Y-103874761D01*
X161641904Y-103827142D01*
X161689523Y-103731904D01*
X161689523Y-103541428D01*
X161641904Y-103446190D01*
X161594285Y-103398571D01*
X161499047Y-103350952D01*
X86048095Y-97922380D02*
X86048095Y-98731904D01*
X86095714Y-98827142D01*
X86143333Y-98874761D01*
X86238571Y-98922380D01*
X86429047Y-98922380D01*
X86524285Y-98874761D01*
X86571904Y-98827142D01*
X86619523Y-98731904D01*
X86619523Y-97922380D01*
X87524285Y-98255714D02*
X87524285Y-98922380D01*
X87286190Y-97874761D02*
X87048095Y-98589047D01*
X87667142Y-98589047D01*
D13*
X97803333Y-101207142D02*
X97755714Y-101254761D01*
X97612857Y-101302380D01*
X97517619Y-101302380D01*
X97374761Y-101254761D01*
X97279523Y-101159523D01*
X97231904Y-101064285D01*
X97184285Y-100873809D01*
X97184285Y-100730952D01*
X97231904Y-100540476D01*
X97279523Y-100445238D01*
X97374761Y-100350000D01*
X97517619Y-100302380D01*
X97612857Y-100302380D01*
X97755714Y-100350000D01*
X97803333Y-100397619D01*
X98184285Y-100397619D02*
X98231904Y-100350000D01*
X98327142Y-100302380D01*
X98565238Y-100302380D01*
X98660476Y-100350000D01*
X98708095Y-100397619D01*
X98755714Y-100492857D01*
X98755714Y-100588095D01*
X98708095Y-100730952D01*
X98136666Y-101302380D01*
X98755714Y-101302380D01*
X108932380Y-101111904D02*
X109741904Y-101111904D01*
X109837142Y-101064285D01*
X109884761Y-101016666D01*
X109932380Y-100921428D01*
X109932380Y-100730952D01*
X109884761Y-100635714D01*
X109837142Y-100588095D01*
X109741904Y-100540476D01*
X108932380Y-100540476D01*
X108932380Y-100159523D02*
X108932380Y-99540476D01*
X109313333Y-99873809D01*
X109313333Y-99730952D01*
X109360952Y-99635714D01*
X109408571Y-99588095D01*
X109503809Y-99540476D01*
X109741904Y-99540476D01*
X109837142Y-99588095D01*
X109884761Y-99635714D01*
X109932380Y-99730952D01*
X109932380Y-100016666D01*
X109884761Y-100111904D01*
X109837142Y-100159523D01*
D11*
X108496011Y-98734372D02*
X108496011Y-98972468D01*
X108257915Y-98877230D02*
X108496011Y-98972468D01*
X108734106Y-98877230D01*
X108353153Y-99162944D02*
X108496011Y-98972468D01*
X108638868Y-99162944D01*
D13*
X109787142Y-102816666D02*
X109834761Y-102864285D01*
X109882380Y-103007142D01*
X109882380Y-103102380D01*
X109834761Y-103245238D01*
X109739523Y-103340476D01*
X109644285Y-103388095D01*
X109453809Y-103435714D01*
X109310952Y-103435714D01*
X109120476Y-103388095D01*
X109025238Y-103340476D01*
X108930000Y-103245238D01*
X108882380Y-103102380D01*
X108882380Y-103007142D01*
X108930000Y-102864285D01*
X108977619Y-102816666D01*
X108882380Y-102483333D02*
X108882380Y-101816666D01*
X109882380Y-102245238D01*
X106897142Y-97282380D02*
X106563809Y-96806190D01*
X106325714Y-97282380D02*
X106325714Y-96282380D01*
X106706666Y-96282380D01*
X106801904Y-96330000D01*
X106849523Y-96377619D01*
X106897142Y-96472857D01*
X106897142Y-96615714D01*
X106849523Y-96710952D01*
X106801904Y-96758571D01*
X106706666Y-96806190D01*
X106325714Y-96806190D01*
X107849523Y-97282380D02*
X107278095Y-97282380D01*
X107563809Y-97282380D02*
X107563809Y-96282380D01*
X107468571Y-96425238D01*
X107373333Y-96520476D01*
X107278095Y-96568095D01*
X108706666Y-96615714D02*
X108706666Y-97282380D01*
X108468571Y-96234761D02*
X108230476Y-96949047D01*
X108849523Y-96949047D01*
D11*
X95247142Y-105402380D02*
X94913809Y-104926190D01*
X94675714Y-105402380D02*
X94675714Y-104402380D01*
X95056666Y-104402380D01*
X95151904Y-104450000D01*
X95199523Y-104497619D01*
X95247142Y-104592857D01*
X95247142Y-104735714D01*
X95199523Y-104830952D01*
X95151904Y-104878571D01*
X95056666Y-104926190D01*
X94675714Y-104926190D01*
X96199523Y-105402380D02*
X95628095Y-105402380D01*
X95913809Y-105402380D02*
X95913809Y-104402380D01*
X95818571Y-104545238D01*
X95723333Y-104640476D01*
X95628095Y-104688095D01*
X96818571Y-104402380D02*
X96913809Y-104402380D01*
X97009047Y-104450000D01*
X97056666Y-104497619D01*
X97104285Y-104592857D01*
X97151904Y-104783333D01*
X97151904Y-105021428D01*
X97104285Y-105211904D01*
X97056666Y-105307142D01*
X97009047Y-105354761D01*
X96913809Y-105402380D01*
X96818571Y-105402380D01*
X96723333Y-105354761D01*
X96675714Y-105307142D01*
X96628095Y-105211904D01*
X96580476Y-105021428D01*
X96580476Y-104783333D01*
X96628095Y-104592857D01*
X96675714Y-104497619D01*
X96723333Y-104450000D01*
X96818571Y-104402380D01*
X101678095Y-101292380D02*
X101678095Y-102101904D01*
X101725714Y-102197142D01*
X101773333Y-102244761D01*
X101868571Y-102292380D01*
X102059047Y-102292380D01*
X102154285Y-102244761D01*
X102201904Y-102197142D01*
X102249523Y-102101904D01*
X102249523Y-101292380D01*
X103249523Y-102292380D02*
X102678095Y-102292380D01*
X102963809Y-102292380D02*
X102963809Y-101292380D01*
X102868571Y-101435238D01*
X102773333Y-101530476D01*
X102678095Y-101578095D01*
X104432380Y-100210000D02*
X104670476Y-100210000D01*
X104575238Y-100448095D02*
X104670476Y-100210000D01*
X104575238Y-99971904D01*
X104860952Y-100352857D02*
X104670476Y-100210000D01*
X104860952Y-100067142D01*
X104442380Y-100210000D02*
X104680476Y-100210000D01*
X104585238Y-100448095D02*
X104680476Y-100210000D01*
X104585238Y-99971904D01*
X104870952Y-100352857D02*
X104680476Y-100210000D01*
X104870952Y-100067142D01*
X111708095Y-101442380D02*
X111708095Y-102251904D01*
X111755714Y-102347142D01*
X111803333Y-102394761D01*
X111898571Y-102442380D01*
X112089047Y-102442380D01*
X112184285Y-102394761D01*
X112231904Y-102347142D01*
X112279523Y-102251904D01*
X112279523Y-101442380D01*
X112708095Y-101537619D02*
X112755714Y-101490000D01*
X112850952Y-101442380D01*
X113089047Y-101442380D01*
X113184285Y-101490000D01*
X113231904Y-101537619D01*
X113279523Y-101632857D01*
X113279523Y-101728095D01*
X113231904Y-101870952D01*
X112660476Y-102442380D01*
X113279523Y-102442380D01*
X106893146Y-106036380D02*
X106559813Y-105560190D01*
X106321718Y-106036380D02*
X106321718Y-105036380D01*
X106702670Y-105036380D01*
X106797908Y-105084000D01*
X106845527Y-105131619D01*
X106893146Y-105226857D01*
X106893146Y-105369714D01*
X106845527Y-105464952D01*
X106797908Y-105512571D01*
X106702670Y-105560190D01*
X106321718Y-105560190D01*
X107845527Y-106036380D02*
X107274099Y-106036380D01*
X107559813Y-106036380D02*
X107559813Y-105036380D01*
X107464575Y-105179238D01*
X107369337Y-105274476D01*
X107274099Y-105322095D01*
X108797908Y-106036380D02*
X108226480Y-106036380D01*
X108512194Y-106036380D02*
X108512194Y-105036380D01*
X108416956Y-105179238D01*
X108321718Y-105274476D01*
X108226480Y-105322095D01*
D13*
X89883148Y-105812367D02*
X89549815Y-105336177D01*
X89311720Y-105812367D02*
X89311720Y-104812367D01*
X89692672Y-104812367D01*
X89787910Y-104859987D01*
X89835529Y-104907606D01*
X89883148Y-105002844D01*
X89883148Y-105145701D01*
X89835529Y-105240939D01*
X89787910Y-105288558D01*
X89692672Y-105336177D01*
X89311720Y-105336177D01*
X90835529Y-105812367D02*
X90264101Y-105812367D01*
X90549815Y-105812367D02*
X90549815Y-104812367D01*
X90454577Y-104955225D01*
X90359339Y-105050463D01*
X90264101Y-105098082D01*
X91168863Y-104812367D02*
X91787910Y-104812367D01*
X91454577Y-105193320D01*
X91597434Y-105193320D01*
X91692672Y-105240939D01*
X91740291Y-105288558D01*
X91787910Y-105383796D01*
X91787910Y-105621891D01*
X91740291Y-105717129D01*
X91692672Y-105764748D01*
X91597434Y-105812367D01*
X91311720Y-105812367D01*
X91216482Y-105764748D01*
X91168863Y-105717129D01*
D11*
X159917142Y-98802380D02*
X159583809Y-98326190D01*
X159345714Y-98802380D02*
X159345714Y-97802380D01*
X159726666Y-97802380D01*
X159821904Y-97850000D01*
X159869523Y-97897619D01*
X159917142Y-97992857D01*
X159917142Y-98135714D01*
X159869523Y-98230952D01*
X159821904Y-98278571D01*
X159726666Y-98326190D01*
X159345714Y-98326190D01*
X160869523Y-98802380D02*
X160298095Y-98802380D01*
X160583809Y-98802380D02*
X160583809Y-97802380D01*
X160488571Y-97945238D01*
X160393333Y-98040476D01*
X160298095Y-98088095D01*
X161202857Y-97802380D02*
X161869523Y-97802380D01*
X161440952Y-98802380D01*
X163507142Y-98842380D02*
X163173809Y-98366190D01*
X162935714Y-98842380D02*
X162935714Y-97842380D01*
X163316666Y-97842380D01*
X163411904Y-97890000D01*
X163459523Y-97937619D01*
X163507142Y-98032857D01*
X163507142Y-98175714D01*
X163459523Y-98270952D01*
X163411904Y-98318571D01*
X163316666Y-98366190D01*
X162935714Y-98366190D01*
X164459523Y-98842380D02*
X163888095Y-98842380D01*
X164173809Y-98842380D02*
X164173809Y-97842380D01*
X164078571Y-97985238D01*
X163983333Y-98080476D01*
X163888095Y-98128095D01*
X165030952Y-98270952D02*
X164935714Y-98223333D01*
X164888095Y-98175714D01*
X164840476Y-98080476D01*
X164840476Y-98032857D01*
X164888095Y-97937619D01*
X164935714Y-97890000D01*
X165030952Y-97842380D01*
X165221428Y-97842380D01*
X165316666Y-97890000D01*
X165364285Y-97937619D01*
X165411904Y-98032857D01*
X165411904Y-98080476D01*
X165364285Y-98175714D01*
X165316666Y-98223333D01*
X165221428Y-98270952D01*
X165030952Y-98270952D01*
X164935714Y-98318571D01*
X164888095Y-98366190D01*
X164840476Y-98461428D01*
X164840476Y-98651904D01*
X164888095Y-98747142D01*
X164935714Y-98794761D01*
X165030952Y-98842380D01*
X165221428Y-98842380D01*
X165316666Y-98794761D01*
X165364285Y-98747142D01*
X165411904Y-98651904D01*
X165411904Y-98461428D01*
X165364285Y-98366190D01*
X165316666Y-98318571D01*
X165221428Y-98270952D01*
X165658095Y-112032380D02*
X165658095Y-112841904D01*
X165705714Y-112937142D01*
X165753333Y-112984761D01*
X165848571Y-113032380D01*
X166039047Y-113032380D01*
X166134285Y-112984761D01*
X166181904Y-112937142D01*
X166229523Y-112841904D01*
X166229523Y-112032380D01*
X166753333Y-113032380D02*
X166943809Y-113032380D01*
X167039047Y-112984761D01*
X167086666Y-112937142D01*
X167181904Y-112794285D01*
X167229523Y-112603809D01*
X167229523Y-112222857D01*
X167181904Y-112127619D01*
X167134285Y-112080000D01*
X167039047Y-112032380D01*
X166848571Y-112032380D01*
X166753333Y-112080000D01*
X166705714Y-112127619D01*
X166658095Y-112222857D01*
X166658095Y-112460952D01*
X166705714Y-112556190D01*
X166753333Y-112603809D01*
X166848571Y-112651428D01*
X167039047Y-112651428D01*
X167134285Y-112603809D01*
X167181904Y-112556190D01*
X167229523Y-112460952D01*
X164308095Y-122202380D02*
X164308095Y-123011904D01*
X164355714Y-123107142D01*
X164403333Y-123154761D01*
X164498571Y-123202380D01*
X164689047Y-123202380D01*
X164784285Y-123154761D01*
X164831904Y-123107142D01*
X164879523Y-123011904D01*
X164879523Y-122202380D01*
X165260476Y-122202380D02*
X165927142Y-122202380D01*
X165498571Y-123202380D01*
X167060000Y-121602380D02*
X167060000Y-121840476D01*
X166821904Y-121745238D02*
X167060000Y-121840476D01*
X167298095Y-121745238D01*
X166917142Y-122030952D02*
X167060000Y-121840476D01*
X167202857Y-122030952D01*
X167050000Y-121602380D02*
X167050000Y-121840476D01*
X166811904Y-121745238D02*
X167050000Y-121840476D01*
X167288095Y-121745238D01*
X166907142Y-122030952D02*
X167050000Y-121840476D01*
X167192857Y-122030952D01*
X119807142Y-96497142D02*
X119759523Y-96544761D01*
X119616666Y-96592380D01*
X119521428Y-96592380D01*
X119378571Y-96544761D01*
X119283333Y-96449523D01*
X119235714Y-96354285D01*
X119188095Y-96163809D01*
X119188095Y-96020952D01*
X119235714Y-95830476D01*
X119283333Y-95735238D01*
X119378571Y-95640000D01*
X119521428Y-95592380D01*
X119616666Y-95592380D01*
X119759523Y-95640000D01*
X119807142Y-95687619D01*
X120188095Y-95687619D02*
X120235714Y-95640000D01*
X120330952Y-95592380D01*
X120569047Y-95592380D01*
X120664285Y-95640000D01*
X120711904Y-95687619D01*
X120759523Y-95782857D01*
X120759523Y-95878095D01*
X120711904Y-96020952D01*
X120140476Y-96592380D01*
X120759523Y-96592380D01*
X121616666Y-95592380D02*
X121426190Y-95592380D01*
X121330952Y-95640000D01*
X121283333Y-95687619D01*
X121188095Y-95830476D01*
X121140476Y-96020952D01*
X121140476Y-96401904D01*
X121188095Y-96497142D01*
X121235714Y-96544761D01*
X121330952Y-96592380D01*
X121521428Y-96592380D01*
X121616666Y-96544761D01*
X121664285Y-96497142D01*
X121711904Y-96401904D01*
X121711904Y-96163809D01*
X121664285Y-96068571D01*
X121616666Y-96020952D01*
X121521428Y-95973333D01*
X121330952Y-95973333D01*
X121235714Y-96020952D01*
X121188095Y-96068571D01*
X121140476Y-96163809D01*
X198209761Y-94847619D02*
X198114523Y-94800000D01*
X198019285Y-94704761D01*
X197876428Y-94561904D01*
X197781190Y-94514285D01*
X197685952Y-94514285D01*
X197733571Y-94752380D02*
X197638333Y-94704761D01*
X197543095Y-94609523D01*
X197495476Y-94419047D01*
X197495476Y-94085714D01*
X197543095Y-93895238D01*
X197638333Y-93800000D01*
X197733571Y-93752380D01*
X197924047Y-93752380D01*
X198019285Y-93800000D01*
X198114523Y-93895238D01*
X198162142Y-94085714D01*
X198162142Y-94419047D01*
X198114523Y-94609523D01*
X198019285Y-94704761D01*
X197924047Y-94752380D01*
X197733571Y-94752380D01*
X199066904Y-93752380D02*
X198590714Y-93752380D01*
X198543095Y-94228571D01*
X198590714Y-94180952D01*
X198685952Y-94133333D01*
X198924047Y-94133333D01*
X199019285Y-94180952D01*
X199066904Y-94228571D01*
X199114523Y-94323809D01*
X199114523Y-94561904D01*
X199066904Y-94657142D01*
X199019285Y-94704761D01*
X198924047Y-94752380D01*
X198685952Y-94752380D01*
X198590714Y-94704761D01*
X198543095Y-94657142D01*
X185314761Y-95707619D02*
X185219523Y-95660000D01*
X185124285Y-95564761D01*
X184981428Y-95421904D01*
X184886190Y-95374285D01*
X184790952Y-95374285D01*
X184838571Y-95612380D02*
X184743333Y-95564761D01*
X184648095Y-95469523D01*
X184600476Y-95279047D01*
X184600476Y-94945714D01*
X184648095Y-94755238D01*
X184743333Y-94660000D01*
X184838571Y-94612380D01*
X185029047Y-94612380D01*
X185124285Y-94660000D01*
X185219523Y-94755238D01*
X185267142Y-94945714D01*
X185267142Y-95279047D01*
X185219523Y-95469523D01*
X185124285Y-95564761D01*
X185029047Y-95612380D01*
X184838571Y-95612380D01*
X185600476Y-94612380D02*
X186219523Y-94612380D01*
X185886190Y-94993333D01*
X186029047Y-94993333D01*
X186124285Y-95040952D01*
X186171904Y-95088571D01*
X186219523Y-95183809D01*
X186219523Y-95421904D01*
X186171904Y-95517142D01*
X186124285Y-95564761D01*
X186029047Y-95612380D01*
X185743333Y-95612380D01*
X185648095Y-95564761D01*
X185600476Y-95517142D01*
X195654761Y-85777619D02*
X195559523Y-85730000D01*
X195464285Y-85634761D01*
X195321428Y-85491904D01*
X195226190Y-85444285D01*
X195130952Y-85444285D01*
X195178571Y-85682380D02*
X195083333Y-85634761D01*
X194988095Y-85539523D01*
X194940476Y-85349047D01*
X194940476Y-85015714D01*
X194988095Y-84825238D01*
X195083333Y-84730000D01*
X195178571Y-84682380D01*
X195369047Y-84682380D01*
X195464285Y-84730000D01*
X195559523Y-84825238D01*
X195607142Y-85015714D01*
X195607142Y-85349047D01*
X195559523Y-85539523D01*
X195464285Y-85634761D01*
X195369047Y-85682380D01*
X195178571Y-85682380D01*
X196559523Y-85682380D02*
X195988095Y-85682380D01*
X196273809Y-85682380D02*
X196273809Y-84682380D01*
X196178571Y-84825238D01*
X196083333Y-84920476D01*
X195988095Y-84968095D01*
X153511904Y-105642380D02*
X153511904Y-106451904D01*
X153559523Y-106547142D01*
X153607142Y-106594761D01*
X153702380Y-106642380D01*
X153892857Y-106642380D01*
X153988095Y-106594761D01*
X154035714Y-106547142D01*
X154083333Y-106451904D01*
X154083333Y-105642380D01*
X155083333Y-106642380D02*
X154511904Y-106642380D01*
X154797619Y-106642380D02*
X154797619Y-105642380D01*
X154702380Y-105785238D01*
X154607142Y-105880476D01*
X154511904Y-105928095D01*
X155702380Y-105642380D02*
X155797619Y-105642380D01*
X155892857Y-105690000D01*
X155940476Y-105737619D01*
X155988095Y-105832857D01*
X156035714Y-106023333D01*
X156035714Y-106261428D01*
X155988095Y-106451904D01*
X155940476Y-106547142D01*
X155892857Y-106594761D01*
X155797619Y-106642380D01*
X155702380Y-106642380D01*
X155607142Y-106594761D01*
X155559523Y-106547142D01*
X155511904Y-106451904D01*
X155464285Y-106261428D01*
X155464285Y-106023333D01*
X155511904Y-105832857D01*
X155559523Y-105737619D01*
X155607142Y-105690000D01*
X155702380Y-105642380D01*
X142197142Y-105887142D02*
X142149523Y-105934761D01*
X142006666Y-105982380D01*
X141911428Y-105982380D01*
X141768571Y-105934761D01*
X141673333Y-105839523D01*
X141625714Y-105744285D01*
X141578095Y-105553809D01*
X141578095Y-105410952D01*
X141625714Y-105220476D01*
X141673333Y-105125238D01*
X141768571Y-105030000D01*
X141911428Y-104982380D01*
X142006666Y-104982380D01*
X142149523Y-105030000D01*
X142197142Y-105077619D01*
X143149523Y-105982380D02*
X142578095Y-105982380D01*
X142863809Y-105982380D02*
X142863809Y-104982380D01*
X142768571Y-105125238D01*
X142673333Y-105220476D01*
X142578095Y-105268095D01*
X144054285Y-104982380D02*
X143578095Y-104982380D01*
X143530476Y-105458571D01*
X143578095Y-105410952D01*
X143673333Y-105363333D01*
X143911428Y-105363333D01*
X144006666Y-105410952D01*
X144054285Y-105458571D01*
X144101904Y-105553809D01*
X144101904Y-105791904D01*
X144054285Y-105887142D01*
X144006666Y-105934761D01*
X143911428Y-105982380D01*
X143673333Y-105982380D01*
X143578095Y-105934761D01*
X143530476Y-105887142D01*
X163407142Y-103752380D02*
X163073809Y-103276190D01*
X162835714Y-103752380D02*
X162835714Y-102752380D01*
X163216666Y-102752380D01*
X163311904Y-102800000D01*
X163359523Y-102847619D01*
X163407142Y-102942857D01*
X163407142Y-103085714D01*
X163359523Y-103180952D01*
X163311904Y-103228571D01*
X163216666Y-103276190D01*
X162835714Y-103276190D01*
X164359523Y-103752380D02*
X163788095Y-103752380D01*
X164073809Y-103752380D02*
X164073809Y-102752380D01*
X163978571Y-102895238D01*
X163883333Y-102990476D01*
X163788095Y-103038095D01*
X164835714Y-103752380D02*
X165026190Y-103752380D01*
X165121428Y-103704761D01*
X165169047Y-103657142D01*
X165264285Y-103514285D01*
X165311904Y-103323809D01*
X165311904Y-102942857D01*
X165264285Y-102847619D01*
X165216666Y-102800000D01*
X165121428Y-102752380D01*
X164930952Y-102752380D01*
X164835714Y-102800000D01*
X164788095Y-102847619D01*
X164740476Y-102942857D01*
X164740476Y-103180952D01*
X164788095Y-103276190D01*
X164835714Y-103323809D01*
X164930952Y-103371428D01*
X165121428Y-103371428D01*
X165216666Y-103323809D01*
X165264285Y-103276190D01*
X165311904Y-103180952D01*
X197933333Y-97367142D02*
X197885714Y-97414761D01*
X197742857Y-97462380D01*
X197647619Y-97462380D01*
X197504761Y-97414761D01*
X197409523Y-97319523D01*
X197361904Y-97224285D01*
X197314285Y-97033809D01*
X197314285Y-96890952D01*
X197361904Y-96700476D01*
X197409523Y-96605238D01*
X197504761Y-96510000D01*
X197647619Y-96462380D01*
X197742857Y-96462380D01*
X197885714Y-96510000D01*
X197933333Y-96557619D01*
X198409523Y-97462380D02*
X198600000Y-97462380D01*
X198695238Y-97414761D01*
X198742857Y-97367142D01*
X198838095Y-97224285D01*
X198885714Y-97033809D01*
X198885714Y-96652857D01*
X198838095Y-96557619D01*
X198790476Y-96510000D01*
X198695238Y-96462380D01*
X198504761Y-96462380D01*
X198409523Y-96510000D01*
X198361904Y-96557619D01*
X198314285Y-96652857D01*
X198314285Y-96890952D01*
X198361904Y-96986190D01*
X198409523Y-97033809D01*
X198504761Y-97081428D01*
X198695238Y-97081428D01*
X198790476Y-97033809D01*
X198838095Y-96986190D01*
X198885714Y-96890952D01*
X196143333Y-90652380D02*
X195810000Y-90176190D01*
X195571904Y-90652380D02*
X195571904Y-89652380D01*
X195952857Y-89652380D01*
X196048095Y-89700000D01*
X196095714Y-89747619D01*
X196143333Y-89842857D01*
X196143333Y-89985714D01*
X196095714Y-90080952D01*
X196048095Y-90128571D01*
X195952857Y-90176190D01*
X195571904Y-90176190D01*
X196619523Y-90652380D02*
X196810000Y-90652380D01*
X196905238Y-90604761D01*
X196952857Y-90557142D01*
X197048095Y-90414285D01*
X197095714Y-90223809D01*
X197095714Y-89842857D01*
X197048095Y-89747619D01*
X197000476Y-89700000D01*
X196905238Y-89652380D01*
X196714761Y-89652380D01*
X196619523Y-89700000D01*
X196571904Y-89747619D01*
X196524285Y-89842857D01*
X196524285Y-90080952D01*
X196571904Y-90176190D01*
X196619523Y-90223809D01*
X196714761Y-90271428D01*
X196905238Y-90271428D01*
X197000476Y-90223809D01*
X197048095Y-90176190D01*
X197095714Y-90080952D01*
X183123333Y-92272380D02*
X182790000Y-91796190D01*
X182551904Y-92272380D02*
X182551904Y-91272380D01*
X182932857Y-91272380D01*
X183028095Y-91320000D01*
X183075714Y-91367619D01*
X183123333Y-91462857D01*
X183123333Y-91605714D01*
X183075714Y-91700952D01*
X183028095Y-91748571D01*
X182932857Y-91796190D01*
X182551904Y-91796190D01*
X183694761Y-91700952D02*
X183599523Y-91653333D01*
X183551904Y-91605714D01*
X183504285Y-91510476D01*
X183504285Y-91462857D01*
X183551904Y-91367619D01*
X183599523Y-91320000D01*
X183694761Y-91272380D01*
X183885238Y-91272380D01*
X183980476Y-91320000D01*
X184028095Y-91367619D01*
X184075714Y-91462857D01*
X184075714Y-91510476D01*
X184028095Y-91605714D01*
X183980476Y-91653333D01*
X183885238Y-91700952D01*
X183694761Y-91700952D01*
X183599523Y-91748571D01*
X183551904Y-91796190D01*
X183504285Y-91891428D01*
X183504285Y-92081904D01*
X183551904Y-92177142D01*
X183599523Y-92224761D01*
X183694761Y-92272380D01*
X183885238Y-92272380D01*
X183980476Y-92224761D01*
X184028095Y-92177142D01*
X184075714Y-92081904D01*
X184075714Y-91891428D01*
X184028095Y-91796190D01*
X183980476Y-91748571D01*
X183885238Y-91700952D01*
X140813333Y-97192380D02*
X140480000Y-96716190D01*
X140241904Y-97192380D02*
X140241904Y-96192380D01*
X140622857Y-96192380D01*
X140718095Y-96240000D01*
X140765714Y-96287619D01*
X140813333Y-96382857D01*
X140813333Y-96525714D01*
X140765714Y-96620952D01*
X140718095Y-96668571D01*
X140622857Y-96716190D01*
X140241904Y-96716190D01*
X141718095Y-96192380D02*
X141241904Y-96192380D01*
X141194285Y-96668571D01*
X141241904Y-96620952D01*
X141337142Y-96573333D01*
X141575238Y-96573333D01*
X141670476Y-96620952D01*
X141718095Y-96668571D01*
X141765714Y-96763809D01*
X141765714Y-97001904D01*
X141718095Y-97097142D01*
X141670476Y-97144761D01*
X141575238Y-97192380D01*
X141337142Y-97192380D01*
X141241904Y-97144761D01*
X141194285Y-97097142D01*
X185573333Y-81162380D02*
X185240000Y-80686190D01*
X185001904Y-81162380D02*
X185001904Y-80162380D01*
X185382857Y-80162380D01*
X185478095Y-80210000D01*
X185525714Y-80257619D01*
X185573333Y-80352857D01*
X185573333Y-80495714D01*
X185525714Y-80590952D01*
X185478095Y-80638571D01*
X185382857Y-80686190D01*
X185001904Y-80686190D01*
X185906666Y-80162380D02*
X186525714Y-80162380D01*
X186192380Y-80543333D01*
X186335238Y-80543333D01*
X186430476Y-80590952D01*
X186478095Y-80638571D01*
X186525714Y-80733809D01*
X186525714Y-80971904D01*
X186478095Y-81067142D01*
X186430476Y-81114761D01*
X186335238Y-81162380D01*
X186049523Y-81162380D01*
X185954285Y-81114761D01*
X185906666Y-81067142D01*
X185723333Y-84212380D02*
X185390000Y-83736190D01*
X185151904Y-84212380D02*
X185151904Y-83212380D01*
X185532857Y-83212380D01*
X185628095Y-83260000D01*
X185675714Y-83307619D01*
X185723333Y-83402857D01*
X185723333Y-83545714D01*
X185675714Y-83640952D01*
X185628095Y-83688571D01*
X185532857Y-83736190D01*
X185151904Y-83736190D01*
X186580476Y-83545714D02*
X186580476Y-84212380D01*
X186342380Y-83164761D02*
X186104285Y-83879047D01*
X186723333Y-83879047D01*
X196073333Y-95952380D02*
X195740000Y-95476190D01*
X195501904Y-95952380D02*
X195501904Y-94952380D01*
X195882857Y-94952380D01*
X195978095Y-95000000D01*
X196025714Y-95047619D01*
X196073333Y-95142857D01*
X196073333Y-95285714D01*
X196025714Y-95380952D01*
X195978095Y-95428571D01*
X195882857Y-95476190D01*
X195501904Y-95476190D01*
X196406666Y-94952380D02*
X197073333Y-94952380D01*
X196644761Y-95952380D01*
X183513333Y-97902380D02*
X183180000Y-97426190D01*
X182941904Y-97902380D02*
X182941904Y-96902380D01*
X183322857Y-96902380D01*
X183418095Y-96950000D01*
X183465714Y-96997619D01*
X183513333Y-97092857D01*
X183513333Y-97235714D01*
X183465714Y-97330952D01*
X183418095Y-97378571D01*
X183322857Y-97426190D01*
X182941904Y-97426190D01*
X184370476Y-96902380D02*
X184180000Y-96902380D01*
X184084761Y-96950000D01*
X184037142Y-96997619D01*
X183941904Y-97140476D01*
X183894285Y-97330952D01*
X183894285Y-97711904D01*
X183941904Y-97807142D01*
X183989523Y-97854761D01*
X184084761Y-97902380D01*
X184275238Y-97902380D01*
X184370476Y-97854761D01*
X184418095Y-97807142D01*
X184465714Y-97711904D01*
X184465714Y-97473809D01*
X184418095Y-97378571D01*
X184370476Y-97330952D01*
X184275238Y-97283333D01*
X184084761Y-97283333D01*
X183989523Y-97330952D01*
X183941904Y-97378571D01*
X183894285Y-97473809D01*
X148663333Y-106532380D02*
X148330000Y-106056190D01*
X148091904Y-106532380D02*
X148091904Y-105532380D01*
X148472857Y-105532380D01*
X148568095Y-105580000D01*
X148615714Y-105627619D01*
X148663333Y-105722857D01*
X148663333Y-105865714D01*
X148615714Y-105960952D01*
X148568095Y-106008571D01*
X148472857Y-106056190D01*
X148091904Y-106056190D01*
X149044285Y-105627619D02*
X149091904Y-105580000D01*
X149187142Y-105532380D01*
X149425238Y-105532380D01*
X149520476Y-105580000D01*
X149568095Y-105627619D01*
X149615714Y-105722857D01*
X149615714Y-105818095D01*
X149568095Y-105960952D01*
X148996666Y-106532380D01*
X149615714Y-106532380D01*
X198323333Y-99342380D02*
X197990000Y-98866190D01*
X197751904Y-99342380D02*
X197751904Y-98342380D01*
X198132857Y-98342380D01*
X198228095Y-98390000D01*
X198275714Y-98437619D01*
X198323333Y-98532857D01*
X198323333Y-98675714D01*
X198275714Y-98770952D01*
X198228095Y-98818571D01*
X198132857Y-98866190D01*
X197751904Y-98866190D01*
X199275714Y-99342380D02*
X198704285Y-99342380D01*
X198990000Y-99342380D02*
X198990000Y-98342380D01*
X198894761Y-98485238D01*
X198799523Y-98580476D01*
X198704285Y-98628095D01*
X184717142Y-87262380D02*
X184383809Y-86786190D01*
X184145714Y-87262380D02*
X184145714Y-86262380D01*
X184526666Y-86262380D01*
X184621904Y-86310000D01*
X184669523Y-86357619D01*
X184717142Y-86452857D01*
X184717142Y-86595714D01*
X184669523Y-86690952D01*
X184621904Y-86738571D01*
X184526666Y-86786190D01*
X184145714Y-86786190D01*
X185669523Y-87262380D02*
X185098095Y-87262380D01*
X185383809Y-87262380D02*
X185383809Y-86262380D01*
X185288571Y-86405238D01*
X185193333Y-86500476D01*
X185098095Y-86548095D01*
X186526666Y-86262380D02*
X186336190Y-86262380D01*
X186240952Y-86310000D01*
X186193333Y-86357619D01*
X186098095Y-86500476D01*
X186050476Y-86690952D01*
X186050476Y-87071904D01*
X186098095Y-87167142D01*
X186145714Y-87214761D01*
X186240952Y-87262380D01*
X186431428Y-87262380D01*
X186526666Y-87214761D01*
X186574285Y-87167142D01*
X186621904Y-87071904D01*
X186621904Y-86833809D01*
X186574285Y-86738571D01*
X186526666Y-86690952D01*
X186431428Y-86643333D01*
X186240952Y-86643333D01*
X186145714Y-86690952D01*
X186098095Y-86738571D01*
X186050476Y-86833809D01*
X147577142Y-113597142D02*
X147529523Y-113644761D01*
X147386666Y-113692380D01*
X147291428Y-113692380D01*
X147148571Y-113644761D01*
X147053333Y-113549523D01*
X147005714Y-113454285D01*
X146958095Y-113263809D01*
X146958095Y-113120952D01*
X147005714Y-112930476D01*
X147053333Y-112835238D01*
X147148571Y-112740000D01*
X147291428Y-112692380D01*
X147386666Y-112692380D01*
X147529523Y-112740000D01*
X147577142Y-112787619D01*
X148529523Y-113692380D02*
X147958095Y-113692380D01*
X148243809Y-113692380D02*
X148243809Y-112692380D01*
X148148571Y-112835238D01*
X148053333Y-112930476D01*
X147958095Y-112978095D01*
X149148571Y-112692380D02*
X149243809Y-112692380D01*
X149339047Y-112740000D01*
X149386666Y-112787619D01*
X149434285Y-112882857D01*
X149481904Y-113073333D01*
X149481904Y-113311428D01*
X149434285Y-113501904D01*
X149386666Y-113597142D01*
X149339047Y-113644761D01*
X149243809Y-113692380D01*
X149148571Y-113692380D01*
X149053333Y-113644761D01*
X149005714Y-113597142D01*
X148958095Y-113501904D01*
X148910476Y-113311428D01*
X148910476Y-113073333D01*
X148958095Y-112882857D01*
X149005714Y-112787619D01*
X149053333Y-112740000D01*
X149148571Y-112692380D01*
X174587142Y-108647142D02*
X174539523Y-108694761D01*
X174396666Y-108742380D01*
X174301428Y-108742380D01*
X174158571Y-108694761D01*
X174063333Y-108599523D01*
X174015714Y-108504285D01*
X173968095Y-108313809D01*
X173968095Y-108170952D01*
X174015714Y-107980476D01*
X174063333Y-107885238D01*
X174158571Y-107790000D01*
X174301428Y-107742380D01*
X174396666Y-107742380D01*
X174539523Y-107790000D01*
X174587142Y-107837619D01*
X174968095Y-107837619D02*
X175015714Y-107790000D01*
X175110952Y-107742380D01*
X175349047Y-107742380D01*
X175444285Y-107790000D01*
X175491904Y-107837619D01*
X175539523Y-107932857D01*
X175539523Y-108028095D01*
X175491904Y-108170952D01*
X174920476Y-108742380D01*
X175539523Y-108742380D01*
X176110952Y-108170952D02*
X176015714Y-108123333D01*
X175968095Y-108075714D01*
X175920476Y-107980476D01*
X175920476Y-107932857D01*
X175968095Y-107837619D01*
X176015714Y-107790000D01*
X176110952Y-107742380D01*
X176301428Y-107742380D01*
X176396666Y-107790000D01*
X176444285Y-107837619D01*
X176491904Y-107932857D01*
X176491904Y-107980476D01*
X176444285Y-108075714D01*
X176396666Y-108123333D01*
X176301428Y-108170952D01*
X176110952Y-108170952D01*
X176015714Y-108218571D01*
X175968095Y-108266190D01*
X175920476Y-108361428D01*
X175920476Y-108551904D01*
X175968095Y-108647142D01*
X176015714Y-108694761D01*
X176110952Y-108742380D01*
X176301428Y-108742380D01*
X176396666Y-108694761D01*
X176444285Y-108647142D01*
X176491904Y-108551904D01*
X176491904Y-108361428D01*
X176444285Y-108266190D01*
X176396666Y-108218571D01*
X176301428Y-108170952D01*
X181057142Y-80607142D02*
X181009523Y-80654761D01*
X180866666Y-80702380D01*
X180771428Y-80702380D01*
X180628571Y-80654761D01*
X180533333Y-80559523D01*
X180485714Y-80464285D01*
X180438095Y-80273809D01*
X180438095Y-80130952D01*
X180485714Y-79940476D01*
X180533333Y-79845238D01*
X180628571Y-79750000D01*
X180771428Y-79702380D01*
X180866666Y-79702380D01*
X181009523Y-79750000D01*
X181057142Y-79797619D01*
X181390476Y-79702380D02*
X182009523Y-79702380D01*
X181676190Y-80083333D01*
X181819047Y-80083333D01*
X181914285Y-80130952D01*
X181961904Y-80178571D01*
X182009523Y-80273809D01*
X182009523Y-80511904D01*
X181961904Y-80607142D01*
X181914285Y-80654761D01*
X181819047Y-80702380D01*
X181533333Y-80702380D01*
X181438095Y-80654761D01*
X181390476Y-80607142D01*
X182390476Y-79797619D02*
X182438095Y-79750000D01*
X182533333Y-79702380D01*
X182771428Y-79702380D01*
X182866666Y-79750000D01*
X182914285Y-79797619D01*
X182961904Y-79892857D01*
X182961904Y-79988095D01*
X182914285Y-80130952D01*
X182342857Y-80702380D01*
X182961904Y-80702380D01*
X204006666Y-74882380D02*
X204006666Y-75596666D01*
X203959047Y-75739523D01*
X203863809Y-75834761D01*
X203720952Y-75882380D01*
X203625714Y-75882380D01*
X204435238Y-74977619D02*
X204482857Y-74930000D01*
X204578095Y-74882380D01*
X204816190Y-74882380D01*
X204911428Y-74930000D01*
X204959047Y-74977619D01*
X205006666Y-75072857D01*
X205006666Y-75168095D01*
X204959047Y-75310952D01*
X204387619Y-75882380D01*
X205006666Y-75882380D01*
X105678380Y-94194285D02*
X104678380Y-94194285D01*
X104678380Y-93956190D01*
X104726000Y-93813333D01*
X104821238Y-93718095D01*
X104916476Y-93670476D01*
X105106952Y-93622857D01*
X105249809Y-93622857D01*
X105440285Y-93670476D01*
X105535523Y-93718095D01*
X105630761Y-93813333D01*
X105678380Y-93956190D01*
X105678380Y-94194285D01*
X104678380Y-92718095D02*
X104678380Y-93194285D01*
X105154571Y-93241904D01*
X105106952Y-93194285D01*
X105059333Y-93099047D01*
X105059333Y-92860952D01*
X105106952Y-92765714D01*
X105154571Y-92718095D01*
X105249809Y-92670476D01*
X105487904Y-92670476D01*
X105583142Y-92718095D01*
X105630761Y-92765714D01*
X105678380Y-92860952D01*
X105678380Y-93099047D01*
X105630761Y-93194285D01*
X105583142Y-93241904D01*
X105154571Y-91908571D02*
X105202190Y-91765714D01*
X105249809Y-91718095D01*
X105345047Y-91670476D01*
X105487904Y-91670476D01*
X105583142Y-91718095D01*
X105630761Y-91765714D01*
X105678380Y-91860952D01*
X105678380Y-92241904D01*
X104678380Y-92241904D01*
X104678380Y-91908571D01*
X104726000Y-91813333D01*
X104773619Y-91765714D01*
X104868857Y-91718095D01*
X104964095Y-91718095D01*
X105059333Y-91765714D01*
X105106952Y-91813333D01*
X105154571Y-91908571D01*
X105154571Y-92241904D01*
X105678380Y-90718095D02*
X105678380Y-91289523D01*
X105678380Y-91003809D02*
X104678380Y-91003809D01*
X104821238Y-91099047D01*
X104916476Y-91194285D01*
X104964095Y-91289523D01*
X179827142Y-121262380D02*
X179493809Y-120786190D01*
X179255714Y-121262380D02*
X179255714Y-120262380D01*
X179636666Y-120262380D01*
X179731904Y-120310000D01*
X179779523Y-120357619D01*
X179827142Y-120452857D01*
X179827142Y-120595714D01*
X179779523Y-120690952D01*
X179731904Y-120738571D01*
X179636666Y-120786190D01*
X179255714Y-120786190D01*
X180208095Y-120357619D02*
X180255714Y-120310000D01*
X180350952Y-120262380D01*
X180589047Y-120262380D01*
X180684285Y-120310000D01*
X180731904Y-120357619D01*
X180779523Y-120452857D01*
X180779523Y-120548095D01*
X180731904Y-120690952D01*
X180160476Y-121262380D01*
X180779523Y-121262380D01*
X181112857Y-120262380D02*
X181731904Y-120262380D01*
X181398571Y-120643333D01*
X181541428Y-120643333D01*
X181636666Y-120690952D01*
X181684285Y-120738571D01*
X181731904Y-120833809D01*
X181731904Y-121071904D01*
X181684285Y-121167142D01*
X181636666Y-121214761D01*
X181541428Y-121262380D01*
X181255714Y-121262380D01*
X181160476Y-121214761D01*
X181112857Y-121167142D01*
X132688380Y-113770476D02*
X131688380Y-113770476D01*
X131688380Y-113532380D01*
X131736000Y-113389523D01*
X131831238Y-113294285D01*
X131926476Y-113246666D01*
X132116952Y-113199047D01*
X132259809Y-113199047D01*
X132450285Y-113246666D01*
X132545523Y-113294285D01*
X132640761Y-113389523D01*
X132688380Y-113532380D01*
X132688380Y-113770476D01*
X132688380Y-112246666D02*
X132688380Y-112818095D01*
X132688380Y-112532380D02*
X131688380Y-112532380D01*
X131831238Y-112627619D01*
X131926476Y-112722857D01*
X131974095Y-112818095D01*
X131688380Y-111627619D02*
X131688380Y-111532380D01*
X131736000Y-111437142D01*
X131783619Y-111389523D01*
X131878857Y-111341904D01*
X132069333Y-111294285D01*
X132307428Y-111294285D01*
X132497904Y-111341904D01*
X132593142Y-111389523D01*
X132640761Y-111437142D01*
X132688380Y-111532380D01*
X132688380Y-111627619D01*
X132640761Y-111722857D01*
X132593142Y-111770476D01*
X132497904Y-111818095D01*
X132307428Y-111865714D01*
X132069333Y-111865714D01*
X131878857Y-111818095D01*
X131783619Y-111770476D01*
X131736000Y-111722857D01*
X131688380Y-111627619D01*
X132164571Y-110532380D02*
X132212190Y-110389523D01*
X132259809Y-110341904D01*
X132355047Y-110294285D01*
X132497904Y-110294285D01*
X132593142Y-110341904D01*
X132640761Y-110389523D01*
X132688380Y-110484761D01*
X132688380Y-110865714D01*
X131688380Y-110865714D01*
X131688380Y-110532380D01*
X131736000Y-110437142D01*
X131783619Y-110389523D01*
X131878857Y-110341904D01*
X131974095Y-110341904D01*
X132069333Y-110389523D01*
X132116952Y-110437142D01*
X132164571Y-110532380D01*
X132164571Y-110865714D01*
X132688380Y-109341904D02*
X132688380Y-109913333D01*
X132688380Y-109627619D02*
X131688380Y-109627619D01*
X131831238Y-109722857D01*
X131926476Y-109818095D01*
X131974095Y-109913333D01*
X87628380Y-94054285D02*
X86628380Y-94054285D01*
X86628380Y-93816190D01*
X86676000Y-93673333D01*
X86771238Y-93578095D01*
X86866476Y-93530476D01*
X87056952Y-93482857D01*
X87199809Y-93482857D01*
X87390285Y-93530476D01*
X87485523Y-93578095D01*
X87580761Y-93673333D01*
X87628380Y-93816190D01*
X87628380Y-94054285D01*
X86628380Y-93149523D02*
X86628380Y-92482857D01*
X87628380Y-92911428D01*
X87104571Y-91768571D02*
X87152190Y-91625714D01*
X87199809Y-91578095D01*
X87295047Y-91530476D01*
X87437904Y-91530476D01*
X87533142Y-91578095D01*
X87580761Y-91625714D01*
X87628380Y-91720952D01*
X87628380Y-92101904D01*
X86628380Y-92101904D01*
X86628380Y-91768571D01*
X86676000Y-91673333D01*
X86723619Y-91625714D01*
X86818857Y-91578095D01*
X86914095Y-91578095D01*
X87009333Y-91625714D01*
X87056952Y-91673333D01*
X87104571Y-91768571D01*
X87104571Y-92101904D01*
X87628380Y-90578095D02*
X87628380Y-91149523D01*
X87628380Y-90863809D02*
X86628380Y-90863809D01*
X86771238Y-90959047D01*
X86866476Y-91054285D01*
X86914095Y-91149523D01*
X132608380Y-94154285D02*
X131608380Y-94154285D01*
X131608380Y-93916190D01*
X131656000Y-93773333D01*
X131751238Y-93678095D01*
X131846476Y-93630476D01*
X132036952Y-93582857D01*
X132179809Y-93582857D01*
X132370285Y-93630476D01*
X132465523Y-93678095D01*
X132560761Y-93773333D01*
X132608380Y-93916190D01*
X132608380Y-94154285D01*
X131703619Y-93201904D02*
X131656000Y-93154285D01*
X131608380Y-93059047D01*
X131608380Y-92820952D01*
X131656000Y-92725714D01*
X131703619Y-92678095D01*
X131798857Y-92630476D01*
X131894095Y-92630476D01*
X132036952Y-92678095D01*
X132608380Y-93249523D01*
X132608380Y-92630476D01*
X132084571Y-91868571D02*
X132132190Y-91725714D01*
X132179809Y-91678095D01*
X132275047Y-91630476D01*
X132417904Y-91630476D01*
X132513142Y-91678095D01*
X132560761Y-91725714D01*
X132608380Y-91820952D01*
X132608380Y-92201904D01*
X131608380Y-92201904D01*
X131608380Y-91868571D01*
X131656000Y-91773333D01*
X131703619Y-91725714D01*
X131798857Y-91678095D01*
X131894095Y-91678095D01*
X131989333Y-91725714D01*
X132036952Y-91773333D01*
X132084571Y-91868571D01*
X132084571Y-92201904D01*
X132608380Y-90678095D02*
X132608380Y-91249523D01*
X132608380Y-90963809D02*
X131608380Y-90963809D01*
X131751238Y-91059047D01*
X131846476Y-91154285D01*
X131894095Y-91249523D01*
X129608380Y-113699047D02*
X128608380Y-113699047D01*
X128608380Y-113460952D01*
X128656000Y-113318095D01*
X128751238Y-113222857D01*
X128846476Y-113175238D01*
X129036952Y-113127619D01*
X129179809Y-113127619D01*
X129370285Y-113175238D01*
X129465523Y-113222857D01*
X129560761Y-113318095D01*
X129608380Y-113460952D01*
X129608380Y-113699047D01*
X129608380Y-112175238D02*
X129608380Y-112746666D01*
X129608380Y-112460952D02*
X128608380Y-112460952D01*
X128751238Y-112556190D01*
X128846476Y-112651428D01*
X128894095Y-112746666D01*
X129608380Y-111222857D02*
X129608380Y-111794285D01*
X129608380Y-111508571D02*
X128608380Y-111508571D01*
X128751238Y-111603809D01*
X128846476Y-111699047D01*
X128894095Y-111794285D01*
X129322666Y-110841904D02*
X129322666Y-110365714D01*
X129608380Y-110937142D02*
X128608380Y-110603809D01*
X129608380Y-110270476D01*
X129608380Y-109413333D02*
X129608380Y-109984761D01*
X129608380Y-109699047D02*
X128608380Y-109699047D01*
X128751238Y-109794285D01*
X128846476Y-109889523D01*
X128894095Y-109984761D01*
X138528380Y-93962857D02*
X137528380Y-93962857D01*
X137528380Y-93724761D01*
X137576000Y-93581904D01*
X137671238Y-93486666D01*
X137766476Y-93439047D01*
X137956952Y-93391428D01*
X138099809Y-93391428D01*
X138290285Y-93439047D01*
X138385523Y-93486666D01*
X138480761Y-93581904D01*
X138528380Y-93724761D01*
X138528380Y-93962857D01*
X137623619Y-93010476D02*
X137576000Y-92962857D01*
X137528380Y-92867619D01*
X137528380Y-92629523D01*
X137576000Y-92534285D01*
X137623619Y-92486666D01*
X137718857Y-92439047D01*
X137814095Y-92439047D01*
X137956952Y-92486666D01*
X138528380Y-93058095D01*
X138528380Y-92439047D01*
X138242666Y-92058095D02*
X138242666Y-91581904D01*
X138528380Y-92153333D02*
X137528380Y-91820000D01*
X138528380Y-91486666D01*
X138528380Y-90629523D02*
X138528380Y-91200952D01*
X138528380Y-90915238D02*
X137528380Y-90915238D01*
X137671238Y-91010476D01*
X137766476Y-91105714D01*
X137814095Y-91200952D01*
X141638380Y-94064285D02*
X140638380Y-94064285D01*
X140638380Y-93826190D01*
X140686000Y-93683333D01*
X140781238Y-93588095D01*
X140876476Y-93540476D01*
X141066952Y-93492857D01*
X141209809Y-93492857D01*
X141400285Y-93540476D01*
X141495523Y-93588095D01*
X141590761Y-93683333D01*
X141638380Y-93826190D01*
X141638380Y-94064285D01*
X141638380Y-92540476D02*
X141638380Y-93111904D01*
X141638380Y-92826190D02*
X140638380Y-92826190D01*
X140781238Y-92921428D01*
X140876476Y-93016666D01*
X140924095Y-93111904D01*
X141114571Y-91778571D02*
X141162190Y-91635714D01*
X141209809Y-91588095D01*
X141305047Y-91540476D01*
X141447904Y-91540476D01*
X141543142Y-91588095D01*
X141590761Y-91635714D01*
X141638380Y-91730952D01*
X141638380Y-92111904D01*
X140638380Y-92111904D01*
X140638380Y-91778571D01*
X140686000Y-91683333D01*
X140733619Y-91635714D01*
X140828857Y-91588095D01*
X140924095Y-91588095D01*
X141019333Y-91635714D01*
X141066952Y-91683333D01*
X141114571Y-91778571D01*
X141114571Y-92111904D01*
X141638380Y-90588095D02*
X141638380Y-91159523D01*
X141638380Y-90873809D02*
X140638380Y-90873809D01*
X140781238Y-90969047D01*
X140876476Y-91064285D01*
X140924095Y-91159523D01*
X102608380Y-113639047D02*
X101608380Y-113639047D01*
X101608380Y-113400952D01*
X101656000Y-113258095D01*
X101751238Y-113162857D01*
X101846476Y-113115238D01*
X102036952Y-113067619D01*
X102179809Y-113067619D01*
X102370285Y-113115238D01*
X102465523Y-113162857D01*
X102560761Y-113258095D01*
X102608380Y-113400952D01*
X102608380Y-113639047D01*
X102608380Y-112115238D02*
X102608380Y-112686666D01*
X102608380Y-112400952D02*
X101608380Y-112400952D01*
X101751238Y-112496190D01*
X101846476Y-112591428D01*
X101894095Y-112686666D01*
X101941714Y-111258095D02*
X102608380Y-111258095D01*
X101560761Y-111496190D02*
X102275047Y-111734285D01*
X102275047Y-111115238D01*
X102322666Y-110781904D02*
X102322666Y-110305714D01*
X102608380Y-110877142D02*
X101608380Y-110543809D01*
X102608380Y-110210476D01*
X102608380Y-109353333D02*
X102608380Y-109924761D01*
X102608380Y-109639047D02*
X101608380Y-109639047D01*
X101751238Y-109734285D01*
X101846476Y-109829523D01*
X101894095Y-109924761D01*
X102608380Y-94102857D02*
X101608380Y-94102857D01*
X101608380Y-93864761D01*
X101656000Y-93721904D01*
X101751238Y-93626666D01*
X101846476Y-93579047D01*
X102036952Y-93531428D01*
X102179809Y-93531428D01*
X102370285Y-93579047D01*
X102465523Y-93626666D01*
X102560761Y-93721904D01*
X102608380Y-93864761D01*
X102608380Y-94102857D01*
X101608380Y-92674285D02*
X101608380Y-92864761D01*
X101656000Y-92960000D01*
X101703619Y-93007619D01*
X101846476Y-93102857D01*
X102036952Y-93150476D01*
X102417904Y-93150476D01*
X102513142Y-93102857D01*
X102560761Y-93055238D01*
X102608380Y-92960000D01*
X102608380Y-92769523D01*
X102560761Y-92674285D01*
X102513142Y-92626666D01*
X102417904Y-92579047D01*
X102179809Y-92579047D01*
X102084571Y-92626666D01*
X102036952Y-92674285D01*
X101989333Y-92769523D01*
X101989333Y-92960000D01*
X102036952Y-93055238D01*
X102084571Y-93102857D01*
X102179809Y-93150476D01*
X102322666Y-92198095D02*
X102322666Y-91721904D01*
X102608380Y-92293333D02*
X101608380Y-91960000D01*
X102608380Y-91626666D01*
X102608380Y-90769523D02*
X102608380Y-91340952D01*
X102608380Y-91055238D02*
X101608380Y-91055238D01*
X101751238Y-91150476D01*
X101846476Y-91245714D01*
X101894095Y-91340952D01*
X185397142Y-121302380D02*
X185063809Y-120826190D01*
X184825714Y-121302380D02*
X184825714Y-120302380D01*
X185206666Y-120302380D01*
X185301904Y-120350000D01*
X185349523Y-120397619D01*
X185397142Y-120492857D01*
X185397142Y-120635714D01*
X185349523Y-120730952D01*
X185301904Y-120778571D01*
X185206666Y-120826190D01*
X184825714Y-120826190D01*
X185778095Y-120397619D02*
X185825714Y-120350000D01*
X185920952Y-120302380D01*
X186159047Y-120302380D01*
X186254285Y-120350000D01*
X186301904Y-120397619D01*
X186349523Y-120492857D01*
X186349523Y-120588095D01*
X186301904Y-120730952D01*
X185730476Y-121302380D01*
X186349523Y-121302380D01*
X186730476Y-120397619D02*
X186778095Y-120350000D01*
X186873333Y-120302380D01*
X187111428Y-120302380D01*
X187206666Y-120350000D01*
X187254285Y-120397619D01*
X187301904Y-120492857D01*
X187301904Y-120588095D01*
X187254285Y-120730952D01*
X186682857Y-121302380D01*
X187301904Y-121302380D01*
X123748380Y-113730476D02*
X122748380Y-113730476D01*
X122748380Y-113492380D01*
X122796000Y-113349523D01*
X122891238Y-113254285D01*
X122986476Y-113206666D01*
X123176952Y-113159047D01*
X123319809Y-113159047D01*
X123510285Y-113206666D01*
X123605523Y-113254285D01*
X123700761Y-113349523D01*
X123748380Y-113492380D01*
X123748380Y-113730476D01*
X123748380Y-112206666D02*
X123748380Y-112778095D01*
X123748380Y-112492380D02*
X122748380Y-112492380D01*
X122891238Y-112587619D01*
X122986476Y-112682857D01*
X123034095Y-112778095D01*
X123748380Y-111254285D02*
X123748380Y-111825714D01*
X123748380Y-111540000D02*
X122748380Y-111540000D01*
X122891238Y-111635238D01*
X122986476Y-111730476D01*
X123034095Y-111825714D01*
X123224571Y-110492380D02*
X123272190Y-110349523D01*
X123319809Y-110301904D01*
X123415047Y-110254285D01*
X123557904Y-110254285D01*
X123653142Y-110301904D01*
X123700761Y-110349523D01*
X123748380Y-110444761D01*
X123748380Y-110825714D01*
X122748380Y-110825714D01*
X122748380Y-110492380D01*
X122796000Y-110397142D01*
X122843619Y-110349523D01*
X122938857Y-110301904D01*
X123034095Y-110301904D01*
X123129333Y-110349523D01*
X123176952Y-110397142D01*
X123224571Y-110492380D01*
X123224571Y-110825714D01*
X123748380Y-109301904D02*
X123748380Y-109873333D01*
X123748380Y-109587619D02*
X122748380Y-109587619D01*
X122891238Y-109682857D01*
X122986476Y-109778095D01*
X123034095Y-109873333D01*
X114708380Y-113730476D02*
X113708380Y-113730476D01*
X113708380Y-113492380D01*
X113756000Y-113349523D01*
X113851238Y-113254285D01*
X113946476Y-113206666D01*
X114136952Y-113159047D01*
X114279809Y-113159047D01*
X114470285Y-113206666D01*
X114565523Y-113254285D01*
X114660761Y-113349523D01*
X114708380Y-113492380D01*
X114708380Y-113730476D01*
X114708380Y-112206666D02*
X114708380Y-112778095D01*
X114708380Y-112492380D02*
X113708380Y-112492380D01*
X113851238Y-112587619D01*
X113946476Y-112682857D01*
X113994095Y-112778095D01*
X113803619Y-111825714D02*
X113756000Y-111778095D01*
X113708380Y-111682857D01*
X113708380Y-111444761D01*
X113756000Y-111349523D01*
X113803619Y-111301904D01*
X113898857Y-111254285D01*
X113994095Y-111254285D01*
X114136952Y-111301904D01*
X114708380Y-111873333D01*
X114708380Y-111254285D01*
X114184571Y-110492380D02*
X114232190Y-110349523D01*
X114279809Y-110301904D01*
X114375047Y-110254285D01*
X114517904Y-110254285D01*
X114613142Y-110301904D01*
X114660761Y-110349523D01*
X114708380Y-110444761D01*
X114708380Y-110825714D01*
X113708380Y-110825714D01*
X113708380Y-110492380D01*
X113756000Y-110397142D01*
X113803619Y-110349523D01*
X113898857Y-110301904D01*
X113994095Y-110301904D01*
X114089333Y-110349523D01*
X114136952Y-110397142D01*
X114184571Y-110492380D01*
X114184571Y-110825714D01*
X114708380Y-109301904D02*
X114708380Y-109873333D01*
X114708380Y-109587619D02*
X113708380Y-109587619D01*
X113851238Y-109682857D01*
X113946476Y-109778095D01*
X113994095Y-109873333D01*
X135667142Y-99767142D02*
X135619523Y-99814761D01*
X135476666Y-99862380D01*
X135381428Y-99862380D01*
X135238571Y-99814761D01*
X135143333Y-99719523D01*
X135095714Y-99624285D01*
X135048095Y-99433809D01*
X135048095Y-99290952D01*
X135095714Y-99100476D01*
X135143333Y-99005238D01*
X135238571Y-98910000D01*
X135381428Y-98862380D01*
X135476666Y-98862380D01*
X135619523Y-98910000D01*
X135667142Y-98957619D01*
X136048095Y-98957619D02*
X136095714Y-98910000D01*
X136190952Y-98862380D01*
X136429047Y-98862380D01*
X136524285Y-98910000D01*
X136571904Y-98957619D01*
X136619523Y-99052857D01*
X136619523Y-99148095D01*
X136571904Y-99290952D01*
X136000476Y-99862380D01*
X136619523Y-99862380D01*
X137238571Y-98862380D02*
X137333809Y-98862380D01*
X137429047Y-98910000D01*
X137476666Y-98957619D01*
X137524285Y-99052857D01*
X137571904Y-99243333D01*
X137571904Y-99481428D01*
X137524285Y-99671904D01*
X137476666Y-99767142D01*
X137429047Y-99814761D01*
X137333809Y-99862380D01*
X137238571Y-99862380D01*
X137143333Y-99814761D01*
X137095714Y-99767142D01*
X137048095Y-99671904D01*
X137000476Y-99481428D01*
X137000476Y-99243333D01*
X137048095Y-99052857D01*
X137095714Y-98957619D01*
X137143333Y-98910000D01*
X137238571Y-98862380D01*
X193774948Y-74872172D02*
X193774948Y-75586458D01*
X193727329Y-75729315D01*
X193632091Y-75824553D01*
X193489234Y-75872172D01*
X193393996Y-75872172D01*
X194774948Y-75872172D02*
X194203520Y-75872172D01*
X194489234Y-75872172D02*
X194489234Y-74872172D01*
X194393996Y-75015030D01*
X194298758Y-75110268D01*
X194203520Y-75157887D01*
X143967142Y-100007142D02*
X143919523Y-100054761D01*
X143776666Y-100102380D01*
X143681428Y-100102380D01*
X143538571Y-100054761D01*
X143443333Y-99959523D01*
X143395714Y-99864285D01*
X143348095Y-99673809D01*
X143348095Y-99530952D01*
X143395714Y-99340476D01*
X143443333Y-99245238D01*
X143538571Y-99150000D01*
X143681428Y-99102380D01*
X143776666Y-99102380D01*
X143919523Y-99150000D01*
X143967142Y-99197619D01*
X144919523Y-100102380D02*
X144348095Y-100102380D01*
X144633809Y-100102380D02*
X144633809Y-99102380D01*
X144538571Y-99245238D01*
X144443333Y-99340476D01*
X144348095Y-99388095D01*
X145776666Y-99102380D02*
X145586190Y-99102380D01*
X145490952Y-99150000D01*
X145443333Y-99197619D01*
X145348095Y-99340476D01*
X145300476Y-99530952D01*
X145300476Y-99911904D01*
X145348095Y-100007142D01*
X145395714Y-100054761D01*
X145490952Y-100102380D01*
X145681428Y-100102380D01*
X145776666Y-100054761D01*
X145824285Y-100007142D01*
X145871904Y-99911904D01*
X145871904Y-99673809D01*
X145824285Y-99578571D01*
X145776666Y-99530952D01*
X145681428Y-99483333D01*
X145490952Y-99483333D01*
X145395714Y-99530952D01*
X145348095Y-99578571D01*
X145300476Y-99673809D01*
X162205714Y-128262380D02*
X162205714Y-128976666D01*
X162158095Y-129119523D01*
X162062857Y-129214761D01*
X161920000Y-129262380D01*
X161824761Y-129262380D01*
X163158095Y-129262380D02*
X162681904Y-129262380D01*
X162681904Y-128262380D01*
X163443809Y-129214761D02*
X163586666Y-129262380D01*
X163824761Y-129262380D01*
X163920000Y-129214761D01*
X163967619Y-129167142D01*
X164015238Y-129071904D01*
X164015238Y-128976666D01*
X163967619Y-128881428D01*
X163920000Y-128833809D01*
X163824761Y-128786190D01*
X163634285Y-128738571D01*
X163539047Y-128690952D01*
X163491428Y-128643333D01*
X163443809Y-128548095D01*
X163443809Y-128452857D01*
X163491428Y-128357619D01*
X163539047Y-128310000D01*
X163634285Y-128262380D01*
X163872380Y-128262380D01*
X164015238Y-128310000D01*
X164967619Y-129262380D02*
X164396190Y-129262380D01*
X164681904Y-129262380D02*
X164681904Y-128262380D01*
X164586666Y-128405238D01*
X164491428Y-128500476D01*
X164396190Y-128548095D01*
X84748380Y-113629047D02*
X83748380Y-113629047D01*
X83748380Y-113390952D01*
X83796000Y-113248095D01*
X83891238Y-113152857D01*
X83986476Y-113105238D01*
X84176952Y-113057619D01*
X84319809Y-113057619D01*
X84510285Y-113105238D01*
X84605523Y-113152857D01*
X84700761Y-113248095D01*
X84748380Y-113390952D01*
X84748380Y-113629047D01*
X84748380Y-112105238D02*
X84748380Y-112676666D01*
X84748380Y-112390952D02*
X83748380Y-112390952D01*
X83891238Y-112486190D01*
X83986476Y-112581428D01*
X84034095Y-112676666D01*
X83748380Y-111248095D02*
X83748380Y-111438571D01*
X83796000Y-111533809D01*
X83843619Y-111581428D01*
X83986476Y-111676666D01*
X84176952Y-111724285D01*
X84557904Y-111724285D01*
X84653142Y-111676666D01*
X84700761Y-111629047D01*
X84748380Y-111533809D01*
X84748380Y-111343333D01*
X84700761Y-111248095D01*
X84653142Y-111200476D01*
X84557904Y-111152857D01*
X84319809Y-111152857D01*
X84224571Y-111200476D01*
X84176952Y-111248095D01*
X84129333Y-111343333D01*
X84129333Y-111533809D01*
X84176952Y-111629047D01*
X84224571Y-111676666D01*
X84319809Y-111724285D01*
X84462666Y-110771904D02*
X84462666Y-110295714D01*
X84748380Y-110867142D02*
X83748380Y-110533809D01*
X84748380Y-110200476D01*
X84748380Y-109343333D02*
X84748380Y-109914761D01*
X84748380Y-109629047D02*
X83748380Y-109629047D01*
X83891238Y-109724285D01*
X83986476Y-109819523D01*
X84034095Y-109914761D01*
X120618380Y-113629047D02*
X119618380Y-113629047D01*
X119618380Y-113390952D01*
X119666000Y-113248095D01*
X119761238Y-113152857D01*
X119856476Y-113105238D01*
X120046952Y-113057619D01*
X120189809Y-113057619D01*
X120380285Y-113105238D01*
X120475523Y-113152857D01*
X120570761Y-113248095D01*
X120618380Y-113390952D01*
X120618380Y-113629047D01*
X120618380Y-112105238D02*
X120618380Y-112676666D01*
X120618380Y-112390952D02*
X119618380Y-112390952D01*
X119761238Y-112486190D01*
X119856476Y-112581428D01*
X119904095Y-112676666D01*
X119713619Y-111724285D02*
X119666000Y-111676666D01*
X119618380Y-111581428D01*
X119618380Y-111343333D01*
X119666000Y-111248095D01*
X119713619Y-111200476D01*
X119808857Y-111152857D01*
X119904095Y-111152857D01*
X120046952Y-111200476D01*
X120618380Y-111771904D01*
X120618380Y-111152857D01*
X120332666Y-110771904D02*
X120332666Y-110295714D01*
X120618380Y-110867142D02*
X119618380Y-110533809D01*
X120618380Y-110200476D01*
X120618380Y-109343333D02*
X120618380Y-109914761D01*
X120618380Y-109629047D02*
X119618380Y-109629047D01*
X119761238Y-109724285D01*
X119856476Y-109819523D01*
X119904095Y-109914761D01*
X143347142Y-97162380D02*
X143013809Y-96686190D01*
X142775714Y-97162380D02*
X142775714Y-96162380D01*
X143156666Y-96162380D01*
X143251904Y-96210000D01*
X143299523Y-96257619D01*
X143347142Y-96352857D01*
X143347142Y-96495714D01*
X143299523Y-96590952D01*
X143251904Y-96638571D01*
X143156666Y-96686190D01*
X142775714Y-96686190D01*
X144299523Y-97162380D02*
X143728095Y-97162380D01*
X144013809Y-97162380D02*
X144013809Y-96162380D01*
X143918571Y-96305238D01*
X143823333Y-96400476D01*
X143728095Y-96448095D01*
X145204285Y-96162380D02*
X144728095Y-96162380D01*
X144680476Y-96638571D01*
X144728095Y-96590952D01*
X144823333Y-96543333D01*
X145061428Y-96543333D01*
X145156666Y-96590952D01*
X145204285Y-96638571D01*
X145251904Y-96733809D01*
X145251904Y-96971904D01*
X145204285Y-97067142D01*
X145156666Y-97114761D01*
X145061428Y-97162380D01*
X144823333Y-97162380D01*
X144728095Y-97114761D01*
X144680476Y-97067142D01*
X111618380Y-113569047D02*
X110618380Y-113569047D01*
X110618380Y-113330952D01*
X110666000Y-113188095D01*
X110761238Y-113092857D01*
X110856476Y-113045238D01*
X111046952Y-112997619D01*
X111189809Y-112997619D01*
X111380285Y-113045238D01*
X111475523Y-113092857D01*
X111570761Y-113188095D01*
X111618380Y-113330952D01*
X111618380Y-113569047D01*
X111618380Y-112045238D02*
X111618380Y-112616666D01*
X111618380Y-112330952D02*
X110618380Y-112330952D01*
X110761238Y-112426190D01*
X110856476Y-112521428D01*
X110904095Y-112616666D01*
X110618380Y-111711904D02*
X110618380Y-111092857D01*
X110999333Y-111426190D01*
X110999333Y-111283333D01*
X111046952Y-111188095D01*
X111094571Y-111140476D01*
X111189809Y-111092857D01*
X111427904Y-111092857D01*
X111523142Y-111140476D01*
X111570761Y-111188095D01*
X111618380Y-111283333D01*
X111618380Y-111569047D01*
X111570761Y-111664285D01*
X111523142Y-111711904D01*
X111332666Y-110711904D02*
X111332666Y-110235714D01*
X111618380Y-110807142D02*
X110618380Y-110473809D01*
X111618380Y-110140476D01*
X111618380Y-109283333D02*
X111618380Y-109854761D01*
X111618380Y-109569047D02*
X110618380Y-109569047D01*
X110761238Y-109664285D01*
X110856476Y-109759523D01*
X110904095Y-109854761D01*
X120578380Y-94282857D02*
X119578380Y-94282857D01*
X119578380Y-94044761D01*
X119626000Y-93901904D01*
X119721238Y-93806666D01*
X119816476Y-93759047D01*
X120006952Y-93711428D01*
X120149809Y-93711428D01*
X120340285Y-93759047D01*
X120435523Y-93806666D01*
X120530761Y-93901904D01*
X120578380Y-94044761D01*
X120578380Y-94282857D01*
X119911714Y-92854285D02*
X120578380Y-92854285D01*
X119530761Y-93092380D02*
X120245047Y-93330476D01*
X120245047Y-92711428D01*
X120292666Y-92378095D02*
X120292666Y-91901904D01*
X120578380Y-92473333D02*
X119578380Y-92140000D01*
X120578380Y-91806666D01*
X120578380Y-90949523D02*
X120578380Y-91520952D01*
X120578380Y-91235238D02*
X119578380Y-91235238D01*
X119721238Y-91330476D01*
X119816476Y-91425714D01*
X119864095Y-91520952D01*
X111618380Y-94082857D02*
X110618380Y-94082857D01*
X110618380Y-93844761D01*
X110666000Y-93701904D01*
X110761238Y-93606666D01*
X110856476Y-93559047D01*
X111046952Y-93511428D01*
X111189809Y-93511428D01*
X111380285Y-93559047D01*
X111475523Y-93606666D01*
X111570761Y-93701904D01*
X111618380Y-93844761D01*
X111618380Y-94082857D01*
X110618380Y-92606666D02*
X110618380Y-93082857D01*
X111094571Y-93130476D01*
X111046952Y-93082857D01*
X110999333Y-92987619D01*
X110999333Y-92749523D01*
X111046952Y-92654285D01*
X111094571Y-92606666D01*
X111189809Y-92559047D01*
X111427904Y-92559047D01*
X111523142Y-92606666D01*
X111570761Y-92654285D01*
X111618380Y-92749523D01*
X111618380Y-92987619D01*
X111570761Y-93082857D01*
X111523142Y-93130476D01*
X111332666Y-92178095D02*
X111332666Y-91701904D01*
X111618380Y-92273333D02*
X110618380Y-91940000D01*
X111618380Y-91606666D01*
X111618380Y-90749523D02*
X111618380Y-91320952D01*
X111618380Y-91035238D02*
X110618380Y-91035238D01*
X110761238Y-91130476D01*
X110856476Y-91225714D01*
X110904095Y-91320952D01*
X80658380Y-89754285D02*
X79658380Y-89754285D01*
X79658380Y-89516190D01*
X79706000Y-89373333D01*
X79801238Y-89278095D01*
X79896476Y-89230476D01*
X80086952Y-89182857D01*
X80229809Y-89182857D01*
X80420285Y-89230476D01*
X80515523Y-89278095D01*
X80610761Y-89373333D01*
X80658380Y-89516190D01*
X80658380Y-89754285D01*
X80086952Y-88611428D02*
X80039333Y-88706666D01*
X79991714Y-88754285D01*
X79896476Y-88801904D01*
X79848857Y-88801904D01*
X79753619Y-88754285D01*
X79706000Y-88706666D01*
X79658380Y-88611428D01*
X79658380Y-88420952D01*
X79706000Y-88325714D01*
X79753619Y-88278095D01*
X79848857Y-88230476D01*
X79896476Y-88230476D01*
X79991714Y-88278095D01*
X80039333Y-88325714D01*
X80086952Y-88420952D01*
X80086952Y-88611428D01*
X80134571Y-88706666D01*
X80182190Y-88754285D01*
X80277428Y-88801904D01*
X80467904Y-88801904D01*
X80563142Y-88754285D01*
X80610761Y-88706666D01*
X80658380Y-88611428D01*
X80658380Y-88420952D01*
X80610761Y-88325714D01*
X80563142Y-88278095D01*
X80467904Y-88230476D01*
X80277428Y-88230476D01*
X80182190Y-88278095D01*
X80134571Y-88325714D01*
X80086952Y-88420952D01*
X80134571Y-87468571D02*
X80182190Y-87325714D01*
X80229809Y-87278095D01*
X80325047Y-87230476D01*
X80467904Y-87230476D01*
X80563142Y-87278095D01*
X80610761Y-87325714D01*
X80658380Y-87420952D01*
X80658380Y-87801904D01*
X79658380Y-87801904D01*
X79658380Y-87468571D01*
X79706000Y-87373333D01*
X79753619Y-87325714D01*
X79848857Y-87278095D01*
X79944095Y-87278095D01*
X80039333Y-87325714D01*
X80086952Y-87373333D01*
X80134571Y-87468571D01*
X80134571Y-87801904D01*
X80658380Y-86278095D02*
X80658380Y-86849523D01*
X80658380Y-86563809D02*
X79658380Y-86563809D01*
X79801238Y-86659047D01*
X79896476Y-86754285D01*
X79944095Y-86849523D01*
X96708380Y-113740476D02*
X95708380Y-113740476D01*
X95708380Y-113502380D01*
X95756000Y-113359523D01*
X95851238Y-113264285D01*
X95946476Y-113216666D01*
X96136952Y-113169047D01*
X96279809Y-113169047D01*
X96470285Y-113216666D01*
X96565523Y-113264285D01*
X96660761Y-113359523D01*
X96708380Y-113502380D01*
X96708380Y-113740476D01*
X96708380Y-112216666D02*
X96708380Y-112788095D01*
X96708380Y-112502380D02*
X95708380Y-112502380D01*
X95851238Y-112597619D01*
X95946476Y-112692857D01*
X95994095Y-112788095D01*
X96041714Y-111359523D02*
X96708380Y-111359523D01*
X95660761Y-111597619D02*
X96375047Y-111835714D01*
X96375047Y-111216666D01*
X96184571Y-110502380D02*
X96232190Y-110359523D01*
X96279809Y-110311904D01*
X96375047Y-110264285D01*
X96517904Y-110264285D01*
X96613142Y-110311904D01*
X96660761Y-110359523D01*
X96708380Y-110454761D01*
X96708380Y-110835714D01*
X95708380Y-110835714D01*
X95708380Y-110502380D01*
X95756000Y-110407142D01*
X95803619Y-110359523D01*
X95898857Y-110311904D01*
X95994095Y-110311904D01*
X96089333Y-110359523D01*
X96136952Y-110407142D01*
X96184571Y-110502380D01*
X96184571Y-110835714D01*
X96708380Y-109311904D02*
X96708380Y-109883333D01*
X96708380Y-109597619D02*
X95708380Y-109597619D01*
X95851238Y-109692857D01*
X95946476Y-109788095D01*
X95994095Y-109883333D01*
X195187142Y-87267142D02*
X195139523Y-87314761D01*
X194996666Y-87362380D01*
X194901428Y-87362380D01*
X194758571Y-87314761D01*
X194663333Y-87219523D01*
X194615714Y-87124285D01*
X194568095Y-86933809D01*
X194568095Y-86790952D01*
X194615714Y-86600476D01*
X194663333Y-86505238D01*
X194758571Y-86410000D01*
X194901428Y-86362380D01*
X194996666Y-86362380D01*
X195139523Y-86410000D01*
X195187142Y-86457619D01*
X196139523Y-87362380D02*
X195568095Y-87362380D01*
X195853809Y-87362380D02*
X195853809Y-86362380D01*
X195758571Y-86505238D01*
X195663333Y-86600476D01*
X195568095Y-86648095D01*
X196472857Y-86362380D02*
X197139523Y-86362380D01*
X196710952Y-87362380D01*
X187778095Y-108462380D02*
X187778095Y-109271904D01*
X187825714Y-109367142D01*
X187873333Y-109414761D01*
X187968571Y-109462380D01*
X188159047Y-109462380D01*
X188254285Y-109414761D01*
X188301904Y-109367142D01*
X188349523Y-109271904D01*
X188349523Y-108462380D01*
X189301904Y-108462380D02*
X188825714Y-108462380D01*
X188778095Y-108938571D01*
X188825714Y-108890952D01*
X188920952Y-108843333D01*
X189159047Y-108843333D01*
X189254285Y-108890952D01*
X189301904Y-108938571D01*
X189349523Y-109033809D01*
X189349523Y-109271904D01*
X189301904Y-109367142D01*
X189254285Y-109414761D01*
X189159047Y-109462380D01*
X188920952Y-109462380D01*
X188825714Y-109414761D01*
X188778095Y-109367142D01*
X80578380Y-118510476D02*
X79578380Y-118510476D01*
X79578380Y-118272380D01*
X79626000Y-118129523D01*
X79721238Y-118034285D01*
X79816476Y-117986666D01*
X80006952Y-117939047D01*
X80149809Y-117939047D01*
X80340285Y-117986666D01*
X80435523Y-118034285D01*
X80530761Y-118129523D01*
X80578380Y-118272380D01*
X80578380Y-118510476D01*
X80578380Y-116986666D02*
X80578380Y-117558095D01*
X80578380Y-117272380D02*
X79578380Y-117272380D01*
X79721238Y-117367619D01*
X79816476Y-117462857D01*
X79864095Y-117558095D01*
X79578380Y-116129523D02*
X79578380Y-116320000D01*
X79626000Y-116415238D01*
X79673619Y-116462857D01*
X79816476Y-116558095D01*
X80006952Y-116605714D01*
X80387904Y-116605714D01*
X80483142Y-116558095D01*
X80530761Y-116510476D01*
X80578380Y-116415238D01*
X80578380Y-116224761D01*
X80530761Y-116129523D01*
X80483142Y-116081904D01*
X80387904Y-116034285D01*
X80149809Y-116034285D01*
X80054571Y-116081904D01*
X80006952Y-116129523D01*
X79959333Y-116224761D01*
X79959333Y-116415238D01*
X80006952Y-116510476D01*
X80054571Y-116558095D01*
X80149809Y-116605714D01*
X80054571Y-115272380D02*
X80102190Y-115129523D01*
X80149809Y-115081904D01*
X80245047Y-115034285D01*
X80387904Y-115034285D01*
X80483142Y-115081904D01*
X80530761Y-115129523D01*
X80578380Y-115224761D01*
X80578380Y-115605714D01*
X79578380Y-115605714D01*
X79578380Y-115272380D01*
X79626000Y-115177142D01*
X79673619Y-115129523D01*
X79768857Y-115081904D01*
X79864095Y-115081904D01*
X79959333Y-115129523D01*
X80006952Y-115177142D01*
X80054571Y-115272380D01*
X80054571Y-115605714D01*
X80578380Y-114081904D02*
X80578380Y-114653333D01*
X80578380Y-114367619D02*
X79578380Y-114367619D01*
X79721238Y-114462857D01*
X79816476Y-114558095D01*
X79864095Y-114653333D01*
X200136666Y-123722380D02*
X200136666Y-124436666D01*
X200089047Y-124579523D01*
X199993809Y-124674761D01*
X199850952Y-124722380D01*
X199755714Y-124722380D01*
X200517619Y-123722380D02*
X201136666Y-123722380D01*
X200803333Y-124103333D01*
X200946190Y-124103333D01*
X201041428Y-124150952D01*
X201089047Y-124198571D01*
X201136666Y-124293809D01*
X201136666Y-124531904D01*
X201089047Y-124627142D01*
X201041428Y-124674761D01*
X200946190Y-124722380D01*
X200660476Y-124722380D01*
X200565238Y-124674761D01*
X200517619Y-124627142D01*
D13*
X166677142Y-103702380D02*
X166343809Y-103226190D01*
X166105714Y-103702380D02*
X166105714Y-102702380D01*
X166486666Y-102702380D01*
X166581904Y-102750000D01*
X166629523Y-102797619D01*
X166677142Y-102892857D01*
X166677142Y-103035714D01*
X166629523Y-103130952D01*
X166581904Y-103178571D01*
X166486666Y-103226190D01*
X166105714Y-103226190D01*
X167058095Y-102797619D02*
X167105714Y-102750000D01*
X167200952Y-102702380D01*
X167439047Y-102702380D01*
X167534285Y-102750000D01*
X167581904Y-102797619D01*
X167629523Y-102892857D01*
X167629523Y-102988095D01*
X167581904Y-103130952D01*
X167010476Y-103702380D01*
X167629523Y-103702380D01*
X168248571Y-102702380D02*
X168343809Y-102702380D01*
X168439047Y-102750000D01*
X168486666Y-102797619D01*
X168534285Y-102892857D01*
X168581904Y-103083333D01*
X168581904Y-103321428D01*
X168534285Y-103511904D01*
X168486666Y-103607142D01*
X168439047Y-103654761D01*
X168343809Y-103702380D01*
X168248571Y-103702380D01*
X168153333Y-103654761D01*
X168105714Y-103607142D01*
X168058095Y-103511904D01*
X168010476Y-103321428D01*
X168010476Y-103083333D01*
X168058095Y-102892857D01*
X168105714Y-102797619D01*
X168153333Y-102750000D01*
X168248571Y-102702380D01*
D11*
X93738380Y-113729047D02*
X92738380Y-113729047D01*
X92738380Y-113490952D01*
X92786000Y-113348095D01*
X92881238Y-113252857D01*
X92976476Y-113205238D01*
X93166952Y-113157619D01*
X93309809Y-113157619D01*
X93500285Y-113205238D01*
X93595523Y-113252857D01*
X93690761Y-113348095D01*
X93738380Y-113490952D01*
X93738380Y-113729047D01*
X93738380Y-112205238D02*
X93738380Y-112776666D01*
X93738380Y-112490952D02*
X92738380Y-112490952D01*
X92881238Y-112586190D01*
X92976476Y-112681428D01*
X93024095Y-112776666D01*
X92738380Y-111300476D02*
X92738380Y-111776666D01*
X93214571Y-111824285D01*
X93166952Y-111776666D01*
X93119333Y-111681428D01*
X93119333Y-111443333D01*
X93166952Y-111348095D01*
X93214571Y-111300476D01*
X93309809Y-111252857D01*
X93547904Y-111252857D01*
X93643142Y-111300476D01*
X93690761Y-111348095D01*
X93738380Y-111443333D01*
X93738380Y-111681428D01*
X93690761Y-111776666D01*
X93643142Y-111824285D01*
X93452666Y-110871904D02*
X93452666Y-110395714D01*
X93738380Y-110967142D02*
X92738380Y-110633809D01*
X93738380Y-110300476D01*
X93738380Y-109443333D02*
X93738380Y-110014761D01*
X93738380Y-109729047D02*
X92738380Y-109729047D01*
X92881238Y-109824285D01*
X92976476Y-109919523D01*
X93024095Y-110014761D01*
X129768380Y-93992857D02*
X128768380Y-93992857D01*
X128768380Y-93754761D01*
X128816000Y-93611904D01*
X128911238Y-93516666D01*
X129006476Y-93469047D01*
X129196952Y-93421428D01*
X129339809Y-93421428D01*
X129530285Y-93469047D01*
X129625523Y-93516666D01*
X129720761Y-93611904D01*
X129768380Y-93754761D01*
X129768380Y-93992857D01*
X128768380Y-93088095D02*
X128768380Y-92469047D01*
X129149333Y-92802380D01*
X129149333Y-92659523D01*
X129196952Y-92564285D01*
X129244571Y-92516666D01*
X129339809Y-92469047D01*
X129577904Y-92469047D01*
X129673142Y-92516666D01*
X129720761Y-92564285D01*
X129768380Y-92659523D01*
X129768380Y-92945238D01*
X129720761Y-93040476D01*
X129673142Y-93088095D01*
X129482666Y-92088095D02*
X129482666Y-91611904D01*
X129768380Y-92183333D02*
X128768380Y-91850000D01*
X129768380Y-91516666D01*
X129768380Y-90659523D02*
X129768380Y-91230952D01*
X129768380Y-90945238D02*
X128768380Y-90945238D01*
X128911238Y-91040476D01*
X129006476Y-91135714D01*
X129054095Y-91230952D01*
X93977142Y-101847142D02*
X93929523Y-101894761D01*
X93786666Y-101942380D01*
X93691428Y-101942380D01*
X93548571Y-101894761D01*
X93453333Y-101799523D01*
X93405714Y-101704285D01*
X93358095Y-101513809D01*
X93358095Y-101370952D01*
X93405714Y-101180476D01*
X93453333Y-101085238D01*
X93548571Y-100990000D01*
X93691428Y-100942380D01*
X93786666Y-100942380D01*
X93929523Y-100990000D01*
X93977142Y-101037619D01*
X94929523Y-101942380D02*
X94358095Y-101942380D01*
X94643809Y-101942380D02*
X94643809Y-100942380D01*
X94548571Y-101085238D01*
X94453333Y-101180476D01*
X94358095Y-101228095D01*
X95500952Y-101370952D02*
X95405714Y-101323333D01*
X95358095Y-101275714D01*
X95310476Y-101180476D01*
X95310476Y-101132857D01*
X95358095Y-101037619D01*
X95405714Y-100990000D01*
X95500952Y-100942380D01*
X95691428Y-100942380D01*
X95786666Y-100990000D01*
X95834285Y-101037619D01*
X95881904Y-101132857D01*
X95881904Y-101180476D01*
X95834285Y-101275714D01*
X95786666Y-101323333D01*
X95691428Y-101370952D01*
X95500952Y-101370952D01*
X95405714Y-101418571D01*
X95358095Y-101466190D01*
X95310476Y-101561428D01*
X95310476Y-101751904D01*
X95358095Y-101847142D01*
X95405714Y-101894761D01*
X95500952Y-101942380D01*
X95691428Y-101942380D01*
X95786666Y-101894761D01*
X95834285Y-101847142D01*
X95881904Y-101751904D01*
X95881904Y-101561428D01*
X95834285Y-101466190D01*
X95786666Y-101418571D01*
X95691428Y-101370952D01*
X87698380Y-113750476D02*
X86698380Y-113750476D01*
X86698380Y-113512380D01*
X86746000Y-113369523D01*
X86841238Y-113274285D01*
X86936476Y-113226666D01*
X87126952Y-113179047D01*
X87269809Y-113179047D01*
X87460285Y-113226666D01*
X87555523Y-113274285D01*
X87650761Y-113369523D01*
X87698380Y-113512380D01*
X87698380Y-113750476D01*
X87698380Y-112226666D02*
X87698380Y-112798095D01*
X87698380Y-112512380D02*
X86698380Y-112512380D01*
X86841238Y-112607619D01*
X86936476Y-112702857D01*
X86984095Y-112798095D01*
X86698380Y-111321904D02*
X86698380Y-111798095D01*
X87174571Y-111845714D01*
X87126952Y-111798095D01*
X87079333Y-111702857D01*
X87079333Y-111464761D01*
X87126952Y-111369523D01*
X87174571Y-111321904D01*
X87269809Y-111274285D01*
X87507904Y-111274285D01*
X87603142Y-111321904D01*
X87650761Y-111369523D01*
X87698380Y-111464761D01*
X87698380Y-111702857D01*
X87650761Y-111798095D01*
X87603142Y-111845714D01*
X87174571Y-110512380D02*
X87222190Y-110369523D01*
X87269809Y-110321904D01*
X87365047Y-110274285D01*
X87507904Y-110274285D01*
X87603142Y-110321904D01*
X87650761Y-110369523D01*
X87698380Y-110464761D01*
X87698380Y-110845714D01*
X86698380Y-110845714D01*
X86698380Y-110512380D01*
X86746000Y-110417142D01*
X86793619Y-110369523D01*
X86888857Y-110321904D01*
X86984095Y-110321904D01*
X87079333Y-110369523D01*
X87126952Y-110417142D01*
X87174571Y-110512380D01*
X87174571Y-110845714D01*
X87698380Y-109321904D02*
X87698380Y-109893333D01*
X87698380Y-109607619D02*
X86698380Y-109607619D01*
X86841238Y-109702857D01*
X86936476Y-109798095D01*
X86984095Y-109893333D01*
X162128095Y-79042380D02*
X162128095Y-79756666D01*
X162080476Y-79899523D01*
X161985238Y-79994761D01*
X161842380Y-80042380D01*
X161747142Y-80042380D01*
X163080476Y-80042380D02*
X162604285Y-80042380D01*
X162604285Y-79042380D01*
X163413809Y-80042380D02*
X163413809Y-79042380D01*
X163985238Y-80042380D01*
X163985238Y-79042380D01*
X164985238Y-80042380D02*
X164413809Y-80042380D01*
X164699523Y-80042380D02*
X164699523Y-79042380D01*
X164604285Y-79185238D01*
X164509047Y-79280476D01*
X164413809Y-79328095D01*
X123728380Y-94224285D02*
X122728380Y-94224285D01*
X122728380Y-93986190D01*
X122776000Y-93843333D01*
X122871238Y-93748095D01*
X122966476Y-93700476D01*
X123156952Y-93652857D01*
X123299809Y-93652857D01*
X123490285Y-93700476D01*
X123585523Y-93748095D01*
X123680761Y-93843333D01*
X123728380Y-93986190D01*
X123728380Y-94224285D01*
X122728380Y-93319523D02*
X122728380Y-92700476D01*
X123109333Y-93033809D01*
X123109333Y-92890952D01*
X123156952Y-92795714D01*
X123204571Y-92748095D01*
X123299809Y-92700476D01*
X123537904Y-92700476D01*
X123633142Y-92748095D01*
X123680761Y-92795714D01*
X123728380Y-92890952D01*
X123728380Y-93176666D01*
X123680761Y-93271904D01*
X123633142Y-93319523D01*
X123204571Y-91938571D02*
X123252190Y-91795714D01*
X123299809Y-91748095D01*
X123395047Y-91700476D01*
X123537904Y-91700476D01*
X123633142Y-91748095D01*
X123680761Y-91795714D01*
X123728380Y-91890952D01*
X123728380Y-92271904D01*
X122728380Y-92271904D01*
X122728380Y-91938571D01*
X122776000Y-91843333D01*
X122823619Y-91795714D01*
X122918857Y-91748095D01*
X123014095Y-91748095D01*
X123109333Y-91795714D01*
X123156952Y-91843333D01*
X123204571Y-91938571D01*
X123204571Y-92271904D01*
X123728380Y-90748095D02*
X123728380Y-91319523D01*
X123728380Y-91033809D02*
X122728380Y-91033809D01*
X122871238Y-91129047D01*
X122966476Y-91224285D01*
X123014095Y-91319523D01*
X147618380Y-112006857D02*
X146618380Y-112006857D01*
X146618380Y-111768761D01*
X146666000Y-111625904D01*
X146761238Y-111530666D01*
X146856476Y-111483047D01*
X147046952Y-111435428D01*
X147189809Y-111435428D01*
X147380285Y-111483047D01*
X147475523Y-111530666D01*
X147570761Y-111625904D01*
X147618380Y-111768761D01*
X147618380Y-112006857D01*
X147618380Y-110959238D02*
X147618380Y-110768761D01*
X147570761Y-110673523D01*
X147523142Y-110625904D01*
X147380285Y-110530666D01*
X147189809Y-110483047D01*
X146808857Y-110483047D01*
X146713619Y-110530666D01*
X146666000Y-110578285D01*
X146618380Y-110673523D01*
X146618380Y-110864000D01*
X146666000Y-110959238D01*
X146713619Y-111006857D01*
X146808857Y-111054476D01*
X147046952Y-111054476D01*
X147142190Y-111006857D01*
X147189809Y-110959238D01*
X147237428Y-110864000D01*
X147237428Y-110673523D01*
X147189809Y-110578285D01*
X147142190Y-110530666D01*
X147046952Y-110483047D01*
X147332666Y-110102095D02*
X147332666Y-109625904D01*
X147618380Y-110197333D02*
X146618380Y-109864000D01*
X147618380Y-109530666D01*
X147618380Y-108673523D02*
X147618380Y-109244952D01*
X147618380Y-108959238D02*
X146618380Y-108959238D01*
X146761238Y-109054476D01*
X146856476Y-109149714D01*
X146904095Y-109244952D01*
X92427142Y-98662380D02*
X92093809Y-98186190D01*
X91855714Y-98662380D02*
X91855714Y-97662380D01*
X92236666Y-97662380D01*
X92331904Y-97710000D01*
X92379523Y-97757619D01*
X92427142Y-97852857D01*
X92427142Y-97995714D01*
X92379523Y-98090952D01*
X92331904Y-98138571D01*
X92236666Y-98186190D01*
X91855714Y-98186190D01*
X93379523Y-98662380D02*
X92808095Y-98662380D01*
X93093809Y-98662380D02*
X93093809Y-97662380D01*
X92998571Y-97805238D01*
X92903333Y-97900476D01*
X92808095Y-97948095D01*
X93760476Y-97757619D02*
X93808095Y-97710000D01*
X93903333Y-97662380D01*
X94141428Y-97662380D01*
X94236666Y-97710000D01*
X94284285Y-97757619D01*
X94331904Y-97852857D01*
X94331904Y-97948095D01*
X94284285Y-98090952D01*
X93712857Y-98662380D01*
X94331904Y-98662380D01*
X182597142Y-121292380D02*
X182263809Y-120816190D01*
X182025714Y-121292380D02*
X182025714Y-120292380D01*
X182406666Y-120292380D01*
X182501904Y-120340000D01*
X182549523Y-120387619D01*
X182597142Y-120482857D01*
X182597142Y-120625714D01*
X182549523Y-120720952D01*
X182501904Y-120768571D01*
X182406666Y-120816190D01*
X182025714Y-120816190D01*
X182978095Y-120387619D02*
X183025714Y-120340000D01*
X183120952Y-120292380D01*
X183359047Y-120292380D01*
X183454285Y-120340000D01*
X183501904Y-120387619D01*
X183549523Y-120482857D01*
X183549523Y-120578095D01*
X183501904Y-120720952D01*
X182930476Y-121292380D01*
X183549523Y-121292380D01*
X184501904Y-121292380D02*
X183930476Y-121292380D01*
X184216190Y-121292380D02*
X184216190Y-120292380D01*
X184120952Y-120435238D01*
X184025714Y-120530476D01*
X183930476Y-120578095D01*
X114638380Y-94224285D02*
X113638380Y-94224285D01*
X113638380Y-93986190D01*
X113686000Y-93843333D01*
X113781238Y-93748095D01*
X113876476Y-93700476D01*
X114066952Y-93652857D01*
X114209809Y-93652857D01*
X114400285Y-93700476D01*
X114495523Y-93748095D01*
X114590761Y-93843333D01*
X114638380Y-93986190D01*
X114638380Y-94224285D01*
X113971714Y-92795714D02*
X114638380Y-92795714D01*
X113590761Y-93033809D02*
X114305047Y-93271904D01*
X114305047Y-92652857D01*
X114114571Y-91938571D02*
X114162190Y-91795714D01*
X114209809Y-91748095D01*
X114305047Y-91700476D01*
X114447904Y-91700476D01*
X114543142Y-91748095D01*
X114590761Y-91795714D01*
X114638380Y-91890952D01*
X114638380Y-92271904D01*
X113638380Y-92271904D01*
X113638380Y-91938571D01*
X113686000Y-91843333D01*
X113733619Y-91795714D01*
X113828857Y-91748095D01*
X113924095Y-91748095D01*
X114019333Y-91795714D01*
X114066952Y-91843333D01*
X114114571Y-91938571D01*
X114114571Y-92271904D01*
X114638380Y-90748095D02*
X114638380Y-91319523D01*
X114638380Y-91033809D02*
X113638380Y-91033809D01*
X113781238Y-91129047D01*
X113876476Y-91224285D01*
X113924095Y-91319523D01*
X139343142Y-107267142D02*
X139295523Y-107314761D01*
X139152666Y-107362380D01*
X139057428Y-107362380D01*
X138914571Y-107314761D01*
X138819333Y-107219523D01*
X138771714Y-107124285D01*
X138724095Y-106933809D01*
X138724095Y-106790952D01*
X138771714Y-106600476D01*
X138819333Y-106505238D01*
X138914571Y-106410000D01*
X139057428Y-106362380D01*
X139152666Y-106362380D01*
X139295523Y-106410000D01*
X139343142Y-106457619D01*
X140295523Y-107362380D02*
X139724095Y-107362380D01*
X140009809Y-107362380D02*
X140009809Y-106362380D01*
X139914571Y-106505238D01*
X139819333Y-106600476D01*
X139724095Y-106648095D01*
X140771714Y-107362380D02*
X140962190Y-107362380D01*
X141057428Y-107314761D01*
X141105047Y-107267142D01*
X141200285Y-107124285D01*
X141247904Y-106933809D01*
X141247904Y-106552857D01*
X141200285Y-106457619D01*
X141152666Y-106410000D01*
X141057428Y-106362380D01*
X140866952Y-106362380D01*
X140771714Y-106410000D01*
X140724095Y-106457619D01*
X140676476Y-106552857D01*
X140676476Y-106790952D01*
X140724095Y-106886190D01*
X140771714Y-106933809D01*
X140866952Y-106981428D01*
X141057428Y-106981428D01*
X141152666Y-106933809D01*
X141200285Y-106886190D01*
X141247904Y-106790952D01*
X93648380Y-94102857D02*
X92648380Y-94102857D01*
X92648380Y-93864761D01*
X92696000Y-93721904D01*
X92791238Y-93626666D01*
X92886476Y-93579047D01*
X93076952Y-93531428D01*
X93219809Y-93531428D01*
X93410285Y-93579047D01*
X93505523Y-93626666D01*
X93600761Y-93721904D01*
X93648380Y-93864761D01*
X93648380Y-94102857D01*
X92648380Y-93198095D02*
X92648380Y-92531428D01*
X93648380Y-92960000D01*
X93362666Y-92198095D02*
X93362666Y-91721904D01*
X93648380Y-92293333D02*
X92648380Y-91960000D01*
X93648380Y-91626666D01*
X93648380Y-90769523D02*
X93648380Y-91340952D01*
X93648380Y-91055238D02*
X92648380Y-91055238D01*
X92791238Y-91150476D01*
X92886476Y-91245714D01*
X92934095Y-91340952D01*
X145609591Y-89682857D02*
X144609591Y-89682857D01*
X144609591Y-89444761D01*
X144657211Y-89301904D01*
X144752449Y-89206666D01*
X144847687Y-89159047D01*
X145038163Y-89111428D01*
X145181020Y-89111428D01*
X145371496Y-89159047D01*
X145466734Y-89206666D01*
X145561972Y-89301904D01*
X145609591Y-89444761D01*
X145609591Y-89682857D01*
X145609591Y-88159047D02*
X145609591Y-88730476D01*
X145609591Y-88444761D02*
X144609591Y-88444761D01*
X144752449Y-88540000D01*
X144847687Y-88635238D01*
X144895306Y-88730476D01*
X145323877Y-87778095D02*
X145323877Y-87301904D01*
X145609591Y-87873333D02*
X144609591Y-87540000D01*
X145609591Y-87206666D01*
X145609591Y-86349523D02*
X145609591Y-86920952D01*
X145609591Y-86635238D02*
X144609591Y-86635238D01*
X144752449Y-86730476D01*
X144847687Y-86825714D01*
X144895306Y-86920952D01*
X84558380Y-94202857D02*
X83558380Y-94202857D01*
X83558380Y-93964761D01*
X83606000Y-93821904D01*
X83701238Y-93726666D01*
X83796476Y-93679047D01*
X83986952Y-93631428D01*
X84129809Y-93631428D01*
X84320285Y-93679047D01*
X84415523Y-93726666D01*
X84510761Y-93821904D01*
X84558380Y-93964761D01*
X84558380Y-94202857D01*
X83986952Y-93060000D02*
X83939333Y-93155238D01*
X83891714Y-93202857D01*
X83796476Y-93250476D01*
X83748857Y-93250476D01*
X83653619Y-93202857D01*
X83606000Y-93155238D01*
X83558380Y-93060000D01*
X83558380Y-92869523D01*
X83606000Y-92774285D01*
X83653619Y-92726666D01*
X83748857Y-92679047D01*
X83796476Y-92679047D01*
X83891714Y-92726666D01*
X83939333Y-92774285D01*
X83986952Y-92869523D01*
X83986952Y-93060000D01*
X84034571Y-93155238D01*
X84082190Y-93202857D01*
X84177428Y-93250476D01*
X84367904Y-93250476D01*
X84463142Y-93202857D01*
X84510761Y-93155238D01*
X84558380Y-93060000D01*
X84558380Y-92869523D01*
X84510761Y-92774285D01*
X84463142Y-92726666D01*
X84367904Y-92679047D01*
X84177428Y-92679047D01*
X84082190Y-92726666D01*
X84034571Y-92774285D01*
X83986952Y-92869523D01*
X84272666Y-92298095D02*
X84272666Y-91821904D01*
X84558380Y-92393333D02*
X83558380Y-92060000D01*
X84558380Y-91726666D01*
X84558380Y-90869523D02*
X84558380Y-91440952D01*
X84558380Y-91155238D02*
X83558380Y-91155238D01*
X83701238Y-91250476D01*
X83796476Y-91345714D01*
X83844095Y-91440952D01*
X105778380Y-113610476D02*
X104778380Y-113610476D01*
X104778380Y-113372380D01*
X104826000Y-113229523D01*
X104921238Y-113134285D01*
X105016476Y-113086666D01*
X105206952Y-113039047D01*
X105349809Y-113039047D01*
X105540285Y-113086666D01*
X105635523Y-113134285D01*
X105730761Y-113229523D01*
X105778380Y-113372380D01*
X105778380Y-113610476D01*
X105778380Y-112086666D02*
X105778380Y-112658095D01*
X105778380Y-112372380D02*
X104778380Y-112372380D01*
X104921238Y-112467619D01*
X105016476Y-112562857D01*
X105064095Y-112658095D01*
X104778380Y-111753333D02*
X104778380Y-111134285D01*
X105159333Y-111467619D01*
X105159333Y-111324761D01*
X105206952Y-111229523D01*
X105254571Y-111181904D01*
X105349809Y-111134285D01*
X105587904Y-111134285D01*
X105683142Y-111181904D01*
X105730761Y-111229523D01*
X105778380Y-111324761D01*
X105778380Y-111610476D01*
X105730761Y-111705714D01*
X105683142Y-111753333D01*
X105254571Y-110372380D02*
X105302190Y-110229523D01*
X105349809Y-110181904D01*
X105445047Y-110134285D01*
X105587904Y-110134285D01*
X105683142Y-110181904D01*
X105730761Y-110229523D01*
X105778380Y-110324761D01*
X105778380Y-110705714D01*
X104778380Y-110705714D01*
X104778380Y-110372380D01*
X104826000Y-110277142D01*
X104873619Y-110229523D01*
X104968857Y-110181904D01*
X105064095Y-110181904D01*
X105159333Y-110229523D01*
X105206952Y-110277142D01*
X105254571Y-110372380D01*
X105254571Y-110705714D01*
X105778380Y-109181904D02*
X105778380Y-109753333D01*
X105778380Y-109467619D02*
X104778380Y-109467619D01*
X104921238Y-109562857D01*
X105016476Y-109658095D01*
X105064095Y-109753333D01*
X96668380Y-94094285D02*
X95668380Y-94094285D01*
X95668380Y-93856190D01*
X95716000Y-93713333D01*
X95811238Y-93618095D01*
X95906476Y-93570476D01*
X96096952Y-93522857D01*
X96239809Y-93522857D01*
X96430285Y-93570476D01*
X96525523Y-93618095D01*
X96620761Y-93713333D01*
X96668380Y-93856190D01*
X96668380Y-94094285D01*
X95668380Y-92665714D02*
X95668380Y-92856190D01*
X95716000Y-92951428D01*
X95763619Y-92999047D01*
X95906476Y-93094285D01*
X96096952Y-93141904D01*
X96477904Y-93141904D01*
X96573142Y-93094285D01*
X96620761Y-93046666D01*
X96668380Y-92951428D01*
X96668380Y-92760952D01*
X96620761Y-92665714D01*
X96573142Y-92618095D01*
X96477904Y-92570476D01*
X96239809Y-92570476D01*
X96144571Y-92618095D01*
X96096952Y-92665714D01*
X96049333Y-92760952D01*
X96049333Y-92951428D01*
X96096952Y-93046666D01*
X96144571Y-93094285D01*
X96239809Y-93141904D01*
X96144571Y-91808571D02*
X96192190Y-91665714D01*
X96239809Y-91618095D01*
X96335047Y-91570476D01*
X96477904Y-91570476D01*
X96573142Y-91618095D01*
X96620761Y-91665714D01*
X96668380Y-91760952D01*
X96668380Y-92141904D01*
X95668380Y-92141904D01*
X95668380Y-91808571D01*
X95716000Y-91713333D01*
X95763619Y-91665714D01*
X95858857Y-91618095D01*
X95954095Y-91618095D01*
X96049333Y-91665714D01*
X96096952Y-91713333D01*
X96144571Y-91808571D01*
X96144571Y-92141904D01*
X96668380Y-90618095D02*
X96668380Y-91189523D01*
X96668380Y-90903809D02*
X95668380Y-90903809D01*
X95811238Y-90999047D01*
X95906476Y-91094285D01*
X95954095Y-91189523D01*
X141698380Y-113094285D02*
X140698380Y-113094285D01*
X140698380Y-112856190D01*
X140746000Y-112713333D01*
X140841238Y-112618095D01*
X140936476Y-112570476D01*
X141126952Y-112522857D01*
X141269809Y-112522857D01*
X141460285Y-112570476D01*
X141555523Y-112618095D01*
X141650761Y-112713333D01*
X141698380Y-112856190D01*
X141698380Y-113094285D01*
X141698380Y-112046666D02*
X141698380Y-111856190D01*
X141650761Y-111760952D01*
X141603142Y-111713333D01*
X141460285Y-111618095D01*
X141269809Y-111570476D01*
X140888857Y-111570476D01*
X140793619Y-111618095D01*
X140746000Y-111665714D01*
X140698380Y-111760952D01*
X140698380Y-111951428D01*
X140746000Y-112046666D01*
X140793619Y-112094285D01*
X140888857Y-112141904D01*
X141126952Y-112141904D01*
X141222190Y-112094285D01*
X141269809Y-112046666D01*
X141317428Y-111951428D01*
X141317428Y-111760952D01*
X141269809Y-111665714D01*
X141222190Y-111618095D01*
X141126952Y-111570476D01*
X141174571Y-110808571D02*
X141222190Y-110665714D01*
X141269809Y-110618095D01*
X141365047Y-110570476D01*
X141507904Y-110570476D01*
X141603142Y-110618095D01*
X141650761Y-110665714D01*
X141698380Y-110760952D01*
X141698380Y-111141904D01*
X140698380Y-111141904D01*
X140698380Y-110808571D01*
X140746000Y-110713333D01*
X140793619Y-110665714D01*
X140888857Y-110618095D01*
X140984095Y-110618095D01*
X141079333Y-110665714D01*
X141126952Y-110713333D01*
X141174571Y-110808571D01*
X141174571Y-111141904D01*
X141698380Y-109618095D02*
X141698380Y-110189523D01*
X141698380Y-109903809D02*
X140698380Y-109903809D01*
X140841238Y-109999047D01*
X140936476Y-110094285D01*
X140984095Y-110189523D01*
X144347142Y-103077142D02*
X144299523Y-103124761D01*
X144156666Y-103172380D01*
X144061428Y-103172380D01*
X143918571Y-103124761D01*
X143823333Y-103029523D01*
X143775714Y-102934285D01*
X143728095Y-102743809D01*
X143728095Y-102600952D01*
X143775714Y-102410476D01*
X143823333Y-102315238D01*
X143918571Y-102220000D01*
X144061428Y-102172380D01*
X144156666Y-102172380D01*
X144299523Y-102220000D01*
X144347142Y-102267619D01*
X145299523Y-103172380D02*
X144728095Y-103172380D01*
X145013809Y-103172380D02*
X145013809Y-102172380D01*
X144918571Y-102315238D01*
X144823333Y-102410476D01*
X144728095Y-102458095D01*
X145680476Y-102267619D02*
X145728095Y-102220000D01*
X145823333Y-102172380D01*
X146061428Y-102172380D01*
X146156666Y-102220000D01*
X146204285Y-102267619D01*
X146251904Y-102362857D01*
X146251904Y-102458095D01*
X146204285Y-102600952D01*
X145632857Y-103172380D01*
X146251904Y-103172380D01*
X138658380Y-113669047D02*
X137658380Y-113669047D01*
X137658380Y-113430952D01*
X137706000Y-113288095D01*
X137801238Y-113192857D01*
X137896476Y-113145238D01*
X138086952Y-113097619D01*
X138229809Y-113097619D01*
X138420285Y-113145238D01*
X138515523Y-113192857D01*
X138610761Y-113288095D01*
X138658380Y-113430952D01*
X138658380Y-113669047D01*
X138658380Y-112145238D02*
X138658380Y-112716666D01*
X138658380Y-112430952D02*
X137658380Y-112430952D01*
X137801238Y-112526190D01*
X137896476Y-112621428D01*
X137944095Y-112716666D01*
X137658380Y-111526190D02*
X137658380Y-111430952D01*
X137706000Y-111335714D01*
X137753619Y-111288095D01*
X137848857Y-111240476D01*
X138039333Y-111192857D01*
X138277428Y-111192857D01*
X138467904Y-111240476D01*
X138563142Y-111288095D01*
X138610761Y-111335714D01*
X138658380Y-111430952D01*
X138658380Y-111526190D01*
X138610761Y-111621428D01*
X138563142Y-111669047D01*
X138467904Y-111716666D01*
X138277428Y-111764285D01*
X138039333Y-111764285D01*
X137848857Y-111716666D01*
X137753619Y-111669047D01*
X137706000Y-111621428D01*
X137658380Y-111526190D01*
X138372666Y-110811904D02*
X138372666Y-110335714D01*
X138658380Y-110907142D02*
X137658380Y-110573809D01*
X138658380Y-110240476D01*
X138658380Y-109383333D02*
X138658380Y-109954761D01*
X138658380Y-109669047D02*
X137658380Y-109669047D01*
X137801238Y-109764285D01*
X137896476Y-109859523D01*
X137944095Y-109954761D01*
D14*
X201669999Y-95430009D02*
X201669999Y-87430009D01*
X201669999Y-87430009D02*
X208469999Y-87430009D01*
X208469999Y-95430009D02*
X201669999Y-95430009D01*
X202569999Y-95430009D02*
X202569999Y-87430009D01*
X208469999Y-87430009D02*
X208469999Y-95430009D01*
X147700000Y-127000000D02*
X146300000Y-127000000D01*
X148400000Y-125700000D02*
X148400000Y-126300000D01*
X146300000Y-125000000D02*
X147700000Y-125000000D01*
X145600000Y-126300000D02*
X145600000Y-125700000D01*
X147700000Y-127000000D02*
G75*
G03*
X148400000Y-126300000I1J699999D01*
G01*
X148400000Y-125700000D02*
G75*
G03*
X147700000Y-125000000I-699999J1D01*
G01*
X145600000Y-126300000D02*
G75*
G03*
X146300000Y-127000000I699999J-1D01*
G01*
X146300000Y-125000000D02*
G75*
G03*
X145600000Y-125700000I-1J-699999D01*
G01*
X194013292Y-84399800D02*
X194013292Y-80799800D01*
X188543292Y-84399800D02*
X188543292Y-82199800D01*
X188543292Y-84399800D02*
X188543292Y-86599800D01*
X194013292Y-84399800D02*
X194013292Y-86599800D01*
X138316001Y-103670000D02*
X138316001Y-103869999D01*
X141615999Y-100670001D02*
X141615999Y-101720001D01*
X141615999Y-103670000D02*
X141615999Y-103869999D01*
X138316001Y-100670001D02*
X138316001Y-100870000D01*
X126178500Y-100440000D02*
X126178500Y-101700000D01*
X122418500Y-107260000D02*
X126178500Y-107260000D01*
X120168500Y-100440000D02*
X126178500Y-100440000D01*
X126178500Y-107260000D02*
X126178500Y-106000000D01*
X119276000Y-102490000D02*
X119276000Y-103290000D01*
X119276000Y-102490000D02*
X119276000Y-101690000D01*
X116156000Y-102490000D02*
X116156000Y-101690000D01*
X116156000Y-102490000D02*
X116156000Y-104290000D01*
X172870000Y-106560000D02*
X176630000Y-106560000D01*
X176630000Y-99740000D02*
X176630000Y-101000000D01*
X170620000Y-99740000D02*
X176630000Y-99740000D01*
X176630000Y-106560000D02*
X176630000Y-105300000D01*
X172780000Y-87170000D02*
X176540000Y-87170000D01*
X170530000Y-80350000D02*
X176540000Y-80350000D01*
X176540000Y-80350000D02*
X176540000Y-81610000D01*
X176540000Y-87170000D02*
X176540000Y-85910000D01*
X125267000Y-98561247D02*
X125267000Y-98038743D01*
X123797000Y-98561247D02*
X123797000Y-98038743D01*
X176149400Y-88649400D02*
X175149400Y-89649400D01*
X181210600Y-88649400D02*
X179622340Y-88649400D01*
X182210600Y-95710600D02*
X182210600Y-89649400D01*
X179622340Y-95710600D02*
X182210600Y-95710600D01*
X175149400Y-89649400D02*
X175149400Y-95710600D01*
X181210600Y-88649400D02*
X182210600Y-89649400D01*
X177737660Y-88649400D02*
X176149400Y-88649400D01*
X175149400Y-95710600D02*
X177737660Y-95710600D01*
X123010000Y-98440575D02*
X123010000Y-98159415D01*
X121990000Y-98440575D02*
X121990000Y-98159415D01*
X173291252Y-91610000D02*
X171868748Y-91610000D01*
X173291252Y-88890000D02*
X171868748Y-88890000D01*
X172730580Y-93770000D02*
X172449420Y-93770000D01*
X172730580Y-92750000D02*
X172449420Y-92750000D01*
X181218748Y-86040000D02*
X182641252Y-86040000D01*
X181218748Y-83320000D02*
X182641252Y-83320000D01*
X118180000Y-98440575D02*
X118180000Y-98159415D01*
X119200000Y-98440575D02*
X119200000Y-98159415D01*
X175460580Y-113870000D02*
X175179420Y-113870000D01*
X175460580Y-112850000D02*
X175179420Y-112850000D01*
X115923000Y-98561247D02*
X115923000Y-98038743D01*
X117393000Y-98561247D02*
X117393000Y-98038743D01*
X136757252Y-106305000D02*
X136234748Y-106305000D01*
X136757252Y-104835000D02*
X136234748Y-104835000D01*
X196422712Y-79489800D02*
X196703872Y-79489800D01*
X196422712Y-80509800D02*
X196703872Y-80509800D01*
X137786575Y-98539993D02*
X137505415Y-98539993D01*
X137786575Y-97519993D02*
X137505415Y-97519993D01*
X131736000Y-102931252D02*
X131736000Y-101508748D01*
X134456000Y-102931252D02*
X134456000Y-101508748D01*
X195250000Y-88550000D02*
X195250000Y-96550000D01*
X188450000Y-88550000D02*
X195250000Y-88550000D01*
X189350000Y-96550000D02*
X189350000Y-88550000D01*
X188450000Y-96550000D02*
X188450000Y-88550000D01*
X195250000Y-96550000D02*
X188450000Y-96550000D01*
D11*
X85570999Y-107445012D02*
X85570999Y-107220012D01*
X85570999Y-107220012D02*
X87170999Y-107220012D01*
X85570999Y-98795012D02*
X85570999Y-99095012D01*
X85570999Y-107445012D02*
X79820999Y-107445012D01*
X79820999Y-98795012D02*
X79820999Y-99095012D01*
X85570999Y-98795012D02*
X79820999Y-98795012D01*
X79820999Y-107445012D02*
X79820999Y-107145012D01*
D14*
X92846000Y-103359420D02*
X92846000Y-103640580D01*
X91826000Y-103359420D02*
X91826000Y-103640580D01*
X179195000Y-122795420D02*
X179195000Y-123076580D01*
X180215000Y-122795420D02*
X180215000Y-123076580D01*
X89290000Y-103640580D02*
X89290000Y-103359420D01*
X88270000Y-103640580D02*
X88270000Y-103359420D01*
X107405424Y-107232000D02*
X107686584Y-107232000D01*
X107405424Y-106212000D02*
X107686584Y-106212000D01*
X113766580Y-106360000D02*
X113485420Y-106360000D01*
X113766580Y-107380000D02*
X113485420Y-107380000D01*
X112166580Y-97460000D02*
X111885420Y-97460000D01*
X112166580Y-96440000D02*
X111885420Y-96440000D01*
X99001000Y-103541252D02*
X99001000Y-103018748D01*
X97531000Y-103541252D02*
X97531000Y-103018748D01*
X159326750Y-100738153D02*
X159326750Y-99938153D01*
X159326750Y-100738153D02*
X159326750Y-101538153D01*
X162446750Y-100738153D02*
X162446750Y-98938153D01*
X162446750Y-100738153D02*
X162446750Y-101538153D01*
X89696002Y-101520012D02*
X91496002Y-101520012D01*
X89696002Y-101520012D02*
X88896002Y-101520012D01*
X89696002Y-98400012D02*
X90496002Y-98400012D01*
X89696002Y-98400012D02*
X88896002Y-98400012D01*
X98201252Y-98495000D02*
X97678748Y-98495000D01*
X98201252Y-99965000D02*
X97678748Y-99965000D01*
X108796011Y-101311992D02*
X106296011Y-101311992D01*
X108796011Y-99311992D02*
X108796011Y-101311992D01*
X106296011Y-99311992D02*
X108796011Y-99311992D01*
X106296011Y-101311992D02*
X106296011Y-99311992D01*
X107686580Y-101894000D02*
X107405420Y-101894000D01*
X107686580Y-102914000D02*
X107405420Y-102914000D01*
X107308753Y-98608492D02*
X107783269Y-98608492D01*
X107308753Y-97563492D02*
X107783269Y-97563492D01*
X96003500Y-103067258D02*
X96003500Y-102592742D01*
X97048500Y-103067258D02*
X97048500Y-102592742D01*
D15*
X100999099Y-105925000D02*
X100618099Y-105925000D01*
X99753900Y-100021576D02*
X99753900Y-103700424D01*
X105113300Y-103700424D02*
X105113300Y-100021576D01*
X100618099Y-105925000D02*
X100618099Y-105671000D01*
X100618099Y-105671000D02*
X100999099Y-105671000D01*
X100999099Y-105671000D02*
X100999099Y-105925000D01*
D16*
X109951000Y-103685000D02*
X109951000Y-100155000D01*
X114951000Y-100155000D02*
X114951000Y-103685000D01*
D17*
X110276000Y-106110000D02*
G75*
G03*
X110276000Y-106110000I-100000J0D01*
G01*
D14*
X107308746Y-103659500D02*
X107783262Y-103659500D01*
X107308746Y-104704500D02*
X107783262Y-104704500D01*
X90035500Y-103262742D02*
X90035500Y-103737258D01*
X91080500Y-103262742D02*
X91080500Y-103737258D01*
X163648742Y-97632505D02*
X164123258Y-97632505D01*
X163648742Y-96587505D02*
X164123258Y-96587505D01*
X160793258Y-96587500D02*
X160318742Y-96587500D01*
X160793258Y-97632500D02*
X160318742Y-97632500D01*
X166411000Y-117395000D02*
X164461000Y-117395000D01*
X166411000Y-117395000D02*
X169861000Y-117395000D01*
X166411000Y-107275000D02*
X164461000Y-107275000D01*
X166411000Y-107275000D02*
X168361000Y-107275000D01*
X164803484Y-121724000D02*
X165408516Y-121724000D01*
X164229700Y-119862139D02*
X164229700Y-120537861D01*
X165408516Y-118676000D02*
X164803484Y-118676000D01*
X165230872Y-121445953D02*
G75*
G03*
X164981128Y-121445953I-124872J-278049D01*
G01*
X119958000Y-98440575D02*
X119958000Y-98159415D01*
X120978000Y-98440575D02*
X120978000Y-98159415D01*
D15*
X199731200Y-95804000D02*
X199731200Y-94889600D01*
X199731200Y-93670400D02*
X199731200Y-92756000D01*
X198740600Y-95804000D02*
X199731200Y-95804000D01*
X199324800Y-92756000D02*
X198740600Y-92756000D01*
X199731200Y-92756000D02*
X199324800Y-92756000D01*
X198918400Y-93035399D02*
G75*
G03*
X199324800Y-92756000I105381J281982D01*
G01*
X185900600Y-96644000D02*
X186891200Y-96644000D01*
X186484800Y-93596000D02*
X185900600Y-93596000D01*
X186891200Y-93596000D02*
X186484800Y-93596000D01*
X186891200Y-96644000D02*
X186891200Y-95729600D01*
X186891200Y-94510400D02*
X186891200Y-93596000D01*
X186078400Y-93875399D02*
G75*
G03*
X186484800Y-93596000I105381J281982D01*
G01*
X195168692Y-81998600D02*
X194254292Y-81998600D01*
X194254292Y-82405000D02*
X194254292Y-82989200D01*
X197302292Y-81998600D02*
X196387892Y-81998600D01*
X194254292Y-81998600D02*
X194254292Y-82405000D01*
X197302292Y-82989200D02*
X197302292Y-81998600D01*
X194533691Y-82811400D02*
G75*
G03*
X194254292Y-82405000I-281982J105381D01*
G01*
D14*
X157916000Y-110630000D02*
X157916000Y-112830000D01*
X157916000Y-110630000D02*
X157916000Y-108430000D01*
X149596000Y-110630000D02*
X149596000Y-114280000D01*
X149596000Y-110630000D02*
X149596000Y-108430000D01*
X143005998Y-103490578D02*
X143005998Y-103209418D01*
X141985998Y-103490578D02*
X141985998Y-103209418D01*
X165272488Y-100762743D02*
X165272488Y-101237259D01*
X164227488Y-100762743D02*
X164227488Y-101237259D01*
X200786252Y-97755000D02*
X200263748Y-97755000D01*
X200786252Y-96285000D02*
X200263748Y-96285000D01*
X166316956Y-89249052D02*
X167646956Y-89249052D01*
X168976956Y-91849052D02*
X168976956Y-94449052D01*
X166316956Y-94449052D02*
X168976956Y-94449052D01*
X166316956Y-91849052D02*
X168976956Y-91849052D01*
X166316956Y-91849052D02*
X166316956Y-94449052D01*
X166316956Y-90579052D02*
X166316956Y-89249052D01*
X158316956Y-89249052D02*
X159646956Y-89249052D01*
X158316956Y-91849052D02*
X160976956Y-91849052D01*
X158316956Y-90579052D02*
X158316956Y-89249052D01*
X160976956Y-91849052D02*
X160976956Y-94449052D01*
X158316956Y-91849052D02*
X158316956Y-94449052D01*
X158316956Y-94449052D02*
X160976956Y-94449052D01*
X166316956Y-83749052D02*
X166316956Y-86349052D01*
X166316956Y-83749052D02*
X168976956Y-83749052D01*
X166316956Y-82479052D02*
X166316956Y-81149052D01*
X166316956Y-81149052D02*
X167646956Y-81149052D01*
X168976956Y-83749052D02*
X168976956Y-86349052D01*
X166316956Y-86349052D02*
X168976956Y-86349052D01*
X162316956Y-86349052D02*
X164976956Y-86349052D01*
X162316956Y-82479052D02*
X162316956Y-81149052D01*
X164976956Y-83749052D02*
X164976956Y-86349052D01*
X162316956Y-83749052D02*
X162316956Y-86349052D01*
X162316956Y-83749052D02*
X164976956Y-83749052D01*
X162316956Y-81149052D02*
X163646956Y-81149052D01*
X158316956Y-83749052D02*
X160976956Y-83749052D01*
X160976956Y-83749052D02*
X160976956Y-86349052D01*
X158316956Y-82479052D02*
X158316956Y-81149052D01*
X158316956Y-83749052D02*
X158316956Y-86349052D01*
X158316956Y-81149052D02*
X159646956Y-81149052D01*
X158316956Y-86349052D02*
X160976956Y-86349052D01*
X162316956Y-91849052D02*
X164976956Y-91849052D01*
X162316956Y-91849052D02*
X162316956Y-94449052D01*
X162316956Y-90579052D02*
X162316956Y-89249052D01*
X162316956Y-94449052D02*
X164976956Y-94449052D01*
X162316956Y-89249052D02*
X163646956Y-89249052D01*
X164976956Y-91849052D02*
X164976956Y-94449052D01*
X198257258Y-91827500D02*
X197782742Y-91827500D01*
X198257258Y-90782500D02*
X197782742Y-90782500D01*
X185227258Y-93382500D02*
X184752742Y-93382500D01*
X185227258Y-92337500D02*
X184752742Y-92337500D01*
X141173264Y-97507493D02*
X140698748Y-97507493D01*
X141173264Y-98552493D02*
X140698748Y-98552493D01*
X188022506Y-80483942D02*
X188022506Y-80958458D01*
X186977506Y-80483942D02*
X186977506Y-80958458D01*
X188022506Y-83531942D02*
X188022506Y-84006458D01*
X186977506Y-83531942D02*
X186977506Y-84006458D01*
X195577500Y-93332742D02*
X195577500Y-93807258D01*
X196622500Y-93332742D02*
X196622500Y-93807258D01*
X183912500Y-94952742D02*
X183912500Y-95427258D01*
X182867500Y-94952742D02*
X182867500Y-95427258D01*
X148233505Y-107982733D02*
X148233505Y-108457249D01*
X149278505Y-107982733D02*
X149278505Y-108457249D01*
X200987258Y-98417500D02*
X200512742Y-98417500D01*
X200987258Y-99462500D02*
X200512742Y-99462500D01*
X186977506Y-86579942D02*
X186977506Y-87054458D01*
X188022506Y-86579942D02*
X188022506Y-87054458D01*
X149266005Y-111149432D02*
X149266005Y-111430592D01*
X148246005Y-111149432D02*
X148246005Y-111430592D01*
X175951252Y-111990000D02*
X174528748Y-111990000D01*
X175951252Y-109270000D02*
X174528748Y-109270000D01*
X181559420Y-82190000D02*
X181840580Y-82190000D01*
X181559420Y-81170000D02*
X181840580Y-81170000D01*
X209095792Y-85859800D02*
X209095792Y-86909800D01*
X199695792Y-72009800D02*
X208895792Y-72009800D01*
X208045792Y-86909800D02*
X209095792Y-86909800D01*
X202395792Y-86709800D02*
X199695792Y-86709800D01*
X208895792Y-86709800D02*
X206295792Y-86709800D01*
X199695792Y-86709800D02*
X199695792Y-84809800D01*
X199695792Y-80809800D02*
X199695792Y-72009800D01*
X208895792Y-72009800D02*
X208895792Y-86709800D01*
X108217211Y-90302066D02*
X106097211Y-90302066D01*
X108217211Y-93502066D02*
X108217211Y-90302066D01*
X106097211Y-90302066D02*
X106097211Y-93502066D01*
X182005500Y-123173258D02*
X182005500Y-122698742D01*
X180960500Y-123173258D02*
X180960500Y-122698742D01*
X133097211Y-113701633D02*
X135217211Y-113701633D01*
X135217211Y-113701633D02*
X135217211Y-110501633D01*
X133097211Y-110501633D02*
X133097211Y-113701633D01*
X90217211Y-93502066D02*
X90217211Y-90302066D01*
X90217211Y-90302066D02*
X88097211Y-90302066D01*
X88097211Y-90302066D02*
X88097211Y-93502066D01*
X135217211Y-93502066D02*
X135217211Y-90302066D01*
X135217211Y-90302066D02*
X133097211Y-90302066D01*
X133097211Y-90302066D02*
X133097211Y-93502066D01*
X126097211Y-113701633D02*
X128217211Y-113701633D01*
X128217211Y-113701633D02*
X128217211Y-110501633D01*
X126097211Y-110501633D02*
X126097211Y-113701633D01*
X135097211Y-90302066D02*
X135097211Y-93502066D01*
X137217211Y-90302066D02*
X135097211Y-90302066D01*
X137217211Y-93502066D02*
X137217211Y-90302066D01*
X144217211Y-90302066D02*
X142097211Y-90302066D01*
X142097211Y-90302066D02*
X142097211Y-93502066D01*
X144217211Y-93502066D02*
X144217211Y-90302066D01*
X99097211Y-110501633D02*
X99097211Y-113701633D01*
X101217211Y-113701633D02*
X101217211Y-110501633D01*
X99097211Y-113701633D02*
X101217211Y-113701633D01*
X197111003Y-124675006D02*
X158111003Y-124675006D01*
X197111003Y-96175006D02*
X197111003Y-124675006D01*
X158111003Y-96175006D02*
X197111003Y-96175006D01*
X158111003Y-124675006D02*
X158111003Y-96175006D01*
X186141003Y-121425006D02*
X196701003Y-121425006D01*
X196701003Y-121425006D02*
X196701003Y-123925006D01*
X196701003Y-123925006D02*
X186141003Y-123925006D01*
X186141003Y-123925006D02*
X186141003Y-121425006D01*
X159361003Y-105145006D02*
X161861003Y-105145006D01*
X161861003Y-105145006D02*
X161861003Y-115705006D01*
X161861003Y-115705006D02*
X159361003Y-115705006D01*
X159361003Y-115705006D02*
X159361003Y-105145006D01*
X186141003Y-96925006D02*
X196701003Y-96925006D01*
X196701003Y-96925006D02*
X196701003Y-99425006D01*
X196701003Y-99425006D02*
X186141003Y-99425006D01*
X186141003Y-99425006D02*
X186141003Y-96925006D01*
X99097211Y-90302066D02*
X99097211Y-93502066D01*
X101217211Y-90302066D02*
X99097211Y-90302066D01*
X101217211Y-93502066D02*
X101217211Y-90302066D01*
X184516500Y-123173258D02*
X184516500Y-122698742D01*
X185561500Y-123173258D02*
X185561500Y-122698742D01*
X126217211Y-113701633D02*
X126217211Y-110501633D01*
X124097211Y-110501633D02*
X124097211Y-113701633D01*
X124097211Y-113701633D02*
X126217211Y-113701633D01*
X115097211Y-110501633D02*
X115097211Y-113701633D01*
X115097211Y-113701633D02*
X117217211Y-113701633D01*
X117217211Y-113701633D02*
X117217211Y-110501633D01*
X135026000Y-102931252D02*
X135026000Y-101508748D01*
X137746000Y-102931252D02*
X137746000Y-101508748D01*
X189668282Y-72419792D02*
X198908282Y-72419792D01*
X198908282Y-72019792D02*
X198908282Y-78819792D01*
X198908282Y-78819792D02*
X189668282Y-78819792D01*
X189668282Y-78819792D02*
X189668282Y-72019792D01*
X189668282Y-72019792D02*
X198908282Y-72019792D01*
X143005998Y-100169419D02*
X143005998Y-100450579D01*
X141985998Y-100169419D02*
X141985998Y-100450579D01*
X161811000Y-125298000D02*
X161811000Y-127958000D01*
X187331000Y-125298000D02*
X187331000Y-126628000D01*
X186001000Y-125298000D02*
X187331000Y-125298000D01*
X184731000Y-127958000D02*
X161811000Y-127958000D01*
X184731000Y-125298000D02*
X161811000Y-125298000D01*
X184731000Y-125298000D02*
X184731000Y-127958000D01*
X81097211Y-113701633D02*
X83217211Y-113701633D01*
X81097211Y-110501633D02*
X81097211Y-113701633D01*
X83217211Y-113701633D02*
X83217211Y-110501633D01*
X117097211Y-113701633D02*
X119217211Y-113701633D01*
X117097211Y-110501633D02*
X117097211Y-113701633D01*
X119217211Y-113701633D02*
X119217211Y-110501633D01*
X143758737Y-97507493D02*
X144233253Y-97507493D01*
X143758737Y-98552493D02*
X144233253Y-98552493D01*
X110217211Y-113701633D02*
X110217211Y-110501633D01*
X108097211Y-113701633D02*
X110217211Y-113701633D01*
X108097211Y-110501633D02*
X108097211Y-113701633D01*
X117097211Y-90302066D02*
X117097211Y-93502066D01*
X119217211Y-90302066D02*
X117097211Y-90302066D01*
X119217211Y-93502066D02*
X119217211Y-90302066D01*
X108097211Y-90302066D02*
X108097211Y-93502066D01*
X110217211Y-93502066D02*
X110217211Y-90302066D01*
X110217211Y-90302066D02*
X108097211Y-90302066D01*
X81217211Y-90302066D02*
X79097211Y-90302066D01*
X81217211Y-93502066D02*
X81217211Y-90302066D01*
X79097211Y-90302066D02*
X79097211Y-93502066D01*
X99217211Y-113701633D02*
X99217211Y-110501633D01*
X97097211Y-113701633D02*
X99217211Y-113701633D01*
X97097211Y-110501633D02*
X97097211Y-113701633D01*
X197573292Y-87031052D02*
X197573292Y-86508548D01*
X199043292Y-87031052D02*
X199043292Y-86508548D01*
X183126000Y-119540000D02*
X183126000Y-118540000D01*
X202451000Y-101300000D02*
X202451000Y-100920000D01*
X183126000Y-101300000D02*
X183126000Y-102300000D01*
X208871000Y-101300000D02*
X202451000Y-101300000D01*
X208871000Y-119540000D02*
X202451000Y-119540000D01*
X183906000Y-119540000D02*
X183126000Y-119540000D01*
X183906000Y-101300000D02*
X183126000Y-101300000D01*
X208871000Y-101300000D02*
X208871000Y-119540000D01*
X79097211Y-110501633D02*
X79097211Y-113701633D01*
X81217211Y-113701633D02*
X81217211Y-110501633D01*
X79097211Y-113701633D02*
X81217211Y-113701633D01*
X200676000Y-125050000D02*
X200676000Y-127710000D01*
X201946000Y-125050000D02*
X203276000Y-125050000D01*
X200676000Y-125050000D02*
X187916000Y-125050000D01*
X187916000Y-125050000D02*
X187916000Y-127710000D01*
X200676000Y-127710000D02*
X187916000Y-127710000D01*
X203276000Y-125050000D02*
X203276000Y-126380000D01*
X166005488Y-101237259D02*
X166005488Y-100762743D01*
X167050488Y-101237259D02*
X167050488Y-100762743D01*
X90097211Y-110501633D02*
X90097211Y-113701633D01*
X92217211Y-113701633D02*
X92217211Y-110501633D01*
X90097211Y-113701633D02*
X92217211Y-113701633D01*
X126097211Y-90302066D02*
X126097211Y-93502066D01*
X128217211Y-93502066D02*
X128217211Y-90302066D01*
X128217211Y-90302066D02*
X126097211Y-90302066D01*
X94506005Y-100067848D02*
X94506005Y-99852176D01*
X93786005Y-100067848D02*
X93786005Y-99852176D01*
X90217211Y-113701633D02*
X90217211Y-110501633D01*
X88097211Y-110501633D02*
X88097211Y-113701633D01*
X88097211Y-113701633D02*
X90217211Y-113701633D01*
X163141000Y-78702000D02*
X161811000Y-78702000D01*
X187331000Y-78702000D02*
X187331000Y-76042000D01*
X164411000Y-78702000D02*
X187331000Y-78702000D01*
X164411000Y-76042000D02*
X187331000Y-76042000D01*
X164411000Y-78702000D02*
X164411000Y-76042000D01*
X161811000Y-78702000D02*
X161811000Y-77372000D01*
X126217211Y-90302066D02*
X124097211Y-90302066D01*
X126217211Y-93502066D02*
X126217211Y-90302066D01*
X124097211Y-90302066D02*
X124097211Y-93502066D01*
X146217211Y-113701633D02*
X146217211Y-110501633D01*
X144097211Y-110501633D02*
X144097211Y-113701633D01*
X144097211Y-113701633D02*
X146217211Y-113701633D01*
X93298506Y-99722754D02*
X93298506Y-100197270D01*
X92253506Y-99722754D02*
X92253506Y-100197270D01*
X182738500Y-123173258D02*
X182738500Y-122698742D01*
X183783500Y-123173258D02*
X183783500Y-122698742D01*
X117217211Y-93502066D02*
X117217211Y-90302066D01*
X117217211Y-90302066D02*
X115097211Y-90302066D01*
X115097211Y-90302066D02*
X115097211Y-93502066D01*
X140247252Y-105965000D02*
X139724748Y-105965000D01*
X140247252Y-104495000D02*
X139724748Y-104495000D01*
X92217211Y-90302066D02*
X90097211Y-90302066D01*
X92217211Y-93502066D02*
X92217211Y-90302066D01*
X90097211Y-90302066D02*
X90097211Y-93502066D01*
X146217211Y-90302066D02*
X144097211Y-90302066D01*
X146217211Y-93502066D02*
X146217211Y-90302066D01*
X144097211Y-90302066D02*
X144097211Y-93502066D01*
X83217211Y-93502066D02*
X83217211Y-90302066D01*
X81097211Y-90302066D02*
X81097211Y-93502066D01*
X83217211Y-90302066D02*
X81097211Y-90302066D01*
X108217211Y-113701633D02*
X108217211Y-110501633D01*
X106097211Y-113701633D02*
X108217211Y-113701633D01*
X106097211Y-110501633D02*
X106097211Y-113701633D01*
X97097211Y-90302066D02*
X97097211Y-93502066D01*
X99217211Y-93502066D02*
X99217211Y-90302066D01*
X99217211Y-90302066D02*
X97097211Y-90302066D01*
X144217211Y-113701633D02*
X144217211Y-110501633D01*
X142097211Y-110501633D02*
X142097211Y-113701633D01*
X142097211Y-113701633D02*
X144217211Y-113701633D01*
X143576000Y-103421252D02*
X143576000Y-101998748D01*
X146296000Y-103421252D02*
X146296000Y-101998748D01*
X135097211Y-110501633D02*
X135097211Y-113701633D01*
X135097211Y-113701633D02*
X137217211Y-113701633D01*
X137217211Y-113701633D02*
X137217211Y-110501633D01*
M02*
