G04 #@! TF.GenerationSoftware,KiCad,Pcbnew,(6.0.5-0)*
G04 #@! TF.CreationDate,2023-01-16T15:52:05+09:00*
G04 #@! TF.ProjectId,qLAMP-main,714c414d-502d-46d6-9169-6e2e6b696361,rev?*
G04 #@! TF.SameCoordinates,Original*
G04 #@! TF.FileFunction,Soldermask,Top*
G04 #@! TF.FilePolarity,Negative*
%FSLAX46Y46*%
G04 Gerber Fmt 4.6, Leading zero omitted, Abs format (unit mm)*
G04 Created by KiCad (PCBNEW (6.0.5-0)) date 2023-01-16 15:52:05*
%MOMM*%
%LPD*%
G01*
G04 APERTURE LIST*
G04 Aperture macros list*
%AMRoundRect*
0 Rectangle with rounded corners*
0 $1 Rounding radius*
0 $2 $3 $4 $5 $6 $7 $8 $9 X,Y pos of 4 corners*
0 Add a 4 corners polygon primitive as box body*
4,1,4,$2,$3,$4,$5,$6,$7,$8,$9,$2,$3,0*
0 Add four circle primitives for the rounded corners*
1,1,$1+$1,$2,$3*
1,1,$1+$1,$4,$5*
1,1,$1+$1,$6,$7*
1,1,$1+$1,$8,$9*
0 Add four rect primitives between the rounded corners*
20,1,$1+$1,$2,$3,$4,$5,0*
20,1,$1+$1,$4,$5,$6,$7,0*
20,1,$1+$1,$6,$7,$8,$9,0*
20,1,$1+$1,$8,$9,$2,$3,0*%
%AMFreePoly0*
4,1,22,0.500000,-0.750000,0.000000,-0.750000,0.000000,-0.745033,-0.079941,-0.743568,-0.215256,-0.701293,-0.333266,-0.622738,-0.424486,-0.514219,-0.481581,-0.384460,-0.499164,-0.250000,-0.500000,-0.250000,-0.500000,0.250000,-0.499164,0.250000,-0.499963,0.256109,-0.478152,0.396186,-0.417904,0.524511,-0.324060,0.630769,-0.204165,0.706417,-0.067858,0.745374,0.000000,0.744959,0.000000,0.750000,
0.500000,0.750000,0.500000,-0.750000,0.500000,-0.750000,$1*%
%AMFreePoly1*
4,1,20,0.000000,0.744959,0.073905,0.744508,0.209726,0.703889,0.328688,0.626782,0.421226,0.519385,0.479903,0.390333,0.500000,0.250000,0.500000,-0.250000,0.499851,-0.262216,0.476331,-0.402017,0.414519,-0.529596,0.319384,-0.634700,0.198574,-0.708877,0.061801,-0.746166,0.000000,-0.745033,0.000000,-0.750000,-0.500000,-0.750000,-0.500000,0.750000,0.000000,0.750000,0.000000,0.744959,
0.000000,0.744959,$1*%
G04 Aperture macros list end*
%ADD10C,0.475000*%
%ADD11R,1.000000X1.000000*%
%ADD12RoundRect,0.200000X-0.200000X-0.275000X0.200000X-0.275000X0.200000X0.275000X-0.200000X0.275000X0*%
%ADD13C,2.000000*%
%ADD14FreePoly0,270.000000*%
%ADD15FreePoly1,270.000000*%
%ADD16RoundRect,0.100000X-0.100000X0.637500X-0.100000X-0.637500X0.100000X-0.637500X0.100000X0.637500X0*%
%ADD17RoundRect,0.150000X-0.512500X-0.150000X0.512500X-0.150000X0.512500X0.150000X-0.512500X0.150000X0*%
%ADD18RoundRect,0.250000X-0.250000X-0.475000X0.250000X-0.475000X0.250000X0.475000X-0.250000X0.475000X0*%
%ADD19R,1.219200X3.098800*%
%ADD20RoundRect,0.225000X-0.225000X-0.250000X0.225000X-0.250000X0.225000X0.250000X-0.225000X0.250000X0*%
%ADD21RoundRect,0.250000X0.325000X1.100000X-0.325000X1.100000X-0.325000X-1.100000X0.325000X-1.100000X0*%
%ADD22RoundRect,0.225000X0.225000X0.250000X-0.225000X0.250000X-0.225000X-0.250000X0.225000X-0.250000X0*%
%ADD23RoundRect,0.250000X1.100000X-0.325000X1.100000X0.325000X-1.100000X0.325000X-1.100000X-0.325000X0*%
%ADD24RoundRect,0.225000X-0.250000X0.225000X-0.250000X-0.225000X0.250000X-0.225000X0.250000X0.225000X0*%
%ADD25RoundRect,0.250000X0.250000X0.475000X-0.250000X0.475000X-0.250000X-0.475000X0.250000X-0.475000X0*%
%ADD26RoundRect,0.109795X0.765205X0.109794X-0.765205X0.109794X-0.765205X-0.109794X0.765205X-0.109794X0*%
%ADD27RoundRect,0.109795X0.109795X-0.552705X0.109795X0.552705X-0.109795X0.552705X-0.109795X-0.552705X0*%
%ADD28RoundRect,0.150000X0.512500X0.150000X-0.512500X0.150000X-0.512500X-0.150000X0.512500X-0.150000X0*%
%ADD29RoundRect,0.150000X-0.150000X0.825000X-0.150000X-0.825000X0.150000X-0.825000X0.150000X0.825000X0*%
%ADD30R,1.320800X0.558800*%
%ADD31R,0.558800X1.320800*%
%ADD32R,2.400000X4.680000*%
%ADD33RoundRect,0.100000X0.687500X0.100000X-0.687500X0.100000X-0.687500X-0.100000X0.687500X-0.100000X0*%
%ADD34RoundRect,0.200000X0.200000X0.275000X-0.200000X0.275000X-0.200000X-0.275000X0.200000X-0.275000X0*%
%ADD35R,1.700000X1.700000*%
%ADD36O,1.700000X1.700000*%
%ADD37RoundRect,0.200000X-0.275000X0.200000X-0.275000X-0.200000X0.275000X-0.200000X0.275000X0.200000X0*%
%ADD38RoundRect,0.250000X-1.100000X0.325000X-1.100000X-0.325000X1.100000X-0.325000X1.100000X0.325000X0*%
%ADD39R,3.500000X3.500000*%
%ADD40RoundRect,0.750000X-1.000000X0.750000X-1.000000X-0.750000X1.000000X-0.750000X1.000000X0.750000X0*%
%ADD41RoundRect,0.875000X-0.875000X0.875000X-0.875000X-0.875000X0.875000X-0.875000X0.875000X0.875000X0*%
%ADD42RoundRect,0.030000X0.265000X1.780000X-0.265000X1.780000X-0.265000X-1.780000X0.265000X-1.780000X0*%
%ADD43RoundRect,0.180000X0.270000X1.370000X-0.270000X1.370000X-0.270000X-1.370000X0.270000X-1.370000X0*%
%ADD44RoundRect,0.030000X0.205000X1.420000X-0.205000X1.420000X-0.205000X-1.420000X0.205000X-1.420000X0*%
%ADD45RoundRect,0.180000X0.270000X1.120000X-0.270000X1.120000X-0.270000X-1.120000X0.270000X-1.120000X0*%
%ADD46RoundRect,0.180000X-0.270000X-1.370000X0.270000X-1.370000X0.270000X1.370000X-0.270000X1.370000X0*%
%ADD47RoundRect,0.030000X-0.265000X-1.780000X0.265000X-1.780000X0.265000X1.780000X-0.265000X1.780000X0*%
%ADD48RoundRect,0.030000X-0.205000X-1.420000X0.205000X-1.420000X0.205000X1.420000X-0.205000X1.420000X0*%
%ADD49RoundRect,0.180000X-0.270000X-1.120000X0.270000X-1.120000X0.270000X1.120000X-0.270000X1.120000X0*%
%ADD50RoundRect,0.100000X0.250000X0.650000X-0.250000X0.650000X-0.250000X-0.650000X0.250000X-0.650000X0*%
%ADD51RoundRect,0.100000X0.300000X0.650000X-0.300000X0.650000X-0.300000X-0.650000X0.300000X-0.650000X0*%
%ADD52O,1.000000X1.800000*%
%ADD53RoundRect,0.150000X-0.825000X-0.150000X0.825000X-0.150000X0.825000X0.150000X-0.825000X0.150000X0*%
%ADD54O,1.000000X1.000000*%
%ADD55C,1.700000*%
%ADD56RoundRect,0.250000X0.475000X-0.250000X0.475000X0.250000X-0.475000X0.250000X-0.475000X-0.250000X0*%
%ADD57RoundRect,0.225000X-0.225000X0.525000X-0.225000X-0.525000X0.225000X-0.525000X0.225000X0.525000X0*%
%ADD58RoundRect,0.225000X-0.525000X-0.225000X0.525000X-0.225000X0.525000X0.225000X-0.525000X0.225000X0*%
%ADD59RoundRect,0.225000X0.225000X-0.525000X0.225000X0.525000X-0.225000X0.525000X-0.225000X-0.525000X0*%
%ADD60RoundRect,0.225000X0.225000X-0.225000X0.225000X0.225000X-0.225000X0.225000X-0.225000X-0.225000X0*%
%ADD61R,2.000000X3.500000*%
%ADD62R,7.000000X7.000000*%
%ADD63R,1.600000X1.600000*%
%ADD64O,1.600000X1.600000*%
%ADD65RoundRect,0.200000X0.275000X-0.200000X0.275000X0.200000X-0.275000X0.200000X-0.275000X-0.200000X0*%
G04 APERTURE END LIST*
D10*
X78440000Y-129000000D02*
G75*
G03*
X78440000Y-129000000I-400000J0D01*
G01*
X76636000Y-75000000D02*
G75*
G03*
X76636000Y-75000000I-400000J0D01*
G01*
X145380000Y-128830000D02*
G75*
G03*
X145380000Y-128830000I-400000J0D01*
G01*
X204260000Y-129840000D02*
G75*
G03*
X204260000Y-129840000I-400000J0D01*
G01*
X144825000Y-75770000D02*
G75*
G03*
X144825000Y-75770000I-400000J0D01*
G01*
X207750000Y-74695000D02*
G75*
G03*
X207750000Y-74695000I-400000J0D01*
G01*
D11*
X192375993Y-120700013D03*
D12*
X183576000Y-99392000D03*
X185226000Y-99392000D03*
D13*
X205069999Y-89680009D03*
X205069999Y-93180009D03*
D14*
X70570000Y-76780000D03*
D15*
X70570000Y-78080000D03*
D16*
X193553292Y-81537300D03*
X192903292Y-81537300D03*
X192253292Y-81537300D03*
X191603292Y-81537300D03*
X190953292Y-81537300D03*
X190303292Y-81537300D03*
X189653292Y-81537300D03*
X189003292Y-81537300D03*
X189003292Y-87262300D03*
X189653292Y-87262300D03*
X190303292Y-87262300D03*
X190953292Y-87262300D03*
X191603292Y-87262300D03*
X192253292Y-87262300D03*
X192903292Y-87262300D03*
X193553292Y-87262300D03*
D17*
X127665878Y-102840011D03*
X127665878Y-103790011D03*
X127665878Y-104740011D03*
X129940878Y-104740011D03*
X129940878Y-102840011D03*
D18*
X127853378Y-100919989D03*
X129753378Y-100919989D03*
D19*
X180659989Y-89207289D03*
X180659989Y-94312689D03*
D20*
X128028376Y-98850000D03*
X129578376Y-98850000D03*
D21*
X176015000Y-90060000D03*
X173065000Y-90060000D03*
D22*
X174005000Y-92630000D03*
X172455000Y-92630000D03*
D23*
X184109995Y-84084995D03*
X184109995Y-81134995D03*
D24*
X180650007Y-104885012D03*
X180650007Y-106435012D03*
D25*
X129733376Y-106560000D03*
X127833376Y-106560000D03*
D20*
X195195000Y-81780000D03*
X196745000Y-81780000D03*
D23*
X95290005Y-99884989D03*
X95290005Y-96934989D03*
D13*
X191850010Y-90799996D03*
X191850010Y-94299996D03*
D26*
X86295999Y-106695011D03*
X86295999Y-106045013D03*
X86295999Y-105395012D03*
X86295999Y-104745012D03*
X86295999Y-104095012D03*
X86295999Y-103445012D03*
X86295999Y-102795012D03*
X86295999Y-102145012D03*
X86295999Y-101495012D03*
X86295999Y-100845012D03*
X86295999Y-100195011D03*
X86295999Y-99545013D03*
X79095999Y-99545013D03*
X79095999Y-100195011D03*
X79095999Y-100845012D03*
X79095999Y-101495012D03*
X79095999Y-102145012D03*
X79095999Y-102795012D03*
X79095999Y-103445012D03*
X79095999Y-104095012D03*
X79095999Y-104745012D03*
X79095999Y-105395012D03*
X79095999Y-106045013D03*
X79095999Y-106695011D03*
D24*
X96469200Y-103754992D03*
X96469200Y-105304992D03*
D20*
X183625000Y-124360000D03*
X185175000Y-124360000D03*
X91300000Y-102108000D03*
X92850000Y-102108000D03*
D27*
X157664993Y-97555900D03*
X158314993Y-97555900D03*
X158964993Y-97555900D03*
X159614993Y-97555900D03*
X159614993Y-95280900D03*
X158964993Y-95280900D03*
X158314993Y-95280900D03*
X157664993Y-95280900D03*
D28*
X94736500Y-105479992D03*
X94736500Y-104529992D03*
X94736500Y-103579992D03*
X92461500Y-103579992D03*
X92461500Y-105479992D03*
D12*
X154665012Y-95529400D03*
X156315012Y-95529400D03*
X154665012Y-97307400D03*
X156315012Y-97307400D03*
D29*
X170255000Y-89375000D03*
X168985000Y-89375000D03*
X167715000Y-89375000D03*
X166445000Y-89375000D03*
X165175000Y-89375000D03*
X163905000Y-89375000D03*
X162635000Y-89375000D03*
X161365000Y-89375000D03*
X161365000Y-94325000D03*
X162635000Y-94325000D03*
X163905000Y-94325000D03*
X165175000Y-94325000D03*
X166445000Y-94325000D03*
X167715000Y-94325000D03*
X168985000Y-94325000D03*
X170255000Y-94325000D03*
D20*
X128028376Y-97050000D03*
X129578376Y-97050000D03*
D30*
X198277800Y-92670200D03*
X198277800Y-94549800D03*
X200462200Y-93610000D03*
X185287800Y-92210200D03*
X185287800Y-94089800D03*
X187472200Y-93150000D03*
D31*
X194820200Y-85652200D03*
X196699800Y-85652200D03*
X195760000Y-83467800D03*
D32*
X139677500Y-103573000D03*
D33*
X142540000Y-107148000D03*
X142540000Y-106498000D03*
X142540000Y-105848000D03*
X142540000Y-105198000D03*
X142540000Y-104548000D03*
X142540000Y-103898000D03*
X142540000Y-103248000D03*
X142540000Y-102598000D03*
X142540000Y-101948000D03*
X142540000Y-101298000D03*
X142540000Y-100648000D03*
X142540000Y-99998000D03*
X136815000Y-99998000D03*
X136815000Y-100648000D03*
X136815000Y-101298000D03*
X136815000Y-101948000D03*
X136815000Y-102598000D03*
X136815000Y-103248000D03*
X136815000Y-103898000D03*
X136815000Y-104548000D03*
X136815000Y-105198000D03*
X136815000Y-105848000D03*
X136815000Y-106498000D03*
X136815000Y-107148000D03*
D34*
X185226000Y-97360000D03*
X183576000Y-97360000D03*
D25*
X201475000Y-97020000D03*
X199575000Y-97020000D03*
D35*
X156300000Y-92185000D03*
D36*
X156300000Y-89645000D03*
D35*
X167780001Y-85360000D03*
D36*
X167780001Y-82820000D03*
D35*
X159590000Y-85360000D03*
D36*
X159590000Y-82820000D03*
D35*
X162320022Y-85360001D03*
D36*
X162320022Y-82820001D03*
D35*
X165050009Y-85360000D03*
D36*
X165050009Y-82820000D03*
D35*
X159030010Y-92185007D03*
D36*
X159030010Y-89645007D03*
D34*
X198845000Y-91305000D03*
X197195000Y-91305000D03*
D12*
X175575000Y-97360000D03*
X177225000Y-97360000D03*
D37*
X187500006Y-79896200D03*
X187500006Y-81546200D03*
X187500006Y-82944200D03*
X187500006Y-84594200D03*
X196100000Y-92745000D03*
X196100000Y-94395000D03*
D12*
X178242000Y-97360000D03*
X179892000Y-97360000D03*
D34*
X134865000Y-105430000D03*
X133215000Y-105430000D03*
X201575000Y-98940000D03*
X199925000Y-98940000D03*
D37*
X187680000Y-86275000D03*
X187680000Y-87925000D03*
D22*
X134815000Y-107000000D03*
X133265000Y-107000000D03*
D38*
X178450011Y-104185012D03*
X178450011Y-107135012D03*
D20*
X183334995Y-86060001D03*
X184884995Y-86060001D03*
D39*
X204295781Y-85809811D03*
D40*
X204295781Y-79809811D03*
D41*
X199595781Y-82809811D03*
D42*
X127812219Y-111501633D03*
D43*
X128032219Y-111501633D03*
D44*
X123717219Y-111501633D03*
D45*
X123502219Y-111501633D03*
D42*
X136812219Y-92502054D03*
D43*
X137032219Y-92502054D03*
D44*
X132717219Y-92502054D03*
D45*
X132502219Y-92502054D03*
D46*
X97282211Y-111501633D03*
D47*
X97502211Y-111501633D03*
D48*
X101597211Y-111501633D03*
D49*
X101812211Y-111501633D03*
D47*
X97502211Y-92502054D03*
D46*
X97282211Y-92502054D03*
D48*
X101597211Y-92502054D03*
D49*
X101812211Y-92502054D03*
D34*
X179892000Y-99392000D03*
X178242000Y-99392000D03*
D50*
X194788290Y-78669782D03*
X192788290Y-78669782D03*
D51*
X191588290Y-78669782D03*
D50*
X193788290Y-78669782D03*
X195788290Y-78669782D03*
D51*
X196988290Y-78669782D03*
D52*
X198608290Y-78419782D03*
X198608290Y-74619782D03*
X189968290Y-78419782D03*
X189968290Y-74619782D03*
D38*
X88859995Y-96934989D03*
X88859995Y-99884989D03*
D53*
X98325000Y-97665000D03*
X98325000Y-98935000D03*
X98325000Y-100205000D03*
X98325000Y-101475000D03*
X98325000Y-102745000D03*
X98325000Y-104015000D03*
X98325000Y-105285000D03*
X98325000Y-106555000D03*
X103275000Y-106555000D03*
X103275000Y-105285000D03*
X103275000Y-104015000D03*
X103275000Y-102745000D03*
X103275000Y-101475000D03*
X103275000Y-100205000D03*
X103275000Y-98935000D03*
X103275000Y-97665000D03*
D11*
X164221000Y-126813000D03*
D54*
X164221000Y-125543000D03*
X162951000Y-126813000D03*
X162951000Y-125543000D03*
X161681000Y-126813000D03*
X161681000Y-125543000D03*
X160411000Y-126813000D03*
X160411000Y-125543000D03*
X159141000Y-126813000D03*
X159141000Y-125543000D03*
D46*
X79282211Y-111501633D03*
D47*
X79502211Y-111501633D03*
D48*
X83597211Y-111501633D03*
D49*
X83812211Y-111501633D03*
D43*
X119032219Y-111501633D03*
D42*
X118812219Y-111501633D03*
D44*
X114717219Y-111501633D03*
D45*
X114502219Y-111501633D03*
D47*
X106502211Y-111501633D03*
D46*
X106282211Y-111501633D03*
D48*
X110597211Y-111501633D03*
D49*
X110812211Y-111501633D03*
D34*
X92900000Y-99568000D03*
X91250000Y-99568000D03*
X92900000Y-97028000D03*
X91250000Y-97028000D03*
D42*
X118812219Y-92502054D03*
D43*
X119032219Y-92502054D03*
D44*
X114717219Y-92502054D03*
D45*
X114502219Y-92502054D03*
D46*
X106282211Y-92502054D03*
D47*
X106502211Y-92502054D03*
D48*
X110597211Y-92502054D03*
D49*
X110812211Y-92502054D03*
D55*
X187611012Y-98175017D03*
X190151012Y-98175017D03*
X192691012Y-98175017D03*
X195231012Y-98175017D03*
X187611012Y-122675017D03*
X190151012Y-122675017D03*
X192691012Y-122675017D03*
X195231012Y-122675017D03*
X160611012Y-106615017D03*
X160611012Y-109155017D03*
X160611012Y-111695017D03*
X160611012Y-114235017D03*
D56*
X198308292Y-87719800D03*
X198308292Y-85819800D03*
D35*
X186001000Y-129199996D03*
D36*
X188541000Y-129199996D03*
X191081000Y-129199996D03*
X193621000Y-129199996D03*
X196161000Y-129199996D03*
X198701000Y-129199996D03*
X201241000Y-129199996D03*
D34*
X182559000Y-97360000D03*
X180909000Y-97360000D03*
D47*
X88502211Y-111501633D03*
D46*
X88282211Y-111501633D03*
D49*
X92812211Y-111501633D03*
D48*
X92597211Y-111501633D03*
D43*
X128032219Y-92502054D03*
D42*
X127812219Y-92502054D03*
D45*
X123502219Y-92502054D03*
D44*
X123717219Y-92502054D03*
D11*
X159141000Y-77187000D03*
D54*
X159141000Y-78457000D03*
X160411000Y-77187000D03*
X160411000Y-78457000D03*
X161681000Y-77187000D03*
X161681000Y-78457000D03*
X162951000Y-77187000D03*
X162951000Y-78457000D03*
X164221000Y-77187000D03*
X164221000Y-78457000D03*
D57*
X201266000Y-101670000D03*
X199996000Y-101670000D03*
X198726000Y-101670000D03*
X197456000Y-101670000D03*
X196186000Y-101670000D03*
X194916000Y-101670000D03*
X193646000Y-101670000D03*
X192376000Y-101670000D03*
X191106000Y-101670000D03*
X189836000Y-101670000D03*
X188566000Y-101670000D03*
X187296000Y-101670000D03*
X186026000Y-101670000D03*
X184756000Y-101670000D03*
D58*
X183506000Y-103435000D03*
X183506000Y-104705000D03*
X183506000Y-105975000D03*
X183506000Y-107245000D03*
X183506000Y-108515000D03*
X183506000Y-109785000D03*
X183506000Y-111055000D03*
X183506000Y-112325000D03*
X183506000Y-113595000D03*
X183506000Y-114865000D03*
X183506000Y-116135000D03*
X183506000Y-117405000D03*
D59*
X184756000Y-119170000D03*
X186026000Y-119170000D03*
X187296000Y-119170000D03*
X188566000Y-119170000D03*
X189836000Y-119170000D03*
X191106000Y-119170000D03*
X192375993Y-119169993D03*
X193646000Y-119170000D03*
X194916000Y-119170000D03*
X196186000Y-119170000D03*
X197456000Y-119170000D03*
X198726000Y-119170000D03*
X199996000Y-119170000D03*
X201266000Y-119170000D03*
D60*
X192146000Y-107520000D03*
X194946000Y-108920000D03*
X193546000Y-110320000D03*
X192146000Y-110320000D03*
X194946000Y-107520000D03*
X192146000Y-108920000D03*
X194946000Y-110320000D03*
X193546000Y-108920000D03*
X193546000Y-107520000D03*
D22*
X96065005Y-102108000D03*
X94515005Y-102108000D03*
D12*
X91250000Y-98298000D03*
X92900000Y-98298000D03*
D43*
X146032219Y-111501633D03*
D42*
X145812219Y-111501633D03*
D44*
X141717219Y-111501633D03*
D45*
X141502219Y-111501633D03*
D34*
X177225000Y-99392000D03*
X175575000Y-99392000D03*
D61*
X176570000Y-85195000D03*
X181150000Y-85195000D03*
D62*
X178870000Y-77795000D03*
D61*
X171050006Y-103525012D03*
X175630006Y-103525012D03*
D62*
X173330006Y-110925012D03*
D63*
X106029989Y-105809999D03*
D64*
X108569989Y-105809999D03*
X111109989Y-105809999D03*
X113649989Y-105809999D03*
X116189989Y-105809999D03*
X118729989Y-105809999D03*
X121269989Y-105809999D03*
X123809989Y-105809999D03*
X123809989Y-98189999D03*
X121269989Y-98189999D03*
X118729989Y-98189999D03*
X116189989Y-98189999D03*
X113649989Y-98189999D03*
X111109989Y-98189999D03*
X108569989Y-98189999D03*
X106029989Y-98189999D03*
D34*
X92900000Y-100838000D03*
X91250000Y-100838000D03*
D61*
X168099999Y-103525012D03*
X163519999Y-103525012D03*
D62*
X165799999Y-110925012D03*
D65*
X90932000Y-105354992D03*
X90932000Y-103704992D03*
D46*
X88282211Y-92502054D03*
D47*
X88502211Y-92502054D03*
D48*
X92597211Y-92502054D03*
D49*
X92812211Y-92502054D03*
D43*
X146032219Y-92502054D03*
D42*
X145812219Y-92502054D03*
D44*
X141717219Y-92502054D03*
D45*
X141502219Y-92502054D03*
D46*
X79282211Y-92502054D03*
D47*
X79502211Y-92502054D03*
D49*
X83812211Y-92502054D03*
D48*
X83597211Y-92502054D03*
D35*
X88719990Y-104785008D03*
D36*
X88719990Y-102245008D03*
D12*
X180909000Y-99392000D03*
X182559000Y-99392000D03*
D42*
X136812219Y-111501633D03*
D43*
X137032219Y-111501633D03*
D45*
X132502219Y-111501633D03*
D44*
X132717219Y-111501633D03*
D11*
X88240000Y-107050000D03*
X94590006Y-107050002D03*
X90780000Y-107050000D03*
D54*
X89510000Y-107050000D03*
D11*
X92050000Y-107050000D03*
D54*
X93320000Y-107050000D03*
M02*
