G04 #@! TF.GenerationSoftware,KiCad,Pcbnew,(6.0.5-0)*
G04 #@! TF.CreationDate,2023-01-16T15:52:05+09:00*
G04 #@! TF.ProjectId,qLAMP-main,714c414d-502d-46d6-9169-6e2e6b696361,rev?*
G04 #@! TF.SameCoordinates,Original*
G04 #@! TF.FileFunction,Soldermask,Bot*
G04 #@! TF.FilePolarity,Negative*
%FSLAX46Y46*%
G04 Gerber Fmt 4.6, Leading zero omitted, Abs format (unit mm)*
G04 Created by KiCad (PCBNEW (6.0.5-0)) date 2023-01-16 15:52:05*
%MOMM*%
%LPD*%
G01*
G04 APERTURE LIST*
G04 Aperture macros list*
%AMRoundRect*
0 Rectangle with rounded corners*
0 $1 Rounding radius*
0 $2 $3 $4 $5 $6 $7 $8 $9 X,Y pos of 4 corners*
0 Add a 4 corners polygon primitive as box body*
4,1,4,$2,$3,$4,$5,$6,$7,$8,$9,$2,$3,0*
0 Add four circle primitives for the rounded corners*
1,1,$1+$1,$2,$3*
1,1,$1+$1,$4,$5*
1,1,$1+$1,$6,$7*
1,1,$1+$1,$8,$9*
0 Add four rect primitives between the rounded corners*
20,1,$1+$1,$2,$3,$4,$5,0*
20,1,$1+$1,$4,$5,$6,$7,0*
20,1,$1+$1,$6,$7,$8,$9,0*
20,1,$1+$1,$8,$9,$2,$3,0*%
%AMFreePoly0*
4,1,6,1.000000,0.000000,0.500000,-0.750000,-0.500000,-0.750000,-0.500000,0.750000,0.500000,0.750000,1.000000,0.000000,1.000000,0.000000,$1*%
%AMFreePoly1*
4,1,6,0.500000,-0.750000,-0.650000,-0.750000,-0.150000,0.000000,-0.650000,0.750000,0.500000,0.750000,0.500000,-0.750000,0.500000,-0.750000,$1*%
G04 Aperture macros list end*
%ADD10R,1.000000X1.000000*%
%ADD11C,2.000000*%
%ADD12R,1.700000X1.700000*%
%ADD13O,1.700000X1.700000*%
%ADD14R,3.500000X3.500000*%
%ADD15RoundRect,0.750000X-1.000000X0.750000X-1.000000X-0.750000X1.000000X-0.750000X1.000000X0.750000X0*%
%ADD16RoundRect,0.875000X-0.875000X0.875000X-0.875000X-0.875000X0.875000X-0.875000X0.875000X0.875000X0*%
%ADD17O,1.000000X1.800000*%
%ADD18O,1.000000X1.000000*%
%ADD19C,1.700000*%
%ADD20R,1.600000X1.600000*%
%ADD21O,1.600000X1.600000*%
%ADD22R,1.500000X1.500000*%
%ADD23FreePoly0,270.000000*%
%ADD24FreePoly0,90.000000*%
%ADD25FreePoly0,180.000000*%
%ADD26FreePoly1,180.000000*%
G04 APERTURE END LIST*
D10*
X192375993Y-120700013D03*
D11*
X205069999Y-89680009D03*
X205069999Y-93180009D03*
X191850010Y-90799996D03*
X191850010Y-94299996D03*
D12*
X156300000Y-92185000D03*
D13*
X156300000Y-89645000D03*
D12*
X167780001Y-85360000D03*
D13*
X167780001Y-82820000D03*
D12*
X159590000Y-85360000D03*
D13*
X159590000Y-82820000D03*
D12*
X162320022Y-85360001D03*
D13*
X162320022Y-82820001D03*
D12*
X165050009Y-85360000D03*
D13*
X165050009Y-82820000D03*
D12*
X159030010Y-92185007D03*
D13*
X159030010Y-89645007D03*
D14*
X204295781Y-85809811D03*
D15*
X204295781Y-79809811D03*
D16*
X199595781Y-82809811D03*
D17*
X198608290Y-78419782D03*
X198608290Y-74619782D03*
X189968290Y-78419782D03*
X189968290Y-74619782D03*
D10*
X164221000Y-126813000D03*
D18*
X164221000Y-125543000D03*
X162951000Y-126813000D03*
X162951000Y-125543000D03*
X161681000Y-126813000D03*
X161681000Y-125543000D03*
X160411000Y-126813000D03*
X160411000Y-125543000D03*
X159141000Y-126813000D03*
X159141000Y-125543000D03*
D19*
X187611012Y-98175017D03*
X190151012Y-98175017D03*
X192691012Y-98175017D03*
X195231012Y-98175017D03*
X187611012Y-122675017D03*
X190151012Y-122675017D03*
X192691012Y-122675017D03*
X195231012Y-122675017D03*
X160611012Y-106615017D03*
X160611012Y-109155017D03*
X160611012Y-111695017D03*
X160611012Y-114235017D03*
D12*
X186001000Y-129199996D03*
D13*
X188541000Y-129199996D03*
X191081000Y-129199996D03*
X193621000Y-129199996D03*
X196161000Y-129199996D03*
X198701000Y-129199996D03*
X201241000Y-129199996D03*
D10*
X159141000Y-77187000D03*
D18*
X159141000Y-78457000D03*
X160411000Y-77187000D03*
X160411000Y-78457000D03*
X161681000Y-77187000D03*
X161681000Y-78457000D03*
X162951000Y-77187000D03*
X162951000Y-78457000D03*
X164221000Y-77187000D03*
X164221000Y-78457000D03*
D20*
X106029989Y-105809999D03*
D21*
X108569989Y-105809999D03*
X111109989Y-105809999D03*
X113649989Y-105809999D03*
X116189989Y-105809999D03*
X118729989Y-105809999D03*
X121269989Y-105809999D03*
X123809989Y-105809999D03*
X123809989Y-98189999D03*
X121269989Y-98189999D03*
X118729989Y-98189999D03*
X116189989Y-98189999D03*
X113649989Y-98189999D03*
X111109989Y-98189999D03*
X108569989Y-98189999D03*
X106029989Y-98189999D03*
D12*
X88719990Y-104785008D03*
D13*
X88719990Y-102245008D03*
D10*
X88240000Y-107050000D03*
X94590006Y-107050002D03*
D22*
X91240013Y-104755994D03*
X91240013Y-102355994D03*
D23*
X91240013Y-101555994D03*
D24*
X91240013Y-105555994D03*
D25*
X183415000Y-129350000D03*
D26*
X181965000Y-129350000D03*
D22*
X186957487Y-81190005D03*
X186957487Y-83590005D03*
D24*
X186957487Y-84390005D03*
D23*
X186957487Y-80390005D03*
D10*
X90780000Y-107050000D03*
D18*
X89510000Y-107050000D03*
D10*
X92050000Y-107050000D03*
D18*
X93320000Y-107050000D03*
D22*
X189100003Y-83590005D03*
X189100003Y-81190005D03*
D24*
X189100003Y-84390005D03*
D23*
X189100003Y-80390005D03*
M02*
