0
SECTION
2
HEADER
9
$INSUNITS
70
4
9
$ACADVER
1
AC1014
9
$HANDSEED
5
FFFF
0
ENDSEC
0
SECTION
2
TABLES
0
TABLE
2
VPORT
5
8
100
AcDbSymbolTable
0
ENDTAB
0
TABLE
2
LTYPE
5
5
100
AcDbSymbolTable
0
LTYPE
5
14
100
AcDbSymbolTableRecord
100
AcDbLinetypeTableRecord
2
BYBLOCK
70
0
0
LTYPE
5
15
100
AcDbSymbolTableRecord
100
AcDbLinetypeTableRecord
2
BYLAYER
70
0
0
ENDTAB
0
TABLE
2
LAYER
5
2
100
AcDbSymbolTable
70
2
0
LAYER
5
50
100
AcDbSymbolTableRecord
100
AcDbLayerTableRecord
2
0
70
0
6
CONTINUOUS
0
ENDTAB
0
TABLE
2
STYLE
5
3
100
AcDbSymbolTable
70
1
0
STYLE
5
11
100
AcDbSymbolTableRecord
100
AcDbTextStyleTableRecord
2
STANDARD
70
0
0
ENDTAB
0
TABLE
2
VIEW
5
6
100
AcDbSymbolTable
70
0
0
ENDTAB
0
TABLE
2
UCS
5
7
100
AcDbSymbolTable
70
0
0
ENDTAB
0
TABLE
2
APPID
5
9
100
AcDbSymbolTable
70
2
0
APPID
5
12
100
AcDbSymbolTableRecord
100
AcDbRegAppTableRecord
2
ACAD
70
0
0
ENDTAB
0
TABLE
2
DIMSTYLE
5
A
100
AcDbSymbolTable
70
1
0
ENDTAB
0
TABLE
2
BLOCK_RECORD
5
1
100
AcDbSymbolTable
70
1
0
BLOCK_RECORD
5
1F
100
AcDbSymbolTableRecord
100
AcDbBlockTableRecord
2
*MODEL_SPACE
0
BLOCK_RECORD
5
1B
100
AcDbSymbolTableRecord
100
AcDbBlockTableRecord
2
*PAPER_SPACE
0
ENDTAB
0
ENDSEC
0
SECTION
2
BLOCKS
0
BLOCK
5
20
100
AcDbEntity
100
AcDbBlockBegin
2
*MODEL_SPACE
0
ENDBLK
5
21
100
AcDbEntity
100
AcDbBlockEnd
0
BLOCK
5
1C
100
AcDbEntity
100
AcDbBlockBegin
2
*PAPER_SPACE
0
ENDBLK
5
1D
100
AcDbEntity
100
AcDbBlockEnd
0
ENDSEC
0
SECTION
2
ENTITIES
0
CIRCLE
5
100
100
AcDbEntity
8
0
100
AcDbCircle
10
29.808113716644705
20
48.717270122661432
30
0
40
3.2500000000000018
210
0
220
0
230
1
0
CIRCLE
5
101
100
AcDbEntity
8
0
100
AcDbCircle
10
112.9801137166446
20
48.720417207438516
30
0
40
3.2499999999999929
210
0
220
0
230
1
0
ARC
5
102
100
AcDbEntity
8
0
100
AcDbCircle
10
31.369067488876428
20
15.720417207438437
30
0
40
0.99999999999999201
210
0
220
0
230
1
100
AcDbArc
50
180
51
270.00000000000023
0
LINE
5
103
100
AcDbEntity
8
0
100
AcDbLine
10
31.369067488876432
20
14.720417207438445
30
0
11
116.36906748887642
21
14.720417207438441
31
0
0
LINE
5
104
100
AcDbEntity
8
0
100
AcDbLine
10
116.36906748887642
20
14.720417207438441
30
0
11
112.36906748887642
21
14.723564292215521
31
0
0
ARC
5
105
100
AcDbEntity
8
0
100
AcDbCircle
10
112.36906748887642
20
15.723564292215517
30
0
40
0.99999999999999645
210
-0
220
0
230
1
100
AcDbArc
50
-90
51
0
0
LINE
5
106
100
AcDbEntity
8
0
100
AcDbLine
10
113.36906748887642
20
15.723564292215517
30
0
11
113.36906748887644
21
19.223146292215674
31
0
0
ARC
5
107
100
AcDbEntity
8
0
100
AcDbCircle
10
114.36906748887644
20
19.223146292215681
30
0
40
0.99999999999998757
210
0
220
-0
230
1
100
AcDbArc
50
90
51
180
0
LINE
5
108
100
AcDbEntity
8
0
100
AcDbLine
10
114.36906748887644
20
20.22314629221567
30
0
11
118.36906748887644
21
20.223146292215681
31
0
0
LINE
5
109
100
AcDbEntity
8
0
100
AcDbLine
10
118.36906748887644
20
20.223146292215681
30
0
11
118.36906748887644
21
17.723146292215688
31
0
0
LINE
5
110
100
AcDbEntity
8
0
100
AcDbLine
10
118.36906748887644
20
17.723146292215688
30
0
11
116.36906748887642
21
17.723146292215688
31
0
0
ARC
5
111
100
AcDbEntity
8
0
100
AcDbCircle
10
116.36906748887642
20
16.723146292215691
30
0
40
0.99999999999999645
210
0
220
-0
230
1
100
AcDbArc
50
90
51
180
0
LINE
5
112
100
AcDbEntity
8
0
100
AcDbLine
10
115.36906748887644
20
16.723146292215691
30
0
11
115.36906748887644
21
15.723564292215517
31
0
0
ARC
5
113
100
AcDbEntity
8
0
100
AcDbCircle
10
116.36906748887642
20
15.723564292215517
30
0
40
0.99999999999999645
210
0
220
0
230
1
100
AcDbArc
50
180
51
270
0
LINE
5
114
100
AcDbEntity
8
0
100
AcDbLine
10
116.36906748887642
20
14.723564292215521
30
0
11
116.36906748887642
21
14.720417207438441
31
0
0
LINE
5
115
100
AcDbEntity
8
0
100
AcDbLine
10
116.36906748887642
20
14.720417207438441
30
0
11
120.04425471664467
21
14.720417207438448
31
0
0
ARC
5
116
100
AcDbEntity
8
0
100
AcDbCircle
10
120.04425471664467
20
16.720417207438448
30
0
40
2.0000000000000018
210
0
220
0
230
1
100
AcDbArc
50
-90
51
0
0
LINE
5
117
100
AcDbEntity
8
0
100
AcDbLine
10
122.04425471664466
20
16.720417207438452
30
0
11
122.04425471664472
21
80.720417207438473
31
0
0
ARC
5
118
100
AcDbEntity
8
0
100
AcDbCircle
10
120.04425471664473
20
80.720417207438473
30
0
40
1.9999999999999929
210
0
220
0
230
1
100
AcDbArc
50
0
51
90
0
LINE
5
119
100
AcDbEntity
8
0
100
AcDbLine
10
120.04425471664473
20
82.720417207438459
30
0
11
-27.86074528335531
21
82.720417207438459
31
0
0
ARC
5
120
100
AcDbEntity
8
0
100
AcDbCircle
10
-27.86074528335531
20
80.720417207438473
30
0
40
1.9999999999999929
210
0
220
-0
230
1
100
AcDbArc
50
90
51
180
0
LINE
5
121
100
AcDbEntity
8
0
100
AcDbLine
10
-29.860745283355303
20
80.720417207438473
30
0
11
-29.860745283355318
21
16.720417207438434
31
0
0
ARC
5
122
100
AcDbEntity
8
0
100
AcDbCircle
10
-27.860745283355307
20
16.720417207438445
30
0
40
2.0000000000000107
210
0
220
0
230
1
100
AcDbArc
50
180
51
269.99999999999989
0
LINE
5
123
100
AcDbEntity
8
0
100
AcDbLine
10
-27.86074528335531
20
14.720417207438437
30
0
11
27.369067488876428
21
14.720417207438441
31
0
0
ARC
5
124
100
AcDbEntity
8
0
100
AcDbCircle
10
27.369067488876432
20
15.720417207438437
30
0
40
0.99999999999999645
210
0
220
0
230
1
100
AcDbArc
50
-90.000000000000199
51
0
0
LINE
5
125
100
AcDbEntity
8
0
100
AcDbLine
10
28.369067488876428
20
15.720417207438437
30
0
11
28.369067488876425
21
16.719999207438612
31
0
0
ARC
5
126
100
AcDbEntity
8
0
100
AcDbCircle
10
27.369067488876432
20
16.719999207438612
30
0
40
0.99999999999999201
210
0
220
-0
230
1
100
AcDbArc
50
0
51
90.000000000000199
0
LINE
5
127
100
AcDbEntity
8
0
100
AcDbLine
10
27.369067488876428
20
17.719999207438605
30
0
11
25.369067488876421
21
17.719999207438608
31
0
0
LINE
5
128
100
AcDbEntity
8
0
100
AcDbLine
10
25.369067488876421
20
17.719999207438608
30
0
11
25.369067488876421
21
20.219999207438597
31
0
0
LINE
5
129
100
AcDbEntity
8
0
100
AcDbLine
10
25.369067488876421
20
20.219999207438597
30
0
11
29.369067488876432
21
20.21999920743859
31
0
0
ARC
5
130
100
AcDbEntity
8
0
100
AcDbCircle
10
29.369067488876425
20
19.21999920743859
30
0
40
1.0000000000000053
210
0
220
-0
230
1
100
AcDbArc
50
0
51
89.999999999999588
0
LINE
5
131
100
AcDbEntity
8
0
100
AcDbLine
10
30.369067488876432
20
19.219999207438594
30
0
11
30.369067488876436
21
15.720417207438437
31
0
0
LWPOLYLINE
5
132
100
AcDbEntity
8
0
100
AcDbPolyline
90
12
70
1
43
0.0
10
-3.071797522159605
20
47.395645294715614
42
-0.41421356237309537
10
-2.0717975221596054
20
46.395645294715621
10
-2.0717975221596063
20
43.395652294715617
10
25.428199897440507
20
43.395652294715632
10
25.428199897440507
20
71.195652294715615
10
-2.0717975221596063
20
71.195645294715604
10
-2.0717975221596086
20
68.195645294715604
42
-0.41421356237309537
10
-3.0717975221596063
20
67.195645294715604
10
-11.971793522159452
20
67.195645294715604
42
0.41421356237309509
10
-12.971793522159452
20
66.195645294715604
10
-12.971793522159452
20
48.395645294715607
42
0.41421356237309509
10
-11.971793522159452
20
47.395645294715614
0
CIRCLE
5
133
100
AcDbEntity
8
0
100
AcDbCircle
10
-21.860790522159519
20
74.720646294715579
30
0
40
1.6000000000000014
210
0
220
0
230
1
0
LWPOLYLINE
5
134
100
AcDbEntity
8
0
100
AcDbPolyline
90
4
70
1
43
0.0
10
-26.360745283355303
20
73.720417207438459
10
-27.860745283355307
20
73.720417207438459
10
-27.86074528335531
20
58.720417207438459
10
-26.360745283355307
20
58.720417207438459
0
LWPOLYLINE
5
135
100
AcDbEntity
8
0
100
AcDbPolyline
90
4
70
1
43
0.0
10
-26.360745283355303
20
38.720417207438459
10
-27.86074528335531
20
38.720417207438459
10
-27.86074528335531
20
23.720417207438462
10
-26.360745283355307
20
23.720417207438462
0
LWPOLYLINE
5
136
100
AcDbEntity
8
0
100
AcDbPolyline
90
4
70
1
43
0.0
10
118.5442547166447
20
73.720417207438445
10
118.5442547166447
20
58.720417207438445
10
120.04425471664473
20
58.720417207438445
10
120.04425471664473
20
73.720417207438445
0
LWPOLYLINE
5
137
100
AcDbEntity
8
0
100
AcDbPolyline
90
4
70
1
43
0.0
10
-9.5232452833553261
20
16.720417207438434
10
20.476754716644674
20
16.720417207438434
10
20.476754716644674
20
18.220417207438455
10
-9.5232452833553261
20
18.220417207438455
0
LWPOLYLINE
5
138
100
AcDbEntity
8
0
100
AcDbPolyline
90
4
70
1
43
0.0
10
70.476754716644706
20
79.220417207438473
10
100.47675471664471
20
79.220417207438473
10
100.47675471664471
20
80.720417207438473
10
70.476754716644706
20
80.720417207438473
0
LWPOLYLINE
5
139
100
AcDbEntity
8
0
100
AcDbPolyline
90
4
70
1
43
0.0
10
120.04425471664473
20
38.720417207438445
10
118.54425471664469
20
38.720417207438445
10
118.54425471664469
20
23.720417207438445
10
120.04425471664473
20
23.720417207438445
0
LWPOLYLINE
5
140
100
AcDbEntity
8
0
100
AcDbPolyline
90
4
70
1
43
0.0
10
70.476754716644678
20
16.720417207438434
10
100.47675471664468
20
16.720417207438434
10
100.47675471664468
20
18.220417207438437
10
70.476754716644678
20
18.220417207438437
0
LWPOLYLINE
5
141
100
AcDbEntity
8
0
100
AcDbPolyline
90
4
70
1
43
0.0
10
-9.523245283355287
20
79.220417207438473
10
20.476754716644709
20
79.220417207438473
10
20.476754716644709
20
80.720417207438473
10
-9.523245283355287
20
80.720417207438473
0
LWPOLYLINE
5
142
100
AcDbEntity
8
0
100
AcDbPolyline
90
4
70
1
43
0.0
10
22.908766924548516
20
22.822999207438599
10
-6.0912330754515054
20
22.822999207438599
10
-6.0912330754515054
20
21.222999207438598
10
22.908766924548516
20
21.222999207438598
0
CIRCLE
5
143
100
AcDbEntity
8
0
100
AcDbCircle
10
112.98011371664471
20
66.719584207438459
30
0
40
1.6000000000000003
210
0
220
-0
230
1
0
CIRCLE
5
144
100
AcDbEntity
8
0
100
AcDbCircle
10
29.808113716644691
20
66.719584207438473
30
0
40
1.6000000000000003
210
0
220
-0
230
1
0
CIRCLE
5
145
100
AcDbEntity
8
0
100
AcDbCircle
10
112.98011371664471
20
30.721250207438455
30
0
40
1.6000000000000003
210
0
220
-0
230
1
0
LWPOLYLINE
5
146
100
AcDbEntity
8
0
100
AcDbPolyline
90
12
70
1
43
0.0
10
99.687148716644728
20
22.821934207438463
10
97.101361716644718
20
22.821934207438463
10
96.74780871664305
20
23.175488207436818
42
0.66817863791416576
10
95.894253854804703
20
22.821934207428463
10
95.894254716649698
20
21.221934207428468
42
0.66817863791930532
10
96.747808107244708
20
20.868380816838457
10
97.101361716644718
20
21.221934207438473
10
99.687148716644728
20
21.221934207438473
10
100.04070171664667
20
20.868381207440422
42
0.66817863792440113
10
100.89425416427473
20
21.221934207438473
10
100.8942547166497
20
22.821934207438463
42
0.66817863791930532
10
100.04070132604471
20
23.175487598038458
0
LWPOLYLINE
5
147
100
AcDbEntity
8
0
100
AcDbPolyline
90
12
70
1
43
0.0
10
81.89425385480871
20
22.821934207428463
42
-0.6681786379141933
10
82.74780871664305
20
23.175488207436818
10
83.101361716644703
20
22.821934207438463
10
86.687148716644714
20
22.821934207438463
10
87.040701326047895
20
23.175487598035282
42
-0.66817863791930532
10
87.894254716649698
20
22.821934207438463
10
87.894254164276703
20
21.221934207438473
42
-0.66817863792440113
10
87.040701716646666
20
20.868381207440422
10
86.687148716644714
20
21.221934207438473
10
83.101361716644703
20
21.221934207438473
10
82.747808107251501
20
20.868380816831667
42
-0.66817863791927068
10
81.894254716649684
20
21.221934207428468
0
LWPOLYLINE
5
148
100
AcDbEntity
8
0
100
AcDbPolyline
90
26
70
1
43
0.0
10
44.598202107244695
20
29.575487598038475
10
44.24464871664469
20
29.92904120743848
10
44.24464871664469
20
34.821934207438474
10
98.544648716644701
20
34.82193420743846
10
98.544648716644701
20
29.929041207438463
10
98.191095716649741
20
29.575488207433413
42
0.66817860068504376
10
98.544647958064715
20
28.721934052698465
10
108.5442547166447
20
28.721934207433467
42
0.6681786379316742
10
108.89780810724473
20
29.575487598038457
10
108.5442547166447
20
29.929041207438463
10
108.5442547166447
20
33.614828207438464
10
108.89780871664826
20
33.968381207434902
42
0.66817863791440102
10
108.54425400954469
20
34.821934362168463
10
107.04425471664472
20
34.82193420743846
10
107.0442547166447
20
42.719098207438449
42
0.4142135623730977
10
106.0442547166447
20
43.719098207438464
10
36.744254716644704
20
43.719098207438464
42
0.41421356237309509
10
35.74425471664469
20
42.719098207438471
10
35.74425471664469
20
34.821934207438474
10
34.244254716644704
20
34.821934207433465
42
0.66817863791417775
10
33.890701326044699
20
33.968380816838476
10
34.244254716644704
20
33.614828207438485
10
34.244254716644704
20
29.92904120743848
10
33.890701716651151
20
29.575488207432038
42
0.66817863791699572
10
34.24425400954469
20
28.721934052698465
10
44.24464871664469
20
28.721934207433488
42
0.66817863793166132
0
LWPOLYLINE
5
149
100
AcDbEntity
8
0
100
AcDbPolyline
90
12
70
1
43
0.0
10
70.101361716644703
20
21.221934207438473
10
72.687148716644714
20
21.221934207438473
10
73.040701716646666
20
20.868381207440429
42
0.66817863792442123
10
73.894254164274713
20
21.221934207438473
10
73.894254716649698
20
22.821934207438463
42
0.66817863791928533
10
73.040701326044726
20
23.175487598038458
10
72.687148716644714
20
22.821934207438463
10
70.101361716644703
20
22.821934207438463
10
69.747808716643064
20
23.17548820743681
42
0.66817863791418119
10
68.894253854804717
20
22.821934207428463
10
68.894254716649698
20
21.221934207428468
42
0.6681786379193243
10
69.747808107244708
20
20.868380816838457
0
LWPOLYLINE
5
150
100
AcDbEntity
8
0
100
AcDbPolyline
90
12
70
1
43
0.0
10
54.894253854808703
20
22.821934207428463
42
-0.66817863791418119
10
55.74780871664305
20
23.17548820743681
10
56.101361716644718
20
22.821934207438463
10
59.687148716644707
20
22.821934207438463
10
60.040701326047888
20
23.175487598035286
42
-0.66817863791928533
10
60.894254716649684
20
22.821934207438463
10
60.894254164276703
20
21.221934207438473
42
-0.66817863792442123
10
60.040701716646659
20
20.868381207440429
10
59.687148716644707
20
21.221934207438473
10
56.101361716644718
20
21.221934207438473
10
55.747808107251515
20
20.868380816831671
42
-0.6681786379193243
10
54.894254716649712
20
21.221934207428468
0
CIRCLE
5
151
100
AcDbEntity
8
0
100
AcDbCircle
10
29.808113716644691
20
30.721250207438473
30
0
40
1.6000000000000003
210
0
220
-0
230
1
0
LWPOLYLINE
5
152
100
AcDbEntity
8
0
100
AcDbPolyline
90
12
70
1
43
0.0
10
43.10136171664471
20
21.221934207438473
10
45.687148716644721
20
21.221934207438473
10
46.040701716646673
20
20.868381207440429
42
0.66817863792442123
10
46.89425416427472
20
21.221934207438473
10
46.894254716649698
20
22.821934207438463
42
0.66817863791928533
10
46.040701326044733
20
23.175487598038458
10
45.687148716644721
20
22.821934207438463
10
43.10136171664471
20
22.821934207438463
10
42.747808716643043
20
23.17548820743681
42
0.66817863791418119
10
41.894253854804688
20
22.821934207428463
10
41.894254716649698
20
21.221934207428468
42
0.6681786379193243
10
42.747808107244722
20
20.868380816838457
0
ENDSEC
0
SECTION
2
OBJECTS
0
DICTIONARY
5
C
100
AcDbDictionary
3
ACAD_GROUP
350
D
3
ACAD_MLINESTYLE
350
17
0
DICTIONARY
5
D
100
AcDbDictionary
0
DICTIONARY
5
1A
330
C
100
AcDbDictionary
0
DICTIONARY
5
17
100
AcDbDictionary
0
ENDSEC
0
EOF
