0
SECTION
2
HEADER
9
$INSUNITS
70
4
9
$ACADVER
1
AC1014
9
$HANDSEED
5
FFFF
0
ENDSEC
0
SECTION
2
TABLES
0
TABLE
2
VPORT
5
8
100
AcDbSymbolTable
0
ENDTAB
0
TABLE
2
LTYPE
5
5
100
AcDbSymbolTable
0
LTYPE
5
14
100
AcDbSymbolTableRecord
100
AcDbLinetypeTableRecord
2
BYBLOCK
70
0
0
LTYPE
5
15
100
AcDbSymbolTableRecord
100
AcDbLinetypeTableRecord
2
BYLAYER
70
0
0
ENDTAB
0
TABLE
2
LAYER
5
2
100
AcDbSymbolTable
70
2
0
LAYER
5
50
100
AcDbSymbolTableRecord
100
AcDbLayerTableRecord
2
0
70
0
6
CONTINUOUS
0
ENDTAB
0
TABLE
2
STYLE
5
3
100
AcDbSymbolTable
70
1
0
STYLE
5
11
100
AcDbSymbolTableRecord
100
AcDbTextStyleTableRecord
2
STANDARD
70
0
0
ENDTAB
0
TABLE
2
VIEW
5
6
100
AcDbSymbolTable
70
0
0
ENDTAB
0
TABLE
2
UCS
5
7
100
AcDbSymbolTable
70
0
0
ENDTAB
0
TABLE
2
APPID
5
9
100
AcDbSymbolTable
70
2
0
APPID
5
12
100
AcDbSymbolTableRecord
100
AcDbRegAppTableRecord
2
ACAD
70
0
0
ENDTAB
0
TABLE
2
DIMSTYLE
5
A
100
AcDbSymbolTable
70
1
0
ENDTAB
0
TABLE
2
BLOCK_RECORD
5
1
100
AcDbSymbolTable
70
1
0
BLOCK_RECORD
5
1F
100
AcDbSymbolTableRecord
100
AcDbBlockTableRecord
2
*MODEL_SPACE
0
BLOCK_RECORD
5
1B
100
AcDbSymbolTableRecord
100
AcDbBlockTableRecord
2
*PAPER_SPACE
0
ENDTAB
0
ENDSEC
0
SECTION
2
BLOCKS
0
BLOCK
5
20
100
AcDbEntity
100
AcDbBlockBegin
2
*MODEL_SPACE
0
ENDBLK
5
21
100
AcDbEntity
100
AcDbBlockEnd
0
BLOCK
5
1C
100
AcDbEntity
100
AcDbBlockBegin
2
*PAPER_SPACE
0
ENDBLK
5
1D
100
AcDbEntity
100
AcDbBlockEnd
0
ENDSEC
0
SECTION
2
ENTITIES
0
LWPOLYLINE
5
100
100
AcDbEntity
8
0
100
AcDbPolyline
90
12
70
1
43
0.0
10
-2.0717975221595983
20
-31.80435470528435
42
-0.41421356237309309
10
-3.0717975221596019
20
-32.804354705284354
10
-11.971793522159469
20
-32.804354705284354
42
0.41421356237309509
10
-12.971793522159468
20
-33.804354705284354
10
-12.971793522159471
20
-51.604354705284351
42
0.41421356237309509
10
-11.971793522159471
20
-52.604354705284351
10
-3.0717975221596019
20
-52.604354705284351
42
-0.41421356237309537
10
-2.0717975221596014
20
-53.604354705284351
10
-2.0717975221595974
20
-56.604347705284397
10
25.428199897440507
20
-56.604347705284397
10
25.428199897440507
20
-28.804347705284403
10
-2.0717975221596019
20
-28.804354705284354
0
LWPOLYLINE
5
101
100
AcDbEntity
8
0
100
AcDbPolyline
90
30
70
1
43
0.0
10
112.36906748887642
20
-85.276435707784486
10
112.36906748887642
20
-85.279582792561555
10
31.369067488876432
20
-85.279582792561555
42
-0.41421356237309637
10
30.369067488876436
20
-84.27958279256157
10
30.369067488876432
20
-80.78000079256141
42
0.41421356237309509
10
29.369067488876432
20
-79.78000079256141
10
25.369067488876421
20
-79.780000792561395
10
25.369067488876421
20
-82.280000792561395
10
27.369067488876428
20
-82.280000792561395
42
-0.41421356237309637
10
28.369067488876425
20
-83.280000792561395
10
28.369067488876428
20
-84.27958279256157
42
-0.41421356237309637
10
27.369067488876428
20
-85.279582792561555
10
-27.86074528335531
20
-85.27958279256157
42
-0.41421356237309509
10
-29.860745283355318
20
-83.27958279256157
10
-29.860745283355318
20
-19.279582792561527
42
-0.41421356237309437
10
-27.86074528335531
20
-17.279582792561527
10
120.04425471664473
20
-17.279582792561538
42
-0.41421356237309598
10
122.04425471664472
20
-19.279582792561534
10
122.04425471664467
20
-83.279582792561541
42
-0.41421356237309509
10
120.04425471664467
20
-85.279582792561555
10
116.36906748887642
20
-85.279582792561555
10
116.36906748887642
20
-85.276435707784486
42
-0.41421356237309509
10
115.36906748887644
20
-84.276435707784486
10
115.36906748887644
20
-83.276853707784312
42
-0.41421356237309509
10
116.36906748887642
20
-82.276853707784312
10
118.36906748887644
20
-82.276853707784312
10
118.36906748887644
20
-79.776853707784326
10
114.36906748887644
20
-79.776853707784326
42
0.41421356237309509
10
113.36906748887642
20
-80.776853707784326
10
113.36906748887642
20
-84.276435707784486
42
-0.41421356237309509
0
CIRCLE
5
102
100
AcDbEntity
8
0
100
AcDbCircle
10
-21.860790522159519
20
-25.279353705284429
30
0
40
1.6000000000000014
210
0
220
0
230
1
0
LWPOLYLINE
5
103
100
AcDbEntity
8
0
100
AcDbPolyline
90
4
70
1
43
0.0
10
-26.360745283355303
20
-26.279582792561538
10
-27.860745283355307
20
-26.279582792561538
10
-27.86074528335531
20
-41.279582792561541
10
-26.360745283355307
20
-41.279582792561541
0
LWPOLYLINE
5
104
100
AcDbEntity
8
0
100
AcDbPolyline
90
4
70
1
43
0.0
10
-26.360745283355303
20
-61.279582792561541
10
-27.86074528335531
20
-61.279582792561541
10
-27.86074528335531
20
-76.279582792561541
10
-26.360745283355307
20
-76.279582792561541
0
LWPOLYLINE
5
105
100
AcDbEntity
8
0
100
AcDbPolyline
90
4
70
1
43
0.0
10
118.5442547166447
20
-26.279582792561555
10
118.5442547166447
20
-41.279582792561555
10
120.04425471664473
20
-41.279582792561555
10
120.04425471664473
20
-26.279582792561555
0
LWPOLYLINE
5
106
100
AcDbEntity
8
0
100
AcDbPolyline
90
4
70
1
43
0.0
10
-9.5232452833553261
20
-83.27958279256157
10
20.476754716644674
20
-83.27958279256157
10
20.476754716644674
20
-81.779582792561541
10
-9.5232452833553261
20
-81.779582792561541
0
LWPOLYLINE
5
107
100
AcDbEntity
8
0
100
AcDbPolyline
90
4
70
1
43
0.0
10
70.476754716644706
20
-20.779582792561531
10
100.47675471664471
20
-20.779582792561531
10
100.47675471664471
20
-19.279582792561531
10
70.476754716644706
20
-19.279582792561531
0
LWPOLYLINE
5
108
100
AcDbEntity
8
0
100
AcDbPolyline
90
4
70
1
43
0.0
10
120.04425471664473
20
-61.279582792561555
10
118.54425471664469
20
-61.279582792561555
10
118.54425471664469
20
-76.279582792561555
10
120.04425471664473
20
-76.279582792561555
0
LWPOLYLINE
5
109
100
AcDbEntity
8
0
100
AcDbPolyline
90
4
70
1
43
0.0
10
70.476754716644678
20
-83.27958279256157
10
100.47675471664468
20
-83.27958279256157
10
100.47675471664468
20
-81.77958279256157
10
70.476754716644678
20
-81.77958279256157
0
LWPOLYLINE
5
110
100
AcDbEntity
8
0
100
AcDbPolyline
90
4
70
1
43
0.0
10
-9.523245283355287
20
-20.779582792561531
10
20.476754716644709
20
-20.779582792561531
10
20.476754716644709
20
-19.279582792561531
10
-9.523245283355287
20
-19.279582792561531
0
LWPOLYLINE
5
111
100
AcDbEntity
8
0
100
AcDbPolyline
90
4
70
1
43
0.0
10
-6.0912330754514343
20
-25.380000792561304
10
22.908766924548569
20
-25.380000792561304
10
22.908766924548569
20
-23.780000792561303
10
-6.0912330754514361
20
-23.780000792561303
0
LWPOLYLINE
5
112
100
AcDbEntity
8
0
100
AcDbPolyline
90
4
70
1
43
0.0
10
22.908766924548516
20
-77.177000792561401
10
-6.0912330754515054
20
-77.177000792561401
10
-6.0912330754515054
20
-78.77700079256141
10
22.908766924548516
20
-78.77700079256141
0
LWPOLYLINE
5
113
100
AcDbEntity
8
0
100
AcDbPolyline
90
12
70
1
43
0.0
10
100.04070171669667
20
-23.427546792613509
42
-0.6681786378732868
10
100.89425416427672
20
-23.781099792661532
10
100.8942547166497
20
-25.381099792661548
42
-0.66817863797043908
10
100.0407013259979
20
-25.734653183208358
10
99.687148716644728
20
-25.381099792561539
10
97.101361716644718
20
-25.381099792561539
10
96.747808716648066
20
-25.734653792564899
42
-0.66817863791928478
10
95.894253854808682
20
-25.381099792561542
10
95.894254716649698
20
-23.781099792561555
42
-0.66817863791418086
10
96.747808107246499
20
-23.427546401959738
10
97.101361716644718
20
-23.781099792561555
10
99.687148716644728
20
-23.781099792561555
0
CIRCLE
5
114
100
AcDbEntity
8
0
100
AcDbCircle
10
112.98011371664471
20
-33.280415792561548
30
0
40
1.6000000000000003
210
0
220
-0
230
1
0
LWPOLYLINE
5
115
100
AcDbEntity
8
0
100
AcDbPolyline
90
12
70
1
43
0.0
10
87.89425471664471
20
-25.381099792661548
10
87.894254164274713
20
-23.781099792661529
42
0.66817863787329046
10
87.040701716644691
20
-23.427546792561547
10
86.687148716644714
20
-23.781099792561555
10
83.101361716644703
20
-23.781099792561555
10
82.747808107246513
20
-23.427546401959745
42
0.66817863791418353
10
81.89425471664471
20
-23.781099792561555
10
81.894253854808682
20
-25.381099792561542
42
0.6681786379192739
10
82.747808716644698
20
-25.734653792561542
10
83.101361716644703
20
-25.381099792561539
10
86.687148716644714
20
-25.381099792561539
10
87.040701325997887
20
-25.734653183208358
42
0.66817863797043908
0
LWPOLYLINE
5
116
100
AcDbEntity
8
0
100
AcDbPolyline
90
12
70
1
43
0.0
10
69.747808716648052
20
-25.734653792564885
42
-0.66817863791929633
10
68.89425385480871
20
-25.381099792561518
10
68.894254716649698
20
-23.781099792561537
42
-0.6681786379141752
10
69.747808107246499
20
-23.42754640195972
10
70.101361716644703
20
-23.781099792561537
10
72.687148716644714
20
-23.781099792561537
10
73.04070171669666
20
-23.427546792613484
42
-0.6681786378732868
10
73.894254164276717
20
-23.781099792661511
10
73.894254716649698
20
-25.38109979266153
42
-0.66817863797042554
10
73.040701325997901
20
-25.734653183208351
10
72.687148716644714
20
-25.381099792561521
10
70.101361716644703
20
-25.381099792561521
0
LWPOLYLINE
5
117
100
AcDbEntity
8
0
100
AcDbPolyline
90
12
70
1
43
0.0
10
60.894254716644696
20
-25.38109979266153
10
60.894254164274706
20
-23.781099792661511
42
0.6681786378732868
10
60.040701716644698
20
-23.427546792561529
10
59.687148716644707
20
-23.781099792561537
10
56.101361716644718
20
-23.781099792561537
10
55.747808107246506
20
-23.42754640195972
42
0.6681786379141752
10
54.894254716644717
20
-23.781099792561537
10
54.894253854808696
20
-25.381099792561518
42
0.66817863791930776
10
55.747808716644691
20
-25.734653792561524
10
56.101361716644718
20
-25.381099792561521
10
59.687148716644707
20
-25.381099792561521
10
60.040701325997894
20
-25.734653183208351
42
0.66817863797042554
0
LWPOLYLINE
5
118
100
AcDbEntity
8
0
100
AcDbPolyline
90
12
70
1
43
0.0
10
42.747808716648024
20
-25.734653792564885
42
-0.66817863791929633
10
41.894253854808682
20
-25.381099792561518
10
41.894254716649698
20
-23.781099792561537
42
-0.6681786379141752
10
42.747808107246499
20
-23.42754640195972
10
43.10136171664471
20
-23.781099792561537
10
45.687148716644721
20
-23.781099792561537
10
46.04070171669666
20
-23.427546792613484
42
-0.6681786378732868
10
46.894254164276717
20
-23.781099792661511
10
46.894254716649698
20
-25.38109979266153
42
-0.66817863797042554
10
46.040701325997908
20
-25.734653183208351
10
45.687148716644721
20
-25.381099792561521
10
43.10136171664471
20
-25.381099792561521
0
CIRCLE
5
119
100
AcDbEntity
8
0
100
AcDbCircle
10
29.808113716644691
20
-33.280415792561527
30
0
40
1.6000000000000003
210
0
220
-0
230
1
0
LWPOLYLINE
5
120
100
AcDbEntity
8
0
100
AcDbPolyline
90
26
70
1
43
0.0
10
44.24464871664469
20
-31.281099792656523
42
-0.66817863788053478
10
44.598202107296501
20
-32.134653183213352
10
44.24464871664469
20
-32.48820679256152
10
44.24464871664469
20
-37.381099792561528
10
98.544648716644701
20
-37.38109979256155
10
98.544648716644701
20
-32.488206792561542
10
98.191095716644725
20
-32.134653792561494
42
-0.66817860067989154
10
98.544647958064715
20
-31.281099637830117
10
108.5442547166447
20
-31.281099792656526
42
-0.6681786378805018
10
108.89780810729653
20
-32.134653183213352
10
108.5442547166447
20
-32.488206792561542
10
108.5442547166447
20
-36.173993792561546
10
108.89780871659825
20
-36.527546792607978
42
-0.66817863796557442
10
108.54425400954469
20
-37.381099947391057
10
107.04425471664472
20
-37.38109979256155
10
107.04425471664467
20
-45.278263792561546
42
-0.4142135623730977
10
106.0442547166447
20
-46.278263792561546
10
36.744254716644704
20
-46.278263792561525
42
-0.41421356237309509
10
35.744254716644704
20
-45.278263792561532
10
35.74425471664469
20
-37.381099792561528
10
34.244254716644704
20
-37.381099792566516
42
-0.66817863791930998
10
33.890701326047896
20
-36.527546401964713
10
34.244254716644704
20
-36.173993792561525
10
34.244254716644704
20
-32.48820679256152
10
33.890701716646142
20
-32.134653792560087
42
-0.66817863791186449
10
34.24425400954469
20
-31.281099637832028
0
CIRCLE
5
121
100
AcDbEntity
8
0
100
AcDbCircle
10
112.98011371664471
20
-69.278749792561541
30
0
40
1.6000000000000003
210
0
220
-0
230
1
0
LWPOLYLINE
5
122
100
AcDbEntity
8
0
100
AcDbPolyline
90
12
70
1
43
0.0
10
99.687148716644728
20
-77.17806579256154
10
97.101361716644718
20
-77.17806579256154
10
96.74780871664305
20
-76.824511792563186
42
0.66817863791418453
10
95.894253854804703
20
-77.178065792571545
10
95.894254716649698
20
-78.778065792571525
42
0.66817863791930532
10
96.747808107244708
20
-79.131619183161547
10
97.101361716644718
20
-78.778065792561534
10
99.687148716644728
20
-78.778065792561534
10
100.04070171664667
20
-79.131618792559578
42
0.6681786379244089
10
100.89425416427473
20
-78.778065792561534
10
100.8942547166497
20
-77.17806579256154
42
0.66817863791929444
10
100.04070132604471
20
-76.824512401961542
0
LWPOLYLINE
5
123
100
AcDbEntity
8
0
100
AcDbPolyline
90
12
70
1
43
0.0
10
81.894253854808682
20
-77.178065792571545
42
-0.66817863791422638
10
82.74780871664305
20
-76.824511792563186
10
83.101361716644703
20
-77.17806579256154
10
86.687148716644714
20
-77.17806579256154
10
87.040701326047895
20
-76.824512401964725
42
-0.66817863791929444
10
87.894254716649698
20
-77.17806579256154
10
87.894254164276688
20
-78.778065792561534
42
-0.6681786379244089
10
87.040701716646666
20
-79.131618792559578
10
86.687148716644714
20
-78.778065792561534
10
83.101361716644703
20
-78.778065792561534
10
82.747808107251501
20
-79.13161918316834
42
-0.66817863791927068
10
81.894254716649684
20
-78.778065792571525
0
LWPOLYLINE
5
124
100
AcDbEntity
8
0
100
AcDbPolyline
90
26
70
1
43
0.0
10
44.598202107244695
20
-70.424512401961522
10
44.24464871664469
20
-70.070958792561527
10
44.24464871664469
20
-65.178065792561526
10
98.544648716644701
20
-65.17806579256154
10
98.544648716644701
20
-70.070958792561541
10
98.191095716649741
20
-70.424511792566577
42
0.66817860068504598
10
98.544647958064715
20
-71.278065947301542
10
108.5442547166447
20
-71.278065792566537
42
0.66817863793167653
10
108.89780810724473
20
-70.42451240196155
10
108.5442547166447
20
-70.070958792561541
10
108.5442547166447
20
-66.385171792561536
10
108.89780871664826
20
-66.031618792565098
42
0.66817863791439891
10
108.54425400954469
20
-65.178065637831537
10
107.04425471664472
20
-65.17806579256154
10
107.0442547166447
20
-57.280901792561551
42
0.4142135623730977
10
106.0442547166447
20
-56.280901792561536
10
36.744254716644704
20
-56.280901792561536
42
0.41421356237309509
10
35.74425471664469
20
-57.280901792561529
10
35.74425471664469
20
-65.178065792561526
10
34.244254716644704
20
-65.178065792566542
42
0.66817863791417542
10
33.890701326044699
20
-66.031619183161524
10
34.244254716644704
20
-66.385171792561522
10
34.244254716644704
20
-70.070958792561527
10
33.890701716651151
20
-70.424511792567969
42
0.6681786379170036
10
34.24425400954469
20
-71.278065947301542
10
44.24464871664469
20
-71.278065792566508
42
0.66817863793165921
0
LWPOLYLINE
5
125
100
AcDbEntity
8
0
100
AcDbPolyline
90
12
70
1
43
0.0
10
70.101361716644703
20
-78.778065792561534
10
72.687148716644714
20
-78.778065792561534
10
73.040701716646666
20
-79.131618792559564
42
0.66817863792443344
10
73.894254164274713
20
-78.778065792561534
10
73.894254716649698
20
-77.17806579256154
42
0.66817863791928533
10
73.040701326044726
20
-76.824512401961542
10
72.687148716644714
20
-77.17806579256154
10
70.101361716644703
20
-77.17806579256154
10
69.747808716643064
20
-76.8245117925632
42
0.66817863791420451
10
68.894253854804717
20
-77.178065792571545
10
68.894254716649698
20
-78.778065792571525
42
0.66817863791931453
10
69.747808107244708
20
-79.131619183161547
0
LWPOLYLINE
5
126
100
AcDbEntity
8
0
100
AcDbPolyline
90
12
70
1
43
0.0
10
54.894253854808703
20
-77.178065792571545
42
-0.66817863791420451
10
55.74780871664305
20
-76.8245117925632
10
56.101361716644718
20
-77.17806579256154
10
59.687148716644707
20
-77.17806579256154
10
60.040701326047888
20
-76.824512401964711
42
-0.66817863791928533
10
60.894254716649684
20
-77.17806579256154
10
60.894254164276717
20
-78.778065792561534
42
-0.66817863792443344
10
60.040701716646659
20
-79.131618792559564
10
59.687148716644707
20
-78.778065792561534
10
56.101361716644718
20
-78.778065792561534
10
55.747808107251522
20
-79.13161918316834
42
-0.66817863791931453
10
54.894254716649712
20
-78.778065792571525
0
CIRCLE
5
127
100
AcDbEntity
8
0
100
AcDbCircle
10
29.808113716644691
20
-69.278749792561527
30
0
40
1.6000000000000003
210
0
220
-0
230
1
0
LWPOLYLINE
5
128
100
AcDbEntity
8
0
100
AcDbPolyline
90
12
70
1
43
0.0
10
43.10136171664471
20
-78.778065792561534
10
45.687148716644721
20
-78.778065792561534
10
46.040701716646673
20
-79.131618792559564
42
0.66817863792443344
10
46.89425416427472
20
-78.778065792561534
10
46.894254716649698
20
-77.17806579256154
42
0.66817863791928533
10
46.040701326044733
20
-76.824512401961542
10
45.687148716644721
20
-77.17806579256154
10
43.10136171664471
20
-77.17806579256154
10
42.747808716643043
20
-76.8245117925632
42
0.66817863791420451
10
41.894253854804688
20
-77.178065792571545
10
41.894254716649698
20
-78.778065792571525
42
0.66817863791931453
10
42.747808107244722
20
-79.131619183161547
0
CIRCLE
5
129
100
AcDbEntity
8
0
100
AcDbCircle
10
112.9801137166446
20
-51.279582792561484
30
0
40
3.2499999999999929
210
0
220
0
230
1
0
LWPOLYLINE
5
130
100
AcDbEntity
8
0
100
AcDbPolyline
90
2
70
1
43
0.0
10
32.044075164054021
20
-53.641326155996538
42
-0.59866929846817241
10
32.044075164054014
20
-48.924133598680598
42
-0.42993307577321521
0
LWPOLYLINE
5
131
100
AcDbEntity
8
0
100
AcDbPolyline
90
2
70
1
43
0.0
10
31.986616279359517
20
-53.694498229449721
42
-0.5923806761978162
10
31.986616279359524
20
-48.870961525227401
42
2.2508391230703979
0
ENDSEC
0
SECTION
2
OBJECTS
0
DICTIONARY
5
C
100
AcDbDictionary
3
ACAD_GROUP
350
D
3
ACAD_MLINESTYLE
350
17
0
DICTIONARY
5
D
100
AcDbDictionary
0
DICTIONARY
5
1A
330
C
100
AcDbDictionary
0
DICTIONARY
5
17
100
AcDbDictionary
0
ENDSEC
0
EOF
