0
SECTION
2
HEADER
9
$INSUNITS
70
4
9
$ACADVER
1
AC1014
9
$HANDSEED
5
FFFF
0
ENDSEC
0
SECTION
2
TABLES
0
TABLE
2
VPORT
5
8
100
AcDbSymbolTable
0
ENDTAB
0
TABLE
2
LTYPE
5
5
100
AcDbSymbolTable
0
LTYPE
5
14
100
AcDbSymbolTableRecord
100
AcDbLinetypeTableRecord
2
BYBLOCK
70
0
0
LTYPE
5
15
100
AcDbSymbolTableRecord
100
AcDbLinetypeTableRecord
2
BYLAYER
70
0
0
ENDTAB
0
TABLE
2
LAYER
5
2
100
AcDbSymbolTable
70
2
0
LAYER
5
50
100
AcDbSymbolTableRecord
100
AcDbLayerTableRecord
2
0
70
0
6
CONTINUOUS
0
ENDTAB
0
TABLE
2
STYLE
5
3
100
AcDbSymbolTable
70
1
0
STYLE
5
11
100
AcDbSymbolTableRecord
100
AcDbTextStyleTableRecord
2
STANDARD
70
0
0
ENDTAB
0
TABLE
2
VIEW
5
6
100
AcDbSymbolTable
70
0
0
ENDTAB
0
TABLE
2
UCS
5
7
100
AcDbSymbolTable
70
0
0
ENDTAB
0
TABLE
2
APPID
5
9
100
AcDbSymbolTable
70
2
0
APPID
5
12
100
AcDbSymbolTableRecord
100
AcDbRegAppTableRecord
2
ACAD
70
0
0
ENDTAB
0
TABLE
2
DIMSTYLE
5
A
100
AcDbSymbolTable
70
1
0
ENDTAB
0
TABLE
2
BLOCK_RECORD
5
1
100
AcDbSymbolTable
70
1
0
BLOCK_RECORD
5
1F
100
AcDbSymbolTableRecord
100
AcDbBlockTableRecord
2
*MODEL_SPACE
0
BLOCK_RECORD
5
1B
100
AcDbSymbolTableRecord
100
AcDbBlockTableRecord
2
*PAPER_SPACE
0
ENDTAB
0
ENDSEC
0
SECTION
2
BLOCKS
0
BLOCK
5
20
100
AcDbEntity
100
AcDbBlockBegin
2
*MODEL_SPACE
0
ENDBLK
5
21
100
AcDbEntity
100
AcDbBlockEnd
0
BLOCK
5
1C
100
AcDbEntity
100
AcDbBlockBegin
2
*PAPER_SPACE
0
ENDBLK
5
1D
100
AcDbEntity
100
AcDbBlockEnd
0
ENDSEC
0
SECTION
2
ENTITIES
0
LWPOLYLINE
5
100
100
AcDbEntity
8
0
100
AcDbPolyline
90
14
70
1
43
0.0
10
34.24425400954469
20
-31.281099637861534
10
34.244254716644704
20
-37.381099792561528
10
35.74425471664469
20
-37.381099792561528
10
35.744254716644704
20
-45.278263792561532
42
0.41421356237309509
10
36.744254716644704
20
-46.278263792561525
10
106.0442547166447
20
-46.278263792561546
42
0.4142135623730977
10
107.04425471664472
20
-45.278263792561546
10
107.04425471664472
20
-37.38109979256155
10
108.54425400954469
20
-37.381099947361548
10
108.5442547166447
20
-31.281099792561555
10
98.544647958064715
20
-31.281099637861551
10
98.544648716644701
20
-37.38109979256155
10
44.24464871664469
20
-37.381099792561528
10
44.24464871664469
20
-31.281099792561537
0
LWPOLYLINE
5
101
100
AcDbEntity
8
0
100
AcDbPolyline
90
14
70
1
43
0.0
10
35.74425471664469
20
-65.178065792561526
10
34.244254716644704
20
-65.178065792561526
10
34.24425400954469
20
-71.278065947301542
10
44.24464871664469
20
-71.278065792561534
10
44.24464871664469
20
-65.178065792561526
10
98.544648716644701
20
-65.17806579256154
10
98.544647958064715
20
-71.278065947301542
10
108.5442547166447
20
-71.278065792561534
10
108.54425400954469
20
-65.178065637831537
10
107.04425471664472
20
-65.17806579256154
10
107.0442547166447
20
-57.280901792561551
42
0.4142135623730977
10
106.0442547166447
20
-56.280901792561536
10
36.744254716644704
20
-56.280901792561536
42
0.41421356237309509
10
35.74425471664469
20
-57.280901792561529
0
LWPOLYLINE
5
102
100
AcDbEntity
8
0
100
AcDbPolyline
90
4
70
1
43
0.0
10
100.47675471664468
20
-81.77958279256157
10
70.476754716644678
20
-81.77958279256157
10
70.476754716644678
20
-83.27958279256157
10
100.47675471664468
20
-83.27958279256157
0
LWPOLYLINE
5
103
100
AcDbEntity
8
0
100
AcDbPolyline
90
30
70
1
43
0.0
10
112.36906748887642
20
-85.279582792561555
10
31.369067488876432
20
-85.279582792561555
42
-0.41421356237309637
10
30.369067488876436
20
-84.27958279256157
10
30.369067488876432
20
-80.78000079256141
42
0.41421356237309509
10
29.369067488876432
20
-79.78000079256141
10
25.369067488876421
20
-79.780000792561395
10
25.369067488876421
20
-82.280000792561395
10
27.369067488876428
20
-82.280000792561395
42
-0.41421356237309637
10
28.369067488876425
20
-83.280000792561395
10
28.369067488876428
20
-84.27958279256157
42
-0.41421356237309637
10
27.369067488876428
20
-85.279582792561555
10
-37.860745283355314
20
-85.27958279256157
42
-0.41421356237309509
10
-39.860745283355314
20
-83.27958279256157
10
-39.860745283355314
20
-19.279582792561527
42
-0.41421356237309176
10
-37.860745283355328
20
-17.279582792561527
10
127.04425471664472
20
-17.279582792561559
42
-0.41421356237309537
10
129.0442547166447
20
-19.279582792561534
10
129.04425471664467
20
-83.279582792561541
42
-0.41421356237309509
10
127.04425471664466
20
-85.279582792561555
10
116.36906748887642
20
-85.279582792561555
10
116.36906748887642
20
-85.276435707784486
42
-0.41421356237309509
10
115.36906748887644
20
-84.276435707784486
10
115.36906748887644
20
-83.276853707784312
42
-0.41421356237309509
10
116.36906748887642
20
-82.276853707784312
10
118.36906748887644
20
-82.276853707784312
10
118.36906748887644
20
-79.776853707784326
10
114.36906748887644
20
-79.776853707784326
42
0.41421356237309509
10
113.36906748887642
20
-80.776853707784326
10
113.36906748887642
20
-84.276435707784486
42
-0.41421356237309509
10
112.36906748887642
20
-85.276435707784486
0
LWPOLYLINE
5
104
100
AcDbEntity
8
0
100
AcDbPolyline
90
4
70
1
43
0.0
10
41.89425471664471
20
-78.778065792571525
10
46.89425416427472
20
-78.778065792561534
10
46.89425471664471
20
-77.17806579256154
10
41.894253854804688
20
-77.178065792571545
0
LWPOLYLINE
5
105
100
AcDbEntity
8
0
100
AcDbPolyline
90
4
70
1
43
0.0
10
68.894254716644696
20
-78.778065792571525
10
73.894254164274713
20
-78.778065792561534
10
73.894254716644696
20
-77.17806579256154
10
68.894253854804717
20
-77.178065792571545
0
LWPOLYLINE
5
106
100
AcDbEntity
8
0
100
AcDbPolyline
90
4
70
1
43
0.0
10
81.894253854804703
20
-77.178065792571545
10
81.89425471664471
20
-78.778065792571525
10
87.894254164274713
20
-78.778065792561534
10
87.89425471664471
20
-77.17806579256154
0
LWPOLYLINE
5
107
100
AcDbEntity
8
0
100
AcDbPolyline
90
4
70
1
43
0.0
10
54.894254716644717
20
-78.778065792571525
10
60.894254164274706
20
-78.778065792561534
10
60.894254716644696
20
-77.17806579256154
10
54.894253854804695
20
-77.178065792571545
0
LWPOLYLINE
5
108
100
AcDbEntity
8
0
100
AcDbPolyline
90
4
70
1
43
0.0
10
100.8942547166447
20
-77.17806579256154
10
95.894253854804703
20
-77.178065792571545
10
95.894254716644696
20
-78.778065792571525
10
100.89425416427473
20
-78.778065792561534
0
LWPOLYLINE
5
109
100
AcDbEntity
8
0
100
AcDbPolyline
90
4
70
1
43
0.0
10
-36.360745283355307
20
-41.279582792561541
10
-36.360745283355307
20
-26.279582792561538
10
-37.860745283355307
20
-26.279582792561538
10
-37.860745283355307
20
-41.279582792561541
0
LWPOLYLINE
5
110
100
AcDbEntity
8
0
100
AcDbPolyline
90
4
70
1
43
0.0
10
87.89425471664471
20
-25.381099792661548
10
87.894254164274713
20
-23.781099792661529
10
81.89425471664471
20
-23.781099792561555
10
81.894253854804703
20
-25.381099792561539
0
LWPOLYLINE
5
111
100
AcDbEntity
8
0
100
AcDbPolyline
90
4
70
1
43
0.0
10
100.89425416427473
20
-23.781099792661529
10
95.894254716644696
20
-23.781099792561555
10
95.894253854804703
20
-25.381099792561539
10
100.8942547166447
20
-25.381099792661548
0
LWPOLYLINE
5
112
100
AcDbEntity
8
0
100
AcDbPolyline
90
4
70
1
43
0.0
10
60.894254164274706
20
-23.781099792661511
10
54.894254716644717
20
-23.781099792561537
10
54.894253854804695
20
-25.381099792561521
10
60.894254716644696
20
-25.38109979266153
0
LWPOLYLINE
5
113
100
AcDbEntity
8
0
100
AcDbPolyline
90
4
70
1
43
0.0
10
73.894254164274713
20
-23.781099792661511
10
68.894254716644696
20
-23.781099792561537
10
68.894253854804717
20
-25.381099792561521
10
73.894254716644696
20
-25.38109979266153
0
LWPOLYLINE
5
114
100
AcDbEntity
8
0
100
AcDbPolyline
90
4
70
1
43
0.0
10
46.89425471664471
20
-25.38109979266153
10
46.89425416427472
20
-23.781099792661511
10
41.89425471664471
20
-23.781099792561537
10
41.894253854804688
20
-25.381099792561521
0
CIRCLE
5
115
100
AcDbEntity
8
0
100
AcDbCircle
10
112.9801137166446
20
-51.279582792561484
30
0
40
3.2499999999999929
210
0
220
0
230
1
0
CIRCLE
5
116
100
AcDbEntity
8
0
100
AcDbCircle
10
112.98011371664471
20
-69.278749792561541
30
0
40
1.6000000000000003
210
0
220
-0
230
1
0
CIRCLE
5
117
100
AcDbEntity
8
0
100
AcDbCircle
10
112.98011371664471
20
-33.280415792561548
30
0
40
1.6000000000000003
210
0
220
-0
230
1
0
LWPOLYLINE
5
118
100
AcDbEntity
8
0
100
AcDbPolyline
90
4
70
1
43
0.0
10
-6.0912330754514343
20
-25.380000792561304
10
22.908766924548569
20
-25.380000792561304
10
22.908766924548569
20
-23.780000792561303
10
-6.0912330754514361
20
-23.780000792561303
0
LWPOLYLINE
5
119
100
AcDbEntity
8
0
100
AcDbPolyline
90
4
70
1
43
0.0
10
-9.523245283355287
20
-20.779582792561531
10
20.476754716644709
20
-20.779582792561531
10
20.476754716644709
20
-19.279582792561531
10
-9.523245283355287
20
-19.279582792561531
0
CIRCLE
5
120
100
AcDbEntity
8
0
100
AcDbCircle
10
-21.860790522159519
20
-25.279353705284429
30
0
40
1.6000000000000014
210
0
220
0
230
1
0
LWPOLYLINE
5
121
100
AcDbEntity
8
0
100
AcDbPolyline
90
4
70
1
43
0.0
10
127.04425471664472
20
-41.279582792561541
10
127.04425471664472
20
-26.279582792561538
10
125.54425471664472
20
-26.279582792561538
10
125.54425471664472
20
-41.279582792561541
0
CIRCLE
5
122
100
AcDbEntity
8
0
100
AcDbCircle
10
-31.860790522168493
20
-25.279353705284073
30
0
40
1.6000000000000014
210
0
220
0
230
1
0
CIRCLE
5
123
100
AcDbEntity
8
0
100
AcDbCircle
10
121.13920947783171
20
-25.279353705284251
30
0
40
1.6000000000000014
210
0
220
0
230
1
0
LWPOLYLINE
5
124
100
AcDbEntity
8
0
100
AcDbPolyline
90
4
70
1
43
0.0
10
70.476754716644706
20
-20.779582792561531
10
100.47675471664471
20
-20.779582792561531
10
100.47675471664471
20
-19.279582792561531
10
70.476754716644706
20
-19.279582792561531
0
LWPOLYLINE
5
125
100
AcDbEntity
8
0
100
AcDbPolyline
90
4
70
1
43
0.0
10
125.54425471664472
20
-61.279582792561541
10
125.54425471664472
20
-76.279582792561541
10
127.04425471664472
20
-76.279582792561541
10
127.04425471664472
20
-61.279582792561541
0
CIRCLE
5
126
100
AcDbEntity
8
0
100
AcDbCircle
10
121.13920947782724
20
-77.279353705284066
30
0
40
1.6000000000000014
210
0
220
0
230
1
0
LWPOLYLINE
5
127
100
AcDbEntity
8
0
100
AcDbPolyline
90
4
70
1
43
0.0
10
-36.360745283355307
20
-76.279582792561541
10
-36.360745283355307
20
-61.279582792561541
10
-37.860745283355307
20
-61.279582792561541
10
-37.860745283355307
20
-76.279582792561541
0
CIRCLE
5
128
100
AcDbEntity
8
0
100
AcDbCircle
10
-31.860790522172962
20
-77.279353705283981
30
0
40
1.6000000000000014
210
0
220
0
230
1
0
CIRCLE
5
129
100
AcDbEntity
8
0
100
AcDbCircle
10
29.808113716644705
20
-51.282729877338568
30
0
40
3.2500000000000018
210
0
220
0
230
1
0
LWPOLYLINE
5
130
100
AcDbEntity
8
0
100
AcDbPolyline
90
4
70
1
43
0.0
10
-9.5232452833553261
20
-83.27958279256157
10
20.476754716644674
20
-83.27958279256157
10
20.476754716644674
20
-81.779582792561541
10
-9.5232452833553261
20
-81.779582792561541
0
LWPOLYLINE
5
131
100
AcDbEntity
8
0
100
AcDbPolyline
90
4
70
1
43
0.0
10
22.908766924548516
20
-77.177000792561401
10
-6.0912330754515054
20
-77.177000792561401
10
-6.0912330754515054
20
-78.77700079256141
10
22.908766924548516
20
-78.77700079256141
0
CIRCLE
5
132
100
AcDbEntity
8
0
100
AcDbCircle
10
29.808113716644691
20
-33.280415792561527
30
0
40
1.6000000000000003
210
0
220
-0
230
1
0
CIRCLE
5
133
100
AcDbEntity
8
0
100
AcDbCircle
10
29.808113716644691
20
-69.278749792561527
30
0
40
1.6000000000000003
210
0
220
-0
230
1
0
LWPOLYLINE
5
134
100
AcDbEntity
8
0
100
AcDbPolyline
90
12
70
1
43
0.0
10
25.428199897440507
20
-56.604347705284397
10
25.428199897440507
20
-28.804347705284403
10
-2.0717975221596019
20
-28.804354705284354
10
-2.0717975221595983
20
-31.80435470528435
42
-0.41421356237309309
10
-3.0717975221596019
20
-32.804354705284354
10
-11.971793522159469
20
-32.804354705284354
42
0.41421356237309509
10
-12.971793522159468
20
-33.804354705284354
10
-12.971793522159471
20
-51.604354705284351
42
0.41421356237309509
10
-11.971793522159471
20
-52.604354705284351
10
-3.0717975221596019
20
-52.604354705284351
42
-0.41421356237309537
10
-2.0717975221596014
20
-53.604354705284351
10
-2.0717975221595974
20
-56.604347705284397
0
ENDSEC
0
SECTION
2
OBJECTS
0
DICTIONARY
5
C
100
AcDbDictionary
3
ACAD_GROUP
350
D
3
ACAD_MLINESTYLE
350
17
0
DICTIONARY
5
D
100
AcDbDictionary
0
DICTIONARY
5
1A
330
C
100
AcDbDictionary
0
DICTIONARY
5
17
100
AcDbDictionary
0
ENDSEC
0
EOF
