0
SECTION
2
HEADER
9
$INSUNITS
70
4
9
$ACADVER
1
AC1014
9
$HANDSEED
5
FFFF
0
ENDSEC
0
SECTION
2
TABLES
0
TABLE
2
VPORT
5
8
100
AcDbSymbolTable
0
ENDTAB
0
TABLE
2
LTYPE
5
5
100
AcDbSymbolTable
0
LTYPE
5
14
100
AcDbSymbolTableRecord
100
AcDbLinetypeTableRecord
2
BYBLOCK
70
0
0
LTYPE
5
15
100
AcDbSymbolTableRecord
100
AcDbLinetypeTableRecord
2
BYLAYER
70
0
0
ENDTAB
0
TABLE
2
LAYER
5
2
100
AcDbSymbolTable
70
2
0
LAYER
5
50
100
AcDbSymbolTableRecord
100
AcDbLayerTableRecord
2
0
70
0
6
CONTINUOUS
0
ENDTAB
0
TABLE
2
STYLE
5
3
100
AcDbSymbolTable
70
1
0
STYLE
5
11
100
AcDbSymbolTableRecord
100
AcDbTextStyleTableRecord
2
STANDARD
70
0
0
ENDTAB
0
TABLE
2
VIEW
5
6
100
AcDbSymbolTable
70
0
0
ENDTAB
0
TABLE
2
UCS
5
7
100
AcDbSymbolTable
70
0
0
ENDTAB
0
TABLE
2
APPID
5
9
100
AcDbSymbolTable
70
2
0
APPID
5
12
100
AcDbSymbolTableRecord
100
AcDbRegAppTableRecord
2
ACAD
70
0
0
ENDTAB
0
TABLE
2
DIMSTYLE
5
A
100
AcDbSymbolTable
70
1
0
ENDTAB
0
TABLE
2
BLOCK_RECORD
5
1
100
AcDbSymbolTable
70
1
0
BLOCK_RECORD
5
1F
100
AcDbSymbolTableRecord
100
AcDbBlockTableRecord
2
*MODEL_SPACE
0
BLOCK_RECORD
5
1B
100
AcDbSymbolTableRecord
100
AcDbBlockTableRecord
2
*PAPER_SPACE
0
ENDTAB
0
ENDSEC
0
SECTION
2
BLOCKS
0
BLOCK
5
20
100
AcDbEntity
100
AcDbBlockBegin
2
*MODEL_SPACE
0
ENDBLK
5
21
100
AcDbEntity
100
AcDbBlockEnd
0
BLOCK
5
1C
100
AcDbEntity
100
AcDbBlockBegin
2
*PAPER_SPACE
0
ENDBLK
5
1D
100
AcDbEntity
100
AcDbBlockEnd
0
ENDSEC
0
SECTION
2
ENTITIES
0
LWPOLYLINE
5
100
100
AcDbEntity
8
0
100
AcDbPolyline
90
3
70
1
43
0.0
10
7.6467905221595238
20
-29.894873921744942
10
8.0798032240517408
20
-29.144873921744946
10
7.2137778202673051
20
-29.144873921744946
0
LWPOLYLINE
5
101
100
AcDbEntity
8
0
100
AcDbPolyline
90
28
70
1
43
0.0
10
-20.476754716644709
20
-39.989999999945177
10
-70.476754716644706
20
-39.989999999945177
10
-70.476754716644706
20
-41.489999999945169
10
-100.47675471664471
20
-41.489999999945169
10
-100.47675471664471
20
-39.989999999945177
10
-118.54425471664472
20
-39.989999999945177
10
-118.54425471664472
20
-34.989999999945169
10
-120.04425471664473
20
-34.989999999945169
10
-120.04425471664473
20
-24.989999999945169
10
-118.54425471664472
20
-24.989999999945169
10
-118.54425471664472
20
-19.989999999945169
10
-100.47675471664471
20
-19.989999999945169
10
-100.47675471664471
20
-18.489999999945169
10
-70.476754716644706
20
-18.489999999945169
10
-70.476754716644706
20
-19.989999999945169
10
-20.476754716644709
20
-19.989999999945169
10
-20.476754716644709
20
-18.489999999945169
10
9.523245283355287
20
-18.489999999945169
10
9.523245283355287
20
-19.989999999945169
10
26.360745283355307
20
-19.989999999945169
10
26.360745283355307
20
-24.989999999945169
10
27.8607452833553
20
-24.989999999945169
10
27.8607452833553
20
-34.989999999945169
10
26.360745283355307
20
-34.989999999945169
10
26.360745283355307
20
-39.989999999945177
10
9.5232452833552905
20
-39.989999999945177
10
9.523245283355287
20
-41.489999999945169
10
-20.476754716644709
20
-41.489999999945169
0
LWPOLYLINE
5
102
100
AcDbEntity
8
0
100
AcDbPolyline
90
8
70
1
43
0.0
10
3.8367905221595588
20
-35.17473049992563
10
13.996790522159554
20
-35.17473049992563
42
0.4142135623730957
10
14.996790522159561
20
-34.17473049992563
10
14.996790522159561
20
-31.634730499925627
42
0.41421356237309509
10
13.996790522159559
20
-30.634730499925631
10
3.8367905221595588
20
-30.634730499925627
42
0.41421356237309492
10
2.8367905221595624
20
-31.634730499925627
10
2.8367905221595588
20
-34.17473049992563
42
0.41421356237309509
0
ENDSEC
0
SECTION
2
OBJECTS
0
DICTIONARY
5
C
100
AcDbDictionary
3
ACAD_GROUP
350
D
3
ACAD_MLINESTYLE
350
17
0
DICTIONARY
5
D
100
AcDbDictionary
0
DICTIONARY
5
1A
330
C
100
AcDbDictionary
0
DICTIONARY
5
17
100
AcDbDictionary
0
ENDSEC
0
EOF
