0
SECTION
2
HEADER
9
$INSUNITS
70
4
9
$ACADVER
1
AC1014
9
$HANDSEED
5
FFFF
0
ENDSEC
0
SECTION
2
TABLES
0
TABLE
2
VPORT
5
8
100
AcDbSymbolTable
0
ENDTAB
0
TABLE
2
LTYPE
5
5
100
AcDbSymbolTable
0
LTYPE
5
14
100
AcDbSymbolTableRecord
100
AcDbLinetypeTableRecord
2
BYBLOCK
70
0
0
LTYPE
5
15
100
AcDbSymbolTableRecord
100
AcDbLinetypeTableRecord
2
BYLAYER
70
0
0
ENDTAB
0
TABLE
2
LAYER
5
2
100
AcDbSymbolTable
70
2
0
LAYER
5
50
100
AcDbSymbolTableRecord
100
AcDbLayerTableRecord
2
0
70
0
6
CONTINUOUS
0
ENDTAB
0
TABLE
2
STYLE
5
3
100
AcDbSymbolTable
70
1
0
STYLE
5
11
100
AcDbSymbolTableRecord
100
AcDbTextStyleTableRecord
2
STANDARD
70
0
0
ENDTAB
0
TABLE
2
VIEW
5
6
100
AcDbSymbolTable
70
0
0
ENDTAB
0
TABLE
2
UCS
5
7
100
AcDbSymbolTable
70
0
0
ENDTAB
0
TABLE
2
APPID
5
9
100
AcDbSymbolTable
70
2
0
APPID
5
12
100
AcDbSymbolTableRecord
100
AcDbRegAppTableRecord
2
ACAD
70
0
0
ENDTAB
0
TABLE
2
DIMSTYLE
5
A
100
AcDbSymbolTable
70
1
0
ENDTAB
0
TABLE
2
BLOCK_RECORD
5
1
100
AcDbSymbolTable
70
1
0
BLOCK_RECORD
5
1F
100
AcDbSymbolTableRecord
100
AcDbBlockTableRecord
2
*MODEL_SPACE
0
BLOCK_RECORD
5
1B
100
AcDbSymbolTableRecord
100
AcDbBlockTableRecord
2
*PAPER_SPACE
0
ENDTAB
0
ENDSEC
0
SECTION
2
BLOCKS
0
BLOCK
5
20
100
AcDbEntity
100
AcDbBlockBegin
2
*MODEL_SPACE
0
ENDBLK
5
21
100
AcDbEntity
100
AcDbBlockEnd
0
BLOCK
5
1C
100
AcDbEntity
100
AcDbBlockBegin
2
*PAPER_SPACE
0
ENDBLK
5
1D
100
AcDbEntity
100
AcDbBlockEnd
0
ENDSEC
0
SECTION
2
ENTITIES
0
CIRCLE
5
100
100
AcDbEntity
8
0
100
AcDbCircle
10
29.808113716644712
20
48.717270122661446
30
0
40
1.599999999999997
210
-0
220
0
230
1
0
LWPOLYLINE
5
101
100
AcDbEntity
8
0
100
AcDbPolyline
90
4
70
1
43
0.0
10
104.3690674888764
20
70.720417207438473
10
104.3690674888764
20
72.220417207438473
10
84.369067488876397
20
72.220417207438473
10
84.369067488876397
20
70.720417207438473
0
LWPOLYLINE
5
102
100
AcDbEntity
8
0
100
AcDbPolyline
90
4
70
1
43
0.0
10
59.369067488876411
20
70.720417207438473
10
59.369067488876411
20
72.220417207438473
10
39.369067488876411
20
72.220417207438473
10
39.369067488876418
20
70.720417207438473
0
LWPOLYLINE
5
103
100
AcDbEntity
8
0
100
AcDbPolyline
90
14
70
1
43
0.0
10
51.869063345726417
20
76.720418345838482
42
-0.41421356237309298
10
54.369063345726417
20
79.220418345838482
10
89.369063345726403
20
79.220418345838468
42
-0.41421356237309298
10
91.869063345726403
20
76.720418345838482
42
0.41421356237309509
10
94.369063345726403
20
74.220418345838482
10
118.36905920257642
20
74.220418345838496
42
-0.41421356237309509
10
120.36905920257644
20
72.220418345838482
10
120.36905920257645
20
25.220584207438471
42
-0.41421356237309509
10
118.36905920257644
20
23.220584207438467
10
25.369067488876439
20
23.220584207438474
42
-0.41421356237309698
10
23.369067488876439
20
25.220584207438481
10
23.369067488876727
20
72.220417207438473
42
-0.41421372908791987
10
25.3690674888764
20
74.220418345838482
10
49.369063345726417
20
74.220418345838482
42
0.41421356237309509
0
LWPOLYLINE
5
104
100
AcDbEntity
8
0
100
AcDbPolyline
90
4
70
1
43
0.0
10
59.369067488876425
20
26.720584207438453
10
39.369067488876425
20
26.720584207438449
10
39.369067488876418
20
25.220584207438442
10
59.369067488876425
20
25.220584207438446
0
LWPOLYLINE
5
105
100
AcDbEntity
8
0
100
AcDbPolyline
90
4
70
1
43
0.0
10
118.36906748887642
20
34.720417207438516
10
118.36906748887642
20
44.720417207438516
10
116.86906748887644
20
44.720417207438516
10
116.86906748887644
20
34.720417207438516
0
LWPOLYLINE
5
106
100
AcDbEntity
8
0
100
AcDbPolyline
90
4
70
1
43
0.0
10
104.36906748887642
20
25.220584207438446
10
104.36906748887642
20
26.720584207438449
10
84.369067488876425
20
26.720584207438449
10
84.369067488876425
20
25.220584207438442
0
LWPOLYLINE
5
107
100
AcDbEntity
8
0
100
AcDbPolyline
90
4
70
1
43
0.0
10
25.369067488876432
20
62.717270122661439
10
25.369067488876425
20
52.717270122661439
10
26.869067488876425
20
52.717270122661439
10
26.869067488876432
20
62.717270122661439
0
LWPOLYLINE
5
108
100
AcDbEntity
8
0
100
AcDbPolyline
90
4
70
1
43
0.0
10
116.86906748887642
20
62.720417207438516
10
116.86906748887642
20
52.720417207438516
10
118.36906748887642
20
52.720417207438516
10
118.36906748887642
20
62.720417207438516
0
LWPOLYLINE
5
109
100
AcDbEntity
8
0
100
AcDbPolyline
90
4
70
1
43
0.0
10
26.869067488876432
20
34.717270122661432
10
26.869067488876432
20
44.717270122661432
10
25.369067488876425
20
44.717270122661432
10
25.369067488876425
20
34.717270122661439
0
CIRCLE
5
110
100
AcDbEntity
8
0
100
AcDbCircle
10
112.9801137166446
20
48.72041720743853
30
0
40
1.6000000000000014
210
-0
220
0
230
1
0
ENDSEC
0
SECTION
2
OBJECTS
0
DICTIONARY
5
C
100
AcDbDictionary
3
ACAD_GROUP
350
D
3
ACAD_MLINESTYLE
350
17
0
DICTIONARY
5
D
100
AcDbDictionary
0
DICTIONARY
5
1A
330
C
100
AcDbDictionary
0
DICTIONARY
5
17
100
AcDbDictionary
0
ENDSEC
0
EOF
