0
SECTION
2
HEADER
9
$INSUNITS
70
4
9
$ACADVER
1
AC1014
9
$HANDSEED
5
FFFF
0
ENDSEC
0
SECTION
2
TABLES
0
TABLE
2
VPORT
5
8
100
AcDbSymbolTable
0
ENDTAB
0
TABLE
2
LTYPE
5
5
100
AcDbSymbolTable
0
LTYPE
5
14
100
AcDbSymbolTableRecord
100
AcDbLinetypeTableRecord
2
BYBLOCK
70
0
0
LTYPE
5
15
100
AcDbSymbolTableRecord
100
AcDbLinetypeTableRecord
2
BYLAYER
70
0
0
ENDTAB
0
TABLE
2
LAYER
5
2
100
AcDbSymbolTable
70
2
0
LAYER
5
50
100
AcDbSymbolTableRecord
100
AcDbLayerTableRecord
2
0
70
0
6
CONTINUOUS
0
ENDTAB
0
TABLE
2
STYLE
5
3
100
AcDbSymbolTable
70
1
0
STYLE
5
11
100
AcDbSymbolTableRecord
100
AcDbTextStyleTableRecord
2
STANDARD
70
0
0
ENDTAB
0
TABLE
2
VIEW
5
6
100
AcDbSymbolTable
70
0
0
ENDTAB
0
TABLE
2
UCS
5
7
100
AcDbSymbolTable
70
0
0
ENDTAB
0
TABLE
2
APPID
5
9
100
AcDbSymbolTable
70
2
0
APPID
5
12
100
AcDbSymbolTableRecord
100
AcDbRegAppTableRecord
2
ACAD
70
0
0
ENDTAB
0
TABLE
2
DIMSTYLE
5
A
100
AcDbSymbolTable
70
1
0
ENDTAB
0
TABLE
2
BLOCK_RECORD
5
1
100
AcDbSymbolTable
70
1
0
BLOCK_RECORD
5
1F
100
AcDbSymbolTableRecord
100
AcDbBlockTableRecord
2
*MODEL_SPACE
0
BLOCK_RECORD
5
1B
100
AcDbSymbolTableRecord
100
AcDbBlockTableRecord
2
*PAPER_SPACE
0
ENDTAB
0
ENDSEC
0
SECTION
2
BLOCKS
0
BLOCK
5
20
100
AcDbEntity
100
AcDbBlockBegin
2
*MODEL_SPACE
0
ENDBLK
5
21
100
AcDbEntity
100
AcDbBlockEnd
0
BLOCK
5
1C
100
AcDbEntity
100
AcDbBlockBegin
2
*PAPER_SPACE
0
ENDBLK
5
1D
100
AcDbEntity
100
AcDbBlockEnd
0
ENDSEC
0
SECTION
2
ENTITIES
0
LWPOLYLINE
5
100
100
AcDbEntity
8
0
100
AcDbPolyline
90
26
70
1
43
0.0
10
-23.220584207438442
20
-4.9899999999451694
10
-23.220584207438453
20
-10.239999999945171
42
0.41421356237309509
10
-18.220584207438435
20
-15.239999999945169
10
-16.220584207438463
20
-15.239999999945164
42
-2.3853153139395884
10
-20.21999920743859
20
-19.308408024138249
10
-20.21999920743859
20
-18.489999999945173
10
-23.220584207438453
20
-18.489999999945169
10
-23.220584207438453
20
-16.989999999945169
10
-34.717270122661432
20
-16.989999999945169
10
-34.717270122661432
20
-18.489999999945169
10
-41.717270122661425
20
-18.489999999945169
10
-41.717270122661425
20
-16.989999999945169
10
-72.220417207438473
20
-16.989999999945169
10
-72.220417207438473
20
-13.489999999945169
10
-70.720417207438473
20
-13.489999999945169
10
-70.720417207438473
20
-8.4899999999451694
10
-72.220417207438473
20
-8.4899999999451694
10
-72.220417207438473
20
-4.9899999999451694
10
-62.717270122661439
20
-4.9899999999451685
10
-62.717270122661439
20
-3.4899999999451694
10
-52.717270122661439
20
-3.4899999999451694
10
-52.717270122661439
20
-4.9899999999451685
10
-44.717270122661432
20
-4.9899999999451685
10
-44.717270122661432
20
-3.4899999999451694
10
-34.717270122661432
20
-3.4899999999451694
10
-34.717270122661432
20
-4.9899999999451685
0
LWPOLYLINE
5
101
100
AcDbEntity
8
0
100
AcDbPolyline
90
4
70
1
43
0.0
10
-25.220584207438446
20
-8.4899999999451694
10
-26.720584207438449
20
-8.4899999999451694
10
-26.720584207438449
20
-13.489999999945169
10
-25.220584207438446
20
-13.489999999945169
0
CIRCLE
5
102
100
AcDbEntity
8
0
100
AcDbCircle
10
-16.22058420743846
20
-19.239999999945169
30
0
40
1.6770509831248503
210
0
220
-0
230
1
0
ENDSEC
0
SECTION
2
OBJECTS
0
DICTIONARY
5
C
100
AcDbDictionary
3
ACAD_GROUP
350
D
3
ACAD_MLINESTYLE
350
17
0
DICTIONARY
5
D
100
AcDbDictionary
0
DICTIONARY
5
1A
330
C
100
AcDbDictionary
0
DICTIONARY
5
17
100
AcDbDictionary
0
ENDSEC
0
EOF
