0
SECTION
2
HEADER
9
$INSUNITS
70
4
9
$ACADVER
1
AC1014
9
$HANDSEED
5
FFFF
0
ENDSEC
0
SECTION
2
TABLES
0
TABLE
2
VPORT
5
8
100
AcDbSymbolTable
0
ENDTAB
0
TABLE
2
LTYPE
5
5
100
AcDbSymbolTable
0
LTYPE
5
14
100
AcDbSymbolTableRecord
100
AcDbLinetypeTableRecord
2
BYBLOCK
70
0
0
LTYPE
5
15
100
AcDbSymbolTableRecord
100
AcDbLinetypeTableRecord
2
BYLAYER
70
0
0
ENDTAB
0
TABLE
2
LAYER
5
2
100
AcDbSymbolTable
70
2
0
LAYER
5
50
100
AcDbSymbolTableRecord
100
AcDbLayerTableRecord
2
0
70
0
6
CONTINUOUS
0
ENDTAB
0
TABLE
2
STYLE
5
3
100
AcDbSymbolTable
70
1
0
STYLE
5
11
100
AcDbSymbolTableRecord
100
AcDbTextStyleTableRecord
2
STANDARD
70
0
0
ENDTAB
0
TABLE
2
VIEW
5
6
100
AcDbSymbolTable
70
0
0
ENDTAB
0
TABLE
2
UCS
5
7
100
AcDbSymbolTable
70
0
0
ENDTAB
0
TABLE
2
APPID
5
9
100
AcDbSymbolTable
70
2
0
APPID
5
12
100
AcDbSymbolTableRecord
100
AcDbRegAppTableRecord
2
ACAD
70
0
0
ENDTAB
0
TABLE
2
DIMSTYLE
5
A
100
AcDbSymbolTable
70
1
0
ENDTAB
0
TABLE
2
BLOCK_RECORD
5
1
100
AcDbSymbolTable
70
1
0
BLOCK_RECORD
5
1F
100
AcDbSymbolTableRecord
100
AcDbBlockTableRecord
2
*MODEL_SPACE
0
BLOCK_RECORD
5
1B
100
AcDbSymbolTableRecord
100
AcDbBlockTableRecord
2
*PAPER_SPACE
0
ENDTAB
0
ENDSEC
0
SECTION
2
BLOCKS
0
BLOCK
5
20
100
AcDbEntity
100
AcDbBlockBegin
2
*MODEL_SPACE
0
ENDBLK
5
21
100
AcDbEntity
100
AcDbBlockEnd
0
BLOCK
5
1C
100
AcDbEntity
100
AcDbBlockBegin
2
*PAPER_SPACE
0
ENDBLK
5
1D
100
AcDbEntity
100
AcDbBlockEnd
0
ENDSEC
0
SECTION
2
ENTITIES
0
LWPOLYLINE
5
100
100
AcDbEntity
8
0
100
AcDbPolyline
90
8
70
1
43
0.0
10
24.373530387878652
20
-241.52646484374972
10
-98.62646961212161
20
-241.52646484374986
42
0.41421356237310886
10
-100.12646961212158
20
-243.02646484374981
10
-100.12646961212161
20
-245.02646484374989
42
0.41421356237311241
10
-98.626469612121625
20
-246.52646484374984
10
24.373530387878649
20
-246.52646484374984
42
0.41421356237309587
10
25.87353038787867
20
-245.02646484374986
10
25.873530387878652
20
-243.02646484374986
42
0.41421356237309509
0
LWPOLYLINE
5
101
100
AcDbEntity
8
0
100
AcDbPolyline
90
8
70
1
43
0.0
10
24.373530387878706
20
-231.52646484374995
10
-98.62646961212161
20
-231.52646484374986
42
0.41421356237307422
10
-100.12646961212158
20
-233.02646484374981
10
-100.12646961212161
20
-235.02646484374989
42
0.41421356237311241
10
-98.626469612121625
20
-236.52646484374986
10
24.373530387878684
20
-236.52646484374984
42
0.41421356237309587
10
25.873530387878706
20
-235.02646484374986
10
25.873530387878688
20
-233.02646484374986
42
0.41421356237309165
0
LWPOLYLINE
5
102
100
AcDbEntity
8
0
100
AcDbPolyline
90
28
70
1
43
0.0
10
39.873530387878468
20
-244.52646484375015
10
39.873530387878603
20
-254.02646484375023
10
18.873530387878525
20
-254.02646484375015
10
18.87353038787851
20
-259.52646484375015
10
-16.12646961212149
20
-259.52646484375009
10
-16.126469612121479
20
-254.02646484375012
10
-58.126469612121483
20
-254.02646484375001
10
-58.12646961212149
20
-259.52646484374998
10
-93.126469612121525
20
-259.52646484374992
10
-93.126469612121497
20
-254.02646484374992
10
-114.12646961212141
20
-254.02646484374992
10
-114.1264696121216
20
-244.52646484374986
10
-119.62646961212158
20
-244.52646484374986
10
-119.62646961212157
20
-233.52646484374989
10
-114.12646961212155
20
-233.52646484374989
10
-114.12646961212134
20
-224.02646484374986
10
-93.126469612121539
20
-224.02646484374992
10
-93.126469612121525
20
-218.52646484374989
10
-58.126469612121497
20
-218.52646484374998
10
-58.126469612121511
20
-224.02646484374998
10
-16.126469612121525
20
-224.02646484375003
10
-16.126469612121511
20
-218.52646484375009
10
18.873530387878496
20
-218.52646484375015
10
18.873530387878482
20
-224.02646484375015
10
39.873530387878681
20
-224.0264648437502
10
39.873530387878482
20
-233.52646484375015
10
45.373530387878496
20
-233.52646484375012
10
45.373530387878475
20
-244.52646484375012
0
ENDSEC
0
SECTION
2
OBJECTS
0
DICTIONARY
5
C
100
AcDbDictionary
3
ACAD_GROUP
350
D
3
ACAD_MLINESTYLE
350
17
0
DICTIONARY
5
D
100
AcDbDictionary
0
DICTIONARY
5
1A
330
C
100
AcDbDictionary
0
DICTIONARY
5
17
100
AcDbDictionary
0
ENDSEC
0
EOF
