0
SECTION
2
HEADER
9
$INSUNITS
70
4
9
$ACADVER
1
AC1014
9
$HANDSEED
5
FFFF
0
ENDSEC
0
SECTION
2
TABLES
0
TABLE
2
VPORT
5
8
100
AcDbSymbolTable
0
ENDTAB
0
TABLE
2
LTYPE
5
5
100
AcDbSymbolTable
0
LTYPE
5
14
100
AcDbSymbolTableRecord
100
AcDbLinetypeTableRecord
2
BYBLOCK
70
0
0
LTYPE
5
15
100
AcDbSymbolTableRecord
100
AcDbLinetypeTableRecord
2
BYLAYER
70
0
0
ENDTAB
0
TABLE
2
LAYER
5
2
100
AcDbSymbolTable
70
2
0
LAYER
5
50
100
AcDbSymbolTableRecord
100
AcDbLayerTableRecord
2
0
70
0
6
CONTINUOUS
0
ENDTAB
0
TABLE
2
STYLE
5
3
100
AcDbSymbolTable
70
1
0
STYLE
5
11
100
AcDbSymbolTableRecord
100
AcDbTextStyleTableRecord
2
STANDARD
70
0
0
ENDTAB
0
TABLE
2
VIEW
5
6
100
AcDbSymbolTable
70
0
0
ENDTAB
0
TABLE
2
UCS
5
7
100
AcDbSymbolTable
70
0
0
ENDTAB
0
TABLE
2
APPID
5
9
100
AcDbSymbolTable
70
2
0
APPID
5
12
100
AcDbSymbolTableRecord
100
AcDbRegAppTableRecord
2
ACAD
70
0
0
ENDTAB
0
TABLE
2
DIMSTYLE
5
A
100
AcDbSymbolTable
70
1
0
ENDTAB
0
TABLE
2
BLOCK_RECORD
5
1
100
AcDbSymbolTable
70
1
0
BLOCK_RECORD
5
1F
100
AcDbSymbolTableRecord
100
AcDbBlockTableRecord
2
*MODEL_SPACE
0
BLOCK_RECORD
5
1B
100
AcDbSymbolTableRecord
100
AcDbBlockTableRecord
2
*PAPER_SPACE
0
ENDTAB
0
ENDSEC
0
SECTION
2
BLOCKS
0
BLOCK
5
20
100
AcDbEntity
100
AcDbBlockBegin
2
*MODEL_SPACE
0
ENDBLK
5
21
100
AcDbEntity
100
AcDbBlockEnd
0
BLOCK
5
1C
100
AcDbEntity
100
AcDbBlockBegin
2
*PAPER_SPACE
0
ENDBLK
5
1D
100
AcDbEntity
100
AcDbBlockEnd
0
ENDSEC
0
SECTION
2
ENTITIES
0
LWPOLYLINE
5
100
100
AcDbEntity
8
0
100
AcDbPolyline
90
8
70
1
43
0.0
10
68.999996185302507
20
-246.5264739990242
42
-0.41421356237308982
10
67.499996185302507
20
-245.02647399902426
10
67.499996185302507
20
-243.02647399902426
42
-0.41421356237310542
10
68.999996185302507
20
-241.5264739990242
10
140.99999618530251
20
-241.52647399902423
42
-0.41421356237309165
10
142.49999618530251
20
-243.02647399902418
10
142.49999618530251
20
-245.02647399902426
42
-0.4142135623730881
10
140.99999618530251
20
-246.5264739990242
0
LWPOLYLINE
5
101
100
AcDbEntity
8
0
100
AcDbPolyline
90
8
70
1
43
0.0
10
68.999996185302507
20
-236.5264739990242
42
-0.4142135623731002
10
67.499996185302507
20
-235.02647399902423
10
67.499996185302521
20
-233.02647399902423
42
-0.41421356237310719
10
68.999996185302535
20
-231.5264739990242
10
140.99999618530251
20
-231.52647399902423
42
-0.41421356237309165
10
142.49999618530251
20
-233.02647399902418
10
142.49999618530254
20
-235.02647399902423
42
-0.41421356237309165
10
140.99999618530254
20
-236.5264739990242
0
LWPOLYLINE
5
102
100
AcDbEntity
8
0
100
AcDbPolyline
90
20
70
1
43
0.0
10
53.499996185302827
20
-233.52647399902452
10
47.99999618530282
20
-233.52647399902452
10
47.999996185302756
20
-224.02647399902449
10
79.999996185302791
20
-224.02647399902457
10
79.999996185302777
20
-218.52647399902455
10
129.99999618530279
20
-218.52647399902457
10
129.99999618530279
20
-224.0264739990246
10
161.99999618530279
20
-224.0264739990244
10
161.99999618530285
20
-233.52647399902449
10
156.49999618530285
20
-233.52647399902452
10
156.49999618530285
20
-244.52647399902452
10
161.99999618530285
20
-244.52647399902452
10
161.99999618530279
20
-254.02647399902449
10
129.99999618530279
20
-254.02647399902446
10
129.99999618530279
20
-259.52647399902457
10
79.999996185302763
20
-259.52647399902463
10
79.999996185302777
20
-254.02647399902449
10
47.999996185302763
20
-254.02647399902449
10
47.999996185302805
20
-244.52647399902452
10
53.49999618530282
20
-244.52647399902452
0
ENDSEC
0
SECTION
2
OBJECTS
0
DICTIONARY
5
C
100
AcDbDictionary
3
ACAD_GROUP
350
D
3
ACAD_MLINESTYLE
350
17
0
DICTIONARY
5
D
100
AcDbDictionary
0
DICTIONARY
5
1A
330
C
100
AcDbDictionary
0
DICTIONARY
5
17
100
AcDbDictionary
0
ENDSEC
0
EOF
