0
SECTION
2
HEADER
9
$INSUNITS
70
4
9
$ACADVER
1
AC1014
9
$HANDSEED
5
FFFF
0
ENDSEC
0
SECTION
2
TABLES
0
TABLE
2
VPORT
5
8
100
AcDbSymbolTable
0
ENDTAB
0
TABLE
2
LTYPE
5
5
100
AcDbSymbolTable
0
LTYPE
5
14
100
AcDbSymbolTableRecord
100
AcDbLinetypeTableRecord
2
BYBLOCK
70
0
0
LTYPE
5
15
100
AcDbSymbolTableRecord
100
AcDbLinetypeTableRecord
2
BYLAYER
70
0
0
ENDTAB
0
TABLE
2
LAYER
5
2
100
AcDbSymbolTable
70
2
0
LAYER
5
50
100
AcDbSymbolTableRecord
100
AcDbLayerTableRecord
2
0
70
0
6
CONTINUOUS
0
ENDTAB
0
TABLE
2
STYLE
5
3
100
AcDbSymbolTable
70
1
0
STYLE
5
11
100
AcDbSymbolTableRecord
100
AcDbTextStyleTableRecord
2
STANDARD
70
0
0
ENDTAB
0
TABLE
2
VIEW
5
6
100
AcDbSymbolTable
70
0
0
ENDTAB
0
TABLE
2
UCS
5
7
100
AcDbSymbolTable
70
0
0
ENDTAB
0
TABLE
2
APPID
5
9
100
AcDbSymbolTable
70
2
0
APPID
5
12
100
AcDbSymbolTableRecord
100
AcDbRegAppTableRecord
2
ACAD
70
0
0
ENDTAB
0
TABLE
2
DIMSTYLE
5
A
100
AcDbSymbolTable
70
1
0
ENDTAB
0
TABLE
2
BLOCK_RECORD
5
1
100
AcDbSymbolTable
70
1
0
BLOCK_RECORD
5
1F
100
AcDbSymbolTableRecord
100
AcDbBlockTableRecord
2
*MODEL_SPACE
0
BLOCK_RECORD
5
1B
100
AcDbSymbolTableRecord
100
AcDbBlockTableRecord
2
*PAPER_SPACE
0
ENDTAB
0
ENDSEC
0
SECTION
2
BLOCKS
0
BLOCK
5
20
100
AcDbEntity
100
AcDbBlockBegin
2
*MODEL_SPACE
0
ENDBLK
5
21
100
AcDbEntity
100
AcDbBlockEnd
0
BLOCK
5
1C
100
AcDbEntity
100
AcDbBlockBegin
2
*PAPER_SPACE
0
ENDBLK
5
1D
100
AcDbEntity
100
AcDbBlockEnd
0
ENDSEC
0
SECTION
2
ENTITIES
0
CIRCLE
5
100
100
AcDbEntity
8
0
100
AcDbCircle
10
127.09219999999985
20
59.587980244335768
30
0
40
0.99999999999999645
210
0
220
0
230
1
0
CIRCLE
5
101
100
AcDbEntity
8
0
100
AcDbCircle
10
74.999513560165653
20
61.087980237264361
30
0
40
1.6000000000000014
210
0
220
0
230
1
0
CIRCLE
5
102
100
AcDbEntity
8
0
100
AcDbCircle
10
134.99951356016564
20
61.087980237264361
30
0
40
1.6000000000000014
210
0
220
0
230
1
0
CIRCLE
5
103
100
AcDbEntity
8
0
100
AcDbCircle
10
74.999513560165653
20
106.08798023726433
30
0
40
1.6000000000000014
210
0
220
0
230
1
0
CIRCLE
5
104
100
AcDbEntity
8
0
100
AcDbCircle
10
134.99951356016564
20
106.08798023726439
30
0
40
1.6000000000000014
210
0
220
0
230
1
0
LWPOLYLINE
5
105
100
AcDbEntity
8
0
100
AcDbPolyline
90
8
70
1
43
0.0
10
126.99951356016562
20
64.587980237264333
42
-0.41421356237309165
10
123.99951356016561
20
61.587980237264368
10
85.999513560165639
20
61.587980237264368
42
-0.4142135623730977
10
82.999513560165653
20
64.587980237264347
10
82.999513560165653
20
102.58798023726439
42
-0.41421356237308637
10
85.999513560165639
20
105.58798023726439
10
123.99951356016564
20
105.58798023726432
42
-0.41421356237309331
10
126.99951356016562
20
102.5879802372643
0
CIRCLE
5
106
100
AcDbEntity
8
0
100
AcDbCircle
10
151.49999999999997
20
109.1264701407413
30
0
40
1.6000000000000014
210
0
220
-0
230
1
0
CIRCLE
5
107
100
AcDbEntity
8
0
100
AcDbCircle
10
58.500000000000028
20
109.12647014074109
30
0
40
1.6000000000000014
210
0
220
-0
230
1
0
LWPOLYLINE
5
108
100
AcDbEntity
8
0
100
AcDbPolyline
90
20
70
1
43
0.0
10
142.59079999999992
20
-14.55092985925878
10
119.96579999999997
20
-14.550929859258703
42
-0.4142135623730937
10
117.96579999999997
20
-12.550929859258684
10
117.96579999999997
20
-10.222737127961153
42
0.41421356237309009
10
115.9658
20
-8.2227371279611674
10
92.590799999999987
20
-8.222737127961155
42
0.41421356237309959
10
90.590799999999945
20
-10.222737127961166
10
90.59079999999993
20
-24.550929859258588
42
0.41421356237308982
10
92.590799999999945
20
-26.550929859258574
10
110.59079999999992
20
-26.55092985925867
42
-0.41421356237308726
10
112.5907999999999
20
-28.55092985925868
10
112.59079999999989
20
-28.900929859258675
42
0.41421356237309637
10
114.59079999999987
20
-30.900929859258682
10
120.59079999999989
20
-30.90092985925871
42
0.41421356237310542
10
122.5907999999999
20
-28.900929859258735
10
122.5907999999999
20
-28.550929859258687
42
-0.41421356237308327
10
124.59079999999987
20
-26.550929859258726
10
142.59079999999986
20
-26.550929859258812
42
0.41421356237309637
10
144.59079999999986
20
-24.550929859258783
10
144.59079999999994
20
-16.550929859258776
42
0.41421356237310736
0
CIRCLE
5
109
100
AcDbEntity
8
0
100
AcDbCircle
10
151.49999999999991
20
-23.373529859258522
30
0
40
1.6000000000000014
210
-0
220
0
230
1
0
CIRCLE
5
110
100
AcDbEntity
8
0
100
AcDbCircle
10
78.499999999999858
20
-23.373529859258664
30
0
40
1.6000000000000103
210
-0
220
0
230
1
0
LWPOLYLINE
5
111
100
AcDbEntity
8
0
100
AcDbPolyline
90
4
70
1
43
0.0
10
156.39999999999998
20
58.026470140741466
10
162.10000000000014
20
58.026470140741431
10
162.10000000000008
20
93.226470140741469
10
156.39999999999992
20
93.226470140741469
0
LWPOLYLINE
5
112
100
AcDbEntity
8
0
100
AcDbPolyline
90
4
70
1
43
0.0
10
53.600000000000065
20
16.226470140741434
10
47.900000000000134
20
16.226470140741434
10
47.900000000000169
20
-18.973529859258562
10
53.600000000000136
20
-18.973529859258562
0
LWPOLYLINE
5
113
100
AcDbEntity
8
0
100
AcDbPolyline
90
4
70
1
43
0.0
10
129.99999999999989
20
114.12647014074142
10
129.99999999999989
20
119.62647014074139
10
79.999999999999886
20
119.62647014074139
10
79.999999999999886
20
114.12647014074142
0
LWPOLYLINE
5
114
100
AcDbEntity
8
0
100
AcDbPolyline
90
4
70
1
43
0.0
10
53.60000000000003
20
58.026470140741431
10
53.599999999999937
20
93.226470140741426
10
47.900000000000027
20
93.226470140741469
10
47.900000000000027
20
58.026470140741431
0
CIRCLE
5
115
100
AcDbEntity
8
0
100
AcDbCircle
10
151.50000000000009
20
-34.873529859250105
30
0
40
1.6000000000000014
210
-0
220
0
230
1
0
CIRCLE
5
116
100
AcDbEntity
8
0
100
AcDbCircle
10
78.499999999999687
20
43.626470140741347
30
0
40
1.6000000000000014
210
-0
220
0
230
1
0
CIRCLE
5
117
100
AcDbEntity
8
0
100
AcDbCircle
10
151.49999999999989
20
43.626470140740956
30
0
40
1.6000000000000014
210
-0
220
0
230
1
0
LWPOLYLINE
5
118
100
AcDbEntity
8
0
100
AcDbPolyline
90
4
70
1
43
0.0
10
162.10000000000019
20
16.226470140741469
10
156.40000000000009
20
16.226470140741469
10
156.40000000000018
20
-18.973529859258544
10
162.10000000000019
20
-18.973529859258544
0
CIRCLE
5
119
100
AcDbEntity
8
0
100
AcDbCircle
10
79.500000000000085
20
-15.873529859258753
30
0
40
2.5000000000000089
210
-0
220
0
230
1
0
CIRCLE
5
120
100
AcDbEntity
8
0
100
AcDbCircle
10
86.500000000000028
20
-15.873529859258735
30
0
40
2.5
210
-0
220
0
230
1
0
LWPOLYLINE
5
121
100
AcDbEntity
8
0
100
AcDbPolyline
90
4
70
1
43
0.0
10
80.000000000000156
20
-39.873529859258653
10
80.000000000000156
20
-45.373529859258639
10
130.0000000000002
20
-45.373529859258639
10
130.00000000000017
20
-39.873529859258632
0
CIRCLE
5
122
100
AcDbEntity
8
0
100
AcDbCircle
10
58.500000000000121
20
-34.873529859250226
30
0
40
1.6000000000000014
210
-0
220
0
230
1
0
LWPOLYLINE
5
123
100
AcDbEntity
8
0
100
AcDbPolyline
90
8
70
1
43
0.0
10
167.99999999999994
20
119.62647014074147
10
168.00000000000017
20
-45.373529859258532
42
-0.41421356237308898
10
162.0000000000002
20
-51.373529859258547
10
48.000000000000149
20
-51.373529859258781
42
-0.41421356237309243
10
42.000000000000135
20
-45.373529859258817
10
41.999999999999886
20
119.62647014074122
42
-0.41421356237310197
10
47.999999999999865
20
125.62647014074128
10
161.99999999999994
20
125.62647014074147
42
-0.41421356237308982
0
ENDSEC
0
SECTION
2
OBJECTS
0
DICTIONARY
5
C
100
AcDbDictionary
3
ACAD_GROUP
350
D
3
ACAD_MLINESTYLE
350
17
0
DICTIONARY
5
D
100
AcDbDictionary
0
DICTIONARY
5
1A
330
C
100
AcDbDictionary
0
DICTIONARY
5
17
100
AcDbDictionary
0
ENDSEC
0
EOF
