0
SECTION
2
HEADER
9
$INSUNITS
70
4
9
$ACADVER
1
AC1014
9
$HANDSEED
5
FFFF
0
ENDSEC
0
SECTION
2
TABLES
0
TABLE
2
VPORT
5
8
100
AcDbSymbolTable
0
ENDTAB
0
TABLE
2
LTYPE
5
5
100
AcDbSymbolTable
0
LTYPE
5
14
100
AcDbSymbolTableRecord
100
AcDbLinetypeTableRecord
2
BYBLOCK
70
0
0
LTYPE
5
15
100
AcDbSymbolTableRecord
100
AcDbLinetypeTableRecord
2
BYLAYER
70
0
0
ENDTAB
0
TABLE
2
LAYER
5
2
100
AcDbSymbolTable
70
2
0
LAYER
5
50
100
AcDbSymbolTableRecord
100
AcDbLayerTableRecord
2
0
70
0
6
CONTINUOUS
0
ENDTAB
0
TABLE
2
STYLE
5
3
100
AcDbSymbolTable
70
1
0
STYLE
5
11
100
AcDbSymbolTableRecord
100
AcDbTextStyleTableRecord
2
STANDARD
70
0
0
ENDTAB
0
TABLE
2
VIEW
5
6
100
AcDbSymbolTable
70
0
0
ENDTAB
0
TABLE
2
UCS
5
7
100
AcDbSymbolTable
70
0
0
ENDTAB
0
TABLE
2
APPID
5
9
100
AcDbSymbolTable
70
2
0
APPID
5
12
100
AcDbSymbolTableRecord
100
AcDbRegAppTableRecord
2
ACAD
70
0
0
ENDTAB
0
TABLE
2
DIMSTYLE
5
A
100
AcDbSymbolTable
70
1
0
ENDTAB
0
TABLE
2
BLOCK_RECORD
5
1
100
AcDbSymbolTable
70
1
0
BLOCK_RECORD
5
1F
100
AcDbSymbolTableRecord
100
AcDbBlockTableRecord
2
*MODEL_SPACE
0
BLOCK_RECORD
5
1B
100
AcDbSymbolTableRecord
100
AcDbBlockTableRecord
2
*PAPER_SPACE
0
ENDTAB
0
ENDSEC
0
SECTION
2
BLOCKS
0
BLOCK
5
20
100
AcDbEntity
100
AcDbBlockBegin
2
*MODEL_SPACE
0
ENDBLK
5
21
100
AcDbEntity
100
AcDbBlockEnd
0
BLOCK
5
1C
100
AcDbEntity
100
AcDbBlockBegin
2
*PAPER_SPACE
0
ENDBLK
5
1D
100
AcDbEntity
100
AcDbBlockEnd
0
ENDSEC
0
SECTION
2
ENTITIES
0
CIRCLE
5
100
100
AcDbEntity
8
0
100
AcDbCircle
10
82.906825810145278
20
59.587980212495786
30
0
40
0.99999999999999645
210
0
220
-0
230
1
0
CIRCLE
5
101
100
AcDbEntity
8
0
100
AcDbCircle
10
96.933627067520149
20
37.781835725720597
30
0
40
1.6000000000000014
210
0
220
-0
230
1
0
CIRCLE
5
102
100
AcDbEntity
8
0
100
AcDbCircle
10
96.933627067520092
20
20.781835725720612
30
0
40
1.6000000000000014
210
0
220
-0
230
1
0
CIRCLE
5
103
100
AcDbEntity
8
0
100
AcDbCircle
10
103.29413007025533
20
-3.4430328938358463
30
0
40
1.587499999999995
210
0
220
-0
230
1
0
CIRCLE
5
104
100
AcDbEntity
8
0
100
AcDbCircle
10
151.55413007025533
20
-2.1730328938374468
30
0
40
1.5875000000000126
210
-3.0814879110195835e-33
220
2.4651903288156624e-32
230
1
0
CIRCLE
5
105
100
AcDbEntity
8
0
100
AcDbCircle
10
58.499998689813843
20
109.1264701089011
30
0
40
1.6000000000000014
210
0
220
0
230
1
0
CIRCLE
5
106
100
AcDbEntity
8
0
100
AcDbCircle
10
151.49999868981379
20
109.12647010890132
30
0
40
1.6000000000000014
210
0
220
0
230
1
0
LWPOLYLINE
5
107
100
AcDbEntity
8
0
100
AcDbPolyline
90
8
70
1
43
0.0
10
126.99951224997945
20
64.587980205424344
42
-0.41421356237309165
10
123.99951224997943
20
61.587980205424373
10
85.99951224997946
20
61.587980205424358
42
-0.41421356237309853
10
82.999512249979475
20
64.587980205424344
10
82.99951224997946
20
102.5879802054244
42
-0.4142135623730881
10
85.99951224997946
20
105.5879802054244
10
123.99951224997946
20
105.58798020542433
42
-0.41421356237309331
10
126.99951224997945
20
102.58798020542432
0
CIRCLE
5
108
100
AcDbEntity
8
0
100
AcDbCircle
10
134.99951224997946
20
106.0879802054244
30
0
40
1.6000000000000014
210
0
220
0
230
1
0
CIRCLE
5
109
100
AcDbEntity
8
0
100
AcDbCircle
10
74.99951224997946
20
106.08798020542434
30
0
40
1.6000000000000014
210
0
220
0
230
1
0
CIRCLE
5
110
100
AcDbEntity
8
0
100
AcDbCircle
10
134.99951224997946
20
61.087980205424365
30
0
40
1.6000000000000014
210
0
220
0
230
1
0
CIRCLE
5
111
100
AcDbEntity
8
0
100
AcDbCircle
10
74.99951224997946
20
61.087980205424365
30
0
40
1.6000000000000014
210
0
220
0
230
1
0
CIRCLE
5
112
100
AcDbEntity
8
0
100
AcDbCircle
10
127.09219868981366
20
59.587980212495772
30
0
40
0.99999999999999645
210
0
220
0
230
1
0
LWPOLYLINE
5
113
100
AcDbEntity
8
0
100
AcDbPolyline
90
4
70
1
43
0.0
10
130.09999868981367
20
119.72647010890145
10
79.899998689813671
20
119.72647010890142
10
79.899998689813685
20
114.02647010890146
10
130.09999868981365
20
114.02647010890146
0
LWPOLYLINE
5
114
100
AcDbEntity
8
0
100
AcDbPolyline
90
4
70
1
43
0.0
10
162.19999868981398
20
62.126470108901344
10
162.1999986898139
20
92.326470108901333
10
156.49999868981385
20
92.326470108901333
10
156.49999868981399
20
62.12647010890133
0
LWPOLYLINE
5
115
100
AcDbEntity
8
0
100
AcDbPolyline
90
4
70
1
43
0.0
10
53.599998689813972
20
62.126470108901302
10
53.599998689813901
20
92.326470108901304
10
47.899998689813884
20
92.326470108901304
10
47.899998689813962
20
62.126470108901287
0
CIRCLE
5
116
100
AcDbEntity
8
0
100
AcDbCircle
10
58.499998689813843
20
68.587980205424387
30
0
40
4.0000000000000036
210
-0
220
0
230
1
0
CIRCLE
5
117
100
AcDbEntity
8
0
100
AcDbCircle
10
151.49902581014507
20
98.587980205424373
30
0
40
3.9999999999999858
210
-0
220
0
230
1
0
CIRCLE
5
118
100
AcDbEntity
8
0
100
AcDbCircle
10
58.499998689813836
20
98.587980205424373
30
0
40
4.0000000000000036
210
-0
220
0
230
1
0
CIRCLE
5
119
100
AcDbEntity
8
0
100
AcDbCircle
10
151.49902581014507
20
68.587980205424387
30
0
40
4.0000000000000036
210
-0
220
0
230
1
0
LWPOLYLINE
5
120
100
AcDbEntity
8
0
100
AcDbPolyline
90
8
70
1
43
0.0
10
41.999998689813935
20
-33.373529891098741
10
41.999998689813687
20
119.62647010890123
42
-0.41421356237310197
10
47.999998689813665
20
125.62647010890129
10
161.99999868981376
20
125.62647010890153
42
-0.41421356237309165
10
167.99999868981374
20
119.62647010890149
10
167.99999868981402
20
-33.373529891098528
42
-0.4142135623730937
10
161.99999868981399
20
-39.373529891098535
10
47.999998689813978
20
-39.373529891098769
42
-0.41421356237309548
0
CIRCLE
5
121
100
AcDbEntity
8
0
100
AcDbCircle
10
151.49999868981374
20
-22.873529891090048
30
0
40
1.6000000000000014
210
-0
220
0
230
1
0
CIRCLE
5
122
100
AcDbEntity
8
0
100
AcDbCircle
10
58.499998689813857
20
-22.873529891090143
30
0
40
1.6000000000000014
210
-0
220
0
230
1
0
LWPOLYLINE
5
123
100
AcDbEntity
8
0
100
AcDbPolyline
90
4
70
1
43
0.0
10
162.19999868981421
20
-5.8735298910986611
10
162.19999868981392
20
24.326470108901333
10
156.49999868981391
20
24.326470108901319
10
156.49999868981416
20
-5.8735298910986744
0
LWPOLYLINE
5
124
100
AcDbEntity
8
0
100
AcDbPolyline
90
4
70
1
43
0.0
10
53.599998689814242
20
-5.8735298910987055
10
53.599998689813965
20
24.32647010890129
10
47.899998689813962
20
24.326470108901283
10
47.89999868981424
20
-5.8735298910987188
0
LWPOLYLINE
5
125
100
AcDbEntity
8
0
100
AcDbPolyline
90
4
70
1
43
0.0
10
130.09999868981396
20
-27.773529891098605
10
79.899998689813941
20
-27.773529891098605
10
79.899998689813927
20
-33.473529891098586
10
130.09999868981393
20
-33.473529891098579
0
ENDSEC
0
SECTION
2
OBJECTS
0
DICTIONARY
5
C
100
AcDbDictionary
3
ACAD_GROUP
350
D
3
ACAD_MLINESTYLE
350
17
0
DICTIONARY
5
D
100
AcDbDictionary
0
DICTIONARY
5
1A
330
C
100
AcDbDictionary
0
DICTIONARY
5
17
100
AcDbDictionary
0
ENDSEC
0
EOF
