0
SECTION
2
HEADER
9
$INSUNITS
70
4
9
$ACADVER
1
AC1014
9
$HANDSEED
5
FFFF
0
ENDSEC
0
SECTION
2
TABLES
0
TABLE
2
VPORT
5
8
100
AcDbSymbolTable
0
ENDTAB
0
TABLE
2
LTYPE
5
5
100
AcDbSymbolTable
0
LTYPE
5
14
100
AcDbSymbolTableRecord
100
AcDbLinetypeTableRecord
2
BYBLOCK
70
0
0
LTYPE
5
15
100
AcDbSymbolTableRecord
100
AcDbLinetypeTableRecord
2
BYLAYER
70
0
0
ENDTAB
0
TABLE
2
LAYER
5
2
100
AcDbSymbolTable
70
2
0
LAYER
5
50
100
AcDbSymbolTableRecord
100
AcDbLayerTableRecord
2
0
70
0
6
CONTINUOUS
0
ENDTAB
0
TABLE
2
STYLE
5
3
100
AcDbSymbolTable
70
1
0
STYLE
5
11
100
AcDbSymbolTableRecord
100
AcDbTextStyleTableRecord
2
STANDARD
70
0
0
ENDTAB
0
TABLE
2
VIEW
5
6
100
AcDbSymbolTable
70
0
0
ENDTAB
0
TABLE
2
UCS
5
7
100
AcDbSymbolTable
70
0
0
ENDTAB
0
TABLE
2
APPID
5
9
100
AcDbSymbolTable
70
2
0
APPID
5
12
100
AcDbSymbolTableRecord
100
AcDbRegAppTableRecord
2
ACAD
70
0
0
ENDTAB
0
TABLE
2
DIMSTYLE
5
A
100
AcDbSymbolTable
70
1
0
ENDTAB
0
TABLE
2
BLOCK_RECORD
5
1
100
AcDbSymbolTable
70
1
0
BLOCK_RECORD
5
1F
100
AcDbSymbolTableRecord
100
AcDbBlockTableRecord
2
*MODEL_SPACE
0
BLOCK_RECORD
5
1B
100
AcDbSymbolTableRecord
100
AcDbBlockTableRecord
2
*PAPER_SPACE
0
ENDTAB
0
ENDSEC
0
SECTION
2
BLOCKS
0
BLOCK
5
20
100
AcDbEntity
100
AcDbBlockBegin
2
*MODEL_SPACE
0
ENDBLK
5
21
100
AcDbEntity
100
AcDbBlockEnd
0
BLOCK
5
1C
100
AcDbEntity
100
AcDbBlockBegin
2
*PAPER_SPACE
0
ENDBLK
5
1D
100
AcDbEntity
100
AcDbBlockEnd
0
ENDSEC
0
SECTION
2
ENTITIES
0
LWPOLYLINE
5
100
100
AcDbEntity
8
0
100
AcDbPolyline
90
4
70
1
43
0.0
10
36.3607452833553
20
38.720417207438459
10
36.3607452833553
20
23.720417207438462
10
37.8607452833553
20
23.720417207438462
10
37.8607452833553
20
38.720417207438459
0
LWPOLYLINE
5
101
100
AcDbEntity
8
0
100
AcDbPolyline
90
4
70
1
43
0.0
10
36.3607452833553
20
73.720417207438459
10
36.3607452833553
20
58.720417207438459
10
37.8607452833553
20
58.720417207438459
10
37.8607452833553
20
73.720417207438459
0
CIRCLE
5
102
100
AcDbEntity
8
0
100
AcDbCircle
10
-121.13920947783171
20
74.720646294715749
30
0
40
1.6000000000000014
210
0
220
-0
230
1
0
CIRCLE
5
103
100
AcDbEntity
8
0
100
AcDbCircle
10
31.8607905221685
20
74.72064629471592
30
0
40
1.6000000000000014
210
0
220
-0
230
1
0
CIRCLE
5
104
100
AcDbEntity
8
0
100
AcDbCircle
10
-121.13920947782724
20
22.720646294715934
30
0
40
1.6000000000000014
210
0
220
-0
230
1
0
CIRCLE
5
105
100
AcDbEntity
8
0
100
AcDbCircle
10
31.860790522172966
20
22.720646294716023
30
0
40
1.6000000000000014
210
0
220
-0
230
1
0
LWPOLYLINE
5
106
100
AcDbEntity
8
0
100
AcDbPolyline
90
4
70
1
43
0.0
10
-127.04425471664472
20
38.720417207438445
10
-127.04425471664472
20
23.720417207438445
10
-125.54425471664473
20
23.720417207438445
10
-125.54425471664473
20
38.720417207438445
0
LWPOLYLINE
5
107
100
AcDbEntity
8
0
100
AcDbPolyline
90
4
70
1
43
0.0
10
-127.04425471664472
20
73.720417207438445
10
-127.04425471664472
20
58.720417207438445
10
-125.54425471664473
20
58.720417207438445
10
-125.54425471664473
20
73.720417207438445
0
LWPOLYLINE
5
108
100
AcDbEntity
8
0
100
AcDbPolyline
90
8
70
1
43
0.0
10
-127.04425471664466
20
14.720417207438457
42
-0.41421356237309537
10
-129.04425471664464
20
16.720417207438452
10
-129.0442547166447
20
80.720417207438473
42
-0.41421356237309243
10
-127.04425471664473
20
82.720417207438459
10
37.860745283355314
20
82.720417207438487
42
-0.41421356237309509
10
39.860745283355314
20
80.720417207438473
10
39.8607452833553
20
16.720417207438434
42
-0.41421356237309509
10
37.860745283355314
20
14.720417207438441
0
CIRCLE
5
109
100
AcDbEntity
8
0
100
AcDbCircle
10
-33.307841822926953
20
39.218453514106706
30
0
40
1.6000000000000014
210
0
220
0
230
1
0
CIRCLE
5
110
100
AcDbEntity
8
0
100
AcDbCircle
10
-109.47994376730927
20
58.218895513834951
30
0
40
1.6000000000000014
210
0
220
0
230
1
0
CIRCLE
5
111
100
AcDbEntity
8
0
100
AcDbCircle
10
-109.48011376263028
20
39.219356758804977
30
0
40
1.6000000000000014
210
0
220
0
230
1
0
CIRCLE
5
112
100
AcDbEntity
8
0
100
AcDbCircle
10
-33.307931312103406
20
48.717270122661475
30
0
40
1.6000000000000014
210
0
220
0
230
1
0
LWPOLYLINE
5
113
100
AcDbEntity
8
0
100
AcDbPolyline
90
4
70
1
43
0.0
10
-20.476754716644674
20
16.720417207438434
10
9.5232452833553261
20
16.720417207438434
10
9.5232452833553261
20
18.220417207438455
10
-20.476754716644674
20
18.220417207438455
0
LWPOLYLINE
5
114
100
AcDbEntity
8
0
100
AcDbPolyline
90
4
70
1
43
0.0
10
-20.476754716644709
20
79.220417207438473
10
9.523245283355287
20
79.220417207438473
10
9.523245283355287
20
80.720417207438473
10
-20.476754716644709
20
80.720417207438473
0
LWPOLYLINE
5
115
100
AcDbEntity
8
0
100
AcDbPolyline
90
4
70
1
43
0.0
10
-100.47675471664468
20
16.720417207438434
10
-70.476754716644678
20
16.720417207438434
10
-70.476754716644678
20
18.220417207438437
10
-100.47675471664468
20
18.220417207438437
0
LWPOLYLINE
5
116
100
AcDbEntity
8
0
100
AcDbPolyline
90
4
70
1
43
0.0
10
-100.47675471664471
20
79.220417207438473
10
-70.476754716644706
20
79.220417207438473
10
-70.476754716644706
20
80.720417207438473
10
-100.47675471664471
20
80.720417207438473
0
LWPOLYLINE
5
117
100
AcDbEntity
8
0
100
AcDbPolyline
90
8
70
1
43
0.0
10
-103.85820947784048
20
59.039246294715625
10
-103.85820947784048
20
38.339246294715643
42
0.41421356237309509
10
-102.85820947784048
20
37.33924629471565
10
-62.358199477840472
20
37.339246294715643
42
0.41421356237309509
10
-61.358199477840465
20
38.339246294715643
10
-61.358199477840486
20
59.039246294715625
42
0.41421356237309509
10
-62.358199477840479
20
60.039246294715625
10
-102.85820947784048
20
60.039246294715625
42
0.41421356237309509
0
LWPOLYLINE
5
118
100
AcDbEntity
8
0
100
AcDbPolyline
90
8
70
1
43
0.0
10
1.389535522152725
20
31.36064629471565
10
1.389535522152725
20
26.860646294715636
42
0.41421356237309537
10
2.3895355221527259
20
25.86064629471565
10
5.3895355221527241
20
25.860646294715636
42
0.41421356237309537
10
6.389535522152725
20
26.860646294715636
10
6.389535522152725
20
31.36064629471565
42
0.41421356237309537
10
5.3895355221527241
20
32.360646294715636
10
2.3895355221527264
20
32.36064629471565
42
0.41421356237309537
0
ENDSEC
0
SECTION
2
OBJECTS
0
DICTIONARY
5
C
100
AcDbDictionary
3
ACAD_GROUP
350
D
3
ACAD_MLINESTYLE
350
17
0
DICTIONARY
5
D
100
AcDbDictionary
0
DICTIONARY
5
1A
330
C
100
AcDbDictionary
0
DICTIONARY
5
17
100
AcDbDictionary
0
ENDSEC
0
EOF
