G04 #@! TF.GenerationSoftware,KiCad,Pcbnew,(6.0.1-0)*
G04 #@! TF.CreationDate,2022-03-09T19:17:37+09:00*
G04 #@! TF.ProjectId,photo-single,70686f74-6f2d-4736-996e-676c652e6b69,rev?*
G04 #@! TF.SameCoordinates,Original*
G04 #@! TF.FileFunction,Soldermask,Top*
G04 #@! TF.FilePolarity,Negative*
%FSLAX46Y46*%
G04 Gerber Fmt 4.6, Leading zero omitted, Abs format (unit mm)*
G04 Created by KiCad (PCBNEW (6.0.1-0)) date 2022-03-09 19:17:37*
%MOMM*%
%LPD*%
G01*
G04 APERTURE LIST*
G04 Aperture macros list*
%AMRoundRect*
0 Rectangle with rounded corners*
0 $1 Rounding radius*
0 $2 $3 $4 $5 $6 $7 $8 $9 X,Y pos of 4 corners*
0 Add a 4 corners polygon primitive as box body*
4,1,4,$2,$3,$4,$5,$6,$7,$8,$9,$2,$3,0*
0 Add four circle primitives for the rounded corners*
1,1,$1+$1,$2,$3*
1,1,$1+$1,$4,$5*
1,1,$1+$1,$6,$7*
1,1,$1+$1,$8,$9*
0 Add four rect primitives between the rounded corners*
20,1,$1+$1,$2,$3,$4,$5,0*
20,1,$1+$1,$4,$5,$6,$7,0*
20,1,$1+$1,$6,$7,$8,$9,0*
20,1,$1+$1,$8,$9,$2,$3,0*%
G04 Aperture macros list end*
%ADD10C,0.475000*%
%ADD11RoundRect,0.250000X-0.625000X0.375000X-0.625000X-0.375000X0.625000X-0.375000X0.625000X0.375000X0*%
%ADD12RoundRect,0.280000X0.420000X0.720000X-0.420000X0.720000X-0.420000X-0.720000X0.420000X-0.720000X0*%
%ADD13RoundRect,0.240000X0.460000X0.360000X-0.460000X0.360000X-0.460000X-0.360000X0.460000X-0.360000X0*%
%ADD14RoundRect,0.260000X0.390000X-0.640000X0.390000X0.640000X-0.390000X0.640000X-0.390000X-0.640000X0*%
%ADD15RoundRect,0.200000X0.300000X-0.700000X0.300000X0.700000X-0.300000X0.700000X-0.300000X-0.700000X0*%
%ADD16RoundRect,0.260000X-0.390000X0.640000X-0.390000X-0.640000X0.390000X-0.640000X0.390000X0.640000X0*%
%ADD17RoundRect,0.200000X-0.300000X0.700000X-0.300000X-0.700000X0.300000X-0.700000X0.300000X0.700000X0*%
%ADD18RoundRect,0.250000X0.625000X-0.375000X0.625000X0.375000X-0.625000X0.375000X-0.625000X-0.375000X0*%
%ADD19RoundRect,0.180000X0.270000X1.370000X-0.270000X1.370000X-0.270000X-1.370000X0.270000X-1.370000X0*%
%ADD20RoundRect,0.180000X0.270000X1.120000X-0.270000X1.120000X-0.270000X-1.120000X0.270000X-1.120000X0*%
%ADD21R,1.700000X1.700000*%
%ADD22O,1.700000X1.700000*%
%ADD23R,1.250000X0.300000*%
%ADD24R,3.000000X2.400000*%
%ADD25R,1.200000X0.900000*%
G04 APERTURE END LIST*
D10*
X167400000Y-74000000D02*
G75*
G03*
X167400000Y-74000000I-400000J0D01*
G01*
X95400000Y-124500000D02*
G75*
G03*
X95400000Y-124500000I-400000J0D01*
G01*
X167400000Y-126000000D02*
G75*
G03*
X167400000Y-126000000I-400000J0D01*
G01*
X94400000Y-73000000D02*
G75*
G03*
X94400000Y-73000000I-400000J0D01*
G01*
D11*
X160921211Y-89102066D03*
X160921211Y-91902066D03*
X153921211Y-89102066D03*
X153921211Y-91902066D03*
X151921211Y-89102066D03*
X151921211Y-91902066D03*
X144921211Y-89102066D03*
X144921211Y-91902066D03*
X142921211Y-89102066D03*
X142921211Y-91902066D03*
D12*
X137671211Y-90502066D03*
D13*
X131571211Y-90502066D03*
D11*
X126921211Y-89102066D03*
X126921211Y-91902066D03*
X124921211Y-89102066D03*
X124921211Y-91902066D03*
D12*
X119671211Y-90502066D03*
D13*
X113571211Y-90502066D03*
D11*
X108921211Y-89102066D03*
X108921211Y-91902066D03*
X106921211Y-89102066D03*
X106921211Y-91902066D03*
D14*
X100000000Y-92300000D03*
D15*
X100650000Y-88100000D03*
X99350000Y-88100000D03*
D16*
X97900000Y-88700000D03*
D17*
X97250000Y-92900000D03*
X98550000Y-92900000D03*
D18*
X124921211Y-110901633D03*
X124921211Y-108101633D03*
D19*
X118886211Y-109501633D03*
D20*
X114356211Y-109501633D03*
D12*
X110671211Y-109501633D03*
D13*
X104571211Y-109501633D03*
D18*
X99921211Y-110901633D03*
X99921211Y-108101633D03*
X160921211Y-110901633D03*
X160921211Y-108101633D03*
X126921211Y-110901633D03*
X126921211Y-108101633D03*
D19*
X136886211Y-109501633D03*
D20*
X132356211Y-109501633D03*
D18*
X142921211Y-110901633D03*
X142921211Y-108101633D03*
X144921211Y-110901633D03*
X144921211Y-108101633D03*
D19*
X154886211Y-109501633D03*
D20*
X150356211Y-109501633D03*
D11*
X162921211Y-89102066D03*
X162921211Y-91902066D03*
D21*
X180905000Y-75372000D03*
D22*
X183445000Y-75372000D03*
X185985000Y-75372000D03*
X188525000Y-75372000D03*
X191065000Y-75372000D03*
X193605000Y-75372000D03*
X196145000Y-75372000D03*
X198685000Y-75372000D03*
X201225000Y-75372000D03*
X203765000Y-75372000D03*
D21*
X203765000Y-124628000D03*
D22*
X201225000Y-124628000D03*
X198685000Y-124628000D03*
X196145000Y-124628000D03*
X193605000Y-124628000D03*
X191065000Y-124628000D03*
X188525000Y-124628000D03*
X185985000Y-124628000D03*
X183445000Y-124628000D03*
X180905000Y-124628000D03*
D18*
X162921211Y-110901633D03*
X162921211Y-108101633D03*
D23*
X202074000Y-115770000D03*
X202074000Y-115270000D03*
X202074000Y-114770000D03*
X202074000Y-114270000D03*
X202074000Y-113770000D03*
X202074000Y-113270000D03*
X202074000Y-112770000D03*
X202074000Y-112270000D03*
X202074000Y-111770000D03*
X202074000Y-111270000D03*
X202074000Y-110770000D03*
X202074000Y-110270000D03*
X202074000Y-109770000D03*
X202074000Y-109270000D03*
X202074000Y-108770000D03*
X202074000Y-108270000D03*
X202074000Y-107770000D03*
X202074000Y-107270000D03*
X202074000Y-106770000D03*
X202074000Y-106270000D03*
X202074000Y-105770000D03*
X202074000Y-105270000D03*
X202074000Y-104770000D03*
X202074000Y-104270000D03*
X202074000Y-103770000D03*
X202074000Y-103270000D03*
X202074000Y-102770000D03*
X202074000Y-102270000D03*
X202074000Y-101770000D03*
X202074000Y-101270000D03*
X202074000Y-100770000D03*
X202074000Y-100270000D03*
X202074000Y-99770000D03*
X202074000Y-99270000D03*
X202074000Y-98770000D03*
X202074000Y-98270000D03*
X202074000Y-97770000D03*
X202074000Y-97270000D03*
X202074000Y-96770000D03*
X202074000Y-96270000D03*
X202074000Y-95770000D03*
X202074000Y-95270000D03*
X202074000Y-94770000D03*
X202074000Y-94270000D03*
X202074000Y-93770000D03*
X202074000Y-93270000D03*
X202074000Y-92770000D03*
X202074000Y-92270000D03*
X202074000Y-91770000D03*
X202074000Y-91270000D03*
X202074000Y-90770000D03*
X202074000Y-90270000D03*
X202074000Y-89770000D03*
X202074000Y-89270000D03*
X202074000Y-88770000D03*
X202074000Y-88270000D03*
X202074000Y-87770000D03*
X202074000Y-87270000D03*
X202074000Y-86770000D03*
X202074000Y-86270000D03*
D24*
X204399000Y-117570000D03*
X204399000Y-84470000D03*
D25*
X174400000Y-95000000D03*
X176600000Y-95000000D03*
D18*
X97921211Y-110901633D03*
X97921211Y-108101633D03*
M02*
