0
SECTION
2
HEADER
9
$INSUNITS
70
4
9
$ACADVER
1
AC1014
9
$HANDSEED
5
FFFF
0
ENDSEC
0
SECTION
2
TABLES
0
TABLE
2
VPORT
5
8
100
AcDbSymbolTable
0
ENDTAB
0
TABLE
2
LTYPE
5
5
100
AcDbSymbolTable
0
LTYPE
5
14
100
AcDbSymbolTableRecord
100
AcDbLinetypeTableRecord
2
BYBLOCK
70
0
0
LTYPE
5
15
100
AcDbSymbolTableRecord
100
AcDbLinetypeTableRecord
2
BYLAYER
70
0
0
ENDTAB
0
TABLE
2
LAYER
5
2
100
AcDbSymbolTable
70
2
0
LAYER
5
50
100
AcDbSymbolTableRecord
100
AcDbLayerTableRecord
2
0
70
0
6
CONTINUOUS
0
ENDTAB
0
TABLE
2
STYLE
5
3
100
AcDbSymbolTable
70
1
0
STYLE
5
11
100
AcDbSymbolTableRecord
100
AcDbTextStyleTableRecord
2
STANDARD
70
0
0
ENDTAB
0
TABLE
2
VIEW
5
6
100
AcDbSymbolTable
70
0
0
ENDTAB
0
TABLE
2
UCS
5
7
100
AcDbSymbolTable
70
0
0
ENDTAB
0
TABLE
2
APPID
5
9
100
AcDbSymbolTable
70
2
0
APPID
5
12
100
AcDbSymbolTableRecord
100
AcDbRegAppTableRecord
2
ACAD
70
0
0
ENDTAB
0
TABLE
2
DIMSTYLE
5
A
100
AcDbSymbolTable
70
1
0
ENDTAB
0
TABLE
2
BLOCK_RECORD
5
1
100
AcDbSymbolTable
70
1
0
BLOCK_RECORD
5
1F
100
AcDbSymbolTableRecord
100
AcDbBlockTableRecord
2
*MODEL_SPACE
0
BLOCK_RECORD
5
1B
100
AcDbSymbolTableRecord
100
AcDbBlockTableRecord
2
*PAPER_SPACE
0
ENDTAB
0
ENDSEC
0
SECTION
2
BLOCKS
0
BLOCK
5
20
100
AcDbEntity
100
AcDbBlockBegin
2
*MODEL_SPACE
0
ENDBLK
5
21
100
AcDbEntity
100
AcDbBlockEnd
0
BLOCK
5
1C
100
AcDbEntity
100
AcDbBlockBegin
2
*PAPER_SPACE
0
ENDBLK
5
1D
100
AcDbEntity
100
AcDbBlockEnd
0
ENDSEC
0
SECTION
2
ENTITIES
0
LWPOLYLINE
5
100
100
AcDbEntity
8
0
100
AcDbPolyline
90
4
70
1
43
0.0
10
95.894253854804703
20
22.821934207428463
10
95.894254716644696
20
21.221934207428468
10
100.89425416427473
20
21.221934207438473
10
100.89425471664748
20
22.821934207438463
0
LWPOLYLINE
5
101
100
AcDbEntity
8
0
100
AcDbPolyline
90
4
70
1
43
0.0
10
81.89425471664471
20
21.221934207428468
10
87.894254164271928
20
21.221934207438473
10
87.894254716644696
20
22.821934207438463
10
81.894253854804703
20
22.821934207428463
0
LWPOLYLINE
5
102
100
AcDbEntity
8
0
100
AcDbPolyline
90
4
70
1
43
0.0
10
100.47675471664468
20
18.220417207438437
10
70.476754716644678
20
18.220417207438437
10
70.476754716644678
20
16.720417207438434
10
100.47675471664468
20
16.720417207438434
0
LWPOLYLINE
5
103
100
AcDbEntity
8
0
100
AcDbPolyline
90
14
70
1
43
0.0
10
98.544647958064715
20
28.721934052698465
10
108.5442547166447
20
28.721934207438473
10
108.54425400954469
20
34.821934362168463
10
107.04425471664472
20
34.82193420743846
10
107.0442547166447
20
42.719098207438449
42
0.4142135623730977
10
106.0442547166447
20
43.719098207438464
10
36.744254716644704
20
43.719098207438464
42
0.41421356237309509
10
35.74425471664469
20
42.719098207438471
10
35.74425471664469
20
34.821934207438474
10
34.244254716644704
20
34.821934207438474
10
34.24425400954469
20
28.721934052698465
10
44.24464871664469
20
28.721934207438473
10
44.24464871664469
20
34.821934207438474
10
98.544648716644701
20
34.82193420743846
0
LWPOLYLINE
5
104
100
AcDbEntity
8
0
100
AcDbPolyline
90
30
70
1
43
0.0
10
116.36906748887642
20
14.720417207438441
10
31.369067488876432
20
14.720417207438445
42
-0.41421356237309637
10
30.369067488876436
20
15.720417207438437
10
30.369067488876432
20
19.219999207438594
42
0.41421356237309243
10
29.369067488876432
20
20.21999920743859
10
25.369067488876421
20
20.219999207438597
10
25.369067488876421
20
17.719999207438608
10
27.369067488876428
20
17.719999207438605
42
-0.41421356237309637
10
28.369067488876425
20
16.719999207438612
10
28.369067488876428
20
15.720417207438437
42
-0.41421356237309637
10
27.369067488876428
20
14.720417207438441
10
-37.860745283355314
20
14.720417207438432
42
-0.41421356237309437
10
-39.860745283355314
20
16.720417207438434
10
-39.8607452833553
20
80.720417207438473
42
-0.41421356237309243
10
-37.860745283355328
20
82.720417207438459
10
127.04425471664472
20
82.720417207438445
42
-0.41421356237309509
10
129.0442547166447
20
80.720417207438473
10
129.04425471664464
20
16.720417207438445
42
-0.4142135623730957
10
127.04425471664466
20
14.720417207438448
10
116.36906748887642
20
14.720417207438441
10
112.36906748887642
20
14.723564292215521
42
0.41421356237309509
10
113.36906748887642
20
15.723564292215517
10
113.36906748887645
20
19.223146292215674
42
-0.4142135623730977
10
114.36906748887644
20
20.22314629221567
10
118.36906748887644
20
20.223146292215681
10
118.36906748887644
20
17.723146292215688
10
116.36906748887642
20
17.723146292215688
42
0.41421356237309509
10
115.36906748887644
20
16.723146292215691
10
115.36906748887644
20
15.723564292215517
42
0.41421356237309509
10
116.36906748887642
20
14.723564292215521
0
LWPOLYLINE
5
105
100
AcDbEntity
8
0
100
AcDbPolyline
90
4
70
1
43
0.0
10
127.04425471664472
20
23.720417207438445
10
127.04425471664472
20
38.720417207438445
10
125.54425471664472
20
38.720417207438445
10
125.54425471664472
20
23.720417207438445
0
LWPOLYLINE
5
106
100
AcDbEntity
8
0
100
AcDbPolyline
90
4
70
1
43
0.0
10
68.894254716644696
20
21.221934207428468
10
73.894254164274713
20
21.221934207438473
10
73.894254716644696
20
22.821934207438463
10
68.894253854804717
20
22.821934207428463
0
LWPOLYLINE
5
107
100
AcDbEntity
8
0
100
AcDbPolyline
90
4
70
1
43
0.0
10
-36.360745283355307
20
58.720417207438459
10
-36.360745283355307
20
73.720417207438459
10
-37.860745283355307
20
73.720417207438459
10
-37.860745283355307
20
58.720417207438459
0
LWPOLYLINE
5
108
100
AcDbEntity
8
0
100
AcDbPolyline
90
4
70
1
43
0.0
10
-36.360745283355307
20
23.720417207438462
10
-36.360745283355307
20
38.720417207438459
10
-37.860745283355307
20
38.720417207438459
10
-37.860745283355307
20
23.720417207438462
0
CIRCLE
5
109
100
AcDbEntity
8
0
100
AcDbCircle
10
-31.860790522163995
20
22.720646294715635
30
0
40
1.6000000000000014
210
0
220
0
230
1
0
CIRCLE
5
110
100
AcDbEntity
8
0
100
AcDbCircle
10
-31.860790522159526
20
74.72064629471555
30
0
40
1.6000000000000014
210
0
220
0
230
1
0
CIRCLE
5
111
100
AcDbEntity
8
0
100
AcDbCircle
10
121.13920947784068
20
74.720646294715394
30
0
40
1.6000000000000014
210
0
220
0
230
1
0
LWPOLYLINE
5
112
100
AcDbEntity
8
0
100
AcDbPolyline
90
4
70
1
43
0.0
10
127.04425471664472
20
58.720417207438445
10
127.04425471664472
20
73.720417207438445
10
125.54425471664472
20
73.720417207438445
10
125.54425471664472
20
58.720417207438445
0
LWPOLYLINE
5
113
100
AcDbEntity
8
0
100
AcDbPolyline
90
4
70
1
43
0.0
10
46.894254164276717
20
76.218900207338493
10
41.894254716649691
20
76.218900207438466
10
41.89425390867342
20
74.71890020743848
10
46.894254682121712
20
74.71890020743848
0
LWPOLYLINE
5
114
100
AcDbEntity
8
0
100
AcDbPolyline
90
4
70
1
43
0.0
10
60.894254164274706
20
76.218900207338493
10
54.894254716649698
20
76.218900207438466
10
54.894253908673434
20
74.71890020743848
10
60.894254682121563
20
74.71890020743848
0
LWPOLYLINE
5
115
100
AcDbEntity
8
0
100
AcDbPolyline
90
4
70
1
43
0.0
10
73.894254682121698
20
74.71890020743848
10
73.894254164276717
20
76.218900207338493
10
68.894254716649684
20
76.218900207438466
10
68.894253908673448
20
74.71890020743848
0
LWPOLYLINE
5
116
100
AcDbEntity
8
0
100
AcDbPolyline
90
4
70
1
43
0.0
10
70.476754716644706
20
79.220417207438473
10
100.47675471664471
20
79.220417207438473
10
100.47675471664471
20
80.720417207438473
10
70.476754716644706
20
80.720417207438473
0
LWPOLYLINE
5
117
100
AcDbEntity
8
0
100
AcDbPolyline
90
4
70
1
43
0.0
10
87.894254682121584
20
74.718900207438452
10
87.894254164274713
20
76.218900207338464
10
81.894254716649698
20
76.218900207438452
10
81.894253908673448
20
74.718900207438452
0
LWPOLYLINE
5
118
100
AcDbEntity
8
0
100
AcDbPolyline
90
4
70
1
43
0.0
10
100.89425416427672
20
76.218900207338464
10
95.894254716649698
20
76.218900207438452
10
95.894253908673477
20
74.718900207438452
10
100.89425468212171
20
74.718900207438452
0
CIRCLE
5
119
100
AcDbEntity
8
0
100
AcDbCircle
10
29.808113716644705
20
48.717270122661432
30
0
40
3.2500000000000018
210
0
220
0
230
1
0
CIRCLE
5
120
100
AcDbEntity
8
0
100
AcDbCircle
10
112.9801137166446
20
48.720417207438516
30
0
40
3.2499999999999929
210
0
220
0
230
1
0
LWPOLYLINE
5
121
100
AcDbEntity
8
0
100
AcDbPolyline
90
12
70
1
43
0.0
10
-3.071797522159605
20
47.395645294715614
42
-0.41421356237309537
10
-2.0717975221596054
20
46.395645294715621
10
-2.0717975221596063
20
43.395652294715617
10
25.428199897440507
20
43.395652294715632
10
25.428199897440507
20
71.195652294715615
10
-2.0717975221596063
20
71.195645294715604
10
-2.0717975221596086
20
68.195645294715604
42
-0.41421356237309537
10
-3.0717975221596063
20
67.195645294715604
10
-11.971793522159452
20
67.195645294715604
42
0.41421356237309509
10
-12.971793522159452
20
66.195645294715604
10
-12.971793522159452
20
48.395645294715607
42
0.41421356237309509
10
-11.971793522159452
20
47.395645294715614
0
CIRCLE
5
122
100
AcDbEntity
8
0
100
AcDbCircle
10
-21.860790522159519
20
74.720646294715579
30
0
40
1.6000000000000014
210
0
220
0
230
1
0
LWPOLYLINE
5
123
100
AcDbEntity
8
0
100
AcDbPolyline
90
4
70
1
43
0.0
10
-9.5232452833553261
20
16.720417207438434
10
20.476754716644674
20
16.720417207438434
10
20.476754716644674
20
18.220417207438455
10
-9.5232452833553261
20
18.220417207438455
0
LWPOLYLINE
5
124
100
AcDbEntity
8
0
100
AcDbPolyline
90
4
70
1
43
0.0
10
-9.523245283355287
20
79.220417207438473
10
20.476754716644709
20
79.220417207438473
10
20.476754716644709
20
80.720417207438473
10
-9.523245283355287
20
80.720417207438473
0
LWPOLYLINE
5
125
100
AcDbEntity
8
0
100
AcDbPolyline
90
4
70
1
43
0.0
10
22.908766924548516
20
22.822999207438599
10
-6.0912330754515054
20
22.822999207438599
10
-6.0912330754515054
20
21.222999207438598
10
22.908766924548516
20
21.222999207438598
0
CIRCLE
5
126
100
AcDbEntity
8
0
100
AcDbCircle
10
112.98011371664471
20
66.719584207438459
30
0
40
1.6000000000000003
210
0
220
-0
230
1
0
CIRCLE
5
127
100
AcDbEntity
8
0
100
AcDbCircle
10
29.808113716644691
20
66.719584207438473
30
0
40
1.6000000000000003
210
0
220
-0
230
1
0
CIRCLE
5
128
100
AcDbEntity
8
0
100
AcDbCircle
10
112.98011371664471
20
30.721250207438455
30
0
40
1.6000000000000003
210
0
220
-0
230
1
0
CIRCLE
5
129
100
AcDbEntity
8
0
100
AcDbCircle
10
29.808113716644691
20
30.721250207438473
30
0
40
1.6000000000000003
210
0
220
-0
230
1
0
LWPOLYLINE
5
130
100
AcDbEntity
8
0
100
AcDbPolyline
90
4
70
1
43
0.0
10
41.89425471664471
20
21.221934207428468
10
46.89425416427472
20
21.221934207438473
10
46.89425471664471
20
22.821934207438463
10
41.894253854804688
20
22.821934207428463
0
LWPOLYLINE
5
131
100
AcDbEntity
8
0
100
AcDbPolyline
90
4
70
1
43
0.0
10
54.894254716644717
20
21.221934207428468
10
60.894254164274706
20
21.221934207438473
10
60.894254716644696
20
22.821934207438463
10
54.894253854804695
20
22.821934207428463
0
CIRCLE
5
132
100
AcDbEntity
8
0
100
AcDbCircle
10
121.1392094778362
20
22.720646294715561
30
0
40
1.6000000000000014
210
0
220
0
230
1
0
ENDSEC
0
SECTION
2
OBJECTS
0
DICTIONARY
5
C
100
AcDbDictionary
3
ACAD_GROUP
350
D
3
ACAD_MLINESTYLE
350
17
0
DICTIONARY
5
D
100
AcDbDictionary
0
DICTIONARY
5
1A
330
C
100
AcDbDictionary
0
DICTIONARY
5
17
100
AcDbDictionary
0
ENDSEC
0
EOF
