0
SECTION
2
HEADER
9
$INSUNITS
70
4
9
$ACADVER
1
AC1014
9
$HANDSEED
5
FFFF
0
ENDSEC
0
SECTION
2
TABLES
0
TABLE
2
VPORT
5
8
100
AcDbSymbolTable
0
ENDTAB
0
TABLE
2
LTYPE
5
5
100
AcDbSymbolTable
0
LTYPE
5
14
100
AcDbSymbolTableRecord
100
AcDbLinetypeTableRecord
2
BYBLOCK
70
0
0
LTYPE
5
15
100
AcDbSymbolTableRecord
100
AcDbLinetypeTableRecord
2
BYLAYER
70
0
0
ENDTAB
0
TABLE
2
LAYER
5
2
100
AcDbSymbolTable
70
2
0
LAYER
5
50
100
AcDbSymbolTableRecord
100
AcDbLayerTableRecord
2
0
70
0
6
CONTINUOUS
0
ENDTAB
0
TABLE
2
STYLE
5
3
100
AcDbSymbolTable
70
1
0
STYLE
5
11
100
AcDbSymbolTableRecord
100
AcDbTextStyleTableRecord
2
STANDARD
70
0
0
ENDTAB
0
TABLE
2
VIEW
5
6
100
AcDbSymbolTable
70
0
0
ENDTAB
0
TABLE
2
UCS
5
7
100
AcDbSymbolTable
70
0
0
ENDTAB
0
TABLE
2
APPID
5
9
100
AcDbSymbolTable
70
2
0
APPID
5
12
100
AcDbSymbolTableRecord
100
AcDbRegAppTableRecord
2
ACAD
70
0
0
ENDTAB
0
TABLE
2
DIMSTYLE
5
A
100
AcDbSymbolTable
70
1
0
ENDTAB
0
TABLE
2
BLOCK_RECORD
5
1
100
AcDbSymbolTable
70
1
0
BLOCK_RECORD
5
1F
100
AcDbSymbolTableRecord
100
AcDbBlockTableRecord
2
*MODEL_SPACE
0
BLOCK_RECORD
5
1B
100
AcDbSymbolTableRecord
100
AcDbBlockTableRecord
2
*PAPER_SPACE
0
ENDTAB
0
ENDSEC
0
SECTION
2
BLOCKS
0
BLOCK
5
20
100
AcDbEntity
100
AcDbBlockBegin
2
*MODEL_SPACE
0
ENDBLK
5
21
100
AcDbEntity
100
AcDbBlockEnd
0
BLOCK
5
1C
100
AcDbEntity
100
AcDbBlockBegin
2
*PAPER_SPACE
0
ENDBLK
5
1D
100
AcDbEntity
100
AcDbBlockEnd
0
ENDSEC
0
SECTION
2
ENTITIES
0
LWPOLYLINE
5
100
100
AcDbEntity
8
0
100
AcDbPolyline
90
36
70
1
43
0.0
10
113.36906748887644
20
-19.989999999945169
10
113.36906748887644
20
-23.209043096413016
10
118.36906748887645
20
-23.209043096413016
10
118.36906748887644
20
-19.989999999945169
10
125.54425471664467
20
-19.989999999945169
10
125.54425471664467
20
-24.989999999945169
10
127.04425471664467
20
-24.989999999945169
10
127.04425471664467
20
-34.989999999945169
10
125.54425471664467
20
-34.989999999945169
10
125.54425471664467
20
-39.989999999945177
10
100.47675471664468
20
-39.989999999945177
10
100.47675471664468
20
-41.489999999945169
10
70.476754716644678
20
-41.489999999945169
10
70.476754716644678
20
-39.989999999945177
10
20.47675471664467
20
-39.989999999945177
10
20.47675471664467
20
-41.489999999945169
10
-9.5232452833553261
20
-41.489999999945169
10
-9.5232452833553296
20
-39.989999999945177
10
-36.360745283355349
20
-39.989999999945177
10
-36.360745283355349
20
-34.989999999945169
10
-37.860745283355342
20
-34.989999999945169
10
-37.860745283355342
20
-24.989999999945169
10
-36.360745283355349
20
-24.989999999945169
10
-36.360745283355349
20
-19.989999999945169
10
-9.5232452833553261
20
-19.989999999945169
10
-9.5232452833553261
20
-18.489999999945169
10
20.47675471664467
20
-18.489999999945169
10
20.47675471664467
20
-19.989999999945169
10
25.369067488876425
20
-19.989999999945169
10
25.369067488876432
20
-23.208648002994945
10
30.369067488876432
20
-23.208648002994945
10
30.369067488876436
20
-19.989999999945169
10
70.476754716644678
20
-19.989999999945169
10
70.476754716644678
20
-18.489999999945169
10
100.47675471664468
20
-18.489999999945169
10
100.47675471664468
20
-19.989999999945169
0
LWPOLYLINE
5
101
100
AcDbEntity
8
0
100
AcDbPolyline
90
18
70
1
43
0.0
10
-4.6490725221595772
20
-30.390359999945243
42
-0.41421356237309409
10
-3.6490725221595799
20
-29.39035999994524
10
12.908766924548495
20
-29.390359999945247
42
0.41421356237309509
10
13.908766924548493
20
-28.390359999945247
10
13.908766924548495
20
-25.390359999945243
42
0.41421356237309509
10
12.908766924548495
20
-24.39035999994524
10
-5.0912330754515045
20
-24.390359999945236
42
0.41421356237309537
10
-6.0912330754515098
20
-25.39035999994524
10
-6.0912330754515072
20
-28.044730499925627
42
-0.41421356237309309
10
-7.0912330754515063
20
-29.044730499925624
10
-13.667121835785085
20
-29.044730499925624
42
-0.43099506996956466
10
-14.665500402919617
20
-27.98780742300255
42
4.1589661506687117
10
-17.188689445236502
20
-32.305239185151493
42
-0.59291626497723227
10
-15.649072522159578
20
-33.147149855192552
10
-15.649072522159575
20
-35.044730499925627
42
0.41421356237309437
10
-14.649072522159576
20
-36.044730499925627
10
-5.6490725221595817
20
-36.044730499925627
42
0.4142135623730957
10
-4.6490725221595799
20
-35.044730499925627
0
ENDSEC
0
SECTION
2
OBJECTS
0
DICTIONARY
5
C
100
AcDbDictionary
3
ACAD_GROUP
350
D
3
ACAD_MLINESTYLE
350
17
0
DICTIONARY
5
D
100
AcDbDictionary
0
DICTIONARY
5
1A
330
C
100
AcDbDictionary
0
DICTIONARY
5
17
100
AcDbDictionary
0
ENDSEC
0
EOF
