G04 #@! TF.GenerationSoftware,KiCad,Pcbnew,(5.1.6-0-10_14)*
G04 #@! TF.CreationDate,2020-10-28T15:49:20+09:00*
G04 #@! TF.ProjectId,NinjaLAMP,4e696e6a-614c-4414-9d50-2e6b69636164,rev?*
G04 #@! TF.SameCoordinates,Original*
G04 #@! TF.FileFunction,Legend,Top*
G04 #@! TF.FilePolarity,Positive*
%FSLAX46Y46*%
G04 Gerber Fmt 4.6, Leading zero omitted, Abs format (unit mm)*
G04 Created by KiCad (PCBNEW (5.1.6-0-10_14)) date 2020-10-28 15:49:20*
%MOMM*%
%LPD*%
G01*
G04 APERTURE LIST*
%ADD10C,0.150000*%
%ADD11C,0.203200*%
%ADD12C,0.120000*%
%ADD13C,0.152400*%
%ADD14C,0.100000*%
%ADD15C,0.127000*%
%ADD16C,0.066040*%
%ADD17C,0.101600*%
%ADD18C,0.076200*%
G04 APERTURE END LIST*
D10*
X167740060Y-116924710D02*
X166740060Y-116924710D01*
X167216251Y-116924710D02*
X167216251Y-116353281D01*
X167740060Y-116353281D02*
X166740060Y-116353281D01*
X167216251Y-115877091D02*
X167216251Y-115543758D01*
X167740060Y-115400900D02*
X167740060Y-115877091D01*
X166740060Y-115877091D01*
X166740060Y-115400900D01*
X167454346Y-115019948D02*
X167454346Y-114543758D01*
X167740060Y-115115186D02*
X166740060Y-114781853D01*
X167740060Y-114448520D01*
X166740060Y-114258043D02*
X166740060Y-113686615D01*
X167740060Y-113972329D02*
X166740060Y-113972329D01*
X167216251Y-113353281D02*
X167216251Y-113019948D01*
X167740060Y-112877091D02*
X167740060Y-113353281D01*
X166740060Y-113353281D01*
X166740060Y-112877091D01*
X167740060Y-111877091D02*
X167263870Y-112210424D01*
X167740060Y-112448520D02*
X166740060Y-112448520D01*
X166740060Y-112067567D01*
X166787680Y-111972329D01*
X166835299Y-111924710D01*
X166930537Y-111877091D01*
X167073394Y-111877091D01*
X167168632Y-111924710D01*
X167216251Y-111972329D01*
X167263870Y-112067567D01*
X167263870Y-112448520D01*
X167740060Y-110924710D02*
X167740060Y-111496139D01*
X167740060Y-111210424D02*
X166740060Y-111210424D01*
X166882918Y-111305662D01*
X166978156Y-111400900D01*
X167025775Y-111496139D01*
X166692441Y-109781853D02*
X167978156Y-110638996D01*
X166835299Y-109496139D02*
X166787680Y-109448520D01*
X166740060Y-109353281D01*
X166740060Y-109115186D01*
X166787680Y-109019948D01*
X166835299Y-108972329D01*
X166930537Y-108924710D01*
X167025775Y-108924710D01*
X167168632Y-108972329D01*
X167740060Y-109543758D01*
X167740060Y-108924710D01*
D11*
G04 #@! TO.C,C1*
X174303020Y-114867880D02*
X174303020Y-111867880D01*
X174303020Y-105867880D02*
X174303020Y-108867880D01*
X187303020Y-103867880D02*
X187303020Y-108867880D01*
X187303020Y-116867880D02*
X187303020Y-111867880D01*
X176303020Y-103867880D02*
X187303020Y-103867880D01*
X174303020Y-105867880D02*
X176303020Y-103867880D01*
X176303020Y-116867880D02*
X174303020Y-114867880D01*
X187303020Y-116867880D02*
X176303020Y-116867880D01*
D12*
G04 #@! TO.C,HEATER1*
X168279240Y-114112800D02*
X168279240Y-116772800D01*
X170879240Y-114112800D02*
X168279240Y-114112800D01*
X170879240Y-116772800D02*
X168279240Y-116772800D01*
X170879240Y-114112800D02*
X170879240Y-116772800D01*
X172149240Y-114112800D02*
X173479240Y-114112800D01*
X173479240Y-114112800D02*
X173479240Y-115442800D01*
G04 #@! TO.C,HEATER2*
X173489400Y-110039400D02*
X173489400Y-111369400D01*
X172159400Y-110039400D02*
X173489400Y-110039400D01*
X170889400Y-110039400D02*
X170889400Y-112699400D01*
X170889400Y-112699400D02*
X168289400Y-112699400D01*
X170889400Y-110039400D02*
X168289400Y-110039400D01*
X168289400Y-110039400D02*
X168289400Y-112699400D01*
G04 #@! TO.C,J1*
X186374200Y-102674400D02*
X187424200Y-102674400D01*
X187424200Y-101624400D02*
X187424200Y-102674400D01*
X178024200Y-96574400D02*
X178024200Y-87774400D01*
X178024200Y-87774400D02*
X187224200Y-87774400D01*
X180724200Y-102474400D02*
X178024200Y-102474400D01*
X178024200Y-102474400D02*
X178024200Y-100574400D01*
X187224200Y-87774400D02*
X187224200Y-102474400D01*
X187224200Y-102474400D02*
X184624200Y-102474400D01*
G04 #@! TO.C,NTC_AIR1*
X140190000Y-115960000D02*
X140190000Y-113300000D01*
X137590000Y-115960000D02*
X140190000Y-115960000D01*
X137590000Y-113300000D02*
X140190000Y-113300000D01*
X137590000Y-115960000D02*
X137590000Y-113300000D01*
X136320000Y-115960000D02*
X134990000Y-115960000D01*
X134990000Y-115960000D02*
X134990000Y-114630000D01*
G04 #@! TO.C,NTC_WELL1*
X130982500Y-113300000D02*
X130982500Y-114630000D01*
X129652500Y-113300000D02*
X130982500Y-113300000D01*
X128382500Y-113300000D02*
X128382500Y-115960000D01*
X128382500Y-115960000D02*
X125782500Y-115960000D01*
X128382500Y-113300000D02*
X125782500Y-113300000D01*
X125782500Y-113300000D02*
X125782500Y-115960000D01*
D13*
G04 #@! TO.C,Q1*
X173086500Y-106298800D02*
X173086500Y-105384400D01*
X172095900Y-108432400D02*
X173086500Y-108432400D01*
X173086500Y-108432400D02*
X173086500Y-107518000D01*
X173086500Y-105384400D02*
X172680100Y-105384400D01*
X172680100Y-105384400D02*
X172095900Y-105384400D01*
X172680100Y-105384400D02*
G75*
G02*
X172273700Y-105663800I-301019J2582D01*
G01*
G04 #@! TO.C,Q2*
X172832500Y-95414900D02*
X172832500Y-94830700D01*
X172832500Y-95821300D02*
X172832500Y-95414900D01*
X169784500Y-95821300D02*
X170698900Y-95821300D01*
X169784500Y-94830700D02*
X169784500Y-95821300D01*
X171918100Y-95821300D02*
X172832500Y-95821300D01*
X172832500Y-95414900D02*
G75*
G02*
X172553100Y-95008500I2582J301019D01*
G01*
D12*
G04 #@! TO.C,R1*
X141900000Y-103880000D02*
X140900000Y-103880000D01*
X140900000Y-102520000D02*
X141900000Y-102520000D01*
G04 #@! TO.C,R2*
X140900000Y-99980000D02*
X141900000Y-99980000D01*
X141900000Y-101340000D02*
X140900000Y-101340000D01*
G04 #@! TO.C,R3*
X140900000Y-105060000D02*
X141900000Y-105060000D01*
X141900000Y-106420000D02*
X140900000Y-106420000D01*
G04 #@! TO.C,R4*
X141900000Y-111500000D02*
X140900000Y-111500000D01*
X140900000Y-110140000D02*
X141900000Y-110140000D01*
G04 #@! TO.C,R5*
X172821960Y-102356000D02*
X171821960Y-102356000D01*
X171821960Y-100996000D02*
X172821960Y-100996000D01*
G04 #@! TO.C,R6*
X171821960Y-102774000D02*
X172821960Y-102774000D01*
X172821960Y-104134000D02*
X171821960Y-104134000D01*
G04 #@! TO.C,R7*
X140900000Y-107600000D02*
X141900000Y-107600000D01*
X141900000Y-108960000D02*
X140900000Y-108960000D01*
G04 #@! TO.C,R8*
X141900000Y-98800000D02*
X140900000Y-98800000D01*
X140900000Y-97440000D02*
X141900000Y-97440000D01*
G04 #@! TO.C,R9*
X140900000Y-92360000D02*
X141900000Y-92360000D01*
X141900000Y-93720000D02*
X140900000Y-93720000D01*
G04 #@! TO.C,R10*
X171821960Y-99218000D02*
X172821960Y-99218000D01*
X172821960Y-100578000D02*
X171821960Y-100578000D01*
G04 #@! TO.C,R11*
X141900000Y-96260000D02*
X140900000Y-96260000D01*
X140900000Y-94900000D02*
X141900000Y-94900000D01*
G04 #@! TO.C,R12*
X171821960Y-97440000D02*
X172821960Y-97440000D01*
X172821960Y-98800000D02*
X171821960Y-98800000D01*
D14*
G04 #@! TO.C,U1*
X147885000Y-91379000D02*
G75*
G03*
X147885000Y-91379000I-254000J0D01*
G01*
D15*
X152914200Y-94470180D02*
X152914200Y-87116880D01*
X161913420Y-94470180D02*
X152914200Y-94470180D01*
X161913420Y-87116880D02*
X161913420Y-94470180D01*
X152919280Y-87116880D02*
X161913420Y-87116880D01*
X148520000Y-89212380D02*
X148520000Y-109540000D01*
X149190560Y-88541820D02*
X148520000Y-89212380D01*
X166317780Y-88541820D02*
X149190560Y-88541820D01*
X166317780Y-109540000D02*
X166317780Y-88541820D01*
X148520000Y-109540000D02*
X166317780Y-109540000D01*
D16*
X160839000Y-91125000D02*
X160839000Y-88458000D01*
X160839000Y-88458000D02*
X162617000Y-88458000D01*
X162617000Y-91125000D02*
X162617000Y-88458000D01*
X160839000Y-91125000D02*
X162617000Y-91125000D01*
X160839000Y-95191540D02*
X160839000Y-92522000D01*
X160839000Y-92522000D02*
X162617000Y-92522000D01*
X162617000Y-95191540D02*
X162617000Y-92522000D01*
X160839000Y-95191540D02*
X162617000Y-95191540D01*
X152203000Y-95191540D02*
X152203000Y-92522000D01*
X152203000Y-92522000D02*
X153981000Y-92522000D01*
X153981000Y-95191540D02*
X153981000Y-92522000D01*
X152203000Y-95191540D02*
X153981000Y-95191540D01*
X152203000Y-91125000D02*
X152203000Y-88458000D01*
X152203000Y-88458000D02*
X153981000Y-88458000D01*
X153981000Y-91125000D02*
X153981000Y-88458000D01*
X152203000Y-91125000D02*
X153981000Y-91125000D01*
X154870000Y-108905000D02*
X154870000Y-106365000D01*
X154870000Y-106365000D02*
X160585000Y-106365000D01*
X160585000Y-108905000D02*
X160585000Y-106365000D01*
X154870000Y-108905000D02*
X160585000Y-108905000D01*
X154870000Y-91760000D02*
X154870000Y-89220000D01*
X154870000Y-89220000D02*
X159950000Y-89220000D01*
X159950000Y-91760000D02*
X159950000Y-89220000D01*
X154870000Y-91760000D02*
X159950000Y-91760000D01*
D12*
G04 #@! TO.C,TH1*
X132322500Y-115127000D02*
X132322500Y-114127000D01*
X133682500Y-114127000D02*
X133682500Y-115127000D01*
D16*
G04 #@! TO.C,SW2*
X115663000Y-105588000D02*
X115663000Y-99619000D01*
X112234000Y-105588000D02*
X112234000Y-99619000D01*
D15*
X115668080Y-105539740D02*
X115668080Y-99540260D01*
X112170500Y-105539740D02*
X112170500Y-104038600D01*
X112170500Y-104038600D02*
X112170500Y-101041400D01*
X112170500Y-101041400D02*
X112170500Y-99540260D01*
X112170500Y-104038600D02*
X111022420Y-104038600D01*
X111022420Y-104038600D02*
X111022420Y-101041400D01*
X111022420Y-101041400D02*
X112170500Y-101041400D01*
X115668080Y-105539740D02*
X115119440Y-105539740D01*
X112221300Y-105539740D02*
X113920560Y-105539740D01*
X112221300Y-99540260D02*
X113920560Y-99540260D01*
X115668080Y-99540260D02*
X115119440Y-99540260D01*
G04 #@! TO.C,C1*
D10*
X180623653Y-111024742D02*
X180576034Y-111072361D01*
X180433177Y-111119980D01*
X180337939Y-111119980D01*
X180195081Y-111072361D01*
X180099843Y-110977123D01*
X180052224Y-110881885D01*
X180004605Y-110691409D01*
X180004605Y-110548552D01*
X180052224Y-110358076D01*
X180099843Y-110262838D01*
X180195081Y-110167600D01*
X180337939Y-110119980D01*
X180433177Y-110119980D01*
X180576034Y-110167600D01*
X180623653Y-110215219D01*
X181576034Y-111119980D02*
X181004605Y-111119980D01*
X181290320Y-111119980D02*
X181290320Y-110119980D01*
X181195081Y-110262838D01*
X181099843Y-110358076D01*
X181004605Y-110405695D01*
X174326067Y-104343308D02*
X175087972Y-104343308D01*
X174707020Y-104724260D02*
X174707020Y-103962356D01*
G04 #@! TO.C,J1*
X182222286Y-97912740D02*
X182222286Y-98627026D01*
X182174667Y-98769883D01*
X182079429Y-98865121D01*
X181936572Y-98912740D01*
X181841334Y-98912740D01*
X183222286Y-98912740D02*
X182650858Y-98912740D01*
X182936572Y-98912740D02*
X182936572Y-97912740D01*
X182841334Y-98055598D01*
X182746096Y-98150836D01*
X182650858Y-98198455D01*
G04 #@! TO.C,NTC_AIR1*
X134322023Y-117495380D02*
X134322023Y-116495380D01*
X134893452Y-117495380D01*
X134893452Y-116495380D01*
X135226785Y-116495380D02*
X135798214Y-116495380D01*
X135512500Y-117495380D02*
X135512500Y-116495380D01*
X136702976Y-117400142D02*
X136655357Y-117447761D01*
X136512500Y-117495380D01*
X136417261Y-117495380D01*
X136274404Y-117447761D01*
X136179166Y-117352523D01*
X136131547Y-117257285D01*
X136083928Y-117066809D01*
X136083928Y-116923952D01*
X136131547Y-116733476D01*
X136179166Y-116638238D01*
X136274404Y-116543000D01*
X136417261Y-116495380D01*
X136512500Y-116495380D01*
X136655357Y-116543000D01*
X136702976Y-116590619D01*
X136893452Y-117590619D02*
X137655357Y-117590619D01*
X137845833Y-117209666D02*
X138322023Y-117209666D01*
X137750595Y-117495380D02*
X138083928Y-116495380D01*
X138417261Y-117495380D01*
X138750595Y-117495380D02*
X138750595Y-116495380D01*
X139798214Y-117495380D02*
X139464880Y-117019190D01*
X139226785Y-117495380D02*
X139226785Y-116495380D01*
X139607738Y-116495380D01*
X139702976Y-116543000D01*
X139750595Y-116590619D01*
X139798214Y-116685857D01*
X139798214Y-116828714D01*
X139750595Y-116923952D01*
X139702976Y-116971571D01*
X139607738Y-117019190D01*
X139226785Y-117019190D01*
X140750595Y-117495380D02*
X140179166Y-117495380D01*
X140464880Y-117495380D02*
X140464880Y-116495380D01*
X140369642Y-116638238D01*
X140274404Y-116733476D01*
X140179166Y-116781095D01*
G04 #@! TO.C,NTC_WELL1*
X124655357Y-117495380D02*
X124655357Y-116495380D01*
X125226785Y-117495380D01*
X125226785Y-116495380D01*
X125560119Y-116495380D02*
X126131547Y-116495380D01*
X125845833Y-117495380D02*
X125845833Y-116495380D01*
X127036309Y-117400142D02*
X126988690Y-117447761D01*
X126845833Y-117495380D01*
X126750595Y-117495380D01*
X126607738Y-117447761D01*
X126512500Y-117352523D01*
X126464880Y-117257285D01*
X126417261Y-117066809D01*
X126417261Y-116923952D01*
X126464880Y-116733476D01*
X126512500Y-116638238D01*
X126607738Y-116543000D01*
X126750595Y-116495380D01*
X126845833Y-116495380D01*
X126988690Y-116543000D01*
X127036309Y-116590619D01*
X127226785Y-117590619D02*
X127988690Y-117590619D01*
X128131547Y-116495380D02*
X128369642Y-117495380D01*
X128560119Y-116781095D01*
X128750595Y-117495380D01*
X128988690Y-116495380D01*
X129369642Y-116971571D02*
X129702976Y-116971571D01*
X129845833Y-117495380D02*
X129369642Y-117495380D01*
X129369642Y-116495380D01*
X129845833Y-116495380D01*
X130750595Y-117495380D02*
X130274404Y-117495380D01*
X130274404Y-116495380D01*
X131560119Y-117495380D02*
X131083928Y-117495380D01*
X131083928Y-116495380D01*
X132417261Y-117495380D02*
X131845833Y-117495380D01*
X132131547Y-117495380D02*
X132131547Y-116495380D01*
X132036309Y-116638238D01*
X131941071Y-116733476D01*
X131845833Y-116781095D01*
G04 #@! TO.C,Q1*
X169460661Y-107453479D02*
X169365423Y-107405860D01*
X169270185Y-107310621D01*
X169127328Y-107167764D01*
X169032090Y-107120145D01*
X168936852Y-107120145D01*
X168984471Y-107358240D02*
X168889233Y-107310621D01*
X168793995Y-107215383D01*
X168746376Y-107024907D01*
X168746376Y-106691574D01*
X168793995Y-106501098D01*
X168889233Y-106405860D01*
X168984471Y-106358240D01*
X169174947Y-106358240D01*
X169270185Y-106405860D01*
X169365423Y-106501098D01*
X169413042Y-106691574D01*
X169413042Y-107024907D01*
X169365423Y-107215383D01*
X169270185Y-107310621D01*
X169174947Y-107358240D01*
X168984471Y-107358240D01*
X170365423Y-107358240D02*
X169793995Y-107358240D01*
X170079709Y-107358240D02*
X170079709Y-106358240D01*
X169984471Y-106501098D01*
X169889233Y-106596336D01*
X169793995Y-106643955D01*
G04 #@! TO.C,Q2*
X173967261Y-95954619D02*
X173872023Y-95907000D01*
X173776785Y-95811761D01*
X173633928Y-95668904D01*
X173538690Y-95621285D01*
X173443452Y-95621285D01*
X173491071Y-95859380D02*
X173395833Y-95811761D01*
X173300595Y-95716523D01*
X173252976Y-95526047D01*
X173252976Y-95192714D01*
X173300595Y-95002238D01*
X173395833Y-94907000D01*
X173491071Y-94859380D01*
X173681547Y-94859380D01*
X173776785Y-94907000D01*
X173872023Y-95002238D01*
X173919642Y-95192714D01*
X173919642Y-95526047D01*
X173872023Y-95716523D01*
X173776785Y-95811761D01*
X173681547Y-95859380D01*
X173491071Y-95859380D01*
X174300595Y-94954619D02*
X174348214Y-94907000D01*
X174443452Y-94859380D01*
X174681547Y-94859380D01*
X174776785Y-94907000D01*
X174824404Y-94954619D01*
X174872023Y-95049857D01*
X174872023Y-95145095D01*
X174824404Y-95287952D01*
X174252976Y-95859380D01*
X174872023Y-95859380D01*
G04 #@! TO.C,R1*
X144345833Y-103652380D02*
X144012500Y-103176190D01*
X143774404Y-103652380D02*
X143774404Y-102652380D01*
X144155357Y-102652380D01*
X144250595Y-102700000D01*
X144298214Y-102747619D01*
X144345833Y-102842857D01*
X144345833Y-102985714D01*
X144298214Y-103080952D01*
X144250595Y-103128571D01*
X144155357Y-103176190D01*
X143774404Y-103176190D01*
X145298214Y-103652380D02*
X144726785Y-103652380D01*
X145012500Y-103652380D02*
X145012500Y-102652380D01*
X144917261Y-102795238D01*
X144822023Y-102890476D01*
X144726785Y-102938095D01*
G04 #@! TO.C,R2*
X144345833Y-101112380D02*
X144012500Y-100636190D01*
X143774404Y-101112380D02*
X143774404Y-100112380D01*
X144155357Y-100112380D01*
X144250595Y-100160000D01*
X144298214Y-100207619D01*
X144345833Y-100302857D01*
X144345833Y-100445714D01*
X144298214Y-100540952D01*
X144250595Y-100588571D01*
X144155357Y-100636190D01*
X143774404Y-100636190D01*
X144726785Y-100207619D02*
X144774404Y-100160000D01*
X144869642Y-100112380D01*
X145107738Y-100112380D01*
X145202976Y-100160000D01*
X145250595Y-100207619D01*
X145298214Y-100302857D01*
X145298214Y-100398095D01*
X145250595Y-100540952D01*
X144679166Y-101112380D01*
X145298214Y-101112380D01*
G04 #@! TO.C,R3*
X144345833Y-106192380D02*
X144012500Y-105716190D01*
X143774404Y-106192380D02*
X143774404Y-105192380D01*
X144155357Y-105192380D01*
X144250595Y-105240000D01*
X144298214Y-105287619D01*
X144345833Y-105382857D01*
X144345833Y-105525714D01*
X144298214Y-105620952D01*
X144250595Y-105668571D01*
X144155357Y-105716190D01*
X143774404Y-105716190D01*
X144679166Y-105192380D02*
X145298214Y-105192380D01*
X144964880Y-105573333D01*
X145107738Y-105573333D01*
X145202976Y-105620952D01*
X145250595Y-105668571D01*
X145298214Y-105763809D01*
X145298214Y-106001904D01*
X145250595Y-106097142D01*
X145202976Y-106144761D01*
X145107738Y-106192380D01*
X144822023Y-106192380D01*
X144726785Y-106144761D01*
X144679166Y-106097142D01*
G04 #@! TO.C,R4*
X144345833Y-111272380D02*
X144012500Y-110796190D01*
X143774404Y-111272380D02*
X143774404Y-110272380D01*
X144155357Y-110272380D01*
X144250595Y-110320000D01*
X144298214Y-110367619D01*
X144345833Y-110462857D01*
X144345833Y-110605714D01*
X144298214Y-110700952D01*
X144250595Y-110748571D01*
X144155357Y-110796190D01*
X143774404Y-110796190D01*
X145202976Y-110605714D02*
X145202976Y-111272380D01*
X144964880Y-110224761D02*
X144726785Y-110939047D01*
X145345833Y-110939047D01*
G04 #@! TO.C,R5*
X175119473Y-102128380D02*
X174786140Y-101652190D01*
X174548044Y-102128380D02*
X174548044Y-101128380D01*
X174928997Y-101128380D01*
X175024235Y-101176000D01*
X175071854Y-101223619D01*
X175119473Y-101318857D01*
X175119473Y-101461714D01*
X175071854Y-101556952D01*
X175024235Y-101604571D01*
X174928997Y-101652190D01*
X174548044Y-101652190D01*
X176024235Y-101128380D02*
X175548044Y-101128380D01*
X175500425Y-101604571D01*
X175548044Y-101556952D01*
X175643282Y-101509333D01*
X175881378Y-101509333D01*
X175976616Y-101556952D01*
X176024235Y-101604571D01*
X176071854Y-101699809D01*
X176071854Y-101937904D01*
X176024235Y-102033142D01*
X175976616Y-102080761D01*
X175881378Y-102128380D01*
X175643282Y-102128380D01*
X175548044Y-102080761D01*
X175500425Y-102033142D01*
G04 #@! TO.C,R6*
X175119473Y-103652380D02*
X174786140Y-103176190D01*
X174548044Y-103652380D02*
X174548044Y-102652380D01*
X174928997Y-102652380D01*
X175024235Y-102700000D01*
X175071854Y-102747619D01*
X175119473Y-102842857D01*
X175119473Y-102985714D01*
X175071854Y-103080952D01*
X175024235Y-103128571D01*
X174928997Y-103176190D01*
X174548044Y-103176190D01*
X175976616Y-102652380D02*
X175786140Y-102652380D01*
X175690901Y-102700000D01*
X175643282Y-102747619D01*
X175548044Y-102890476D01*
X175500425Y-103080952D01*
X175500425Y-103461904D01*
X175548044Y-103557142D01*
X175595663Y-103604761D01*
X175690901Y-103652380D01*
X175881378Y-103652380D01*
X175976616Y-103604761D01*
X176024235Y-103557142D01*
X176071854Y-103461904D01*
X176071854Y-103223809D01*
X176024235Y-103128571D01*
X175976616Y-103080952D01*
X175881378Y-103033333D01*
X175690901Y-103033333D01*
X175595663Y-103080952D01*
X175548044Y-103128571D01*
X175500425Y-103223809D01*
G04 #@! TO.C,R7*
X144345833Y-108732380D02*
X144012500Y-108256190D01*
X143774404Y-108732380D02*
X143774404Y-107732380D01*
X144155357Y-107732380D01*
X144250595Y-107780000D01*
X144298214Y-107827619D01*
X144345833Y-107922857D01*
X144345833Y-108065714D01*
X144298214Y-108160952D01*
X144250595Y-108208571D01*
X144155357Y-108256190D01*
X143774404Y-108256190D01*
X144679166Y-107732380D02*
X145345833Y-107732380D01*
X144917261Y-108732380D01*
G04 #@! TO.C,R8*
X144345833Y-98572380D02*
X144012500Y-98096190D01*
X143774404Y-98572380D02*
X143774404Y-97572380D01*
X144155357Y-97572380D01*
X144250595Y-97620000D01*
X144298214Y-97667619D01*
X144345833Y-97762857D01*
X144345833Y-97905714D01*
X144298214Y-98000952D01*
X144250595Y-98048571D01*
X144155357Y-98096190D01*
X143774404Y-98096190D01*
X144917261Y-98000952D02*
X144822023Y-97953333D01*
X144774404Y-97905714D01*
X144726785Y-97810476D01*
X144726785Y-97762857D01*
X144774404Y-97667619D01*
X144822023Y-97620000D01*
X144917261Y-97572380D01*
X145107738Y-97572380D01*
X145202976Y-97620000D01*
X145250595Y-97667619D01*
X145298214Y-97762857D01*
X145298214Y-97810476D01*
X145250595Y-97905714D01*
X145202976Y-97953333D01*
X145107738Y-98000952D01*
X144917261Y-98000952D01*
X144822023Y-98048571D01*
X144774404Y-98096190D01*
X144726785Y-98191428D01*
X144726785Y-98381904D01*
X144774404Y-98477142D01*
X144822023Y-98524761D01*
X144917261Y-98572380D01*
X145107738Y-98572380D01*
X145202976Y-98524761D01*
X145250595Y-98477142D01*
X145298214Y-98381904D01*
X145298214Y-98191428D01*
X145250595Y-98096190D01*
X145202976Y-98048571D01*
X145107738Y-98000952D01*
G04 #@! TO.C,R9*
X144345833Y-93492380D02*
X144012500Y-93016190D01*
X143774404Y-93492380D02*
X143774404Y-92492380D01*
X144155357Y-92492380D01*
X144250595Y-92540000D01*
X144298214Y-92587619D01*
X144345833Y-92682857D01*
X144345833Y-92825714D01*
X144298214Y-92920952D01*
X144250595Y-92968571D01*
X144155357Y-93016190D01*
X143774404Y-93016190D01*
X144822023Y-93492380D02*
X145012500Y-93492380D01*
X145107738Y-93444761D01*
X145155357Y-93397142D01*
X145250595Y-93254285D01*
X145298214Y-93063809D01*
X145298214Y-92682857D01*
X145250595Y-92587619D01*
X145202976Y-92540000D01*
X145107738Y-92492380D01*
X144917261Y-92492380D01*
X144822023Y-92540000D01*
X144774404Y-92587619D01*
X144726785Y-92682857D01*
X144726785Y-92920952D01*
X144774404Y-93016190D01*
X144822023Y-93063809D01*
X144917261Y-93111428D01*
X145107738Y-93111428D01*
X145202976Y-93063809D01*
X145250595Y-93016190D01*
X145298214Y-92920952D01*
G04 #@! TO.C,R10*
X174682500Y-100243666D02*
X174449166Y-99910333D01*
X174282500Y-100243666D02*
X174282500Y-99543666D01*
X174549166Y-99543666D01*
X174615833Y-99577000D01*
X174649166Y-99610333D01*
X174682500Y-99677000D01*
X174682500Y-99777000D01*
X174649166Y-99843666D01*
X174615833Y-99877000D01*
X174549166Y-99910333D01*
X174282500Y-99910333D01*
X175349166Y-100243666D02*
X174949166Y-100243666D01*
X175149166Y-100243666D02*
X175149166Y-99543666D01*
X175082500Y-99643666D01*
X175015833Y-99710333D01*
X174949166Y-99743666D01*
X175782500Y-99543666D02*
X175849166Y-99543666D01*
X175915833Y-99577000D01*
X175949166Y-99610333D01*
X175982500Y-99677000D01*
X176015833Y-99810333D01*
X176015833Y-99977000D01*
X175982500Y-100110333D01*
X175949166Y-100177000D01*
X175915833Y-100210333D01*
X175849166Y-100243666D01*
X175782500Y-100243666D01*
X175715833Y-100210333D01*
X175682500Y-100177000D01*
X175649166Y-100110333D01*
X175615833Y-99977000D01*
X175615833Y-99810333D01*
X175649166Y-99677000D01*
X175682500Y-99610333D01*
X175715833Y-99577000D01*
X175782500Y-99543666D01*
G04 #@! TO.C,R11*
X144313142Y-96032380D02*
X143979809Y-95556190D01*
X143741714Y-96032380D02*
X143741714Y-95032380D01*
X144122666Y-95032380D01*
X144217904Y-95080000D01*
X144265523Y-95127619D01*
X144313142Y-95222857D01*
X144313142Y-95365714D01*
X144265523Y-95460952D01*
X144217904Y-95508571D01*
X144122666Y-95556190D01*
X143741714Y-95556190D01*
X145265523Y-96032380D02*
X144694095Y-96032380D01*
X144979809Y-96032380D02*
X144979809Y-95032380D01*
X144884571Y-95175238D01*
X144789333Y-95270476D01*
X144694095Y-95318095D01*
X146217904Y-96032380D02*
X145646476Y-96032380D01*
X145932190Y-96032380D02*
X145932190Y-95032380D01*
X145836952Y-95175238D01*
X145741714Y-95270476D01*
X145646476Y-95318095D01*
G04 #@! TO.C,R12*
X174652500Y-98473666D02*
X174419166Y-98140333D01*
X174252500Y-98473666D02*
X174252500Y-97773666D01*
X174519166Y-97773666D01*
X174585833Y-97807000D01*
X174619166Y-97840333D01*
X174652500Y-97907000D01*
X174652500Y-98007000D01*
X174619166Y-98073666D01*
X174585833Y-98107000D01*
X174519166Y-98140333D01*
X174252500Y-98140333D01*
X175319166Y-98473666D02*
X174919166Y-98473666D01*
X175119166Y-98473666D02*
X175119166Y-97773666D01*
X175052500Y-97873666D01*
X174985833Y-97940333D01*
X174919166Y-97973666D01*
X175585833Y-97840333D02*
X175619166Y-97807000D01*
X175685833Y-97773666D01*
X175852500Y-97773666D01*
X175919166Y-97807000D01*
X175952500Y-97840333D01*
X175985833Y-97907000D01*
X175985833Y-97973666D01*
X175952500Y-98073666D01*
X175552500Y-98473666D01*
X175985833Y-98473666D01*
G04 #@! TO.C,U1*
D17*
X156816106Y-96927046D02*
X156816106Y-97646713D01*
X156858440Y-97731380D01*
X156900773Y-97773713D01*
X156985440Y-97816046D01*
X157154773Y-97816046D01*
X157239440Y-97773713D01*
X157281773Y-97731380D01*
X157324106Y-97646713D01*
X157324106Y-96927046D01*
X158213106Y-97816046D02*
X157705106Y-97816046D01*
X157959106Y-97816046D02*
X157959106Y-96927046D01*
X157874440Y-97054046D01*
X157789773Y-97138713D01*
X157705106Y-97181046D01*
D18*
X154187828Y-98991742D02*
X154274914Y-99020771D01*
X154420057Y-99020771D01*
X154478114Y-98991742D01*
X154507142Y-98962714D01*
X154536171Y-98904657D01*
X154536171Y-98846600D01*
X154507142Y-98788542D01*
X154478114Y-98759514D01*
X154420057Y-98730485D01*
X154303942Y-98701457D01*
X154245885Y-98672428D01*
X154216857Y-98643400D01*
X154187828Y-98585342D01*
X154187828Y-98527285D01*
X154216857Y-98469228D01*
X154245885Y-98440200D01*
X154303942Y-98411171D01*
X154449085Y-98411171D01*
X154536171Y-98440200D01*
X155029657Y-98991742D02*
X154971600Y-99020771D01*
X154855485Y-99020771D01*
X154797428Y-98991742D01*
X154768400Y-98933685D01*
X154768400Y-98701457D01*
X154797428Y-98643400D01*
X154855485Y-98614371D01*
X154971600Y-98614371D01*
X155029657Y-98643400D01*
X155058685Y-98701457D01*
X155058685Y-98759514D01*
X154768400Y-98817571D01*
X155552171Y-98991742D02*
X155494114Y-99020771D01*
X155378000Y-99020771D01*
X155319942Y-98991742D01*
X155290914Y-98933685D01*
X155290914Y-98701457D01*
X155319942Y-98643400D01*
X155378000Y-98614371D01*
X155494114Y-98614371D01*
X155552171Y-98643400D01*
X155581200Y-98701457D01*
X155581200Y-98759514D01*
X155290914Y-98817571D01*
X156074685Y-98991742D02*
X156016628Y-99020771D01*
X155900514Y-99020771D01*
X155842457Y-98991742D01*
X155813428Y-98933685D01*
X155813428Y-98701457D01*
X155842457Y-98643400D01*
X155900514Y-98614371D01*
X156016628Y-98614371D01*
X156074685Y-98643400D01*
X156103714Y-98701457D01*
X156103714Y-98759514D01*
X155813428Y-98817571D01*
X156626228Y-99020771D02*
X156626228Y-98411171D01*
X156626228Y-98991742D02*
X156568171Y-99020771D01*
X156452057Y-99020771D01*
X156394000Y-98991742D01*
X156364971Y-98962714D01*
X156335942Y-98904657D01*
X156335942Y-98730485D01*
X156364971Y-98672428D01*
X156394000Y-98643400D01*
X156452057Y-98614371D01*
X156568171Y-98614371D01*
X156626228Y-98643400D01*
X157177771Y-98614371D02*
X157177771Y-99020771D01*
X156916514Y-98614371D02*
X156916514Y-98933685D01*
X156945542Y-98991742D01*
X157003600Y-99020771D01*
X157090685Y-99020771D01*
X157148742Y-98991742D01*
X157177771Y-98962714D01*
X157468057Y-99020771D02*
X157468057Y-98614371D01*
X157468057Y-98411171D02*
X157439028Y-98440200D01*
X157468057Y-98469228D01*
X157497085Y-98440200D01*
X157468057Y-98411171D01*
X157468057Y-98469228D01*
X157758342Y-98614371D02*
X157758342Y-99020771D01*
X157758342Y-98672428D02*
X157787371Y-98643400D01*
X157845428Y-98614371D01*
X157932514Y-98614371D01*
X157990571Y-98643400D01*
X158019600Y-98701457D01*
X158019600Y-99020771D01*
X158396971Y-99020771D02*
X158338914Y-98991742D01*
X158309885Y-98962714D01*
X158280857Y-98904657D01*
X158280857Y-98730485D01*
X158309885Y-98672428D01*
X158338914Y-98643400D01*
X158396971Y-98614371D01*
X158484057Y-98614371D01*
X158542114Y-98643400D01*
X158571142Y-98672428D01*
X158600171Y-98730485D01*
X158600171Y-98904657D01*
X158571142Y-98962714D01*
X158542114Y-98991742D01*
X158484057Y-99020771D01*
X158396971Y-99020771D01*
X158803371Y-98411171D02*
X159209771Y-99020771D01*
X159209771Y-98411171D02*
X158803371Y-99020771D01*
X159442000Y-99020771D02*
X159442000Y-98411171D01*
X159703257Y-98846600D02*
X159993542Y-98846600D01*
X159645200Y-99020771D02*
X159848400Y-98411171D01*
X160051600Y-99020771D01*
X160370914Y-98411171D02*
X160487028Y-98411171D01*
X160545085Y-98440200D01*
X160603142Y-98498257D01*
X160632171Y-98614371D01*
X160632171Y-98817571D01*
X160603142Y-98933685D01*
X160545085Y-98991742D01*
X160487028Y-99020771D01*
X160370914Y-99020771D01*
X160312857Y-98991742D01*
X160254800Y-98933685D01*
X160225771Y-98817571D01*
X160225771Y-98614371D01*
X160254800Y-98498257D01*
X160312857Y-98440200D01*
X160370914Y-98411171D01*
G04 #@! TO.C,TH1*
D10*
X131876785Y-111559380D02*
X132448214Y-111559380D01*
X132162500Y-112559380D02*
X132162500Y-111559380D01*
X132781547Y-112559380D02*
X132781547Y-111559380D01*
X132781547Y-112035571D02*
X133352976Y-112035571D01*
X133352976Y-112559380D02*
X133352976Y-111559380D01*
X134352976Y-112559380D02*
X133781547Y-112559380D01*
X134067261Y-112559380D02*
X134067261Y-111559380D01*
X133972023Y-111702238D01*
X133876785Y-111797476D01*
X133781547Y-111845095D01*
G04 #@! TO.C,SW2*
D17*
X116882333Y-103692333D02*
X116924666Y-103565333D01*
X116924666Y-103353666D01*
X116882333Y-103269000D01*
X116840000Y-103226666D01*
X116755333Y-103184333D01*
X116670666Y-103184333D01*
X116586000Y-103226666D01*
X116543666Y-103269000D01*
X116501333Y-103353666D01*
X116459000Y-103523000D01*
X116416666Y-103607666D01*
X116374333Y-103650000D01*
X116289666Y-103692333D01*
X116205000Y-103692333D01*
X116120333Y-103650000D01*
X116078000Y-103607666D01*
X116035666Y-103523000D01*
X116035666Y-103311333D01*
X116078000Y-103184333D01*
X116035666Y-102888000D02*
X116924666Y-102676333D01*
X116289666Y-102507000D01*
X116924666Y-102337666D01*
X116035666Y-102126000D01*
X116120333Y-101829666D02*
X116078000Y-101787333D01*
X116035666Y-101702666D01*
X116035666Y-101491000D01*
X116078000Y-101406333D01*
X116120333Y-101364000D01*
X116205000Y-101321666D01*
X116289666Y-101321666D01*
X116416666Y-101364000D01*
X116924666Y-101872000D01*
X116924666Y-101321666D01*
G04 #@! TD*
M02*
