M48
; DRILL file {KiCad (5.1.6-0-10_14)} date Wednesday, October 28, 2020 at 03:50:42 PM
; FORMAT={-:-/ absolute / inch / decimal}
; #@! TF.CreationDate,2020-10-28T15:50:42+09:00
; #@! TF.GenerationSoftware,Kicad,Pcbnew,(5.1.6-0-10_14)
FMAT,2
INCH
T1C0.0157
T2C0.0256
T3C0.0314
T4C0.0334
T5C0.0394
T6C0.0400
T7C0.0472
T8C0.0787
%
G90
G05
T1
X4.48Y-4.4062
X4.4828Y-3.7089
X4.484Y-3.8767
X4.4855Y-4.207
X4.6387Y-3.7743
X4.6497Y-4.2735
X4.6595Y-3.629
X4.6765Y-4.4408
X4.6808Y-4.581
X4.6824Y-3.5038
X4.7513Y-4.0188
X4.8155Y-3.7581
X4.8749Y-4.2869
X4.8863Y-3.8924
X4.8867Y-4.5857
X4.8879Y-4.1416
X4.9029Y-4.4633
X4.9347Y-3.6078
X5.0426Y-3.803
X5.0462Y-3.9967
X5.0572Y-3.4873
X5.0592Y-3.6046
X5.0706Y-4.3735
X5.171Y-4.3704
X5.1776Y-3.7669
X5.1788Y-4.2483
X5.2844Y-4.2168
X5.3084Y-4.3184
X5.3131Y-3.9609
X5.3233Y-3.8349
X5.3662Y-4.4471
X5.3828Y-4.1578
X5.391Y-3.8956
X5.4147Y-4.3062
X5.441Y-4.4026
X5.4442Y-3.833
X5.4473Y-4.2113
X5.4529Y-3.6715
X5.4629Y-4.063
X5.4749Y-3.9207
X5.4812Y-3.5707
X5.5347Y-3.4857
X5.5643Y-4.4948
X5.5989Y-4.1133
X5.6532Y-3.62
X5.6584Y-3.5093
X5.6592Y-4.5519
X5.6891Y-4.3062
X5.7299Y-3.8995
X5.7403Y-4.0491
X5.7481Y-4.3475
X5.7627Y-3.7137
X5.7702Y-4.2436
X5.7851Y-4.1656
X5.8395Y-3.5349
X5.8552Y-4.4597
X5.8769Y-4.3109
X5.8934Y-4.5109
X5.9399Y-4.4058
X5.9497Y-3.6377
X5.9607Y-4.0633
X5.9611Y-3.7152
X5.9662Y-4.2223
X5.9678Y-3.4979
X5.969Y-3.8857
X6.0367Y-4.5109
X6.0552Y-3.9802
X6.0906Y-3.5022
X6.1095Y-3.7802
X6.1103Y-4.1211
X6.1107Y-3.6231
X6.1568Y-4.5479
X6.158Y-4.4227
X6.1588Y-4.3204
X6.1966Y-3.7074
X6.2021Y-3.6172
X6.2052Y-3.5227
X6.2501Y-4.0081
X6.2572Y-4.355
X6.2651Y-4.1078
X6.3068Y-3.6219
X6.3068Y-3.7873
X6.3178Y-4.2204
X6.3655Y-3.5373
X6.369Y-4.0054
X6.4253Y-3.7822
X6.4253Y-3.8928
X6.4442Y-3.6479
X6.467Y-4.2735
X6.5029Y-3.533
X6.5906Y-4.1519
X6.6017Y-3.57
X6.616Y-4.0473
X6.6536Y-3.7176
X6.6891Y-4.1066
X6.7076Y-3.5074
X6.7239Y-4.287
X6.8294Y-4.2605
X6.8643Y-4.5916
X6.8733Y-3.5062
X6.8784Y-4.4314
X6.9265Y-3.6676
X6.9473Y-4.1306
X6.9525Y-4.0003
X6.9627Y-4.5188
X6.9812Y-3.7778
X6.9903Y-3.5058
X7.0194Y-4.2235
X7.0477Y-3.6219
X7.0631Y-4.5948
X7.0761Y-3.9956
X7.095Y-4.1798
X7.1214Y-3.6841
X7.1462Y-3.8605
X7.1623Y-3.5129
X7.1867Y-4.5326
X7.2123Y-4.1211
X7.2344Y-3.9034
X7.2552Y-3.683
X7.3029Y-4.2353
X7.3225Y-4.4282
X7.3529Y-4.583
X7.3662Y-3.5109
X7.3954Y-3.9668
X7.4001Y-3.8133
X7.4115Y-4.1542
X7.4367Y-4.427
X7.5056Y-3.7601
X7.5351Y-4.0928
X7.5351Y-4.2558
X7.5883Y-3.9739
X7.5946Y-3.6652
X7.6202Y-4.2223
X7.6206Y-4.3597
X7.6218Y-3.8428
T2
X6.643Y-3.8038
X6.643Y-3.8538
X6.643Y-3.9038
X6.643Y-3.9538
X6.643Y-4.0038
T3
X4.5087Y-3.9386
X4.5087Y-4.1354
T4
X5.2567Y-3.8449
X5.2567Y-3.9237
X5.2567Y-4.0023
X5.2567Y-4.0811
T5
X5.3669Y-4.513
X5.4669Y-4.513
X5.0044Y-4.513
X5.1044Y-4.513
X5.8324Y-4.3688
X5.8324Y-4.5459
X6.0883Y-4.3688
X6.0883Y-4.5459
X6.2473Y-4.5101
X6.3473Y-4.5101
X6.4473Y-4.5101
X6.6779Y-4.3846
X6.7779Y-4.3846
X6.6775Y-4.545
X6.7775Y-4.545
T6
X5.1067Y-3.5449
X5.2067Y-3.5449
X5.3067Y-3.5449
X5.4067Y-3.5449
T7
X6.6834Y-3.6
X6.7834Y-3.6
X6.8834Y-3.6
T8
X4.7941Y-3.5646
X4.7941Y-4.5016
X5.7193Y-3.5646
X5.7193Y-4.5016
T5
G00X7.0049Y-3.8415
M15
G01X7.0049Y-3.9203
M16
G05
G00X7.2293Y-3.7628
M15
G01X7.1506Y-3.7628
M16
G05
G00X7.2293Y-3.999
M15
G01X7.1506Y-3.999
M16
G05
T0
M30
