0
SECTION
2
HEADER
9
$INSUNITS
70
4
9
$ACADVER
1
AC1014
9
$HANDSEED
5
FFFF
0
ENDSEC
0
SECTION
2
TABLES
0
TABLE
2
VPORT
5
8
100
AcDbSymbolTable
0
ENDTAB
0
TABLE
2
LTYPE
5
5
100
AcDbSymbolTable
0
LTYPE
5
14
100
AcDbSymbolTableRecord
100
AcDbLinetypeTableRecord
2
BYBLOCK
70
0
0
LTYPE
5
15
100
AcDbSymbolTableRecord
100
AcDbLinetypeTableRecord
2
BYLAYER
70
0
0
ENDTAB
0
TABLE
2
LAYER
5
2
100
AcDbSymbolTable
70
2
0
LAYER
5
50
100
AcDbSymbolTableRecord
100
AcDbLayerTableRecord
2
0
70
0
6
CONTINUOUS
0
ENDTAB
0
TABLE
2
STYLE
5
3
100
AcDbSymbolTable
70
1
0
STYLE
5
11
100
AcDbSymbolTableRecord
100
AcDbTextStyleTableRecord
2
STANDARD
70
0
0
ENDTAB
0
TABLE
2
VIEW
5
6
100
AcDbSymbolTable
70
0
0
ENDTAB
0
TABLE
2
UCS
5
7
100
AcDbSymbolTable
70
0
0
ENDTAB
0
TABLE
2
APPID
5
9
100
AcDbSymbolTable
70
2
0
APPID
5
12
100
AcDbSymbolTableRecord
100
AcDbRegAppTableRecord
2
ACAD
70
0
0
ENDTAB
0
TABLE
2
DIMSTYLE
5
A
100
AcDbSymbolTable
70
1
0
ENDTAB
0
TABLE
2
BLOCK_RECORD
5
1
100
AcDbSymbolTable
70
1
0
BLOCK_RECORD
5
1F
100
AcDbSymbolTableRecord
100
AcDbBlockTableRecord
2
*MODEL_SPACE
0
BLOCK_RECORD
5
1B
100
AcDbSymbolTableRecord
100
AcDbBlockTableRecord
2
*PAPER_SPACE
0
ENDTAB
0
ENDSEC
0
SECTION
2
BLOCKS
0
BLOCK
5
20
100
AcDbEntity
100
AcDbBlockBegin
2
*MODEL_SPACE
0
ENDBLK
5
21
100
AcDbEntity
100
AcDbBlockEnd
0
BLOCK
5
1C
100
AcDbEntity
100
AcDbBlockBegin
2
*PAPER_SPACE
0
ENDBLK
5
1D
100
AcDbEntity
100
AcDbBlockEnd
0
ENDSEC
0
SECTION
2
ENTITIES
0
LWPOLYLINE
5
100
100
AcDbEntity
8
0
100
AcDbPolyline
90
12
70
1
43
0.0
10
-223.81346217620401
20
70.119011052561532
42
0.66480470828158778
10
-225.95451271463304
20
75.22041596163848
10
-319.36905920257641
20
75.220415961638565
42
0.41421356237310281
10
-321.36905920257647
20
73.220415961638565
10
-321.36905920257652
20
24.220584207438549
42
0.41421356237307227
10
-319.36905920257652
20
22.220584207438531
10
-224.36906748887651
20
22.220584207438474
42
0.41421356237309637
10
-222.36906748887651
20
24.220584207438485
10
-222.36906748887645
20
40.965700107819458
42
0.23607688438237859
10
-223.56914848225486
20
43.365760850717933
42
-0.23607688438237751
10
-224.36920247784042
20
44.965801345983536
10
-224.36920247784045
20
68.759402076388739
42
-0.19648488247985174
0
CIRCLE
5
101
100
AcDbEntity
8
0
100
AcDbCircle
10
-230.80811371664475
20
48.717270122661446
30
0
40
1.6000000000000014
210
0
220
-0
230
1
0
CIRCLE
5
102
100
AcDbEntity
8
0
100
AcDbCircle
10
-312.98011371664467
20
48.720417207438615
30
0
40
1.6000000000000014
210
0
220
-0
230
1
0
LWPOLYLINE
5
103
100
AcDbEntity
8
0
100
AcDbPolyline
90
4
70
1
43
0.0
10
-226.86906748887648
20
34.717270122661461
10
-226.86906748887648
20
40.717270122661454
10
-224.36906748887648
20
40.717270122661454
10
-224.36906748887648
20
34.717270122661446
0
LWPOLYLINE
5
104
100
AcDbEntity
8
0
100
AcDbPolyline
90
4
70
1
43
0.0
10
-316.86906748887645
20
62.720417207438615
10
-316.86906748887645
20
52.720417207438615
10
-319.36906748887645
20
52.720417207438615
10
-319.36906748887645
20
62.720417207438615
0
LWPOLYLINE
5
105
100
AcDbEntity
8
0
100
AcDbPolyline
90
4
70
1
43
0.0
10
-304.36906748887651
20
24.220584207438538
10
-304.36906748887651
20
26.720584207438538
10
-284.36906748887645
20
26.72058420743852
10
-284.36906748887645
20
24.22058420743852
0
LWPOLYLINE
5
106
100
AcDbEntity
8
0
100
AcDbPolyline
90
4
70
1
43
0.0
10
-319.36906748887645
20
34.720417207438608
10
-319.36906748887645
20
44.720417207438608
10
-316.86906748887651
20
44.720417207438608
10
-316.86906748887651
20
34.720417207438608
0
LWPOLYLINE
5
107
100
AcDbEntity
8
0
100
AcDbPolyline
90
4
70
1
43
0.0
10
-259.36906748887645
20
26.720584207438502
10
-239.36906748887648
20
26.720584207438485
10
-239.36906748887648
20
24.220584207438485
10
-259.36906748887645
20
24.220584207438502
0
LWPOLYLINE
5
108
100
AcDbEntity
8
0
100
AcDbPolyline
90
24
70
1
43
0.0
10
-232.39559009386923
20
28.654662808590995
42
0.2340636565338664
10
-236.37031134771988
20
30.629140119465333
10
-306.41791608556952
20
30.713360295411615
42
0.23406365653386374
10
-310.39737377847666
20
28.748446514266984
42
-1.1435054721961624
10
-314.94981068634161
20
33.306360233639943
42
0.23406365653386255
10
-312.98011371664467
20
37.28345258164196
10
-312.98011371664467
20
40.060163169594219
42
-0.26794919243112236
10
-310.48011371664467
20
44.39029018851641
42
0.57735026918962629
10
-310.48011371664467
20
53.050544226360799
42
-0.26794919243112264
10
-312.98011371664467
20
57.380671245282997
10
-312.98011371664467
20
60.157381833235277
42
0.23406365653386257
10
-314.94981068634155
20
64.134474181237309
42
-1.1448936745643847
10
-310.39263733942016
20
68.686171606285967
42
0.23406365653386585
10
-306.41791608556952
20
66.711694295411604
10
-236.37031134771988
20
66.627474119465361
42
0.2340636565338621
10
-232.39085365481282
20
68.592387900610021
42
-1.1435054721961435
10
-227.83841674694776
20
64.034474181237059
42
0.23406365653386269
10
-229.80811371664473
20
60.057381833235027
10
-229.80811371664475
20
57.377524160505864
42
-0.26794919243112336
10
-232.30811371664475
20
53.047397141583652
42
0.57735026918962562
10
-232.30811371664475
20
44.387143103739277
42
-0.26794919243112403
10
-229.80811371664473
20
40.057016084817079
10
-229.80811371664473
20
37.183452581641703
42
0.23406365653386374
10
-227.83841674694776
20
33.206360233639707
42
-1.1448936745643865
0
LWPOLYLINE
5
109
100
AcDbEntity
8
0
100
AcDbPolyline
90
4
70
1
43
0.0
10
-284.36906748887645
20
73.220417207438544
10
-284.36906748887645
20
70.720417207438544
10
-304.36906748887645
20
70.720417207438558
10
-304.36906748887645
20
73.220417207438558
0
LWPOLYLINE
5
110
100
AcDbEntity
8
0
100
AcDbPolyline
90
4
70
1
43
0.0
10
-239.36906748887645
20
73.220417207438516
10
-239.36906748887645
20
70.720417207438516
10
-259.36906748887645
20
70.720417207438516
10
-259.36906748887645
20
73.22041720743853
0
ENDSEC
0
SECTION
2
OBJECTS
0
DICTIONARY
5
C
100
AcDbDictionary
3
ACAD_GROUP
350
D
3
ACAD_MLINESTYLE
350
17
0
DICTIONARY
5
D
100
AcDbDictionary
0
DICTIONARY
5
1A
330
C
100
AcDbDictionary
0
DICTIONARY
5
17
100
AcDbDictionary
0
ENDSEC
0
EOF
