0
SECTION
2
HEADER
9
$INSUNITS
70
4
9
$ACADVER
1
AC1014
9
$HANDSEED
5
FFFF
0
ENDSEC
0
SECTION
2
TABLES
0
TABLE
2
VPORT
5
8
100
AcDbSymbolTable
0
ENDTAB
0
TABLE
2
LTYPE
5
5
100
AcDbSymbolTable
0
LTYPE
5
14
100
AcDbSymbolTableRecord
100
AcDbLinetypeTableRecord
2
BYBLOCK
70
0
0
LTYPE
5
15
100
AcDbSymbolTableRecord
100
AcDbLinetypeTableRecord
2
BYLAYER
70
0
0
ENDTAB
0
TABLE
2
LAYER
5
2
100
AcDbSymbolTable
70
2
0
LAYER
5
50
100
AcDbSymbolTableRecord
100
AcDbLayerTableRecord
2
0
70
0
6
CONTINUOUS
0
ENDTAB
0
TABLE
2
STYLE
5
3
100
AcDbSymbolTable
70
1
0
STYLE
5
11
100
AcDbSymbolTableRecord
100
AcDbTextStyleTableRecord
2
STANDARD
70
0
0
ENDTAB
0
TABLE
2
VIEW
5
6
100
AcDbSymbolTable
70
0
0
ENDTAB
0
TABLE
2
UCS
5
7
100
AcDbSymbolTable
70
0
0
ENDTAB
0
TABLE
2
APPID
5
9
100
AcDbSymbolTable
70
2
0
APPID
5
12
100
AcDbSymbolTableRecord
100
AcDbRegAppTableRecord
2
ACAD
70
0
0
ENDTAB
0
TABLE
2
DIMSTYLE
5
A
100
AcDbSymbolTable
70
1
0
ENDTAB
0
TABLE
2
BLOCK_RECORD
5
1
100
AcDbSymbolTable
70
1
0
BLOCK_RECORD
5
1F
100
AcDbSymbolTableRecord
100
AcDbBlockTableRecord
2
*MODEL_SPACE
0
BLOCK_RECORD
5
1B
100
AcDbSymbolTableRecord
100
AcDbBlockTableRecord
2
*PAPER_SPACE
0
ENDTAB
0
ENDSEC
0
SECTION
2
BLOCKS
0
BLOCK
5
20
100
AcDbEntity
100
AcDbBlockBegin
2
*MODEL_SPACE
0
ENDBLK
5
21
100
AcDbEntity
100
AcDbBlockEnd
0
BLOCK
5
1C
100
AcDbEntity
100
AcDbBlockBegin
2
*PAPER_SPACE
0
ENDBLK
5
1D
100
AcDbEntity
100
AcDbBlockEnd
0
ENDSEC
0
SECTION
2
ENTITIES
0
CIRCLE
5
100
100
AcDbEntity
8
0
100
AcDbCircle
10
171.13920947782714
20
-77.279353705283981
30
0
40
1.6000000000000014
210
0
220
0
230
1
0
LWPOLYLINE
5
101
100
AcDbEntity
8
0
100
AcDbPolyline
90
36
70
1
43
0.0
10
162.13923059724254
20
-49.10434770513892
42
0.41421003017286157
10
160.13925471664464
20
-51.104347704993486
10
160.13925471664467
20
-86.279582792561541
42
0.4142135623730977
10
162.13925471664467
20
-88.279582792561541
10
224.36906748887645
20
-88.279582792561527
10
224.36906748887645
20
-86.279582792561555
10
226.86906748887645
20
-86.279582792561555
42
0.41421356237308982
10
227.86906748887645
20
-85.279582792561555
10
227.86906748887645
20
-83.280000792561395
42
0.41421356237310542
10
226.86906748887645
20
-82.28000079256141
10
224.36906748887645
20
-82.280000792561395
10
224.36906748887645
20
-79.780000792561395
10
229.36906748887645
20
-79.780000792561395
42
-0.41421356237309509
10
230.36906748887645
20
-80.78000079256141
10
230.36906748887645
20
-87.279582792561541
42
0.41421356237307422
10
231.36906748887642
20
-88.279582792561541
10
312.36906748887657
20
-88.279582792561527
42
0.41421356237311585
10
313.36906748887657
20
-87.279582792561513
10
313.36906748887645
20
-80.779728283100383
42
-0.41421356237311063
10
314.36906748887645
20
-79.779728283100368
10
319.36906748887645
20
-79.779728283100383
10
319.36906748887645
20
-82.279728283100368
10
316.86906748887645
20
-82.279728283100411
42
0.41421356237310542
10
315.86906748887645
20
-83.279728283100383
10
315.86906748887645
20
-85.279310283100529
42
0.41421356237309509
10
316.86906748887645
20
-86.279310283100557
10
316.86906748887645
20
-86.279582792561541
10
319.36906748887645
20
-86.279582792561541
10
319.36906748887645
20
-88.279582792561527
10
335.04425471664462
20
-88.279582792561527
42
0.41421356237309509
10
337.04425471664467
20
-86.279582792561499
10
337.04425471664473
20
-14.279582792561536
42
0.41421356237307422
10
335.04425471664467
20
-12.279582792561508
10
166.13920647784045
20
-12.279582792561525
42
0.41421356237309409
10
164.13920647784045
20
-14.279582792561536
10
164.13920647784045
20
-47.104347705284361
42
-0.41421003017284985
0
CIRCLE
5
102
100
AcDbEntity
8
0
100
AcDbCircle
10
326.13920947782731
20
-77.279353705284507
30
0
40
1.5999999999999659
210
0
220
-0
230
1
0
LWPOLYLINE
5
103
100
AcDbEntity
8
0
100
AcDbPolyline
90
4
70
1
43
0.0
10
333.04425471664473
20
-76.279582792561541
10
330.54425471664473
20
-76.279582792561541
10
330.54425471664473
20
-61.279582792561541
10
333.04425471664473
20
-61.279582792561541
0
LWPOLYLINE
5
104
100
AcDbEntity
8
0
100
AcDbPolyline
90
4
70
1
43
0.0
10
164.1392547166447
20
-61.279582792561541
10
166.6392547166447
20
-61.279582792561541
10
166.6392547166447
20
-76.279582792561541
10
164.1392547166447
20
-76.279582792561541
0
LWPOLYLINE
5
105
100
AcDbEntity
8
0
100
AcDbPolyline
90
16
70
1
43
0.0
10
298.5446487166447
20
-65.67806579256154
42
0.41421356237312629
10
298.0446487166447
20
-65.17806579256154
10
244.74464871664469
20
-65.178065792561526
42
0.41421356237307422
10
244.24464871664466
20
-65.678065792561526
10
244.24464871664469
20
-71.278065792561534
10
234.2442540095447
20
-71.278065947301542
10
234.24425471664472
20
-65.178065792561512
10
235.74425471664469
20
-65.178065792561526
10
235.74425471664469
20
-57.280901792561529
42
-0.41421356237310542
10
236.74425471664472
20
-56.280901792561536
10
306.04425471664467
20
-56.280901792561565
42
-0.41421356237310542
10
307.04425471664473
20
-57.280901792561551
10
307.04425471664473
20
-65.17806579256154
10
308.54425471664467
20
-65.178065637831466
10
308.54425471664467
20
-71.278065792561534
10
298.54464795806473
20
-71.278065947301542
0
LWPOLYLINE
5
106
100
AcDbEntity
8
0
100
AcDbPolyline
90
4
70
1
43
0.0
10
246.89425416427471
20
-78.778065792561534
10
241.89425471664549
20
-78.778065792561534
10
241.89425385480467
20
-77.17806579256154
10
246.89425471664748
20
-77.17806579256154
0
LWPOLYLINE
5
107
100
AcDbEntity
8
0
100
AcDbPolyline
90
4
70
1
43
0.0
10
273.89425416427468
20
-78.778065792561534
10
268.89425471664549
20
-78.778065792561534
10
268.89425385480473
20
-77.17806579256154
10
273.89425471664748
20
-77.17806579256154
0
LWPOLYLINE
5
108
100
AcDbEntity
8
0
100
AcDbPolyline
90
4
70
1
43
0.0
10
281.8942547166447
20
-78.778065792561534
10
281.89425385480388
20
-77.17806579256154
10
287.8942547166447
20
-77.17806579256154
10
287.89425416427196
20
-78.778065792561534
0
LWPOLYLINE
5
109
100
AcDbEntity
8
0
100
AcDbPolyline
90
4
70
1
43
0.0
10
260.89425416427196
20
-78.778065792561534
10
254.89425471664472
20
-78.778065792561534
10
254.89425385480394
20
-77.17806579256154
10
260.8942547166447
20
-77.17806579256154
0
LWPOLYLINE
5
110
100
AcDbEntity
8
0
100
AcDbPolyline
90
4
70
1
43
0.0
10
295.89425385480473
20
-77.17806579256154
10
300.89425471664748
20
-77.17806579256154
10
300.89425416427468
20
-78.778065792561534
10
295.89425471664549
20
-78.778065792561534
0
LWPOLYLINE
5
111
100
AcDbEntity
8
0
100
AcDbPolyline
90
4
70
1
43
0.0
10
287.89425416427196
20
-23.781099792561537
10
287.8942547166447
20
-25.381099792561521
10
281.89425385480388
20
-25.381099792561521
10
281.8942547166447
20
-23.781099792561537
0
LWPOLYLINE
5
112
100
AcDbEntity
8
0
100
AcDbPolyline
90
4
70
1
43
0.0
10
295.89425471664549
20
-23.781099792561537
10
300.89425416427468
20
-23.781099792561537
10
300.89425471664748
20
-25.381099792561521
10
295.89425385480467
20
-25.381099792561521
0
LWPOLYLINE
5
113
100
AcDbEntity
8
0
100
AcDbPolyline
90
4
70
1
43
0.0
10
254.89425471664472
20
-23.781099792561537
10
260.89425416427196
20
-23.781099792561537
10
260.8942547166447
20
-25.381099792561521
10
254.89425385480394
20
-25.381099792561521
0
LWPOLYLINE
5
114
100
AcDbEntity
8
0
100
AcDbPolyline
90
4
70
1
43
0.0
10
268.89425471664549
20
-23.781099792561537
10
273.89425416427468
20
-23.781099792561537
10
273.89425471664748
20
-25.381099792561521
10
268.89425385480473
20
-25.381099792561521
0
LWPOLYLINE
5
115
100
AcDbEntity
8
0
100
AcDbPolyline
90
4
70
1
43
0.0
10
246.89425416427471
20
-23.781099792561537
10
246.89425471664748
20
-25.381099792561521
10
241.89425385480467
20
-25.381099792561521
10
241.89425471664549
20
-23.781099792561537
0
CIRCLE
5
116
100
AcDbEntity
8
0
100
AcDbCircle
10
312.98011371664461
20
-51.279582792561484
30
0
40
3.2499999999999929
210
0
220
0
230
1
0
CIRCLE
5
117
100
AcDbEntity
8
0
100
AcDbCircle
10
312.98011371664472
20
-69.278749792561541
30
0
40
1.6000000000000003
210
0
220
-0
230
1
0
CIRCLE
5
118
100
AcDbEntity
8
0
100
AcDbCircle
10
312.98011371664472
20
-33.280415792561548
30
0
40
1.6000000000000003
210
0
220
-0
230
1
0
LWPOLYLINE
5
119
100
AcDbEntity
8
0
100
AcDbPolyline
90
4
70
1
43
0.0
10
222.90876692454859
20
-25.380000792561304
10
193.90876692454862
20
-25.380000792561304
10
193.90876692454856
20
-23.780000792561303
10
222.90876692454859
20
-23.780000792561307
0
LWPOLYLINE
5
120
100
AcDbEntity
8
0
100
AcDbPolyline
90
4
70
1
43
0.0
10
190.47675471664473
20
-20.779582792561531
10
190.47675471664473
20
-18.279582792561527
10
220.47675471664473
20
-18.279582792561527
10
220.47675471664468
20
-20.779582792561531
0
CIRCLE
5
121
100
AcDbEntity
8
0
100
AcDbCircle
10
178.1392094778405
20
-25.279353705284429
30
0
40
1.6000000000000014
210
0
220
0
230
1
0
LWPOLYLINE
5
122
100
AcDbEntity
8
0
100
AcDbPolyline
90
4
70
1
43
0.0
10
330.54425471664473
20
-26.279582792561538
10
333.04425471664473
20
-26.279582792561538
10
333.04425471664473
20
-41.279582792561541
10
330.54425471664473
20
-41.279582792561541
0
LWPOLYLINE
5
123
100
AcDbEntity
8
0
100
AcDbPolyline
90
4
70
1
43
0.0
10
270.47675471664468
20
-20.779582792561531
10
270.47675471664468
20
-18.279582792561527
10
300.47675471664468
20
-18.279582792561527
10
300.47675471664468
20
-20.779582792561531
0
CIRCLE
5
124
100
AcDbEntity
8
0
100
AcDbCircle
10
230.8081137166447
20
-51.282729877338568
30
0
40
3.2499999999999929
210
0
220
0
230
1
0
LWPOLYLINE
5
125
100
AcDbEntity
8
0
100
AcDbPolyline
90
4
70
1
43
0.0
10
220.47675471664468
20
-81.779582792561541
10
220.47675471664468
20
-84.27958279256157
10
190.47675471664465
20
-84.27958279256157
10
190.47675471664468
20
-81.779582792561541
0
LWPOLYLINE
5
126
100
AcDbEntity
8
0
100
AcDbPolyline
90
4
70
1
43
0.0
10
193.9087669245485
20
-77.177000792561401
10
222.9087669245485
20
-77.177000792561401
10
222.9087669245485
20
-78.77700079256141
10
193.9087669245485
20
-78.77700079256141
0
CIRCLE
5
127
100
AcDbEntity
8
0
100
AcDbCircle
10
229.8081137166447
20
-33.280415792561527
30
0
40
1.6000000000000003
210
0
220
-0
230
1
0
CIRCLE
5
128
100
AcDbEntity
8
0
100
AcDbCircle
10
229.8081137166447
20
-69.278749792561527
30
0
40
1.6000000000000003
210
0
220
-0
230
1
0
LWPOLYLINE
5
129
100
AcDbEntity
8
0
100
AcDbPolyline
90
16
70
1
43
0.0
10
244.24464871664469
20
-36.881099792561542
42
0.41421356237307944
10
244.74464871664469
20
-37.381099792561521
10
298.0446487166447
20
-37.381099792561542
42
0.41421356237306645
10
298.5446487166447
20
-36.881099792561535
10
298.5446487166447
20
-31.281099637861566
10
308.54425471664467
20
-31.281099792561555
10
308.54425471664467
20
-37.381099947361619
10
307.04425471664473
20
-37.38109979256155
10
307.04425471664473
20
-45.278263792561546
42
-0.41421356237310542
10
306.04425471664467
20
-46.278263792561546
10
236.74425471664472
20
-46.278263792561503
42
-0.41421356237310542
10
235.74425471664469
20
-45.278263792561532
10
235.74425471664469
20
-37.381099792561528
10
234.24425471664472
20
-37.38109979256155
10
234.24425471664472
20
-31.281098642877375
10
244.24464871664469
20
-31.281098797623457
0
LWPOLYLINE
5
130
100
AcDbEntity
8
0
100
AcDbPolyline
90
4
70
1
43
0.0
10
270.47675471664468
20
-84.27958279256157
10
270.47675471664468
20
-81.77958279256157
10
300.47675471664468
20
-81.77958279256157
10
300.47675471664468
20
-84.27958279256157
0
CIRCLE
5
131
100
AcDbEntity
8
0
100
AcDbCircle
10
326.13920947783186
20
-25.279353705284692
30
0
40
1.5999999999999659
210
0
220
-0
230
1
0
LWPOLYLINE
5
132
100
AcDbEntity
8
0
100
AcDbPolyline
90
16
70
1
43
0.0
10
196.92820247784044
20
-53.604354705284351
42
0.41421356237307422
10
195.92820247784044
20
-52.604354705284337
10
188.02820647784051
20
-52.604354705284365
42
-0.41421356237309509
10
187.02820647784051
20
-51.604354705284351
10
187.02820647784051
20
-33.804354705284354
42
-0.41421356237309509
10
188.02820647784051
20
-32.804354705284354
10
195.92820247784039
20
-32.804354705284354
42
0.4142135623730977
10
196.92820247784041
20
-31.804354705284339
10
196.92820247784039
20
-28.804347705284414
42
-0.4142135623730977
10
197.92820247784039
20
-27.804347705284403
10
225.42819989744055
20
-27.804347705284393
42
-0.41421356237308465
10
226.42819989744052
20
-28.804347705284407
10
226.42819989744049
20
-56.604347705284397
42
-0.41421356237309509
10
225.42819989744049
20
-57.604347705284397
10
197.92820247784044
20
-57.604347705284418
42
-0.41421356237308465
10
196.92820247784044
20
-56.604347705284404
0
CIRCLE
5
133
100
AcDbEntity
8
0
100
AcDbCircle
10
174.02820647784046
20
-52.604347705284354
30
0
40
1.6000000000000014
210
0
220
0
230
1
0
CIRCLE
5
134
100
AcDbEntity
8
0
100
AcDbCircle
10
171.13920947783154
20
-25.279353705284073
30
0
40
1.6000000000000014
210
0
220
0
230
1
0
ENDSEC
0
SECTION
2
OBJECTS
0
DICTIONARY
5
C
100
AcDbDictionary
3
ACAD_GROUP
350
D
3
ACAD_MLINESTYLE
350
17
0
DICTIONARY
5
D
100
AcDbDictionary
0
DICTIONARY
5
1A
330
C
100
AcDbDictionary
0
DICTIONARY
5
17
100
AcDbDictionary
0
ENDSEC
0
EOF
