0
SECTION
2
HEADER
9
$INSUNITS
70
4
9
$ACADVER
1
AC1014
9
$HANDSEED
5
FFFF
0
ENDSEC
0
SECTION
2
TABLES
0
TABLE
2
VPORT
5
8
100
AcDbSymbolTable
0
ENDTAB
0
TABLE
2
LTYPE
5
5
100
AcDbSymbolTable
0
LTYPE
5
14
100
AcDbSymbolTableRecord
100
AcDbLinetypeTableRecord
2
BYBLOCK
70
0
0
LTYPE
5
15
100
AcDbSymbolTableRecord
100
AcDbLinetypeTableRecord
2
BYLAYER
70
0
0
ENDTAB
0
TABLE
2
LAYER
5
2
100
AcDbSymbolTable
70
2
0
LAYER
5
50
100
AcDbSymbolTableRecord
100
AcDbLayerTableRecord
2
0
70
0
6
CONTINUOUS
0
ENDTAB
0
TABLE
2
STYLE
5
3
100
AcDbSymbolTable
70
1
0
STYLE
5
11
100
AcDbSymbolTableRecord
100
AcDbTextStyleTableRecord
2
STANDARD
70
0
0
ENDTAB
0
TABLE
2
VIEW
5
6
100
AcDbSymbolTable
70
0
0
ENDTAB
0
TABLE
2
UCS
5
7
100
AcDbSymbolTable
70
0
0
ENDTAB
0
TABLE
2
APPID
5
9
100
AcDbSymbolTable
70
2
0
APPID
5
12
100
AcDbSymbolTableRecord
100
AcDbRegAppTableRecord
2
ACAD
70
0
0
ENDTAB
0
TABLE
2
DIMSTYLE
5
A
100
AcDbSymbolTable
70
1
0
ENDTAB
0
TABLE
2
BLOCK_RECORD
5
1
100
AcDbSymbolTable
70
1
0
BLOCK_RECORD
5
1F
100
AcDbSymbolTableRecord
100
AcDbBlockTableRecord
2
*MODEL_SPACE
0
BLOCK_RECORD
5
1B
100
AcDbSymbolTableRecord
100
AcDbBlockTableRecord
2
*PAPER_SPACE
0
ENDTAB
0
ENDSEC
0
SECTION
2
BLOCKS
0
BLOCK
5
20
100
AcDbEntity
100
AcDbBlockBegin
2
*MODEL_SPACE
0
ENDBLK
5
21
100
AcDbEntity
100
AcDbBlockEnd
0
BLOCK
5
1C
100
AcDbEntity
100
AcDbBlockBegin
2
*PAPER_SPACE
0
ENDBLK
5
1D
100
AcDbEntity
100
AcDbBlockEnd
0
ENDSEC
0
SECTION
2
ENTITIES
0
CIRCLE
5
100
100
AcDbEntity
8
0
100
AcDbCircle
10
230.80811371664475
20
48.717270122661446
30
0
40
1.6000000000000014
210
-0
220
0
230
1
0
LWPOLYLINE
5
101
100
AcDbEntity
8
0
100
AcDbPolyline
90
4
70
1
43
0.0
10
304.3690674888764
20
73.220417207438473
10
304.3690674888764
20
70.720417207438473
10
284.3690674888764
20
70.720417207438473
10
284.3690674888764
20
73.220417207438473
0
LWPOLYLINE
5
102
100
AcDbEntity
8
0
100
AcDbPolyline
90
4
70
1
43
0.0
10
259.3690674888764
20
73.220417207438473
10
259.3690674888764
20
70.720417207438473
10
239.3690674888764
20
70.720417207438473
10
239.3690674888764
20
73.220417207438473
0
LWPOLYLINE
5
103
100
AcDbEntity
8
0
100
AcDbPolyline
90
4
70
1
43
0.0
10
239.36906748887645
20
26.720584207438449
10
259.36906748887645
20
26.720584207438449
10
259.36906748887645
20
24.220584207438449
10
239.36906748887645
20
24.220584207438449
0
LWPOLYLINE
5
104
100
AcDbEntity
8
0
100
AcDbPolyline
90
4
70
1
43
0.0
10
319.36906748887645
20
44.720417207438516
10
319.36906748887645
20
34.720417207438516
10
316.86906748887645
20
34.720417207438516
10
316.86906748887645
20
44.720417207438516
0
LWPOLYLINE
5
105
100
AcDbEntity
8
0
100
AcDbPolyline
90
4
70
1
43
0.0
10
304.36906748887645
20
26.720584207438449
10
304.36906748887645
20
24.220584207438449
10
284.36906748887645
20
24.220584207438449
10
284.36906748887645
20
26.720584207438449
0
LWPOLYLINE
5
106
100
AcDbEntity
8
0
100
AcDbPolyline
90
4
70
1
43
0.0
10
224.36906748887645
20
52.717270122661432
10
224.36906748887645
20
62.717270122661439
10
226.86906748887645
20
62.717270122661439
10
226.86906748887645
20
52.717270122661439
0
LWPOLYLINE
5
107
100
AcDbEntity
8
0
100
AcDbPolyline
90
4
70
1
43
0.0
10
316.86906748887645
20
52.720417207438516
10
316.86906748887645
20
62.720417207438516
10
319.36906748887645
20
62.720417207438516
10
319.36906748887645
20
52.720417207438516
0
LWPOLYLINE
5
108
100
AcDbEntity
8
0
100
AcDbPolyline
90
4
70
1
43
0.0
10
226.86906748887645
20
44.717270122661432
10
226.86906748887645
20
34.717270122661432
10
224.36906748887645
20
34.717270122661425
10
224.36906748887645
20
44.717270122661439
0
CIRCLE
5
109
100
AcDbEntity
8
0
100
AcDbCircle
10
312.98011371664461
20
48.72041720743853
30
0
40
1.6000000000000014
210
-0
220
0
230
1
0
LWPOLYLINE
5
110
100
AcDbEntity
8
0
100
AcDbPolyline
90
14
70
1
43
0.0
10
291.76804283129275
20
77.720418345838468
42
0.41421356237309709
10
289.2680428312928
20
80.220418345838453
10
254.3690633457264
20
80.220418345838468
42
0.36597738186304013
10
250.91801680558495
20
77.30375167917181
42
-0.36597738186304385
10
248.4529835626268
20
75.220418345838468
10
224.3690674888764
20
75.220418345838468
42
0.4142135623730937
10
222.3690674888764
20
73.220418345838468
10
222.36906748887645
20
24.220584207438478
42
0.41421356237309637
10
224.36906748887645
20
22.220584207438474
10
319.36905920257641
20
22.220584207438474
42
0.4142135623731002
10
321.36905920257647
20
24.220584207438478
10
321.36905920257641
20
73.220418345838482
42
0.41421356237309637
10
319.36905920257641
20
75.220418345838453
10
294.2680428312928
20
75.220418345838482
42
-0.41421356237309814
0
ENDSEC
0
SECTION
2
OBJECTS
0
DICTIONARY
5
C
100
AcDbDictionary
3
ACAD_GROUP
350
D
3
ACAD_MLINESTYLE
350
17
0
DICTIONARY
5
D
100
AcDbDictionary
0
DICTIONARY
5
1A
330
C
100
AcDbDictionary
0
DICTIONARY
5
17
100
AcDbDictionary
0
ENDSEC
0
EOF
