0
SECTION
2
HEADER
9
$INSUNITS
70
4
9
$ACADVER
1
AC1014
9
$HANDSEED
5
FFFF
0
ENDSEC
0
SECTION
2
TABLES
0
TABLE
2
VPORT
5
8
100
AcDbSymbolTable
0
ENDTAB
0
TABLE
2
LTYPE
5
5
100
AcDbSymbolTable
0
LTYPE
5
14
100
AcDbSymbolTableRecord
100
AcDbLinetypeTableRecord
2
BYBLOCK
70
0
0
LTYPE
5
15
100
AcDbSymbolTableRecord
100
AcDbLinetypeTableRecord
2
BYLAYER
70
0
0
ENDTAB
0
TABLE
2
LAYER
5
2
100
AcDbSymbolTable
70
2
0
LAYER
5
50
100
AcDbSymbolTableRecord
100
AcDbLayerTableRecord
2
0
70
0
6
CONTINUOUS
0
ENDTAB
0
TABLE
2
STYLE
5
3
100
AcDbSymbolTable
70
1
0
STYLE
5
11
100
AcDbSymbolTableRecord
100
AcDbTextStyleTableRecord
2
STANDARD
70
0
0
ENDTAB
0
TABLE
2
VIEW
5
6
100
AcDbSymbolTable
70
0
0
ENDTAB
0
TABLE
2
UCS
5
7
100
AcDbSymbolTable
70
0
0
ENDTAB
0
TABLE
2
APPID
5
9
100
AcDbSymbolTable
70
2
0
APPID
5
12
100
AcDbSymbolTableRecord
100
AcDbRegAppTableRecord
2
ACAD
70
0
0
ENDTAB
0
TABLE
2
DIMSTYLE
5
A
100
AcDbSymbolTable
70
1
0
ENDTAB
0
TABLE
2
BLOCK_RECORD
5
1
100
AcDbSymbolTable
70
1
0
BLOCK_RECORD
5
1F
100
AcDbSymbolTableRecord
100
AcDbBlockTableRecord
2
*MODEL_SPACE
0
BLOCK_RECORD
5
1B
100
AcDbSymbolTableRecord
100
AcDbBlockTableRecord
2
*PAPER_SPACE
0
ENDTAB
0
ENDSEC
0
SECTION
2
BLOCKS
0
BLOCK
5
20
100
AcDbEntity
100
AcDbBlockBegin
2
*MODEL_SPACE
0
ENDBLK
5
21
100
AcDbEntity
100
AcDbBlockEnd
0
BLOCK
5
1C
100
AcDbEntity
100
AcDbBlockBegin
2
*PAPER_SPACE
0
ENDBLK
5
1D
100
AcDbEntity
100
AcDbBlockEnd
0
ENDSEC
0
SECTION
2
ENTITIES
0
CIRCLE
5
100
100
AcDbEntity
8
0
100
AcDbCircle
10
96.933627067520135
20
37.781835725720633
30
0
40
1.6000000000000014
210
0
220
-0
230
1
0
CIRCLE
5
101
100
AcDbEntity
8
0
100
AcDbCircle
10
96.933627067520064
20
20.781835725720647
30
0
40
1.6000000000000014
210
0
220
-0
230
1
0
CIRCLE
5
102
100
AcDbEntity
8
0
100
AcDbCircle
10
103.29413007025531
20
-3.4430328938358108
30
0
40
1.587499999999995
210
-1.2325951644078309e-32
220
-5.5593505969917669e-48
230
1
0
CIRCLE
5
103
100
AcDbEntity
8
0
100
AcDbCircle
10
151.55413007025533
20
-2.1730328938374113
30
0
40
1.5875000000000126
210
-6.162975822039167e-33
220
4.9303806576313249e-32
230
1
0
CIRCLE
5
104
100
AcDbEntity
8
0
100
AcDbCircle
10
58.499998689813836
20
109.12647010890112
30
0
40
1.6000000000000014
210
-0
220
0
230
1
0
CIRCLE
5
105
100
AcDbEntity
8
0
100
AcDbCircle
10
151.49999868981376
20
109.12647010890133
30
0
40
1.6000000000000014
210
-0
220
0
230
1
0
CIRCLE
5
106
100
AcDbEntity
8
0
100
AcDbCircle
10
134.99951224997932
20
98.587516026190386
30
0
40
1.6000000000000014
210
-0
220
0
230
1
0
LWPOLYLINE
5
107
100
AcDbEntity
8
0
100
AcDbPolyline
90
9
70
1
43
0.0
10
69.999633603733628
20
73.588487044519752
42
-0.41421356237309404
10
64.999633603733614
20
78.588487044519752
10
64.999390875094903
20
78.588487044519752
10
64.999390875094917
20
88.587443200368142
42
-0.41421782841742588
10
69.999390874564554
20
93.587516026190357
10
139.99939089518963
20
93.587516026190386
42
-0.41420929634163334
10
144.99939089465931
20
88.587588852012601
10
144.99939089465931
20
78.637754052512989
42
-0.41710255727208245
10
139.99963362435875
20
73.588487044519752
0
CIRCLE
5
108
100
AcDbEntity
8
0
100
AcDbCircle
10
74.999512249979347
20
68.588487044519752
30
0
40
1.6000000000000014
210
-0
220
0
230
1
0
CIRCLE
5
109
100
AcDbEntity
8
0
100
AcDbCircle
10
74.999512249979347
20
98.587516026190357
30
0
40
1.6000000000000014
210
-0
220
0
230
1
0
CIRCLE
5
110
100
AcDbEntity
8
0
100
AcDbCircle
10
134.99951224997932
20
68.588487044519752
30
0
40
1.6000000000000014
210
-0
220
0
230
1
0
LWPOLYLINE
5
111
100
AcDbEntity
8
0
100
AcDbPolyline
90
4
70
1
43
0.0
10
130.09999868981365
20
119.72647010890148
10
79.899998689813657
20
119.72647010890144
10
79.899998689813671
20
114.02647010890148
10
130.09999868981365
20
114.02647010890148
0
LWPOLYLINE
5
112
100
AcDbEntity
8
0
100
AcDbPolyline
90
4
70
1
43
0.0
10
162.19999868981398
20
62.126470108901366
10
162.1999986898139
20
92.326470108901347
10
156.49999868981385
20
92.326470108901361
10
156.49999868981399
20
62.126470108901366
0
LWPOLYLINE
5
113
100
AcDbEntity
8
0
100
AcDbPolyline
90
4
70
1
43
0.0
10
53.599998689813965
20
62.126470108901316
10
53.599998689813894
20
92.326470108901319
10
47.89999868981387
20
92.326470108901333
10
47.899998689813955
20
62.126470108901316
0
CIRCLE
5
114
100
AcDbEntity
8
0
100
AcDbCircle
10
84.999512249461503
20
68.58800153535509
30
0
40
0.99999999999999645
210
1.8180778675015506e-30
220
8.2000421305628422e-46
230
1
0
CIRCLE
5
115
100
AcDbEntity
8
0
100
AcDbCircle
10
58.499998689813836
20
68.587980205424429
30
0
40
4.0000000000000036
210
-0
220
0
230
1
0
CIRCLE
5
116
100
AcDbEntity
8
0
100
AcDbCircle
10
151.49902581014504
20
98.587980205424387
30
0
40
3.9999999999999858
210
-0
220
0
230
1
0
CIRCLE
5
117
100
AcDbEntity
8
0
100
AcDbCircle
10
58.499998689813822
20
98.587980205424387
30
0
40
4.0000000000000036
210
-0
220
0
230
1
0
CIRCLE
5
118
100
AcDbEntity
8
0
100
AcDbCircle
10
151.49902581014504
20
68.587980205424429
30
0
40
4.0000000000000036
210
-0
220
0
230
1
0
LWPOLYLINE
5
119
100
AcDbEntity
8
0
100
AcDbPolyline
90
4
70
1
43
0.0
10
156.49999868981388
20
24.326470108901354
10
156.49999868981416
20
-5.8735298910986389
10
162.19999868981421
20
-5.8735298910986256
10
162.1999986898139
20
24.326470108901368
0
LWPOLYLINE
5
120
100
AcDbEntity
8
0
100
AcDbPolyline
90
4
70
1
43
0.0
10
47.899998689813941
20
24.326470108901319
10
47.899998689814225
20
-5.8735298910986833
10
53.599998689814228
20
-5.87352989109867
10
53.599998689813944
20
24.326470108901326
0
CIRCLE
5
121
100
AcDbEntity
8
0
100
AcDbCircle
10
151.49999868981371
20
-22.873529891090012
30
0
40
1.6000000000000014
210
-0
220
0
230
1
0
CIRCLE
5
122
100
AcDbEntity
8
0
100
AcDbCircle
10
58.49999868981385
20
-22.873529891090108
30
0
40
1.6000000000000014
210
-0
220
0
230
1
0
LWPOLYLINE
5
123
100
AcDbEntity
8
0
100
AcDbPolyline
90
4
70
1
43
0.0
10
79.899998689813913
20
-33.473529891098551
10
130.0999986898139
20
-33.473529891098543
10
130.09999868981396
20
-27.773529891098569
10
79.899998689813941
20
-27.773529891098569
0
LWPOLYLINE
5
124
100
AcDbEntity
8
0
100
AcDbPolyline
90
8
70
1
43
0.0
10
47.999998689813978
20
-39.373529891098741
42
-0.41421356237309587
10
41.999998689813935
20
-33.373529891098684
10
41.99999868981368
20
119.62647010890126
42
-0.41421356237310236
10
47.999998689813665
20
125.6264701089013
10
161.99999868981376
20
125.62647010890154
42
-0.4142135623730907
10
167.99999868981374
20
119.62647010890151
10
167.99999868981402
20
-33.373529891098492
42
-0.4142135623730937
10
161.99999868981399
20
-39.373529891098499
0
ENDSEC
0
SECTION
2
OBJECTS
0
DICTIONARY
5
C
100
AcDbDictionary
3
ACAD_GROUP
350
D
3
ACAD_MLINESTYLE
350
17
0
DICTIONARY
5
D
100
AcDbDictionary
0
DICTIONARY
5
1A
330
C
100
AcDbDictionary
0
DICTIONARY
5
17
100
AcDbDictionary
0
ENDSEC
0
EOF
