0
SECTION
2
HEADER
9
$INSUNITS
70
4
9
$ACADVER
1
AC1014
9
$HANDSEED
5
FFFF
0
ENDSEC
0
SECTION
2
TABLES
0
TABLE
2
VPORT
5
8
100
AcDbSymbolTable
0
ENDTAB
0
TABLE
2
LTYPE
5
5
100
AcDbSymbolTable
0
LTYPE
5
14
100
AcDbSymbolTableRecord
100
AcDbLinetypeTableRecord
2
BYBLOCK
70
0
0
LTYPE
5
15
100
AcDbSymbolTableRecord
100
AcDbLinetypeTableRecord
2
BYLAYER
70
0
0
ENDTAB
0
TABLE
2
LAYER
5
2
100
AcDbSymbolTable
70
2
0
LAYER
5
50
100
AcDbSymbolTableRecord
100
AcDbLayerTableRecord
2
0
70
0
6
CONTINUOUS
0
ENDTAB
0
TABLE
2
STYLE
5
3
100
AcDbSymbolTable
70
1
0
STYLE
5
11
100
AcDbSymbolTableRecord
100
AcDbTextStyleTableRecord
2
STANDARD
70
0
0
ENDTAB
0
TABLE
2
VIEW
5
6
100
AcDbSymbolTable
70
0
0
ENDTAB
0
TABLE
2
UCS
5
7
100
AcDbSymbolTable
70
0
0
ENDTAB
0
TABLE
2
APPID
5
9
100
AcDbSymbolTable
70
2
0
APPID
5
12
100
AcDbSymbolTableRecord
100
AcDbRegAppTableRecord
2
ACAD
70
0
0
ENDTAB
0
TABLE
2
DIMSTYLE
5
A
100
AcDbSymbolTable
70
1
0
ENDTAB
0
TABLE
2
BLOCK_RECORD
5
1
100
AcDbSymbolTable
70
1
0
BLOCK_RECORD
5
1F
100
AcDbSymbolTableRecord
100
AcDbBlockTableRecord
2
*MODEL_SPACE
0
BLOCK_RECORD
5
1B
100
AcDbSymbolTableRecord
100
AcDbBlockTableRecord
2
*PAPER_SPACE
0
ENDTAB
0
ENDSEC
0
SECTION
2
BLOCKS
0
BLOCK
5
20
100
AcDbEntity
100
AcDbBlockBegin
2
*MODEL_SPACE
0
ENDBLK
5
21
100
AcDbEntity
100
AcDbBlockEnd
0
BLOCK
5
1C
100
AcDbEntity
100
AcDbBlockBegin
2
*PAPER_SPACE
0
ENDBLK
5
1D
100
AcDbEntity
100
AcDbBlockEnd
0
ENDSEC
0
SECTION
2
ENTITIES
0
CIRCLE
5
100
100
AcDbEntity
8
0
100
AcDbCircle
10
-58.499998689813822
20
98.587980205424387
30
0
40
1.6000000000000036
210
0
220
0
230
1
0
CIRCLE
5
101
100
AcDbEntity
8
0
100
AcDbCircle
10
-58.499998689813836
20
68.587980205424429
30
0
40
1.6000000000000036
210
0
220
0
230
1
0
CIRCLE
5
102
100
AcDbEntity
8
0
100
AcDbCircle
10
-151.49902581014504
20
68.587980205424429
30
0
40
1.6000000000000036
210
0
220
0
230
1
0
ARC
5
103
100
AcDbEntity
8
0
100
AcDbCircle
10
-142.49951224997943
20
98.269943057225674
30
0
40
1.9999999999999607
210
0
220
0
230
1
100
AcDbArc
50
-75.521769698043741
51
0
0
LINE
5
104
100
AcDbEntity
8
0
100
AcDbLine
10
-140.49951224997949
20
98.269943057225717
30
0
11
-140.49951224997946
21
106.08798020542436
31
0
0
ARC
5
105
100
AcDbEntity
8
0
100
AcDbCircle
10
-134.9995122499794
20
106.08798020542443
30
0
40
5.5000000000000036
210
1.4791141972893812e-32
220
-1.9721522630525422e-32
230
1
100
AcDbArc
50
36.869897645843601
51
180
0
ARC
5
106
100
AcDbEntity
8
0
100
AcDbCircle
10
-128.99951224997938
20
110.5879802054244
30
-1.5189856400395966e-45
40
2.0000000000000213
210
2.3665827156630808e-32
220
-3.1554436208839953e-32
230
1
100
AcDbArc
50
216.86989764584402
51
270
0
LINE
5
107
100
AcDbEntity
8
0
100
AcDbLine
10
-128.99951224997938
20
108.58798020542437
30
-9.8607613152627111e-32
11
-80.999512249979432
21
108.58798020542439
31
0
0
ARC
5
108
100
AcDbEntity
8
0
100
AcDbCircle
10
-80.999512249979489
20
110.58798020542447
30
5.6380367900568812e-45
40
2.0000000000000817
210
-2.9582283945788122e-32
220
-3.6072487812110077e-45
230
1
100
AcDbArc
50
270.00000000000159
51
323.13010235415447
0
ARC
5
109
100
AcDbEntity
8
0
100
AcDbCircle
10
-74.999512249979418
20
106.08798020542436
30
0
40
5.500000000000016
210
9.0569623364193363e-48
220
-4.9303806576313249e-32
230
1
100
AcDbArc
50
0
51
143.13010235415607
0
LINE
5
110
100
AcDbEntity
8
0
100
AcDbLine
10
-69.499512249979404
20
106.08798020542436
30
-4.9813292850306483e-47
11
-69.499512249979418
21
98.270005729894791
31
0
0
ARC
5
111
100
AcDbEntity
8
0
100
AcDbCircle
10
-67.499512249979432
20
98.270005729894791
30
-1.5326701953552687e-45
40
1.999999999999984
210
7.663350976776404e-46
220
-4.6968025376790838e-32
230
1
100
AcDbArc
50
180
51
255.52320604982143
0
ARC
5
112
100
AcDbEntity
8
0
100
AcDbCircle
10
-69.999390874564511
20
88.587516026190386
30
0
40
7.999999999999976
210
3.2777466424302275e-37
220
4.9303806575223701e-32
230
1
100
AcDbArc
50
-0.00038090554114432413
51
75.523206049821141
0
ARC
5
113
100
AcDbEntity
8
0
100
AcDbCircle
10
-69.99939087647968
20
88.587516026258925
30
9.1291515925815806e-42
40
8.0000000008796199
210
6.1629758223664852e-33
220
-4.0971884970774467e-38
230
1
100
AcDbArc
50
359.55367090950705
51
359.99961909445881
0
LINE
5
114
100
AcDbEntity
8
0
100
AcDbLine
10
-61.999633605299493
20
88.525197359121989
30
-4.9302313191268052e-32
11
-61.999633604945956
21
78.588540228422644
31
0
0
ARC
5
115
100
AcDbEntity
8
0
100
AcDbCircle
10
-69.999633604769301
20
78.588487044584696
30
0
40
8.0000000000001315
210
0
220
0
230
1
100
AcDbArc
50
-22.024312834691649
51
0.00038089980006155452
0
ARC
5
116
100
AcDbEntity
8
0
100
AcDbCircle
10
-69.999633603733599
20
78.588487044519766
30
0
40
8.0000000000000036
210
-0
220
0
230
1
100
AcDbArc
50
284.47823029582833
51
337.97568716295785
0
ARC
5
117
100
AcDbEntity
8
0
100
AcDbCircle
10
-67.499512249979418
20
68.906060013217015
30
0
40
1.9999999999999951
210
0
220
0
230
1
100
AcDbArc
50
104.47823029582854
51
180
0
LINE
5
118
100
AcDbEntity
8
0
100
AcDbLine
10
-69.499512249979432
20
68.906060013217015
30
0
11
-69.499512249979432
21
61.087980205424401
31
0
0
ARC
5
119
100
AcDbEntity
8
0
100
AcDbCircle
10
-74.999512249979446
20
61.087980205424401
30
0
40
5.5000000000000115
210
-4.9303806576313501e-33
220
-3.4512664603419253e-32
230
1
100
AcDbArc
50
-143.13010235415598
51
0
0
ARC
5
120
100
AcDbEntity
8
0
100
AcDbCircle
10
-80.999512249979446
20
56.587980205424429
30
3.1474477226045696e-45
40
1.9999999999999731
210
7.7900014390576977e-32
220
9.1212042166187015e-33
230
1
100
AcDbArc
50
36.869897645843359
51
90
0
LINE
5
121
100
AcDbEntity
8
0
100
AcDbLine
10
-80.999512249979446
20
58.587980205424408
30
9.8607613152626826e-32
11
-128.99951224997938
21
58.587980205424408
31
0
0
ARC
5
122
100
AcDbEntity
8
0
100
AcDbCircle
10
-128.99951224997938
20
56.587980205424429
30
0
40
1.9999999999999751
210
0
220
-0
230
1
100
AcDbArc
50
90
51
143.13010235415666
0
ARC
5
123
100
AcDbEntity
8
0
100
AcDbCircle
10
-134.9995122499794
20
61.087980205424401
30
0
40
5.5000000000000426
210
0
220
0
230
1
100
AcDbArc
50
180
51
323.13010235415618
0
LINE
5
124
100
AcDbEntity
8
0
100
AcDbLine
10
-140.49951224997946
20
61.087980205424401
30
0
11
-140.49951224997946
21
68.905997341082696
31
0
0
ARC
5
125
100
AcDbEntity
8
0
100
AcDbCircle
10
-142.49951224997946
20
68.90599734108271
30
1.6891872967782676e-47
40
1.9999999999999929
210
5.0249637504141864e-48
220
-7.7033457638662051e-34
230
1
100
AcDbArc
50
0
51
75.523206043692497
0
ARC
5
126
100
AcDbEntity
8
0
100
AcDbCircle
10
-139.99963362435875
20
78.588487044519766
30
0
40
8.0000000000000089
210
6.1627888298805396e-33
220
-4.8008554850455621e-35
230
1
100
AcDbArc
50
179.55367090948414
51
255.52320604369311
0
LINE
5
127
100
AcDbEntity
8
0
100
AcDbLine
10
-147.99939089465931
20
78.650805711652964
30
4.9303806576313282e-32
11
-147.99939089501288
21
88.58746284235238
31
0
0
ARC
5
128
100
AcDbEntity
8
0
100
AcDbCircle
10
-139.99939089518961
20
88.587516026190315
30
0
40
8.0000000000000586
210
2.386902547637166e-32
220
6.163274984693407e-33
230
1
100
AcDbArc
50
104.47823030195686
51
180.00038089980006
0
CIRCLE
5
129
100
AcDbEntity
8
0
100
AcDbCircle
10
-58.499998689813808
20
109.12647010890113
30
0
40
4.5000000000000018
210
-6.1629758220391547e-33
220
1.389837649247942e-48
230
1
0
CIRCLE
5
130
100
AcDbEntity
8
0
100
AcDbCircle
10
-151.49999868981376
20
109.12647010890134
30
0
40
4.5000000000000107
210
0
220
0
230
1
0
CIRCLE
5
131
100
AcDbEntity
8
0
100
AcDbCircle
10
-151.49902581014504
20
98.587980205424387
30
0
40
1.5999999999999859
210
0
220
0
230
1
0
LWPOLYLINE
5
132
100
AcDbEntity
8
0
100
AcDbPolyline
90
4
70
1
43
0.0
10
-53.504512249979427
20
101.18847010890133
10
-53.504512249979399
20
65.987980205424307
10
-47.804512249979396
20
65.987980205424307
10
-47.804512249979425
20
101.18847010890134
0
LWPOLYLINE
5
133
100
AcDbEntity
8
0
100
AcDbPolyline
90
4
70
1
43
0.0
10
-162.1999986898139
20
65.987980205424577
10
-156.49999868981385
20
65.987980205424577
10
-156.49999868981385
20
101.18798020542455
10
-162.1999986898139
20
101.18798020542457
0
LWPOLYLINE
5
134
100
AcDbEntity
8
0
100
AcDbPolyline
90
4
70
1
43
0.0
10
-122.59975546989648
20
119.82647010890147
10
-122.59975546989651
20
114.25722515716289
10
-87.399755469896462
20
114.25722515716289
10
-87.399755469896419
20
119.82647010890145
0
LWPOLYLINE
5
135
100
AcDbEntity
8
0
100
AcDbPolyline
90
4
70
1
43
0.0
10
-122.17452749208161
20
54.687980205424452
10
-122.17452749208164
20
48.987980205424428
10
-86.974527492081648
20
48.987980205424435
10
-86.974527492081606
20
54.687980205424452
0
LWPOLYLINE
5
136
100
AcDbEntity
8
0
100
AcDbPolyline
90
16
70
1
43
0.0
10
-161.99999868981388
20
49.087980205424337
42
-0.41421356237309165
10
-167.99999868981388
20
55.087980205424351
10
-167.99999868981371
20
119.6264701089015
42
-0.41421356237309165
10
-161.99999868981371
20
125.62647010890154
10
-47.99999868981363
20
125.62647010890129
42
-0.4142135623731002
10
-41.999998689813651
20
119.62647010890126
10
-41.999998689813793
20
55.087980205424429
42
-0.4142135623730942
10
-47.999998689813779
20
49.087980205424444
10
-67.51423087574085
20
49.087980205424422
42
0.19891236737965762
10
-71.756871562860141
20
47.330620892543713
10
-73.242152937098723
20
45.845339518305117
42
-0.19891236737965834
10
-77.484793624218
20
44.087980205424401
10
-132.51423087574082
20
44.08798020542438
42
-0.19891236737965695
10
-136.75687156286011
20
45.845339518305096
10
-138.24215293709867
20
47.330620892543664
42
0.19891236737965987
10
-142.48479362421801
20
49.087980205424358
0
ENDSEC
0
SECTION
2
OBJECTS
0
DICTIONARY
5
C
100
AcDbDictionary
3
ACAD_GROUP
350
D
3
ACAD_MLINESTYLE
350
17
0
DICTIONARY
5
D
100
AcDbDictionary
0
DICTIONARY
5
1A
330
C
100
AcDbDictionary
0
DICTIONARY
5
17
100
AcDbDictionary
0
ENDSEC
0
EOF
