0
SECTION
2
HEADER
9
$INSUNITS
70
4
9
$ACADVER
1
AC1014
9
$HANDSEED
5
FFFF
0
ENDSEC
0
SECTION
2
TABLES
0
TABLE
2
VPORT
5
8
100
AcDbSymbolTable
0
ENDTAB
0
TABLE
2
LTYPE
5
5
100
AcDbSymbolTable
0
LTYPE
5
14
100
AcDbSymbolTableRecord
100
AcDbLinetypeTableRecord
2
BYBLOCK
70
0
0
LTYPE
5
15
100
AcDbSymbolTableRecord
100
AcDbLinetypeTableRecord
2
BYLAYER
70
0
0
ENDTAB
0
TABLE
2
LAYER
5
2
100
AcDbSymbolTable
70
2
0
LAYER
5
50
100
AcDbSymbolTableRecord
100
AcDbLayerTableRecord
2
0
70
0
6
CONTINUOUS
0
ENDTAB
0
TABLE
2
STYLE
5
3
100
AcDbSymbolTable
70
1
0
STYLE
5
11
100
AcDbSymbolTableRecord
100
AcDbTextStyleTableRecord
2
STANDARD
70
0
0
ENDTAB
0
TABLE
2
VIEW
5
6
100
AcDbSymbolTable
70
0
0
ENDTAB
0
TABLE
2
UCS
5
7
100
AcDbSymbolTable
70
0
0
ENDTAB
0
TABLE
2
APPID
5
9
100
AcDbSymbolTable
70
2
0
APPID
5
12
100
AcDbSymbolTableRecord
100
AcDbRegAppTableRecord
2
ACAD
70
0
0
ENDTAB
0
TABLE
2
DIMSTYLE
5
A
100
AcDbSymbolTable
70
1
0
ENDTAB
0
TABLE
2
BLOCK_RECORD
5
1
100
AcDbSymbolTable
70
1
0
BLOCK_RECORD
5
1F
100
AcDbSymbolTableRecord
100
AcDbBlockTableRecord
2
*MODEL_SPACE
0
BLOCK_RECORD
5
1B
100
AcDbSymbolTableRecord
100
AcDbBlockTableRecord
2
*PAPER_SPACE
0
ENDTAB
0
ENDSEC
0
SECTION
2
BLOCKS
0
BLOCK
5
20
100
AcDbEntity
100
AcDbBlockBegin
2
*MODEL_SPACE
0
ENDBLK
5
21
100
AcDbEntity
100
AcDbBlockEnd
0
BLOCK
5
1C
100
AcDbEntity
100
AcDbBlockBegin
2
*PAPER_SPACE
0
ENDBLK
5
1D
100
AcDbEntity
100
AcDbBlockEnd
0
ENDSEC
0
SECTION
2
ENTITIES
0
LWPOLYLINE
5
100
100
AcDbEntity
8
0
100
AcDbPolyline
90
16
70
1
43
0.0
10
167.99999868981388
20
55.087980205424351
42
-0.41421356237309165
10
161.99999868981388
20
49.087980205424344
10
142.48479362421796
20
49.08798020542438
42
0.19891236737965801
10
138.24215293709867
20
47.330620892543671
10
136.75687156286011
20
45.845339518305124
42
-0.19891236737965617
10
132.51423087574085
20
44.087980205424401
10
77.484793624217986
20
44.087980205424408
42
-0.1989123673796587
10
73.242152937098709
20
45.845339518305117
10
71.756871562860113
20
47.330620892543713
42
0.19891236737965762
10
67.514230875740836
20
49.087980205424422
10
47.999998689813765
20
49.087980205424429
42
-0.4142135623730942
10
41.999998689813779
20
55.087980205424437
10
41.999998689813637
20
119.62647010890126
42
-0.41421356237310281
10
47.99999868981363
20
125.62647010890132
10
161.99999868981371
20
125.6264701089016
42
-0.41421356237309165
10
167.99999868981374
20
119.62647010890151
0
CIRCLE
5
101
100
AcDbEntity
8
0
100
AcDbCircle
10
151.49902581014504
20
98.587980205424401
30
0
40
1.5999999999999859
210
-0
220
0
230
1
0
CIRCLE
5
102
100
AcDbEntity
8
0
100
AcDbCircle
10
151.49902581014504
20
68.587980205424429
30
0
40
1.6000000000000036
210
6.1629758220391547e-33
220
1.3898376492479405e-48
230
1
0
CIRCLE
5
103
100
AcDbEntity
8
0
100
AcDbCircle
10
58.499998689813815
20
68.587980205424429
30
0
40
1.6000000000000036
210
6.1629758220391547e-33
220
1.3898376492479405e-48
230
1
0
CIRCLE
5
104
100
AcDbEntity
8
0
100
AcDbCircle
10
58.499998689813808
20
98.587980205424401
30
0
40
1.6000000000000036
210
6.1629758220391547e-33
220
1.3898376492479405e-48
230
1
0
LWPOLYLINE
5
105
100
AcDbEntity
8
0
100
AcDbPolyline
90
4
70
1
43
0.0
10
53.504512249979385
20
65.987980205424336
10
53.504512249979406
20
101.18847010890134
10
47.804512249979403
20
101.18847010890136
10
47.804512249979382
20
65.987980205424336
0
LWPOLYLINE
5
106
100
AcDbEntity
8
0
100
AcDbPolyline
90
4
70
1
43
0.0
10
156.49999868981388
20
65.987980205424577
10
162.19999868981392
20
65.987980205424577
10
162.19999868981381
20
101.18798020542457
10
156.49999868981385
20
101.18798020542457
0
LWPOLYLINE
5
107
100
AcDbEntity
8
0
100
AcDbPolyline
90
4
70
1
43
0.0
10
122.59975546989648
20
114.25722515716294
10
122.59975546989644
20
119.8264701089015
10
87.399755469896419
20
119.82647010890147
10
87.399755469896462
20
114.25722515716294
0
LWPOLYLINE
5
108
100
AcDbEntity
8
0
100
AcDbPolyline
90
4
70
1
43
0.0
10
122.17452749208162
20
48.987980205424435
10
122.17452749208158
20
54.687980205424466
10
86.974527492081592
20
54.687980205424466
10
86.97452749208162
20
48.987980205424442
0
ENDSEC
0
SECTION
2
OBJECTS
0
DICTIONARY
5
C
100
AcDbDictionary
3
ACAD_GROUP
350
D
3
ACAD_MLINESTYLE
350
17
0
DICTIONARY
5
D
100
AcDbDictionary
0
DICTIONARY
5
1A
330
C
100
AcDbDictionary
0
DICTIONARY
5
17
100
AcDbDictionary
0
ENDSEC
0
EOF
