0
SECTION
2
HEADER
9
$INSUNITS
70
4
9
$ACADVER
1
AC1014
9
$HANDSEED
5
FFFF
0
ENDSEC
0
SECTION
2
TABLES
0
TABLE
2
VPORT
5
8
100
AcDbSymbolTable
0
ENDTAB
0
TABLE
2
LTYPE
5
5
100
AcDbSymbolTable
0
LTYPE
5
14
100
AcDbSymbolTableRecord
100
AcDbLinetypeTableRecord
2
BYBLOCK
70
0
0
LTYPE
5
15
100
AcDbSymbolTableRecord
100
AcDbLinetypeTableRecord
2
BYLAYER
70
0
0
ENDTAB
0
TABLE
2
LAYER
5
2
100
AcDbSymbolTable
70
2
0
LAYER
5
50
100
AcDbSymbolTableRecord
100
AcDbLayerTableRecord
2
0
70
0
6
CONTINUOUS
0
ENDTAB
0
TABLE
2
STYLE
5
3
100
AcDbSymbolTable
70
1
0
STYLE
5
11
100
AcDbSymbolTableRecord
100
AcDbTextStyleTableRecord
2
STANDARD
70
0
0
ENDTAB
0
TABLE
2
VIEW
5
6
100
AcDbSymbolTable
70
0
0
ENDTAB
0
TABLE
2
UCS
5
7
100
AcDbSymbolTable
70
0
0
ENDTAB
0
TABLE
2
APPID
5
9
100
AcDbSymbolTable
70
2
0
APPID
5
12
100
AcDbSymbolTableRecord
100
AcDbRegAppTableRecord
2
ACAD
70
0
0
ENDTAB
0
TABLE
2
DIMSTYLE
5
A
100
AcDbSymbolTable
70
1
0
ENDTAB
0
TABLE
2
BLOCK_RECORD
5
1
100
AcDbSymbolTable
70
1
0
BLOCK_RECORD
5
1F
100
AcDbSymbolTableRecord
100
AcDbBlockTableRecord
2
*MODEL_SPACE
0
BLOCK_RECORD
5
1B
100
AcDbSymbolTableRecord
100
AcDbBlockTableRecord
2
*PAPER_SPACE
0
ENDTAB
0
ENDSEC
0
SECTION
2
BLOCKS
0
BLOCK
5
20
100
AcDbEntity
100
AcDbBlockBegin
2
*MODEL_SPACE
0
ENDBLK
5
21
100
AcDbEntity
100
AcDbBlockEnd
0
BLOCK
5
1C
100
AcDbEntity
100
AcDbBlockBegin
2
*PAPER_SPACE
0
ENDBLK
5
1D
100
AcDbEntity
100
AcDbBlockEnd
0
ENDSEC
0
SECTION
2
ENTITIES
0
LWPOLYLINE
5
100
100
AcDbEntity
8
0
100
AcDbPolyline
90
8
70
1
43
0.0
10
-9.9318351971010141
20
-248.02647483022028
10
-9.9318351971009733
20
-229.02647483022031
42
0.41421356237309509
10
-10.431835197100972
20
-228.52647483022025
10
-44.181835197100973
20
-228.52647483022028
42
0.41421356237309509
10
-44.68183519710098
20
-229.02647483022031
10
-44.681835197100966
20
-248.02647483022028
42
0.41421356237309509
10
-44.181835197100973
20
-248.52647483022028
10
-10.431835197101025
20
-248.52647483022028
42
0.41421356237309509
0
LWPOLYLINE
5
101
100
AcDbEntity
8
0
100
AcDbPolyline
90
8
70
1
43
0.0
10
-55.126469580281679
20
-245.0264748302198
10
-55.126469580281679
20
-243.02647483021985
42
0.41421356237309681
10
-56.626469580281686
20
-241.52647483021991
10
-98.626469580281707
20
-241.52647483021985
42
0.41421356237309165
10
-100.12646958028168
20
-243.02647483021983
10
-100.12646958028169
20
-245.02647483021988
42
0.41421356237310197
10
-98.626469580281679
20
-246.52647483021985
10
-56.626469580281679
20
-246.52647483021983
42
0.41421356237310197
0
LWPOLYLINE
5
102
100
AcDbEntity
8
0
100
AcDbPolyline
90
8
70
1
43
0.0
10
-98.626469580281679
20
-236.52647483021985
10
-56.626469580281679
20
-236.52647483021985
42
0.41421356237310197
10
-55.126469580281679
20
-235.0264748302198
10
-55.126469580281672
20
-233.02647483021985
42
0.41421356237309331
10
-56.626469580281665
20
-231.52647483021991
10
-98.626469580281707
20
-231.52647483021985
42
0.41421356237307078
10
-100.12646958028168
20
-233.02647483021983
10
-100.12646958028169
20
-235.02647483021988
42
0.41421356237310197
0
LWPOLYLINE
5
103
100
AcDbEntity
8
0
100
AcDbPolyline
90
28
70
1
43
0.0
10
-24.226469580281442
20
-254.02647483022008
10
-62.226469580281446
20
-254.02647483021997
10
-62.226469580281446
20
-259.52647483021997
10
-92.226469580281446
20
-259.52647483021997
10
-92.226469580281446
20
-254.02647483021997
10
-114.12646958028165
20
-254.02647483021994
10
-114.12646958028168
20
-244.52647483021985
10
-119.62646958028166
20
-244.52647483021985
10
-119.62646958028165
20
-233.52647483021991
10
-114.12646958028164
20
-233.52647483021991
10
-114.12646958028159
20
-224.02647483021983
10
-92.226469580281389
20
-224.02647483021991
10
-92.226469580281417
20
-218.52647483021991
10
-62.226469580281417
20
-218.52647483021994
10
-62.226469580281417
20
-224.02647483021994
10
-24.226469580281396
20
-224.02647483021997
10
-24.226469580281396
20
-218.52647483021994
10
5.7735304197186146
20
-218.52647483021994
10
5.7735304197185977
20
-224.02647483021997
10
27.873530419718428
20
-224.02647483022014
10
27.873530419718406
20
-233.52647483022011
10
33.373530419718421
20
-233.52647483022011
10
33.373530419718392
20
-244.52647483022014
10
27.873530419718374
20
-244.52647483022017
10
27.873530419718385
20
-254.02647483022008
10
5.7735304197185702
20
-254.02647483022008
10
5.7735304197185799
20
-259.52647483021997
10
-24.226469580281432
20
-259.52647483021997
0
ENDSEC
0
SECTION
2
OBJECTS
0
DICTIONARY
5
C
100
AcDbDictionary
3
ACAD_GROUP
350
D
3
ACAD_MLINESTYLE
350
17
0
DICTIONARY
5
D
100
AcDbDictionary
0
DICTIONARY
5
1A
330
C
100
AcDbDictionary
0
DICTIONARY
5
17
100
AcDbDictionary
0
ENDSEC
0
EOF
