%TF.GenerationSoftware,KiCad,Pcbnew,(6.0.1-0)*%
%TF.CreationDate,2022-03-07T18:18:46+09:00*%
%TF.ProjectId,qLAMP-lcd,714c414d-502d-46c6-9364-2e6b69636164,rev?*%
%TF.SameCoordinates,Original*%
%TF.FileFunction,Copper,L1,Top*%
%TF.FilePolarity,Positive*%
%FSLAX46Y46*%
G04 Gerber Fmt 4.6, Leading zero omitted, Abs format (unit mm)*
G04 Created by KiCad (PCBNEW (6.0.1-0)) date 2022-03-07 18:18:46*
%MOMM*%
%LPD*%
G01*
G04 APERTURE LIST*
G04 Aperture macros list*
%AMRoundRect*
0 Rectangle with rounded corners*
0 $1 Rounding radius*
0 $2 $3 $4 $5 $6 $7 $8 $9 X,Y pos of 4 corners*
0 Add a 4 corners polygon primitive as box body*
4,1,4,$2,$3,$4,$5,$6,$7,$8,$9,$2,$3,0*
0 Add four circle primitives for the rounded corners*
1,1,$1+$1,$2,$3*
1,1,$1+$1,$4,$5*
1,1,$1+$1,$6,$7*
1,1,$1+$1,$8,$9*
0 Add four rect primitives between the rounded corners*
20,1,$1+$1,$2,$3,$4,$5,0*
20,1,$1+$1,$4,$5,$6,$7,0*
20,1,$1+$1,$6,$7,$8,$9,0*
20,1,$1+$1,$8,$9,$2,$3,0*%
G04 Aperture macros list end*
%TA.AperFunction,ComponentPad*%
%ADD10O,2.032000X2.032000*%
%TD*%
%TA.AperFunction,SMDPad,CuDef*%
%ADD11RoundRect,0.200000X-0.275000X0.200000X-0.275000X-0.200000X0.275000X-0.200000X0.275000X0.200000X0*%
%TD*%
%TA.AperFunction,ComponentPad*%
%ADD12R,1.700000X1.700000*%
%TD*%
%TA.AperFunction,ComponentPad*%
%ADD13O,1.700000X1.700000*%
%TD*%
%TA.AperFunction,SMDPad,CuDef*%
%ADD14RoundRect,0.150000X0.150000X-0.587500X0.150000X0.587500X-0.150000X0.587500X-0.150000X-0.587500X0*%
%TD*%
%TA.AperFunction,SMDPad,CuDef*%
%ADD15RoundRect,0.200000X-0.200000X-0.275000X0.200000X-0.275000X0.200000X0.275000X-0.200000X0.275000X0*%
%TD*%
%TA.AperFunction,ComponentPad*%
%ADD16C,1.700000*%
%TD*%
%TA.AperFunction,ComponentPad*%
%ADD17R,1.064920X1.800000*%
%TD*%
%TA.AperFunction,ComponentPad*%
%ADD18O,1.064920X1.800000*%
%TD*%
%TA.AperFunction,ViaPad*%
%ADD19C,0.800000*%
%TD*%
%TA.AperFunction,Conductor*%
%ADD20C,0.762000*%
%TD*%
G04 APERTURE END LIST*
D10*
%TO.P,D2,4,SDA*%
%TO.N,SDA*%
X150600000Y-91260000D03*
%TO.P,D2,3,SCL*%
%TO.N,SCL*%
X148060000Y-91260000D03*
%TO.P,D2,2,VCC*%
%TO.N,VCC*%
X145520000Y-91260000D03*
%TO.P,D2,1,GND*%
%TO.N,GND*%
X142980000Y-91260000D03*
%TD*%
D11*
%TO.P,R8,1*%
%TO.N,Net-(D1-Pad2)*%
X146029000Y-105254999D03*
%TO.P,R8,2*%
%TO.N,Net-(Q3-Pad3)*%
X146029000Y-106904999D03*
%TD*%
D12*
%TO.P,J1,1,Pin_1*%
%TO.N,VCC*%
X161940000Y-91260000D03*
D13*
%TO.P,J1,2,Pin_2*%
%TO.N,SCL*%
X164480000Y-91260000D03*
%TO.P,J1,3,Pin_3*%
%TO.N,SDA*%
X167020000Y-91260000D03*
%TO.P,J1,4,Pin_4*%
%TO.N,GND*%
X169560000Y-91260000D03*
%TD*%
D14*
%TO.P,Q2,1,B*%
%TO.N,Net-(Q2-Pad1)*%
X141269000Y-111687500D03*
%TO.P,Q2,2,E*%
%TO.N,GND*%
X143169000Y-111687500D03*
%TO.P,Q2,3,C*%
%TO.N,Net-(Q2-Pad3)*%
X142219000Y-109812500D03*
%TD*%
D15*
%TO.P,R7,1*%
%TO.N,VCC*%
X155694200Y-101223999D03*
%TO.P,R7,2*%
%TO.N,SDA*%
X157344200Y-101223999D03*
%TD*%
D12*
%TO.P,J3,1,Pin_1*%
%TO.N,VCCL*%
X134940000Y-99700000D03*
D13*
%TO.P,J3,2,Pin_2*%
%TO.N,LED_R*%
X134940000Y-102240000D03*
%TO.P,J3,3,Pin_3*%
%TO.N,LED_G*%
X134940000Y-104779999D03*
%TO.P,J3,4,Pin_4*%
%TO.N,LED_B*%
X134940000Y-107320000D03*
%TD*%
D15*
%TO.P,R2,1*%
%TO.N,LED_G*%
X137660200Y-104779999D03*
%TO.P,R2,2*%
%TO.N,Net-(Q2-Pad1)*%
X139310200Y-104779999D03*
%TD*%
%TO.P,R1,1*%
%TO.N,LED_R*%
X137660200Y-103001999D03*
%TO.P,R1,2*%
%TO.N,Net-(Q1-Pad1)*%
X139310200Y-103001999D03*
%TD*%
D16*
%TO.P,SW3,1,1*%
%TO.N,TACT3*%
X160940000Y-107910000D03*
%TO.P,SW3,2,2*%
X167440000Y-107910000D03*
%TO.P,SW3,3,3*%
%TO.N,GND*%
X160940000Y-112410000D03*
%TO.P,SW3,4,4*%
X167440000Y-112410000D03*
%TD*%
D15*
%TO.P,R3,1*%
%TO.N,LED_B*%
X137660200Y-106557999D03*
%TO.P,R3,2*%
%TO.N,Net-(Q3-Pad1)*%
X139310200Y-106557999D03*
%TD*%
D14*
%TO.P,Q3,1,B*%
%TO.N,Net-(Q3-Pad1)*%
X145079000Y-111687500D03*
%TO.P,Q3,2,E*%
%TO.N,GND*%
X146979000Y-111687500D03*
%TO.P,Q3,3,C*%
%TO.N,Net-(Q3-Pad3)*%
X146029000Y-109812500D03*
%TD*%
D11*
%TO.P,R4,1*%
%TO.N,Net-(D1-Pad4)*%
X147807000Y-105254999D03*
%TO.P,R4,2*%
%TO.N,Net-(Q1-Pad3)*%
X147807000Y-106904999D03*
%TD*%
D17*
%TO.P,D1,1,GK*%
%TO.N,Net-(D1-Pad1)*%
X144285005Y-101259996D03*
D18*
%TO.P,D1,2,BK*%
%TO.N,Net-(D1-Pad2)*%
X145555005Y-101259996D03*
%TO.P,D1,3,A*%
%TO.N,VCCL*%
X146825005Y-101259996D03*
%TO.P,D1,4,RK*%
%TO.N,Net-(D1-Pad4)*%
X148095005Y-101259996D03*
%TD*%
D15*
%TO.P,R11,1*%
%TO.N,VCC*%
X155694200Y-106557999D03*
%TO.P,R11,2*%
%TO.N,TACT3*%
X157344200Y-106557999D03*
%TD*%
D14*
%TO.P,Q1,1,B*%
%TO.N,Net-(Q1-Pad1)*%
X148889000Y-111687500D03*
%TO.P,Q1,2,E*%
%TO.N,GND*%
X150789000Y-111687500D03*
%TO.P,Q1,3,C*%
%TO.N,Net-(Q1-Pad3)*%
X149839000Y-109812500D03*
%TD*%
D15*
%TO.P,R5,1*%
%TO.N,VCC*%
X155694200Y-99445999D03*
%TO.P,R5,2*%
%TO.N,SCL*%
X157344200Y-99445999D03*
%TD*%
%TO.P,R9,1*%
%TO.N,VCC*%
X155694200Y-103001999D03*
%TO.P,R9,2*%
%TO.N,TACT1*%
X157344200Y-103001999D03*
%TD*%
D16*
%TO.P,SW2,1,1*%
%TO.N,TACT2*%
X160940000Y-101410000D03*
%TO.P,SW2,2,2*%
X167440000Y-101410000D03*
%TO.P,SW2,3,3*%
%TO.N,GND*%
X160940000Y-105910000D03*
%TO.P,SW2,4,4*%
X167440000Y-105910000D03*
%TD*%
%TO.P,SW1,1,1*%
%TO.N,TACT1*%
X160940000Y-94910000D03*
%TO.P,SW1,2,2*%
X167440000Y-94910000D03*
%TO.P,SW1,3,3*%
%TO.N,GND*%
X160940000Y-99410000D03*
%TO.P,SW1,4,4*%
X167440000Y-99410000D03*
%TD*%
D11*
%TO.P,R6,1*%
%TO.N,Net-(D1-Pad1)*%
X144251000Y-105254999D03*
%TO.P,R6,2*%
%TO.N,Net-(Q2-Pad3)*%
X144251000Y-106904999D03*
%TD*%
D12*
%TO.P,J2,1,Pin_1*%
%TO.N,TACT3*%
X161940000Y-115760000D03*
D13*
%TO.P,J2,2,Pin_2*%
%TO.N,TACT2*%
X164480000Y-115760000D03*
%TO.P,J2,3,Pin_3*%
%TO.N,TACT1*%
X167020000Y-115760000D03*
%TO.P,J2,4,Pin_4*%
%TO.N,GND*%
X169560000Y-115760000D03*
%TD*%
D15*
%TO.P,R10,1*%
%TO.N,VCC*%
X155694200Y-104779999D03*
%TO.P,R10,2*%
%TO.N,TACT2*%
X157344200Y-104779999D03*
%TD*%
D19*
%TO.N,Net-(Q1-Pad1)*%
X147940000Y-110200000D03*
X140390000Y-103050000D03*
%TO.N,SCL*%
X151020000Y-94820000D03*
%TO.N,SDA*%
X155465774Y-95984226D03*
%TO.N,GND*%
X142840000Y-93290000D03*
X137090000Y-91290000D03*
X152320000Y-104110000D03*
X150110000Y-100770000D03*
X152320000Y-112030000D03*
X170590000Y-101760000D03*
X154480000Y-92110000D03*
X144210000Y-97970000D03*
X161030000Y-103520000D03*
X154080000Y-109200000D03*
X142470000Y-107400000D03*
X165540000Y-109260000D03*
X140360000Y-116570000D03*
X145570000Y-113490000D03*
X168350000Y-92710000D03*
X137990000Y-107780000D03*
X156440000Y-108070000D03*
X147530000Y-113260000D03*
X170310000Y-112740000D03*
X170710000Y-95910000D03*
X161140000Y-110140000D03*
X167870000Y-110380000D03*
X137450000Y-98400000D03*
X149760000Y-116670000D03*
X170650000Y-107500000D03*
X164530000Y-102650000D03*
X140280000Y-95180000D03*
X165180000Y-96200000D03*
X142760000Y-101050000D03*
X167470000Y-114180000D03*
X157470000Y-111360000D03*
X137180000Y-112680000D03*
X133750000Y-96320000D03*
X168140000Y-104290000D03*
X158890000Y-105820000D03*
X154910000Y-114600000D03*
X163600000Y-98170000D03*
X136860000Y-101130000D03*
X133950000Y-109090000D03*
X154200000Y-100740000D03*
X143890000Y-109950000D03*
X152350000Y-90850000D03*
X149520000Y-107910000D03*
X142980000Y-103630000D03*
%TD*%
D20*
%TO.N,LED_R*%
X135701999Y-103001999D02*
X134940000Y-102240000D01*
X137660200Y-103001999D02*
X135701999Y-103001999D01*
%TO.N,Net-(Q1-Pad1)*%
X140390000Y-103050000D02*
X139358201Y-103050000D01*
X148889000Y-111687500D02*
X148889000Y-111149000D01*
X139358201Y-103050000D02*
X139310200Y-103001999D01*
X148889000Y-111149000D02*
X147940000Y-110200000D01*
%TO.N,LED_G*%
X137660200Y-104779999D02*
X134940000Y-104779999D01*
%TO.N,Net-(Q2-Pad1)*%
X141254280Y-111672780D02*
X141254280Y-105394280D01*
X141269000Y-111687500D02*
X141254280Y-111672780D01*
X140639999Y-104779999D02*
X139310200Y-104779999D01*
X141254280Y-105394280D02*
X140639999Y-104779999D01*
%TO.N,LED_B*%
X135702001Y-106557999D02*
X134940000Y-107320000D01*
X137660200Y-106557999D02*
X135702001Y-106557999D01*
%TO.N,Net-(Q3-Pad1)*%
X140836364Y-113030000D02*
X139310200Y-111503836D01*
X145079000Y-111687500D02*
X143736500Y-113030000D01*
X139310200Y-111503836D02*
X139310200Y-106557999D01*
X143736500Y-113030000D02*
X140836364Y-113030000D01*
%TO.N,Net-(D1-Pad4)*%
X148095000Y-104966999D02*
X147807000Y-105254999D01*
X148095000Y-101259999D02*
X148095000Y-104966999D01*
%TO.N,Net-(Q1-Pad3)*%
X147807000Y-107780500D02*
X149839000Y-109812500D01*
X147807000Y-106904999D02*
X147807000Y-107780500D01*
%TO.N,VCC*%
X144920000Y-91260000D02*
X153105999Y-99445999D01*
X153105999Y-99445999D02*
X155694200Y-99445999D01*
X155694200Y-106557999D02*
X155694200Y-104779999D01*
X155694200Y-99445999D02*
X155694200Y-101223999D01*
X155694200Y-101223999D02*
X155694200Y-103001999D01*
X155694200Y-103001999D02*
X155694200Y-104779999D01*
%TO.N,SCL*%
X156285480Y-98387279D02*
X157344200Y-99445999D01*
X151020000Y-94820000D02*
X154587279Y-98387279D01*
X154587279Y-98387279D02*
X156285480Y-98387279D01*
X147460000Y-91260000D02*
X151020000Y-94820000D01*
%TO.N,Net-(D1-Pad1)*%
X144285000Y-105220999D02*
X144251000Y-105254999D01*
X144285000Y-101259999D02*
X144285000Y-105220999D01*
%TO.N,Net-(Q2-Pad3)*%
X144251000Y-106904999D02*
X144251000Y-107780500D01*
X144251000Y-107780500D02*
X142219000Y-109812500D01*
%TO.N,SDA*%
X150741548Y-91260000D02*
X155465774Y-95984226D01*
X155465774Y-95984226D02*
X158327920Y-98846372D01*
X158327920Y-100240279D02*
X157344200Y-101223999D01*
X158327920Y-98846372D02*
X158327920Y-100240279D01*
X150000000Y-91260000D02*
X150741548Y-91260000D01*
%TO.N,Net-(D1-Pad2)*%
X145555000Y-101259999D02*
X145555000Y-104780999D01*
X145555000Y-104780999D02*
X146029000Y-105254999D01*
%TO.N,Net-(Q3-Pad3)*%
X146029000Y-106904999D02*
X146029000Y-109812500D01*
%TO.N,TACT1*%
X167020000Y-115760000D02*
X164303151Y-113043151D01*
X159506289Y-100839910D02*
X159506289Y-98816136D01*
X162373711Y-101479391D02*
X162373711Y-98816136D01*
X162373711Y-98816136D02*
X160940000Y-97382425D01*
X160940000Y-94910000D02*
X167440000Y-94910000D01*
X163338431Y-102444111D02*
X162373711Y-101479391D01*
X160940000Y-97382425D02*
X160940000Y-94910000D01*
X164303151Y-113043151D02*
X164303151Y-108544511D01*
X157344200Y-103001999D02*
X159506289Y-100839910D01*
X164303151Y-108544511D02*
X163338431Y-107579791D01*
X159506289Y-98816136D02*
X160940000Y-97382425D01*
X163338431Y-107579791D02*
X163338431Y-102444111D01*
%TO.N,TACT2*%
X162373711Y-107979391D02*
X162373711Y-102843711D01*
X162373711Y-102843711D02*
X160940000Y-101410000D01*
X164480000Y-115760000D02*
X163338431Y-114618431D01*
X163338431Y-114618431D02*
X163338431Y-108944111D01*
X157570001Y-104779999D02*
X160940000Y-101410000D01*
X163338431Y-108944111D02*
X162373711Y-107979391D01*
X157344200Y-104779999D02*
X157570001Y-104779999D01*
%TO.N,TACT3*%
X158696201Y-107910000D02*
X160940000Y-107910000D01*
X162373711Y-109343711D02*
X160940000Y-107910000D01*
X161940000Y-115760000D02*
X162373711Y-115326289D01*
X162373711Y-115326289D02*
X162373711Y-109343711D01*
X157344200Y-106557999D02*
X158696201Y-107910000D01*
%TO.N,GND*%
X160090000Y-113260000D02*
X151010000Y-113260000D01*
X143169000Y-111687500D02*
X143169000Y-110671000D01*
X143169000Y-110671000D02*
X143890000Y-109950000D01*
X150789000Y-111687500D02*
X150789000Y-113039000D01*
X160940000Y-112410000D02*
X160090000Y-113260000D01*
X151010000Y-113260000D02*
X147530000Y-113260000D01*
X146979000Y-112709000D02*
X146979000Y-111687500D01*
X150789000Y-113039000D02*
X151010000Y-113260000D01*
X147530000Y-113260000D02*
X146979000Y-112709000D01*
%TO.N,VCCL*%
X134940000Y-99700000D02*
X145942109Y-99700000D01*
X146825000Y-100582891D02*
X146825000Y-101259999D01*
X145942109Y-99700000D02*
X146825000Y-100582891D01*
%TD*%
%TA.AperFunction,Conductor*%
%TO.N,GND*%
G36*
X171332121Y-89330002D02*
G01*
X171378614Y-89383658D01*
X171390000Y-89436000D01*
X171390000Y-117584000D01*
X171369998Y-117652121D01*
X171316342Y-117698614D01*
X171264000Y-117710000D01*
X132616000Y-117710000D01*
X132547879Y-117689998D01*
X132501386Y-117636342D01*
X132490000Y-117584000D01*
X132490000Y-115599438D01*
X133785066Y-115599438D01*
X133811883Y-115821044D01*
X133877519Y-116034400D01*
X133979901Y-116232759D01*
X133983310Y-116237201D01*
X133983312Y-116237205D01*
X134089036Y-116374987D01*
X134115790Y-116409854D01*
X134280893Y-116560086D01*
X134469990Y-116678707D01*
X134677105Y-116761966D01*
X134682593Y-116763103D01*
X134682598Y-116763104D01*
X134840053Y-116795711D01*
X134895690Y-116807233D01*
X134900303Y-116807499D01*
X134950526Y-116810395D01*
X134950530Y-116810395D01*
X134952349Y-116810500D01*
X135096630Y-116810500D01*
X135099417Y-116810251D01*
X135099423Y-116810251D01*
X135171792Y-116803792D01*
X135262339Y-116795711D01*
X135267753Y-116794230D01*
X135267758Y-116794229D01*
X135395104Y-116759390D01*
X135477651Y-116736808D01*
X135482709Y-116734396D01*
X135482713Y-116734394D01*
X135602393Y-116677309D01*
X135679129Y-116640708D01*
X135860405Y-116510448D01*
X135987987Y-116378794D01*
X136011846Y-116354174D01*
X136011848Y-116354171D01*
X136015749Y-116350146D01*
X136140250Y-116164868D01*
X136229974Y-115960471D01*
X136231282Y-115955023D01*
X136231284Y-115955017D01*
X136280775Y-115748872D01*
X136280775Y-115748871D01*
X136282085Y-115743415D01*
X136290387Y-115599438D01*
X157285066Y-115599438D01*
X157311883Y-115821044D01*
X157377519Y-116034400D01*
X157479901Y-116232759D01*
X157483310Y-116237201D01*
X157483312Y-116237205D01*
X157589036Y-116374987D01*
X157615790Y-116409854D01*
X157780893Y-116560086D01*
X157969990Y-116678707D01*
X158177105Y-116761966D01*
X158182593Y-116763103D01*
X158182598Y-116763104D01*
X158340053Y-116795711D01*
X158395690Y-116807233D01*
X158400303Y-116807499D01*
X158450526Y-116810395D01*
X158450530Y-116810395D01*
X158452349Y-116810500D01*
X158596630Y-116810500D01*
X158599417Y-116810251D01*
X158599423Y-116810251D01*
X158671792Y-116803792D01*
X158762339Y-116795711D01*
X158767753Y-116794230D01*
X158767758Y-116794229D01*
X158895104Y-116759390D01*
X158977651Y-116736808D01*
X158982709Y-116734396D01*
X158982713Y-116734394D01*
X159102393Y-116677309D01*
X159179129Y-116640708D01*
X159360405Y-116510448D01*
X159487987Y-116378794D01*
X159511846Y-116354174D01*
X159511848Y-116354171D01*
X159515749Y-116350146D01*
X159640250Y-116164868D01*
X159729974Y-115960471D01*
X159731282Y-115955023D01*
X159731284Y-115955017D01*
X159780775Y-115748872D01*
X159780775Y-115748871D01*
X159782085Y-115743415D01*
X159790710Y-115593831D01*
X159794611Y-115526169D01*
X159794611Y-115526166D01*
X159794934Y-115520562D01*
X159768117Y-115298956D01*
X159702481Y-115085600D01*
X159665492Y-115013935D01*
X159602672Y-114892226D01*
X159600099Y-114887241D01*
X159596690Y-114882799D01*
X159596688Y-114882795D01*
X159467620Y-114714590D01*
X159464210Y-114710146D01*
X159299107Y-114559914D01*
X159110010Y-114441293D01*
X158902895Y-114358034D01*
X158897407Y-114356897D01*
X158897402Y-114356896D01*
X158732845Y-114322818D01*
X158684310Y-114312767D01*
X158679697Y-114312501D01*
X158629474Y-114309605D01*
X158629470Y-114309605D01*
X158627651Y-114309500D01*
X158483370Y-114309500D01*
X158480583Y-114309749D01*
X158480577Y-114309749D01*
X158411003Y-114315959D01*
X158317661Y-114324289D01*
X158312247Y-114325770D01*
X158312242Y-114325771D01*
X158198470Y-114356896D01*
X158102349Y-114383192D01*
X158097291Y-114385604D01*
X158097287Y-114385606D01*
X158039549Y-114413146D01*
X157900871Y-114479292D01*
X157719595Y-114609552D01*
X157697146Y-114632718D01*
X157573443Y-114760369D01*
X157564251Y-114769854D01*
X157439750Y-114955132D01*
X157350026Y-115159529D01*
X157348718Y-115164977D01*
X157348716Y-115164983D01*
X157299225Y-115371128D01*
X157297915Y-115376585D01*
X157297592Y-115382190D01*
X157287912Y-115550083D01*
X157285066Y-115599438D01*
X136290387Y-115599438D01*
X136290710Y-115593831D01*
X136294611Y-115526169D01*
X136294611Y-115526166D01*
X136294934Y-115520562D01*
X136268117Y-115298956D01*
X136202481Y-115085600D01*
X136165492Y-115013935D01*
X136102672Y-114892226D01*
X136100099Y-114887241D01*
X136096690Y-114882799D01*
X136096688Y-114882795D01*
X135967620Y-114714590D01*
X135964210Y-114710146D01*
X135799107Y-114559914D01*
X135610010Y-114441293D01*
X135402895Y-114358034D01*
X135397407Y-114356897D01*
X135397402Y-114356896D01*
X135232845Y-114322818D01*
X135184310Y-114312767D01*
X135179697Y-114312501D01*
X135129474Y-114309605D01*
X135129470Y-114309605D01*
X135127651Y-114309500D01*
X134983370Y-114309500D01*
X134980583Y-114309749D01*
X134980577Y-114309749D01*
X134911003Y-114315959D01*
X134817661Y-114324289D01*
X134812247Y-114325770D01*
X134812242Y-114325771D01*
X134698470Y-114356896D01*
X134602349Y-114383192D01*
X134597291Y-114385604D01*
X134597287Y-114385606D01*
X134539549Y-114413146D01*
X134400871Y-114479292D01*
X134219595Y-114609552D01*
X134197146Y-114632718D01*
X134073443Y-114760369D01*
X134064251Y-114769854D01*
X133939750Y-114955132D01*
X133850026Y-115159529D01*
X133848718Y-115164977D01*
X133848716Y-115164983D01*
X133799225Y-115371128D01*
X133797915Y-115376585D01*
X133797592Y-115382190D01*
X133787912Y-115550083D01*
X133785066Y-115599438D01*
X132490000Y-115599438D01*
X132490000Y-107305217D01*
X133881305Y-107305217D01*
X133881821Y-107311361D01*
X133898080Y-107504994D01*
X133898081Y-107504999D01*
X133898596Y-107511133D01*
X133927076Y-107610452D01*
X133952307Y-107698442D01*
X133955555Y-107709770D01*
X134050010Y-107893560D01*
X134053835Y-107898386D01*
X134053837Y-107898389D01*
X134087425Y-107940766D01*
X134178364Y-108055503D01*
X134335730Y-108189431D01*
X134516111Y-108290243D01*
X134712639Y-108354099D01*
X134917826Y-108378566D01*
X134923961Y-108378094D01*
X134923963Y-108378094D01*
X135117715Y-108363185D01*
X135117718Y-108363184D01*
X135123858Y-108362712D01*
X135322887Y-108307143D01*
X135507332Y-108213973D01*
X135534899Y-108192436D01*
X135665307Y-108090550D01*
X135665308Y-108090549D01*
X135670168Y-108086752D01*
X135805191Y-107930325D01*
X135814737Y-107913522D01*
X135868534Y-107818821D01*
X135907260Y-107750652D01*
X135972486Y-107554575D01*
X135998385Y-107349563D01*
X135998798Y-107320000D01*
X135998455Y-107316500D01*
X135998454Y-107316480D01*
X135994974Y-107280996D01*
X136008232Y-107211248D01*
X136057094Y-107159741D01*
X136120372Y-107142699D01*
X137152788Y-107142699D01*
X137218184Y-107161901D01*
X137219953Y-107163670D01*
X137228784Y-107168170D01*
X137228786Y-107168171D01*
X137255596Y-107181831D01*
X137333895Y-107221726D01*
X137343685Y-107223277D01*
X137343686Y-107223277D01*
X137370163Y-107227470D01*
X137428430Y-107236699D01*
X137891970Y-107236699D01*
X137950237Y-107227470D01*
X137976714Y-107223277D01*
X137976715Y-107223277D01*
X137986505Y-107221726D01*
X138100447Y-107163670D01*
X138190871Y-107073246D01*
X138248927Y-106959304D01*
X138252946Y-106933933D01*
X138258716Y-106897498D01*
X138263900Y-106864769D01*
X138706500Y-106864769D01*
X138717455Y-106933933D01*
X138721473Y-106959304D01*
X138721179Y-106959351D01*
X138725500Y-106986635D01*
X138725500Y-111457258D01*
X138724422Y-111473705D01*
X138720455Y-111503836D01*
X138725500Y-111542155D01*
X138725500Y-111542157D01*
X138740550Y-111656473D01*
X138743710Y-111664103D01*
X138743711Y-111664105D01*
X138763177Y-111711100D01*
X138763178Y-111711101D01*
X138799466Y-111798709D01*
X138819960Y-111825417D01*
X138893187Y-111920849D01*
X138899733Y-111925872D01*
X138899736Y-111925875D01*
X138917309Y-111939359D01*
X138929701Y-111950227D01*
X140389977Y-113410503D01*
X140400844Y-113422894D01*
X140419351Y-113447013D01*
X140496978Y-113506577D01*
X140541491Y-113540734D01*
X140683727Y-113599650D01*
X140811095Y-113616419D01*
X140828169Y-113618667D01*
X140836364Y-113619746D01*
X140844560Y-113618667D01*
X140866502Y-113615778D01*
X140882949Y-113614700D01*
X143689922Y-113614700D01*
X143706369Y-113615778D01*
X143736500Y-113619745D01*
X143774819Y-113614700D01*
X143774824Y-113614700D01*
X143880949Y-113600728D01*
X143889137Y-113599650D01*
X143999623Y-113553885D01*
X144031373Y-113540734D01*
X144075886Y-113506577D01*
X144153513Y-113447013D01*
X144172020Y-113422894D01*
X144182888Y-113410502D01*
X144927787Y-112665604D01*
X144990099Y-112631579D01*
X145016881Y-112628700D01*
X145238358Y-112628699D01*
X145262526Y-112628699D01*
X145267084Y-112628028D01*
X145267086Y-112628028D01*
X145322356Y-112619893D01*
X145332045Y-112618467D01*
X145437744Y-112566571D01*
X145520934Y-112483235D01*
X145525834Y-112473212D01*
X145562995Y-112397188D01*
X145572646Y-112377445D01*
X145577537Y-112343920D01*
X145578257Y-112338984D01*
X146171001Y-112338984D01*
X146171195Y-112343920D01*
X146173430Y-112372336D01*
X146175730Y-112384931D01*
X146218107Y-112530790D01*
X146224352Y-112545221D01*
X146300911Y-112674678D01*
X146310551Y-112687104D01*
X146416896Y-112793449D01*
X146429322Y-112803089D01*
X146558779Y-112879648D01*
X146573210Y-112885893D01*
X146707605Y-112924939D01*
X146721706Y-112924899D01*
X146725000Y-112917630D01*
X146725000Y-112911878D01*
X147233000Y-112911878D01*
X147236973Y-112925409D01*
X147244871Y-112926544D01*
X147384790Y-112885893D01*
X147399221Y-112879648D01*
X147528678Y-112803089D01*
X147541104Y-112793449D01*
X147647449Y-112687104D01*
X147657089Y-112674678D01*
X147733648Y-112545221D01*
X147739893Y-112530790D01*
X147782269Y-112384935D01*
X147784570Y-112372333D01*
X147786807Y-112343916D01*
X147787000Y-112338986D01*
X147787000Y-111959615D01*
X147782525Y-111944376D01*
X147781135Y-111943171D01*
X147773452Y-111941500D01*
X147251115Y-111941500D01*
X147235876Y-111945975D01*
X147234671Y-111947365D01*
X147233000Y-111955048D01*
X147233000Y-112911878D01*
X146725000Y-112911878D01*
X146725000Y-111959615D01*
X146720525Y-111944376D01*
X146719135Y-111943171D01*
X146711452Y-111941500D01*
X146189116Y-111941500D01*
X146173877Y-111945975D01*
X146172672Y-111947365D01*
X146171001Y-111955048D01*
X146171001Y-112338984D01*
X145578257Y-112338984D01*
X145582040Y-112313054D01*
X145582040Y-112313048D01*
X145582700Y-112308527D01*
X145582700Y-112024417D01*
X145592291Y-111976200D01*
X145645489Y-111847768D01*
X145645490Y-111847765D01*
X145648650Y-111840137D01*
X145668746Y-111687500D01*
X145648650Y-111534863D01*
X145592290Y-111398797D01*
X145582699Y-111350580D01*
X145582699Y-111066474D01*
X145580488Y-111051448D01*
X145573893Y-111006644D01*
X145572467Y-110996955D01*
X145520571Y-110891256D01*
X145513200Y-110883898D01*
X145507137Y-110875429D01*
X145509290Y-110873887D01*
X145482576Y-110825066D01*
X145482842Y-110821306D01*
X145442042Y-110812469D01*
X145440980Y-110811804D01*
X145437235Y-110808066D01*
X145427884Y-110803495D01*
X145427881Y-110803493D01*
X145344327Y-110762651D01*
X145331445Y-110756354D01*
X145321770Y-110754943D01*
X145321768Y-110754942D01*
X145267054Y-110746960D01*
X145267048Y-110746960D01*
X145262527Y-110746300D01*
X145079720Y-110746300D01*
X144895474Y-110746301D01*
X144890916Y-110746972D01*
X144890914Y-110746972D01*
X144850028Y-110752990D01*
X144825955Y-110756533D01*
X144720256Y-110808429D01*
X144637066Y-110891765D01*
X144585354Y-110997555D01*
X144583943Y-111007230D01*
X144583942Y-111007232D01*
X144577076Y-111054301D01*
X144575300Y-111066473D01*
X144575300Y-111312118D01*
X144555298Y-111380239D01*
X144538396Y-111401213D01*
X144035014Y-111904596D01*
X143972702Y-111938620D01*
X143945919Y-111941500D01*
X142379116Y-111941500D01*
X142363877Y-111945975D01*
X142362672Y-111947365D01*
X142361001Y-111955048D01*
X142361001Y-112319300D01*
X142340999Y-112387421D01*
X142287343Y-112433914D01*
X142235001Y-112445300D01*
X141897918Y-112445300D01*
X141829797Y-112425298D01*
X141783304Y-112371642D01*
X141772365Y-112310823D01*
X141772700Y-112308527D01*
X141772700Y-112024417D01*
X141782291Y-111976200D01*
X141835490Y-111847765D01*
X141835491Y-111847761D01*
X141838649Y-111840137D01*
X141839726Y-111831957D01*
X141839727Y-111831953D01*
X141857667Y-111695688D01*
X141858745Y-111687500D01*
X141840058Y-111545564D01*
X141838980Y-111529117D01*
X141838980Y-110870750D01*
X141858982Y-110802629D01*
X141912638Y-110756136D01*
X141983168Y-110746070D01*
X142011751Y-110750239D01*
X142035473Y-110753700D01*
X142047416Y-110753700D01*
X142266586Y-110753699D01*
X142334706Y-110773701D01*
X142381199Y-110827356D01*
X142391304Y-110897630D01*
X142387583Y-110914853D01*
X142365731Y-110990065D01*
X142363430Y-111002667D01*
X142361193Y-111031084D01*
X142361000Y-111036014D01*
X142361000Y-111415385D01*
X142365475Y-111430624D01*
X142366865Y-111431829D01*
X142374548Y-111433500D01*
X142896885Y-111433500D01*
X142912124Y-111429025D01*
X142913329Y-111427635D01*
X142915000Y-111419952D01*
X142915000Y-111415385D01*
X143423000Y-111415385D01*
X143427475Y-111430624D01*
X143428865Y-111431829D01*
X143436548Y-111433500D01*
X143958884Y-111433500D01*
X143974123Y-111429025D01*
X143975328Y-111427635D01*
X143976999Y-111419952D01*
X143976999Y-111036017D01*
X143976805Y-111031080D01*
X143974570Y-111002664D01*
X143972270Y-110990069D01*
X143929893Y-110844210D01*
X143923648Y-110829779D01*
X143847089Y-110700322D01*
X143837449Y-110687896D01*
X143731104Y-110581551D01*
X143718678Y-110571911D01*
X143589221Y-110495352D01*
X143574790Y-110489107D01*
X143440395Y-110450061D01*
X143426294Y-110450101D01*
X143423000Y-110457370D01*
X143423000Y-111415385D01*
X142915000Y-111415385D01*
X142915000Y-110463122D01*
X142911027Y-110449591D01*
X142903130Y-110448456D01*
X142883854Y-110454056D01*
X142812857Y-110453854D01*
X142753241Y-110415300D01*
X142723932Y-110350635D01*
X142722700Y-110333059D01*
X142722700Y-110187880D01*
X142742702Y-110119759D01*
X142759605Y-110098785D01*
X144631503Y-108226887D01*
X144643895Y-108216019D01*
X144646562Y-108213973D01*
X144668013Y-108197513D01*
X144750107Y-108090525D01*
X144761734Y-108075373D01*
X144764895Y-108067743D01*
X144794278Y-107996804D01*
X144817490Y-107940766D01*
X144817491Y-107940763D01*
X144820650Y-107933137D01*
X144824158Y-107906495D01*
X144835700Y-107818821D01*
X144835700Y-107818819D01*
X144839667Y-107788688D01*
X144840745Y-107780500D01*
X144837522Y-107756015D01*
X144836778Y-107750367D01*
X144835700Y-107733921D01*
X144835700Y-107412411D01*
X144854902Y-107347015D01*
X144856671Y-107345246D01*
X144869535Y-107320000D01*
X144889408Y-107280996D01*
X144914727Y-107231304D01*
X144929700Y-107136769D01*
X145350300Y-107136769D01*
X145365273Y-107231304D01*
X145390592Y-107280996D01*
X145410466Y-107320000D01*
X145421217Y-107341100D01*
X145423329Y-107345246D01*
X145422793Y-107345519D01*
X145444094Y-107405216D01*
X145444300Y-107412411D01*
X145444300Y-109850821D01*
X145444838Y-109854907D01*
X145444838Y-109854908D01*
X145458272Y-109956949D01*
X145459350Y-109965137D01*
X145515710Y-110101200D01*
X145515710Y-110101201D01*
X145525301Y-110149417D01*
X145525301Y-110433526D01*
X145525971Y-110438076D01*
X145525972Y-110438086D01*
X145528293Y-110453854D01*
X145535533Y-110503045D01*
X145587429Y-110608744D01*
X145594800Y-110616102D01*
X145600863Y-110624571D01*
X145598710Y-110626113D01*
X145625424Y-110674934D01*
X145625158Y-110678694D01*
X145665958Y-110687531D01*
X145667020Y-110688196D01*
X145670765Y-110691934D01*
X145680116Y-110696505D01*
X145680119Y-110696507D01*
X145743179Y-110727331D01*
X145776555Y-110743646D01*
X145786230Y-110745057D01*
X145786232Y-110745058D01*
X145840946Y-110753040D01*
X145840952Y-110753040D01*
X145845473Y-110753700D01*
X145857416Y-110753700D01*
X146076586Y-110753699D01*
X146144706Y-110773701D01*
X146191199Y-110827356D01*
X146201304Y-110897630D01*
X146197583Y-110914853D01*
X146175731Y-110990065D01*
X146173430Y-111002667D01*
X146171193Y-111031084D01*
X146171000Y-111036014D01*
X146171000Y-111415385D01*
X146175475Y-111430624D01*
X146176865Y-111431829D01*
X146184548Y-111433500D01*
X146706885Y-111433500D01*
X146722124Y-111429025D01*
X146723329Y-111427635D01*
X146725000Y-111419952D01*
X146725000Y-110463122D01*
X146721027Y-110449591D01*
X146713130Y-110448456D01*
X146693854Y-110454056D01*
X146622857Y-110453854D01*
X146563241Y-110415300D01*
X146533932Y-110350635D01*
X146532700Y-110333059D01*
X146532700Y-110149417D01*
X146542291Y-110101199D01*
X146595490Y-109972766D01*
X146598650Y-109965137D01*
X146599728Y-109956949D01*
X146613162Y-109854908D01*
X146613162Y-109854907D01*
X146613700Y-109850821D01*
X146613700Y-107412411D01*
X146632902Y-107347015D01*
X146634671Y-107345246D01*
X146647535Y-107320000D01*
X146667408Y-107280996D01*
X146692727Y-107231304D01*
X146707700Y-107136769D01*
X147128300Y-107136769D01*
X147143273Y-107231304D01*
X147168592Y-107280996D01*
X147188466Y-107320000D01*
X147199217Y-107341100D01*
X147201329Y-107345246D01*
X147200793Y-107345519D01*
X147222094Y-107405216D01*
X147222300Y-107412411D01*
X147222300Y-107733922D01*
X147221222Y-107750367D01*
X147217255Y-107780500D01*
X147218333Y-107788688D01*
X147222300Y-107818819D01*
X147222300Y-107818821D01*
X147234768Y-107913522D01*
X147237350Y-107933137D01*
X147240509Y-107940763D01*
X147263722Y-107996804D01*
X147293105Y-108067743D01*
X147293107Y-108067747D01*
X147296266Y-108075373D01*
X147307893Y-108090525D01*
X147389987Y-108197513D01*
X147396537Y-108202539D01*
X147396541Y-108202543D01*
X147414109Y-108216023D01*
X147426501Y-108226891D01*
X149298396Y-110098786D01*
X149332422Y-110161098D01*
X149335301Y-110187880D01*
X149335301Y-110433526D01*
X149337664Y-110449578D01*
X149327796Y-110519882D01*
X149281483Y-110573693D01*
X149213430Y-110593924D01*
X149145243Y-110574151D01*
X149123912Y-110557021D01*
X148482803Y-109915913D01*
X148467513Y-109895986D01*
X148467331Y-109895546D01*
X148370564Y-109769436D01*
X148244455Y-109672669D01*
X148160978Y-109638092D01*
X148105227Y-109614999D01*
X148105224Y-109614998D01*
X148097597Y-109611839D01*
X147940000Y-109591091D01*
X147782403Y-109611839D01*
X147774776Y-109614998D01*
X147774773Y-109614999D01*
X147719022Y-109638092D01*
X147635546Y-109672669D01*
X147509436Y-109769436D01*
X147412669Y-109895546D01*
X147409509Y-109903176D01*
X147380684Y-109972766D01*
X147351839Y-110042403D01*
X147331091Y-110200000D01*
X147332169Y-110208188D01*
X147345270Y-110307701D01*
X147334331Y-110377850D01*
X147287202Y-110430948D01*
X147245539Y-110442977D01*
X147237029Y-110448480D01*
X147233000Y-110457370D01*
X147233000Y-111415385D01*
X147237475Y-111430624D01*
X147238865Y-111431829D01*
X147246548Y-111433500D01*
X147768884Y-111433500D01*
X147784123Y-111429025D01*
X147785328Y-111427635D01*
X147786999Y-111419952D01*
X147786999Y-111178080D01*
X147807001Y-111109959D01*
X147860657Y-111063466D01*
X147930931Y-111053362D01*
X147995511Y-111082856D01*
X148002087Y-111088978D01*
X148267396Y-111354287D01*
X148301421Y-111416599D01*
X148304300Y-111443382D01*
X148304300Y-111725821D01*
X148319350Y-111840137D01*
X148375710Y-111976200D01*
X148375710Y-111976201D01*
X148385301Y-112024417D01*
X148385301Y-112308526D01*
X148395533Y-112378045D01*
X148447429Y-112483744D01*
X148530765Y-112566934D01*
X148636555Y-112618646D01*
X148646230Y-112620057D01*
X148646232Y-112620058D01*
X148700946Y-112628040D01*
X148700952Y-112628040D01*
X148705473Y-112628700D01*
X148888280Y-112628700D01*
X149072526Y-112628699D01*
X149077084Y-112628028D01*
X149077086Y-112628028D01*
X149132356Y-112619893D01*
X149142045Y-112618467D01*
X149247744Y-112566571D01*
X149330934Y-112483235D01*
X149335834Y-112473212D01*
X149372995Y-112397188D01*
X149382646Y-112377445D01*
X149387537Y-112343920D01*
X149388257Y-112338984D01*
X149981001Y-112338984D01*
X149981195Y-112343920D01*
X149983430Y-112372336D01*
X149985730Y-112384931D01*
X150028107Y-112530790D01*
X150034352Y-112545221D01*
X150110911Y-112674678D01*
X150120551Y-112687104D01*
X150226896Y-112793449D01*
X150239322Y-112803089D01*
X150368779Y-112879648D01*
X150383210Y-112885893D01*
X150517605Y-112924939D01*
X150531706Y-112924899D01*
X150535000Y-112917630D01*
X150535000Y-112911878D01*
X151043000Y-112911878D01*
X151046973Y-112925409D01*
X151054871Y-112926544D01*
X151194790Y-112885893D01*
X151209221Y-112879648D01*
X151338678Y-112803089D01*
X151351104Y-112793449D01*
X151457449Y-112687104D01*
X151467089Y-112674678D01*
X151543648Y-112545221D01*
X151549893Y-112530790D01*
X151592269Y-112384935D01*
X151592830Y-112381863D01*
X159578050Y-112381863D01*
X159590309Y-112594477D01*
X159591745Y-112604697D01*
X159638565Y-112812446D01*
X159641645Y-112822275D01*
X159721770Y-113019603D01*
X159726413Y-113028794D01*
X159806460Y-113159420D01*
X159816916Y-113168880D01*
X159825694Y-113165096D01*
X160567978Y-112422812D01*
X160575592Y-112408868D01*
X160575461Y-112407035D01*
X160571210Y-112400420D01*
X159829849Y-111659059D01*
X159818313Y-111652759D01*
X159806031Y-111662382D01*
X159758089Y-111732662D01*
X159753004Y-111741613D01*
X159663338Y-111934783D01*
X159659775Y-111944470D01*
X159602864Y-112149681D01*
X159600933Y-112159800D01*
X159578302Y-112371574D01*
X159578050Y-112381863D01*
X151592830Y-112381863D01*
X151594570Y-112372333D01*
X151596807Y-112343916D01*
X151597000Y-112338986D01*
X151597000Y-111959615D01*
X151592525Y-111944376D01*
X151591135Y-111943171D01*
X151583452Y-111941500D01*
X151061115Y-111941500D01*
X151045876Y-111945975D01*
X151044671Y-111947365D01*
X151043000Y-111955048D01*
X151043000Y-112911878D01*
X150535000Y-112911878D01*
X150535000Y-111959615D01*
X150530525Y-111944376D01*
X150529135Y-111943171D01*
X150521452Y-111941500D01*
X149999116Y-111941500D01*
X149983877Y-111945975D01*
X149982672Y-111947365D01*
X149981001Y-111955048D01*
X149981001Y-112338984D01*
X149388257Y-112338984D01*
X149392040Y-112313054D01*
X149392040Y-112313048D01*
X149392700Y-112308527D01*
X149392700Y-112024417D01*
X149402291Y-111976199D01*
X149455490Y-111847766D01*
X149455490Y-111847765D01*
X149458650Y-111840137D01*
X149473700Y-111725821D01*
X149473700Y-111195586D01*
X149474778Y-111179139D01*
X149477668Y-111157188D01*
X149478746Y-111149000D01*
X149458650Y-110996363D01*
X149421716Y-110907196D01*
X149414127Y-110836609D01*
X149445906Y-110773122D01*
X149506964Y-110736894D01*
X149575329Y-110738598D01*
X149577773Y-110739353D01*
X149586555Y-110743646D01*
X149623860Y-110749088D01*
X149650946Y-110753040D01*
X149650952Y-110753040D01*
X149655473Y-110753700D01*
X149667416Y-110753700D01*
X149886586Y-110753699D01*
X149954706Y-110773701D01*
X150001199Y-110827356D01*
X150011304Y-110897630D01*
X150007583Y-110914853D01*
X149985731Y-110990065D01*
X149983430Y-111002667D01*
X149981193Y-111031084D01*
X149981000Y-111036014D01*
X149981000Y-111415385D01*
X149985475Y-111430624D01*
X149986865Y-111431829D01*
X149994548Y-111433500D01*
X150516885Y-111433500D01*
X150532124Y-111429025D01*
X150533329Y-111427635D01*
X150535000Y-111419952D01*
X150535000Y-111415385D01*
X151043000Y-111415385D01*
X151047475Y-111430624D01*
X151048865Y-111431829D01*
X151056548Y-111433500D01*
X151578884Y-111433500D01*
X151594123Y-111429025D01*
X151595328Y-111427635D01*
X151596999Y-111419952D01*
X151596999Y-111036017D01*
X151596805Y-111031080D01*
X151594570Y-111002664D01*
X151592270Y-110990069D01*
X151549893Y-110844210D01*
X151543648Y-110829779D01*
X151467089Y-110700322D01*
X151457449Y-110687896D01*
X151351104Y-110581551D01*
X151338678Y-110571911D01*
X151209221Y-110495352D01*
X151194790Y-110489107D01*
X151060395Y-110450061D01*
X151046294Y-110450101D01*
X151043000Y-110457370D01*
X151043000Y-111415385D01*
X150535000Y-111415385D01*
X150535000Y-110463122D01*
X150531027Y-110449591D01*
X150523130Y-110448456D01*
X150503854Y-110454056D01*
X150432857Y-110453854D01*
X150373241Y-110415300D01*
X150343932Y-110350635D01*
X150342700Y-110333059D01*
X150342700Y-110149418D01*
X150352291Y-110101200D01*
X150405488Y-109972769D01*
X150405489Y-109972766D01*
X150408649Y-109965138D01*
X150428745Y-109812500D01*
X150422413Y-109764408D01*
X150409727Y-109668047D01*
X150409726Y-109668043D01*
X150408649Y-109659863D01*
X150405491Y-109652239D01*
X150405490Y-109652235D01*
X150352290Y-109523798D01*
X150342699Y-109475581D01*
X150342699Y-109191474D01*
X150332467Y-109121955D01*
X150280571Y-109016256D01*
X150217389Y-108953185D01*
X150204604Y-108940422D01*
X150197235Y-108933066D01*
X150091445Y-108881354D01*
X150081770Y-108879943D01*
X150081768Y-108879942D01*
X150027054Y-108871960D01*
X150027048Y-108871960D01*
X150022527Y-108871300D01*
X149998538Y-108871300D01*
X149776881Y-108871301D01*
X149708761Y-108851299D01*
X149687786Y-108834396D01*
X148428605Y-107575215D01*
X148394579Y-107512903D01*
X148391700Y-107486120D01*
X148391700Y-107412411D01*
X148410902Y-107347015D01*
X148412671Y-107345246D01*
X148425535Y-107320000D01*
X148445408Y-107280996D01*
X148470727Y-107231304D01*
X148485700Y-107136769D01*
X148485700Y-106673229D01*
X148470727Y-106578694D01*
X148412671Y-106464752D01*
X148322247Y-106374328D01*
X148208305Y-106316272D01*
X148198515Y-106314721D01*
X148198514Y-106314721D01*
X148172037Y-106310528D01*
X148113770Y-106301299D01*
X147500230Y-106301299D01*
X147441963Y-106310528D01*
X147415486Y-106314721D01*
X147415485Y-106314721D01*
X147405695Y-106316272D01*
X147291753Y-106374328D01*
X147201329Y-106464752D01*
X147143273Y-106578694D01*
X147128300Y-106673229D01*
X147128300Y-107136769D01*
X146707700Y-107136769D01*
X146707700Y-106673229D01*
X146692727Y-106578694D01*
X146634671Y-106464752D01*
X146544247Y-106374328D01*
X146430305Y-106316272D01*
X146420515Y-106314721D01*
X146420514Y-106314721D01*
X146394037Y-106310528D01*
X146335770Y-106301299D01*
X145722230Y-106301299D01*
X145663963Y-106310528D01*
X145637486Y-106314721D01*
X145637485Y-106314721D01*
X145627695Y-106316272D01*
X145513753Y-106374328D01*
X145423329Y-106464752D01*
X145365273Y-106578694D01*
X145350300Y-106673229D01*
X145350300Y-107136769D01*
X144929700Y-107136769D01*
X144929700Y-106673229D01*
X144914727Y-106578694D01*
X144856671Y-106464752D01*
X144766247Y-106374328D01*
X144652305Y-106316272D01*
X144642515Y-106314721D01*
X144642514Y-106314721D01*
X144616037Y-106310528D01*
X144557770Y-106301299D01*
X143944230Y-106301299D01*
X143885963Y-106310528D01*
X143859486Y-106314721D01*
X143859485Y-106314721D01*
X143849695Y-106316272D01*
X143735753Y-106374328D01*
X143645329Y-106464752D01*
X143587273Y-106578694D01*
X143572300Y-106673229D01*
X143572300Y-107136769D01*
X143587273Y-107231304D01*
X143612592Y-107280996D01*
X143632466Y-107320000D01*
X143643217Y-107341100D01*
X143645329Y-107345246D01*
X143644793Y-107345519D01*
X143666094Y-107405216D01*
X143666300Y-107412411D01*
X143666300Y-107486120D01*
X143646298Y-107554241D01*
X143629395Y-107575215D01*
X142370215Y-108834395D01*
X142307903Y-108868421D01*
X142281121Y-108871300D01*
X142059643Y-108871301D01*
X142035474Y-108871301D01*
X142030916Y-108871972D01*
X142030914Y-108871972D01*
X141983327Y-108878976D01*
X141913020Y-108869106D01*
X141859210Y-108822792D01*
X141838980Y-108754319D01*
X141838980Y-105440866D01*
X141840058Y-105424419D01*
X141842948Y-105402468D01*
X141844026Y-105394280D01*
X141823930Y-105241643D01*
X141765014Y-105099408D01*
X141694823Y-105007932D01*
X141694822Y-105007931D01*
X141671293Y-104977267D01*
X141657912Y-104966999D01*
X141647178Y-104958763D01*
X141634787Y-104947896D01*
X141086383Y-104399493D01*
X141075515Y-104387100D01*
X141062038Y-104369536D01*
X141057012Y-104362986D01*
X140967297Y-104294146D01*
X140934872Y-104269265D01*
X140927246Y-104266106D01*
X140927244Y-104266105D01*
X140893212Y-104252009D01*
X140800265Y-104213509D01*
X140792636Y-104210349D01*
X140784448Y-104209271D01*
X140678323Y-104195299D01*
X140678318Y-104195299D01*
X140639999Y-104190254D01*
X140631811Y-104191332D01*
X140609866Y-104194221D01*
X140593420Y-104195299D01*
X139817612Y-104195299D01*
X139752216Y-104176097D01*
X139750447Y-104174328D01*
X139741616Y-104169828D01*
X139741614Y-104169827D01*
X139693476Y-104145300D01*
X139636505Y-104116272D01*
X139626715Y-104114721D01*
X139626714Y-104114721D01*
X139600237Y-104110528D01*
X139541970Y-104101299D01*
X139078430Y-104101299D01*
X139020163Y-104110528D01*
X138993686Y-104114721D01*
X138993685Y-104114721D01*
X138983895Y-104116272D01*
X138869953Y-104174328D01*
X138779529Y-104264752D01*
X138721473Y-104378694D01*
X138719922Y-104388484D01*
X138719922Y-104388485D01*
X138718179Y-104399493D01*
X138706500Y-104473229D01*
X138706500Y-105086769D01*
X138707275Y-105091659D01*
X138718178Y-105160498D01*
X138721473Y-105181304D01*
X138779529Y-105295246D01*
X138869953Y-105385670D01*
X138983895Y-105443726D01*
X138993685Y-105445277D01*
X138993686Y-105445277D01*
X139020163Y-105449470D01*
X139078430Y-105458699D01*
X139541970Y-105458699D01*
X139600237Y-105449470D01*
X139626714Y-105445277D01*
X139626715Y-105445277D01*
X139636505Y-105443726D01*
X139693476Y-105414698D01*
X139741614Y-105390171D01*
X139741616Y-105390170D01*
X139750447Y-105385670D01*
X139750720Y-105386206D01*
X139810417Y-105364905D01*
X139817612Y-105364699D01*
X140345618Y-105364699D01*
X140413739Y-105384701D01*
X140434714Y-105401604D01*
X140632676Y-105599567D01*
X140666701Y-105661879D01*
X140669580Y-105688662D01*
X140669580Y-111626202D01*
X140668502Y-111642649D01*
X140664535Y-111672780D01*
X140665613Y-111680968D01*
X140669580Y-111711099D01*
X140669580Y-111711104D01*
X140670439Y-111717630D01*
X140670136Y-111719575D01*
X140670658Y-111727546D01*
X140670658Y-111727547D01*
X140668892Y-111727547D01*
X140659498Y-111787778D01*
X140612369Y-111840876D01*
X140544015Y-111860064D01*
X140476137Y-111839251D01*
X140456422Y-111823168D01*
X139931805Y-111298551D01*
X139897779Y-111236239D01*
X139894900Y-111209456D01*
X139894900Y-106986635D01*
X139899221Y-106959351D01*
X139898927Y-106959304D01*
X139902945Y-106933933D01*
X139913900Y-106864769D01*
X139913900Y-106251229D01*
X139904651Y-106192834D01*
X139900478Y-106166485D01*
X139900478Y-106166484D01*
X139898927Y-106156694D01*
X139840871Y-106042752D01*
X139750447Y-105952328D01*
X139636505Y-105894272D01*
X139626715Y-105892721D01*
X139626714Y-105892721D01*
X139600237Y-105888528D01*
X139541970Y-105879299D01*
X139078430Y-105879299D01*
X139020163Y-105888528D01*
X138993686Y-105892721D01*
X138993685Y-105892721D01*
X138983895Y-105894272D01*
X138869953Y-105952328D01*
X138779529Y-106042752D01*
X138721473Y-106156694D01*
X138719922Y-106166484D01*
X138719922Y-106166485D01*
X138715749Y-106192834D01*
X138706500Y-106251229D01*
X138706500Y-106864769D01*
X138263900Y-106864769D01*
X138263900Y-106251229D01*
X138254651Y-106192834D01*
X138250478Y-106166485D01*
X138250478Y-106166484D01*
X138248927Y-106156694D01*
X138190871Y-106042752D01*
X138100447Y-105952328D01*
X137986505Y-105894272D01*
X137976715Y-105892721D01*
X137976714Y-105892721D01*
X137950237Y-105888528D01*
X137891970Y-105879299D01*
X137428430Y-105879299D01*
X137370163Y-105888528D01*
X137343686Y-105892721D01*
X137343685Y-105892721D01*
X137333895Y-105894272D01*
X137297208Y-105912965D01*
X137228786Y-105947827D01*
X137228784Y-105947828D01*
X137219953Y-105952328D01*
X137219680Y-105951792D01*
X137159983Y-105973093D01*
X137152788Y-105973299D01*
X135748579Y-105973299D01*
X135732132Y-105972221D01*
X135710189Y-105969332D01*
X135702001Y-105968254D01*
X135663682Y-105973299D01*
X135663677Y-105973299D01*
X135557552Y-105987271D01*
X135549364Y-105988349D01*
X135541737Y-105991508D01*
X135541734Y-105991509D01*
X135466044Y-106022861D01*
X135407128Y-106047265D01*
X135362615Y-106081422D01*
X135284988Y-106140986D01*
X135279962Y-106147536D01*
X135279958Y-106147540D01*
X135266478Y-106165108D01*
X135255610Y-106177500D01*
X135193028Y-106240082D01*
X135130716Y-106274108D01*
X135090762Y-106276297D01*
X135069936Y-106274108D01*
X135044962Y-106271483D01*
X134953520Y-106261872D01*
X134953519Y-106261872D01*
X134947392Y-106261228D01*
X134820582Y-106272768D01*
X134747742Y-106279397D01*
X134747741Y-106279397D01*
X134741601Y-106279956D01*
X134543367Y-106338300D01*
X134360241Y-106434036D01*
X134199198Y-106563518D01*
X134195239Y-106568236D01*
X134195238Y-106568237D01*
X134178248Y-106588485D01*
X134066371Y-106721814D01*
X134063408Y-106727203D01*
X134063405Y-106727208D01*
X133995225Y-106851228D01*
X133966821Y-106902895D01*
X133904339Y-107099864D01*
X133903653Y-107105981D01*
X133903652Y-107105985D01*
X133888605Y-107240137D01*
X133881305Y-107305217D01*
X132490000Y-107305217D01*
X132490000Y-104765216D01*
X133881305Y-104765216D01*
X133882186Y-104775712D01*
X133898080Y-104964993D01*
X133898081Y-104964998D01*
X133898596Y-104971132D01*
X133912133Y-105018339D01*
X133953437Y-105162382D01*
X133955555Y-105169769D01*
X133965545Y-105189207D01*
X134018575Y-105292392D01*
X134050010Y-105353559D01*
X134053835Y-105358385D01*
X134053837Y-105358388D01*
X134146956Y-105475875D01*
X134178364Y-105515502D01*
X134183057Y-105519496D01*
X134183058Y-105519497D01*
X134255682Y-105581304D01*
X134335730Y-105649430D01*
X134516111Y-105750242D01*
X134712639Y-105814098D01*
X134917826Y-105838565D01*
X134923961Y-105838093D01*
X134923963Y-105838093D01*
X135117715Y-105823184D01*
X135117718Y-105823183D01*
X135123858Y-105822711D01*
X135130327Y-105820905D01*
X135161526Y-105812194D01*
X135322887Y-105767142D01*
X135507332Y-105673972D01*
X135522811Y-105661879D01*
X135665307Y-105550549D01*
X135665308Y-105550548D01*
X135670168Y-105546751D01*
X135789616Y-105408368D01*
X135849269Y-105369871D01*
X135884998Y-105364699D01*
X137152788Y-105364699D01*
X137218184Y-105383901D01*
X137219953Y-105385670D01*
X137228784Y-105390170D01*
X137228786Y-105390171D01*
X137276924Y-105414698D01*
X137333895Y-105443726D01*
X137343685Y-105445277D01*
X137343686Y-105445277D01*
X137370163Y-105449470D01*
X137428430Y-105458699D01*
X137891970Y-105458699D01*
X137950237Y-105449470D01*
X137976714Y-105445277D01*
X137976715Y-105445277D01*
X137986505Y-105443726D01*
X138100447Y-105385670D01*
X138190871Y-105295246D01*
X138248927Y-105181304D01*
X138252223Y-105160498D01*
X138263125Y-105091659D01*
X138263900Y-105086769D01*
X138263900Y-104473229D01*
X138252221Y-104399493D01*
X138250478Y-104388485D01*
X138250478Y-104388484D01*
X138248927Y-104378694D01*
X138190871Y-104264752D01*
X138100447Y-104174328D01*
X137986505Y-104116272D01*
X137976715Y-104114721D01*
X137976714Y-104114721D01*
X137950237Y-104110528D01*
X137891970Y-104101299D01*
X137428430Y-104101299D01*
X137370163Y-104110528D01*
X137343686Y-104114721D01*
X137343685Y-104114721D01*
X137333895Y-104116272D01*
X137276924Y-104145300D01*
X137228786Y-104169827D01*
X137228784Y-104169828D01*
X137219953Y-104174328D01*
X137219680Y-104173792D01*
X137159983Y-104195093D01*
X137152788Y-104195299D01*
X135882728Y-104195299D01*
X135814607Y-104175297D01*
X135785085Y-104148935D01*
X135695187Y-104038709D01*
X135695184Y-104038706D01*
X135691292Y-104033934D01*
X135686543Y-104030005D01*
X135536822Y-103906145D01*
X135536819Y-103906143D01*
X135532072Y-103902216D01*
X135350301Y-103803932D01*
X135190149Y-103754357D01*
X135158788Y-103744649D01*
X135158785Y-103744648D01*
X135152901Y-103742827D01*
X135146776Y-103742183D01*
X135146775Y-103742183D01*
X134953520Y-103721871D01*
X134953519Y-103721871D01*
X134947392Y-103721227D01*
X134820582Y-103732767D01*
X134747742Y-103739396D01*
X134747741Y-103739396D01*
X134741601Y-103739955D01*
X134543367Y-103798299D01*
X134360241Y-103894035D01*
X134199198Y-104023517D01*
X134195239Y-104028235D01*
X134195238Y-104028236D01*
X134076428Y-104169828D01*
X134066371Y-104181813D01*
X134063408Y-104187202D01*
X134063405Y-104187207D01*
X134015531Y-104274291D01*
X133966821Y-104362894D01*
X133904339Y-104559863D01*
X133903653Y-104565980D01*
X133903652Y-104565984D01*
X133881992Y-104759091D01*
X133881305Y-104765216D01*
X132490000Y-104765216D01*
X132490000Y-102225217D01*
X133881305Y-102225217D01*
X133881821Y-102231361D01*
X133898080Y-102424994D01*
X133898081Y-102424999D01*
X133898596Y-102431133D01*
X133914545Y-102486752D01*
X133952592Y-102619436D01*
X133955555Y-102629770D01*
X134050010Y-102813560D01*
X134053835Y-102818386D01*
X134053837Y-102818389D01*
X134174535Y-102970672D01*
X134178364Y-102975503D01*
X134335730Y-103109431D01*
X134516111Y-103210243D01*
X134712639Y-103274099D01*
X134917826Y-103298566D01*
X134923961Y-103298094D01*
X134923963Y-103298094D01*
X134978980Y-103293860D01*
X135095757Y-103284874D01*
X135165209Y-103299591D01*
X135194517Y-103321408D01*
X135255611Y-103382502D01*
X135266479Y-103394893D01*
X135279711Y-103412137D01*
X135284986Y-103419012D01*
X135291539Y-103424040D01*
X135315650Y-103442541D01*
X135365203Y-103480564D01*
X135407126Y-103512733D01*
X135428758Y-103521693D01*
X135502697Y-103552320D01*
X135541735Y-103568490D01*
X135541736Y-103568490D01*
X135549362Y-103571649D01*
X135557550Y-103572727D01*
X135663675Y-103586699D01*
X135663680Y-103586699D01*
X135701999Y-103591744D01*
X135710187Y-103590666D01*
X135732132Y-103587777D01*
X135748578Y-103586699D01*
X137152788Y-103586699D01*
X137218184Y-103605901D01*
X137219953Y-103607670D01*
X137228784Y-103612170D01*
X137228786Y-103612171D01*
X137273003Y-103634700D01*
X137333895Y-103665726D01*
X137343685Y-103667277D01*
X137343686Y-103667277D01*
X137370163Y-103671470D01*
X137428430Y-103680699D01*
X137891970Y-103680699D01*
X137950237Y-103671470D01*
X137976714Y-103667277D01*
X137976715Y-103667277D01*
X137986505Y-103665726D01*
X138100447Y-103607670D01*
X138190871Y-103517246D01*
X138248927Y-103403304D01*
X138263900Y-103308769D01*
X138706500Y-103308769D01*
X138721473Y-103403304D01*
X138779529Y-103517246D01*
X138869953Y-103607670D01*
X138983895Y-103665726D01*
X138993685Y-103667277D01*
X138993686Y-103667277D01*
X139020163Y-103671470D01*
X139078430Y-103680699D01*
X139541970Y-103680699D01*
X139600237Y-103671470D01*
X139626714Y-103667277D01*
X139626715Y-103667277D01*
X139636505Y-103665726D01*
X139670445Y-103648433D01*
X139727647Y-103634700D01*
X140207063Y-103634700D01*
X140231961Y-103637978D01*
X140232403Y-103638161D01*
X140240587Y-103639238D01*
X140240589Y-103639239D01*
X140381812Y-103657831D01*
X140390000Y-103658909D01*
X140398188Y-103657831D01*
X140539409Y-103639239D01*
X140547597Y-103638161D01*
X140555224Y-103635002D01*
X140555227Y-103635001D01*
X140623549Y-103606701D01*
X140694455Y-103577331D01*
X140820564Y-103480564D01*
X140917331Y-103354454D01*
X140951404Y-103272195D01*
X140975001Y-103215227D01*
X140975002Y-103215224D01*
X140978161Y-103207597D01*
X140998909Y-103050000D01*
X140978161Y-102892403D01*
X140917331Y-102745546D01*
X140820564Y-102619436D01*
X140694455Y-102522669D01*
X140577541Y-102474242D01*
X140555227Y-102464999D01*
X140555224Y-102464998D01*
X140547597Y-102461839D01*
X140494693Y-102454874D01*
X140412848Y-102444099D01*
X140390000Y-102441091D01*
X140368228Y-102443957D01*
X140240589Y-102460761D01*
X140240587Y-102460762D01*
X140232403Y-102461839D01*
X140231961Y-102462022D01*
X140207063Y-102465300D01*
X139871609Y-102465300D01*
X139803488Y-102445298D01*
X139782514Y-102428395D01*
X139750447Y-102396328D01*
X139636505Y-102338272D01*
X139626715Y-102336721D01*
X139626714Y-102336721D01*
X139600237Y-102332528D01*
X139541970Y-102323299D01*
X139078430Y-102323299D01*
X139020163Y-102332528D01*
X138993686Y-102336721D01*
X138993685Y-102336721D01*
X138983895Y-102338272D01*
X138869953Y-102396328D01*
X138779529Y-102486752D01*
X138721473Y-102600694D01*
X138719922Y-102610484D01*
X138719922Y-102610485D01*
X138717805Y-102623850D01*
X138706500Y-102695229D01*
X138706500Y-103308769D01*
X138263900Y-103308769D01*
X138263900Y-102695229D01*
X138252595Y-102623850D01*
X138250478Y-102610485D01*
X138250478Y-102610484D01*
X138248927Y-102600694D01*
X138190871Y-102486752D01*
X138100447Y-102396328D01*
X137986505Y-102338272D01*
X137976715Y-102336721D01*
X137976714Y-102336721D01*
X137950237Y-102332528D01*
X137891970Y-102323299D01*
X137428430Y-102323299D01*
X137370163Y-102332528D01*
X137343686Y-102336721D01*
X137343685Y-102336721D01*
X137333895Y-102338272D01*
X137297151Y-102356994D01*
X137228786Y-102391827D01*
X137228784Y-102391828D01*
X137219953Y-102396328D01*
X137219680Y-102395792D01*
X137159983Y-102417093D01*
X137152788Y-102417299D01*
X136122640Y-102417299D01*
X136054519Y-102397297D01*
X136008026Y-102343641D01*
X135997796Y-102276566D01*
X135997698Y-102276559D01*
X135997728Y-102276124D01*
X135997634Y-102275505D01*
X135997643Y-102275438D01*
X135998385Y-102269563D01*
X135998798Y-102240000D01*
X135978633Y-102034345D01*
X135974927Y-102022068D01*
X135920688Y-101842422D01*
X135918907Y-101836523D01*
X135821895Y-101654070D01*
X135818005Y-101649300D01*
X135818002Y-101649296D01*
X135695187Y-101498710D01*
X135695184Y-101498707D01*
X135691292Y-101493935D01*
X135686543Y-101490006D01*
X135536822Y-101366146D01*
X135536819Y-101366144D01*
X135532072Y-101362217D01*
X135350301Y-101263933D01*
X135177618Y-101210479D01*
X135158788Y-101204650D01*
X135158785Y-101204649D01*
X135152901Y-101202828D01*
X135146776Y-101202184D01*
X135146775Y-101202184D01*
X134953520Y-101181872D01*
X134953519Y-101181872D01*
X134947392Y-101181228D01*
X134820582Y-101192768D01*
X134747742Y-101199397D01*
X134747741Y-101199397D01*
X134741601Y-101199956D01*
X134543367Y-101258300D01*
X134360241Y-101354036D01*
X134199198Y-101483518D01*
X134195239Y-101488236D01*
X134195238Y-101488237D01*
X134159549Y-101530769D01*
X134066371Y-101641814D01*
X134063408Y-101647203D01*
X134063405Y-101647208D01*
X133979534Y-101799770D01*
X133966821Y-101822895D01*
X133904339Y-102019864D01*
X133903653Y-102025981D01*
X133903652Y-102025985D01*
X133887064Y-102173873D01*
X133881305Y-102225217D01*
X132490000Y-102225217D01*
X132490000Y-100570064D01*
X133886300Y-100570064D01*
X133898119Y-100629480D01*
X133943140Y-100696860D01*
X134010520Y-100741881D01*
X134069936Y-100753700D01*
X135810064Y-100753700D01*
X135869480Y-100741881D01*
X135936860Y-100696860D01*
X135981881Y-100629480D01*
X135993700Y-100570064D01*
X135993700Y-100410700D01*
X136013702Y-100342579D01*
X136067358Y-100296086D01*
X136119700Y-100284700D01*
X143422845Y-100284700D01*
X143490966Y-100304702D01*
X143537459Y-100358358D01*
X143548845Y-100410700D01*
X143548845Y-102180060D01*
X143560664Y-102239476D01*
X143605685Y-102306856D01*
X143616000Y-102313748D01*
X143644301Y-102332658D01*
X143689829Y-102387135D01*
X143700300Y-102437424D01*
X143700300Y-104707591D01*
X143680298Y-104775712D01*
X143663395Y-104796686D01*
X143645329Y-104814752D01*
X143587273Y-104928694D01*
X143585722Y-104938484D01*
X143585722Y-104938485D01*
X143582510Y-104958763D01*
X143572300Y-105023229D01*
X143572300Y-105486769D01*
X143587273Y-105581304D01*
X143645329Y-105695246D01*
X143735753Y-105785670D01*
X143849695Y-105843726D01*
X143859485Y-105845277D01*
X143859486Y-105845277D01*
X143885963Y-105849470D01*
X143944230Y-105858699D01*
X144557770Y-105858699D01*
X144616037Y-105849470D01*
X144642514Y-105845277D01*
X144642515Y-105845277D01*
X144652305Y-105843726D01*
X144766247Y-105785670D01*
X144856671Y-105695246D01*
X144914727Y-105581304D01*
X144929700Y-105486769D01*
X144929700Y-105292392D01*
X144949702Y-105224271D01*
X145003358Y-105177778D01*
X145073632Y-105167674D01*
X145136869Y-105196554D01*
X145137987Y-105198012D01*
X145144419Y-105202947D01*
X145144426Y-105202954D01*
X145162109Y-105216522D01*
X145174501Y-105227390D01*
X145313395Y-105366284D01*
X145347421Y-105428596D01*
X145350300Y-105455379D01*
X145350300Y-105486769D01*
X145365273Y-105581304D01*
X145423329Y-105695246D01*
X145513753Y-105785670D01*
X145627695Y-105843726D01*
X145637485Y-105845277D01*
X145637486Y-105845277D01*
X145663963Y-105849470D01*
X145722230Y-105858699D01*
X146335770Y-105858699D01*
X146394037Y-105849470D01*
X146420514Y-105845277D01*
X146420515Y-105845277D01*
X146430305Y-105843726D01*
X146544247Y-105785670D01*
X146634671Y-105695246D01*
X146692727Y-105581304D01*
X146707700Y-105486769D01*
X146707700Y-105023229D01*
X146697490Y-104958763D01*
X146694278Y-104938485D01*
X146694278Y-104938484D01*
X146692727Y-104928694D01*
X146634671Y-104814752D01*
X146544247Y-104724328D01*
X146430305Y-104666272D01*
X146420515Y-104664721D01*
X146420514Y-104664721D01*
X146394037Y-104660528D01*
X146335770Y-104651299D01*
X146304380Y-104651299D01*
X146236259Y-104631297D01*
X146215285Y-104614394D01*
X146176605Y-104575714D01*
X146142579Y-104513402D01*
X146139700Y-104486619D01*
X146139700Y-102285328D01*
X146159702Y-102217207D01*
X146213358Y-102170714D01*
X146283632Y-102160610D01*
X146352354Y-102193855D01*
X146381025Y-102221016D01*
X146529463Y-102307235D01*
X146693755Y-102356994D01*
X146865087Y-102367623D01*
X146872302Y-102366383D01*
X146872306Y-102366383D01*
X147027048Y-102339794D01*
X147027050Y-102339793D01*
X147034269Y-102338553D01*
X147108761Y-102306856D01*
X147185488Y-102274208D01*
X147185490Y-102274207D01*
X147192225Y-102271341D01*
X147297517Y-102193855D01*
X147309618Y-102184950D01*
X147376339Y-102160684D01*
X147445587Y-102176342D01*
X147495377Y-102226953D01*
X147510300Y-102286432D01*
X147510300Y-104542370D01*
X147490298Y-104610491D01*
X147436642Y-104656984D01*
X147423237Y-104662203D01*
X147415488Y-104664721D01*
X147405695Y-104666272D01*
X147291753Y-104724328D01*
X147201329Y-104814752D01*
X147143273Y-104928694D01*
X147141722Y-104938484D01*
X147141722Y-104938485D01*
X147138510Y-104958763D01*
X147128300Y-105023229D01*
X147128300Y-105486769D01*
X147143273Y-105581304D01*
X147201329Y-105695246D01*
X147291753Y-105785670D01*
X147405695Y-105843726D01*
X147415485Y-105845277D01*
X147415486Y-105845277D01*
X147441963Y-105849470D01*
X147500230Y-105858699D01*
X148113770Y-105858699D01*
X148172037Y-105849470D01*
X148198514Y-105845277D01*
X148198515Y-105845277D01*
X148208305Y-105843726D01*
X148322247Y-105785670D01*
X148412671Y-105695246D01*
X148470727Y-105581304D01*
X148485700Y-105486769D01*
X148485700Y-105460992D01*
X148505702Y-105392871D01*
X148512525Y-105384405D01*
X148512013Y-105384012D01*
X148538381Y-105349649D01*
X148600705Y-105268426D01*
X148600707Y-105268422D01*
X148605734Y-105261871D01*
X148664650Y-105119636D01*
X148684746Y-104966999D01*
X148680778Y-104936859D01*
X148679700Y-104920413D01*
X148679700Y-102122647D01*
X148699702Y-102054526D01*
X148703685Y-102049152D01*
X148706891Y-102044344D01*
X148711626Y-102038771D01*
X148789692Y-101885888D01*
X148800762Y-101840652D01*
X148823860Y-101746257D01*
X148830494Y-101719146D01*
X148831165Y-101708329D01*
X148831165Y-100849467D01*
X148816298Y-100721950D01*
X148811508Y-100708752D01*
X148760224Y-100567469D01*
X148757727Y-100560590D01*
X148689225Y-100456106D01*
X148667618Y-100423150D01*
X148667617Y-100423149D01*
X148663606Y-100417031D01*
X148538985Y-100298976D01*
X148390547Y-100212757D01*
X148226255Y-100162998D01*
X148054923Y-100152369D01*
X148047708Y-100153609D01*
X148047704Y-100153609D01*
X147892962Y-100180198D01*
X147892960Y-100180199D01*
X147885741Y-100181439D01*
X147878997Y-100184308D01*
X147878999Y-100184308D01*
X147734522Y-100245784D01*
X147734520Y-100245785D01*
X147727785Y-100248651D01*
X147589527Y-100350397D01*
X147584783Y-100355981D01*
X147569803Y-100373613D01*
X147510454Y-100412577D01*
X147439461Y-100413269D01*
X147379363Y-100375470D01*
X147357371Y-100340252D01*
X147343869Y-100307656D01*
X147343868Y-100307655D01*
X147338894Y-100295646D01*
X147338892Y-100295643D01*
X147335734Y-100288018D01*
X147328508Y-100278600D01*
X147265542Y-100196542D01*
X147247035Y-100172423D01*
X147242013Y-100165878D01*
X147232861Y-100158855D01*
X147217898Y-100147374D01*
X147205507Y-100136507D01*
X146388493Y-99319494D01*
X146377625Y-99307101D01*
X146364148Y-99289537D01*
X146359122Y-99282987D01*
X146269407Y-99214147D01*
X146236982Y-99189266D01*
X146229356Y-99186107D01*
X146229354Y-99186106D01*
X146195322Y-99172010D01*
X146102375Y-99133510D01*
X146094746Y-99130350D01*
X146086558Y-99129272D01*
X145980433Y-99115300D01*
X145980428Y-99115300D01*
X145942109Y-99110255D01*
X145933921Y-99111333D01*
X145911976Y-99114222D01*
X145895530Y-99115300D01*
X136119700Y-99115300D01*
X136051579Y-99095298D01*
X136005086Y-99041642D01*
X135993700Y-98989300D01*
X135993700Y-98829936D01*
X135981881Y-98770520D01*
X135936860Y-98703140D01*
X135869480Y-98658119D01*
X135810064Y-98646300D01*
X134069936Y-98646300D01*
X134010520Y-98658119D01*
X133943140Y-98703140D01*
X133898119Y-98770520D01*
X133886300Y-98829936D01*
X133886300Y-100570064D01*
X132490000Y-100570064D01*
X132490000Y-91799438D01*
X133785066Y-91799438D01*
X133811883Y-92021044D01*
X133877519Y-92234400D01*
X133979901Y-92432759D01*
X133983310Y-92437201D01*
X133983312Y-92437205D01*
X134069975Y-92550146D01*
X134115790Y-92609854D01*
X134280893Y-92760086D01*
X134469990Y-92878707D01*
X134677105Y-92961966D01*
X134682593Y-92963103D01*
X134682598Y-92963104D01*
X134832896Y-92994229D01*
X134895690Y-93007233D01*
X134900303Y-93007499D01*
X134950526Y-93010395D01*
X134950530Y-93010395D01*
X134952349Y-93010500D01*
X135096630Y-93010500D01*
X135099417Y-93010251D01*
X135099423Y-93010251D01*
X135168997Y-93004041D01*
X135262339Y-92995711D01*
X135267753Y-92994230D01*
X135267758Y-92994229D01*
X135395104Y-92959390D01*
X135477651Y-92936808D01*
X135482709Y-92934396D01*
X135482713Y-92934394D01*
X135599462Y-92878707D01*
X135679129Y-92840708D01*
X135860405Y-92710448D01*
X135975779Y-92591392D01*
X136011846Y-92554174D01*
X136011848Y-92554171D01*
X136015749Y-92550146D01*
X136140250Y-92364868D01*
X136167061Y-92303792D01*
X136193147Y-92244366D01*
X136229974Y-92160471D01*
X136231282Y-92155023D01*
X136231284Y-92155017D01*
X136280775Y-91948872D01*
X136280775Y-91948871D01*
X136282085Y-91943415D01*
X136286941Y-91859197D01*
X136294611Y-91726169D01*
X136294611Y-91726166D01*
X136294934Y-91720562D01*
X136271563Y-91527431D01*
X141476899Y-91527431D01*
X141524953Y-91727586D01*
X141528002Y-91736971D01*
X141616012Y-91949447D01*
X141620493Y-91958241D01*
X141740663Y-92154341D01*
X141746456Y-92162314D01*
X141895829Y-92337207D01*
X141902793Y-92344171D01*
X142077686Y-92493544D01*
X142085659Y-92499337D01*
X142281759Y-92619507D01*
X142290553Y-92623988D01*
X142503029Y-92711998D01*
X142512414Y-92715047D01*
X142708385Y-92762096D01*
X142722470Y-92761391D01*
X142726000Y-92752512D01*
X142726000Y-92748210D01*
X143234000Y-92748210D01*
X143237973Y-92761741D01*
X143247431Y-92763101D01*
X143447586Y-92715047D01*
X143456971Y-92711998D01*
X143669447Y-92623988D01*
X143678241Y-92619507D01*
X143874341Y-92499337D01*
X143882314Y-92493544D01*
X144057207Y-92344171D01*
X144064171Y-92337207D01*
X144213544Y-92162314D01*
X144219337Y-92154341D01*
X144323301Y-91984687D01*
X144375949Y-91937056D01*
X144445990Y-91925449D01*
X144511188Y-91953552D01*
X144533944Y-91978248D01*
X144582087Y-92047003D01*
X144732997Y-92197913D01*
X144737505Y-92201070D01*
X144737508Y-92201072D01*
X144788652Y-92236883D01*
X144907820Y-92320326D01*
X144912802Y-92322649D01*
X144912807Y-92322652D01*
X145020600Y-92372916D01*
X145101245Y-92410521D01*
X145106553Y-92411943D01*
X145106555Y-92411944D01*
X145141204Y-92421228D01*
X145263139Y-92453900D01*
X145319622Y-92486512D01*
X152659615Y-99826506D01*
X152670482Y-99838897D01*
X152688986Y-99863012D01*
X152719650Y-99886541D01*
X152719651Y-99886542D01*
X152811126Y-99956733D01*
X152953362Y-100015649D01*
X153105999Y-100035745D01*
X153136137Y-100031777D01*
X153152584Y-100030699D01*
X154983500Y-100030699D01*
X155051621Y-100050701D01*
X155098114Y-100104357D01*
X155109500Y-100156699D01*
X155109500Y-100795363D01*
X155105179Y-100822647D01*
X155105473Y-100822694D01*
X155090500Y-100917229D01*
X155090500Y-101530769D01*
X155091275Y-101535659D01*
X155105473Y-101625304D01*
X155105179Y-101625351D01*
X155109500Y-101652635D01*
X155109500Y-102573363D01*
X155105179Y-102600647D01*
X155105473Y-102600694D01*
X155090500Y-102695229D01*
X155090500Y-103308769D01*
X155102178Y-103382502D01*
X155105473Y-103403304D01*
X155105179Y-103403351D01*
X155109500Y-103430635D01*
X155109500Y-104351363D01*
X155105179Y-104378647D01*
X155105473Y-104378694D01*
X155090500Y-104473229D01*
X155090500Y-105086769D01*
X155104915Y-105177778D01*
X155105473Y-105181304D01*
X155105179Y-105181351D01*
X155109500Y-105208635D01*
X155109500Y-106129363D01*
X155105179Y-106156647D01*
X155105473Y-106156694D01*
X155090500Y-106251229D01*
X155090500Y-106864769D01*
X155095684Y-106897498D01*
X155101455Y-106933933D01*
X155105473Y-106959304D01*
X155163529Y-107073246D01*
X155253953Y-107163670D01*
X155367895Y-107221726D01*
X155377685Y-107223277D01*
X155377686Y-107223277D01*
X155404163Y-107227470D01*
X155462430Y-107236699D01*
X155925970Y-107236699D01*
X155984237Y-107227470D01*
X156010714Y-107223277D01*
X156010715Y-107223277D01*
X156020505Y-107221726D01*
X156134447Y-107163670D01*
X156224871Y-107073246D01*
X156282927Y-106959304D01*
X156286946Y-106933933D01*
X156292716Y-106897498D01*
X156297900Y-106864769D01*
X156297900Y-106251229D01*
X156282927Y-106156694D01*
X156283221Y-106156647D01*
X156278900Y-106129363D01*
X156278900Y-105208635D01*
X156283221Y-105181351D01*
X156282927Y-105181304D01*
X156283485Y-105177778D01*
X156297900Y-105086769D01*
X156297900Y-104473229D01*
X156282927Y-104378694D01*
X156283221Y-104378647D01*
X156278900Y-104351363D01*
X156278900Y-103430635D01*
X156283221Y-103403351D01*
X156282927Y-103403304D01*
X156286222Y-103382502D01*
X156297900Y-103308769D01*
X156297900Y-102695229D01*
X156282927Y-102600694D01*
X156283221Y-102600647D01*
X156278900Y-102573363D01*
X156278900Y-101652635D01*
X156283221Y-101625351D01*
X156282927Y-101625304D01*
X156297125Y-101535659D01*
X156297900Y-101530769D01*
X156297900Y-100917229D01*
X156282927Y-100822694D01*
X156283221Y-100822647D01*
X156278900Y-100795363D01*
X156278900Y-99874635D01*
X156283221Y-99847351D01*
X156282927Y-99847304D01*
X156288448Y-99812446D01*
X156297900Y-99752769D01*
X156297900Y-99530779D01*
X156317902Y-99462658D01*
X156371558Y-99416165D01*
X156441832Y-99406061D01*
X156506412Y-99435555D01*
X156512995Y-99441684D01*
X156703595Y-99632284D01*
X156737621Y-99694596D01*
X156740500Y-99721379D01*
X156740500Y-99752769D01*
X156755473Y-99847304D01*
X156813529Y-99961246D01*
X156903953Y-100051670D01*
X157017895Y-100109726D01*
X157027685Y-100111277D01*
X157027686Y-100111277D01*
X157054163Y-100115470D01*
X157112430Y-100124699D01*
X157312420Y-100124699D01*
X157380541Y-100144701D01*
X157427034Y-100198357D01*
X157437138Y-100268631D01*
X157407644Y-100333211D01*
X157401515Y-100339794D01*
X157232915Y-100508394D01*
X157170603Y-100542420D01*
X157143820Y-100545299D01*
X157112430Y-100545299D01*
X157054527Y-100554470D01*
X157027686Y-100558721D01*
X157027685Y-100558721D01*
X157017895Y-100560272D01*
X156903953Y-100618328D01*
X156813529Y-100708752D01*
X156755473Y-100822694D01*
X156753922Y-100832484D01*
X156753922Y-100832485D01*
X156750652Y-100853130D01*
X156740500Y-100917229D01*
X156740500Y-101530769D01*
X156755473Y-101625304D01*
X156813529Y-101739246D01*
X156903953Y-101829670D01*
X157017895Y-101887726D01*
X157027685Y-101889277D01*
X157027686Y-101889277D01*
X157047462Y-101892409D01*
X157112430Y-101902699D01*
X157312420Y-101902699D01*
X157380541Y-101922701D01*
X157427034Y-101976357D01*
X157437138Y-102046631D01*
X157407644Y-102111211D01*
X157401515Y-102117794D01*
X157232915Y-102286394D01*
X157170603Y-102320420D01*
X157143820Y-102323299D01*
X157112430Y-102323299D01*
X157054163Y-102332528D01*
X157027686Y-102336721D01*
X157027685Y-102336721D01*
X157017895Y-102338272D01*
X156903953Y-102396328D01*
X156813529Y-102486752D01*
X156755473Y-102600694D01*
X156753922Y-102610484D01*
X156753922Y-102610485D01*
X156751805Y-102623850D01*
X156740500Y-102695229D01*
X156740500Y-103308769D01*
X156755473Y-103403304D01*
X156813529Y-103517246D01*
X156903953Y-103607670D01*
X157017895Y-103665726D01*
X157027685Y-103667277D01*
X157027686Y-103667277D01*
X157054163Y-103671470D01*
X157112430Y-103680699D01*
X157538221Y-103680699D01*
X157606342Y-103700701D01*
X157652835Y-103754357D01*
X157662939Y-103824631D01*
X157633445Y-103889211D01*
X157627316Y-103895794D01*
X157458716Y-104064394D01*
X157396404Y-104098420D01*
X157369621Y-104101299D01*
X157112430Y-104101299D01*
X157054163Y-104110528D01*
X157027686Y-104114721D01*
X157027685Y-104114721D01*
X157017895Y-104116272D01*
X156903953Y-104174328D01*
X156813529Y-104264752D01*
X156755473Y-104378694D01*
X156753922Y-104388484D01*
X156753922Y-104388485D01*
X156752179Y-104399493D01*
X156740500Y-104473229D01*
X156740500Y-105086769D01*
X156741275Y-105091659D01*
X156752178Y-105160498D01*
X156755473Y-105181304D01*
X156813529Y-105295246D01*
X156903953Y-105385670D01*
X157017895Y-105443726D01*
X157027685Y-105445277D01*
X157027686Y-105445277D01*
X157054163Y-105449470D01*
X157112430Y-105458699D01*
X157575970Y-105458699D01*
X157634237Y-105449470D01*
X157660714Y-105445277D01*
X157660715Y-105445277D01*
X157670505Y-105443726D01*
X157784447Y-105385670D01*
X157874871Y-105295246D01*
X157879373Y-105286409D01*
X157879805Y-105285815D01*
X157905035Y-105259916D01*
X157912433Y-105254239D01*
X157928849Y-105241643D01*
X157987014Y-105197012D01*
X157992040Y-105190462D01*
X157992044Y-105190458D01*
X158005524Y-105172890D01*
X158016392Y-105160498D01*
X160687382Y-102489509D01*
X160749694Y-102455483D01*
X160791395Y-102453490D01*
X160917826Y-102468566D01*
X160923961Y-102468094D01*
X160923963Y-102468094D01*
X160978980Y-102463860D01*
X161095757Y-102454874D01*
X161165209Y-102469591D01*
X161194517Y-102491408D01*
X161752106Y-103048997D01*
X161786132Y-103111309D01*
X161789011Y-103138092D01*
X161789011Y-104613942D01*
X161769009Y-104682063D01*
X161715353Y-104728556D01*
X161645079Y-104738660D01*
X161602117Y-104724250D01*
X161503117Y-104669599D01*
X161493705Y-104665369D01*
X161292959Y-104594280D01*
X161282989Y-104591646D01*
X161073327Y-104554301D01*
X161063073Y-104553331D01*
X160850116Y-104550728D01*
X160839832Y-104551448D01*
X160629321Y-104583661D01*
X160619293Y-104586050D01*
X160416868Y-104652212D01*
X160407359Y-104656209D01*
X160218466Y-104754540D01*
X160209734Y-104760039D01*
X160189677Y-104775099D01*
X160181223Y-104786427D01*
X160187968Y-104798758D01*
X161210115Y-105820905D01*
X161244141Y-105883217D01*
X161239076Y-105954032D01*
X161210115Y-105999095D01*
X160186737Y-107022473D01*
X160179123Y-107036417D01*
X160179240Y-107038066D01*
X160200931Y-107096222D01*
X160185839Y-107165596D01*
X160171774Y-107186200D01*
X160145741Y-107217225D01*
X160092821Y-107280292D01*
X160033711Y-107319618D01*
X159996300Y-107325300D01*
X158990581Y-107325300D01*
X158922460Y-107305298D01*
X158901486Y-107288395D01*
X157984805Y-106371714D01*
X157950779Y-106309402D01*
X157947900Y-106282619D01*
X157947900Y-106251229D01*
X157938651Y-106192834D01*
X157934478Y-106166485D01*
X157934478Y-106166484D01*
X157932927Y-106156694D01*
X157874871Y-106042752D01*
X157784447Y-105952328D01*
X157670505Y-105894272D01*
X157660715Y-105892721D01*
X157660714Y-105892721D01*
X157634237Y-105888528D01*
X157592158Y-105881863D01*
X159578050Y-105881863D01*
X159590309Y-106094477D01*
X159591745Y-106104697D01*
X159638565Y-106312446D01*
X159641645Y-106322275D01*
X159721770Y-106519603D01*
X159726413Y-106528794D01*
X159806460Y-106659420D01*
X159816916Y-106668880D01*
X159825694Y-106665096D01*
X160567978Y-105922812D01*
X160575592Y-105908868D01*
X160575461Y-105907035D01*
X160571210Y-105900420D01*
X159829849Y-105159059D01*
X159818313Y-105152759D01*
X159806031Y-105162382D01*
X159758089Y-105232662D01*
X159753004Y-105241613D01*
X159663338Y-105434783D01*
X159659775Y-105444470D01*
X159602864Y-105649681D01*
X159600933Y-105659800D01*
X159578302Y-105871574D01*
X159578050Y-105881863D01*
X157592158Y-105881863D01*
X157575970Y-105879299D01*
X157112430Y-105879299D01*
X157054163Y-105888528D01*
X157027686Y-105892721D01*
X157027685Y-105892721D01*
X157017895Y-105894272D01*
X156903953Y-105952328D01*
X156813529Y-106042752D01*
X156755473Y-106156694D01*
X156753922Y-106166484D01*
X156753922Y-106166485D01*
X156749749Y-106192834D01*
X156740500Y-106251229D01*
X156740500Y-106864769D01*
X156745684Y-106897498D01*
X156751455Y-106933933D01*
X156755473Y-106959304D01*
X156813529Y-107073246D01*
X156903953Y-107163670D01*
X157017895Y-107221726D01*
X157027685Y-107223277D01*
X157027686Y-107223277D01*
X157054163Y-107227470D01*
X157112430Y-107236699D01*
X157143820Y-107236699D01*
X157211941Y-107256701D01*
X157232915Y-107273604D01*
X158249814Y-108290503D01*
X158260681Y-108302894D01*
X158279188Y-108327013D01*
X158346374Y-108378566D01*
X158401328Y-108420734D01*
X158460244Y-108445138D01*
X158535934Y-108476490D01*
X158535937Y-108476491D01*
X158543564Y-108479650D01*
X158551752Y-108480728D01*
X158657877Y-108494700D01*
X158657882Y-108494700D01*
X158696201Y-108499745D01*
X158704389Y-108498667D01*
X158726334Y-108495778D01*
X158742780Y-108494700D01*
X159997928Y-108494700D01*
X160066049Y-108514702D01*
X160096673Y-108542435D01*
X160104808Y-108552699D01*
X160178364Y-108645503D01*
X160335730Y-108779431D01*
X160516111Y-108880243D01*
X160712639Y-108944099D01*
X160917826Y-108968566D01*
X160923961Y-108968094D01*
X160923963Y-108968094D01*
X160978980Y-108963860D01*
X161095757Y-108954874D01*
X161165209Y-108969591D01*
X161194517Y-108991408D01*
X161752106Y-109548997D01*
X161786132Y-109611309D01*
X161789011Y-109638092D01*
X161789011Y-111113942D01*
X161769009Y-111182063D01*
X161715353Y-111228556D01*
X161645079Y-111238660D01*
X161602117Y-111224250D01*
X161503117Y-111169599D01*
X161493705Y-111165369D01*
X161292959Y-111094280D01*
X161282989Y-111091646D01*
X161073327Y-111054301D01*
X161063073Y-111053331D01*
X160850116Y-111050728D01*
X160839832Y-111051448D01*
X160629321Y-111083661D01*
X160619293Y-111086050D01*
X160416868Y-111152212D01*
X160407359Y-111156209D01*
X160218466Y-111254540D01*
X160209734Y-111260039D01*
X160189677Y-111275099D01*
X160181223Y-111286427D01*
X160187968Y-111298758D01*
X161210115Y-112320905D01*
X161244141Y-112383217D01*
X161239076Y-112454032D01*
X161210115Y-112499095D01*
X160186737Y-113522473D01*
X160179977Y-113534853D01*
X160185258Y-113541907D01*
X160346756Y-113636279D01*
X160356042Y-113640729D01*
X160555001Y-113716703D01*
X160564899Y-113719579D01*
X160773595Y-113762038D01*
X160783823Y-113763257D01*
X160996650Y-113771062D01*
X161006936Y-113770595D01*
X161218185Y-113743534D01*
X161228262Y-113741392D01*
X161432255Y-113680191D01*
X161441847Y-113676431D01*
X161607579Y-113595240D01*
X161677553Y-113583233D01*
X161742910Y-113610963D01*
X161782900Y-113669626D01*
X161789011Y-113708391D01*
X161789011Y-114580300D01*
X161769009Y-114648421D01*
X161715353Y-114694914D01*
X161663011Y-114706300D01*
X161069936Y-114706300D01*
X161010520Y-114718119D01*
X160943140Y-114763140D01*
X160898119Y-114830520D01*
X160886300Y-114889936D01*
X160886300Y-116630064D01*
X160898119Y-116689480D01*
X160943140Y-116756860D01*
X160953455Y-116763752D01*
X160996024Y-116792195D01*
X161010520Y-116801881D01*
X161069936Y-116813700D01*
X162810064Y-116813700D01*
X162869480Y-116801881D01*
X162883977Y-116792195D01*
X162926545Y-116763752D01*
X162936860Y-116756860D01*
X162981881Y-116689480D01*
X162993700Y-116630064D01*
X162993700Y-115404780D01*
X163013702Y-115336659D01*
X163067358Y-115290166D01*
X163137632Y-115280062D01*
X163202212Y-115309556D01*
X163208795Y-115315685D01*
X163400314Y-115507204D01*
X163434340Y-115569516D01*
X163436434Y-115610342D01*
X163421305Y-115745217D01*
X163421821Y-115751361D01*
X163438080Y-115944994D01*
X163438081Y-115944999D01*
X163438596Y-115951133D01*
X163457906Y-116018475D01*
X163491260Y-116134791D01*
X163495555Y-116149770D01*
X163590010Y-116333560D01*
X163593835Y-116338386D01*
X163593837Y-116338389D01*
X163653467Y-116413623D01*
X163718364Y-116495503D01*
X163723057Y-116499497D01*
X163723058Y-116499498D01*
X163804370Y-116568699D01*
X163875730Y-116629431D01*
X164056111Y-116730243D01*
X164252639Y-116794099D01*
X164457826Y-116818566D01*
X164463961Y-116818094D01*
X164463963Y-116818094D01*
X164657715Y-116803185D01*
X164657718Y-116803184D01*
X164663858Y-116802712D01*
X164862887Y-116747143D01*
X165047332Y-116653973D01*
X165064311Y-116640708D01*
X165205307Y-116530550D01*
X165205308Y-116530549D01*
X165210168Y-116526752D01*
X165345191Y-116370325D01*
X165447260Y-116190652D01*
X165512486Y-115994575D01*
X165538385Y-115789563D01*
X165538798Y-115760000D01*
X165518633Y-115554345D01*
X165503169Y-115503124D01*
X165460855Y-115362975D01*
X165460314Y-115291980D01*
X165498242Y-115231964D01*
X165562596Y-115201980D01*
X165632945Y-115211548D01*
X165670572Y-115237462D01*
X165940314Y-115507204D01*
X165974340Y-115569516D01*
X165976434Y-115610342D01*
X165961305Y-115745217D01*
X165961821Y-115751361D01*
X165978080Y-115944994D01*
X165978081Y-115944999D01*
X165978596Y-115951133D01*
X165997906Y-116018475D01*
X166031260Y-116134791D01*
X166035555Y-116149770D01*
X166130010Y-116333560D01*
X166133835Y-116338386D01*
X166133837Y-116338389D01*
X166193467Y-116413623D01*
X166258364Y-116495503D01*
X166263057Y-116499497D01*
X166263058Y-116499498D01*
X166344370Y-116568699D01*
X166415730Y-116629431D01*
X166596111Y-116730243D01*
X166792639Y-116794099D01*
X166997826Y-116818566D01*
X167003961Y-116818094D01*
X167003963Y-116818094D01*
X167197715Y-116803185D01*
X167197718Y-116803184D01*
X167203858Y-116802712D01*
X167402887Y-116747143D01*
X167587332Y-116653973D01*
X167604311Y-116640708D01*
X167745307Y-116530550D01*
X167745308Y-116530549D01*
X167750168Y-116526752D01*
X167885191Y-116370325D01*
X167987260Y-116190652D01*
X168009858Y-116122720D01*
X168050338Y-116064398D01*
X168115926Y-116037218D01*
X168185796Y-116049812D01*
X168237766Y-116098182D01*
X168252332Y-116134791D01*
X168258566Y-116162451D01*
X168261645Y-116172275D01*
X168341770Y-116369603D01*
X168346413Y-116378794D01*
X168457694Y-116560388D01*
X168463777Y-116568699D01*
X168603213Y-116729667D01*
X168610580Y-116736883D01*
X168774434Y-116872916D01*
X168782881Y-116878831D01*
X168966756Y-116986279D01*
X168976042Y-116990729D01*
X169175001Y-117066703D01*
X169184899Y-117069579D01*
X169288250Y-117090606D01*
X169302299Y-117089410D01*
X169306000Y-117079065D01*
X169306000Y-117078517D01*
X169814000Y-117078517D01*
X169818064Y-117092359D01*
X169831478Y-117094393D01*
X169838184Y-117093534D01*
X169848262Y-117091392D01*
X170052255Y-117030191D01*
X170061842Y-117026433D01*
X170253095Y-116932739D01*
X170261945Y-116927464D01*
X170435328Y-116803792D01*
X170443200Y-116797139D01*
X170594052Y-116646812D01*
X170600730Y-116638965D01*
X170725003Y-116466020D01*
X170730313Y-116457183D01*
X170824670Y-116266267D01*
X170828469Y-116256672D01*
X170890377Y-116052910D01*
X170892555Y-116042837D01*
X170893986Y-116031962D01*
X170891775Y-116017778D01*
X170878617Y-116014000D01*
X169832115Y-116014000D01*
X169816876Y-116018475D01*
X169815671Y-116019865D01*
X169814000Y-116027548D01*
X169814000Y-117078517D01*
X169306000Y-117078517D01*
X169306000Y-115487885D01*
X169814000Y-115487885D01*
X169818475Y-115503124D01*
X169819865Y-115504329D01*
X169827548Y-115506000D01*
X170878344Y-115506000D01*
X170891875Y-115502027D01*
X170893180Y-115492947D01*
X170851214Y-115325875D01*
X170847894Y-115316124D01*
X170762972Y-115120814D01*
X170758105Y-115111739D01*
X170642426Y-114932926D01*
X170636136Y-114924757D01*
X170492806Y-114767240D01*
X170485273Y-114760215D01*
X170318139Y-114628222D01*
X170309552Y-114622517D01*
X170123117Y-114519599D01*
X170113705Y-114515369D01*
X169912959Y-114444280D01*
X169902988Y-114441646D01*
X169831837Y-114428972D01*
X169818540Y-114430432D01*
X169814000Y-114444989D01*
X169814000Y-115487885D01*
X169306000Y-115487885D01*
X169306000Y-114443102D01*
X169302082Y-114429758D01*
X169287806Y-114427771D01*
X169249324Y-114433660D01*
X169239288Y-114436051D01*
X169036868Y-114502212D01*
X169027359Y-114506209D01*
X168838463Y-114604542D01*
X168829738Y-114610036D01*
X168659433Y-114737905D01*
X168651726Y-114744748D01*
X168504590Y-114898717D01*
X168498104Y-114906727D01*
X168378098Y-115082649D01*
X168373000Y-115091623D01*
X168283338Y-115284783D01*
X168279775Y-115294470D01*
X168252612Y-115392415D01*
X168215133Y-115452713D01*
X168151004Y-115483176D01*
X168080586Y-115474133D01*
X168026236Y-115428454D01*
X168010573Y-115395162D01*
X168004964Y-115376585D01*
X167998907Y-115356523D01*
X167932678Y-115231964D01*
X167904789Y-115179512D01*
X167904787Y-115179509D01*
X167901895Y-115174070D01*
X167898005Y-115169300D01*
X167898002Y-115169296D01*
X167775187Y-115018710D01*
X167775184Y-115018707D01*
X167771292Y-115013935D01*
X167766543Y-115010006D01*
X167616822Y-114886146D01*
X167616819Y-114886144D01*
X167612072Y-114882217D01*
X167430301Y-114783933D01*
X167303714Y-114744748D01*
X167238788Y-114724650D01*
X167238785Y-114724649D01*
X167232901Y-114722828D01*
X167226776Y-114722184D01*
X167226775Y-114722184D01*
X167033520Y-114701872D01*
X167033519Y-114701872D01*
X167027392Y-114701228D01*
X166866856Y-114715838D01*
X166797205Y-114702093D01*
X166766343Y-114679452D01*
X165621743Y-113534853D01*
X166679977Y-113534853D01*
X166685258Y-113541907D01*
X166846756Y-113636279D01*
X166856042Y-113640729D01*
X167055001Y-113716703D01*
X167064899Y-113719579D01*
X167273595Y-113762038D01*
X167283823Y-113763257D01*
X167496650Y-113771062D01*
X167506936Y-113770595D01*
X167718185Y-113743534D01*
X167728262Y-113741392D01*
X167932255Y-113680191D01*
X167941842Y-113676433D01*
X168133098Y-113582738D01*
X168141944Y-113577465D01*
X168189247Y-113543723D01*
X168197648Y-113533023D01*
X168190660Y-113519870D01*
X167452812Y-112782022D01*
X167438868Y-112774408D01*
X167437035Y-112774539D01*
X167430420Y-112778790D01*
X166686737Y-113522473D01*
X166679977Y-113534853D01*
X165621743Y-113534853D01*
X164924756Y-112837866D01*
X164890731Y-112775554D01*
X164887851Y-112748771D01*
X164887851Y-112381863D01*
X166078050Y-112381863D01*
X166090309Y-112594477D01*
X166091745Y-112604697D01*
X166138565Y-112812446D01*
X166141645Y-112822275D01*
X166221770Y-113019603D01*
X166226413Y-113028794D01*
X166306460Y-113159420D01*
X166316916Y-113168880D01*
X166325694Y-113165096D01*
X167067978Y-112422812D01*
X167074356Y-112411132D01*
X167804408Y-112411132D01*
X167804539Y-112412965D01*
X167808790Y-112419580D01*
X168550474Y-113161264D01*
X168562484Y-113167823D01*
X168574223Y-113158855D01*
X168605004Y-113116019D01*
X168610315Y-113107180D01*
X168704670Y-112916267D01*
X168708469Y-112906672D01*
X168770376Y-112702915D01*
X168772555Y-112692834D01*
X168800590Y-112479887D01*
X168801109Y-112473212D01*
X168802572Y-112413364D01*
X168802378Y-112406646D01*
X168784781Y-112192604D01*
X168783096Y-112182424D01*
X168731214Y-111975875D01*
X168727894Y-111966124D01*
X168642972Y-111770814D01*
X168638105Y-111761739D01*
X168573063Y-111661197D01*
X168562377Y-111651995D01*
X168552812Y-111656398D01*
X167812022Y-112397188D01*
X167804408Y-112411132D01*
X167074356Y-112411132D01*
X167075592Y-112408868D01*
X167075461Y-112407035D01*
X167071210Y-112400420D01*
X166329849Y-111659059D01*
X166318313Y-111652759D01*
X166306031Y-111662382D01*
X166258089Y-111732662D01*
X166253004Y-111741613D01*
X166163338Y-111934783D01*
X166159775Y-111944470D01*
X166102864Y-112149681D01*
X166100933Y-112159800D01*
X166078302Y-112371574D01*
X166078050Y-112381863D01*
X164887851Y-112381863D01*
X164887851Y-111286427D01*
X166681223Y-111286427D01*
X166687968Y-111298758D01*
X167427188Y-112037978D01*
X167441132Y-112045592D01*
X167442965Y-112045461D01*
X167449580Y-112041210D01*
X168193389Y-111297401D01*
X168200410Y-111284544D01*
X168193611Y-111275213D01*
X168189554Y-111272518D01*
X168003117Y-111169599D01*
X167993705Y-111165369D01*
X167792959Y-111094280D01*
X167782989Y-111091646D01*
X167573327Y-111054301D01*
X167563073Y-111053331D01*
X167350116Y-111050728D01*
X167339832Y-111051448D01*
X167129321Y-111083661D01*
X167119293Y-111086050D01*
X166916868Y-111152212D01*
X166907359Y-111156209D01*
X166718466Y-111254540D01*
X166709734Y-111260039D01*
X166689677Y-111275099D01*
X166681223Y-111286427D01*
X164887851Y-111286427D01*
X164887851Y-108591089D01*
X164888929Y-108574642D01*
X164891818Y-108552699D01*
X164892896Y-108544511D01*
X164885736Y-108490125D01*
X164877017Y-108423894D01*
X164873879Y-108400062D01*
X164872801Y-108391874D01*
X164856365Y-108352195D01*
X164817437Y-108258214D01*
X164813885Y-108249639D01*
X164813885Y-108249638D01*
X164796431Y-108226891D01*
X164767686Y-108189431D01*
X164767685Y-108189430D01*
X164764622Y-108185438D01*
X164720164Y-108127498D01*
X164713614Y-108122472D01*
X164713610Y-108122468D01*
X164696042Y-108108988D01*
X164683650Y-108098120D01*
X164480747Y-107895217D01*
X166381305Y-107895217D01*
X166381821Y-107901361D01*
X166398080Y-108094994D01*
X166398081Y-108094999D01*
X166398596Y-108101133D01*
X166409298Y-108138455D01*
X166452898Y-108290503D01*
X166455555Y-108299770D01*
X166479322Y-108346015D01*
X166546377Y-108476490D01*
X166550010Y-108483560D01*
X166553835Y-108488386D01*
X166553837Y-108488389D01*
X166622200Y-108574642D01*
X166678364Y-108645503D01*
X166835730Y-108779431D01*
X167016111Y-108880243D01*
X167212639Y-108944099D01*
X167417826Y-108968566D01*
X167423961Y-108968094D01*
X167423963Y-108968094D01*
X167617715Y-108953185D01*
X167617718Y-108953184D01*
X167623858Y-108952712D01*
X167822887Y-108897143D01*
X168007332Y-108803973D01*
X168034899Y-108782436D01*
X168165307Y-108680550D01*
X168165308Y-108680549D01*
X168170168Y-108676752D01*
X168305191Y-108520325D01*
X168308386Y-108514702D01*
X168373510Y-108400062D01*
X168407260Y-108340652D01*
X168472486Y-108144575D01*
X168498385Y-107939563D01*
X168498798Y-107910000D01*
X168478633Y-107704345D01*
X168418907Y-107506523D01*
X168365041Y-107405216D01*
X168324789Y-107329512D01*
X168324787Y-107329509D01*
X168321895Y-107324070D01*
X168318001Y-107319295D01*
X168317998Y-107319291D01*
X168205889Y-107181831D01*
X168178335Y-107116400D01*
X168190531Y-107046458D01*
X168198262Y-107034180D01*
X168190660Y-107019870D01*
X167452812Y-106282022D01*
X167438868Y-106274408D01*
X167437035Y-106274539D01*
X167430420Y-106278790D01*
X166686737Y-107022473D01*
X166679123Y-107036417D01*
X166679240Y-107038066D01*
X166700931Y-107096222D01*
X166685839Y-107165596D01*
X166671774Y-107186200D01*
X166566371Y-107311814D01*
X166563408Y-107317203D01*
X166563405Y-107317208D01*
X166515023Y-107405216D01*
X166466821Y-107492895D01*
X166404339Y-107689864D01*
X166403653Y-107695981D01*
X166403652Y-107695985D01*
X166393254Y-107788688D01*
X166381305Y-107895217D01*
X164480747Y-107895217D01*
X163960036Y-107374506D01*
X163926010Y-107312194D01*
X163923131Y-107285411D01*
X163923131Y-105881863D01*
X166078050Y-105881863D01*
X166090309Y-106094477D01*
X166091745Y-106104697D01*
X166138565Y-106312446D01*
X166141645Y-106322275D01*
X166221770Y-106519603D01*
X166226413Y-106528794D01*
X166306460Y-106659420D01*
X166316916Y-106668880D01*
X166325694Y-106665096D01*
X167067978Y-105922812D01*
X167074356Y-105911132D01*
X167804408Y-105911132D01*
X167804539Y-105912965D01*
X167808790Y-105919580D01*
X168550474Y-106661264D01*
X168562484Y-106667823D01*
X168574223Y-106658855D01*
X168605004Y-106616019D01*
X168610315Y-106607180D01*
X168704670Y-106416267D01*
X168708469Y-106406672D01*
X168770376Y-106202915D01*
X168772555Y-106192834D01*
X168800590Y-105979887D01*
X168801109Y-105973212D01*
X168802572Y-105913364D01*
X168802378Y-105906646D01*
X168784781Y-105692604D01*
X168783096Y-105682424D01*
X168731214Y-105475875D01*
X168727894Y-105466124D01*
X168642972Y-105270814D01*
X168638105Y-105261739D01*
X168573063Y-105161197D01*
X168562377Y-105151995D01*
X168552812Y-105156398D01*
X167812022Y-105897188D01*
X167804408Y-105911132D01*
X167074356Y-105911132D01*
X167075592Y-105908868D01*
X167075461Y-105907035D01*
X167071210Y-105900420D01*
X166329849Y-105159059D01*
X166318313Y-105152759D01*
X166306031Y-105162382D01*
X166258089Y-105232662D01*
X166253004Y-105241613D01*
X166163338Y-105434783D01*
X166159775Y-105444470D01*
X166102864Y-105649681D01*
X166100933Y-105659800D01*
X166078302Y-105871574D01*
X166078050Y-105881863D01*
X163923131Y-105881863D01*
X163923131Y-104786427D01*
X166681223Y-104786427D01*
X166687968Y-104798758D01*
X167427188Y-105537978D01*
X167441132Y-105545592D01*
X167442965Y-105545461D01*
X167449580Y-105541210D01*
X168193389Y-104797401D01*
X168200410Y-104784544D01*
X168193611Y-104775213D01*
X168189554Y-104772518D01*
X168003117Y-104669599D01*
X167993705Y-104665369D01*
X167792959Y-104594280D01*
X167782989Y-104591646D01*
X167573327Y-104554301D01*
X167563073Y-104553331D01*
X167350116Y-104550728D01*
X167339832Y-104551448D01*
X167129321Y-104583661D01*
X167119293Y-104586050D01*
X166916868Y-104652212D01*
X166907359Y-104656209D01*
X166718466Y-104754540D01*
X166709734Y-104760039D01*
X166689677Y-104775099D01*
X166681223Y-104786427D01*
X163923131Y-104786427D01*
X163923131Y-102490689D01*
X163924209Y-102474242D01*
X163927098Y-102452299D01*
X163928176Y-102444111D01*
X163923131Y-102405790D01*
X163908081Y-102291474D01*
X163904338Y-102282436D01*
X163861932Y-102180060D01*
X163852325Y-102156868D01*
X163849165Y-102149238D01*
X163791049Y-102073500D01*
X163755444Y-102027098D01*
X163748894Y-102022072D01*
X163748890Y-102022068D01*
X163731322Y-102008588D01*
X163718930Y-101997720D01*
X163116427Y-101395217D01*
X166381305Y-101395217D01*
X166381821Y-101401361D01*
X166398080Y-101594994D01*
X166398081Y-101594999D01*
X166398596Y-101601133D01*
X166455555Y-101799770D01*
X166550010Y-101983560D01*
X166553835Y-101988386D01*
X166553837Y-101988389D01*
X166621295Y-102073500D01*
X166678364Y-102145503D01*
X166683057Y-102149497D01*
X166683058Y-102149498D01*
X166779248Y-102231361D01*
X166835730Y-102279431D01*
X167016111Y-102380243D01*
X167212639Y-102444099D01*
X167417826Y-102468566D01*
X167423961Y-102468094D01*
X167423963Y-102468094D01*
X167617715Y-102453185D01*
X167617718Y-102453184D01*
X167623858Y-102452712D01*
X167822887Y-102397143D01*
X168007332Y-102303973D01*
X168015088Y-102297914D01*
X168165307Y-102180550D01*
X168165308Y-102180549D01*
X168170168Y-102176752D01*
X168299345Y-102027098D01*
X168301167Y-102024987D01*
X168301167Y-102024986D01*
X168305191Y-102020325D01*
X168318033Y-101997720D01*
X168404213Y-101846015D01*
X168407260Y-101840652D01*
X168472486Y-101644575D01*
X168498385Y-101439563D01*
X168498798Y-101410000D01*
X168478633Y-101204345D01*
X168471823Y-101181787D01*
X168420688Y-101012422D01*
X168418907Y-101006523D01*
X168368828Y-100912339D01*
X168324789Y-100829512D01*
X168324787Y-100829509D01*
X168321895Y-100824070D01*
X168318001Y-100819295D01*
X168317998Y-100819291D01*
X168205889Y-100681831D01*
X168178335Y-100616400D01*
X168190531Y-100546458D01*
X168198262Y-100534180D01*
X168190660Y-100519870D01*
X167452812Y-99782022D01*
X167438868Y-99774408D01*
X167437035Y-99774539D01*
X167430420Y-99778790D01*
X166686737Y-100522473D01*
X166679123Y-100536417D01*
X166679240Y-100538066D01*
X166700931Y-100596222D01*
X166685839Y-100665596D01*
X166671774Y-100686200D01*
X166566371Y-100811814D01*
X166563408Y-100817203D01*
X166563405Y-100817208D01*
X166469788Y-100987498D01*
X166466821Y-100992895D01*
X166404339Y-101189864D01*
X166403653Y-101195981D01*
X166403652Y-101195985D01*
X166384566Y-101366146D01*
X166381305Y-101395217D01*
X163116427Y-101395217D01*
X162995316Y-101274106D01*
X162961290Y-101211794D01*
X162958411Y-101185011D01*
X162958411Y-99381863D01*
X166078050Y-99381863D01*
X166090309Y-99594477D01*
X166091745Y-99604697D01*
X166138565Y-99812446D01*
X166141645Y-99822275D01*
X166221770Y-100019603D01*
X166226413Y-100028794D01*
X166306460Y-100159420D01*
X166316916Y-100168880D01*
X166325694Y-100165096D01*
X167067978Y-99422812D01*
X167074356Y-99411132D01*
X167804408Y-99411132D01*
X167804539Y-99412965D01*
X167808790Y-99419580D01*
X168550474Y-100161264D01*
X168562484Y-100167823D01*
X168574223Y-100158855D01*
X168605004Y-100116019D01*
X168610315Y-100107180D01*
X168704670Y-99916267D01*
X168708469Y-99906672D01*
X168770376Y-99702915D01*
X168772555Y-99692834D01*
X168800590Y-99479887D01*
X168801109Y-99473212D01*
X168802572Y-99413364D01*
X168802378Y-99406646D01*
X168784781Y-99192604D01*
X168783096Y-99182424D01*
X168731214Y-98975875D01*
X168727894Y-98966124D01*
X168642972Y-98770814D01*
X168638105Y-98761739D01*
X168573063Y-98661197D01*
X168562377Y-98651995D01*
X168552812Y-98656398D01*
X167812022Y-99397188D01*
X167804408Y-99411132D01*
X167074356Y-99411132D01*
X167075592Y-99408868D01*
X167075461Y-99407035D01*
X167071210Y-99400420D01*
X166329849Y-98659059D01*
X166318313Y-98652759D01*
X166306031Y-98662382D01*
X166258089Y-98732662D01*
X166253004Y-98741613D01*
X166163338Y-98934783D01*
X166159775Y-98944470D01*
X166102864Y-99149681D01*
X166100933Y-99159800D01*
X166078302Y-99371574D01*
X166078050Y-99381863D01*
X162958411Y-99381863D01*
X162958411Y-98862722D01*
X162959489Y-98846275D01*
X162962379Y-98824324D01*
X162963457Y-98816136D01*
X162943361Y-98663499D01*
X162884445Y-98521264D01*
X162814254Y-98429788D01*
X162814253Y-98429787D01*
X162790724Y-98399123D01*
X162766604Y-98380615D01*
X162754214Y-98369748D01*
X162670893Y-98286427D01*
X166681223Y-98286427D01*
X166687968Y-98298758D01*
X167427188Y-99037978D01*
X167441132Y-99045592D01*
X167442965Y-99045461D01*
X167449580Y-99041210D01*
X168193389Y-98297401D01*
X168200410Y-98284544D01*
X168193611Y-98275213D01*
X168189554Y-98272518D01*
X168003117Y-98169599D01*
X167993705Y-98165369D01*
X167792959Y-98094280D01*
X167782989Y-98091646D01*
X167573327Y-98054301D01*
X167563073Y-98053331D01*
X167350116Y-98050728D01*
X167339832Y-98051448D01*
X167129321Y-98083661D01*
X167119293Y-98086050D01*
X166916868Y-98152212D01*
X166907359Y-98156209D01*
X166718466Y-98254540D01*
X166709734Y-98260039D01*
X166689677Y-98275099D01*
X166681223Y-98286427D01*
X162670893Y-98286427D01*
X162161913Y-97777447D01*
X161561604Y-97177139D01*
X161527580Y-97114828D01*
X161524700Y-97088045D01*
X161524700Y-95851858D01*
X161544702Y-95783737D01*
X161573124Y-95752571D01*
X161670168Y-95676752D01*
X161789616Y-95538369D01*
X161849269Y-95499872D01*
X161884998Y-95494700D01*
X166497928Y-95494700D01*
X166566049Y-95514702D01*
X166596673Y-95542435D01*
X166610764Y-95560213D01*
X166678364Y-95645503D01*
X166683057Y-95649497D01*
X166683058Y-95649498D01*
X166728449Y-95688128D01*
X166835730Y-95779431D01*
X167016111Y-95880243D01*
X167212639Y-95944099D01*
X167417826Y-95968566D01*
X167423961Y-95968094D01*
X167423963Y-95968094D01*
X167617715Y-95953185D01*
X167617718Y-95953184D01*
X167623858Y-95952712D01*
X167822887Y-95897143D01*
X168007332Y-95803973D01*
X168034899Y-95782436D01*
X168165307Y-95680550D01*
X168165308Y-95680549D01*
X168170168Y-95676752D01*
X168305191Y-95520325D01*
X168308386Y-95514702D01*
X168401499Y-95350793D01*
X168407260Y-95340652D01*
X168472486Y-95144575D01*
X168498385Y-94939563D01*
X168498798Y-94910000D01*
X168478633Y-94704345D01*
X168418907Y-94506523D01*
X168321895Y-94324070D01*
X168318005Y-94319300D01*
X168318002Y-94319296D01*
X168195187Y-94168710D01*
X168195184Y-94168707D01*
X168191292Y-94163935D01*
X168186543Y-94160006D01*
X168036822Y-94036146D01*
X168036819Y-94036144D01*
X168032072Y-94032217D01*
X167850301Y-93933933D01*
X167751601Y-93903381D01*
X167658788Y-93874650D01*
X167658785Y-93874649D01*
X167652901Y-93872828D01*
X167646776Y-93872184D01*
X167646775Y-93872184D01*
X167453520Y-93851872D01*
X167453519Y-93851872D01*
X167447392Y-93851228D01*
X167320582Y-93862768D01*
X167247742Y-93869397D01*
X167247741Y-93869397D01*
X167241601Y-93869956D01*
X167043367Y-93928300D01*
X166860241Y-94024036D01*
X166699198Y-94153518D01*
X166695239Y-94158236D01*
X166695238Y-94158237D01*
X166592821Y-94280292D01*
X166533711Y-94319618D01*
X166496300Y-94325300D01*
X161882728Y-94325300D01*
X161814607Y-94305298D01*
X161785085Y-94278936D01*
X161695187Y-94168710D01*
X161695184Y-94168707D01*
X161691292Y-94163935D01*
X161686543Y-94160006D01*
X161536822Y-94036146D01*
X161536819Y-94036144D01*
X161532072Y-94032217D01*
X161350301Y-93933933D01*
X161251601Y-93903381D01*
X161158788Y-93874650D01*
X161158785Y-93874649D01*
X161152901Y-93872828D01*
X161146776Y-93872184D01*
X161146775Y-93872184D01*
X160953520Y-93851872D01*
X160953519Y-93851872D01*
X160947392Y-93851228D01*
X160820582Y-93862768D01*
X160747742Y-93869397D01*
X160747741Y-93869397D01*
X160741601Y-93869956D01*
X160543367Y-93928300D01*
X160360241Y-94024036D01*
X160199198Y-94153518D01*
X160066371Y-94311814D01*
X160063408Y-94317203D01*
X160063405Y-94317208D01*
X159969788Y-94487498D01*
X159966821Y-94492895D01*
X159904339Y-94689864D01*
X159903653Y-94695981D01*
X159903652Y-94695985D01*
X159881992Y-94889092D01*
X159881305Y-94895217D01*
X159881821Y-94901361D01*
X159898080Y-95094994D01*
X159898081Y-95094999D01*
X159898596Y-95101133D01*
X159955555Y-95299770D01*
X159977415Y-95342305D01*
X160028355Y-95441423D01*
X160050010Y-95483560D01*
X160053835Y-95488386D01*
X160053837Y-95488389D01*
X160101587Y-95548634D01*
X160178364Y-95645503D01*
X160183057Y-95649497D01*
X160183058Y-95649498D01*
X160310963Y-95758353D01*
X160349876Y-95817736D01*
X160355300Y-95854307D01*
X160355300Y-97088044D01*
X160335298Y-97156165D01*
X160318395Y-97177139D01*
X159125786Y-98369749D01*
X159113395Y-98380616D01*
X159089276Y-98399123D01*
X159084250Y-98405673D01*
X159042547Y-98460022D01*
X159042547Y-98460023D01*
X159042546Y-98460024D01*
X159005468Y-98508345D01*
X159005466Y-98508347D01*
X158948128Y-98550214D01*
X158877257Y-98554435D01*
X158815354Y-98519670D01*
X158805541Y-98508345D01*
X158768470Y-98460033D01*
X158768455Y-98460014D01*
X158749961Y-98435912D01*
X158744933Y-98429359D01*
X158720813Y-98410851D01*
X158708423Y-98399984D01*
X156008579Y-95700141D01*
X155993288Y-95680215D01*
X155993105Y-95679772D01*
X155896338Y-95553662D01*
X155770229Y-95456895D01*
X155769784Y-95456711D01*
X155749862Y-95441423D01*
X152107876Y-91799438D01*
X157285066Y-91799438D01*
X157311883Y-92021044D01*
X157377519Y-92234400D01*
X157479901Y-92432759D01*
X157483310Y-92437201D01*
X157483312Y-92437205D01*
X157569975Y-92550146D01*
X157615790Y-92609854D01*
X157780893Y-92760086D01*
X157969990Y-92878707D01*
X158177105Y-92961966D01*
X158182593Y-92963103D01*
X158182598Y-92963104D01*
X158332896Y-92994229D01*
X158395690Y-93007233D01*
X158400303Y-93007499D01*
X158450526Y-93010395D01*
X158450530Y-93010395D01*
X158452349Y-93010500D01*
X158596630Y-93010500D01*
X158599417Y-93010251D01*
X158599423Y-93010251D01*
X158668997Y-93004041D01*
X158762339Y-92995711D01*
X158767753Y-92994230D01*
X158767758Y-92994229D01*
X158895104Y-92959390D01*
X158977651Y-92936808D01*
X158982709Y-92934396D01*
X158982713Y-92934394D01*
X159099462Y-92878707D01*
X159179129Y-92840708D01*
X159360405Y-92710448D01*
X159475779Y-92591392D01*
X159511846Y-92554174D01*
X159511848Y-92554171D01*
X159515749Y-92550146D01*
X159640250Y-92364868D01*
X159667061Y-92303792D01*
X159693147Y-92244366D01*
X159729974Y-92160471D01*
X159731282Y-92155023D01*
X159731284Y-92155017D01*
X159737275Y-92130064D01*
X160886300Y-92130064D01*
X160898119Y-92189480D01*
X160943140Y-92256860D01*
X160953455Y-92263752D01*
X160996024Y-92292195D01*
X161010520Y-92301881D01*
X161069936Y-92313700D01*
X162810064Y-92313700D01*
X162869480Y-92301881D01*
X162883977Y-92292195D01*
X162926545Y-92263752D01*
X162936860Y-92256860D01*
X162981881Y-92189480D01*
X162993700Y-92130064D01*
X162993700Y-91245217D01*
X163421305Y-91245217D01*
X163421821Y-91251361D01*
X163438080Y-91444994D01*
X163438081Y-91444999D01*
X163438596Y-91451133D01*
X163457762Y-91517973D01*
X163491260Y-91634791D01*
X163495555Y-91649770D01*
X163590010Y-91833560D01*
X163593835Y-91838386D01*
X163593837Y-91838389D01*
X163685114Y-91953552D01*
X163718364Y-91995503D01*
X163723057Y-91999497D01*
X163723058Y-91999498D01*
X163804370Y-92068699D01*
X163875730Y-92129431D01*
X164056111Y-92230243D01*
X164252639Y-92294099D01*
X164457826Y-92318566D01*
X164463961Y-92318094D01*
X164463963Y-92318094D01*
X164657715Y-92303185D01*
X164657718Y-92303184D01*
X164663858Y-92302712D01*
X164862887Y-92247143D01*
X165047332Y-92153973D01*
X165066542Y-92138965D01*
X165205307Y-92030550D01*
X165205308Y-92030549D01*
X165210168Y-92026752D01*
X165345191Y-91870325D01*
X165447260Y-91690652D01*
X165512486Y-91494575D01*
X165538385Y-91289563D01*
X165538798Y-91260000D01*
X165537348Y-91245217D01*
X165961305Y-91245217D01*
X165961821Y-91251361D01*
X165978080Y-91444994D01*
X165978081Y-91444999D01*
X165978596Y-91451133D01*
X165997762Y-91517973D01*
X166031260Y-91634791D01*
X166035555Y-91649770D01*
X166130010Y-91833560D01*
X166133835Y-91838386D01*
X166133837Y-91838389D01*
X166225114Y-91953552D01*
X166258364Y-91995503D01*
X166263057Y-91999497D01*
X166263058Y-91999498D01*
X166344370Y-92068699D01*
X166415730Y-92129431D01*
X166596111Y-92230243D01*
X166792639Y-92294099D01*
X166997826Y-92318566D01*
X167003961Y-92318094D01*
X167003963Y-92318094D01*
X167197715Y-92303185D01*
X167197718Y-92303184D01*
X167203858Y-92302712D01*
X167402887Y-92247143D01*
X167587332Y-92153973D01*
X167606542Y-92138965D01*
X167745307Y-92030550D01*
X167745308Y-92030549D01*
X167750168Y-92026752D01*
X167885191Y-91870325D01*
X167987260Y-91690652D01*
X168009858Y-91622720D01*
X168050338Y-91564398D01*
X168115926Y-91537218D01*
X168185796Y-91549812D01*
X168237766Y-91598182D01*
X168252332Y-91634791D01*
X168258566Y-91662451D01*
X168261645Y-91672275D01*
X168341770Y-91869603D01*
X168346413Y-91878794D01*
X168457694Y-92060388D01*
X168463777Y-92068699D01*
X168603213Y-92229667D01*
X168610580Y-92236883D01*
X168774434Y-92372916D01*
X168782881Y-92378831D01*
X168966756Y-92486279D01*
X168976042Y-92490729D01*
X169175001Y-92566703D01*
X169184899Y-92569579D01*
X169288250Y-92590606D01*
X169302299Y-92589410D01*
X169306000Y-92579065D01*
X169306000Y-92578517D01*
X169814000Y-92578517D01*
X169818064Y-92592359D01*
X169831478Y-92594393D01*
X169838184Y-92593534D01*
X169848262Y-92591392D01*
X170052255Y-92530191D01*
X170061842Y-92526433D01*
X170253095Y-92432739D01*
X170261945Y-92427464D01*
X170435328Y-92303792D01*
X170443200Y-92297139D01*
X170594052Y-92146812D01*
X170600730Y-92138965D01*
X170725003Y-91966020D01*
X170730313Y-91957183D01*
X170824670Y-91766267D01*
X170828469Y-91756672D01*
X170890377Y-91552910D01*
X170892555Y-91542837D01*
X170893986Y-91531962D01*
X170891775Y-91517778D01*
X170878617Y-91514000D01*
X169832115Y-91514000D01*
X169816876Y-91518475D01*
X169815671Y-91519865D01*
X169814000Y-91527548D01*
X169814000Y-92578517D01*
X169306000Y-92578517D01*
X169306000Y-90987885D01*
X169814000Y-90987885D01*
X169818475Y-91003124D01*
X169819865Y-91004329D01*
X169827548Y-91006000D01*
X170878344Y-91006000D01*
X170891875Y-91002027D01*
X170893180Y-90992947D01*
X170851214Y-90825875D01*
X170847894Y-90816124D01*
X170762972Y-90620814D01*
X170758105Y-90611739D01*
X170642426Y-90432926D01*
X170636136Y-90424757D01*
X170492806Y-90267240D01*
X170485273Y-90260215D01*
X170318139Y-90128222D01*
X170309552Y-90122517D01*
X170123117Y-90019599D01*
X170113705Y-90015369D01*
X169912959Y-89944280D01*
X169902988Y-89941646D01*
X169831837Y-89928972D01*
X169818540Y-89930432D01*
X169814000Y-89944989D01*
X169814000Y-90987885D01*
X169306000Y-90987885D01*
X169306000Y-89943102D01*
X169302082Y-89929758D01*
X169287806Y-89927771D01*
X169249324Y-89933660D01*
X169239288Y-89936051D01*
X169036868Y-90002212D01*
X169027359Y-90006209D01*
X168838463Y-90104542D01*
X168829738Y-90110036D01*
X168659433Y-90237905D01*
X168651726Y-90244748D01*
X168504590Y-90398717D01*
X168498104Y-90406727D01*
X168378098Y-90582649D01*
X168373000Y-90591623D01*
X168283338Y-90784783D01*
X168279775Y-90794470D01*
X168252612Y-90892415D01*
X168215133Y-90952713D01*
X168151004Y-90983176D01*
X168080586Y-90974133D01*
X168026236Y-90928454D01*
X168010573Y-90895162D01*
X168007387Y-90884612D01*
X167998907Y-90856523D01*
X167945954Y-90756932D01*
X167904789Y-90679512D01*
X167904787Y-90679509D01*
X167901895Y-90674070D01*
X167898005Y-90669300D01*
X167898002Y-90669296D01*
X167775187Y-90518710D01*
X167775184Y-90518707D01*
X167771292Y-90513935D01*
X167765931Y-90509500D01*
X167616822Y-90386146D01*
X167616819Y-90386144D01*
X167612072Y-90382217D01*
X167430301Y-90283933D01*
X167303714Y-90244748D01*
X167238788Y-90224650D01*
X167238785Y-90224649D01*
X167232901Y-90222828D01*
X167226776Y-90222184D01*
X167226775Y-90222184D01*
X167033520Y-90201872D01*
X167033519Y-90201872D01*
X167027392Y-90201228D01*
X166900582Y-90212768D01*
X166827742Y-90219397D01*
X166827741Y-90219397D01*
X166821601Y-90219956D01*
X166623367Y-90278300D01*
X166440241Y-90374036D01*
X166279198Y-90503518D01*
X166275239Y-90508236D01*
X166275238Y-90508237D01*
X166158113Y-90647821D01*
X166146371Y-90661814D01*
X166143408Y-90667203D01*
X166143405Y-90667208D01*
X166078768Y-90784783D01*
X166046821Y-90842895D01*
X165984339Y-91039864D01*
X165983653Y-91045981D01*
X165983652Y-91045985D01*
X165970832Y-91160280D01*
X165961305Y-91245217D01*
X165537348Y-91245217D01*
X165518633Y-91054345D01*
X165503169Y-91003124D01*
X165463942Y-90873199D01*
X165458907Y-90856523D01*
X165405954Y-90756932D01*
X165364789Y-90679512D01*
X165364787Y-90679509D01*
X165361895Y-90674070D01*
X165358005Y-90669300D01*
X165358002Y-90669296D01*
X165235187Y-90518710D01*
X165235184Y-90518707D01*
X165231292Y-90513935D01*
X165225931Y-90509500D01*
X165076822Y-90386146D01*
X165076819Y-90386144D01*
X165072072Y-90382217D01*
X164890301Y-90283933D01*
X164763714Y-90244748D01*
X164698788Y-90224650D01*
X164698785Y-90224649D01*
X164692901Y-90222828D01*
X164686776Y-90222184D01*
X164686775Y-90222184D01*
X164493520Y-90201872D01*
X164493519Y-90201872D01*
X164487392Y-90201228D01*
X164360582Y-90212768D01*
X164287742Y-90219397D01*
X164287741Y-90219397D01*
X164281601Y-90219956D01*
X164083367Y-90278300D01*
X163900241Y-90374036D01*
X163739198Y-90503518D01*
X163735239Y-90508236D01*
X163735238Y-90508237D01*
X163618113Y-90647821D01*
X163606371Y-90661814D01*
X163603408Y-90667203D01*
X163603405Y-90667208D01*
X163538768Y-90784783D01*
X163506821Y-90842895D01*
X163444339Y-91039864D01*
X163443653Y-91045981D01*
X163443652Y-91045985D01*
X163430832Y-91160280D01*
X163421305Y-91245217D01*
X162993700Y-91245217D01*
X162993700Y-90389936D01*
X162981881Y-90330520D01*
X162936860Y-90263140D01*
X162869480Y-90218119D01*
X162810064Y-90206300D01*
X161069936Y-90206300D01*
X161010520Y-90218119D01*
X160943140Y-90263140D01*
X160898119Y-90330520D01*
X160886300Y-90389936D01*
X160886300Y-92130064D01*
X159737275Y-92130064D01*
X159780775Y-91948872D01*
X159780775Y-91948871D01*
X159782085Y-91943415D01*
X159786941Y-91859197D01*
X159794611Y-91726169D01*
X159794611Y-91726166D01*
X159794934Y-91720562D01*
X159768117Y-91498956D01*
X159702481Y-91285600D01*
X159600099Y-91087241D01*
X159596690Y-91082799D01*
X159596688Y-91082795D01*
X159467620Y-90914590D01*
X159464210Y-90910146D01*
X159299107Y-90759914D01*
X159110010Y-90641293D01*
X158934037Y-90570553D01*
X158908097Y-90560125D01*
X158908095Y-90560124D01*
X158902895Y-90558034D01*
X158897407Y-90556897D01*
X158897402Y-90556896D01*
X158732845Y-90522818D01*
X158684310Y-90512767D01*
X158679697Y-90512501D01*
X158629474Y-90509605D01*
X158629470Y-90509605D01*
X158627651Y-90509500D01*
X158483370Y-90509500D01*
X158480583Y-90509749D01*
X158480577Y-90509749D01*
X158411003Y-90515959D01*
X158317661Y-90524289D01*
X158312247Y-90525770D01*
X158312242Y-90525771D01*
X158198470Y-90556896D01*
X158102349Y-90583192D01*
X158097291Y-90585604D01*
X158097287Y-90585606D01*
X158042499Y-90611739D01*
X157900871Y-90679292D01*
X157719595Y-90809552D01*
X157674077Y-90856523D01*
X157580862Y-90952713D01*
X157564251Y-90969854D01*
X157439750Y-91155132D01*
X157350026Y-91359529D01*
X157348718Y-91364977D01*
X157348716Y-91364983D01*
X157307366Y-91537218D01*
X157297915Y-91576585D01*
X157297592Y-91582190D01*
X157286979Y-91766267D01*
X157285066Y-91799438D01*
X152107876Y-91799438D01*
X151845317Y-91536879D01*
X151811291Y-91474567D01*
X151808891Y-91436802D01*
X151823880Y-91265475D01*
X151824359Y-91260000D01*
X151805758Y-91047392D01*
X151794219Y-91004329D01*
X151751944Y-90846555D01*
X151751943Y-90846553D01*
X151750521Y-90841245D01*
X151738807Y-90816124D01*
X151662652Y-90652808D01*
X151662649Y-90652803D01*
X151660326Y-90647821D01*
X151635061Y-90611739D01*
X151541072Y-90477508D01*
X151541070Y-90477505D01*
X151537913Y-90472997D01*
X151387003Y-90322087D01*
X151212180Y-90199674D01*
X151207198Y-90197351D01*
X151207193Y-90197348D01*
X151023737Y-90111802D01*
X151023736Y-90111802D01*
X151018755Y-90109479D01*
X151013447Y-90108057D01*
X151013445Y-90108056D01*
X150817923Y-90055666D01*
X150817921Y-90055666D01*
X150812608Y-90054242D01*
X150600000Y-90035641D01*
X150387392Y-90054242D01*
X150382079Y-90055666D01*
X150382077Y-90055666D01*
X150186555Y-90108056D01*
X150186553Y-90108057D01*
X150181245Y-90109479D01*
X150176264Y-90111801D01*
X150176263Y-90111802D01*
X149992808Y-90197348D01*
X149992803Y-90197351D01*
X149987821Y-90199674D01*
X149983314Y-90202830D01*
X149983312Y-90202831D01*
X149817508Y-90318928D01*
X149817505Y-90318930D01*
X149812997Y-90322087D01*
X149662087Y-90472997D01*
X149658930Y-90477505D01*
X149658928Y-90477508D01*
X149564939Y-90611739D01*
X149539674Y-90647821D01*
X149537351Y-90652803D01*
X149537348Y-90652808D01*
X149461193Y-90816124D01*
X149449479Y-90841245D01*
X149448258Y-90845803D01*
X149406308Y-90902778D01*
X149339986Y-90928117D01*
X149270495Y-90913577D01*
X149219895Y-90863775D01*
X149211820Y-90846093D01*
X149210521Y-90841245D01*
X149198807Y-90816124D01*
X149122652Y-90652808D01*
X149122649Y-90652803D01*
X149120326Y-90647821D01*
X149095061Y-90611739D01*
X149001072Y-90477508D01*
X149001070Y-90477505D01*
X148997913Y-90472997D01*
X148847003Y-90322087D01*
X148672180Y-90199674D01*
X148667198Y-90197351D01*
X148667193Y-90197348D01*
X148483737Y-90111802D01*
X148483736Y-90111802D01*
X148478755Y-90109479D01*
X148473447Y-90108057D01*
X148473445Y-90108056D01*
X148277923Y-90055666D01*
X148277921Y-90055666D01*
X148272608Y-90054242D01*
X148060000Y-90035641D01*
X147847392Y-90054242D01*
X147842079Y-90055666D01*
X147842077Y-90055666D01*
X147646555Y-90108056D01*
X147646553Y-90108057D01*
X147641245Y-90109479D01*
X147636264Y-90111801D01*
X147636263Y-90111802D01*
X147452808Y-90197348D01*
X147452803Y-90197351D01*
X147447821Y-90199674D01*
X147443314Y-90202830D01*
X147443312Y-90202831D01*
X147277508Y-90318928D01*
X147277505Y-90318930D01*
X147272997Y-90322087D01*
X147122087Y-90472997D01*
X147118930Y-90477505D01*
X147118928Y-90477508D01*
X147024939Y-90611739D01*
X146999674Y-90647821D01*
X146997351Y-90652803D01*
X146997348Y-90652808D01*
X146921193Y-90816124D01*
X146909479Y-90841245D01*
X146908258Y-90845803D01*
X146866308Y-90902778D01*
X146799986Y-90928117D01*
X146730495Y-90913577D01*
X146679895Y-90863775D01*
X146671820Y-90846093D01*
X146670521Y-90841245D01*
X146658807Y-90816124D01*
X146582652Y-90652808D01*
X146582649Y-90652803D01*
X146580326Y-90647821D01*
X146555061Y-90611739D01*
X146461072Y-90477508D01*
X146461070Y-90477505D01*
X146457913Y-90472997D01*
X146307003Y-90322087D01*
X146132180Y-90199674D01*
X146127198Y-90197351D01*
X146127193Y-90197348D01*
X145943737Y-90111802D01*
X145943736Y-90111802D01*
X145938755Y-90109479D01*
X145933447Y-90108057D01*
X145933445Y-90108056D01*
X145737923Y-90055666D01*
X145737921Y-90055666D01*
X145732608Y-90054242D01*
X145520000Y-90035641D01*
X145307392Y-90054242D01*
X145302079Y-90055666D01*
X145302077Y-90055666D01*
X145106555Y-90108056D01*
X145106553Y-90108057D01*
X145101245Y-90109479D01*
X145096264Y-90111801D01*
X145096263Y-90111802D01*
X144912808Y-90197348D01*
X144912803Y-90197351D01*
X144907821Y-90199674D01*
X144903314Y-90202830D01*
X144903312Y-90202831D01*
X144737508Y-90318928D01*
X144737505Y-90318930D01*
X144732997Y-90322087D01*
X144582087Y-90472997D01*
X144533946Y-90541750D01*
X144478491Y-90586077D01*
X144407871Y-90593386D01*
X144344511Y-90561356D01*
X144323301Y-90535313D01*
X144219337Y-90365659D01*
X144213544Y-90357686D01*
X144064171Y-90182793D01*
X144057207Y-90175829D01*
X143882314Y-90026456D01*
X143874341Y-90020663D01*
X143678241Y-89900493D01*
X143669447Y-89896012D01*
X143456971Y-89808002D01*
X143447586Y-89804953D01*
X143251615Y-89757904D01*
X143237530Y-89758609D01*
X143234000Y-89767488D01*
X143234000Y-92748210D01*
X142726000Y-92748210D01*
X142726000Y-91532115D01*
X142721525Y-91516876D01*
X142720135Y-91515671D01*
X142712452Y-91514000D01*
X141491790Y-91514000D01*
X141478259Y-91517973D01*
X141476899Y-91527431D01*
X136271563Y-91527431D01*
X136268117Y-91498956D01*
X136202481Y-91285600D01*
X136100099Y-91087241D01*
X136096690Y-91082799D01*
X136096688Y-91082795D01*
X136024245Y-90988385D01*
X141477904Y-90988385D01*
X141478609Y-91002470D01*
X141487488Y-91006000D01*
X142707885Y-91006000D01*
X142723124Y-91001525D01*
X142724329Y-91000135D01*
X142726000Y-90992452D01*
X142726000Y-89771790D01*
X142722027Y-89758259D01*
X142712569Y-89756899D01*
X142512414Y-89804953D01*
X142503029Y-89808002D01*
X142290553Y-89896012D01*
X142281759Y-89900493D01*
X142085659Y-90020663D01*
X142077686Y-90026456D01*
X141902793Y-90175829D01*
X141895829Y-90182793D01*
X141746456Y-90357686D01*
X141740663Y-90365659D01*
X141620493Y-90561759D01*
X141616012Y-90570553D01*
X141528002Y-90783029D01*
X141524953Y-90792414D01*
X141477904Y-90988385D01*
X136024245Y-90988385D01*
X135967620Y-90914590D01*
X135964210Y-90910146D01*
X135799107Y-90759914D01*
X135610010Y-90641293D01*
X135434037Y-90570553D01*
X135408097Y-90560125D01*
X135408095Y-90560124D01*
X135402895Y-90558034D01*
X135397407Y-90556897D01*
X135397402Y-90556896D01*
X135232845Y-90522818D01*
X135184310Y-90512767D01*
X135179697Y-90512501D01*
X135129474Y-90509605D01*
X135129470Y-90509605D01*
X135127651Y-90509500D01*
X134983370Y-90509500D01*
X134980583Y-90509749D01*
X134980577Y-90509749D01*
X134911003Y-90515959D01*
X134817661Y-90524289D01*
X134812247Y-90525770D01*
X134812242Y-90525771D01*
X134698470Y-90556896D01*
X134602349Y-90583192D01*
X134597291Y-90585604D01*
X134597287Y-90585606D01*
X134542499Y-90611739D01*
X134400871Y-90679292D01*
X134219595Y-90809552D01*
X134174077Y-90856523D01*
X134080862Y-90952713D01*
X134064251Y-90969854D01*
X133939750Y-91155132D01*
X133850026Y-91359529D01*
X133848718Y-91364977D01*
X133848716Y-91364983D01*
X133807366Y-91537218D01*
X133797915Y-91576585D01*
X133797592Y-91582190D01*
X133786979Y-91766267D01*
X133785066Y-91799438D01*
X132490000Y-91799438D01*
X132490000Y-89436000D01*
X132510002Y-89367879D01*
X132563658Y-89321386D01*
X132616000Y-89310000D01*
X171264000Y-89310000D01*
X171332121Y-89330002D01*
G37*
%TD.AperFunction*%
%TD*%
M02*
