M48
INCH,TZ
T1C0.0157
T2C0.0276
T3C0.0394
T4C0.0400
T5C0.0787
%
G90
G05
T1
X52657Y-37921
X52736Y-42949
X53882Y-39815
X53972Y-35941
X54008Y-44362
X54114Y-38740
X54327Y-42433
X55228Y-37472
X55260Y-45894
X55272Y-40571
X56091Y-42283
X56205Y-39783
X56236Y-36728
X56291Y-40799
X56650Y-43287
X56776Y-38571
X57311Y-44681
X58083Y-44591
X58244Y-43386
X58866Y-42484
X58961Y-45933
X59098Y-39673
X59457Y-37331
X59969Y-40988
X59969Y-44106
X59980Y-35768
X60661Y-42992
X60709Y-39661
X60819Y-36264
X60988Y-45118
X61207Y-37789
X61591Y-42547
X61996Y-43843
X62555Y-41661
X63398Y-40756
X63441Y-43362
X64409Y-38650
X64776Y-40413
X65031Y-37874
X65173Y-43016
X65933Y-44953
X66091Y-43457
X66197Y-41059
X66280Y-36500
X67051Y-44386
X67161Y-40063
X67185Y-42323
X67209Y-37760
T2
X56805Y-39866
X57305Y-39866
X57805Y-39866
X58305Y-39866
T3
X53126Y-39252
X53126Y-40252
X53126Y-41252
X53126Y-42252
X63362Y-37366
X63362Y-39138
X63362Y-39925
X63362Y-41697
X63362Y-42484
X63362Y-44256
X63756Y-35929
X63756Y-45575
X64756Y-35929
X64756Y-45575
X65756Y-35929
X65756Y-45575
X65921Y-37366
X65921Y-39138
X65921Y-39925
X65921Y-41697
X65921Y-42484
X65921Y-44256
X66756Y-35929
X66756Y-45575
T4
X56291Y-35929
X57291Y-35929
X58291Y-35929
X59291Y-35929
T5
X53165Y-36126
X53165Y-45496
X62417Y-36126
X62417Y-45496
T0
M30
