%TF.GenerationSoftware,KiCad,Pcbnew,(6.0.1-0)*%
%TF.CreationDate,2022-03-07T18:18:46+09:00*%
%TF.ProjectId,qLAMP-lcd,714c414d-502d-46c6-9364-2e6b69636164,rev?*%
%TF.SameCoordinates,Original*%
%TF.FileFunction,Soldermask,Top*%
%TF.FilePolarity,Negative*%
%FSLAX46Y46*%
G04 Gerber Fmt 4.6, Leading zero omitted, Abs format (unit mm)*
G04 Created by KiCad (PCBNEW (6.0.1-0)) date 2022-03-07 18:18:46*
%MOMM*%
%LPD*%
G01*
G04 APERTURE LIST*
G04 Aperture macros list*
%AMRoundRect*
0 Rectangle with rounded corners*
0 $1 Rounding radius*
0 $2 $3 $4 $5 $6 $7 $8 $9 X,Y pos of 4 corners*
0 Add a 4 corners polygon primitive as box body*
4,1,4,$2,$3,$4,$5,$6,$7,$8,$9,$2,$3,0*
0 Add four circle primitives for the rounded corners*
1,1,$1+$1,$2,$3*
1,1,$1+$1,$4,$5*
1,1,$1+$1,$6,$7*
1,1,$1+$1,$8,$9*
0 Add four rect primitives between the rounded corners*
20,1,$1+$1,$2,$3,$4,$5,0*
20,1,$1+$1,$4,$5,$6,$7,0*
20,1,$1+$1,$6,$7,$8,$9,0*
20,1,$1+$1,$8,$9,$2,$3,0*%
G04 Aperture macros list end*
%ADD10O,2.032000X2.032000*%
%ADD11C,2.000000*%
%ADD12RoundRect,0.200000X-0.275000X0.200000X-0.275000X-0.200000X0.275000X-0.200000X0.275000X0.200000X0*%
%ADD13R,1.700000X1.700000*%
%ADD14O,1.700000X1.700000*%
%ADD15RoundRect,0.150000X0.150000X-0.587500X0.150000X0.587500X-0.150000X0.587500X-0.150000X-0.587500X0*%
%ADD16RoundRect,0.200000X-0.200000X-0.275000X0.200000X-0.275000X0.200000X0.275000X-0.200000X0.275000X0*%
%ADD17C,1.700000*%
%ADD18R,1.064920X1.800000*%
%ADD19O,1.064920X1.800000*%
G04 APERTURE END LIST*
D10*
%TO.C,D2*%
X150600000Y-91260000D03*
X148060000Y-91260000D03*
X145520000Y-91260000D03*
X142980000Y-91260000D03*
D11*
X135040000Y-91760000D03*
X158540000Y-115560000D03*
X158540000Y-91760000D03*
X135040000Y-115560000D03*
%TD*%
D12*
%TO.C,R8*%
X146029000Y-105254999D03*
X146029000Y-106904999D03*
%TD*%
D13*
%TO.C,J1*%
X161940000Y-91260000D03*
D14*
X164480000Y-91260000D03*
X167020000Y-91260000D03*
X169560000Y-91260000D03*
%TD*%
D15*
%TO.C,Q2*%
X141269000Y-111687500D03*
X143169000Y-111687500D03*
X142219000Y-109812500D03*
%TD*%
D16*
%TO.C,R7*%
X155694200Y-101223999D03*
X157344200Y-101223999D03*
%TD*%
D13*
%TO.C,J3*%
X134940000Y-99700000D03*
D14*
X134940000Y-102240000D03*
X134940000Y-104779999D03*
X134940000Y-107320000D03*
%TD*%
D16*
%TO.C,R2*%
X137660200Y-104779999D03*
X139310200Y-104779999D03*
%TD*%
%TO.C,R1*%
X137660200Y-103001999D03*
X139310200Y-103001999D03*
%TD*%
D17*
%TO.C,SW3*%
X160940000Y-107910000D03*
X167440000Y-107910000D03*
X160940000Y-112410000D03*
X167440000Y-112410000D03*
%TD*%
D16*
%TO.C,R3*%
X137660200Y-106557999D03*
X139310200Y-106557999D03*
%TD*%
D15*
%TO.C,Q3*%
X145079000Y-111687500D03*
X146979000Y-111687500D03*
X146029000Y-109812500D03*
%TD*%
D12*
%TO.C,R4*%
X147807000Y-105254999D03*
X147807000Y-106904999D03*
%TD*%
D18*
%TO.C,D1*%
X144285005Y-101259996D03*
D19*
X145555005Y-101259996D03*
X146825005Y-101259996D03*
X148095005Y-101259996D03*
%TD*%
D16*
%TO.C,R11*%
X155694200Y-106557999D03*
X157344200Y-106557999D03*
%TD*%
D15*
%TO.C,Q1*%
X148889000Y-111687500D03*
X150789000Y-111687500D03*
X149839000Y-109812500D03*
%TD*%
D16*
%TO.C,R5*%
X155694200Y-99445999D03*
X157344200Y-99445999D03*
%TD*%
%TO.C,R9*%
X155694200Y-103001999D03*
X157344200Y-103001999D03*
%TD*%
D17*
%TO.C,SW2*%
X160940000Y-101410000D03*
X167440000Y-101410000D03*
X160940000Y-105910000D03*
X167440000Y-105910000D03*
%TD*%
%TO.C,SW1*%
X160940000Y-94910000D03*
X167440000Y-94910000D03*
X160940000Y-99410000D03*
X167440000Y-99410000D03*
%TD*%
D12*
%TO.C,R6*%
X144251000Y-105254999D03*
X144251000Y-106904999D03*
%TD*%
D13*
%TO.C,J2*%
X161940000Y-115760000D03*
D14*
X164480000Y-115760000D03*
X167020000Y-115760000D03*
X169560000Y-115760000D03*
%TD*%
D16*
%TO.C,R10*%
X155694200Y-104779999D03*
X157344200Y-104779999D03*
%TD*%
M02*
