G04 #@! TF.GenerationSoftware,KiCad,Pcbnew,(6.0.1-0)*
G04 #@! TF.CreationDate,2022-03-11T15:24:18+09:00*
G04 #@! TF.ProjectId,qLAMP-main,714c414d-502d-46d6-9169-6e2e6b696361,rev?*
G04 #@! TF.SameCoordinates,Original*
G04 #@! TF.FileFunction,Soldermask,Top*
G04 #@! TF.FilePolarity,Negative*
%FSLAX46Y46*%
G04 Gerber Fmt 4.6, Leading zero omitted, Abs format (unit mm)*
G04 Created by KiCad (PCBNEW (6.0.1-0)) date 2022-03-11 15:24:18*
%MOMM*%
%LPD*%
G01*
G04 APERTURE LIST*
G04 Aperture macros list*
%AMRoundRect*
0 Rectangle with rounded corners*
0 $1 Rounding radius*
0 $2 $3 $4 $5 $6 $7 $8 $9 X,Y pos of 4 corners*
0 Add a 4 corners polygon primitive as box body*
4,1,4,$2,$3,$4,$5,$6,$7,$8,$9,$2,$3,0*
0 Add four circle primitives for the rounded corners*
1,1,$1+$1,$2,$3*
1,1,$1+$1,$4,$5*
1,1,$1+$1,$6,$7*
1,1,$1+$1,$8,$9*
0 Add four rect primitives between the rounded corners*
20,1,$1+$1,$2,$3,$4,$5,0*
20,1,$1+$1,$4,$5,$6,$7,0*
20,1,$1+$1,$6,$7,$8,$9,0*
20,1,$1+$1,$8,$9,$2,$3,0*%
%AMFreePoly0*
4,1,22,0.500000,-0.750000,0.000000,-0.750000,0.000000,-0.745033,-0.079941,-0.743568,-0.215256,-0.701293,-0.333266,-0.622738,-0.424486,-0.514219,-0.481581,-0.384460,-0.499164,-0.250000,-0.500000,-0.250000,-0.500000,0.250000,-0.499164,0.250000,-0.499963,0.256109,-0.478152,0.396186,-0.417904,0.524511,-0.324060,0.630769,-0.204165,0.706417,-0.067858,0.745374,0.000000,0.744959,0.000000,0.750000,
0.500000,0.750000,0.500000,-0.750000,0.500000,-0.750000,$1*%
%AMFreePoly1*
4,1,20,0.000000,0.744959,0.073905,0.744508,0.209726,0.703889,0.328688,0.626782,0.421226,0.519385,0.479903,0.390333,0.500000,0.250000,0.500000,-0.250000,0.499851,-0.262216,0.476331,-0.402017,0.414519,-0.529596,0.319384,-0.634700,0.198574,-0.708877,0.061801,-0.746166,0.000000,-0.745033,0.000000,-0.750000,-0.500000,-0.750000,-0.500000,0.750000,0.000000,0.750000,0.000000,0.744959,
0.000000,0.744959,$1*%
G04 Aperture macros list end*
%ADD10C,0.475000*%
%ADD11RoundRect,0.150000X0.825000X0.150000X-0.825000X0.150000X-0.825000X-0.150000X0.825000X-0.150000X0*%
%ADD12C,2.000000*%
%ADD13FreePoly0,180.000000*%
%ADD14FreePoly1,180.000000*%
%ADD15RoundRect,0.100000X-0.100000X0.637500X-0.100000X-0.637500X0.100000X-0.637500X0.100000X0.637500X0*%
%ADD16R,0.249999X0.499999*%
%ADD17C,0.600000*%
%ADD18R,2.500000X1.500000*%
%ADD19R,2.200000X0.600000*%
%ADD20R,2.150000X3.450000*%
%ADD21RoundRect,0.150000X0.150000X-0.512500X0.150000X0.512500X-0.150000X0.512500X-0.150000X-0.512500X0*%
%ADD22R,2.000000X1.500000*%
%ADD23R,2.000000X3.800000*%
%ADD24RoundRect,0.250000X0.475000X-0.250000X0.475000X0.250000X-0.475000X0.250000X-0.475000X-0.250000X0*%
%ADD25R,1.219200X3.098800*%
%ADD26RoundRect,0.225000X0.250000X-0.225000X0.250000X0.225000X-0.250000X0.225000X-0.250000X-0.225000X0*%
%ADD27RoundRect,0.250000X0.325000X1.100000X-0.325000X1.100000X-0.325000X-1.100000X0.325000X-1.100000X0*%
%ADD28RoundRect,0.225000X0.225000X0.250000X-0.225000X0.250000X-0.225000X-0.250000X0.225000X-0.250000X0*%
%ADD29RoundRect,0.250000X-0.325000X-1.100000X0.325000X-1.100000X0.325000X1.100000X-0.325000X1.100000X0*%
%ADD30RoundRect,0.250000X0.250000X0.475000X-0.250000X0.475000X-0.250000X-0.475000X0.250000X-0.475000X0*%
%ADD31RoundRect,0.225000X-0.225000X-0.250000X0.225000X-0.250000X0.225000X0.250000X-0.225000X0.250000X0*%
%ADD32RoundRect,0.250000X1.100000X-0.325000X1.100000X0.325000X-1.100000X0.325000X-1.100000X-0.325000X0*%
%ADD33RoundRect,0.111230X0.763770X0.111230X-0.763770X0.111230X-0.763770X-0.111230X0.763770X-0.111230X0*%
%ADD34RoundRect,0.225000X-0.250000X0.225000X-0.250000X-0.225000X0.250000X-0.225000X0.250000X0.225000X0*%
%ADD35RoundRect,0.111665X-0.111665X0.550835X-0.111665X-0.550835X0.111665X-0.550835X0.111665X0.550835X0*%
%ADD36RoundRect,0.150000X0.512500X0.150000X-0.512500X0.150000X-0.512500X-0.150000X0.512500X-0.150000X0*%
%ADD37R,0.410000X1.570000*%
%ADD38RoundRect,0.200000X-0.275000X0.200000X-0.275000X-0.200000X0.275000X-0.200000X0.275000X0.200000X0*%
%ADD39RoundRect,0.200000X-0.200000X-0.275000X0.200000X-0.275000X0.200000X0.275000X-0.200000X0.275000X0*%
%ADD40RoundRect,0.200000X0.200000X0.275000X-0.200000X0.275000X-0.200000X-0.275000X0.200000X-0.275000X0*%
%ADD41R,1.320800X0.558800*%
%ADD42R,0.558800X1.320800*%
%ADD43R,4.680000X2.400000*%
%ADD44RoundRect,0.100000X0.100000X-0.687500X0.100000X0.687500X-0.100000X0.687500X-0.100000X-0.687500X0*%
%ADD45R,1.700000X1.700000*%
%ADD46O,1.700000X1.700000*%
%ADD47R,3.500000X3.500000*%
%ADD48RoundRect,0.750000X-1.000000X0.750000X-1.000000X-0.750000X1.000000X-0.750000X1.000000X0.750000X0*%
%ADD49RoundRect,0.875000X-0.875000X0.875000X-0.875000X-0.875000X0.875000X-0.875000X0.875000X0.875000X0*%
%ADD50R,1.600000X1.000000*%
%ADD51RoundRect,0.200000X0.275000X-0.200000X0.275000X0.200000X-0.275000X0.200000X-0.275000X-0.200000X0*%
%ADD52C,1.700000*%
%ADD53RoundRect,0.035000X0.315000X0.465000X-0.315000X0.465000X-0.315000X-0.465000X0.315000X-0.465000X0*%
%ADD54RoundRect,0.040000X0.360000X0.460000X-0.360000X0.460000X-0.360000X-0.460000X0.360000X-0.460000X0*%
%ADD55O,1.000000X1.800000*%
%ADD56R,0.900000X2.000000*%
%ADD57R,2.000000X0.900000*%
%ADD58R,5.000000X5.000000*%
%ADD59RoundRect,0.140000X0.170000X-0.140000X0.170000X0.140000X-0.170000X0.140000X-0.170000X-0.140000X0*%
%ADD60R,1.000000X1.000000*%
%ADD61O,1.000000X1.000000*%
G04 APERTURE END LIST*
D10*
X77636000Y-126500000D02*
G75*
G03*
X77636000Y-126500000I-400000J0D01*
G01*
X76636000Y-75000000D02*
G75*
G03*
X76636000Y-75000000I-400000J0D01*
G01*
X148636000Y-128000000D02*
G75*
G03*
X148636000Y-128000000I-400000J0D01*
G01*
X204260000Y-129840000D02*
G75*
G03*
X204260000Y-129840000I-400000J0D01*
G01*
X148636000Y-76000000D02*
G75*
G03*
X148636000Y-76000000I-400000J0D01*
G01*
X207750000Y-74695000D02*
G75*
G03*
X207750000Y-74695000I-400000J0D01*
G01*
D11*
X104235000Y-103695000D03*
X104235000Y-102425000D03*
X104235000Y-101155000D03*
X104235000Y-99885000D03*
X99285000Y-99885000D03*
X99285000Y-101155000D03*
X99285000Y-102425000D03*
X99285000Y-103695000D03*
D12*
X205069999Y-89680009D03*
X205069999Y-93180009D03*
D13*
X147650000Y-126000000D03*
D14*
X146350000Y-126000000D03*
D15*
X193553292Y-81537300D03*
X192903292Y-81537300D03*
X192253292Y-81537300D03*
X191603292Y-81537300D03*
X190953292Y-81537300D03*
X190303292Y-81537300D03*
X189653292Y-81537300D03*
X189003292Y-81537300D03*
X189003292Y-87262300D03*
X189653292Y-87262300D03*
X190303292Y-87262300D03*
X190953292Y-87262300D03*
X191603292Y-87262300D03*
X192253292Y-87262300D03*
X192903292Y-87262300D03*
X193553292Y-87262300D03*
D16*
X141216000Y-100820000D03*
X140716001Y-100820000D03*
X140216000Y-100820000D03*
X139716000Y-100820000D03*
X139215999Y-100820000D03*
X138716000Y-100820000D03*
X138716000Y-103720000D03*
X139215999Y-103720000D03*
X139716000Y-103720000D03*
X140216000Y-103720000D03*
X140716001Y-103720000D03*
X141216000Y-103720000D03*
D17*
X140966001Y-102270000D03*
X139966000Y-101770001D03*
X139966000Y-102870000D03*
X138965999Y-102270000D03*
D18*
X139966000Y-102270000D03*
D19*
X121168500Y-101310000D03*
X121168500Y-102580000D03*
X121168500Y-103850000D03*
X121168500Y-105120000D03*
X121168500Y-106390000D03*
D20*
X127468500Y-103850000D03*
D21*
X116766000Y-103627500D03*
X117716000Y-103627500D03*
X118666000Y-103627500D03*
X118666000Y-101352500D03*
X116766000Y-101352500D03*
D22*
X171570000Y-100850000D03*
X171570000Y-103150000D03*
X171570000Y-105450000D03*
D23*
X177870000Y-103150000D03*
D22*
X171480000Y-81460000D03*
X171480000Y-83760000D03*
X171480000Y-86060000D03*
D23*
X177780000Y-83760000D03*
D24*
X124532000Y-99249995D03*
X124532000Y-97349995D03*
D25*
X178680000Y-89627300D03*
X178680000Y-94732700D03*
D26*
X122500000Y-99074995D03*
X122500000Y-97524995D03*
D27*
X174055000Y-90250000D03*
X171105000Y-90250000D03*
D28*
X173365000Y-93260000D03*
X171815000Y-93260000D03*
D29*
X180455000Y-84680000D03*
X183405000Y-84680000D03*
D26*
X118690000Y-99074995D03*
X118690000Y-97524995D03*
D28*
X176095000Y-113360000D03*
X174545000Y-113360000D03*
D24*
X116658000Y-99249995D03*
X116658000Y-97349995D03*
D30*
X137446000Y-105570000D03*
X135546000Y-105570000D03*
D31*
X195788292Y-79999800D03*
X197338292Y-79999800D03*
D28*
X138420995Y-98029993D03*
X136870995Y-98029993D03*
D32*
X133096000Y-103695000D03*
X133096000Y-100745000D03*
D12*
X191850000Y-90800000D03*
X191850000Y-94300000D03*
D33*
X86295999Y-106695011D03*
X86295999Y-106045013D03*
X86295999Y-105395012D03*
X86295999Y-104745012D03*
X86295999Y-104095012D03*
X86295999Y-103445012D03*
X86295999Y-102795012D03*
X86295999Y-102145012D03*
X86295999Y-101495012D03*
X86295999Y-100845012D03*
X86295999Y-100195011D03*
X86295999Y-99545013D03*
X79095999Y-99545013D03*
X79095999Y-100195011D03*
X79095999Y-100845012D03*
X79095999Y-101495012D03*
X79095999Y-102145012D03*
X79095999Y-102795012D03*
X79095999Y-103445012D03*
X79095999Y-104095012D03*
X79095999Y-104745012D03*
X79095999Y-105395012D03*
X79095999Y-106045013D03*
X79095999Y-106695011D03*
D34*
X92336000Y-102725000D03*
X92336000Y-104275000D03*
X179705000Y-122161000D03*
X179705000Y-123711000D03*
D26*
X88780000Y-104275000D03*
X88780000Y-102725000D03*
D31*
X106771004Y-106722000D03*
X108321004Y-106722000D03*
D28*
X114401000Y-106870000D03*
X112851000Y-106870000D03*
X112801000Y-96950000D03*
X111251000Y-96950000D03*
D35*
X161861750Y-99600653D03*
X161211750Y-99600653D03*
X160561750Y-99600653D03*
X159911750Y-99600653D03*
X159911750Y-101875653D03*
X160561750Y-101875653D03*
X161211750Y-101875653D03*
X161861750Y-101875653D03*
D36*
X90833502Y-100910012D03*
X90833502Y-99960012D03*
X90833502Y-99010012D03*
X88558502Y-99010012D03*
X88558502Y-100910012D03*
D37*
X110176000Y-104790000D03*
X110826000Y-104790000D03*
X111476000Y-104790000D03*
X112126000Y-104790000D03*
X112776000Y-104790000D03*
X113426000Y-104790000D03*
X114076000Y-104790000D03*
X114726000Y-104790000D03*
X114726000Y-99050000D03*
X114076000Y-99050000D03*
X113426000Y-99050000D03*
X112776000Y-99050000D03*
X112126000Y-99050000D03*
X111476000Y-99050000D03*
X110826000Y-99050000D03*
X110176000Y-99050000D03*
D38*
X90558000Y-102675000D03*
X90558000Y-104325000D03*
D39*
X163061000Y-97110005D03*
X164711000Y-97110005D03*
D40*
X161381000Y-97110000D03*
X159731000Y-97110000D03*
D11*
X168886000Y-116780000D03*
X168886000Y-115510000D03*
X168886000Y-114240000D03*
X168886000Y-112970000D03*
X168886000Y-111700000D03*
X168886000Y-110430000D03*
X168886000Y-109160000D03*
X168886000Y-107890000D03*
X163936000Y-107890000D03*
X163936000Y-109160000D03*
X163936000Y-110430000D03*
X163936000Y-111700000D03*
X163936000Y-112970000D03*
X163936000Y-114240000D03*
X163936000Y-115510000D03*
X163936000Y-116780000D03*
D26*
X120468000Y-99074995D03*
X120468000Y-97524995D03*
D41*
X197927800Y-93340200D03*
X197927800Y-95219800D03*
X200112200Y-94280000D03*
X185087800Y-94180200D03*
X185087800Y-96059800D03*
X187272200Y-95120000D03*
D42*
X194838492Y-83802000D03*
X196718092Y-83802000D03*
X195778292Y-81617600D03*
D43*
X153756000Y-110630000D03*
D44*
X150181000Y-113492500D03*
X150831000Y-113492500D03*
X151481000Y-113492500D03*
X152131000Y-113492500D03*
X152781000Y-113492500D03*
X153431000Y-113492500D03*
X154081000Y-113492500D03*
X154731000Y-113492500D03*
X155381000Y-113492500D03*
X156031000Y-113492500D03*
X156681000Y-113492500D03*
X157331000Y-113492500D03*
X157331000Y-107767500D03*
X156681000Y-107767500D03*
X156031000Y-107767500D03*
X155381000Y-107767500D03*
X154731000Y-107767500D03*
X154081000Y-107767500D03*
X153431000Y-107767500D03*
X152781000Y-107767500D03*
X152131000Y-107767500D03*
X151481000Y-107767500D03*
X150831000Y-107767500D03*
X150181000Y-107767500D03*
D26*
X142495998Y-104124998D03*
X142495998Y-102574998D03*
D38*
X164749988Y-100175001D03*
X164749988Y-101825001D03*
D30*
X201475000Y-97020000D03*
X199575000Y-97020000D03*
D45*
X167646956Y-90579052D03*
D46*
X167646956Y-93119052D03*
D45*
X159646956Y-90579052D03*
D46*
X159646956Y-93119052D03*
D45*
X167646956Y-82479052D03*
D46*
X167646956Y-85019052D03*
D45*
X163646956Y-82479052D03*
D46*
X163646956Y-85019052D03*
D45*
X159646956Y-82479052D03*
D46*
X159646956Y-85019052D03*
D45*
X163646956Y-90579052D03*
D46*
X163646956Y-93119052D03*
D40*
X198845000Y-91305000D03*
X197195000Y-91305000D03*
X185815000Y-92860000D03*
X184165000Y-92860000D03*
X141761006Y-98029993D03*
X140111006Y-98029993D03*
D38*
X187500006Y-79896200D03*
X187500006Y-81546200D03*
X187500006Y-82944200D03*
X187500006Y-84594200D03*
X196100000Y-92745000D03*
X196100000Y-94395000D03*
X183390000Y-94365000D03*
X183390000Y-96015000D03*
X148756005Y-107394991D03*
X148756005Y-109044991D03*
D40*
X201575000Y-98940000D03*
X199925000Y-98940000D03*
D38*
X187500006Y-85992200D03*
X187500006Y-87642200D03*
D34*
X148756005Y-110515012D03*
X148756005Y-112065012D03*
D27*
X176715000Y-110630000D03*
X173765000Y-110630000D03*
D31*
X180925000Y-81680000D03*
X182475000Y-81680000D03*
D47*
X204295792Y-85809800D03*
D48*
X204295792Y-79809800D03*
D49*
X199595792Y-82809800D03*
D50*
X107157211Y-91002066D03*
X107157211Y-94002066D03*
D51*
X181483000Y-123761000D03*
X181483000Y-122111000D03*
D50*
X134157211Y-113001633D03*
X134157211Y-110001633D03*
X89157211Y-91002066D03*
X89157211Y-94002066D03*
X134157211Y-91002066D03*
X134157211Y-94002066D03*
X127157211Y-113001633D03*
X127157211Y-110001633D03*
X136157211Y-91002066D03*
X136157211Y-94002066D03*
X143157211Y-91002066D03*
X143157211Y-94002066D03*
X100157211Y-113001633D03*
X100157211Y-110001633D03*
D52*
X187611003Y-98175006D03*
X190151003Y-98175006D03*
X192691003Y-98175006D03*
X195231003Y-98175006D03*
X187611003Y-122675006D03*
X190151003Y-122675006D03*
X192691003Y-122675006D03*
X195231003Y-122675006D03*
X160611003Y-106615006D03*
X160611003Y-109155006D03*
X160611003Y-111695006D03*
X160611003Y-114235006D03*
D50*
X100157211Y-91002066D03*
X100157211Y-94002066D03*
D51*
X185039000Y-123761000D03*
X185039000Y-122111000D03*
D50*
X125157211Y-113001633D03*
X125157211Y-110001633D03*
X116157211Y-113001633D03*
X116157211Y-110001633D03*
D32*
X136386000Y-103695000D03*
X136386000Y-100745000D03*
D53*
X194788282Y-78419792D03*
X192788282Y-78419792D03*
D54*
X191588282Y-78419792D03*
D53*
X193788282Y-78419792D03*
X195788282Y-78419792D03*
D54*
X196988282Y-78419792D03*
D55*
X198608282Y-78419792D03*
X198608282Y-74619792D03*
X189968282Y-78419792D03*
X189968282Y-74619792D03*
D34*
X142495998Y-99534999D03*
X142495998Y-101084999D03*
D45*
X186001000Y-126628000D03*
D46*
X183461000Y-126628000D03*
X180921000Y-126628000D03*
X178381000Y-126628000D03*
X175841000Y-126628000D03*
X173301000Y-126628000D03*
X170761000Y-126628000D03*
X168221000Y-126628000D03*
X165681000Y-126628000D03*
X163141000Y-126628000D03*
D50*
X82157211Y-113001633D03*
X82157211Y-110001633D03*
X118157211Y-113001633D03*
X118157211Y-110001633D03*
D39*
X143170995Y-98029993D03*
X144820995Y-98029993D03*
D50*
X109157211Y-113001633D03*
X109157211Y-110001633D03*
X118157211Y-91002066D03*
X118157211Y-94002066D03*
X109157211Y-91002066D03*
X109157211Y-94002066D03*
X80157211Y-91002066D03*
X80157211Y-94002066D03*
X98157211Y-113001633D03*
X98157211Y-110001633D03*
D24*
X198308292Y-87719800D03*
X198308292Y-85819800D03*
D56*
X201261000Y-101920000D03*
X199991000Y-101920000D03*
X198721000Y-101920000D03*
X197451000Y-101920000D03*
X196181000Y-101920000D03*
X194911000Y-101920000D03*
X193641000Y-101920000D03*
X192371000Y-101920000D03*
X191101000Y-101920000D03*
X189831000Y-101920000D03*
X188561000Y-101920000D03*
X187291000Y-101920000D03*
X186021000Y-101920000D03*
X184751000Y-101920000D03*
D57*
X183751000Y-104705000D03*
X183751000Y-105975000D03*
X183751000Y-107245000D03*
X183751000Y-108515000D03*
X183751000Y-109785000D03*
X183751000Y-111055000D03*
X183751000Y-112325000D03*
X183751000Y-113595000D03*
X183751000Y-114865000D03*
X183751000Y-116135000D03*
D56*
X184751000Y-118920000D03*
X186021000Y-118920000D03*
X187291000Y-118920000D03*
X188561000Y-118920000D03*
X189831000Y-118920000D03*
X191101000Y-118920000D03*
X192371000Y-118920000D03*
X193641000Y-118920000D03*
X194911000Y-118920000D03*
X196181000Y-118920000D03*
X197451000Y-118920000D03*
X198721000Y-118920000D03*
X199991000Y-118920000D03*
X201261000Y-118920000D03*
D58*
X193761000Y-109420000D03*
D50*
X80157211Y-113001633D03*
X80157211Y-110001633D03*
D45*
X201946000Y-126380000D03*
D46*
X199406000Y-126380000D03*
X196866000Y-126380000D03*
X194326000Y-126380000D03*
X191786000Y-126380000D03*
X189246002Y-126380011D03*
D51*
X166527988Y-101825001D03*
X166527988Y-100175001D03*
D50*
X91157211Y-113001633D03*
X91157211Y-110001633D03*
X127157211Y-91002066D03*
X127157211Y-94002066D03*
D59*
X94146005Y-100440012D03*
X94146005Y-99480012D03*
D50*
X89157211Y-113001633D03*
X89157211Y-110001633D03*
D45*
X163141000Y-77372000D03*
D46*
X165681000Y-77372000D03*
X168221000Y-77372000D03*
X170761000Y-77372000D03*
X173301000Y-77372000D03*
X175841000Y-77372000D03*
X178381000Y-77372000D03*
X180921000Y-77372000D03*
X183461000Y-77372000D03*
X186001000Y-77372000D03*
D50*
X125157211Y-91002066D03*
X125157211Y-94002066D03*
X145157211Y-113001633D03*
X145157211Y-110001633D03*
D38*
X92776006Y-99135012D03*
X92776006Y-100785012D03*
D51*
X183261000Y-123761000D03*
X183261000Y-122111000D03*
D50*
X116157211Y-91002066D03*
X116157211Y-94002066D03*
D30*
X140936000Y-105230000D03*
X139036000Y-105230000D03*
D50*
X91157211Y-91002066D03*
X91157211Y-94002066D03*
X145157211Y-91002066D03*
X145157211Y-94002066D03*
X82157211Y-91002066D03*
X82157211Y-94002066D03*
X107157211Y-113001633D03*
X107157211Y-110001633D03*
X98157211Y-91002066D03*
X98157211Y-94002066D03*
X143157211Y-113001633D03*
X143157211Y-110001633D03*
D32*
X144936000Y-104185000D03*
X144936000Y-101235000D03*
D50*
X136157211Y-113001633D03*
X136157211Y-110001633D03*
D60*
X89155998Y-106419994D03*
X95505998Y-106419994D03*
X93536000Y-97110005D03*
X85916000Y-97110005D03*
D61*
X87186000Y-97110005D03*
D60*
X91695998Y-106419994D03*
D61*
X90425998Y-106419994D03*
D60*
X92965998Y-106419994D03*
D61*
X94235998Y-106419994D03*
D60*
X88456000Y-97110005D03*
D61*
X89726000Y-97110005D03*
M02*
