0
SECTION
2
HEADER
9
$INSUNITS
70
4
9
$ACADVER
1
AC1014
9
$HANDSEED
5
FFFF
0
ENDSEC
0
SECTION
2
TABLES
0
TABLE
2
VPORT
5
8
100
AcDbSymbolTable
0
ENDTAB
0
TABLE
2
LTYPE
5
5
100
AcDbSymbolTable
0
LTYPE
5
14
100
AcDbSymbolTableRecord
100
AcDbLinetypeTableRecord
2
BYBLOCK
70
0
0
LTYPE
5
15
100
AcDbSymbolTableRecord
100
AcDbLinetypeTableRecord
2
BYLAYER
70
0
0
ENDTAB
0
TABLE
2
LAYER
5
2
100
AcDbSymbolTable
70
2
0
LAYER
5
50
100
AcDbSymbolTableRecord
100
AcDbLayerTableRecord
2
0
70
0
6
CONTINUOUS
0
ENDTAB
0
TABLE
2
STYLE
5
3
100
AcDbSymbolTable
70
1
0
STYLE
5
11
100
AcDbSymbolTableRecord
100
AcDbTextStyleTableRecord
2
STANDARD
70
0
0
ENDTAB
0
TABLE
2
VIEW
5
6
100
AcDbSymbolTable
70
0
0
ENDTAB
0
TABLE
2
UCS
5
7
100
AcDbSymbolTable
70
0
0
ENDTAB
0
TABLE
2
APPID
5
9
100
AcDbSymbolTable
70
2
0
APPID
5
12
100
AcDbSymbolTableRecord
100
AcDbRegAppTableRecord
2
ACAD
70
0
0
ENDTAB
0
TABLE
2
DIMSTYLE
5
A
100
AcDbSymbolTable
70
1
0
ENDTAB
0
TABLE
2
BLOCK_RECORD
5
1
100
AcDbSymbolTable
70
1
0
BLOCK_RECORD
5
1F
100
AcDbSymbolTableRecord
100
AcDbBlockTableRecord
2
*MODEL_SPACE
0
BLOCK_RECORD
5
1B
100
AcDbSymbolTableRecord
100
AcDbBlockTableRecord
2
*PAPER_SPACE
0
ENDTAB
0
ENDSEC
0
SECTION
2
BLOCKS
0
BLOCK
5
20
100
AcDbEntity
100
AcDbBlockBegin
2
*MODEL_SPACE
0
ENDBLK
5
21
100
AcDbEntity
100
AcDbBlockEnd
0
BLOCK
5
1C
100
AcDbEntity
100
AcDbBlockBegin
2
*PAPER_SPACE
0
ENDBLK
5
1D
100
AcDbEntity
100
AcDbBlockEnd
0
ENDSEC
0
SECTION
2
ENTITIES
0
CIRCLE
5
100
100
AcDbEntity
8
0
100
AcDbCircle
10
-326.13920947782731
20
22.72064629471549
30
0
40
1.5999999999999659
210
0
220
-0
230
1
0
LWPOLYLINE
5
101
100
AcDbEntity
8
0
100
AcDbPolyline
90
4
70
1
43
0.0
10
-190.47675471664473
20
79.220417207438473
10
-190.47675471664473
20
81.720417207438473
10
-220.47675471664468
20
81.720417207438473
10
-220.47675471664473
20
79.220417207438473
0
LWPOLYLINE
5
102
100
AcDbEntity
8
0
100
AcDbPolyline
90
4
70
1
43
0.0
10
-300.47675471664468
20
18.220417207438437
10
-300.47675471664468
20
15.720417207438437
10
-270.47675471664468
20
15.720417207438437
10
-270.47675471664468
20
18.220417207438437
0
LWPOLYLINE
5
103
100
AcDbEntity
8
0
100
AcDbPolyline
90
4
70
1
43
0.0
10
-220.47675471664465
20
18.220417207438455
10
-220.47675471664465
20
15.720417207438437
10
-190.47675471664468
20
15.720417207438437
10
-190.47675471664468
20
18.220417207438455
0
CIRCLE
5
104
100
AcDbEntity
8
0
100
AcDbCircle
10
-168.13920947783149
20
74.72064629471592
30
0
40
1.6000000000000014
210
-4.3790577010150533e-47
220
3.0254624334760299e-123
230
1
0
CIRCLE
5
105
100
AcDbEntity
8
0
100
AcDbCircle
10
-168.13920947782705
20
22.720646294716023
30
0
40
1.6000000000000014
210
-4.3790577010150533e-47
220
3.0254624334760299e-123
230
1
0
LWPOLYLINE
5
106
100
AcDbEntity
8
0
100
AcDbPolyline
90
4
70
1
43
0.0
10
-333.04425471664473
20
23.720417207438462
10
-330.54425471664473
20
23.720417207438462
10
-330.54425471664473
20
38.720417207438459
10
-333.04425471664473
20
38.720417207438459
0
CIRCLE
5
107
100
AcDbEntity
8
0
100
AcDbCircle
10
-233.30784182292695
20
39.218453514106706
30
0
40
1.6000000000000014
210
-4.3790577010150533e-47
220
3.0254624334760299e-123
230
1
0
CIRCLE
5
108
100
AcDbEntity
8
0
100
AcDbCircle
10
-309.47994376730924
20
58.218895513834951
30
0
40
1.6000000000000014
210
-4.3790577010150533e-47
220
3.0254624334760299e-123
230
1
0
CIRCLE
5
109
100
AcDbEntity
8
0
100
AcDbCircle
10
-309.48011376263031
20
39.219356758804977
30
0
40
1.6000000000000014
210
-4.3790577010150533e-47
220
3.0254624334760299e-123
230
1
0
CIRCLE
5
110
100
AcDbEntity
8
0
100
AcDbCircle
10
-233.30793131210342
20
48.717270122661475
30
0
40
1.6000000000000014
210
-4.3790577010150533e-47
220
3.0254624334760299e-123
230
1
0
LWPOLYLINE
5
111
100
AcDbEntity
8
0
100
AcDbPolyline
90
4
70
1
43
0.0
10
-300.47675471664468
20
81.720417207438473
10
-300.47675471664468
20
79.220417207438473
10
-270.47675471664468
20
79.220417207438473
10
-270.47675471664468
20
81.720417207438473
0
LWPOLYLINE
5
112
100
AcDbEntity
8
0
100
AcDbPolyline
90
8
70
1
43
0.0
10
-303.85820947784049
20
59.039246294715625
10
-303.85820947784049
20
38.339246294715643
42
0.41421356237309509
10
-302.85820947784043
20
37.33924629471565
10
-262.35819947784046
20
37.339246294715643
42
0.41421356237309509
10
-261.35819947784051
20
38.339246294715643
10
-261.35819947784046
20
59.039246294715625
42
0.41421356237308465
10
-262.35819947784046
20
60.039246294715625
10
-302.85820947784043
20
60.039246294715625
42
0.41421356237309509
0
LWPOLYLINE
5
113
100
AcDbEntity
8
0
100
AcDbPolyline
90
8
70
1
43
0.0
10
-198.61046447784727
20
31.36064629471565
10
-198.61046447784727
20
26.860646294715636
42
0.41421356237309509
10
-197.6104644778473
20
25.860646294715643
10
-194.61046447784727
20
25.860646294715636
42
0.4142135623730977
10
-193.61046447784727
20
26.860646294715647
10
-193.61046447784727
20
31.36064629471565
42
0.41421356237309509
10
-194.61046447784727
20
32.360646294715636
10
-197.6104644778473
20
32.36064629471565
42
0.41421356237309509
0
LWPOLYLINE
5
114
100
AcDbEntity
8
0
100
AcDbPolyline
90
4
70
1
43
0.0
10
-330.54425471664473
20
73.720417207438459
10
-333.04425471664473
20
73.720417207438459
10
-333.04425471664473
20
58.720417207438459
10
-330.54425471664473
20
58.720417207438459
0
LWPOLYLINE
5
115
100
AcDbEntity
8
0
100
AcDbPolyline
90
4
70
1
43
0.0
10
-163.63925471664473
20
58.720417207438459
10
-161.1392547166447
20
58.720417207438459
10
-161.13925471664464
20
73.720417207438459
10
-163.6392547166447
20
73.720417207438459
0
LWPOLYLINE
5
116
100
AcDbEntity
8
0
100
AcDbPolyline
90
4
70
1
43
0.0
10
-163.63925471664473
20
23.720417207438462
10
-161.1392547166447
20
23.720417207438462
10
-161.13925471664464
20
38.720417207438459
10
-163.6392547166447
20
38.720417207438459
0
LWPOLYLINE
5
117
100
AcDbEntity
8
0
100
AcDbPolyline
90
8
70
1
43
0.0
10
-335.04425471664462
20
11.720417207438487
42
-0.41421356237310542
10
-337.04425471664467
20
13.720417207438445
10
-337.04425471664479
20
83.720417207438459
42
-0.41421356237310802
10
-335.04425471664479
20
85.720417207438459
10
-159.1392547166447
20
85.720417207438487
42
-0.41421356237309509
10
-157.1392547166447
20
83.720417207438487
10
-157.1392547166447
20
13.720417207438427
42
-0.4142135623731002
10
-159.1392547166447
20
11.720417207438434
0
CIRCLE
5
118
100
AcDbEntity
8
0
100
AcDbCircle
10
-326.13920947783186
20
74.720646294715308
30
0
40
1.5999999999999659
210
0
220
-0
230
1
0
ENDSEC
0
SECTION
2
OBJECTS
0
DICTIONARY
5
C
100
AcDbDictionary
3
ACAD_GROUP
350
D
3
ACAD_MLINESTYLE
350
17
0
DICTIONARY
5
D
100
AcDbDictionary
0
DICTIONARY
5
1A
330
C
100
AcDbDictionary
0
DICTIONARY
5
17
100
AcDbDictionary
0
ENDSEC
0
EOF
