0
SECTION
2
HEADER
9
$INSUNITS
70
4
9
$ACADVER
1
AC1014
9
$HANDSEED
5
FFFF
0
ENDSEC
0
SECTION
2
TABLES
0
TABLE
2
VPORT
5
8
100
AcDbSymbolTable
0
ENDTAB
0
TABLE
2
LTYPE
5
5
100
AcDbSymbolTable
0
LTYPE
5
14
100
AcDbSymbolTableRecord
100
AcDbLinetypeTableRecord
2
BYBLOCK
70
0
0
LTYPE
5
15
100
AcDbSymbolTableRecord
100
AcDbLinetypeTableRecord
2
BYLAYER
70
0
0
ENDTAB
0
TABLE
2
LAYER
5
2
100
AcDbSymbolTable
70
2
0
LAYER
5
50
100
AcDbSymbolTableRecord
100
AcDbLayerTableRecord
2
0
70
0
6
CONTINUOUS
0
ENDTAB
0
TABLE
2
STYLE
5
3
100
AcDbSymbolTable
70
1
0
STYLE
5
11
100
AcDbSymbolTableRecord
100
AcDbTextStyleTableRecord
2
STANDARD
70
0
0
ENDTAB
0
TABLE
2
VIEW
5
6
100
AcDbSymbolTable
70
0
0
ENDTAB
0
TABLE
2
UCS
5
7
100
AcDbSymbolTable
70
0
0
ENDTAB
0
TABLE
2
APPID
5
9
100
AcDbSymbolTable
70
2
0
APPID
5
12
100
AcDbSymbolTableRecord
100
AcDbRegAppTableRecord
2
ACAD
70
0
0
ENDTAB
0
TABLE
2
DIMSTYLE
5
A
100
AcDbSymbolTable
70
1
0
ENDTAB
0
TABLE
2
BLOCK_RECORD
5
1
100
AcDbSymbolTable
70
1
0
BLOCK_RECORD
5
1F
100
AcDbSymbolTableRecord
100
AcDbBlockTableRecord
2
*MODEL_SPACE
0
BLOCK_RECORD
5
1B
100
AcDbSymbolTableRecord
100
AcDbBlockTableRecord
2
*PAPER_SPACE
0
ENDTAB
0
ENDSEC
0
SECTION
2
BLOCKS
0
BLOCK
5
20
100
AcDbEntity
100
AcDbBlockBegin
2
*MODEL_SPACE
0
ENDBLK
5
21
100
AcDbEntity
100
AcDbBlockEnd
0
BLOCK
5
1C
100
AcDbEntity
100
AcDbBlockBegin
2
*PAPER_SPACE
0
ENDBLK
5
1D
100
AcDbEntity
100
AcDbBlockEnd
0
ENDSEC
0
SECTION
2
ENTITIES
0
LWPOLYLINE
5
100
100
AcDbEntity
8
0
100
AcDbPolyline
90
33
70
1
43
0.0
10
335.04425471664479
20
85.72041720743843
42
-0.41421356237310802
10
337.04425471664479
20
83.720417207438459
10
337.04425471664467
20
13.720417207438498
42
-0.41421356237309437
10
335.04425471664462
20
11.720417207438469
10
319.36906748887645
20
11.720417207438469
10
319.36906748887645
20
13.720417207438462
10
316.86906748887645
20
13.720417207438448
10
316.86906748887645
20
13.72068971689945
42
-0.41421356237309509
10
315.86906748887645
20
14.720689716899464
10
315.86906748887645
20
16.720271716899617
42
-0.41421356237310542
10
316.86906748887645
20
17.720271716899596
10
319.36906748887645
20
17.720271716899632
10
319.36906748887645
20
20.220271716899614
10
314.36906748887645
20
20.220271716899632
42
0.4142135623730937
10
313.36906748887645
20
19.220271716899617
10
313.36906748887657
20
12.720417207438491
42
-0.4142135623730977
10
312.36906748887657
20
11.720417207438469
10
231.36906748887642
20
11.720417207438452
42
-0.41421356237307422
10
230.36906748887642
20
12.720417207438466
10
230.36906748887645
20
19.219999207438594
42
0.41421356237310542
10
229.36906748887645
20
20.21999920743859
10
224.3690674888764
20
20.219999207438597
10
224.3690674888764
20
17.719999207438608
10
226.86906748887645
20
17.71999920743859
42
-0.41421356237310542
10
227.86906748887645
20
16.719999207438612
10
227.86906748887645
20
14.720417207438441
42
-0.41421356237308982
10
226.86906748887645
20
13.720417207438445
10
224.36906748887645
20
13.720417207438445
10
224.36906748887645
20
11.720417207438469
10
159.13925488896726
20
11.720417207438459
42
-0.41421358760915195
10
157.13925471664467
20
13.720417207438436
10
157.1392547166447
20
83.720417207438459
42
-0.4142135623730977
10
159.1392547166447
20
85.720417207438459
0
LWPOLYLINE
5
101
100
AcDbEntity
8
0
100
AcDbPolyline
90
16
70
1
43
0.0
10
235.74425471664469
20
44.719098207438471
10
235.74425471664469
20
34.821934207438474
10
234.24425471664472
20
34.821934207438488
10
234.24425471664472
20
28.721934052698479
10
244.24464871664469
20
28.721934207432447
10
244.24464871664466
20
34.321934207438474
42
-0.4142135623730977
10
244.74464871664475
20
34.821934207438474
10
298.0446487166447
20
34.821934207438431
42
-0.41421356237304557
10
298.5446487166447
20
34.321934207438474
10
298.5446487166447
20
28.721935047604809
10
308.54425471664467
20
28.721935202326581
10
308.54425471664467
20
34.821934362168541
10
307.04425471664473
20
34.82193420743846
10
307.04425471664473
20
44.719098207438471
42
0.41421356237308465
10
306.04425471664473
20
45.719098207438471
10
236.74425471664472
20
45.719098207438471
42
0.41421356237309509
0
LWPOLYLINE
5
102
100
AcDbEntity
8
0
100
AcDbPolyline
90
4
70
1
43
0.0
10
193.90876692454856
20
76.21999920743869
10
193.90876692454862
20
74.619999207438696
10
222.90876692454859
20
74.619999207438696
10
222.90876692454859
20
76.21999920743869
0
LWPOLYLINE
5
103
100
AcDbEntity
8
0
100
AcDbPolyline
90
4
70
1
43
0.0
10
260.8942547166447
20
74.618900207438486
10
260.89425416427196
20
76.218900207438466
10
254.89425471664472
20
76.218900207438466
10
254.89425385480394
20
74.618900207438486
0
LWPOLYLINE
5
104
100
AcDbEntity
8
0
100
AcDbPolyline
90
4
70
1
43
0.0
10
241.89425385480467
20
74.618900207438486
10
246.89425471664748
20
74.618900207438486
10
246.89425416427471
20
76.218900207438466
10
241.89425471664549
20
76.218900207438466
0
LWPOLYLINE
5
105
100
AcDbEntity
8
0
100
AcDbPolyline
90
4
70
1
43
0.0
10
281.89425385480388
20
74.618900207438486
10
287.8942547166447
20
74.618900207438486
10
287.89425416427196
20
76.218900207438466
10
281.8942547166447
20
76.218900207438466
0
LWPOLYLINE
5
106
100
AcDbEntity
8
0
100
AcDbPolyline
90
4
70
1
43
0.0
10
300.89425471664748
20
74.618900207438486
10
300.89425416427468
20
76.218900207438466
10
295.89425471664549
20
76.218900207438466
10
295.89425385480467
20
74.618900207438486
0
LWPOLYLINE
5
107
100
AcDbEntity
8
0
100
AcDbPolyline
90
4
70
1
43
0.0
10
273.89425471664748
20
74.618900207438486
10
273.89425416427468
20
76.218900207438466
10
268.89425471664549
20
76.218900207438466
10
268.89425385480473
20
74.618900207438486
0
LWPOLYLINE
5
108
100
AcDbEntity
8
0
100
AcDbPolyline
90
4
70
1
43
0.0
10
330.54425471664473
20
23.720417207438462
10
333.04425471664473
20
23.720417207438462
10
333.04425471664473
20
38.720417207438459
10
330.54425471664473
20
38.720417207438459
0
LWPOLYLINE
5
109
100
AcDbEntity
8
0
100
AcDbPolyline
90
4
70
1
43
0.0
10
163.6392547166447
20
73.720417207438459
10
161.1392547166447
20
73.720417207438459
10
161.1392547166447
20
58.720417207438459
10
163.6392547166447
20
58.720417207438459
0
LWPOLYLINE
5
110
100
AcDbEntity
8
0
100
AcDbPolyline
90
4
70
1
43
0.0
10
163.6392547166447
20
38.720417207438459
10
161.1392547166447
20
38.720417207438459
10
161.1392547166447
20
23.720417207438462
10
163.6392547166447
20
23.720417207438462
0
CIRCLE
5
111
100
AcDbEntity
8
0
100
AcDbCircle
10
326.13920947783612
20
22.720646294715117
30
0
40
1.5999999999999659
210
4.3790577010150533e-47
220
4.3180842775472223e-78
230
1
0
LWPOLYLINE
5
112
100
AcDbEntity
8
0
100
AcDbPolyline
90
4
70
1
43
0.0
10
254.89425471664472
20
21.221934207438473
10
260.89425416427196
20
21.221934207438473
10
260.8942547166447
20
22.821934207438463
10
254.89425385480394
20
22.821934207438463
0
LWPOLYLINE
5
113
100
AcDbEntity
8
0
100
AcDbPolyline
90
4
70
1
43
0.0
10
241.89425471664549
20
21.221934207438473
10
246.89425416427471
20
21.221934207438473
10
246.89425471664748
20
22.821934207438463
10
241.89425385480467
20
22.821934207438463
0
CIRCLE
5
114
100
AcDbEntity
8
0
100
AcDbCircle
10
229.8081137166447
20
30.721250207438473
30
0
40
1.6000000000000003
210
0
220
-0
230
1
0
CIRCLE
5
115
100
AcDbEntity
8
0
100
AcDbCircle
10
312.98011371664472
20
30.721250207438455
30
0
40
1.6000000000000003
210
0
220
-0
230
1
0
CIRCLE
5
116
100
AcDbEntity
8
0
100
AcDbCircle
10
229.8081137166447
20
66.719584207438473
30
0
40
1.6000000000000003
210
0
220
-0
230
1
0
CIRCLE
5
117
100
AcDbEntity
8
0
100
AcDbCircle
10
312.98011371664472
20
66.719584207438459
30
0
40
1.6000000000000003
210
0
220
-0
230
1
0
LWPOLYLINE
5
118
100
AcDbEntity
8
0
100
AcDbPolyline
90
4
70
1
43
0.0
10
222.9087669245485
20
22.822999207438599
10
193.9087669245485
20
22.822999207438599
10
193.9087669245485
20
21.222999207438598
10
222.9087669245485
20
21.222999207438598
0
LWPOLYLINE
5
119
100
AcDbEntity
8
0
100
AcDbPolyline
90
4
70
1
43
0.0
10
190.47675471664473
20
81.720417207438473
10
190.47675471664473
20
79.220417207438473
10
220.47675471664468
20
79.220417207438473
10
220.47675471664473
20
81.720417207438473
0
LWPOLYLINE
5
120
100
AcDbEntity
8
0
100
AcDbPolyline
90
4
70
1
43
0.0
10
220.47675471664465
20
15.720417207438437
10
220.47675471664468
20
18.220417207438455
10
190.47675471664468
20
18.220417207438455
10
190.47675471664465
20
15.720417207438437
0
CIRCLE
5
121
100
AcDbEntity
8
0
100
AcDbCircle
10
178.1392094778405
20
74.720646294715579
30
0
40
1.6000000000000014
210
0
220
0
230
1
0
CIRCLE
5
122
100
AcDbEntity
8
0
100
AcDbCircle
10
312.98011371664461
20
48.720417207438516
30
0
40
3.2499999999999929
210
0
220
0
230
1
0
CIRCLE
5
123
100
AcDbEntity
8
0
100
AcDbCircle
10
230.8081137166447
20
48.717270122661432
30
0
40
3.2499999999999929
210
0
220
0
230
1
0
LWPOLYLINE
5
124
100
AcDbEntity
8
0
100
AcDbPolyline
90
4
70
1
43
0.0
10
270.47675471664468
20
81.720417207438473
10
270.47675471664468
20
79.220417207438473
10
300.47675471664468
20
79.220417207438473
10
300.47675471664468
20
81.720417207438473
0
LWPOLYLINE
5
125
100
AcDbEntity
8
0
100
AcDbPolyline
90
4
70
1
43
0.0
10
333.04425471664473
20
73.720417207438459
10
330.54425471664473
20
73.720417207438459
10
330.54425471664473
20
58.720417207438459
10
333.04425471664473
20
58.720417207438459
0
CIRCLE
5
126
100
AcDbEntity
8
0
100
AcDbCircle
10
168.1392094778405
20
74.72064629471555
30
0
40
1.6000000000000014
210
0
220
0
230
1
0
CIRCLE
5
127
100
AcDbEntity
8
0
100
AcDbCircle
10
168.139209477836
20
22.720646294715635
30
0
40
1.6000000000000014
210
0
220
0
230
1
0
LWPOLYLINE
5
128
100
AcDbEntity
8
0
100
AcDbPolyline
90
4
70
1
43
0.0
10
268.89425471664549
20
21.221934207438473
10
273.89425416427468
20
21.221934207438473
10
273.89425471664748
20
22.821934207438463
10
268.89425385480473
20
22.821934207438463
0
LWPOLYLINE
5
129
100
AcDbEntity
8
0
100
AcDbPolyline
90
4
70
1
43
0.0
10
281.8942547166447
20
21.221934207438473
10
287.89425416427196
20
21.221934207438473
10
287.89425471664464
20
22.821934207438463
10
281.89425385480388
20
22.821934207438463
0
LWPOLYLINE
5
130
100
AcDbEntity
8
0
100
AcDbPolyline
90
4
70
1
43
0.0
10
295.89425385480467
20
22.821934207438463
10
295.89425471664549
20
21.221934207438473
10
300.89425416427468
20
21.221934207438473
10
300.89425471664748
20
22.821934207438463
0
LWPOLYLINE
5
131
100
AcDbEntity
8
0
100
AcDbPolyline
90
4
70
1
43
0.0
10
270.47675471664468
20
18.220417207438437
10
270.47675471664468
20
15.720417207438437
10
300.47675471664468
20
15.720417207438437
10
300.47675471664468
20
18.220417207438437
0
CIRCLE
5
132
100
AcDbEntity
8
0
100
AcDbCircle
10
326.13920947784072
20
74.720646294714953
30
0
40
1.5999999999999659
210
4.3790577010150533e-47
220
4.3180842775472223e-78
230
1
0
LWPOLYLINE
5
133
100
AcDbEntity
8
0
100
AcDbPolyline
90
16
70
1
43
0.0
10
196.92820247784041
20
68.195645294715604
42
-0.41421356237311063
10
195.92820247784039
20
67.195645294715604
10
188.02820647784057
20
67.195645294715604
42
0.41421356237309509
10
187.02820647784054
20
66.195645294715604
10
187.02820647784054
20
48.395645294715607
42
0.41421356237309509
10
188.02820647784057
20
47.395645294715614
10
195.92820247784044
20
47.395645294715635
42
-0.41421356237307422
10
196.92820247784044
20
46.395645294715621
10
196.92820247784044
20
43.395652294715596
42
0.41421356237308465
10
197.92820247784044
20
42.395652294715589
10
225.42819989744049
20
42.395652294715603
42
0.41421356237309509
10
226.42819989744052
20
43.395652294715603
10
226.42819989744052
20
71.1956522947156
42
0.41421356237308465
10
225.42819989744055
20
72.195652294715586
10
197.92820247784039
20
72.195652294715586
42
0.4142135623730977
10
196.92820247784039
20
71.195652294715586
0
ENDSEC
0
SECTION
2
OBJECTS
0
DICTIONARY
5
C
100
AcDbDictionary
3
ACAD_GROUP
350
D
3
ACAD_MLINESTYLE
350
17
0
DICTIONARY
5
D
100
AcDbDictionary
0
DICTIONARY
5
1A
330
C
100
AcDbDictionary
0
DICTIONARY
5
17
100
AcDbDictionary
0
ENDSEC
0
EOF
