0
SECTION
2
HEADER
9
$INSUNITS
70
4
9
$ACADVER
1
AC1014
9
$HANDSEED
5
FFFF
0
ENDSEC
0
SECTION
2
TABLES
0
TABLE
2
VPORT
5
8
100
AcDbSymbolTable
0
ENDTAB
0
TABLE
2
LTYPE
5
5
100
AcDbSymbolTable
0
LTYPE
5
14
100
AcDbSymbolTableRecord
100
AcDbLinetypeTableRecord
2
BYBLOCK
70
0
0
LTYPE
5
15
100
AcDbSymbolTableRecord
100
AcDbLinetypeTableRecord
2
BYLAYER
70
0
0
ENDTAB
0
TABLE
2
LAYER
5
2
100
AcDbSymbolTable
70
2
0
LAYER
5
50
100
AcDbSymbolTableRecord
100
AcDbLayerTableRecord
2
0
70
0
6
CONTINUOUS
0
ENDTAB
0
TABLE
2
STYLE
5
3
100
AcDbSymbolTable
70
1
0
STYLE
5
11
100
AcDbSymbolTableRecord
100
AcDbTextStyleTableRecord
2
STANDARD
70
0
0
ENDTAB
0
TABLE
2
VIEW
5
6
100
AcDbSymbolTable
70
0
0
ENDTAB
0
TABLE
2
UCS
5
7
100
AcDbSymbolTable
70
0
0
ENDTAB
0
TABLE
2
APPID
5
9
100
AcDbSymbolTable
70
2
0
APPID
5
12
100
AcDbSymbolTableRecord
100
AcDbRegAppTableRecord
2
ACAD
70
0
0
ENDTAB
0
TABLE
2
DIMSTYLE
5
A
100
AcDbSymbolTable
70
1
0
ENDTAB
0
TABLE
2
BLOCK_RECORD
5
1
100
AcDbSymbolTable
70
1
0
BLOCK_RECORD
5
1F
100
AcDbSymbolTableRecord
100
AcDbBlockTableRecord
2
*MODEL_SPACE
0
BLOCK_RECORD
5
1B
100
AcDbSymbolTableRecord
100
AcDbBlockTableRecord
2
*PAPER_SPACE
0
ENDTAB
0
ENDSEC
0
SECTION
2
BLOCKS
0
BLOCK
5
20
100
AcDbEntity
100
AcDbBlockBegin
2
*MODEL_SPACE
0
ENDBLK
5
21
100
AcDbEntity
100
AcDbBlockEnd
0
BLOCK
5
1C
100
AcDbEntity
100
AcDbBlockBegin
2
*PAPER_SPACE
0
ENDBLK
5
1D
100
AcDbEntity
100
AcDbBlockEnd
0
ENDSEC
0
SECTION
2
ENTITIES
0
LWPOLYLINE
5
100
100
AcDbEntity
8
0
100
AcDbPolyline
90
36
70
1
43
0.0
10
313.36906748887645
20
-19.989999999945173
10
313.36906748887645
20
-23.239999999945177
10
319.36906748887645
20
-23.239999999945177
10
319.36906748887645
20
-19.989999999945173
10
330.54425471664467
20
-19.989999999945198
10
330.54425471664467
20
-24.989999999945198
10
333.04425471664467
20
-24.989999999945198
10
333.04425471664467
20
-34.989999999945198
10
330.54425471664467
20
-34.989999999945198
10
330.54425471664473
20
-39.989999999945198
10
300.47675471664468
20
-39.989999999945198
10
300.47675471664468
20
-42.489999999945184
10
270.47675471664468
20
-42.489999999945177
10
270.47675471664468
20
-39.989999999945191
10
220.47675471664465
20
-39.989999999945184
10
220.47675471664465
20
-42.489999999945184
10
190.47675471664465
20
-42.489999999945177
10
190.47675471664468
20
-39.989999999945177
10
163.63925471664464
20
-39.989999999945177
10
163.63925471664464
20
-34.989999999945169
10
161.13925471664464
20
-34.989999999945162
10
161.13925471664464
20
-24.989999999945166
10
163.63925471664464
20
-24.989999999945169
10
163.63925471664464
20
-19.989999999945166
10
190.47675471664468
20
-19.989999999945173
10
190.47675471664465
20
-17.489999999945173
10
220.47675471664465
20
-17.489999999945177
10
220.47675471664468
20
-19.989999999945177
10
224.3690674888764
20
-19.989999999945177
10
224.3690674888764
20
-23.23999999994518
10
230.36906748887645
20
-23.23999999994518
10
230.36906748887645
20
-19.989999999945177
10
270.47675471664468
20
-19.989999999945184
10
270.47675471664468
20
-17.489999999945184
10
300.47675471664468
20
-17.489999999945191
10
300.47675471664468
20
-19.989999999945191
0
LWPOLYLINE
5
101
100
AcDbEntity
8
0
100
AcDbPolyline
90
18
70
1
43
0.0
10
195.3509274778404
20
-30.390359999945247
42
-0.41421356237309243
10
196.35092747784043
20
-29.390359999945247
10
212.90876692454847
20
-29.39035999994525
42
0.4142135623730937
10
213.9087669245485
20
-28.390359999945254
10
213.9087669245485
20
-25.39035999994525
42
0.41421356237308593
10
212.9087669245485
20
-24.390359999945247
10
194.9087669245485
20
-24.39035999994524
42
0.41421356237309509
10
193.9087669245485
20
-25.390359999945243
10
193.9087669245485
20
-28.044730499925631
42
-0.41421356237306384
10
192.9087669245485
20
-29.044730499925635
10
186.33287816421495
20
-29.044730499925649
42
-0.43099506996958847
10
185.33449959708037
20
-27.987807423002543
42
4.158966150668733
10
182.81131055476351
20
-32.305239185151486
42
-0.59291626497721961
10
184.35092747784043
20
-33.147149855192552
10
184.3509274778404
20
-35.044730499925627
42
0.41421356237309509
10
185.3509274778404
20
-36.044730499925627
10
194.35092747784043
20
-36.044730499925627
42
0.41421356237309509
10
195.3509274778404
20
-35.044730499925627
0
ENDSEC
0
SECTION
2
OBJECTS
0
DICTIONARY
5
C
100
AcDbDictionary
3
ACAD_GROUP
350
D
3
ACAD_MLINESTYLE
350
17
0
DICTIONARY
5
D
100
AcDbDictionary
0
DICTIONARY
5
1A
330
C
100
AcDbDictionary
0
DICTIONARY
5
17
100
AcDbDictionary
0
ENDSEC
0
EOF
