0
SECTION
2
HEADER
9
$INSUNITS
70
4
9
$ACADVER
1
AC1014
9
$HANDSEED
5
FFFF
0
ENDSEC
0
SECTION
2
TABLES
0
TABLE
2
VPORT
5
8
100
AcDbSymbolTable
0
ENDTAB
0
TABLE
2
LTYPE
5
5
100
AcDbSymbolTable
0
LTYPE
5
14
100
AcDbSymbolTableRecord
100
AcDbLinetypeTableRecord
2
BYBLOCK
70
0
0
LTYPE
5
15
100
AcDbSymbolTableRecord
100
AcDbLinetypeTableRecord
2
BYLAYER
70
0
0
ENDTAB
0
TABLE
2
LAYER
5
2
100
AcDbSymbolTable
70
2
0
LAYER
5
50
100
AcDbSymbolTableRecord
100
AcDbLayerTableRecord
2
0
70
0
6
CONTINUOUS
0
ENDTAB
0
TABLE
2
STYLE
5
3
100
AcDbSymbolTable
70
1
0
STYLE
5
11
100
AcDbSymbolTableRecord
100
AcDbTextStyleTableRecord
2
STANDARD
70
0
0
ENDTAB
0
TABLE
2
VIEW
5
6
100
AcDbSymbolTable
70
0
0
ENDTAB
0
TABLE
2
UCS
5
7
100
AcDbSymbolTable
70
0
0
ENDTAB
0
TABLE
2
APPID
5
9
100
AcDbSymbolTable
70
2
0
APPID
5
12
100
AcDbSymbolTableRecord
100
AcDbRegAppTableRecord
2
ACAD
70
0
0
ENDTAB
0
TABLE
2
DIMSTYLE
5
A
100
AcDbSymbolTable
70
1
0
ENDTAB
0
TABLE
2
BLOCK_RECORD
5
1
100
AcDbSymbolTable
70
1
0
BLOCK_RECORD
5
1F
100
AcDbSymbolTableRecord
100
AcDbBlockTableRecord
2
*MODEL_SPACE
0
BLOCK_RECORD
5
1B
100
AcDbSymbolTableRecord
100
AcDbBlockTableRecord
2
*PAPER_SPACE
0
ENDTAB
0
ENDSEC
0
SECTION
2
BLOCKS
0
BLOCK
5
20
100
AcDbEntity
100
AcDbBlockBegin
2
*MODEL_SPACE
0
ENDBLK
5
21
100
AcDbEntity
100
AcDbBlockEnd
0
BLOCK
5
1C
100
AcDbEntity
100
AcDbBlockBegin
2
*PAPER_SPACE
0
ENDBLK
5
1D
100
AcDbEntity
100
AcDbBlockEnd
0
ENDSEC
0
SECTION
2
ENTITIES
0
CIRCLE
5
100
100
AcDbEntity
8
0
100
AcDbCircle
10
230.80811371664475
20
-51.282729877338554
30
0
40
1.6000000000000014
210
0
220
0
230
1
0
LWPOLYLINE
5
101
100
AcDbEntity
8
0
100
AcDbPolyline
90
4
70
1
43
0.0
10
304.3690674888764
20
-29.279582792561531
10
304.3690674888764
20
-26.779582792561527
10
284.3690674888764
20
-26.779582792561527
10
284.3690674888764
20
-29.279582792561531
0
LWPOLYLINE
5
102
100
AcDbEntity
8
0
100
AcDbPolyline
90
4
70
1
43
0.0
10
259.3690674888764
20
-29.279582792561531
10
259.3690674888764
20
-26.779582792561527
10
239.3690674888764
20
-26.779582792561527
10
239.3690674888764
20
-29.279582792561527
0
LWPOLYLINE
5
103
100
AcDbEntity
8
0
100
AcDbPolyline
90
4
70
1
43
0.0
10
259.36906748887645
20
-73.279415792561551
10
239.36906748887645
20
-73.279415792561551
10
239.36906748887645
20
-75.779415792561551
10
259.36906748887645
20
-75.779415792561551
0
LWPOLYLINE
5
104
100
AcDbEntity
8
0
100
AcDbPolyline
90
4
70
1
43
0.0
10
319.36906748887645
20
-65.279582792561484
10
319.36906748887645
20
-55.279582792561484
10
316.86906748887645
20
-55.279582792561484
10
316.86906748887645
20
-65.279582792561484
0
LWPOLYLINE
5
105
100
AcDbEntity
8
0
100
AcDbPolyline
90
4
70
1
43
0.0
10
304.36906748887645
20
-75.779415792561551
10
304.36906748887645
20
-73.279415792561551
10
284.36906748887645
20
-73.279415792561551
10
284.36906748887645
20
-75.779415792561551
0
LWPOLYLINE
5
106
100
AcDbEntity
8
0
100
AcDbPolyline
90
4
70
1
43
0.0
10
224.36906748887645
20
-37.282729877338561
10
224.36906748887645
20
-47.282729877338568
10
226.86906748887645
20
-47.282729877338561
10
226.86906748887645
20
-37.282729877338561
0
LWPOLYLINE
5
107
100
AcDbEntity
8
0
100
AcDbPolyline
90
4
70
1
43
0.0
10
316.86906748887645
20
-37.279582792561484
10
316.86906748887645
20
-47.279582792561484
10
319.36906748887645
20
-47.279582792561484
10
319.36906748887645
20
-37.279582792561484
0
LWPOLYLINE
5
108
100
AcDbEntity
8
0
100
AcDbPolyline
90
4
70
1
43
0.0
10
226.86906748887645
20
-65.282729877338568
10
226.86906748887645
20
-55.282729877338568
10
224.36906748887645
20
-55.282729877338561
10
224.36906748887645
20
-65.282729877338582
0
CIRCLE
5
109
100
AcDbEntity
8
0
100
AcDbCircle
10
312.98011371664461
20
-51.27958279256147
30
0
40
1.6000000000000014
210
-0
220
0
230
1
0
LWPOLYLINE
5
110
100
AcDbEntity
8
0
100
AcDbPolyline
90
14
70
1
43
0.0
10
289.26804283129275
20
-19.779581654161532
42
-0.41421356237310181
10
291.76804283129275
20
-22.279581654161518
42
0.4142135623730992
10
294.2680428312928
20
-24.779581654161518
10
319.36905920257641
20
-24.7795816541616
42
-0.41421356237309892
10
321.36905920257641
20
-26.779581654161511
10
321.36905920257647
20
-75.779415792561522
42
-0.4142135623731002
10
319.36905920257641
20
-77.779415792561522
10
224.36906748887645
20
-77.779415792561522
42
-0.41421356237309637
10
222.36906748887645
20
-75.779415792561522
10
222.3690674888764
20
-26.779581654161532
42
-0.4142135623730937
10
224.3690674888764
20
-24.779581654161529
10
248.4529835626268
20
-24.779581654161525
42
0.36597738186304346
10
250.91801680558495
20
-22.69624832082819
42
-0.36597738186304429
10
254.3690633457264
20
-19.779581654161525
0
ENDSEC
0
SECTION
2
OBJECTS
0
DICTIONARY
5
C
100
AcDbDictionary
3
ACAD_GROUP
350
D
3
ACAD_MLINESTYLE
350
17
0
DICTIONARY
5
D
100
AcDbDictionary
0
DICTIONARY
5
1A
330
C
100
AcDbDictionary
0
DICTIONARY
5
17
100
AcDbDictionary
0
ENDSEC
0
EOF
