0
SECTION
2
HEADER
9
$INSUNITS
70
4
9
$ACADVER
1
AC1014
9
$HANDSEED
5
FFFF
0
ENDSEC
0
SECTION
2
TABLES
0
TABLE
2
VPORT
5
8
100
AcDbSymbolTable
0
ENDTAB
0
TABLE
2
LTYPE
5
5
100
AcDbSymbolTable
0
LTYPE
5
14
100
AcDbSymbolTableRecord
100
AcDbLinetypeTableRecord
2
BYBLOCK
70
0
0
LTYPE
5
15
100
AcDbSymbolTableRecord
100
AcDbLinetypeTableRecord
2
BYLAYER
70
0
0
ENDTAB
0
TABLE
2
LAYER
5
2
100
AcDbSymbolTable
70
2
0
LAYER
5
50
100
AcDbSymbolTableRecord
100
AcDbLayerTableRecord
2
0
70
0
6
CONTINUOUS
0
ENDTAB
0
TABLE
2
STYLE
5
3
100
AcDbSymbolTable
70
1
0
STYLE
5
11
100
AcDbSymbolTableRecord
100
AcDbTextStyleTableRecord
2
STANDARD
70
0
0
ENDTAB
0
TABLE
2
VIEW
5
6
100
AcDbSymbolTable
70
0
0
ENDTAB
0
TABLE
2
UCS
5
7
100
AcDbSymbolTable
70
0
0
ENDTAB
0
TABLE
2
APPID
5
9
100
AcDbSymbolTable
70
2
0
APPID
5
12
100
AcDbSymbolTableRecord
100
AcDbRegAppTableRecord
2
ACAD
70
0
0
ENDTAB
0
TABLE
2
DIMSTYLE
5
A
100
AcDbSymbolTable
70
1
0
ENDTAB
0
TABLE
2
BLOCK_RECORD
5
1
100
AcDbSymbolTable
70
1
0
BLOCK_RECORD
5
1F
100
AcDbSymbolTableRecord
100
AcDbBlockTableRecord
2
*MODEL_SPACE
0
BLOCK_RECORD
5
1B
100
AcDbSymbolTableRecord
100
AcDbBlockTableRecord
2
*PAPER_SPACE
0
ENDTAB
0
ENDSEC
0
SECTION
2
BLOCKS
0
BLOCK
5
20
100
AcDbEntity
100
AcDbBlockBegin
2
*MODEL_SPACE
0
ENDBLK
5
21
100
AcDbEntity
100
AcDbBlockEnd
0
BLOCK
5
1C
100
AcDbEntity
100
AcDbBlockBegin
2
*PAPER_SPACE
0
ENDBLK
5
1D
100
AcDbEntity
100
AcDbBlockEnd
0
ENDSEC
0
SECTION
2
ENTITIES
0
LWPOLYLINE
5
100
100
AcDbEntity
8
0
100
AcDbPolyline
90
12
70
1
43
0.0
10
-225.95451271463304
20
-24.779584038361513
42
-0.66480470828158722
10
-223.81346217620401
20
-29.880988947438464
42
0.19648488247985152
10
-224.36920247784042
20
-31.240597923611265
10
-224.36920247784042
20
-55.034198654016464
42
0.23607688438237756
10
-223.56914848225483
20
-56.634239149282031
42
-0.23607688438237856
10
-222.36906748887645
20
-59.034299892180542
10
-222.36906748887651
20
-75.779415792561508
42
-0.41421356237309637
10
-224.36906748887651
20
-77.779415792561522
10
-319.36905920257652
20
-77.779415792561451
42
-0.41421356237308071
10
-321.36905920257652
20
-75.779415792561451
10
-321.36905920257647
20
-26.779584038361435
42
-0.41421356237310542
10
-319.36905920257641
20
-24.779584038361428
0
CIRCLE
5
101
100
AcDbEntity
8
0
100
AcDbCircle
10
-230.80811371664475
20
-51.282729877338554
30
0
40
1.6000000000000014
210
0
220
-0
230
1
0
CIRCLE
5
102
100
AcDbEntity
8
0
100
AcDbCircle
10
-312.98011371664467
20
-51.279582792561385
30
0
40
1.6000000000000014
210
0
220
-0
230
1
0
LWPOLYLINE
5
103
100
AcDbEntity
8
0
100
AcDbPolyline
90
4
70
1
43
0.0
10
-226.86906748887648
20
-59.282729877338546
10
-226.86906748887648
20
-65.282729877338539
10
-224.36906748887648
20
-65.282729877338554
10
-224.36906748887648
20
-59.282729877338546
0
LWPOLYLINE
5
104
100
AcDbEntity
8
0
100
AcDbPolyline
90
4
70
1
43
0.0
10
-316.86906748887645
20
-47.279582792561385
10
-316.86906748887645
20
-37.279582792561385
10
-319.36906748887645
20
-37.279582792561385
10
-319.36906748887645
20
-47.279582792561385
0
LWPOLYLINE
5
105
100
AcDbEntity
8
0
100
AcDbPolyline
90
4
70
1
43
0.0
10
-304.36906748887651
20
-73.279415792561466
10
-304.36906748887651
20
-75.779415792561466
10
-284.36906748887645
20
-75.77941579256148
10
-284.36906748887645
20
-73.27941579256148
0
LWPOLYLINE
5
106
100
AcDbEntity
8
0
100
AcDbPolyline
90
4
70
1
43
0.0
10
-319.36906748887645
20
-55.279582792561392
10
-319.36906748887645
20
-65.279582792561385
10
-316.86906748887651
20
-65.279582792561385
10
-316.86906748887651
20
-55.279582792561392
0
LWPOLYLINE
5
107
100
AcDbEntity
8
0
100
AcDbPolyline
90
4
70
1
43
0.0
10
-239.36906748887648
20
-73.279415792561508
10
-259.36906748887645
20
-73.279415792561494
10
-259.36906748887645
20
-75.779415792561494
10
-239.36906748887648
20
-75.779415792561508
0
LWPOLYLINE
5
108
100
AcDbEntity
8
0
100
AcDbPolyline
90
24
70
1
43
0.0
10
-236.37031134771988
20
-69.370859880534653
42
-0.23406365653386502
10
-232.39559009386923
20
-71.345337191409016
42
1.1448936745643843
10
-227.83841674694776
20
-66.793639766360315
42
-0.23406365653386582
10
-229.80811371664473
20
-62.816547418358297
10
-229.80811371664473
20
-59.942983915182921
42
0.26794919243112397
10
-232.30811371664475
20
-55.612856896260723
42
-0.57735026918962562
10
-232.30811371664475
20
-46.952602858416348
42
0.26794919243112331
10
-229.80811371664473
20
-42.622475839494143
10
-229.80811371664473
20
-39.942618166764973
42
-0.23406365653386091
10
-227.83841674694776
20
-35.965525818762941
42
1.1435054721961415
10
-232.39085365481282
20
-31.407612099389976
42
-0.23406365653386305
10
-236.37031134771988
20
-33.372525880534639
10
-306.41791608556952
20
-33.288305704588396
42
-0.23406365653386466
10
-310.39263733942016
20
-31.313828393714033
42
1.1448936745643847
10
-314.94981068634161
20
-35.865525818762727
42
-0.23406365653386058
10
-312.98011371664467
20
-39.842618166764723
10
-312.98011371664467
20
-42.619328754717003
42
0.26794919243112258
10
-310.48011371664467
20
-46.94945577363918
42
-0.57735026918962629
10
-310.48011371664467
20
-55.60970981148359
42
0.26794919243112231
10
-312.98011371664467
20
-59.939836830405781
10
-312.98011371664467
20
-62.716547418358047
42
-0.23406365653386371
10
-314.94981068634161
20
-66.69363976636005
42
1.1435054721961555
10
-310.39737377847661
20
-71.251553485733041
42
-0.23406365653386207
10
-306.41791608556952
20
-69.286639704588382
0
LWPOLYLINE
5
109
100
AcDbEntity
8
0
100
AcDbPolyline
90
4
70
1
43
0.0
10
-284.36906748887645
20
-29.27958279256146
10
-284.36906748887645
20
-26.779582792561456
10
-304.36906748887645
20
-26.779582792561438
10
-304.36906748887645
20
-29.279582792561442
0
LWPOLYLINE
5
110
100
AcDbEntity
8
0
100
AcDbPolyline
90
4
70
1
43
0.0
10
-239.36906748887645
20
-29.279582792561499
10
-239.36906748887645
20
-26.779582792561495
10
-259.36906748887645
20
-26.779582792561477
10
-259.36906748887645
20
-29.279582792561484
0
ENDSEC
0
SECTION
2
OBJECTS
0
DICTIONARY
5
C
100
AcDbDictionary
3
ACAD_GROUP
350
D
3
ACAD_MLINESTYLE
350
17
0
DICTIONARY
5
D
100
AcDbDictionary
0
DICTIONARY
5
1A
330
C
100
AcDbDictionary
0
DICTIONARY
5
17
100
AcDbDictionary
0
ENDSEC
0
EOF
