M48
INCH,TZ
T1C0.0118
T2C0.0157
T3C0.0236
T4C0.0256
T5C0.0276
T6C0.0315
T7C0.0394
T8C0.0472
%
G90
G05
T1
X54479Y-39497
X54479Y-40009
X54479Y-40521
X54479Y-41033
X54479Y-41544
X54479Y-42056
X54991Y-39497
X54991Y-40009
X54991Y-40521
X54991Y-41033
X54991Y-41544
X54991Y-42056
X55503Y-39497
X55503Y-40009
X55503Y-40521
X55503Y-41033
X55503Y-41544
X55503Y-42056
T2
X26807Y-51189
X26811Y-29185
X27000Y-34689
X27008Y-45606
X27039Y-47543
X27043Y-30921
X27063Y-32760
X27114Y-40606
X27114Y-49602
X27146Y-38413
X27728Y-46315
X28008Y-39724
X28114Y-42709
X28335Y-50504
X28406Y-41815
X28705Y-30091
X28839Y-48417
X28882Y-33555
X28913Y-46811
X29217Y-31024
X29402Y-40063
X29846Y-49768
X29906Y-32343
X29937Y-47350
X30004Y-51205
X30280Y-41827
X30445Y-39252
X30563Y-37642
X30584Y-39797
X30705Y-29185
X31091Y-48354
X31122Y-46268
X31161Y-34016
X31205Y-31004
X31425Y-37476
X31492Y-42917
X31720Y-41331
X31827Y-47244
X31876Y-41694
X31885Y-40681
X31913Y-32866
X31952Y-36418
X31952Y-43898
X31957Y-50504
X32177Y-42035
X32240Y-30114
X32354Y-49709
X32610Y-46268
X32654Y-48311
X32665Y-42886
X32772Y-34035
X32913Y-38079
X32917Y-31693
X33196Y-38574
X33362Y-39285
X33366Y-39680
X33425Y-38896
X33539Y-35917
X33756Y-43516
X34028Y-42815
X34287Y-36787
X34331Y-44417
X34591Y-37488
X34736Y-49114
X34748Y-30953
X35020Y-30102
X35126Y-50535
X35495Y-36418
X35495Y-43898
X35563Y-42850
X35744Y-37496
X36059Y-31413
X36165Y-51173
X36232Y-29276
X36331Y-39295
X36387Y-41150
X36618Y-49819
X36840Y-41018
X37008Y-45350
X37043Y-35945
X37067Y-43543
X37138Y-42913
X37165Y-34941
X37177Y-37610
X37193Y-40424
X37437Y-50551
X37457Y-30894
X37516Y-38972
X37520Y-30122
X37791Y-44449
X37827Y-42209
X37846Y-36815
X38054Y-41272
X38201Y-34933
X38256Y-32898
X38291Y-47508
X38319Y-45535
X38563Y-37988
X38646Y-42913
X38650Y-31744
X38717Y-48827
X39038Y-36418
X39038Y-43898
X39303Y-34933
X39331Y-33606
X39425Y-38819
X39453Y-41126
X39465Y-46378
X39638Y-42547
X39681Y-41854
X39701Y-49661
X39823Y-37559
X39913Y-31016
X39984Y-39630
X40315Y-48744
X40343Y-42890
X40492Y-30114
X40504Y-47469
X40516Y-35130
X40535Y-45264
X40559Y-32843
X40614Y-43575
X40626Y-35945
X40634Y-50551
X41087Y-31815
X41142Y-44417
X41192Y-41978
X41256Y-38075
X41283Y-33913
X41358Y-36752
X41410Y-39647
X41465Y-42861
X41465Y-40038
X41465Y-40433
X41764Y-51185
X41787Y-49335
X41840Y-42736
X41906Y-29295
X42094Y-37764
X42180Y-42535
X42252Y-40899
X42359Y-39054
X42421Y-40154
X42461Y-46280
X42582Y-36418
X42582Y-43898
X42587Y-30976
X42650Y-35323
X42917Y-37791
X42937Y-30055
X42972Y-34138
X42988Y-40929
X43008Y-47417
X43035Y-50551
X43039Y-44953
X43043Y-32799
X43622Y-49772
X43677Y-31835
X43728Y-40307
X44083Y-43528
X44138Y-39567
X44177Y-36043
X44217Y-41083
X44248Y-38130
X44591Y-44240
X44642Y-36764
X45059Y-42890
X45083Y-49331
X45374Y-40260
X45496Y-30933
X45677Y-50535
X45744Y-37756
X45776Y-30106
X45882Y-32087
X46125Y-36418
X46125Y-43898
X46213Y-34921
X46248Y-47488
X46252Y-33398
X46260Y-45406
X46287Y-39150
X46307Y-41039
X46807Y-29256
X46921Y-49854
X47012Y-42764
X47012Y-51220
X47213Y-38213
X47217Y-46390
X47394Y-35969
X47457Y-43598
X47602Y-40118
X47705Y-31016
X48059Y-50504
X48102Y-44417
X48122Y-36748
X48154Y-30071
X48252Y-32260
X48445Y-37736
X48445Y-45441
X48472Y-47260
X48512Y-33807
X48941Y-39248
X48949Y-40969
X49079Y-42827
X49189Y-34969
X49634Y-49323
X49661Y-46425
X49668Y-36418
X49668Y-43898
X49941Y-40126
X49945Y-41594
X49949Y-38043
X49949Y-39217
X50067Y-32878
X50405Y-38574
X50406Y-37389
X50480Y-31047
X50516Y-47346
X50701Y-39311
X50768Y-45307
X50839Y-34992
X50941Y-43567
X50961Y-36000
X51015Y-38653
X51161Y-40862
X51189Y-50555
X51232Y-30043
X51689Y-31921
X51697Y-41984
X51713Y-44402
X51724Y-36780
X51846Y-38232
X51921Y-49717
X52220Y-51189
X52250Y-40908
X52390Y-29205
X52447Y-41829
X52465Y-40577
X52555Y-45319
X52628Y-40217
X52736Y-34980
X52806Y-39865
X52978Y-39510
X53135Y-39147
X53212Y-36418
X53212Y-43898
X53328Y-38803
X53339Y-30953
X53457Y-50535
X53477Y-42876
X53503Y-38450
X53610Y-30083
X54085Y-42318
X54087Y-38839
X54402Y-34980
X54433Y-35906
X54449Y-43571
X54492Y-49689
X54531Y-31890
X54626Y-36795
X54850Y-44366
X54858Y-45075
X55181Y-34102
X55776Y-32571
X56028Y-38937
X56043Y-38134
X56197Y-47217
X56224Y-44992
X56292Y-42609
X56358Y-50520
X56390Y-29165
X56425Y-37389
X56591Y-31008
X56755Y-36418
X56755Y-43898
X56831Y-46051
X56900Y-42428
X56984Y-32264
X57264Y-38921
X57307Y-42539
X57437Y-47122
X57461Y-49673
X57472Y-44988
X57559Y-34780
X57579Y-40000
X57710Y-42711
X57921Y-37984
X57941Y-29689
X58161Y-51232
X58323Y-35024
X58394Y-38744
X58413Y-30823
X58520Y-33843
X58690Y-49286
X58965Y-49689
X59402Y-38457
X59417Y-41846
X59894Y-34217
X60130Y-51280
X60157Y-29181
X60299Y-44382
X60327Y-42949
X60441Y-31921
X60465Y-30005
X60685Y-38807
X60693Y-35209
X61086Y-30319
X61247Y-49820
X61327Y-50449
X61546Y-30648
X61575Y-43744
X61642Y-41465
X61760Y-29701
X61780Y-39614
X61805Y-49790
X61870Y-34390
X61882Y-33406
X62000Y-30982
X62043Y-34909
X62057Y-49224
X62102Y-32106
X62106Y-47244
X62131Y-47970
X62306Y-37028
X62335Y-46360
X62335Y-45295
X62417Y-42890
X62503Y-47406
X62520Y-51268
X62701Y-40413
X62817Y-46667
X62941Y-34402
X62992Y-37996
X63039Y-47895
X63169Y-37224
X63189Y-31894
X63247Y-46686
X63378Y-33059
X63409Y-39531
X63437Y-48469
X63622Y-41303
X63638Y-29087
X63650Y-42512
X63736Y-50606
X63828Y-38659
X64154Y-39728
X64335Y-43059
X64370Y-44626
X64406Y-38339
X64445Y-33087
X64453Y-32252
X64606Y-34528
X64654Y-31614
X64945Y-29929
X65047Y-36398
X65161Y-43866
X65201Y-41307
X65213Y-38909
X65248Y-47827
X65315Y-51287
X65358Y-31650
X65417Y-34516
X65512Y-33039
X65528Y-32287
X65752Y-39772
X66110Y-43118
X66110Y-44614
X66142Y-49248
X66362Y-38165
X66496Y-36028
X66677Y-30740
X66744Y-37920
X66988Y-32902
X67015Y-36531
X67043Y-50626
X67291Y-47862
X67331Y-43169
X67413Y-44638
X67484Y-51291
X67768Y-29161
X67870Y-39811
X67937Y-33925
X68244Y-43843
X68276Y-41299
X68299Y-31339
X68626Y-49224
X68732Y-38783
X68843Y-45327
X69106Y-44638
X69252Y-43228
X69303Y-41996
X69343Y-32323
X69358Y-50965
X69480Y-29819
X69634Y-31343
X69890Y-45870
X69961Y-43366
X70213Y-39555
X70244Y-40406
X70260Y-41598
X70283Y-46843
X70345Y-47328
X70354Y-49917
X70512Y-51280
X70607Y-39576
X70669Y-33677
X70701Y-47158
X70780Y-42906
X70803Y-44433
X70815Y-50764
X70898Y-37248
X70937Y-40035
X70977Y-42479
X70978Y-46877
X71252Y-31413
X71296Y-47979
X71304Y-45224
X71304Y-47575
X71406Y-29819
X71457Y-32543
X71476Y-37248
X71740Y-41724
X71882Y-49909
X71992Y-37248
X72177Y-40118
X72350Y-48142
X72350Y-48536
X72414Y-49582
X72414Y-49977
X72417Y-29421
X72433Y-37243
X72472Y-31488
X72599Y-39437
X72720Y-44724
X72720Y-45220
X72795Y-44220
X72819Y-43826
X72907Y-48527
X72972Y-49492
X73031Y-42449
X73083Y-46256
X73130Y-41252
X73161Y-37831
X73361Y-48852
X73373Y-39201
X73461Y-29169
X73485Y-31385
X73541Y-33683
X73571Y-44547
X73843Y-30701
X73858Y-47563
X73882Y-39500
X73984Y-49421
X74037Y-29747
X74273Y-39101
X74394Y-46106
X74453Y-41276
X74453Y-43657
X74614Y-33828
X74772Y-42386
X74870Y-47563
X74921Y-32630
X74937Y-45063
X74984Y-29948
X75106Y-50118
X75173Y-33874
X75247Y-38228
X75363Y-48020
X75515Y-39505
X75567Y-33841
X75681Y-32756
X75728Y-29378
X76024Y-49382
X76071Y-44512
X76110Y-46031
X76161Y-33705
X76224Y-37878
X76295Y-30484
X76374Y-41319
X76401Y-29997
X76693Y-30496
X76717Y-36433
X76736Y-39543
X76736Y-50488
X76969Y-45118
X77287Y-29378
X77295Y-48986
X77512Y-38547
X77541Y-30301
X77811Y-45988
X77839Y-41252
X77839Y-44484
X77850Y-42701
X77878Y-31626
X77913Y-39421
X78015Y-48655
X78067Y-49173
X78134Y-37799
X78178Y-48295
X78581Y-35990
X78638Y-45217
X78665Y-41874
X78665Y-43654
X78736Y-40783
X78768Y-50512
X78772Y-30012
X78959Y-31057
X79035Y-48677
X79059Y-29169
X79071Y-47559
X79358Y-39409
X79398Y-42772
X79413Y-40866
X79441Y-44512
X79441Y-46004
X79718Y-32515
X79819Y-49563
X79839Y-30417
X79949Y-50744
X80854Y-29071
X81709Y-32453
X81764Y-30783
X81854Y-34543
X81870Y-37268
X81886Y-35882
X81886Y-51252
X81906Y-49622
T4
X34740Y-42146
X35240Y-42146
X35740Y-42146
X36240Y-42146
X36740Y-42146
X37240Y-42146
X75739Y-47520
T5
X62654Y-30389
X62654Y-30889
X62654Y-49426
X62654Y-49926
X63154Y-30389
X63154Y-30889
X63154Y-49426
X63154Y-49926
X63654Y-30389
X63654Y-30889
X63654Y-49426
X63654Y-49926
X64154Y-30389
X64154Y-30889
X64154Y-49426
X64154Y-49926
X64654Y-30389
X64654Y-30889
X64654Y-49426
X64654Y-49926
T6
X41744Y-38657
X41744Y-41657
X42744Y-38657
X42744Y-41657
X43744Y-38657
X43744Y-41657
X44744Y-38657
X44744Y-41657
X45744Y-38657
X45744Y-41657
X46744Y-38657
X46744Y-41657
X47744Y-38657
X47744Y-41657
X48744Y-38657
X48744Y-41657
T7
X34929Y-40254
X34929Y-41254
X61535Y-35293
X61535Y-36293
X62610Y-35293
X62610Y-36293
X62831Y-32606
X62831Y-33606
X63233Y-41974
X63233Y-42974
X63233Y-43974
X63233Y-44974
X63906Y-32606
X63906Y-33606
X64980Y-32606
X64980Y-33606
X66055Y-32606
X66055Y-33606
X73229Y-50866
X73863Y-38652
X73863Y-48297
X74229Y-50866
X74863Y-38652
X74863Y-48297
X75229Y-50866
X75863Y-38652
X75863Y-48297
X76229Y-50866
X76863Y-38652
X76863Y-48297
X77229Y-50866
X78229Y-50866
X79229Y-50866
T8
X75532Y-35748
X75532Y-37126
X80736Y-35307
X80736Y-36685
T3
G00X74791Y-29535
M15
G01X74791Y-29220
M16
G05
G00X74791Y-31031
M15
G01X74791Y-30716
M16
G05
G00X78192Y-29535
M15
G01X78192Y-29220
M16
G05
G00X78192Y-31031
M15
G01X78192Y-30716
M16
G05
T7
G00X78581Y-32209
M15
G01X78581Y-32996
M16
G05
G00X80825Y-31421
M15
G01X80038Y-31421
M16
G05
G00X80825Y-33783
M15
G01X80038Y-33783
M16
G05
T0
M30
