0
SECTION
2
HEADER
9
$INSUNITS
70
4
9
$ACADVER
1
AC1014
9
$HANDSEED
5
FFFF
0
ENDSEC
0
SECTION
2
TABLES
0
TABLE
2
VPORT
5
8
100
AcDbSymbolTable
0
ENDTAB
0
TABLE
2
LTYPE
5
5
100
AcDbSymbolTable
0
LTYPE
5
14
100
AcDbSymbolTableRecord
100
AcDbLinetypeTableRecord
2
BYBLOCK
70
0
0
LTYPE
5
15
100
AcDbSymbolTableRecord
100
AcDbLinetypeTableRecord
2
BYLAYER
70
0
0
ENDTAB
0
TABLE
2
LAYER
5
2
100
AcDbSymbolTable
70
2
0
LAYER
5
50
100
AcDbSymbolTableRecord
100
AcDbLayerTableRecord
2
0
70
0
6
CONTINUOUS
0
ENDTAB
0
TABLE
2
STYLE
5
3
100
AcDbSymbolTable
70
1
0
STYLE
5
11
100
AcDbSymbolTableRecord
100
AcDbTextStyleTableRecord
2
STANDARD
70
0
0
ENDTAB
0
TABLE
2
VIEW
5
6
100
AcDbSymbolTable
70
0
0
ENDTAB
0
TABLE
2
UCS
5
7
100
AcDbSymbolTable
70
0
0
ENDTAB
0
TABLE
2
APPID
5
9
100
AcDbSymbolTable
70
2
0
APPID
5
12
100
AcDbSymbolTableRecord
100
AcDbRegAppTableRecord
2
ACAD
70
0
0
ENDTAB
0
TABLE
2
DIMSTYLE
5
A
100
AcDbSymbolTable
70
1
0
ENDTAB
0
TABLE
2
BLOCK_RECORD
5
1
100
AcDbSymbolTable
70
1
0
BLOCK_RECORD
5
1F
100
AcDbSymbolTableRecord
100
AcDbBlockTableRecord
2
*MODEL_SPACE
0
BLOCK_RECORD
5
1B
100
AcDbSymbolTableRecord
100
AcDbBlockTableRecord
2
*PAPER_SPACE
0
ENDTAB
0
ENDSEC
0
SECTION
2
BLOCKS
0
BLOCK
5
20
100
AcDbEntity
100
AcDbBlockBegin
2
*MODEL_SPACE
0
ENDBLK
5
21
100
AcDbEntity
100
AcDbBlockEnd
0
BLOCK
5
1C
100
AcDbEntity
100
AcDbBlockBegin
2
*PAPER_SPACE
0
ENDBLK
5
1D
100
AcDbEntity
100
AcDbBlockEnd
0
ENDSEC
0
SECTION
2
ENTITIES
0
LWPOLYLINE
5
100
100
AcDbEntity
8
0
100
AcDbPolyline
90
20
70
1
43
0.0
10
-103.6741197403565
20
-18.34604495499643
10
-103.6741197403565
20
-24.446044954996431
10
-132.07411974035651
20
-24.446044954996481
10
-132.07411974035648
20
3.9539550450035224
10
-125.9741197403565
20
3.9539550450035188
10
-125.9741197403565
20
19.153955045003514
10
-132.07411974035651
20
19.153955045003514
10
-132.07411974035651
20
47.553955045003519
10
-103.67411974035647
20
47.553955045003548
10
-103.67411974035647
20
41.453955045003553
10
-88.474119740356485
20
41.453955045003553
10
-88.474119740356485
20
47.553955045003534
10
-60.074119740356515
20
47.553955045003526
10
-60.074119740356508
20
19.053955045003516
10
-66.074119740356508
20
19.053955045003526
10
-66.074119740356494
20
4.0539550450035202
10
-60.074119740356494
20
4.0539550450035255
10
-60.074119740356515
20
-24.446044954996452
10
-88.474119740356514
20
-24.446044954996424
10
-88.474119740356514
20
-18.346044954996422
0
LWPOLYLINE
5
101
100
AcDbEntity
8
0
100
AcDbPolyline
90
28
70
1
43
0.0
10
-74.074119740356537
20
15.553420990152315
10
-74.074119740356537
20
30.553955045003569
42
0.41421356237309453
10
-77.074119740356522
20
33.553955045003583
10
-92.073585683148096
20
33.553955045003562
10
-92.073585685505407
20
33.55385793742505
42
-0.41421356237309509
10
-94.073634235464269
20
31.553906488562493
10
-98.073634236642548
20
31.554003589658844
42
-0.41419934326754076
10
-100.07358568550526
20
33.553955045003548
10
-115.07411974035654
20
33.553955045003541
42
0.41421356237309548
10
-118.07411974035654
20
30.553955045003534
10
-118.07411974035654
20
15.554489102211893
10
-118.07402263277802
20
15.554489099854578
42
-0.4142135623730937
10
-116.07407118391548
20
13.554440549895732
10
-116.07416828501184
20
9.554440548717464
42
-0.41419934326754287
10
-118.07411974035654
20
7.5544890998547443
10
-118.07411974035654
20
-7.4460449549964469
42
0.41421356237309548
10
-115.07411974035654
20
-10.446044954996459
10
-100.07465379756491
20
-10.446044954996445
10
-100.0746537952076
20
-10.445947847417996
42
-0.41421356237309509
10
-98.074605245248733
20
-8.4459963985554349
10
-94.074605244070455
20
-8.4460934996517949
42
-0.41419934326753294
10
-92.074653795207752
20
-10.446044954996442
10
-77.074119740356537
20
-10.446044954996436
42
0.41421356237309553
10
-74.074119740356551
20
-7.4460449549964363
10
-74.074119740356537
20
7.5534209877951586
10
-74.074216847934991
20
7.5534209901524818
42
-0.4142135623730952
10
-76.074168296797552
20
9.5534695401113385
10
-76.07407119570118
20
13.553469541289598
42
-0.41419934326753233
0
CIRCLE
5
102
100
AcDbEntity
8
0
100
AcDbCircle
10
-96.074702346934316
20
-12.446044947925001
30
0
40
1.5000000000000036
210
0
220
-0
230
1
0
CIRCLE
5
103
100
AcDbEntity
8
0
100
AcDbCircle
10
-120.07411973328504
20
11.55453765158132
30
0
40
1.5000000000000036
210
0
220
-0
230
1
0
CIRCLE
5
104
100
AcDbEntity
8
0
100
AcDbCircle
10
-72.074119747427957
20
11.55337243842574
30
0
40
1.5000000000000036
210
0
220
-0
230
1
0
CIRCLE
5
105
100
AcDbEntity
8
0
100
AcDbCircle
10
-96.073537133778686
20
35.55395503793207
30
0
40
1.5000000000000036
210
0
220
-0
230
1
0
CIRCLE
5
106
100
AcDbEntity
8
0
100
AcDbCircle
10
-71.074119740356508
20
-13.446044954996461
30
0
40
1.6000000000000014
210
0
220
-0
230
1
0
CIRCLE
5
107
100
AcDbEntity
8
0
100
AcDbCircle
10
-108.57411974035651
20
36.553955045003548
30
0
40
0.99999999999999645
210
0
220
-0
230
1
0
CIRCLE
5
108
100
AcDbEntity
8
0
100
AcDbCircle
10
-121.07411974035651
20
36.553955045003534
30
0
40
1.6000000000000014
210
0
220
-0
230
1
0
CIRCLE
5
109
100
AcDbEntity
8
0
100
AcDbCircle
10
-121.07411974035651
20
-13.446044954996452
30
0
40
1.6000000000000014
210
0
220
-0
230
1
0
CIRCLE
5
110
100
AcDbEntity
8
0
100
AcDbCircle
10
-83.574119740356508
20
-13.446044954996452
30
0
40
0.99999999999999645
210
0
220
-0
230
1
0
CIRCLE
5
111
100
AcDbEntity
8
0
100
AcDbCircle
10
-83.574119740356508
20
36.553955045003534
30
0
40
0.99999999999999645
210
0
220
-0
230
1
0
CIRCLE
5
112
100
AcDbEntity
8
0
100
AcDbCircle
10
-71.074119740356508
20
36.553955045003534
30
0
40
1.6000000000000014
210
0
220
-0
230
1
0
CIRCLE
5
113
100
AcDbEntity
8
0
100
AcDbCircle
10
-108.57411974035651
20
-13.446044954996452
30
0
40
0.99999999999999645
210
0
220
-0
230
1
0
ENDSEC
0
SECTION
2
OBJECTS
0
DICTIONARY
5
C
100
AcDbDictionary
3
ACAD_GROUP
350
D
3
ACAD_MLINESTYLE
350
17
0
DICTIONARY
5
D
100
AcDbDictionary
0
DICTIONARY
5
1A
330
C
100
AcDbDictionary
0
DICTIONARY
5
17
100
AcDbDictionary
0
ENDSEC
0
EOF
