0
SECTION
2
HEADER
9
$INSUNITS
70
4
9
$ACADVER
1
AC1014
9
$HANDSEED
5
FFFF
0
ENDSEC
0
SECTION
2
TABLES
0
TABLE
2
VPORT
5
8
100
AcDbSymbolTable
0
ENDTAB
0
TABLE
2
LTYPE
5
5
100
AcDbSymbolTable
0
LTYPE
5
14
100
AcDbSymbolTableRecord
100
AcDbLinetypeTableRecord
2
BYBLOCK
70
0
0
LTYPE
5
15
100
AcDbSymbolTableRecord
100
AcDbLinetypeTableRecord
2
BYLAYER
70
0
0
ENDTAB
0
TABLE
2
LAYER
5
2
100
AcDbSymbolTable
70
2
0
LAYER
5
50
100
AcDbSymbolTableRecord
100
AcDbLayerTableRecord
2
0
70
0
6
CONTINUOUS
0
ENDTAB
0
TABLE
2
STYLE
5
3
100
AcDbSymbolTable
70
1
0
STYLE
5
11
100
AcDbSymbolTableRecord
100
AcDbTextStyleTableRecord
2
STANDARD
70
0
0
ENDTAB
0
TABLE
2
VIEW
5
6
100
AcDbSymbolTable
70
0
0
ENDTAB
0
TABLE
2
UCS
5
7
100
AcDbSymbolTable
70
0
0
ENDTAB
0
TABLE
2
APPID
5
9
100
AcDbSymbolTable
70
2
0
APPID
5
12
100
AcDbSymbolTableRecord
100
AcDbRegAppTableRecord
2
ACAD
70
0
0
ENDTAB
0
TABLE
2
DIMSTYLE
5
A
100
AcDbSymbolTable
70
1
0
ENDTAB
0
TABLE
2
BLOCK_RECORD
5
1
100
AcDbSymbolTable
70
1
0
BLOCK_RECORD
5
1F
100
AcDbSymbolTableRecord
100
AcDbBlockTableRecord
2
*MODEL_SPACE
0
BLOCK_RECORD
5
1B
100
AcDbSymbolTableRecord
100
AcDbBlockTableRecord
2
*PAPER_SPACE
0
ENDTAB
0
ENDSEC
0
SECTION
2
BLOCKS
0
BLOCK
5
20
100
AcDbEntity
100
AcDbBlockBegin
2
*MODEL_SPACE
0
ENDBLK
5
21
100
AcDbEntity
100
AcDbBlockEnd
0
BLOCK
5
1C
100
AcDbEntity
100
AcDbBlockBegin
2
*PAPER_SPACE
0
ENDBLK
5
1D
100
AcDbEntity
100
AcDbBlockEnd
0
ENDSEC
0
SECTION
2
ENTITIES
0
LWPOLYLINE
5
100
100
AcDbEntity
8
0
100
AcDbPolyline
90
8
70
1
43
0.0
10
147.05406502392935
20
-227.62666968038278
10
130.65406502392943
20
-227.62666968038278
42
0.41421356237309509
10
130.15406502392943
20
-228.1266696803828
10
130.15406502392912
20
-244.1266696803838
42
0.41421356237311585
10
130.65406502392915
20
-244.6266696803838
10
147.05406502392972
20
-244.62666968038246
42
0.41421356237308465
10
147.5540650239297
20
-244.12666968038246
10
147.55406502392938
20
-228.12666968038275
42
0.41421356237308465
0
LWPOLYLINE
5
101
100
AcDbEntity
8
0
100
AcDbPolyline
90
8
70
1
43
0.0
10
68.999999643487996
20
-246.52646968038039
10
120.99999964348798
20
-246.52646968038033
42
0.41421356237309853
10
122.499999643488
20
-245.02646968038036
10
122.49999964348801
20
-243.02646968038036
42
0.41421356237309509
10
120.999999643488
20
-241.5264696803803
10
68.999999643487996
20
-241.5264696803803
42
0.41421356237309165
10
67.499999643487996
20
-243.02646968038033
10
67.499999643487996
20
-245.02646968038036
42
0.41421356237309165
0
LWPOLYLINE
5
102
100
AcDbEntity
8
0
100
AcDbPolyline
90
8
70
1
43
0.0
10
68.99999964348801
20
-236.52646968038039
10
120.999999643488
20
-236.52646968038033
42
0.41421356237309509
10
122.499999643488
20
-235.02646968038036
10
122.49999964348801
20
-233.02646968038036
42
0.41421356237309509
10
120.999999643488
20
-231.5264696803803
10
68.999999643488025
20
-231.5264696803803
42
0.41421356237312285
10
67.49999964348801
20
-233.02646968038033
10
67.49999964348801
20
-235.02646968038033
42
0.41421356237311407
0
LWPOLYLINE
5
103
100
AcDbEntity
8
0
100
AcDbPolyline
90
20
70
1
43
0.0
10
129.99999964348825
20
-224.02646968038073
10
161.99999964348822
20
-224.02646968038061
10
161.99999964348831
20
-233.52646968038061
10
156.49999964348831
20
-233.52646968038061
10
156.49999964348825
20
-244.52646968038064
10
161.99999964348825
20
-244.52646968038064
10
161.99999964348825
20
-254.02646968038067
10
129.99999964348828
20
-254.02646968038067
10
129.99999964348825
20
-259.52646968038079
10
79.999999643488252
20
-259.52646968038079
10
79.999999643488266
20
-254.02646968038061
10
47.999999643488266
20
-254.02646968038061
10
47.999999643488273
20
-244.52646968038061
10
53.49999964348828
20
-244.52646968038064
10
53.499999643488287
20
-233.52646968038061
10
47.99999964348828
20
-233.52646968038061
10
47.999999643488245
20
-224.02646968038059
10
79.999999643488266
20
-224.02646968038073
10
79.99999964348828
20
-218.52646968038076
10
129.99999964348828
20
-218.52646968038076
0
ENDSEC
0
SECTION
2
OBJECTS
0
DICTIONARY
5
C
100
AcDbDictionary
3
ACAD_GROUP
350
D
3
ACAD_MLINESTYLE
350
17
0
DICTIONARY
5
D
100
AcDbDictionary
0
DICTIONARY
5
1A
330
C
100
AcDbDictionary
0
DICTIONARY
5
17
100
AcDbDictionary
0
ENDSEC
0
EOF
