G04 #@! TF.GenerationSoftware,KiCad,Pcbnew,(6.0.5-0)*
G04 #@! TF.CreationDate,2022-10-09T22:32:15+09:00*
G04 #@! TF.ProjectId,qLAMP-main,714c414d-502d-46d6-9169-6e2e6b696361,rev?*
G04 #@! TF.SameCoordinates,Original*
G04 #@! TF.FileFunction,Legend,Top*
G04 #@! TF.FilePolarity,Positive*
%FSLAX46Y46*%
G04 Gerber Fmt 4.6, Leading zero omitted, Abs format (unit mm)*
G04 Created by KiCad (PCBNEW (6.0.5-0)) date 2022-10-09 22:32:15*
%MOMM*%
%LPD*%
G01*
G04 APERTURE LIST*
%ADD10C,0.100000*%
%ADD11C,0.254000*%
%ADD12C,0.150000*%
%ADD13C,0.149860*%
%ADD14C,0.120000*%
%ADD15C,0.152400*%
G04 APERTURE END LIST*
D10*
X147657227Y-111500000D02*
X147657227Y-92500000D01*
X70761525Y-88065903D02*
G75*
G03*
X69793791Y-87266166I-1693525J-1063897D01*
G01*
X70234056Y-116598779D02*
G75*
G03*
X71379757Y-115828755I-474256J1942979D01*
G01*
X127907202Y-111501637D02*
G75*
G03*
X127907202Y-111501637I-1750000J0D01*
G01*
X74563906Y-84004758D02*
G75*
G03*
X69793791Y-87266166I-3499996J-2D01*
G01*
X148059038Y-88305454D02*
G75*
G03*
X147886139Y-88404914I-38J-199946D01*
G01*
X76697682Y-115698282D02*
G75*
G03*
X76497682Y-115898256I18J-200018D01*
G01*
X76511958Y-88105442D02*
G75*
G03*
X76712016Y-88305442I200042J42D01*
G01*
X77255380Y-115698260D02*
G75*
G03*
X77428279Y-115598784I20J199960D01*
G01*
X77562677Y-88683690D02*
G75*
G03*
X77428293Y-88404914I-1863477J-726510D01*
G01*
X70761576Y-88065871D02*
G75*
G03*
X72455067Y-89001961I1693524J1063871D01*
G01*
X145907216Y-92502061D02*
G75*
G03*
X145907216Y-92502061I-1750000J0D01*
G01*
X72999668Y-115001696D02*
G75*
G03*
X71379757Y-115828755I32J-2000004D01*
G01*
X76512016Y-87717688D02*
X76512016Y-88105442D01*
X150750462Y-118498940D02*
G75*
G03*
X149182810Y-116546221I-1999962J40D01*
G01*
X77657201Y-90864958D02*
G75*
G03*
X74563643Y-89001961I-3093601J-1637042D01*
G01*
X74563901Y-118498940D02*
X74563901Y-119998940D01*
X147657202Y-108501637D02*
X147657202Y-113138748D01*
X148816736Y-88105442D02*
X148816736Y-87712572D01*
X77428284Y-115598787D02*
G75*
G03*
X77562669Y-115320010I-1729084J1005287D01*
G01*
X72999668Y-115001737D02*
X74563629Y-115001737D01*
X147285904Y-89002089D02*
G75*
G03*
X147751749Y-88683688I-4J499989D01*
G01*
X74563944Y-85504758D02*
G75*
G03*
X76131608Y-87457477I1999956J-42D01*
G01*
X74563915Y-84004758D02*
X74563915Y-85504758D01*
X78028528Y-89002061D02*
X147285904Y-89002061D01*
X109907202Y-111501637D02*
G75*
G03*
X109907202Y-111501637I-1750000J0D01*
G01*
X77657216Y-95502061D02*
X77657216Y-90864950D01*
X91907216Y-92502061D02*
G75*
G03*
X91907216Y-92502061I-1750000J0D01*
G01*
X152314750Y-89001961D02*
X150750789Y-89001961D01*
X77657202Y-113138748D02*
X77657202Y-108501637D01*
X147886136Y-88404912D02*
G75*
G03*
X147751749Y-88683688I1729064J-1005288D01*
G01*
X148934323Y-116474066D02*
G75*
G03*
X149182810Y-116546221I680677J1880166D01*
G01*
X77562682Y-88683688D02*
G75*
G03*
X78028528Y-89002061I465818J181588D01*
G01*
X76131593Y-116546217D02*
G75*
G03*
X76364170Y-116479751I-432293J1952817D01*
G01*
X155080376Y-87404975D02*
G75*
G03*
X150750517Y-84004758I-829876J3400175D01*
G01*
X136907202Y-111501637D02*
G75*
G03*
X136907202Y-111501637I-1750000J0D01*
G01*
X154552886Y-115937800D02*
G75*
G03*
X155520627Y-116737532I1693514J1063900D01*
G01*
X70234037Y-116598704D02*
G75*
G03*
X74563901Y-119998940I829863J-3400196D01*
G01*
X118907216Y-92502061D02*
G75*
G03*
X118907216Y-92502061I-1750000J0D01*
G01*
X147157216Y-96002061D02*
X78157216Y-96002061D01*
X118907202Y-111501637D02*
G75*
G03*
X118907202Y-111501637I-1750000J0D01*
G01*
X76131586Y-116546184D02*
G75*
G03*
X74563901Y-118498940I432314J-1952716D01*
G01*
X147657163Y-108501637D02*
G75*
G03*
X147157202Y-108001637I-499963J37D01*
G01*
X150750499Y-119998940D02*
G75*
G03*
X155520627Y-116737532I3500001J0D01*
G01*
X91907202Y-111501637D02*
G75*
G03*
X91907202Y-111501637I-1750000J0D01*
G01*
X150750775Y-115001737D02*
X152859351Y-115001737D01*
X147657216Y-90864950D02*
X147657216Y-95502061D01*
X147657204Y-113138747D02*
G75*
G03*
X150750775Y-115001737I3093596J1637047D01*
G01*
X100907202Y-111501637D02*
G75*
G03*
X100907202Y-111501637I-1750000J0D01*
G01*
X76712016Y-88305442D02*
X77255394Y-88305442D01*
X136907216Y-92502061D02*
G75*
G03*
X136907216Y-92502061I-1750000J0D01*
G01*
X147886126Y-115598783D02*
G75*
G03*
X148059024Y-115698256I172874J100483D01*
G01*
X109907216Y-92502061D02*
G75*
G03*
X109907216Y-92502061I-1750000J0D01*
G01*
X148059038Y-88305442D02*
X148616736Y-88305442D01*
X155080365Y-87404930D02*
G75*
G03*
X153934661Y-88174943I474235J-1942970D01*
G01*
X149182836Y-87457530D02*
G75*
G03*
X150750517Y-85504758I-432336J1952730D01*
G01*
X148950265Y-87523995D02*
G75*
G03*
X148816736Y-87712572I66435J-188605D01*
G01*
X145907202Y-111501637D02*
G75*
G03*
X145907202Y-111501637I-1750000J0D01*
G01*
X150750517Y-85504758D02*
X150750517Y-84004758D01*
X76497682Y-115898256D02*
X76497682Y-116291126D01*
X149182823Y-87457472D02*
G75*
G03*
X148950248Y-87523947I432377J-1952828D01*
G01*
X76380094Y-87529634D02*
G75*
G03*
X76131608Y-87457477I-680694J-1880166D01*
G01*
X147751722Y-115320015D02*
G75*
G03*
X147285890Y-115001637I-465822J-181585D01*
G01*
X148802444Y-115898256D02*
G75*
G03*
X148602402Y-115698256I-200044J-44D01*
G01*
X76364158Y-116479716D02*
G75*
G03*
X76497682Y-116291126I-66458J188616D01*
G01*
X154552902Y-115937790D02*
G75*
G03*
X152859351Y-115001737I-1693502J-1063910D01*
G01*
X78028514Y-115001627D02*
G75*
G03*
X77562669Y-115320010I-14J-499973D01*
G01*
X147157216Y-96002116D02*
G75*
G03*
X147657216Y-95502061I-16J500016D01*
G01*
X100907216Y-92502061D02*
G75*
G03*
X100907216Y-92502061I-1750000J0D01*
G01*
X152314750Y-89001936D02*
G75*
G03*
X153934661Y-88174943I50J1999936D01*
G01*
X77657214Y-92500000D02*
X77657214Y-111500000D01*
X147751740Y-115320008D02*
G75*
G03*
X147886125Y-115598784I1863460J726508D01*
G01*
X74563643Y-89001961D02*
X72455067Y-89001961D01*
X148616736Y-88305436D02*
G75*
G03*
X148816736Y-88105442I-36J200036D01*
G01*
X78157202Y-108001637D02*
X147157202Y-108001637D01*
X148802392Y-116286010D02*
G75*
G03*
X148934323Y-116474066I200008J10D01*
G01*
X77428280Y-88404922D02*
G75*
G03*
X77255394Y-88305442I-172880J-100478D01*
G01*
X77255380Y-115698256D02*
X76697682Y-115698256D01*
X76512016Y-87717688D02*
G75*
G03*
X76380095Y-87529632I-200016J-12D01*
G01*
X82907216Y-92502061D02*
G75*
G03*
X82907216Y-92502061I-1750000J0D01*
G01*
X77657239Y-95502061D02*
G75*
G03*
X78157216Y-96002061I499961J-39D01*
G01*
X148802402Y-116286010D02*
X148802402Y-115898256D01*
X150750789Y-89001972D02*
G75*
G03*
X147657216Y-90864950I11J-3500028D01*
G01*
X147285890Y-115001637D02*
X78028514Y-115001637D01*
X148602402Y-115698256D02*
X148059024Y-115698256D01*
X82907202Y-111501637D02*
G75*
G03*
X82907202Y-111501637I-1750000J0D01*
G01*
X150750503Y-119998940D02*
X150750503Y-118498940D01*
X74563629Y-115001743D02*
G75*
G03*
X77657202Y-113138748I-29J3500043D01*
G01*
X78157202Y-108001602D02*
G75*
G03*
X77657202Y-108501637I-2J-499998D01*
G01*
X127907216Y-92502061D02*
G75*
G03*
X127907216Y-92502061I-1750000J0D01*
G01*
D11*
X115777142Y-125962875D02*
X115777142Y-124762875D01*
X115777142Y-125220018D02*
X115891428Y-125162875D01*
X116120000Y-125162875D01*
X116234285Y-125220018D01*
X116291428Y-125277160D01*
X116348571Y-125391446D01*
X116348571Y-125734303D01*
X116291428Y-125848589D01*
X116234285Y-125905732D01*
X116120000Y-125962875D01*
X115891428Y-125962875D01*
X115777142Y-125905732D01*
X117377142Y-125962875D02*
X117377142Y-125334303D01*
X117320000Y-125220018D01*
X117205714Y-125162875D01*
X116977142Y-125162875D01*
X116862857Y-125220018D01*
X117377142Y-125905732D02*
X117262857Y-125962875D01*
X116977142Y-125962875D01*
X116862857Y-125905732D01*
X116805714Y-125791446D01*
X116805714Y-125677160D01*
X116862857Y-125562875D01*
X116977142Y-125505732D01*
X117262857Y-125505732D01*
X117377142Y-125448589D01*
X117777142Y-125162875D02*
X118234285Y-125162875D01*
X117948571Y-124762875D02*
X117948571Y-125791446D01*
X118005714Y-125905732D01*
X118120000Y-125962875D01*
X118234285Y-125962875D01*
X119148571Y-125905732D02*
X119034285Y-125962875D01*
X118805714Y-125962875D01*
X118691428Y-125905732D01*
X118634285Y-125848589D01*
X118577142Y-125734303D01*
X118577142Y-125391446D01*
X118634285Y-125277160D01*
X118691428Y-125220018D01*
X118805714Y-125162875D01*
X119034285Y-125162875D01*
X119148571Y-125220018D01*
X119662857Y-125962875D02*
X119662857Y-124762875D01*
X120177142Y-125962875D02*
X120177142Y-125334303D01*
X120120000Y-125220018D01*
X120005714Y-125162875D01*
X119834285Y-125162875D01*
X119720000Y-125220018D01*
X119662857Y-125277160D01*
X120977142Y-124762875D02*
X121091428Y-124762875D01*
X121205714Y-124820018D01*
X121262857Y-124877160D01*
X121320000Y-124991446D01*
X121377142Y-125220018D01*
X121377142Y-125505732D01*
X121320000Y-125734303D01*
X121262857Y-125848589D01*
X121205714Y-125905732D01*
X121091428Y-125962875D01*
X120977142Y-125962875D01*
X120862857Y-125905732D01*
X120805714Y-125848589D01*
X120748571Y-125734303D01*
X120691428Y-125505732D01*
X120691428Y-125220018D01*
X120748571Y-124991446D01*
X120805714Y-124877160D01*
X120862857Y-124820018D01*
X120977142Y-124762875D01*
X122405714Y-125162875D02*
X122405714Y-125962875D01*
X122120000Y-124705732D02*
X121834285Y-125562875D01*
X122577142Y-125562875D01*
X123891428Y-124705732D02*
X122862857Y-126248589D01*
X124291428Y-125962875D02*
X124291428Y-125162875D01*
X124291428Y-125277160D02*
X124348571Y-125220018D01*
X124462857Y-125162875D01*
X124634285Y-125162875D01*
X124748571Y-125220018D01*
X124805714Y-125334303D01*
X124805714Y-125962875D01*
X124805714Y-125334303D02*
X124862857Y-125220018D01*
X124977142Y-125162875D01*
X125148571Y-125162875D01*
X125262857Y-125220018D01*
X125320000Y-125334303D01*
X125320000Y-125962875D01*
X126405714Y-125962875D02*
X126405714Y-125334303D01*
X126348571Y-125220018D01*
X126234285Y-125162875D01*
X126005714Y-125162875D01*
X125891428Y-125220018D01*
X126405714Y-125905732D02*
X126291428Y-125962875D01*
X126005714Y-125962875D01*
X125891428Y-125905732D01*
X125834285Y-125791446D01*
X125834285Y-125677160D01*
X125891428Y-125562875D01*
X126005714Y-125505732D01*
X126291428Y-125505732D01*
X126405714Y-125448589D01*
X126977142Y-125962875D02*
X126977142Y-125162875D01*
X126977142Y-124762875D02*
X126920000Y-124820018D01*
X126977142Y-124877160D01*
X127034285Y-124820018D01*
X126977142Y-124762875D01*
X126977142Y-124877160D01*
X127548571Y-125162875D02*
X127548571Y-125962875D01*
X127548571Y-125277160D02*
X127605714Y-125220018D01*
X127720000Y-125162875D01*
X127891428Y-125162875D01*
X128005714Y-125220018D01*
X128062857Y-125334303D01*
X128062857Y-125962875D01*
X186960380Y-89784571D02*
X186960380Y-89300761D01*
X187976380Y-89300761D01*
X186960380Y-90123238D02*
X187976380Y-90123238D01*
X186960380Y-90607047D02*
X187976380Y-90607047D01*
X187976380Y-90848952D01*
X187928000Y-90994095D01*
X187831238Y-91090857D01*
X187734476Y-91139238D01*
X187540952Y-91187619D01*
X187395809Y-91187619D01*
X187202285Y-91139238D01*
X187105523Y-91090857D01*
X187008761Y-90994095D01*
X186960380Y-90848952D01*
X186960380Y-90607047D01*
X201256380Y-87602476D02*
X200240380Y-87844380D01*
X200966095Y-88037904D01*
X200240380Y-88231428D01*
X201256380Y-88473333D01*
X200772571Y-88860380D02*
X200772571Y-89199047D01*
X200240380Y-89344190D02*
X200240380Y-88860380D01*
X201256380Y-88860380D01*
X201256380Y-89344190D01*
X200240380Y-90263428D02*
X200240380Y-89779619D01*
X201256380Y-89779619D01*
X200240380Y-91085904D02*
X200240380Y-90602095D01*
X201256380Y-90602095D01*
X158535630Y-85797437D02*
X158874296Y-85797437D01*
X159019439Y-86329628D02*
X158535630Y-86329628D01*
X158535630Y-85313628D01*
X159019439Y-85313628D01*
X159358106Y-85313628D02*
X160035439Y-86329628D01*
X160035439Y-85313628D02*
X159358106Y-86329628D01*
X160277344Y-85313628D02*
X160857915Y-85313628D01*
X160567630Y-86329628D02*
X160567630Y-85313628D01*
X161099820Y-85313628D02*
X161728772Y-85313628D01*
X161390106Y-85700675D01*
X161535249Y-85700675D01*
X161632011Y-85749056D01*
X161680391Y-85797437D01*
X161728772Y-85894199D01*
X161728772Y-86136104D01*
X161680391Y-86232866D01*
X161632011Y-86281247D01*
X161535249Y-86329628D01*
X161244963Y-86329628D01*
X161148201Y-86281247D01*
X161099820Y-86232866D01*
X162889915Y-85265247D02*
X162019058Y-86571532D01*
X163180201Y-85410389D02*
X163228582Y-85362009D01*
X163325344Y-85313628D01*
X163567249Y-85313628D01*
X163664011Y-85362009D01*
X163712391Y-85410389D01*
X163760772Y-85507151D01*
X163760772Y-85603913D01*
X163712391Y-85749056D01*
X163131820Y-86329628D01*
X163760772Y-86329628D01*
X164921915Y-85265247D02*
X164051058Y-86571532D01*
X165792772Y-86329628D02*
X165212201Y-86329628D01*
X165502487Y-86329628D02*
X165502487Y-85313628D01*
X165405725Y-85458770D01*
X165308963Y-85555532D01*
X165212201Y-85603913D01*
X158008190Y-87739333D02*
X158492000Y-87739333D01*
X157911428Y-88029619D02*
X158250095Y-87013619D01*
X158588761Y-88029619D01*
X158927428Y-88029619D02*
X158927428Y-87013619D01*
X159991809Y-88029619D02*
X159653142Y-87545809D01*
X159411238Y-88029619D02*
X159411238Y-87013619D01*
X159798285Y-87013619D01*
X159895047Y-87062000D01*
X159943428Y-87110380D01*
X159991809Y-87207142D01*
X159991809Y-87352285D01*
X159943428Y-87449047D01*
X159895047Y-87497428D01*
X159798285Y-87545809D01*
X159411238Y-87545809D01*
X154062476Y-93743619D02*
X154304380Y-94759619D01*
X154497904Y-94033904D01*
X154691428Y-94759619D01*
X154933333Y-93743619D01*
X155320380Y-94227428D02*
X155659047Y-94227428D01*
X155804190Y-94759619D02*
X155320380Y-94759619D01*
X155320380Y-93743619D01*
X155804190Y-93743619D01*
X156723428Y-94759619D02*
X156239619Y-94759619D01*
X156239619Y-93743619D01*
X157545904Y-94759619D02*
X157062095Y-94759619D01*
X157062095Y-93743619D01*
X167334571Y-86329628D02*
X166850761Y-86329628D01*
X166850761Y-85313628D01*
X167673238Y-86329628D02*
X167673238Y-85313628D01*
X168157047Y-86329628D02*
X168157047Y-85313628D01*
X168398952Y-85313628D01*
X168544095Y-85362009D01*
X168640857Y-85458770D01*
X168689238Y-85555532D01*
X168737619Y-85749056D01*
X168737619Y-85894199D01*
X168689238Y-86087723D01*
X168640857Y-86184485D01*
X168544095Y-86281247D01*
X168398952Y-86329628D01*
X168157047Y-86329628D01*
D12*
X128950000Y-113162380D02*
X128950000Y-113400476D01*
X128711904Y-113305238D02*
X128950000Y-113400476D01*
X129188095Y-113305238D01*
X128807142Y-113590952D02*
X128950000Y-113400476D01*
X129092857Y-113590952D01*
X193590000Y-80122380D02*
X193590000Y-80360476D01*
X193351904Y-80265238D02*
X193590000Y-80360476D01*
X193828095Y-80265238D01*
X193447142Y-80550952D02*
X193590000Y-80360476D01*
X193732857Y-80550952D01*
X143562380Y-107190000D02*
X143800476Y-107190000D01*
X143705238Y-107428095D02*
X143800476Y-107190000D01*
X143705238Y-106951904D01*
X143990952Y-107332857D02*
X143800476Y-107190000D01*
X143990952Y-107047142D01*
X78550000Y-90292380D02*
X78550000Y-90530476D01*
X78311904Y-90435238D02*
X78550000Y-90530476D01*
X78788095Y-90435238D01*
X78407142Y-90720952D02*
X78550000Y-90530476D01*
X78692857Y-90720952D01*
X119950000Y-90292380D02*
X119950000Y-90530476D01*
X119711904Y-90435238D02*
X119950000Y-90530476D01*
X120188095Y-90435238D01*
X119807142Y-90720952D02*
X119950000Y-90530476D01*
X120092857Y-90720952D01*
X105550000Y-90292380D02*
X105550000Y-90530476D01*
X105311904Y-90435238D02*
X105550000Y-90530476D01*
X105788095Y-90435238D01*
X105407142Y-90720952D02*
X105550000Y-90530476D01*
X105692857Y-90720952D01*
D11*
X115005714Y-123962873D02*
X115005714Y-122762873D01*
X115462857Y-122762873D01*
X115577142Y-122820016D01*
X115634285Y-122877158D01*
X115691428Y-122991444D01*
X115691428Y-123162873D01*
X115634285Y-123277158D01*
X115577142Y-123334301D01*
X115462857Y-123391444D01*
X115005714Y-123391444D01*
X116662857Y-123905730D02*
X116548571Y-123962873D01*
X116320000Y-123962873D01*
X116205714Y-123905730D01*
X116148571Y-123791444D01*
X116148571Y-123334301D01*
X116205714Y-123220016D01*
X116320000Y-123162873D01*
X116548571Y-123162873D01*
X116662857Y-123220016D01*
X116720000Y-123334301D01*
X116720000Y-123448587D01*
X116148571Y-123562873D01*
X117234285Y-123962873D02*
X117234285Y-123162873D01*
X117234285Y-123391444D02*
X117291428Y-123277158D01*
X117348571Y-123220016D01*
X117462857Y-123162873D01*
X117577142Y-123162873D01*
X117920000Y-123905730D02*
X118034285Y-123962873D01*
X118262857Y-123962873D01*
X118377142Y-123905730D01*
X118434285Y-123791444D01*
X118434285Y-123734301D01*
X118377142Y-123620016D01*
X118262857Y-123562873D01*
X118091428Y-123562873D01*
X117977142Y-123505730D01*
X117920000Y-123391444D01*
X117920000Y-123334301D01*
X117977142Y-123220016D01*
X118091428Y-123162873D01*
X118262857Y-123162873D01*
X118377142Y-123220016D01*
X119120000Y-123962873D02*
X119005714Y-123905730D01*
X118948571Y-123848587D01*
X118891428Y-123734301D01*
X118891428Y-123391444D01*
X118948571Y-123277158D01*
X119005714Y-123220016D01*
X119120000Y-123162873D01*
X119291428Y-123162873D01*
X119405714Y-123220016D01*
X119462857Y-123277158D01*
X119520000Y-123391444D01*
X119520000Y-123734301D01*
X119462857Y-123848587D01*
X119405714Y-123905730D01*
X119291428Y-123962873D01*
X119120000Y-123962873D01*
X120034285Y-123162873D02*
X120034285Y-123962873D01*
X120034285Y-123277158D02*
X120091428Y-123220016D01*
X120205714Y-123162873D01*
X120377142Y-123162873D01*
X120491428Y-123220016D01*
X120548571Y-123334301D01*
X120548571Y-123962873D01*
X121634285Y-123962873D02*
X121634285Y-123334301D01*
X121577142Y-123220016D01*
X121462857Y-123162873D01*
X121234285Y-123162873D01*
X121120000Y-123220016D01*
X121634285Y-123905730D02*
X121520000Y-123962873D01*
X121234285Y-123962873D01*
X121120000Y-123905730D01*
X121062857Y-123791444D01*
X121062857Y-123677158D01*
X121120000Y-123562873D01*
X121234285Y-123505730D01*
X121520000Y-123505730D01*
X121634285Y-123448587D01*
X122377142Y-123962873D02*
X122262857Y-123905730D01*
X122205714Y-123791444D01*
X122205714Y-122762873D01*
X124262857Y-123162873D02*
X124262857Y-124362873D01*
X124262857Y-123905730D02*
X124148571Y-123962873D01*
X123920000Y-123962873D01*
X123805714Y-123905730D01*
X123748571Y-123848587D01*
X123691428Y-123734301D01*
X123691428Y-123391444D01*
X123748571Y-123277158D01*
X123805714Y-123220016D01*
X123920000Y-123162873D01*
X124148571Y-123162873D01*
X124262857Y-123220016D01*
X125405714Y-123962873D02*
X124834285Y-123962873D01*
X124834285Y-122762873D01*
X125748571Y-123620016D02*
X126320000Y-123620016D01*
X125634285Y-123962873D02*
X126034285Y-122762873D01*
X126434285Y-123962873D01*
X126834285Y-123962873D02*
X126834285Y-122762873D01*
X127234285Y-123620016D01*
X127634285Y-122762873D01*
X127634285Y-123962873D01*
X128205714Y-123962873D02*
X128205714Y-122762873D01*
X128662857Y-122762873D01*
X128777142Y-122820016D01*
X128834285Y-122877158D01*
X128891428Y-122991444D01*
X128891428Y-123162873D01*
X128834285Y-123277158D01*
X128777142Y-123334301D01*
X128662857Y-123391444D01*
X128205714Y-123391444D01*
D12*
X197939095Y-126932389D02*
X198510523Y-126932389D01*
X198224809Y-127932389D02*
X198224809Y-126932389D01*
X198748619Y-126932389D02*
X199415285Y-127932389D01*
X199415285Y-126932389D02*
X198748619Y-127932389D01*
D11*
X116434285Y-120574285D02*
X116434285Y-122374285D01*
X116434285Y-121688571D02*
X116262857Y-121774285D01*
X115920000Y-121774285D01*
X115748571Y-121688571D01*
X115662857Y-121602857D01*
X115577142Y-121431428D01*
X115577142Y-120917142D01*
X115662857Y-120745714D01*
X115748571Y-120660000D01*
X115920000Y-120574285D01*
X116262857Y-120574285D01*
X116434285Y-120660000D01*
X117291428Y-121774285D02*
X117291428Y-119974285D01*
X118320000Y-121774285D01*
X118320000Y-119974285D01*
X119177142Y-121774285D02*
X119177142Y-120574285D01*
X119177142Y-119974285D02*
X119091428Y-120060000D01*
X119177142Y-120145714D01*
X119262857Y-120060000D01*
X119177142Y-119974285D01*
X119177142Y-120145714D01*
X120034285Y-120574285D02*
X120034285Y-121774285D01*
X120034285Y-120745714D02*
X120120000Y-120660000D01*
X120291428Y-120574285D01*
X120548571Y-120574285D01*
X120720000Y-120660000D01*
X120805714Y-120831428D01*
X120805714Y-121774285D01*
X121662857Y-120574285D02*
X121662857Y-122117142D01*
X121577142Y-122288571D01*
X121405714Y-122374285D01*
X121320000Y-122374285D01*
X121662857Y-119974285D02*
X121577142Y-120060000D01*
X121662857Y-120145714D01*
X121748571Y-120060000D01*
X121662857Y-119974285D01*
X121662857Y-120145714D01*
X123291428Y-121774285D02*
X123291428Y-120831428D01*
X123205714Y-120660000D01*
X123034285Y-120574285D01*
X122691428Y-120574285D01*
X122520000Y-120660000D01*
X123291428Y-121688571D02*
X123120000Y-121774285D01*
X122691428Y-121774285D01*
X122520000Y-121688571D01*
X122434285Y-121517142D01*
X122434285Y-121345714D01*
X122520000Y-121174285D01*
X122691428Y-121088571D01*
X123120000Y-121088571D01*
X123291428Y-121002857D01*
X125005714Y-121774285D02*
X124148571Y-121774285D01*
X124148571Y-119974285D01*
X125605714Y-121774285D02*
X125605714Y-120574285D01*
X125605714Y-119974285D02*
X125520000Y-120060000D01*
X125605714Y-120145714D01*
X125691428Y-120060000D01*
X125605714Y-119974285D01*
X125605714Y-120145714D01*
X126205714Y-120574285D02*
X126891428Y-120574285D01*
X126462857Y-119974285D02*
X126462857Y-121517142D01*
X126548571Y-121688571D01*
X126720000Y-121774285D01*
X126891428Y-121774285D01*
X128177142Y-121688571D02*
X128005714Y-121774285D01*
X127662857Y-121774285D01*
X127491428Y-121688571D01*
X127405714Y-121517142D01*
X127405714Y-120831428D01*
X127491428Y-120660000D01*
X127662857Y-120574285D01*
X128005714Y-120574285D01*
X128177142Y-120660000D01*
X128262857Y-120831428D01*
X128262857Y-121002857D01*
X127405714Y-121174285D01*
D12*
X87550000Y-113162380D02*
X87550000Y-113400476D01*
X87311904Y-113305238D02*
X87550000Y-113400476D01*
X87788095Y-113305238D01*
X87407142Y-113590952D02*
X87550000Y-113400476D01*
X87692857Y-113590952D01*
X96550000Y-113162380D02*
X96550000Y-113400476D01*
X96311904Y-113305238D02*
X96550000Y-113400476D01*
X96788095Y-113305238D01*
X96407142Y-113590952D02*
X96550000Y-113400476D01*
X96692857Y-113590952D01*
X157322380Y-98650000D02*
X157560476Y-98650000D01*
X157465238Y-98888095D02*
X157560476Y-98650000D01*
X157465238Y-98411904D01*
X157750952Y-98792857D02*
X157560476Y-98650000D01*
X157750952Y-98507142D01*
X137950000Y-113162380D02*
X137950000Y-113400476D01*
X137711904Y-113305238D02*
X137950000Y-113400476D01*
X138188095Y-113305238D01*
X137807142Y-113590952D02*
X137950000Y-113400476D01*
X138092857Y-113590952D01*
X87550000Y-90292380D02*
X87550000Y-90530476D01*
X87311904Y-90435238D02*
X87550000Y-90530476D01*
X87788095Y-90435238D01*
X87407142Y-90720952D02*
X87550000Y-90530476D01*
X87692857Y-90720952D01*
X146950000Y-113162380D02*
X146950000Y-113400476D01*
X146711904Y-113305238D02*
X146950000Y-113400476D01*
X147188095Y-113305238D01*
X146807142Y-113590952D02*
X146950000Y-113400476D01*
X147092857Y-113590952D01*
X78550000Y-113162380D02*
X78550000Y-113400476D01*
X78311904Y-113305238D02*
X78550000Y-113400476D01*
X78788095Y-113305238D01*
X78407142Y-113590952D02*
X78550000Y-113400476D01*
X78692857Y-113590952D01*
X126222380Y-102690000D02*
X126460476Y-102690000D01*
X126365238Y-102928095D02*
X126460476Y-102690000D01*
X126365238Y-102451904D01*
X126650952Y-102832857D02*
X126460476Y-102690000D01*
X126650952Y-102547142D01*
X195994333Y-127932389D02*
X195661000Y-127456199D01*
X195422904Y-127932389D02*
X195422904Y-126932389D01*
X195803857Y-126932389D01*
X195899095Y-126980009D01*
X195946714Y-127027628D01*
X195994333Y-127122866D01*
X195994333Y-127265723D01*
X195946714Y-127360961D01*
X195899095Y-127408580D01*
X195803857Y-127456199D01*
X195422904Y-127456199D01*
X196327666Y-126932389D02*
X196994333Y-127932389D01*
X196994333Y-126932389D02*
X196327666Y-127932389D01*
X86470000Y-107412380D02*
X86470000Y-107650476D01*
X86231904Y-107555238D02*
X86470000Y-107650476D01*
X86708095Y-107555238D01*
X86327142Y-107840952D02*
X86470000Y-107650476D01*
X86612857Y-107840952D01*
X105550000Y-113162380D02*
X105550000Y-113400476D01*
X105311904Y-113305238D02*
X105550000Y-113400476D01*
X105788095Y-113305238D01*
X105407142Y-113590952D02*
X105550000Y-113400476D01*
X105692857Y-113590952D01*
X146950000Y-90292380D02*
X146950000Y-90530476D01*
X146711904Y-90435238D02*
X146950000Y-90530476D01*
X147188095Y-90435238D01*
X146807142Y-90720952D02*
X146950000Y-90530476D01*
X147092857Y-90720952D01*
X137950000Y-90292380D02*
X137950000Y-90530476D01*
X137711904Y-90435238D02*
X137950000Y-90530476D01*
X138188095Y-90435238D01*
X137807142Y-90720952D02*
X137950000Y-90530476D01*
X138092857Y-90720952D01*
X119950000Y-113162380D02*
X119950000Y-113400476D01*
X119711904Y-113305238D02*
X119950000Y-113400476D01*
X120188095Y-113305238D01*
X119807142Y-113590952D02*
X119950000Y-113400476D01*
X120092857Y-113590952D01*
X170290000Y-87572380D02*
X170290000Y-87810476D01*
X170051904Y-87715238D02*
X170290000Y-87810476D01*
X170528095Y-87715238D01*
X170147142Y-88000952D02*
X170290000Y-87810476D01*
X170432857Y-88000952D01*
X97010000Y-97152380D02*
X97010000Y-97390476D01*
X96771904Y-97295238D02*
X97010000Y-97390476D01*
X97248095Y-97295238D01*
X96867142Y-97580952D02*
X97010000Y-97390476D01*
X97152857Y-97580952D01*
X96550000Y-90292380D02*
X96550000Y-90530476D01*
X96311904Y-90435238D02*
X96550000Y-90530476D01*
X96788095Y-90435238D01*
X96407142Y-90720952D02*
X96550000Y-90530476D01*
X96692857Y-90720952D01*
X187779095Y-126980009D02*
X187683857Y-126932389D01*
X187541000Y-126932389D01*
X187398142Y-126980009D01*
X187302904Y-127075247D01*
X187255285Y-127170485D01*
X187207666Y-127360961D01*
X187207666Y-127503818D01*
X187255285Y-127694294D01*
X187302904Y-127789532D01*
X187398142Y-127884770D01*
X187541000Y-127932389D01*
X187636238Y-127932389D01*
X187779095Y-127884770D01*
X187826714Y-127837151D01*
X187826714Y-127503818D01*
X187636238Y-127503818D01*
X188255285Y-127932389D02*
X188255285Y-126932389D01*
X188826714Y-127932389D01*
X188826714Y-126932389D01*
X189302904Y-127932389D02*
X189302904Y-126932389D01*
X189541000Y-126932389D01*
X189683857Y-126980009D01*
X189779095Y-127075247D01*
X189826714Y-127170485D01*
X189874333Y-127360961D01*
X189874333Y-127503818D01*
X189826714Y-127694294D01*
X189779095Y-127789532D01*
X189683857Y-127884770D01*
X189541000Y-127932389D01*
X189302904Y-127932389D01*
X128950000Y-90292380D02*
X128950000Y-90530476D01*
X128711904Y-90435238D02*
X128950000Y-90530476D01*
X129188095Y-90435238D01*
X128807142Y-90720952D02*
X128950000Y-90530476D01*
X129092857Y-90720952D01*
X182320000Y-129992380D02*
X182320000Y-128992380D01*
X182986666Y-128992380D02*
X183177142Y-128992380D01*
X183272380Y-129040000D01*
X183367619Y-129135238D01*
X183415238Y-129325714D01*
X183415238Y-129659047D01*
X183367619Y-129849523D01*
X183272380Y-129944761D01*
X183177142Y-129992380D01*
X182986666Y-129992380D01*
X182891428Y-129944761D01*
X182796190Y-129849523D01*
X182748571Y-129659047D01*
X182748571Y-129325714D01*
X182796190Y-129135238D01*
X182891428Y-129040000D01*
X182986666Y-128992380D01*
X184034285Y-128992380D02*
X184129523Y-128992380D01*
X184224761Y-129040000D01*
X184272380Y-129087619D01*
X184320000Y-129182857D01*
X184367619Y-129373333D01*
X184367619Y-129611428D01*
X184320000Y-129801904D01*
X184272380Y-129897142D01*
X184224761Y-129944761D01*
X184129523Y-129992380D01*
X184034285Y-129992380D01*
X183939047Y-129944761D01*
X183891428Y-129897142D01*
X183843809Y-129801904D01*
X183796190Y-129611428D01*
X183796190Y-129373333D01*
X183843809Y-129182857D01*
X183891428Y-129087619D01*
X183939047Y-129040000D01*
X184034285Y-128992380D01*
X207592379Y-93775247D02*
X206592379Y-93775247D01*
X207068570Y-93775247D02*
X207068570Y-93203818D01*
X207592379Y-93203818D02*
X206592379Y-93203818D01*
X206592379Y-92822866D02*
X207592379Y-92584770D01*
X206878094Y-92394294D01*
X207592379Y-92203818D01*
X206592379Y-91965723D01*
X207068570Y-91584770D02*
X207068570Y-91251437D01*
X207592379Y-91108580D02*
X207592379Y-91584770D01*
X206592379Y-91584770D01*
X206592379Y-91108580D01*
X207592379Y-90203818D02*
X207592379Y-90680009D01*
X206592379Y-90680009D01*
X207592379Y-89394294D02*
X207592379Y-89870485D01*
X206592379Y-89870485D01*
X207592379Y-88537151D02*
X207592379Y-89108580D01*
X207592379Y-88822866D02*
X206592379Y-88822866D01*
X206735237Y-88918104D01*
X206830475Y-89013342D01*
X206878094Y-89108580D01*
X149066666Y-125482380D02*
X149066666Y-126196666D01*
X149019047Y-126339523D01*
X148923809Y-126434761D01*
X148780952Y-126482380D01*
X148685714Y-126482380D01*
X149542857Y-126482380D02*
X149542857Y-125482380D01*
X149923809Y-125482380D01*
X150019047Y-125530000D01*
X150066666Y-125577619D01*
X150114285Y-125672857D01*
X150114285Y-125815714D01*
X150066666Y-125910952D01*
X150019047Y-125958571D01*
X149923809Y-126006190D01*
X149542857Y-126006190D01*
X151066666Y-126482380D02*
X150495238Y-126482380D01*
X150780952Y-126482380D02*
X150780952Y-125482380D01*
X150685714Y-125625238D01*
X150590476Y-125720476D01*
X150495238Y-125768095D01*
X190081904Y-83792380D02*
X190081904Y-84601904D01*
X190129523Y-84697142D01*
X190177142Y-84744761D01*
X190272380Y-84792380D01*
X190462857Y-84792380D01*
X190558095Y-84744761D01*
X190605714Y-84697142D01*
X190653333Y-84601904D01*
X190653333Y-83792380D01*
X191653333Y-84792380D02*
X191081904Y-84792380D01*
X191367619Y-84792380D02*
X191367619Y-83792380D01*
X191272380Y-83935238D01*
X191177142Y-84030476D01*
X191081904Y-84078095D01*
X192605714Y-84792380D02*
X192034285Y-84792380D01*
X192320000Y-84792380D02*
X192320000Y-83792380D01*
X192224761Y-83935238D01*
X192129523Y-84030476D01*
X192034285Y-84078095D01*
X130841904Y-103132386D02*
X130841904Y-103941910D01*
X130889523Y-104037148D01*
X130937142Y-104084767D01*
X131032380Y-104132386D01*
X131222857Y-104132386D01*
X131318095Y-104084767D01*
X131365714Y-104037148D01*
X131413333Y-103941910D01*
X131413333Y-103132386D01*
X132413333Y-104132386D02*
X131841904Y-104132386D01*
X132127619Y-104132386D02*
X132127619Y-103132386D01*
X132032380Y-103275244D01*
X131937142Y-103370482D01*
X131841904Y-103418101D01*
X133270476Y-103465720D02*
X133270476Y-104132386D01*
X133032380Y-103084767D02*
X132794285Y-103799053D01*
X133413333Y-103799053D01*
X131117142Y-101457142D02*
X131069523Y-101504761D01*
X130926666Y-101552380D01*
X130831428Y-101552380D01*
X130688571Y-101504761D01*
X130593333Y-101409523D01*
X130545714Y-101314285D01*
X130498095Y-101123809D01*
X130498095Y-100980952D01*
X130545714Y-100790476D01*
X130593333Y-100695238D01*
X130688571Y-100600000D01*
X130831428Y-100552380D01*
X130926666Y-100552380D01*
X131069523Y-100600000D01*
X131117142Y-100647619D01*
X131498095Y-100647619D02*
X131545714Y-100600000D01*
X131640952Y-100552380D01*
X131879047Y-100552380D01*
X131974285Y-100600000D01*
X132021904Y-100647619D01*
X132069523Y-100742857D01*
X132069523Y-100838095D01*
X132021904Y-100980952D01*
X131450476Y-101552380D01*
X132069523Y-101552380D01*
X132450476Y-100647619D02*
X132498095Y-100600000D01*
X132593333Y-100552380D01*
X132831428Y-100552380D01*
X132926666Y-100600000D01*
X132974285Y-100647619D01*
X133021904Y-100742857D01*
X133021904Y-100838095D01*
X132974285Y-100980952D01*
X132402857Y-101552380D01*
X133021904Y-101552380D01*
X179827131Y-92147131D02*
X179779512Y-92194750D01*
X179636655Y-92242369D01*
X179541417Y-92242369D01*
X179398560Y-92194750D01*
X179303322Y-92099512D01*
X179255703Y-92004274D01*
X179208084Y-91813798D01*
X179208084Y-91670941D01*
X179255703Y-91480465D01*
X179303322Y-91385227D01*
X179398560Y-91289989D01*
X179541417Y-91242369D01*
X179636655Y-91242369D01*
X179779512Y-91289989D01*
X179827131Y-91337608D01*
X180208084Y-91337608D02*
X180255703Y-91289989D01*
X180350941Y-91242369D01*
X180589036Y-91242369D01*
X180684274Y-91289989D01*
X180731893Y-91337608D01*
X180779512Y-91432846D01*
X180779512Y-91528084D01*
X180731893Y-91670941D01*
X180160465Y-92242369D01*
X180779512Y-92242369D01*
X181112846Y-91242369D02*
X181731893Y-91242369D01*
X181398560Y-91623322D01*
X181541417Y-91623322D01*
X181636655Y-91670941D01*
X181684274Y-91718560D01*
X181731893Y-91813798D01*
X181731893Y-92051893D01*
X181684274Y-92147131D01*
X181636655Y-92194750D01*
X181541417Y-92242369D01*
X181255703Y-92242369D01*
X181160465Y-92194750D01*
X181112846Y-92147131D01*
X179201417Y-89960941D02*
X179201417Y-89199036D01*
X179582369Y-89579989D02*
X178820465Y-89579989D01*
X130947142Y-99257142D02*
X130899523Y-99304761D01*
X130756666Y-99352380D01*
X130661428Y-99352380D01*
X130518571Y-99304761D01*
X130423333Y-99209523D01*
X130375714Y-99114285D01*
X130328095Y-98923809D01*
X130328095Y-98780952D01*
X130375714Y-98590476D01*
X130423333Y-98495238D01*
X130518571Y-98400000D01*
X130661428Y-98352380D01*
X130756666Y-98352380D01*
X130899523Y-98400000D01*
X130947142Y-98447619D01*
X131328095Y-98447619D02*
X131375714Y-98400000D01*
X131470952Y-98352380D01*
X131709047Y-98352380D01*
X131804285Y-98400000D01*
X131851904Y-98447619D01*
X131899523Y-98542857D01*
X131899523Y-98638095D01*
X131851904Y-98780952D01*
X131280476Y-99352380D01*
X131899523Y-99352380D01*
X132756666Y-98685714D02*
X132756666Y-99352380D01*
X132518571Y-98304761D02*
X132280476Y-99019047D01*
X132899523Y-99019047D01*
X172725714Y-89295714D02*
X172687619Y-89333809D01*
X172573333Y-89371904D01*
X172497142Y-89371904D01*
X172382857Y-89333809D01*
X172306666Y-89257619D01*
X172268571Y-89181428D01*
X172230476Y-89029047D01*
X172230476Y-88914761D01*
X172268571Y-88762380D01*
X172306666Y-88686190D01*
X172382857Y-88610000D01*
X172497142Y-88571904D01*
X172573333Y-88571904D01*
X172687619Y-88610000D01*
X172725714Y-88648095D01*
X173030476Y-88648095D02*
X173068571Y-88610000D01*
X173144761Y-88571904D01*
X173335238Y-88571904D01*
X173411428Y-88610000D01*
X173449523Y-88648095D01*
X173487619Y-88724285D01*
X173487619Y-88800476D01*
X173449523Y-88914761D01*
X172992380Y-89371904D01*
X173487619Y-89371904D01*
X174211428Y-88571904D02*
X173830476Y-88571904D01*
X173792380Y-88952857D01*
X173830476Y-88914761D01*
X173906666Y-88876666D01*
X174097142Y-88876666D01*
X174173333Y-88914761D01*
X174211428Y-88952857D01*
X174249523Y-89029047D01*
X174249523Y-89219523D01*
X174211428Y-89295714D01*
X174173333Y-89333809D01*
X174097142Y-89371904D01*
X173906666Y-89371904D01*
X173830476Y-89333809D01*
X173792380Y-89295714D01*
X175285714Y-90365714D02*
X175247619Y-90403809D01*
X175133333Y-90441904D01*
X175057142Y-90441904D01*
X174942857Y-90403809D01*
X174866666Y-90327619D01*
X174828571Y-90251428D01*
X174790476Y-90099047D01*
X174790476Y-89984761D01*
X174828571Y-89832380D01*
X174866666Y-89756190D01*
X174942857Y-89680000D01*
X175057142Y-89641904D01*
X175133333Y-89641904D01*
X175247619Y-89680000D01*
X175285714Y-89718095D01*
X175590476Y-89718095D02*
X175628571Y-89680000D01*
X175704761Y-89641904D01*
X175895238Y-89641904D01*
X175971428Y-89680000D01*
X176009523Y-89718095D01*
X176047619Y-89794285D01*
X176047619Y-89870476D01*
X176009523Y-89984761D01*
X175552380Y-90441904D01*
X176047619Y-90441904D01*
X176314285Y-89641904D02*
X176847619Y-89641904D01*
X176504761Y-90441904D01*
X184475714Y-83305714D02*
X184437619Y-83343809D01*
X184323333Y-83381904D01*
X184247142Y-83381904D01*
X184132857Y-83343809D01*
X184056666Y-83267619D01*
X184018571Y-83191428D01*
X183980476Y-83039047D01*
X183980476Y-82924761D01*
X184018571Y-82772380D01*
X184056666Y-82696190D01*
X184132857Y-82620000D01*
X184247142Y-82581904D01*
X184323333Y-82581904D01*
X184437619Y-82620000D01*
X184475714Y-82658095D01*
X184780476Y-82658095D02*
X184818571Y-82620000D01*
X184894761Y-82581904D01*
X185085238Y-82581904D01*
X185161428Y-82620000D01*
X185199523Y-82658095D01*
X185237619Y-82734285D01*
X185237619Y-82810476D01*
X185199523Y-82924761D01*
X184742380Y-83381904D01*
X185237619Y-83381904D01*
X185618571Y-83381904D02*
X185770952Y-83381904D01*
X185847142Y-83343809D01*
X185885238Y-83305714D01*
X185961428Y-83191428D01*
X185999523Y-83039047D01*
X185999523Y-82734285D01*
X185961428Y-82658095D01*
X185923333Y-82620000D01*
X185847142Y-82581904D01*
X185694761Y-82581904D01*
X185618571Y-82620000D01*
X185580476Y-82658095D01*
X185542380Y-82734285D01*
X185542380Y-82924761D01*
X185580476Y-83000952D01*
X185618571Y-83039047D01*
X185694761Y-83077142D01*
X185847142Y-83077142D01*
X185923333Y-83039047D01*
X185961428Y-83000952D01*
X185999523Y-82924761D01*
X159937142Y-104327142D02*
X159889523Y-104374761D01*
X159746666Y-104422380D01*
X159651428Y-104422380D01*
X159508571Y-104374761D01*
X159413333Y-104279523D01*
X159365714Y-104184285D01*
X159318095Y-103993809D01*
X159318095Y-103850952D01*
X159365714Y-103660476D01*
X159413333Y-103565238D01*
X159508571Y-103470000D01*
X159651428Y-103422380D01*
X159746666Y-103422380D01*
X159889523Y-103470000D01*
X159937142Y-103517619D01*
X160270476Y-103422380D02*
X160889523Y-103422380D01*
X160556190Y-103803333D01*
X160699047Y-103803333D01*
X160794285Y-103850952D01*
X160841904Y-103898571D01*
X160889523Y-103993809D01*
X160889523Y-104231904D01*
X160841904Y-104327142D01*
X160794285Y-104374761D01*
X160699047Y-104422380D01*
X160413333Y-104422380D01*
X160318095Y-104374761D01*
X160270476Y-104327142D01*
X161841904Y-104422380D02*
X161270476Y-104422380D01*
X161556190Y-104422380D02*
X161556190Y-103422380D01*
X161460952Y-103565238D01*
X161365714Y-103660476D01*
X161270476Y-103708095D01*
X125197142Y-107607142D02*
X125149523Y-107654761D01*
X125006666Y-107702380D01*
X124911428Y-107702380D01*
X124768571Y-107654761D01*
X124673333Y-107559523D01*
X124625714Y-107464285D01*
X124578095Y-107273809D01*
X124578095Y-107130952D01*
X124625714Y-106940476D01*
X124673333Y-106845238D01*
X124768571Y-106750000D01*
X124911428Y-106702380D01*
X125006666Y-106702380D01*
X125149523Y-106750000D01*
X125197142Y-106797619D01*
X125530476Y-106702380D02*
X126149523Y-106702380D01*
X125816190Y-107083333D01*
X125959047Y-107083333D01*
X126054285Y-107130952D01*
X126101904Y-107178571D01*
X126149523Y-107273809D01*
X126149523Y-107511904D01*
X126101904Y-107607142D01*
X126054285Y-107654761D01*
X125959047Y-107702380D01*
X125673333Y-107702380D01*
X125578095Y-107654761D01*
X125530476Y-107607142D01*
X126482857Y-106702380D02*
X127101904Y-106702380D01*
X126768571Y-107083333D01*
X126911428Y-107083333D01*
X127006666Y-107130952D01*
X127054285Y-107178571D01*
X127101904Y-107273809D01*
X127101904Y-107511904D01*
X127054285Y-107607142D01*
X127006666Y-107654761D01*
X126911428Y-107702380D01*
X126625714Y-107702380D01*
X126530476Y-107654761D01*
X126482857Y-107607142D01*
X195307142Y-80877142D02*
X195259523Y-80924761D01*
X195116666Y-80972380D01*
X195021428Y-80972380D01*
X194878571Y-80924761D01*
X194783333Y-80829523D01*
X194735714Y-80734285D01*
X194688095Y-80543809D01*
X194688095Y-80400952D01*
X194735714Y-80210476D01*
X194783333Y-80115238D01*
X194878571Y-80020000D01*
X195021428Y-79972380D01*
X195116666Y-79972380D01*
X195259523Y-80020000D01*
X195307142Y-80067619D01*
X196259523Y-80972380D02*
X195688095Y-80972380D01*
X195973809Y-80972380D02*
X195973809Y-79972380D01*
X195878571Y-80115238D01*
X195783333Y-80210476D01*
X195688095Y-80258095D01*
X196592857Y-79972380D02*
X197211904Y-79972380D01*
X196878571Y-80353333D01*
X197021428Y-80353333D01*
X197116666Y-80400952D01*
X197164285Y-80448571D01*
X197211904Y-80543809D01*
X197211904Y-80781904D01*
X197164285Y-80877142D01*
X197116666Y-80924761D01*
X197021428Y-80972380D01*
X196735714Y-80972380D01*
X196640476Y-80924761D01*
X196592857Y-80877142D01*
X94760142Y-98662116D02*
X94723857Y-98698402D01*
X94615000Y-98734688D01*
X94542428Y-98734688D01*
X94433571Y-98698402D01*
X94361000Y-98625831D01*
X94324714Y-98553259D01*
X94288428Y-98408116D01*
X94288428Y-98299259D01*
X94324714Y-98154116D01*
X94361000Y-98081545D01*
X94433571Y-98008974D01*
X94542428Y-97972688D01*
X94615000Y-97972688D01*
X94723857Y-98008974D01*
X94760142Y-98045259D01*
X95485857Y-98734688D02*
X95050428Y-98734688D01*
X95268142Y-98734688D02*
X95268142Y-97972688D01*
X95195571Y-98081545D01*
X95123000Y-98154116D01*
X95050428Y-98190402D01*
X96139000Y-98226688D02*
X96139000Y-98734688D01*
X95957571Y-97936402D02*
X95776142Y-98480688D01*
X96247857Y-98480688D01*
X194272390Y-94604757D02*
X193272390Y-94604757D01*
X193748581Y-94604757D02*
X193748581Y-94033329D01*
X194272390Y-94033329D02*
X193272390Y-94033329D01*
X194272390Y-93080948D02*
X194272390Y-93557138D01*
X193272390Y-93557138D01*
X194272390Y-92747615D02*
X193272390Y-92747615D01*
X194272390Y-92271424D02*
X193272390Y-92271424D01*
X193272390Y-92033329D01*
X193320010Y-91890472D01*
X193415248Y-91795234D01*
X193510486Y-91747615D01*
X193700962Y-91699996D01*
X193843819Y-91699996D01*
X194034295Y-91747615D01*
X194129533Y-91795234D01*
X194224771Y-91890472D01*
X194272390Y-92033329D01*
X194272390Y-92271424D01*
X194272390Y-90747615D02*
X194272390Y-91319043D01*
X194272390Y-91033329D02*
X193272390Y-91033329D01*
X193415248Y-91128567D01*
X193510486Y-91223805D01*
X193558105Y-91319043D01*
X81351904Y-102562380D02*
X81351904Y-103371904D01*
X81399523Y-103467142D01*
X81447142Y-103514761D01*
X81542380Y-103562380D01*
X81732857Y-103562380D01*
X81828095Y-103514761D01*
X81875714Y-103467142D01*
X81923333Y-103371904D01*
X81923333Y-102562380D01*
X82923333Y-103562380D02*
X82351904Y-103562380D01*
X82637619Y-103562380D02*
X82637619Y-102562380D01*
X82542380Y-102705238D01*
X82447142Y-102800476D01*
X82351904Y-102848095D01*
X83399523Y-103562380D02*
X83590000Y-103562380D01*
X83685238Y-103514761D01*
X83732857Y-103467142D01*
X83828095Y-103324285D01*
X83875714Y-103133809D01*
X83875714Y-102752857D01*
X83828095Y-102657619D01*
X83780476Y-102610000D01*
X83685238Y-102562380D01*
X83494761Y-102562380D01*
X83399523Y-102610000D01*
X83351904Y-102657619D01*
X83304285Y-102752857D01*
X83304285Y-102990952D01*
X83351904Y-103086190D01*
X83399523Y-103133809D01*
X83494761Y-103181428D01*
X83685238Y-103181428D01*
X83780476Y-103133809D01*
X83828095Y-103086190D01*
X83875714Y-102990952D01*
X96313000Y-106632142D02*
X96276714Y-106668428D01*
X96167857Y-106704714D01*
X96095285Y-106704714D01*
X95986428Y-106668428D01*
X95913857Y-106595857D01*
X95877571Y-106523285D01*
X95841285Y-106378142D01*
X95841285Y-106269285D01*
X95877571Y-106124142D01*
X95913857Y-106051571D01*
X95986428Y-105979000D01*
X96095285Y-105942714D01*
X96167857Y-105942714D01*
X96276714Y-105979000D01*
X96313000Y-106015285D01*
X96748428Y-106269285D02*
X96675857Y-106233000D01*
X96639571Y-106196714D01*
X96603285Y-106124142D01*
X96603285Y-106087857D01*
X96639571Y-106015285D01*
X96675857Y-105979000D01*
X96748428Y-105942714D01*
X96893571Y-105942714D01*
X96966142Y-105979000D01*
X97002428Y-106015285D01*
X97038714Y-106087857D01*
X97038714Y-106124142D01*
X97002428Y-106196714D01*
X96966142Y-106233000D01*
X96893571Y-106269285D01*
X96748428Y-106269285D01*
X96675857Y-106305571D01*
X96639571Y-106341857D01*
X96603285Y-106414428D01*
X96603285Y-106559571D01*
X96639571Y-106632142D01*
X96675857Y-106668428D01*
X96748428Y-106704714D01*
X96893571Y-106704714D01*
X96966142Y-106668428D01*
X97002428Y-106632142D01*
X97038714Y-106559571D01*
X97038714Y-106414428D01*
X97002428Y-106341857D01*
X96966142Y-106305571D01*
X96893571Y-106269285D01*
X183767142Y-123447142D02*
X183719523Y-123494761D01*
X183576666Y-123542380D01*
X183481428Y-123542380D01*
X183338571Y-123494761D01*
X183243333Y-123399523D01*
X183195714Y-123304285D01*
X183148095Y-123113809D01*
X183148095Y-122970952D01*
X183195714Y-122780476D01*
X183243333Y-122685238D01*
X183338571Y-122590000D01*
X183481428Y-122542380D01*
X183576666Y-122542380D01*
X183719523Y-122590000D01*
X183767142Y-122637619D01*
X184719523Y-123542380D02*
X184148095Y-123542380D01*
X184433809Y-123542380D02*
X184433809Y-122542380D01*
X184338571Y-122685238D01*
X184243333Y-122780476D01*
X184148095Y-122828095D01*
X185671904Y-123542380D02*
X185100476Y-123542380D01*
X185386190Y-123542380D02*
X185386190Y-122542380D01*
X185290952Y-122685238D01*
X185195714Y-122780476D01*
X185100476Y-122828095D01*
X91174166Y-103206785D02*
X91143928Y-103237023D01*
X91053214Y-103267261D01*
X90992738Y-103267261D01*
X90902023Y-103237023D01*
X90841547Y-103176547D01*
X90811309Y-103116071D01*
X90781071Y-102995119D01*
X90781071Y-102904404D01*
X90811309Y-102783452D01*
X90841547Y-102722976D01*
X90902023Y-102662500D01*
X90992738Y-102632261D01*
X91053214Y-102632261D01*
X91143928Y-102662500D01*
X91174166Y-102692738D01*
X91718452Y-102632261D02*
X91597500Y-102632261D01*
X91537023Y-102662500D01*
X91506785Y-102692738D01*
X91446309Y-102783452D01*
X91416071Y-102904404D01*
X91416071Y-103146309D01*
X91446309Y-103206785D01*
X91476547Y-103237023D01*
X91537023Y-103267261D01*
X91657976Y-103267261D01*
X91718452Y-103237023D01*
X91748690Y-103206785D01*
X91778928Y-103146309D01*
X91778928Y-102995119D01*
X91748690Y-102934642D01*
X91718452Y-102904404D01*
X91657976Y-102874166D01*
X91537023Y-102874166D01*
X91476547Y-102904404D01*
X91446309Y-102934642D01*
X91416071Y-102995119D01*
X158458095Y-98482380D02*
X158458095Y-99291904D01*
X158505714Y-99387142D01*
X158553333Y-99434761D01*
X158648571Y-99482380D01*
X158839047Y-99482380D01*
X158934285Y-99434761D01*
X158981904Y-99387142D01*
X159029523Y-99291904D01*
X159029523Y-98482380D01*
X159648571Y-98910952D02*
X159553333Y-98863333D01*
X159505714Y-98815714D01*
X159458095Y-98720476D01*
X159458095Y-98672857D01*
X159505714Y-98577619D01*
X159553333Y-98530000D01*
X159648571Y-98482380D01*
X159839047Y-98482380D01*
X159934285Y-98530000D01*
X159981904Y-98577619D01*
X160029523Y-98672857D01*
X160029523Y-98720476D01*
X159981904Y-98815714D01*
X159934285Y-98863333D01*
X159839047Y-98910952D01*
X159648571Y-98910952D01*
X159553333Y-98958571D01*
X159505714Y-99006190D01*
X159458095Y-99101428D01*
X159458095Y-99291904D01*
X159505714Y-99387142D01*
X159553333Y-99434761D01*
X159648571Y-99482380D01*
X159839047Y-99482380D01*
X159934285Y-99434761D01*
X159981904Y-99387142D01*
X160029523Y-99291904D01*
X160029523Y-99101428D01*
X159981904Y-99006190D01*
X159934285Y-98958571D01*
X159839047Y-98910952D01*
X92729428Y-104152714D02*
X92729428Y-104769571D01*
X92765714Y-104842142D01*
X92802000Y-104878428D01*
X92874571Y-104914714D01*
X93019714Y-104914714D01*
X93092285Y-104878428D01*
X93128571Y-104842142D01*
X93164857Y-104769571D01*
X93164857Y-104152714D01*
X93854285Y-104406714D02*
X93854285Y-104914714D01*
X93672857Y-104116428D02*
X93491428Y-104660714D01*
X93963142Y-104660714D01*
X152585714Y-96761904D02*
X152319047Y-96380952D01*
X152128571Y-96761904D02*
X152128571Y-95961904D01*
X152433333Y-95961904D01*
X152509523Y-96000000D01*
X152547619Y-96038095D01*
X152585714Y-96114285D01*
X152585714Y-96228571D01*
X152547619Y-96304761D01*
X152509523Y-96342857D01*
X152433333Y-96380952D01*
X152128571Y-96380952D01*
X153347619Y-96761904D02*
X152890476Y-96761904D01*
X153119047Y-96761904D02*
X153119047Y-95961904D01*
X153042857Y-96076190D01*
X152966666Y-96152380D01*
X152890476Y-96190476D01*
X153614285Y-95961904D02*
X154147619Y-95961904D01*
X153804761Y-96761904D01*
X152555714Y-97951904D02*
X152289047Y-97570952D01*
X152098571Y-97951904D02*
X152098571Y-97151904D01*
X152403333Y-97151904D01*
X152479523Y-97190000D01*
X152517619Y-97228095D01*
X152555714Y-97304285D01*
X152555714Y-97418571D01*
X152517619Y-97494761D01*
X152479523Y-97532857D01*
X152403333Y-97570952D01*
X152098571Y-97570952D01*
X153317619Y-97951904D02*
X152860476Y-97951904D01*
X153089047Y-97951904D02*
X153089047Y-97151904D01*
X153012857Y-97266190D01*
X152936666Y-97342380D01*
X152860476Y-97380476D01*
X153774761Y-97494761D02*
X153698571Y-97456666D01*
X153660476Y-97418571D01*
X153622380Y-97342380D01*
X153622380Y-97304285D01*
X153660476Y-97228095D01*
X153698571Y-97190000D01*
X153774761Y-97151904D01*
X153927142Y-97151904D01*
X154003333Y-97190000D01*
X154041428Y-97228095D01*
X154079523Y-97304285D01*
X154079523Y-97342380D01*
X154041428Y-97418571D01*
X154003333Y-97456666D01*
X153927142Y-97494761D01*
X153774761Y-97494761D01*
X153698571Y-97532857D01*
X153660476Y-97570952D01*
X153622380Y-97647142D01*
X153622380Y-97799523D01*
X153660476Y-97875714D01*
X153698571Y-97913809D01*
X153774761Y-97951904D01*
X153927142Y-97951904D01*
X154003333Y-97913809D01*
X154041428Y-97875714D01*
X154079523Y-97799523D01*
X154079523Y-97647142D01*
X154041428Y-97570952D01*
X154003333Y-97532857D01*
X153927142Y-97494761D01*
X165293095Y-91293380D02*
X165293095Y-92102904D01*
X165340714Y-92198142D01*
X165388333Y-92245761D01*
X165483571Y-92293380D01*
X165674047Y-92293380D01*
X165769285Y-92245761D01*
X165816904Y-92198142D01*
X165864523Y-92102904D01*
X165864523Y-91293380D01*
X166388333Y-92293380D02*
X166578809Y-92293380D01*
X166674047Y-92245761D01*
X166721666Y-92198142D01*
X166816904Y-92055285D01*
X166864523Y-91864809D01*
X166864523Y-91483857D01*
X166816904Y-91388619D01*
X166769285Y-91341000D01*
X166674047Y-91293380D01*
X166483571Y-91293380D01*
X166388333Y-91341000D01*
X166340714Y-91388619D01*
X166293095Y-91483857D01*
X166293095Y-91721952D01*
X166340714Y-91817190D01*
X166388333Y-91864809D01*
X166483571Y-91912428D01*
X166674047Y-91912428D01*
X166769285Y-91864809D01*
X166816904Y-91817190D01*
X166864523Y-91721952D01*
X130917142Y-97447142D02*
X130869523Y-97494761D01*
X130726666Y-97542380D01*
X130631428Y-97542380D01*
X130488571Y-97494761D01*
X130393333Y-97399523D01*
X130345714Y-97304285D01*
X130298095Y-97113809D01*
X130298095Y-96970952D01*
X130345714Y-96780476D01*
X130393333Y-96685238D01*
X130488571Y-96590000D01*
X130631428Y-96542380D01*
X130726666Y-96542380D01*
X130869523Y-96590000D01*
X130917142Y-96637619D01*
X131298095Y-96637619D02*
X131345714Y-96590000D01*
X131440952Y-96542380D01*
X131679047Y-96542380D01*
X131774285Y-96590000D01*
X131821904Y-96637619D01*
X131869523Y-96732857D01*
X131869523Y-96828095D01*
X131821904Y-96970952D01*
X131250476Y-97542380D01*
X131869523Y-97542380D01*
X132726666Y-96542380D02*
X132536190Y-96542380D01*
X132440952Y-96590000D01*
X132393333Y-96637619D01*
X132298095Y-96780476D01*
X132250476Y-96970952D01*
X132250476Y-97351904D01*
X132298095Y-97447142D01*
X132345714Y-97494761D01*
X132440952Y-97542380D01*
X132631428Y-97542380D01*
X132726666Y-97494761D01*
X132774285Y-97447142D01*
X132821904Y-97351904D01*
X132821904Y-97113809D01*
X132774285Y-97018571D01*
X132726666Y-96970952D01*
X132631428Y-96923333D01*
X132440952Y-96923333D01*
X132345714Y-96970952D01*
X132298095Y-97018571D01*
X132250476Y-97113809D01*
X198559761Y-94177619D02*
X198464523Y-94130000D01*
X198369285Y-94034761D01*
X198226428Y-93891904D01*
X198131190Y-93844285D01*
X198035952Y-93844285D01*
X198083571Y-94082380D02*
X197988333Y-94034761D01*
X197893095Y-93939523D01*
X197845476Y-93749047D01*
X197845476Y-93415714D01*
X197893095Y-93225238D01*
X197988333Y-93130000D01*
X198083571Y-93082380D01*
X198274047Y-93082380D01*
X198369285Y-93130000D01*
X198464523Y-93225238D01*
X198512142Y-93415714D01*
X198512142Y-93749047D01*
X198464523Y-93939523D01*
X198369285Y-94034761D01*
X198274047Y-94082380D01*
X198083571Y-94082380D01*
X199416904Y-93082380D02*
X198940714Y-93082380D01*
X198893095Y-93558571D01*
X198940714Y-93510952D01*
X199035952Y-93463333D01*
X199274047Y-93463333D01*
X199369285Y-93510952D01*
X199416904Y-93558571D01*
X199464523Y-93653809D01*
X199464523Y-93891904D01*
X199416904Y-93987142D01*
X199369285Y-94034761D01*
X199274047Y-94082380D01*
X199035952Y-94082380D01*
X198940714Y-94034761D01*
X198893095Y-93987142D01*
X185514761Y-93737619D02*
X185419523Y-93690000D01*
X185324285Y-93594761D01*
X185181428Y-93451904D01*
X185086190Y-93404285D01*
X184990952Y-93404285D01*
X185038571Y-93642380D02*
X184943333Y-93594761D01*
X184848095Y-93499523D01*
X184800476Y-93309047D01*
X184800476Y-92975714D01*
X184848095Y-92785238D01*
X184943333Y-92690000D01*
X185038571Y-92642380D01*
X185229047Y-92642380D01*
X185324285Y-92690000D01*
X185419523Y-92785238D01*
X185467142Y-92975714D01*
X185467142Y-93309047D01*
X185419523Y-93499523D01*
X185324285Y-93594761D01*
X185229047Y-93642380D01*
X185038571Y-93642380D01*
X185800476Y-92642380D02*
X186419523Y-92642380D01*
X186086190Y-93023333D01*
X186229047Y-93023333D01*
X186324285Y-93070952D01*
X186371904Y-93118571D01*
X186419523Y-93213809D01*
X186419523Y-93451904D01*
X186371904Y-93547142D01*
X186324285Y-93594761D01*
X186229047Y-93642380D01*
X185943333Y-93642380D01*
X185848095Y-93594761D01*
X185800476Y-93547142D01*
X195636469Y-87627819D02*
X195541231Y-87580200D01*
X195445993Y-87484961D01*
X195303136Y-87342104D01*
X195207898Y-87294485D01*
X195112660Y-87294485D01*
X195160279Y-87532580D02*
X195065041Y-87484961D01*
X194969803Y-87389723D01*
X194922184Y-87199247D01*
X194922184Y-86865914D01*
X194969803Y-86675438D01*
X195065041Y-86580200D01*
X195160279Y-86532580D01*
X195350755Y-86532580D01*
X195445993Y-86580200D01*
X195541231Y-86675438D01*
X195588850Y-86865914D01*
X195588850Y-87199247D01*
X195541231Y-87389723D01*
X195445993Y-87484961D01*
X195350755Y-87532580D01*
X195160279Y-87532580D01*
X196541231Y-87532580D02*
X195969803Y-87532580D01*
X196255517Y-87532580D02*
X196255517Y-86532580D01*
X196160279Y-86675438D01*
X196065041Y-86770676D01*
X195969803Y-86818295D01*
X138429404Y-99815380D02*
X138429404Y-100624904D01*
X138477023Y-100720142D01*
X138524642Y-100767761D01*
X138619880Y-100815380D01*
X138810357Y-100815380D01*
X138905595Y-100767761D01*
X138953214Y-100720142D01*
X139000833Y-100624904D01*
X139000833Y-99815380D01*
X140000833Y-100815380D02*
X139429404Y-100815380D01*
X139715119Y-100815380D02*
X139715119Y-99815380D01*
X139619880Y-99958238D01*
X139524642Y-100053476D01*
X139429404Y-100101095D01*
X140619880Y-99815380D02*
X140715119Y-99815380D01*
X140810357Y-99863000D01*
X140857976Y-99910619D01*
X140905595Y-100005857D01*
X140953214Y-100196333D01*
X140953214Y-100434428D01*
X140905595Y-100624904D01*
X140857976Y-100720142D01*
X140810357Y-100767761D01*
X140715119Y-100815380D01*
X140619880Y-100815380D01*
X140524642Y-100767761D01*
X140477023Y-100720142D01*
X140429404Y-100624904D01*
X140381785Y-100434428D01*
X140381785Y-100196333D01*
X140429404Y-100005857D01*
X140477023Y-99910619D01*
X140524642Y-99863000D01*
X140619880Y-99815380D01*
X183971785Y-98697261D02*
X183760119Y-98394880D01*
X183608928Y-98697261D02*
X183608928Y-98062261D01*
X183850833Y-98062261D01*
X183911309Y-98092500D01*
X183941547Y-98122738D01*
X183971785Y-98183214D01*
X183971785Y-98273928D01*
X183941547Y-98334404D01*
X183911309Y-98364642D01*
X183850833Y-98394880D01*
X183608928Y-98394880D01*
X184576547Y-98697261D02*
X184213690Y-98697261D01*
X184395119Y-98697261D02*
X184395119Y-98062261D01*
X184334642Y-98152976D01*
X184274166Y-98213452D01*
X184213690Y-98243690D01*
X184878928Y-98697261D02*
X184999880Y-98697261D01*
X185060357Y-98667023D01*
X185090595Y-98636785D01*
X185151071Y-98546071D01*
X185181309Y-98425119D01*
X185181309Y-98183214D01*
X185151071Y-98122738D01*
X185120833Y-98092500D01*
X185060357Y-98062261D01*
X184939404Y-98062261D01*
X184878928Y-98092500D01*
X184848690Y-98122738D01*
X184818452Y-98183214D01*
X184818452Y-98334404D01*
X184848690Y-98394880D01*
X184878928Y-98425119D01*
X184939404Y-98455357D01*
X185060357Y-98455357D01*
X185120833Y-98425119D01*
X185151071Y-98394880D01*
X185181309Y-98334404D01*
X197933333Y-97367142D02*
X197885714Y-97414761D01*
X197742857Y-97462380D01*
X197647619Y-97462380D01*
X197504761Y-97414761D01*
X197409523Y-97319523D01*
X197361904Y-97224285D01*
X197314285Y-97033809D01*
X197314285Y-96890952D01*
X197361904Y-96700476D01*
X197409523Y-96605238D01*
X197504761Y-96510000D01*
X197647619Y-96462380D01*
X197742857Y-96462380D01*
X197885714Y-96510000D01*
X197933333Y-96557619D01*
X198409523Y-97462380D02*
X198600000Y-97462380D01*
X198695238Y-97414761D01*
X198742857Y-97367142D01*
X198838095Y-97224285D01*
X198885714Y-97033809D01*
X198885714Y-96652857D01*
X198838095Y-96557619D01*
X198790476Y-96510000D01*
X198695238Y-96462380D01*
X198504761Y-96462380D01*
X198409523Y-96510000D01*
X198361904Y-96557619D01*
X198314285Y-96652857D01*
X198314285Y-96890952D01*
X198361904Y-96986190D01*
X198409523Y-97033809D01*
X198504761Y-97081428D01*
X198695238Y-97081428D01*
X198790476Y-97033809D01*
X198838095Y-96986190D01*
X198885714Y-96890952D01*
X196243333Y-90672380D02*
X195910000Y-90196190D01*
X195671904Y-90672380D02*
X195671904Y-89672380D01*
X196052857Y-89672380D01*
X196148095Y-89720000D01*
X196195714Y-89767619D01*
X196243333Y-89862857D01*
X196243333Y-90005714D01*
X196195714Y-90100952D01*
X196148095Y-90148571D01*
X196052857Y-90196190D01*
X195671904Y-90196190D01*
X196719523Y-90672380D02*
X196910000Y-90672380D01*
X197005238Y-90624761D01*
X197052857Y-90577142D01*
X197148095Y-90434285D01*
X197195714Y-90243809D01*
X197195714Y-89862857D01*
X197148095Y-89767619D01*
X197100476Y-89720000D01*
X197005238Y-89672380D01*
X196814761Y-89672380D01*
X196719523Y-89720000D01*
X196671904Y-89767619D01*
X196624285Y-89862857D01*
X196624285Y-90100952D01*
X196671904Y-90196190D01*
X196719523Y-90243809D01*
X196814761Y-90291428D01*
X197005238Y-90291428D01*
X197100476Y-90243809D01*
X197148095Y-90196190D01*
X197195714Y-90100952D01*
X176274166Y-98687261D02*
X176062500Y-98384880D01*
X175911309Y-98687261D02*
X175911309Y-98052261D01*
X176153214Y-98052261D01*
X176213690Y-98082500D01*
X176243928Y-98112738D01*
X176274166Y-98173214D01*
X176274166Y-98263928D01*
X176243928Y-98324404D01*
X176213690Y-98354642D01*
X176153214Y-98384880D01*
X175911309Y-98384880D01*
X176637023Y-98324404D02*
X176576547Y-98294166D01*
X176546309Y-98263928D01*
X176516071Y-98203452D01*
X176516071Y-98173214D01*
X176546309Y-98112738D01*
X176576547Y-98082500D01*
X176637023Y-98052261D01*
X176757976Y-98052261D01*
X176818452Y-98082500D01*
X176848690Y-98112738D01*
X176878928Y-98173214D01*
X176878928Y-98203452D01*
X176848690Y-98263928D01*
X176818452Y-98294166D01*
X176757976Y-98324404D01*
X176637023Y-98324404D01*
X176576547Y-98354642D01*
X176546309Y-98384880D01*
X176516071Y-98445357D01*
X176516071Y-98566309D01*
X176546309Y-98626785D01*
X176576547Y-98657023D01*
X176637023Y-98687261D01*
X176757976Y-98687261D01*
X176818452Y-98657023D01*
X176848690Y-98626785D01*
X176878928Y-98566309D01*
X176878928Y-98445357D01*
X176848690Y-98384880D01*
X176818452Y-98354642D01*
X176757976Y-98324404D01*
X188783333Y-80552380D02*
X188450000Y-80076190D01*
X188211904Y-80552380D02*
X188211904Y-79552380D01*
X188592857Y-79552380D01*
X188688095Y-79600000D01*
X188735714Y-79647619D01*
X188783333Y-79742857D01*
X188783333Y-79885714D01*
X188735714Y-79980952D01*
X188688095Y-80028571D01*
X188592857Y-80076190D01*
X188211904Y-80076190D01*
X189116666Y-79552380D02*
X189735714Y-79552380D01*
X189402380Y-79933333D01*
X189545238Y-79933333D01*
X189640476Y-79980952D01*
X189688095Y-80028571D01*
X189735714Y-80123809D01*
X189735714Y-80361904D01*
X189688095Y-80457142D01*
X189640476Y-80504761D01*
X189545238Y-80552380D01*
X189259523Y-80552380D01*
X189164285Y-80504761D01*
X189116666Y-80457142D01*
X186436666Y-85951904D02*
X186170000Y-85570952D01*
X185979523Y-85951904D02*
X185979523Y-85151904D01*
X186284285Y-85151904D01*
X186360476Y-85190000D01*
X186398571Y-85228095D01*
X186436666Y-85304285D01*
X186436666Y-85418571D01*
X186398571Y-85494761D01*
X186360476Y-85532857D01*
X186284285Y-85570952D01*
X185979523Y-85570952D01*
X187122380Y-85418571D02*
X187122380Y-85951904D01*
X186931904Y-85113809D02*
X186741428Y-85685238D01*
X187236666Y-85685238D01*
X196073333Y-95952380D02*
X195740000Y-95476190D01*
X195501904Y-95952380D02*
X195501904Y-94952380D01*
X195882857Y-94952380D01*
X195978095Y-95000000D01*
X196025714Y-95047619D01*
X196073333Y-95142857D01*
X196073333Y-95285714D01*
X196025714Y-95380952D01*
X195978095Y-95428571D01*
X195882857Y-95476190D01*
X195501904Y-95476190D01*
X196406666Y-94952380D02*
X197073333Y-94952380D01*
X196644761Y-95952380D01*
X178974166Y-98697261D02*
X178762500Y-98394880D01*
X178611309Y-98697261D02*
X178611309Y-98062261D01*
X178853214Y-98062261D01*
X178913690Y-98092500D01*
X178943928Y-98122738D01*
X178974166Y-98183214D01*
X178974166Y-98273928D01*
X178943928Y-98334404D01*
X178913690Y-98364642D01*
X178853214Y-98394880D01*
X178611309Y-98394880D01*
X179518452Y-98062261D02*
X179397500Y-98062261D01*
X179337023Y-98092500D01*
X179306785Y-98122738D01*
X179246309Y-98213452D01*
X179216071Y-98334404D01*
X179216071Y-98576309D01*
X179246309Y-98636785D01*
X179276547Y-98667023D01*
X179337023Y-98697261D01*
X179457976Y-98697261D01*
X179518452Y-98667023D01*
X179548690Y-98636785D01*
X179578928Y-98576309D01*
X179578928Y-98425119D01*
X179548690Y-98364642D01*
X179518452Y-98334404D01*
X179457976Y-98304166D01*
X179337023Y-98304166D01*
X179276547Y-98334404D01*
X179246309Y-98364642D01*
X179216071Y-98425119D01*
X131533331Y-105852371D02*
X131199998Y-105376181D01*
X130961902Y-105852371D02*
X130961902Y-104852371D01*
X131342855Y-104852371D01*
X131438093Y-104899991D01*
X131485712Y-104947610D01*
X131533331Y-105042848D01*
X131533331Y-105185705D01*
X131485712Y-105280943D01*
X131438093Y-105328562D01*
X131342855Y-105376181D01*
X130961902Y-105376181D01*
X131914283Y-104947610D02*
X131961902Y-104899991D01*
X132057140Y-104852371D01*
X132295236Y-104852371D01*
X132390474Y-104899991D01*
X132438093Y-104947610D01*
X132485712Y-105042848D01*
X132485712Y-105138086D01*
X132438093Y-105280943D01*
X131866664Y-105852371D01*
X132485712Y-105852371D01*
X198323333Y-99342380D02*
X197990000Y-98866190D01*
X197751904Y-99342380D02*
X197751904Y-98342380D01*
X198132857Y-98342380D01*
X198228095Y-98390000D01*
X198275714Y-98437619D01*
X198323333Y-98532857D01*
X198323333Y-98675714D01*
X198275714Y-98770952D01*
X198228095Y-98818571D01*
X198132857Y-98866190D01*
X197751904Y-98866190D01*
X199275714Y-99342380D02*
X198704285Y-99342380D01*
X198990000Y-99342380D02*
X198990000Y-98342380D01*
X198894761Y-98485238D01*
X198799523Y-98580476D01*
X198704285Y-98628095D01*
X185495714Y-88401904D02*
X185229047Y-88020952D01*
X185038571Y-88401904D02*
X185038571Y-87601904D01*
X185343333Y-87601904D01*
X185419523Y-87640000D01*
X185457619Y-87678095D01*
X185495714Y-87754285D01*
X185495714Y-87868571D01*
X185457619Y-87944761D01*
X185419523Y-87982857D01*
X185343333Y-88020952D01*
X185038571Y-88020952D01*
X186257619Y-88401904D02*
X185800476Y-88401904D01*
X186029047Y-88401904D02*
X186029047Y-87601904D01*
X185952857Y-87716190D01*
X185876666Y-87792380D01*
X185800476Y-87830476D01*
X186943333Y-87601904D02*
X186790952Y-87601904D01*
X186714761Y-87640000D01*
X186676666Y-87678095D01*
X186600476Y-87792380D01*
X186562380Y-87944761D01*
X186562380Y-88249523D01*
X186600476Y-88325714D01*
X186638571Y-88363809D01*
X186714761Y-88401904D01*
X186867142Y-88401904D01*
X186943333Y-88363809D01*
X186981428Y-88325714D01*
X187019523Y-88249523D01*
X187019523Y-88059047D01*
X186981428Y-87982857D01*
X186943333Y-87944761D01*
X186867142Y-87906666D01*
X186714761Y-87906666D01*
X186638571Y-87944761D01*
X186600476Y-87982857D01*
X186562380Y-88059047D01*
X131105714Y-107315714D02*
X131067619Y-107353809D01*
X130953333Y-107391904D01*
X130877142Y-107391904D01*
X130762857Y-107353809D01*
X130686666Y-107277619D01*
X130648571Y-107201428D01*
X130610476Y-107049047D01*
X130610476Y-106934761D01*
X130648571Y-106782380D01*
X130686666Y-106706190D01*
X130762857Y-106630000D01*
X130877142Y-106591904D01*
X130953333Y-106591904D01*
X131067619Y-106630000D01*
X131105714Y-106668095D01*
X131867619Y-107391904D02*
X131410476Y-107391904D01*
X131639047Y-107391904D02*
X131639047Y-106591904D01*
X131562857Y-106706190D01*
X131486666Y-106782380D01*
X131410476Y-106820476D01*
X132362857Y-106591904D02*
X132439047Y-106591904D01*
X132515238Y-106630000D01*
X132553333Y-106668095D01*
X132591428Y-106744285D01*
X132629523Y-106896666D01*
X132629523Y-107087142D01*
X132591428Y-107239523D01*
X132553333Y-107315714D01*
X132515238Y-107353809D01*
X132439047Y-107391904D01*
X132362857Y-107391904D01*
X132286666Y-107353809D01*
X132248571Y-107315714D01*
X132210476Y-107239523D01*
X132172380Y-107087142D01*
X132172380Y-106896666D01*
X132210476Y-106744285D01*
X132248571Y-106668095D01*
X132286666Y-106630000D01*
X132362857Y-106591904D01*
X162545714Y-101495714D02*
X162507619Y-101533809D01*
X162393333Y-101571904D01*
X162317142Y-101571904D01*
X162202857Y-101533809D01*
X162126666Y-101457619D01*
X162088571Y-101381428D01*
X162050476Y-101229047D01*
X162050476Y-101114761D01*
X162088571Y-100962380D01*
X162126666Y-100886190D01*
X162202857Y-100810000D01*
X162317142Y-100771904D01*
X162393333Y-100771904D01*
X162507619Y-100810000D01*
X162545714Y-100848095D01*
X162850476Y-100848095D02*
X162888571Y-100810000D01*
X162964761Y-100771904D01*
X163155238Y-100771904D01*
X163231428Y-100810000D01*
X163269523Y-100848095D01*
X163307619Y-100924285D01*
X163307619Y-101000476D01*
X163269523Y-101114761D01*
X162812380Y-101571904D01*
X163307619Y-101571904D01*
X163764761Y-101114761D02*
X163688571Y-101076666D01*
X163650476Y-101038571D01*
X163612380Y-100962380D01*
X163612380Y-100924285D01*
X163650476Y-100848095D01*
X163688571Y-100810000D01*
X163764761Y-100771904D01*
X163917142Y-100771904D01*
X163993333Y-100810000D01*
X164031428Y-100848095D01*
X164069523Y-100924285D01*
X164069523Y-100962380D01*
X164031428Y-101038571D01*
X163993333Y-101076666D01*
X163917142Y-101114761D01*
X163764761Y-101114761D01*
X163688571Y-101152857D01*
X163650476Y-101190952D01*
X163612380Y-101267142D01*
X163612380Y-101419523D01*
X163650476Y-101495714D01*
X163688571Y-101533809D01*
X163764761Y-101571904D01*
X163917142Y-101571904D01*
X163993333Y-101533809D01*
X164031428Y-101495714D01*
X164069523Y-101419523D01*
X164069523Y-101267142D01*
X164031428Y-101190952D01*
X163993333Y-101152857D01*
X163917142Y-101114761D01*
X182332142Y-79452142D02*
X182301190Y-79483095D01*
X182208333Y-79514047D01*
X182146428Y-79514047D01*
X182053571Y-79483095D01*
X181991666Y-79421190D01*
X181960714Y-79359285D01*
X181929761Y-79235476D01*
X181929761Y-79142619D01*
X181960714Y-79018809D01*
X181991666Y-78956904D01*
X182053571Y-78895000D01*
X182146428Y-78864047D01*
X182208333Y-78864047D01*
X182301190Y-78895000D01*
X182332142Y-78925952D01*
X182548809Y-78864047D02*
X182951190Y-78864047D01*
X182734523Y-79111666D01*
X182827380Y-79111666D01*
X182889285Y-79142619D01*
X182920238Y-79173571D01*
X182951190Y-79235476D01*
X182951190Y-79390238D01*
X182920238Y-79452142D01*
X182889285Y-79483095D01*
X182827380Y-79514047D01*
X182641666Y-79514047D01*
X182579761Y-79483095D01*
X182548809Y-79452142D01*
X183198809Y-78925952D02*
X183229761Y-78895000D01*
X183291666Y-78864047D01*
X183446428Y-78864047D01*
X183508333Y-78895000D01*
X183539285Y-78925952D01*
X183570238Y-78987857D01*
X183570238Y-79049761D01*
X183539285Y-79142619D01*
X183167857Y-79514047D01*
X183570238Y-79514047D01*
X204006655Y-74882391D02*
X204006655Y-75596677D01*
X203959036Y-75739534D01*
X203863798Y-75834772D01*
X203720941Y-75882391D01*
X203625703Y-75882391D01*
X204435227Y-74977630D02*
X204482846Y-74930011D01*
X204578084Y-74882391D01*
X204816179Y-74882391D01*
X204911417Y-74930011D01*
X204959036Y-74977630D01*
X205006655Y-75072868D01*
X205006655Y-75168106D01*
X204959036Y-75310963D01*
X204387608Y-75882391D01*
X205006655Y-75882391D01*
X183991785Y-100767261D02*
X183780119Y-100464880D01*
X183628928Y-100767261D02*
X183628928Y-100132261D01*
X183870833Y-100132261D01*
X183931309Y-100162500D01*
X183961547Y-100192738D01*
X183991785Y-100253214D01*
X183991785Y-100343928D01*
X183961547Y-100404404D01*
X183931309Y-100434642D01*
X183870833Y-100464880D01*
X183628928Y-100464880D01*
X184233690Y-100192738D02*
X184263928Y-100162500D01*
X184324404Y-100132261D01*
X184475595Y-100132261D01*
X184536071Y-100162500D01*
X184566309Y-100192738D01*
X184596547Y-100253214D01*
X184596547Y-100313690D01*
X184566309Y-100404404D01*
X184203452Y-100767261D01*
X184596547Y-100767261D01*
X184808214Y-100132261D02*
X185201309Y-100132261D01*
X184989642Y-100374166D01*
X185080357Y-100374166D01*
X185140833Y-100404404D01*
X185171071Y-100434642D01*
X185201309Y-100495119D01*
X185201309Y-100646309D01*
X185171071Y-100706785D01*
X185140833Y-100737023D01*
X185080357Y-100767261D01*
X184898928Y-100767261D01*
X184838452Y-100737023D01*
X184808214Y-100706785D01*
X123738155Y-114762378D02*
X123738155Y-113762378D01*
X123976250Y-113762378D01*
X124119107Y-113809998D01*
X124214345Y-113905236D01*
X124261964Y-114000474D01*
X124309583Y-114190950D01*
X124309583Y-114333807D01*
X124261964Y-114524283D01*
X124214345Y-114619521D01*
X124119107Y-114714759D01*
X123976250Y-114762378D01*
X123738155Y-114762378D01*
X125261964Y-114762378D02*
X124690536Y-114762378D01*
X124976250Y-114762378D02*
X124976250Y-113762378D01*
X124881012Y-113905236D01*
X124785774Y-114000474D01*
X124690536Y-114048093D01*
X126214345Y-114762378D02*
X125642917Y-114762378D01*
X125928631Y-114762378D02*
X125928631Y-113762378D01*
X125833393Y-113905236D01*
X125738155Y-114000474D01*
X125642917Y-114048093D01*
X126595298Y-114476664D02*
X127071488Y-114476664D01*
X126500060Y-114762378D02*
X126833393Y-113762378D01*
X127166726Y-114762378D01*
X128023869Y-114762378D02*
X127452441Y-114762378D01*
X127738155Y-114762378D02*
X127738155Y-113762378D01*
X127642917Y-113905236D01*
X127547679Y-114000474D01*
X127452441Y-114048093D01*
X133214353Y-90262390D02*
X133214353Y-89262390D01*
X133452449Y-89262390D01*
X133595306Y-89310010D01*
X133690544Y-89405248D01*
X133738163Y-89500486D01*
X133785782Y-89690962D01*
X133785782Y-89833819D01*
X133738163Y-90024295D01*
X133690544Y-90119533D01*
X133595306Y-90214771D01*
X133452449Y-90262390D01*
X133214353Y-90262390D01*
X134166734Y-89357629D02*
X134214353Y-89310010D01*
X134309591Y-89262390D01*
X134547687Y-89262390D01*
X134642925Y-89310010D01*
X134690544Y-89357629D01*
X134738163Y-89452867D01*
X134738163Y-89548105D01*
X134690544Y-89690962D01*
X134119115Y-90262390D01*
X134738163Y-90262390D01*
X135119115Y-89976676D02*
X135595306Y-89976676D01*
X135023877Y-90262390D02*
X135357211Y-89262390D01*
X135690544Y-90262390D01*
X136547687Y-90262390D02*
X135976258Y-90262390D01*
X136261972Y-90262390D02*
X136261972Y-89262390D01*
X136166734Y-89405248D01*
X136071496Y-89500486D01*
X135976258Y-89548105D01*
X97518167Y-114762378D02*
X97518167Y-113762378D01*
X97756262Y-113762378D01*
X97899119Y-113809998D01*
X97994357Y-113905236D01*
X98041976Y-114000474D01*
X98089595Y-114190950D01*
X98089595Y-114333807D01*
X98041976Y-114524283D01*
X97994357Y-114619521D01*
X97899119Y-114714759D01*
X97756262Y-114762378D01*
X97518167Y-114762378D01*
X99041976Y-114762378D02*
X98470548Y-114762378D01*
X98756262Y-114762378D02*
X98756262Y-113762378D01*
X98661024Y-113905236D01*
X98565786Y-114000474D01*
X98470548Y-114048093D01*
X99899119Y-114095712D02*
X99899119Y-114762378D01*
X99661024Y-113714759D02*
X99422929Y-114429045D01*
X100041976Y-114429045D01*
X100375310Y-114476664D02*
X100851500Y-114476664D01*
X100280072Y-114762378D02*
X100613405Y-113762378D01*
X100946738Y-114762378D01*
X101803881Y-114762378D02*
X101232453Y-114762378D01*
X101518167Y-114762378D02*
X101518167Y-113762378D01*
X101422929Y-113905236D01*
X101327691Y-114000474D01*
X101232453Y-114048093D01*
X97994357Y-90262390D02*
X97994357Y-89262390D01*
X98232453Y-89262390D01*
X98375310Y-89310010D01*
X98470548Y-89405248D01*
X98518167Y-89500486D01*
X98565786Y-89690962D01*
X98565786Y-89833819D01*
X98518167Y-90024295D01*
X98470548Y-90119533D01*
X98375310Y-90214771D01*
X98232453Y-90262390D01*
X97994357Y-90262390D01*
X99422929Y-89262390D02*
X99232453Y-89262390D01*
X99137215Y-89310010D01*
X99089595Y-89357629D01*
X98994357Y-89500486D01*
X98946738Y-89690962D01*
X98946738Y-90071914D01*
X98994357Y-90167152D01*
X99041976Y-90214771D01*
X99137215Y-90262390D01*
X99327691Y-90262390D01*
X99422929Y-90214771D01*
X99470548Y-90167152D01*
X99518167Y-90071914D01*
X99518167Y-89833819D01*
X99470548Y-89738581D01*
X99422929Y-89690962D01*
X99327691Y-89643343D01*
X99137215Y-89643343D01*
X99041976Y-89690962D01*
X98994357Y-89738581D01*
X98946738Y-89833819D01*
X99899119Y-89976676D02*
X100375310Y-89976676D01*
X99803881Y-90262390D02*
X100137215Y-89262390D01*
X100470548Y-90262390D01*
X101327691Y-90262390D02*
X100756262Y-90262390D01*
X101041976Y-90262390D02*
X101041976Y-89262390D01*
X100946738Y-89405248D01*
X100851500Y-89500486D01*
X100756262Y-89548105D01*
X178631785Y-100847261D02*
X178420119Y-100544880D01*
X178268928Y-100847261D02*
X178268928Y-100212261D01*
X178510833Y-100212261D01*
X178571309Y-100242500D01*
X178601547Y-100272738D01*
X178631785Y-100333214D01*
X178631785Y-100423928D01*
X178601547Y-100484404D01*
X178571309Y-100514642D01*
X178510833Y-100544880D01*
X178268928Y-100544880D01*
X178873690Y-100272738D02*
X178903928Y-100242500D01*
X178964404Y-100212261D01*
X179115595Y-100212261D01*
X179176071Y-100242500D01*
X179206309Y-100272738D01*
X179236547Y-100333214D01*
X179236547Y-100393690D01*
X179206309Y-100484404D01*
X178843452Y-100847261D01*
X179236547Y-100847261D01*
X179478452Y-100272738D02*
X179508690Y-100242500D01*
X179569166Y-100212261D01*
X179720357Y-100212261D01*
X179780833Y-100242500D01*
X179811071Y-100272738D01*
X179841309Y-100333214D01*
X179841309Y-100393690D01*
X179811071Y-100484404D01*
X179448214Y-100847261D01*
X179841309Y-100847261D01*
X193774956Y-74872162D02*
X193774956Y-75586448D01*
X193727337Y-75729305D01*
X193632099Y-75824543D01*
X193489242Y-75872162D01*
X193394004Y-75872162D01*
X194774956Y-75872162D02*
X194203528Y-75872162D01*
X194489242Y-75872162D02*
X194489242Y-74872162D01*
X194394004Y-75015020D01*
X194298766Y-75110258D01*
X194203528Y-75157877D01*
X88683333Y-98787142D02*
X88635714Y-98834761D01*
X88492857Y-98882380D01*
X88397619Y-98882380D01*
X88254761Y-98834761D01*
X88159523Y-98739523D01*
X88111904Y-98644285D01*
X88064285Y-98453809D01*
X88064285Y-98310952D01*
X88111904Y-98120476D01*
X88159523Y-98025238D01*
X88254761Y-97930000D01*
X88397619Y-97882380D01*
X88492857Y-97882380D01*
X88635714Y-97930000D01*
X88683333Y-97977619D01*
X89064285Y-97977619D02*
X89111904Y-97930000D01*
X89207142Y-97882380D01*
X89445238Y-97882380D01*
X89540476Y-97930000D01*
X89588095Y-97977619D01*
X89635714Y-98072857D01*
X89635714Y-98168095D01*
X89588095Y-98310952D01*
X89016666Y-98882380D01*
X89635714Y-98882380D01*
X100008095Y-101507380D02*
X100008095Y-102316904D01*
X100055714Y-102412142D01*
X100103333Y-102459761D01*
X100198571Y-102507380D01*
X100389047Y-102507380D01*
X100484285Y-102459761D01*
X100531904Y-102412142D01*
X100579523Y-102316904D01*
X100579523Y-101507380D01*
X101579523Y-102507380D02*
X101008095Y-102507380D01*
X101293809Y-102507380D02*
X101293809Y-101507380D01*
X101198571Y-101650238D01*
X101103333Y-101745476D01*
X101008095Y-101793095D01*
X162205714Y-128262380D02*
X162205714Y-128976666D01*
X162158095Y-129119523D01*
X162062857Y-129214761D01*
X161920000Y-129262380D01*
X161824761Y-129262380D01*
X163158095Y-129262380D02*
X162681904Y-129262380D01*
X162681904Y-128262380D01*
X163443809Y-129214761D02*
X163586666Y-129262380D01*
X163824761Y-129262380D01*
X163920000Y-129214761D01*
X163967619Y-129167142D01*
X164015238Y-129071904D01*
X164015238Y-128976666D01*
X163967619Y-128881428D01*
X163920000Y-128833809D01*
X163824761Y-128786190D01*
X163634285Y-128738571D01*
X163539047Y-128690952D01*
X163491428Y-128643333D01*
X163443809Y-128548095D01*
X163443809Y-128452857D01*
X163491428Y-128357619D01*
X163539047Y-128310000D01*
X163634285Y-128262380D01*
X163872380Y-128262380D01*
X164015238Y-128310000D01*
X164967619Y-129262380D02*
X164396190Y-129262380D01*
X164681904Y-129262380D02*
X164681904Y-128262380D01*
X164586666Y-128405238D01*
X164491428Y-128500476D01*
X164396190Y-128548095D01*
X79518152Y-114762378D02*
X79518152Y-113762378D01*
X79756247Y-113762378D01*
X79899104Y-113809998D01*
X79994342Y-113905236D01*
X80041961Y-114000474D01*
X80089580Y-114190950D01*
X80089580Y-114333807D01*
X80041961Y-114524283D01*
X79994342Y-114619521D01*
X79899104Y-114714759D01*
X79756247Y-114762378D01*
X79518152Y-114762378D01*
X81041961Y-114762378D02*
X80470533Y-114762378D01*
X80756247Y-114762378D02*
X80756247Y-113762378D01*
X80661009Y-113905236D01*
X80565771Y-114000474D01*
X80470533Y-114048093D01*
X81899104Y-113762378D02*
X81708628Y-113762378D01*
X81613390Y-113809998D01*
X81565771Y-113857617D01*
X81470533Y-114000474D01*
X81422914Y-114190950D01*
X81422914Y-114571902D01*
X81470533Y-114667140D01*
X81518152Y-114714759D01*
X81613390Y-114762378D01*
X81803866Y-114762378D01*
X81899104Y-114714759D01*
X81946723Y-114667140D01*
X81994342Y-114571902D01*
X81994342Y-114333807D01*
X81946723Y-114238569D01*
X81899104Y-114190950D01*
X81803866Y-114143331D01*
X81613390Y-114143331D01*
X81518152Y-114190950D01*
X81470533Y-114238569D01*
X81422914Y-114333807D01*
X82375295Y-114476664D02*
X82851485Y-114476664D01*
X82280057Y-114762378D02*
X82613390Y-113762378D01*
X82946723Y-114762378D01*
X83803866Y-114762378D02*
X83232438Y-114762378D01*
X83518152Y-114762378D02*
X83518152Y-113762378D01*
X83422914Y-113905236D01*
X83327676Y-114000474D01*
X83232438Y-114048093D01*
X115450961Y-114762378D02*
X115450961Y-113762378D01*
X115689056Y-113762378D01*
X115831913Y-113809998D01*
X115927151Y-113905236D01*
X115974770Y-114000474D01*
X116022389Y-114190950D01*
X116022389Y-114333807D01*
X115974770Y-114524283D01*
X115927151Y-114619521D01*
X115831913Y-114714759D01*
X115689056Y-114762378D01*
X115450961Y-114762378D01*
X116974770Y-114762378D02*
X116403342Y-114762378D01*
X116689056Y-114762378D02*
X116689056Y-113762378D01*
X116593818Y-113905236D01*
X116498580Y-114000474D01*
X116403342Y-114048093D01*
X117355723Y-113857617D02*
X117403342Y-113809998D01*
X117498580Y-113762378D01*
X117736675Y-113762378D01*
X117831913Y-113809998D01*
X117879532Y-113857617D01*
X117927151Y-113952855D01*
X117927151Y-114048093D01*
X117879532Y-114190950D01*
X117308104Y-114762378D01*
X117927151Y-114762378D01*
X118308104Y-114476664D02*
X118784294Y-114476664D01*
X118212866Y-114762378D02*
X118546199Y-113762378D01*
X118879532Y-114762378D01*
X119736675Y-114762378D02*
X119165247Y-114762378D01*
X119450961Y-114762378D02*
X119450961Y-113762378D01*
X119355723Y-113905236D01*
X119260485Y-114000474D01*
X119165247Y-114048093D01*
X105550962Y-114762378D02*
X105550962Y-113762378D01*
X105789057Y-113762378D01*
X105931914Y-113809998D01*
X106027152Y-113905236D01*
X106074771Y-114000474D01*
X106122390Y-114190950D01*
X106122390Y-114333807D01*
X106074771Y-114524283D01*
X106027152Y-114619521D01*
X105931914Y-114714759D01*
X105789057Y-114762378D01*
X105550962Y-114762378D01*
X107074771Y-114762378D02*
X106503343Y-114762378D01*
X106789057Y-114762378D02*
X106789057Y-113762378D01*
X106693819Y-113905236D01*
X106598581Y-114000474D01*
X106503343Y-114048093D01*
X107408105Y-113762378D02*
X108027152Y-113762378D01*
X107693819Y-114143331D01*
X107836676Y-114143331D01*
X107931914Y-114190950D01*
X107979533Y-114238569D01*
X108027152Y-114333807D01*
X108027152Y-114571902D01*
X107979533Y-114667140D01*
X107931914Y-114714759D01*
X107836676Y-114762378D01*
X107550962Y-114762378D01*
X107455724Y-114714759D01*
X107408105Y-114667140D01*
X108408105Y-114476664D02*
X108884295Y-114476664D01*
X108312867Y-114762378D02*
X108646200Y-113762378D01*
X108979533Y-114762378D01*
X109836676Y-114762378D02*
X109265248Y-114762378D01*
X109550962Y-114762378D02*
X109550962Y-113762378D01*
X109455724Y-113905236D01*
X109360486Y-114000474D01*
X109265248Y-114048093D01*
X93937261Y-100478214D02*
X93634880Y-100689880D01*
X93937261Y-100841071D02*
X93302261Y-100841071D01*
X93302261Y-100599166D01*
X93332500Y-100538690D01*
X93362738Y-100508452D01*
X93423214Y-100478214D01*
X93513928Y-100478214D01*
X93574404Y-100508452D01*
X93604642Y-100538690D01*
X93634880Y-100599166D01*
X93634880Y-100841071D01*
X93937261Y-99873452D02*
X93937261Y-100236309D01*
X93937261Y-100054880D02*
X93302261Y-100054880D01*
X93392976Y-100115357D01*
X93453452Y-100175833D01*
X93483690Y-100236309D01*
X93937261Y-99268690D02*
X93937261Y-99631547D01*
X93937261Y-99450119D02*
X93302261Y-99450119D01*
X93392976Y-99510595D01*
X93453452Y-99571071D01*
X93483690Y-99631547D01*
X93907261Y-97418214D02*
X93604880Y-97629880D01*
X93907261Y-97781071D02*
X93272261Y-97781071D01*
X93272261Y-97539166D01*
X93302500Y-97478690D01*
X93332738Y-97448452D01*
X93393214Y-97418214D01*
X93483928Y-97418214D01*
X93544404Y-97448452D01*
X93574642Y-97478690D01*
X93604880Y-97539166D01*
X93604880Y-97781071D01*
X93907261Y-96813452D02*
X93907261Y-97176309D01*
X93907261Y-96994880D02*
X93272261Y-96994880D01*
X93362976Y-97055357D01*
X93423452Y-97115833D01*
X93453690Y-97176309D01*
X93483928Y-96269166D02*
X93907261Y-96269166D01*
X93242023Y-96420357D02*
X93695595Y-96571547D01*
X93695595Y-96178452D01*
X115927151Y-90262390D02*
X115927151Y-89262390D01*
X116165247Y-89262390D01*
X116308104Y-89310010D01*
X116403342Y-89405248D01*
X116450961Y-89500486D01*
X116498580Y-89690962D01*
X116498580Y-89833819D01*
X116450961Y-90024295D01*
X116403342Y-90119533D01*
X116308104Y-90214771D01*
X116165247Y-90262390D01*
X115927151Y-90262390D01*
X117355723Y-89595724D02*
X117355723Y-90262390D01*
X117117628Y-89214771D02*
X116879532Y-89929057D01*
X117498580Y-89929057D01*
X117831913Y-89976676D02*
X118308104Y-89976676D01*
X117736675Y-90262390D02*
X118070009Y-89262390D01*
X118403342Y-90262390D01*
X119260485Y-90262390D02*
X118689056Y-90262390D01*
X118974770Y-90262390D02*
X118974770Y-89262390D01*
X118879532Y-89405248D01*
X118784294Y-89500486D01*
X118689056Y-89548105D01*
X106027152Y-90262390D02*
X106027152Y-89262390D01*
X106265248Y-89262390D01*
X106408105Y-89310010D01*
X106503343Y-89405248D01*
X106550962Y-89500486D01*
X106598581Y-89690962D01*
X106598581Y-89833819D01*
X106550962Y-90024295D01*
X106503343Y-90119533D01*
X106408105Y-90214771D01*
X106265248Y-90262390D01*
X106027152Y-90262390D01*
X107503343Y-89262390D02*
X107027152Y-89262390D01*
X106979533Y-89738581D01*
X107027152Y-89690962D01*
X107122390Y-89643343D01*
X107360486Y-89643343D01*
X107455724Y-89690962D01*
X107503343Y-89738581D01*
X107550962Y-89833819D01*
X107550962Y-90071914D01*
X107503343Y-90167152D01*
X107455724Y-90214771D01*
X107360486Y-90262390D01*
X107122390Y-90262390D01*
X107027152Y-90214771D01*
X106979533Y-90167152D01*
X107931914Y-89976676D02*
X108408105Y-89976676D01*
X107836676Y-90262390D02*
X108170010Y-89262390D01*
X108503343Y-90262390D01*
X109360486Y-90262390D02*
X108789057Y-90262390D01*
X109074771Y-90262390D02*
X109074771Y-89262390D01*
X108979533Y-89405248D01*
X108884295Y-89500486D01*
X108789057Y-89548105D01*
X197687142Y-89287142D02*
X197639523Y-89334761D01*
X197496666Y-89382380D01*
X197401428Y-89382380D01*
X197258571Y-89334761D01*
X197163333Y-89239523D01*
X197115714Y-89144285D01*
X197068095Y-88953809D01*
X197068095Y-88810952D01*
X197115714Y-88620476D01*
X197163333Y-88525238D01*
X197258571Y-88430000D01*
X197401428Y-88382380D01*
X197496666Y-88382380D01*
X197639523Y-88430000D01*
X197687142Y-88477619D01*
X198639523Y-89382380D02*
X198068095Y-89382380D01*
X198353809Y-89382380D02*
X198353809Y-88382380D01*
X198258571Y-88525238D01*
X198163333Y-88620476D01*
X198068095Y-88668095D01*
X198972857Y-88382380D02*
X199639523Y-88382380D01*
X199210952Y-89382380D01*
X187778095Y-108462380D02*
X187778095Y-109271904D01*
X187825714Y-109367142D01*
X187873333Y-109414761D01*
X187968571Y-109462380D01*
X188159047Y-109462380D01*
X188254285Y-109414761D01*
X188301904Y-109367142D01*
X188349523Y-109271904D01*
X188349523Y-108462380D01*
X189301904Y-108462380D02*
X188825714Y-108462380D01*
X188778095Y-108938571D01*
X188825714Y-108890952D01*
X188920952Y-108843333D01*
X189159047Y-108843333D01*
X189254285Y-108890952D01*
X189301904Y-108938571D01*
X189349523Y-109033809D01*
X189349523Y-109271904D01*
X189301904Y-109367142D01*
X189254285Y-109414761D01*
X189159047Y-109462380D01*
X188920952Y-109462380D01*
X188825714Y-109414761D01*
X188778095Y-109367142D01*
X202536666Y-126982380D02*
X202536666Y-127696666D01*
X202489047Y-127839523D01*
X202393809Y-127934761D01*
X202250952Y-127982380D01*
X202155714Y-127982380D01*
X202917619Y-126982380D02*
X203536666Y-126982380D01*
X203203333Y-127363333D01*
X203346190Y-127363333D01*
X203441428Y-127410952D01*
X203489047Y-127458571D01*
X203536666Y-127553809D01*
X203536666Y-127791904D01*
X203489047Y-127887142D01*
X203441428Y-127934761D01*
X203346190Y-127982380D01*
X203060476Y-127982380D01*
X202965238Y-127934761D01*
X202917619Y-127887142D01*
D13*
X181319785Y-98697261D02*
X181108119Y-98394880D01*
X180956928Y-98697261D02*
X180956928Y-98062261D01*
X181198833Y-98062261D01*
X181259309Y-98092500D01*
X181289547Y-98122738D01*
X181319785Y-98183214D01*
X181319785Y-98273928D01*
X181289547Y-98334404D01*
X181259309Y-98364642D01*
X181198833Y-98394880D01*
X180956928Y-98394880D01*
X181561690Y-98122738D02*
X181591928Y-98092500D01*
X181652404Y-98062261D01*
X181803595Y-98062261D01*
X181864071Y-98092500D01*
X181894309Y-98122738D01*
X181924547Y-98183214D01*
X181924547Y-98243690D01*
X181894309Y-98334404D01*
X181531452Y-98697261D01*
X181924547Y-98697261D01*
X182317642Y-98062261D02*
X182378119Y-98062261D01*
X182438595Y-98092500D01*
X182468833Y-98122738D01*
X182499071Y-98183214D01*
X182529309Y-98304166D01*
X182529309Y-98455357D01*
X182499071Y-98576309D01*
X182468833Y-98636785D01*
X182438595Y-98667023D01*
X182378119Y-98697261D01*
X182317642Y-98697261D01*
X182257166Y-98667023D01*
X182226928Y-98636785D01*
X182196690Y-98576309D01*
X182166452Y-98455357D01*
X182166452Y-98304166D01*
X182196690Y-98183214D01*
X182226928Y-98122738D01*
X182257166Y-98092500D01*
X182317642Y-98062261D01*
D12*
X88518160Y-114762378D02*
X88518160Y-113762378D01*
X88756255Y-113762378D01*
X88899112Y-113809998D01*
X88994350Y-113905236D01*
X89041969Y-114000474D01*
X89089588Y-114190950D01*
X89089588Y-114333807D01*
X89041969Y-114524283D01*
X88994350Y-114619521D01*
X88899112Y-114714759D01*
X88756255Y-114762378D01*
X88518160Y-114762378D01*
X90041969Y-114762378D02*
X89470541Y-114762378D01*
X89756255Y-114762378D02*
X89756255Y-113762378D01*
X89661017Y-113905236D01*
X89565779Y-114000474D01*
X89470541Y-114048093D01*
X90946731Y-113762378D02*
X90470541Y-113762378D01*
X90422922Y-114238569D01*
X90470541Y-114190950D01*
X90565779Y-114143331D01*
X90803874Y-114143331D01*
X90899112Y-114190950D01*
X90946731Y-114238569D01*
X90994350Y-114333807D01*
X90994350Y-114571902D01*
X90946731Y-114667140D01*
X90899112Y-114714759D01*
X90803874Y-114762378D01*
X90565779Y-114762378D01*
X90470541Y-114714759D01*
X90422922Y-114667140D01*
X91375303Y-114476664D02*
X91851493Y-114476664D01*
X91280065Y-114762378D02*
X91613398Y-113762378D01*
X91946731Y-114762378D01*
X92803874Y-114762378D02*
X92232446Y-114762378D01*
X92518160Y-114762378D02*
X92518160Y-113762378D01*
X92422922Y-113905236D01*
X92327684Y-114000474D01*
X92232446Y-114048093D01*
X124214345Y-90262390D02*
X124214345Y-89262390D01*
X124452441Y-89262390D01*
X124595298Y-89310010D01*
X124690536Y-89405248D01*
X124738155Y-89500486D01*
X124785774Y-89690962D01*
X124785774Y-89833819D01*
X124738155Y-90024295D01*
X124690536Y-90119533D01*
X124595298Y-90214771D01*
X124452441Y-90262390D01*
X124214345Y-90262390D01*
X125119107Y-89262390D02*
X125738155Y-89262390D01*
X125404822Y-89643343D01*
X125547679Y-89643343D01*
X125642917Y-89690962D01*
X125690536Y-89738581D01*
X125738155Y-89833819D01*
X125738155Y-90071914D01*
X125690536Y-90167152D01*
X125642917Y-90214771D01*
X125547679Y-90262390D01*
X125261964Y-90262390D01*
X125166726Y-90214771D01*
X125119107Y-90167152D01*
X126119107Y-89976676D02*
X126595298Y-89976676D01*
X126023869Y-90262390D02*
X126357203Y-89262390D01*
X126690536Y-90262390D01*
X127547679Y-90262390D02*
X126976250Y-90262390D01*
X127261964Y-90262390D02*
X127261964Y-89262390D01*
X127166726Y-89405248D01*
X127071488Y-89500486D01*
X126976250Y-89548105D01*
X162238095Y-74632380D02*
X162238095Y-75346666D01*
X162190476Y-75489523D01*
X162095238Y-75584761D01*
X161952380Y-75632380D01*
X161857142Y-75632380D01*
X163190476Y-75632380D02*
X162714285Y-75632380D01*
X162714285Y-74632380D01*
X163523809Y-75632380D02*
X163523809Y-74632380D01*
X164095238Y-75632380D01*
X164095238Y-74632380D01*
X165095238Y-75632380D02*
X164523809Y-75632380D01*
X164809523Y-75632380D02*
X164809523Y-74632380D01*
X164714285Y-74775238D01*
X164619047Y-74870476D01*
X164523809Y-74918095D01*
X95194166Y-101276785D02*
X95163928Y-101307023D01*
X95073214Y-101337261D01*
X95012738Y-101337261D01*
X94922023Y-101307023D01*
X94861547Y-101246547D01*
X94831309Y-101186071D01*
X94801071Y-101065119D01*
X94801071Y-100974404D01*
X94831309Y-100853452D01*
X94861547Y-100792976D01*
X94922023Y-100732500D01*
X95012738Y-100702261D01*
X95073214Y-100702261D01*
X95163928Y-100732500D01*
X95194166Y-100762738D01*
X95798928Y-101337261D02*
X95436071Y-101337261D01*
X95617500Y-101337261D02*
X95617500Y-100702261D01*
X95557023Y-100792976D01*
X95496547Y-100853452D01*
X95436071Y-100883690D01*
X90827261Y-98718214D02*
X90524880Y-98929880D01*
X90827261Y-99081071D02*
X90192261Y-99081071D01*
X90192261Y-98839166D01*
X90222500Y-98778690D01*
X90252738Y-98748452D01*
X90313214Y-98718214D01*
X90403928Y-98718214D01*
X90464404Y-98748452D01*
X90494642Y-98778690D01*
X90524880Y-98839166D01*
X90524880Y-99081071D01*
X90827261Y-98113452D02*
X90827261Y-98476309D01*
X90827261Y-98294880D02*
X90192261Y-98294880D01*
X90282976Y-98355357D01*
X90343452Y-98415833D01*
X90373690Y-98476309D01*
X90192261Y-97538928D02*
X90192261Y-97841309D01*
X90494642Y-97871547D01*
X90464404Y-97841309D01*
X90434166Y-97780833D01*
X90434166Y-97629642D01*
X90464404Y-97569166D01*
X90494642Y-97538928D01*
X90555119Y-97508690D01*
X90706309Y-97508690D01*
X90766785Y-97538928D01*
X90797023Y-97569166D01*
X90827261Y-97629642D01*
X90827261Y-97780833D01*
X90797023Y-97841309D01*
X90766785Y-97871547D01*
X142214360Y-114762378D02*
X142214360Y-113762378D01*
X142452456Y-113762378D01*
X142595313Y-113809998D01*
X142690551Y-113905236D01*
X142738170Y-114000474D01*
X142785789Y-114190950D01*
X142785789Y-114333807D01*
X142738170Y-114524283D01*
X142690551Y-114619521D01*
X142595313Y-114714759D01*
X142452456Y-114762378D01*
X142214360Y-114762378D01*
X143261979Y-114762378D02*
X143452456Y-114762378D01*
X143547694Y-114714759D01*
X143595313Y-114667140D01*
X143690551Y-114524283D01*
X143738170Y-114333807D01*
X143738170Y-113952855D01*
X143690551Y-113857617D01*
X143642932Y-113809998D01*
X143547694Y-113762378D01*
X143357218Y-113762378D01*
X143261979Y-113809998D01*
X143214360Y-113857617D01*
X143166741Y-113952855D01*
X143166741Y-114190950D01*
X143214360Y-114286188D01*
X143261979Y-114333807D01*
X143357218Y-114381426D01*
X143547694Y-114381426D01*
X143642932Y-114333807D01*
X143690551Y-114286188D01*
X143738170Y-114190950D01*
X144119122Y-114476664D02*
X144595313Y-114476664D01*
X144023884Y-114762378D02*
X144357218Y-113762378D01*
X144690551Y-114762378D01*
X145547694Y-114762378D02*
X144976265Y-114762378D01*
X145261979Y-114762378D02*
X145261979Y-113762378D01*
X145166741Y-113905236D01*
X145071503Y-114000474D01*
X144976265Y-114048093D01*
X175981785Y-100787261D02*
X175770119Y-100484880D01*
X175618928Y-100787261D02*
X175618928Y-100152261D01*
X175860833Y-100152261D01*
X175921309Y-100182500D01*
X175951547Y-100212738D01*
X175981785Y-100273214D01*
X175981785Y-100363928D01*
X175951547Y-100424404D01*
X175921309Y-100454642D01*
X175860833Y-100484880D01*
X175618928Y-100484880D01*
X176223690Y-100212738D02*
X176253928Y-100182500D01*
X176314404Y-100152261D01*
X176465595Y-100152261D01*
X176526071Y-100182500D01*
X176556309Y-100212738D01*
X176586547Y-100273214D01*
X176586547Y-100333690D01*
X176556309Y-100424404D01*
X176193452Y-100787261D01*
X176586547Y-100787261D01*
X177191309Y-100787261D02*
X176828452Y-100787261D01*
X177009880Y-100787261D02*
X177009880Y-100152261D01*
X176949404Y-100242976D01*
X176888928Y-100303452D01*
X176828452Y-100333690D01*
X177502380Y-83721904D02*
X178311904Y-83721904D01*
X178407142Y-83674285D01*
X178454761Y-83626666D01*
X178502380Y-83531428D01*
X178502380Y-83340952D01*
X178454761Y-83245714D01*
X178407142Y-83198095D01*
X178311904Y-83150476D01*
X177502380Y-83150476D01*
X177502380Y-82245714D02*
X177502380Y-82436190D01*
X177550000Y-82531428D01*
X177597619Y-82579047D01*
X177740476Y-82674285D01*
X177930952Y-82721904D01*
X178311904Y-82721904D01*
X178407142Y-82674285D01*
X178454761Y-82626666D01*
X178502380Y-82531428D01*
X178502380Y-82340952D01*
X178454761Y-82245714D01*
X178407142Y-82198095D01*
X178311904Y-82150476D01*
X178073809Y-82150476D01*
X177978571Y-82198095D01*
X177930952Y-82245714D01*
X177883333Y-82340952D01*
X177883333Y-82531428D01*
X177930952Y-82626666D01*
X177978571Y-82674285D01*
X178073809Y-82721904D01*
X114268084Y-101452379D02*
X114268084Y-102261903D01*
X114315703Y-102357141D01*
X114363322Y-102404760D01*
X114458560Y-102452379D01*
X114649036Y-102452379D01*
X114744274Y-102404760D01*
X114791893Y-102357141D01*
X114839512Y-102261903D01*
X114839512Y-101452379D01*
X115268084Y-101547618D02*
X115315703Y-101499999D01*
X115410941Y-101452379D01*
X115649036Y-101452379D01*
X115744274Y-101499999D01*
X115791893Y-101547618D01*
X115839512Y-101642856D01*
X115839512Y-101738094D01*
X115791893Y-101880951D01*
X115220465Y-102452379D01*
X115839512Y-102452379D01*
X90797261Y-101258214D02*
X90494880Y-101469880D01*
X90797261Y-101621071D02*
X90162261Y-101621071D01*
X90162261Y-101379166D01*
X90192500Y-101318690D01*
X90222738Y-101288452D01*
X90283214Y-101258214D01*
X90373928Y-101258214D01*
X90434404Y-101288452D01*
X90464642Y-101318690D01*
X90494880Y-101379166D01*
X90494880Y-101621071D01*
X90797261Y-100653452D02*
X90797261Y-101016309D01*
X90797261Y-100834880D02*
X90162261Y-100834880D01*
X90252976Y-100895357D01*
X90313452Y-100955833D01*
X90343690Y-101016309D01*
X90162261Y-100260357D02*
X90162261Y-100199880D01*
X90192500Y-100139404D01*
X90222738Y-100109166D01*
X90283214Y-100078928D01*
X90404166Y-100048690D01*
X90555357Y-100048690D01*
X90676309Y-100078928D01*
X90736785Y-100109166D01*
X90767023Y-100139404D01*
X90797261Y-100199880D01*
X90797261Y-100260357D01*
X90767023Y-100320833D01*
X90736785Y-100351071D01*
X90676309Y-100381309D01*
X90555357Y-100411547D01*
X90404166Y-100411547D01*
X90283214Y-100381309D01*
X90222738Y-100351071D01*
X90192500Y-100320833D01*
X90162261Y-100260357D01*
X167388095Y-100752380D02*
X167388095Y-101561904D01*
X167435714Y-101657142D01*
X167483333Y-101704761D01*
X167578571Y-101752380D01*
X167769047Y-101752380D01*
X167864285Y-101704761D01*
X167911904Y-101657142D01*
X167959523Y-101561904D01*
X167959523Y-100752380D01*
X168340476Y-100752380D02*
X168959523Y-100752380D01*
X168626190Y-101133333D01*
X168769047Y-101133333D01*
X168864285Y-101180952D01*
X168911904Y-101228571D01*
X168959523Y-101323809D01*
X168959523Y-101561904D01*
X168911904Y-101657142D01*
X168864285Y-101704761D01*
X168769047Y-101752380D01*
X168483333Y-101752380D01*
X168388095Y-101704761D01*
X168340476Y-101657142D01*
X90844166Y-106487261D02*
X90632500Y-106184880D01*
X90481309Y-106487261D02*
X90481309Y-105852261D01*
X90723214Y-105852261D01*
X90783690Y-105882500D01*
X90813928Y-105912738D01*
X90844166Y-105973214D01*
X90844166Y-106063928D01*
X90813928Y-106124404D01*
X90783690Y-106154642D01*
X90723214Y-106184880D01*
X90481309Y-106184880D01*
X91418690Y-105852261D02*
X91116309Y-105852261D01*
X91086071Y-106154642D01*
X91116309Y-106124404D01*
X91176785Y-106094166D01*
X91327976Y-106094166D01*
X91388452Y-106124404D01*
X91418690Y-106154642D01*
X91448928Y-106215119D01*
X91448928Y-106366309D01*
X91418690Y-106426785D01*
X91388452Y-106457023D01*
X91327976Y-106487261D01*
X91176785Y-106487261D01*
X91116309Y-106457023D01*
X91086071Y-106426785D01*
X88994350Y-90262390D02*
X88994350Y-89262390D01*
X89232446Y-89262390D01*
X89375303Y-89310010D01*
X89470541Y-89405248D01*
X89518160Y-89500486D01*
X89565779Y-89690962D01*
X89565779Y-89833819D01*
X89518160Y-90024295D01*
X89470541Y-90119533D01*
X89375303Y-90214771D01*
X89232446Y-90262390D01*
X88994350Y-90262390D01*
X89899112Y-89262390D02*
X90565779Y-89262390D01*
X90137208Y-90262390D01*
X90899112Y-89976676D02*
X91375303Y-89976676D01*
X90803874Y-90262390D02*
X91137208Y-89262390D01*
X91470541Y-90262390D01*
X92327684Y-90262390D02*
X91756255Y-90262390D01*
X92041969Y-90262390D02*
X92041969Y-89262390D01*
X91946731Y-89405248D01*
X91851493Y-89500486D01*
X91756255Y-89548105D01*
X142214360Y-90262390D02*
X142214360Y-89262390D01*
X142452456Y-89262390D01*
X142595313Y-89310010D01*
X142690551Y-89405248D01*
X142738170Y-89500486D01*
X142785789Y-89690962D01*
X142785789Y-89833819D01*
X142738170Y-90024295D01*
X142690551Y-90119533D01*
X142595313Y-90214771D01*
X142452456Y-90262390D01*
X142214360Y-90262390D01*
X143738170Y-90262390D02*
X143166741Y-90262390D01*
X143452456Y-90262390D02*
X143452456Y-89262390D01*
X143357218Y-89405248D01*
X143261979Y-89500486D01*
X143166741Y-89548105D01*
X144119122Y-89976676D02*
X144595313Y-89976676D01*
X144023884Y-90262390D02*
X144357218Y-89262390D01*
X144690551Y-90262390D01*
X145547694Y-90262390D02*
X144976265Y-90262390D01*
X145261979Y-90262390D02*
X145261979Y-89262390D01*
X145166741Y-89405248D01*
X145071503Y-89500486D01*
X144976265Y-89548105D01*
X79994342Y-90262390D02*
X79994342Y-89262390D01*
X80232438Y-89262390D01*
X80375295Y-89310010D01*
X80470533Y-89405248D01*
X80518152Y-89500486D01*
X80565771Y-89690962D01*
X80565771Y-89833819D01*
X80518152Y-90024295D01*
X80470533Y-90119533D01*
X80375295Y-90214771D01*
X80232438Y-90262390D01*
X79994342Y-90262390D01*
X81137200Y-89690962D02*
X81041961Y-89643343D01*
X80994342Y-89595724D01*
X80946723Y-89500486D01*
X80946723Y-89452867D01*
X80994342Y-89357629D01*
X81041961Y-89310010D01*
X81137200Y-89262390D01*
X81327676Y-89262390D01*
X81422914Y-89310010D01*
X81470533Y-89357629D01*
X81518152Y-89452867D01*
X81518152Y-89500486D01*
X81470533Y-89595724D01*
X81422914Y-89643343D01*
X81327676Y-89690962D01*
X81137200Y-89690962D01*
X81041961Y-89738581D01*
X80994342Y-89786200D01*
X80946723Y-89881438D01*
X80946723Y-90071914D01*
X80994342Y-90167152D01*
X81041961Y-90214771D01*
X81137200Y-90262390D01*
X81327676Y-90262390D01*
X81422914Y-90214771D01*
X81470533Y-90167152D01*
X81518152Y-90071914D01*
X81518152Y-89881438D01*
X81470533Y-89786200D01*
X81422914Y-89738581D01*
X81327676Y-89690962D01*
X81899104Y-89976676D02*
X82375295Y-89976676D01*
X81803866Y-90262390D02*
X82137200Y-89262390D01*
X82470533Y-90262390D01*
X83327676Y-90262390D02*
X82756247Y-90262390D01*
X83041961Y-90262390D02*
X83041961Y-89262390D01*
X82946723Y-89405248D01*
X82851485Y-89500486D01*
X82756247Y-89548105D01*
X87478333Y-105792261D02*
X87478333Y-106245833D01*
X87448095Y-106336547D01*
X87387619Y-106397023D01*
X87296904Y-106427261D01*
X87236428Y-106427261D01*
X88052857Y-106003928D02*
X88052857Y-106427261D01*
X87901666Y-105762023D02*
X87750476Y-106215595D01*
X88143571Y-106215595D01*
X181291785Y-100937261D02*
X181080119Y-100634880D01*
X180928928Y-100937261D02*
X180928928Y-100302261D01*
X181170833Y-100302261D01*
X181231309Y-100332500D01*
X181261547Y-100362738D01*
X181291785Y-100423214D01*
X181291785Y-100513928D01*
X181261547Y-100574404D01*
X181231309Y-100604642D01*
X181170833Y-100634880D01*
X180928928Y-100634880D01*
X181896547Y-100937261D02*
X181533690Y-100937261D01*
X181715119Y-100937261D02*
X181715119Y-100302261D01*
X181654642Y-100392976D01*
X181594166Y-100453452D01*
X181533690Y-100483690D01*
X182138452Y-100362738D02*
X182168690Y-100332500D01*
X182229166Y-100302261D01*
X182380357Y-100302261D01*
X182440833Y-100332500D01*
X182471071Y-100362738D01*
X182501309Y-100423214D01*
X182501309Y-100483690D01*
X182471071Y-100574404D01*
X182108214Y-100937261D01*
X182501309Y-100937261D01*
X132738163Y-114762378D02*
X132738163Y-113762378D01*
X132976258Y-113762378D01*
X133119115Y-113809998D01*
X133214353Y-113905236D01*
X133261972Y-114000474D01*
X133309591Y-114190950D01*
X133309591Y-114333807D01*
X133261972Y-114524283D01*
X133214353Y-114619521D01*
X133119115Y-114714759D01*
X132976258Y-114762378D01*
X132738163Y-114762378D01*
X134261972Y-114762378D02*
X133690544Y-114762378D01*
X133976258Y-114762378D02*
X133976258Y-113762378D01*
X133881020Y-113905236D01*
X133785782Y-114000474D01*
X133690544Y-114048093D01*
X134881020Y-113762378D02*
X134976258Y-113762378D01*
X135071496Y-113809998D01*
X135119115Y-113857617D01*
X135166734Y-113952855D01*
X135214353Y-114143331D01*
X135214353Y-114381426D01*
X135166734Y-114571902D01*
X135119115Y-114667140D01*
X135071496Y-114714759D01*
X134976258Y-114762378D01*
X134881020Y-114762378D01*
X134785782Y-114714759D01*
X134738163Y-114667140D01*
X134690544Y-114571902D01*
X134642925Y-114381426D01*
X134642925Y-114143331D01*
X134690544Y-113952855D01*
X134738163Y-113857617D01*
X134785782Y-113809998D01*
X134881020Y-113762378D01*
X135595306Y-114476664D02*
X136071496Y-114476664D01*
X135500068Y-114762378D02*
X135833401Y-113762378D01*
X136166734Y-114762378D01*
X137023877Y-114762378D02*
X136452449Y-114762378D01*
X136738163Y-114762378D02*
X136738163Y-113762378D01*
X136642925Y-113905236D01*
X136547687Y-114000474D01*
X136452449Y-114048093D01*
D14*
X201669999Y-87430009D02*
X208469999Y-87430009D01*
X201669999Y-95430009D02*
X201669999Y-87430009D01*
X202569999Y-95430009D02*
X202569999Y-87430009D01*
X208469999Y-95430009D02*
X201669999Y-95430009D01*
X208469999Y-87430009D02*
X208469999Y-95430009D01*
X147710000Y-127030000D02*
X146310000Y-127030000D01*
X145610000Y-126330000D02*
X145610000Y-125730000D01*
X148410000Y-125730000D02*
X148410000Y-126330000D01*
X146310000Y-125030000D02*
X147710000Y-125030000D01*
X148410000Y-125730000D02*
G75*
G03*
X147710000Y-125030000I-699999J1D01*
G01*
X145610000Y-126330000D02*
G75*
G03*
X146310000Y-127030000I700000J0D01*
G01*
X147710000Y-127030000D02*
G75*
G03*
X148410000Y-126330000I1J699999D01*
G01*
X146310000Y-125030000D02*
G75*
G03*
X145610000Y-125730000I0J-700000D01*
G01*
X194013292Y-84399800D02*
X194013292Y-86599800D01*
X194013292Y-84399800D02*
X194013292Y-80799800D01*
X188543292Y-84399800D02*
X188543292Y-82199800D01*
X188543292Y-84399800D02*
X188543292Y-86599800D01*
X128803378Y-105350011D02*
X129603378Y-105350011D01*
X128803378Y-105350011D02*
X128003378Y-105350011D01*
X128803378Y-102230011D02*
X127003378Y-102230011D01*
X128803378Y-102230011D02*
X129603378Y-102230011D01*
X128542126Y-100184989D02*
X129064630Y-100184989D01*
X128542126Y-101654989D02*
X129064630Y-101654989D01*
X177129389Y-89229389D02*
X177129389Y-95290589D01*
X184190589Y-95290589D02*
X184190589Y-89229389D01*
X179717649Y-88229389D02*
X178129389Y-88229389D01*
X183190589Y-88229389D02*
X184190589Y-89229389D01*
X177129389Y-95290589D02*
X179717649Y-95290589D01*
X183190589Y-88229389D02*
X181602329Y-88229389D01*
X181602329Y-95290589D02*
X184190589Y-95290589D01*
X178129389Y-88229389D02*
X177129389Y-89229389D01*
X128662796Y-99360000D02*
X128943956Y-99360000D01*
X128662796Y-98340000D02*
X128943956Y-98340000D01*
X171870000Y-89711252D02*
X171870000Y-88288748D01*
X174590000Y-89711252D02*
X174590000Y-88288748D01*
X176210000Y-88310580D02*
X176210000Y-88029420D01*
X175190000Y-88310580D02*
X175190000Y-88029420D01*
X186420000Y-82278748D02*
X186420000Y-83701252D01*
X183700000Y-82278748D02*
X183700000Y-83701252D01*
X160060000Y-101699420D02*
X160060000Y-101980580D01*
X161080000Y-101699420D02*
X161080000Y-101980580D01*
X129044628Y-105825000D02*
X128522124Y-105825000D01*
X129044628Y-107295000D02*
X128522124Y-107295000D01*
X195829420Y-81270000D02*
X196110580Y-81270000D01*
X195829420Y-82290000D02*
X196110580Y-82290000D01*
X93930005Y-99121241D02*
X93930005Y-97698737D01*
X96650005Y-99121241D02*
X96650005Y-97698737D01*
X189350010Y-96549996D02*
X189350010Y-88549996D01*
X195250010Y-96549996D02*
X188450010Y-96549996D01*
X195250010Y-88549996D02*
X195250010Y-96549996D01*
X188450010Y-88549996D02*
X195250010Y-88549996D01*
X188450010Y-96549996D02*
X188450010Y-88549996D01*
D12*
X85570999Y-107220012D02*
X87170999Y-107220012D01*
X79820999Y-98795012D02*
X79820999Y-99095012D01*
X85570999Y-98795012D02*
X79820999Y-98795012D01*
X79820999Y-107445012D02*
X79820999Y-107145012D01*
X85570999Y-107445012D02*
X79820999Y-107445012D01*
X85570999Y-107445012D02*
X85570999Y-107220012D01*
X85570999Y-98795012D02*
X85570999Y-99095012D01*
D14*
X96979200Y-104389412D02*
X96979200Y-104670572D01*
X95959200Y-104389412D02*
X95959200Y-104670572D01*
X184259420Y-124870000D02*
X184540580Y-124870000D01*
X184259420Y-123850000D02*
X184540580Y-123850000D01*
X91934420Y-101598000D02*
X92215580Y-101598000D01*
X91934420Y-102618000D02*
X92215580Y-102618000D01*
X157079993Y-96418400D02*
X157079993Y-95618400D01*
X160199993Y-96418400D02*
X160199993Y-95618400D01*
X160199993Y-96418400D02*
X160199993Y-97218400D01*
X157079993Y-96418400D02*
X157079993Y-98218400D01*
X93599000Y-102969992D02*
X94399000Y-102969992D01*
X93599000Y-106089992D02*
X92799000Y-106089992D01*
X93599000Y-102969992D02*
X92799000Y-102969992D01*
X93599000Y-106089992D02*
X95399000Y-106089992D01*
X155252754Y-96051900D02*
X155727270Y-96051900D01*
X155252754Y-95006900D02*
X155727270Y-95006900D01*
X155252754Y-97829900D02*
X155727270Y-97829900D01*
X155252754Y-96784900D02*
X155727270Y-96784900D01*
X170870000Y-91850000D02*
X170870000Y-93800000D01*
X160750000Y-91850000D02*
X160750000Y-93800000D01*
X160750000Y-91850000D02*
X160750000Y-89900000D01*
X170870000Y-91850000D02*
X170870000Y-88400000D01*
X128662796Y-97560000D02*
X128943956Y-97560000D01*
X128662796Y-96540000D02*
X128943956Y-96540000D01*
D15*
X200081200Y-95134000D02*
X200081200Y-94219600D01*
X200081200Y-93000400D02*
X200081200Y-92086000D01*
X200081200Y-92086000D02*
X199674800Y-92086000D01*
X199674800Y-92086000D02*
X199090600Y-92086000D01*
X199090600Y-95134000D02*
X200081200Y-95134000D01*
X199268400Y-92365399D02*
G75*
G03*
X199674800Y-92086000I105381J281982D01*
G01*
X187091200Y-94674000D02*
X187091200Y-93759600D01*
X187091200Y-91626000D02*
X186684800Y-91626000D01*
X187091200Y-92540400D02*
X187091200Y-91626000D01*
X186100600Y-94674000D02*
X187091200Y-94674000D01*
X186684800Y-91626000D02*
X186100600Y-91626000D01*
X186278400Y-91905399D02*
G75*
G03*
X186684800Y-91626000I105381J281982D01*
G01*
X195150400Y-83848800D02*
X194236000Y-83848800D01*
X194236000Y-83848800D02*
X194236000Y-84255200D01*
X197284000Y-83848800D02*
X196369600Y-83848800D01*
X197284000Y-84839400D02*
X197284000Y-83848800D01*
X194236000Y-84255200D02*
X194236000Y-84839400D01*
X194515399Y-84661600D02*
G75*
G03*
X194236000Y-84255200I-281982J105381D01*
G01*
D14*
X139677500Y-99413000D02*
X137477500Y-99413000D01*
X139677500Y-107733000D02*
X143327500Y-107733000D01*
X139677500Y-99413000D02*
X141877500Y-99413000D01*
X139677500Y-107733000D02*
X137477500Y-107733000D01*
X184638258Y-96837500D02*
X184163742Y-96837500D01*
X184638258Y-97882500D02*
X184163742Y-97882500D01*
X200786252Y-96285000D02*
X200263748Y-96285000D01*
X200786252Y-97755000D02*
X200263748Y-97755000D01*
X157630000Y-92185000D02*
X157630000Y-93515000D01*
X157630000Y-90915000D02*
X154970000Y-90915000D01*
X157630000Y-88315000D02*
X154970000Y-88315000D01*
X157630000Y-93515000D02*
X156300000Y-93515000D01*
X157630000Y-90915000D02*
X157630000Y-88315000D01*
X154970000Y-90915000D02*
X154970000Y-88315000D01*
X168999979Y-84959999D02*
X167669979Y-84959999D01*
X166339979Y-82359999D02*
X166339979Y-79759999D01*
X168999979Y-79759999D02*
X166339979Y-79759999D01*
X168999979Y-82359999D02*
X168999979Y-79759999D01*
X168999979Y-83629999D02*
X168999979Y-84959999D01*
X168999979Y-82359999D02*
X166339979Y-82359999D01*
X160809978Y-84959999D02*
X159479978Y-84959999D01*
X160809978Y-83629999D02*
X160809978Y-84959999D01*
X160809978Y-82359999D02*
X158149978Y-82359999D01*
X158149978Y-82359999D02*
X158149978Y-79759999D01*
X160809978Y-79759999D02*
X158149978Y-79759999D01*
X160809978Y-82359999D02*
X160809978Y-79759999D01*
X160880000Y-82360000D02*
X160880000Y-79760000D01*
X163540000Y-82360000D02*
X160880000Y-82360000D01*
X163540000Y-79760000D02*
X160880000Y-79760000D01*
X163540000Y-83630000D02*
X163540000Y-84960000D01*
X163540000Y-84960000D02*
X162210000Y-84960000D01*
X163540000Y-82360000D02*
X163540000Y-79760000D01*
X166269987Y-82359999D02*
X166269987Y-79759999D01*
X166269987Y-83629999D02*
X166269987Y-84959999D01*
X166269987Y-79759999D02*
X163609987Y-79759999D01*
X166269987Y-82359999D02*
X163609987Y-82359999D01*
X166269987Y-84959999D02*
X164939987Y-84959999D01*
X163609987Y-82359999D02*
X163609987Y-79759999D01*
X160360010Y-93515007D02*
X159030010Y-93515007D01*
X160360010Y-90915007D02*
X160360010Y-88315007D01*
X160360010Y-90915007D02*
X157700010Y-90915007D01*
X157700010Y-90915007D02*
X157700010Y-88315007D01*
X160360010Y-92185007D02*
X160360010Y-93515007D01*
X160360010Y-88315007D02*
X157700010Y-88315007D01*
X198257258Y-91827500D02*
X197782742Y-91827500D01*
X198257258Y-90782500D02*
X197782742Y-90782500D01*
X176162742Y-97882500D02*
X176637258Y-97882500D01*
X176162742Y-96837500D02*
X176637258Y-96837500D01*
X186977506Y-80483942D02*
X186977506Y-80958458D01*
X188022506Y-80483942D02*
X188022506Y-80958458D01*
X188022506Y-83531942D02*
X188022506Y-84006458D01*
X186977506Y-83531942D02*
X186977506Y-84006458D01*
X196622500Y-93332742D02*
X196622500Y-93807258D01*
X195577500Y-93332742D02*
X195577500Y-93807258D01*
X178829742Y-97882500D02*
X179304258Y-97882500D01*
X178829742Y-96837500D02*
X179304258Y-96837500D01*
X134277258Y-104907500D02*
X133802742Y-104907500D01*
X134277258Y-105952500D02*
X133802742Y-105952500D01*
X200987258Y-98417500D02*
X200512742Y-98417500D01*
X200987258Y-99462500D02*
X200512742Y-99462500D01*
X188202500Y-86862742D02*
X188202500Y-87337258D01*
X187157500Y-86862742D02*
X187157500Y-87337258D01*
X134180580Y-106490000D02*
X133899420Y-106490000D01*
X134180580Y-107510000D02*
X133899420Y-107510000D01*
X164460000Y-100448748D02*
X164460000Y-101871252D01*
X161740000Y-100448748D02*
X161740000Y-101871252D01*
X184809420Y-80380000D02*
X185090580Y-80380000D01*
X184809420Y-79360000D02*
X185090580Y-79360000D01*
X199695781Y-72009811D02*
X208895781Y-72009811D01*
X199695781Y-86709811D02*
X199695781Y-84809811D01*
X208895781Y-86709811D02*
X206295781Y-86709811D01*
X199695781Y-80809811D02*
X199695781Y-72009811D01*
X208895781Y-72009811D02*
X208895781Y-86709811D01*
X202395781Y-86709811D02*
X199695781Y-86709811D01*
X209095781Y-85859811D02*
X209095781Y-86909811D01*
X208045781Y-86909811D02*
X209095781Y-86909811D01*
X184163742Y-99914500D02*
X184638258Y-99914500D01*
X184163742Y-98869500D02*
X184638258Y-98869500D01*
X124922203Y-110176631D02*
X127572203Y-110176631D01*
X127572203Y-110176631D02*
X127572203Y-112826631D01*
X127572203Y-112826631D02*
X124922203Y-112826631D01*
X124922203Y-112826631D02*
X124922203Y-110176631D01*
X128402203Y-113501631D02*
X123312203Y-113501631D01*
X123312203Y-113501631D02*
X123312203Y-109501631D01*
X123312203Y-109501631D02*
X128402203Y-109501631D01*
X128402203Y-109501631D02*
X128402203Y-113501631D01*
X127572203Y-111501631D02*
G75*
G03*
X127572203Y-111501631I-1325000J0D01*
G01*
X137402211Y-94502076D02*
X132312211Y-94502076D01*
X132312211Y-94502076D02*
X132312211Y-90502076D01*
X132312211Y-90502076D02*
X137402211Y-90502076D01*
X137402211Y-90502076D02*
X137402211Y-94502076D01*
X133922211Y-91177076D02*
X136572211Y-91177076D01*
X136572211Y-91177076D02*
X136572211Y-93827076D01*
X136572211Y-93827076D02*
X133922211Y-93827076D01*
X133922211Y-93827076D02*
X133922211Y-91177076D01*
X136572211Y-92502076D02*
G75*
G03*
X136572211Y-92502076I-1325000J0D01*
G01*
X97092215Y-109501631D02*
X102182215Y-109501631D01*
X102182215Y-109501631D02*
X102182215Y-113501631D01*
X102182215Y-113501631D02*
X97092215Y-113501631D01*
X97092215Y-113501631D02*
X97092215Y-109501631D01*
X100572215Y-112826631D02*
X97922215Y-112826631D01*
X97922215Y-112826631D02*
X97922215Y-110176631D01*
X97922215Y-110176631D02*
X100572215Y-110176631D01*
X100572215Y-110176631D02*
X100572215Y-112826631D01*
X100572215Y-111501631D02*
G75*
G03*
X100572215Y-111501631I-1325000J0D01*
G01*
X197111003Y-96175006D02*
X197111003Y-124675006D01*
X158111003Y-96175006D02*
X197111003Y-96175006D01*
X158111003Y-124675006D02*
X158111003Y-96175006D01*
X197111003Y-124675006D02*
X158111003Y-124675006D01*
X186141003Y-121425006D02*
X196701003Y-121425006D01*
X196701003Y-121425006D02*
X196701003Y-123925006D01*
X196701003Y-123925006D02*
X186141003Y-123925006D01*
X186141003Y-123925006D02*
X186141003Y-121425006D01*
X159361003Y-105145006D02*
X161861003Y-105145006D01*
X161861003Y-105145006D02*
X161861003Y-115705006D01*
X161861003Y-115705006D02*
X159361003Y-115705006D01*
X159361003Y-115705006D02*
X159361003Y-105145006D01*
X186141003Y-96925006D02*
X196701003Y-96925006D01*
X196701003Y-96925006D02*
X196701003Y-99425006D01*
X196701003Y-99425006D02*
X186141003Y-99425006D01*
X186141003Y-99425006D02*
X186141003Y-96925006D01*
X97092215Y-90502076D02*
X102182215Y-90502076D01*
X102182215Y-90502076D02*
X102182215Y-94502076D01*
X102182215Y-94502076D02*
X97092215Y-94502076D01*
X97092215Y-94502076D02*
X97092215Y-90502076D01*
X100572215Y-93827076D02*
X97922215Y-93827076D01*
X97922215Y-93827076D02*
X97922215Y-91177076D01*
X97922215Y-91177076D02*
X100572215Y-91177076D01*
X100572215Y-91177076D02*
X100572215Y-93827076D01*
X100572215Y-92502076D02*
G75*
G03*
X100572215Y-92502076I-1325000J0D01*
G01*
X179304258Y-99914500D02*
X178829742Y-99914500D01*
X179304258Y-98869500D02*
X178829742Y-98869500D01*
X198908290Y-78819782D02*
X189668290Y-78819782D01*
X189668290Y-78819782D02*
X189668290Y-72019782D01*
X198908290Y-72019782D02*
X198908290Y-78819782D01*
X189668290Y-72419782D02*
X198908290Y-72419782D01*
X189668290Y-72019782D02*
X198908290Y-72019782D01*
X87499995Y-97698737D02*
X87499995Y-99121241D01*
X90219995Y-97698737D02*
X90219995Y-99121241D01*
X100800000Y-107170000D02*
X98850000Y-107170000D01*
X100800000Y-107170000D02*
X102750000Y-107170000D01*
X100800000Y-97050000D02*
X102750000Y-97050000D01*
X100800000Y-97050000D02*
X97350000Y-97050000D01*
X161811000Y-125298000D02*
X161811000Y-127958000D01*
X184731000Y-125298000D02*
X184731000Y-127958000D01*
X184731000Y-127958000D02*
X161811000Y-127958000D01*
X186001000Y-125298000D02*
X187331000Y-125298000D01*
X187331000Y-125298000D02*
X187331000Y-126628000D01*
X184731000Y-125298000D02*
X161811000Y-125298000D01*
X79092200Y-109501631D02*
X84182200Y-109501631D01*
X84182200Y-109501631D02*
X84182200Y-113501631D01*
X84182200Y-113501631D02*
X79092200Y-113501631D01*
X79092200Y-113501631D02*
X79092200Y-109501631D01*
X82572200Y-112826631D02*
X79922200Y-112826631D01*
X79922200Y-112826631D02*
X79922200Y-110176631D01*
X79922200Y-110176631D02*
X82572200Y-110176631D01*
X82572200Y-110176631D02*
X82572200Y-112826631D01*
X82572200Y-111501631D02*
G75*
G03*
X82572200Y-111501631I-1325000J0D01*
G01*
X119402221Y-113501631D02*
X114312221Y-113501631D01*
X114312221Y-113501631D02*
X114312221Y-109501631D01*
X114312221Y-109501631D02*
X119402221Y-109501631D01*
X119402221Y-109501631D02*
X119402221Y-113501631D01*
X115922221Y-110176631D02*
X118572221Y-110176631D01*
X118572221Y-110176631D02*
X118572221Y-112826631D01*
X118572221Y-112826631D02*
X115922221Y-112826631D01*
X115922221Y-112826631D02*
X115922221Y-110176631D01*
X118572221Y-111501631D02*
G75*
G03*
X118572221Y-111501631I-1325000J0D01*
G01*
X106092222Y-109501631D02*
X111182222Y-109501631D01*
X111182222Y-109501631D02*
X111182222Y-113501631D01*
X111182222Y-113501631D02*
X106092222Y-113501631D01*
X106092222Y-113501631D02*
X106092222Y-109501631D01*
X109572222Y-112826631D02*
X106922222Y-112826631D01*
X106922222Y-112826631D02*
X106922222Y-110176631D01*
X106922222Y-110176631D02*
X109572222Y-110176631D01*
X109572222Y-110176631D02*
X109572222Y-112826631D01*
X109572222Y-111501631D02*
G75*
G03*
X109572222Y-111501631I-1325000J0D01*
G01*
X92312258Y-100090500D02*
X91837742Y-100090500D01*
X92312258Y-99045500D02*
X91837742Y-99045500D01*
X92312258Y-97550500D02*
X91837742Y-97550500D01*
X92312258Y-96505500D02*
X91837742Y-96505500D01*
X115922221Y-91177076D02*
X118572221Y-91177076D01*
X118572221Y-91177076D02*
X118572221Y-93827076D01*
X118572221Y-93827076D02*
X115922221Y-93827076D01*
X115922221Y-93827076D02*
X115922221Y-91177076D01*
X119402221Y-94502076D02*
X114312221Y-94502076D01*
X114312221Y-94502076D02*
X114312221Y-90502076D01*
X114312221Y-90502076D02*
X119402221Y-90502076D01*
X119402221Y-90502076D02*
X119402221Y-94502076D01*
X118572221Y-92502076D02*
G75*
G03*
X118572221Y-92502076I-1325000J0D01*
G01*
X106092222Y-90502076D02*
X111182222Y-90502076D01*
X111182222Y-90502076D02*
X111182222Y-94502076D01*
X111182222Y-94502076D02*
X106092222Y-94502076D01*
X106092222Y-94502076D02*
X106092222Y-90502076D01*
X109572222Y-93827076D02*
X106922222Y-93827076D01*
X106922222Y-93827076D02*
X106922222Y-91177076D01*
X106922222Y-91177076D02*
X109572222Y-91177076D01*
X109572222Y-91177076D02*
X109572222Y-93827076D01*
X109572222Y-92502076D02*
G75*
G03*
X109572222Y-92502076I-1325000J0D01*
G01*
X197573292Y-87031052D02*
X197573292Y-86508548D01*
X199043292Y-87031052D02*
X199043292Y-86508548D01*
X208871000Y-119540000D02*
X202451000Y-119540000D01*
X183906000Y-101300000D02*
X183126000Y-101300000D01*
X183126000Y-101300000D02*
X183126000Y-102300000D01*
X183906000Y-119540000D02*
X183126000Y-119540000D01*
X208871000Y-101300000D02*
X208871000Y-119540000D01*
X208871000Y-101300000D02*
X202451000Y-101300000D01*
X183126000Y-119540000D02*
X183126000Y-118540000D01*
X202451000Y-101300000D02*
X202451000Y-100920000D01*
X186444330Y-139289996D02*
X186444330Y-130659996D01*
X185027190Y-139289996D02*
X185027190Y-130659996D01*
X189811000Y-139289996D02*
X189811000Y-130659996D01*
X188181000Y-130659996D02*
X188181000Y-130249996D01*
X186208140Y-139289996D02*
X186208140Y-130659996D01*
X185853855Y-139289996D02*
X185853855Y-130659996D01*
X194891000Y-139289996D02*
X194891000Y-130659996D01*
X184671000Y-139289996D02*
X202571000Y-139289996D01*
X185735760Y-139289996D02*
X185735760Y-130659996D01*
X184671000Y-129199996D02*
X184671000Y-128089996D01*
X201601000Y-130659996D02*
X201601000Y-130249996D01*
X188901000Y-130659996D02*
X188901000Y-130249996D01*
X199061000Y-130659996D02*
X199061000Y-130249996D01*
X186798615Y-139289996D02*
X186798615Y-130659996D01*
X193981000Y-130659996D02*
X193981000Y-130249996D01*
X196521000Y-130659996D02*
X196521000Y-130249996D01*
X184671000Y-128089996D02*
X186001000Y-128089996D01*
X184791000Y-139289996D02*
X184791000Y-130659996D01*
X186326235Y-139289996D02*
X186326235Y-130659996D01*
X185145285Y-139289996D02*
X185145285Y-130659996D01*
X186680520Y-139289996D02*
X186680520Y-130659996D01*
X186361000Y-130659996D02*
X186361000Y-130309996D01*
X195801000Y-130659996D02*
X195801000Y-130249996D01*
X198341000Y-130659996D02*
X198341000Y-130249996D01*
X186562425Y-139289996D02*
X186562425Y-130659996D01*
X185641000Y-130659996D02*
X185641000Y-130309996D01*
X202571000Y-139289996D02*
X202571000Y-130659996D01*
X185617665Y-139289996D02*
X185617665Y-130659996D01*
X184909095Y-139289996D02*
X184909095Y-130659996D01*
X187271000Y-139289996D02*
X187271000Y-130659996D01*
X184671000Y-130659996D02*
X202571000Y-130659996D01*
X197431000Y-139289996D02*
X197431000Y-130659996D01*
X187152900Y-139289996D02*
X187152900Y-130659996D01*
X191441000Y-130659996D02*
X191441000Y-130249996D01*
X186090045Y-139289996D02*
X186090045Y-130659996D01*
X192351000Y-139289996D02*
X192351000Y-130659996D01*
X185263380Y-139289996D02*
X185263380Y-130659996D01*
X185499570Y-139289996D02*
X185499570Y-130659996D01*
X187034805Y-139289996D02*
X187034805Y-130659996D01*
X199971000Y-139289996D02*
X199971000Y-130659996D01*
X190721000Y-130659996D02*
X190721000Y-130249996D01*
X200881000Y-130659996D02*
X200881000Y-130249996D01*
X193261000Y-130659996D02*
X193261000Y-130249996D01*
X186916710Y-139289996D02*
X186916710Y-130659996D01*
X185971950Y-139289996D02*
X185971950Y-130659996D01*
X185381475Y-139289996D02*
X185381475Y-130659996D01*
X184671000Y-139289996D02*
X184671000Y-130659996D01*
X181971258Y-96837500D02*
X181496742Y-96837500D01*
X181971258Y-97882500D02*
X181496742Y-97882500D01*
X91572208Y-112826631D02*
X88922208Y-112826631D01*
X88922208Y-112826631D02*
X88922208Y-110176631D01*
X88922208Y-110176631D02*
X91572208Y-110176631D01*
X91572208Y-110176631D02*
X91572208Y-112826631D01*
X88092208Y-109501631D02*
X93182208Y-109501631D01*
X93182208Y-109501631D02*
X93182208Y-113501631D01*
X93182208Y-113501631D02*
X88092208Y-113501631D01*
X88092208Y-113501631D02*
X88092208Y-109501631D01*
X91572208Y-111501631D02*
G75*
G03*
X91572208Y-111501631I-1325000J0D01*
G01*
X124922203Y-91177076D02*
X127572203Y-91177076D01*
X127572203Y-91177076D02*
X127572203Y-93827076D01*
X127572203Y-93827076D02*
X124922203Y-93827076D01*
X124922203Y-93827076D02*
X124922203Y-91177076D01*
X128402203Y-94502076D02*
X123312203Y-94502076D01*
X123312203Y-94502076D02*
X123312203Y-90502076D01*
X123312203Y-90502076D02*
X128402203Y-90502076D01*
X128402203Y-90502076D02*
X128402203Y-94502076D01*
X127572203Y-92502076D02*
G75*
G03*
X127572203Y-92502076I-1325000J0D01*
G01*
X164411000Y-78702000D02*
X164411000Y-76042000D01*
X187331000Y-78702000D02*
X187331000Y-76042000D01*
X164411000Y-78702000D02*
X187331000Y-78702000D01*
X164411000Y-76042000D02*
X187331000Y-76042000D01*
X161811000Y-78702000D02*
X161811000Y-77372000D01*
X163141000Y-78702000D02*
X161811000Y-78702000D01*
X95430585Y-102618000D02*
X95149425Y-102618000D01*
X95430585Y-101598000D02*
X95149425Y-101598000D01*
X91837742Y-98820500D02*
X92312258Y-98820500D01*
X91837742Y-97775500D02*
X92312258Y-97775500D01*
X146402218Y-113501631D02*
X141312218Y-113501631D01*
X141312218Y-113501631D02*
X141312218Y-109501631D01*
X141312218Y-109501631D02*
X146402218Y-109501631D01*
X146402218Y-109501631D02*
X146402218Y-113501631D01*
X142922218Y-110176631D02*
X145572218Y-110176631D01*
X145572218Y-110176631D02*
X145572218Y-112826631D01*
X145572218Y-112826631D02*
X142922218Y-112826631D01*
X142922218Y-112826631D02*
X142922218Y-110176631D01*
X145572218Y-111501631D02*
G75*
G03*
X145572218Y-111501631I-1325000J0D01*
G01*
X176637258Y-99914500D02*
X176162742Y-99914500D01*
X176637258Y-98869500D02*
X176162742Y-98869500D01*
X178865000Y-85940000D02*
X178865000Y-86290000D01*
X177365000Y-79490000D02*
X178865000Y-79490000D01*
X178865000Y-86290000D02*
X177365000Y-86290000D01*
X178865000Y-79490000D02*
X178865000Y-79890000D01*
X178865000Y-81290000D02*
X178865000Y-84490000D01*
X104699989Y-104649999D02*
X125139989Y-104649999D01*
X104699989Y-102999999D02*
X104699989Y-104649999D01*
X125139989Y-104649999D02*
X125139989Y-99349999D01*
X125139989Y-99349999D02*
X104699989Y-99349999D01*
X104699989Y-99349999D02*
X104699989Y-100999999D01*
X104699989Y-102999999D02*
G75*
G03*
X104699989Y-100999999I0J1000000D01*
G01*
X92312258Y-100315500D02*
X91837742Y-100315500D01*
X92312258Y-101360500D02*
X91837742Y-101360500D01*
X171580000Y-100385000D02*
X171580000Y-101885000D01*
X166580000Y-100385000D02*
X169780000Y-100385000D01*
X164780000Y-101885000D02*
X164780000Y-100385000D01*
X171230000Y-100385000D02*
X171580000Y-100385000D01*
X164780000Y-100385000D02*
X165180000Y-100385000D01*
X91454500Y-104767250D02*
X91454500Y-104292734D01*
X90409500Y-104767250D02*
X90409500Y-104292734D01*
X88092208Y-90502076D02*
X93182208Y-90502076D01*
X93182208Y-90502076D02*
X93182208Y-94502076D01*
X93182208Y-94502076D02*
X88092208Y-94502076D01*
X88092208Y-94502076D02*
X88092208Y-90502076D01*
X91572208Y-93827076D02*
X88922208Y-93827076D01*
X88922208Y-93827076D02*
X88922208Y-91177076D01*
X88922208Y-91177076D02*
X91572208Y-91177076D01*
X91572208Y-91177076D02*
X91572208Y-93827076D01*
X91572208Y-92502076D02*
G75*
G03*
X91572208Y-92502076I-1325000J0D01*
G01*
X142922218Y-91177076D02*
X145572218Y-91177076D01*
X145572218Y-91177076D02*
X145572218Y-93827076D01*
X145572218Y-93827076D02*
X142922218Y-93827076D01*
X142922218Y-93827076D02*
X142922218Y-91177076D01*
X146402218Y-94502076D02*
X141312218Y-94502076D01*
X141312218Y-94502076D02*
X141312218Y-90502076D01*
X141312218Y-90502076D02*
X146402218Y-90502076D01*
X146402218Y-90502076D02*
X146402218Y-94502076D01*
X145572218Y-92502076D02*
G75*
G03*
X145572218Y-92502076I-1325000J0D01*
G01*
X82572200Y-93827076D02*
X79922200Y-93827076D01*
X79922200Y-93827076D02*
X79922200Y-91177076D01*
X79922200Y-91177076D02*
X82572200Y-91177076D01*
X82572200Y-91177076D02*
X82572200Y-93827076D01*
X79092200Y-90502076D02*
X84182200Y-90502076D01*
X84182200Y-90502076D02*
X84182200Y-94502076D01*
X84182200Y-94502076D02*
X79092200Y-94502076D01*
X79092200Y-94502076D02*
X79092200Y-90502076D01*
X82572200Y-92502076D02*
G75*
G03*
X82572200Y-92502076I-1325000J0D01*
G01*
X90049990Y-104785008D02*
X90049990Y-106115008D01*
X90049990Y-103515008D02*
X90049990Y-100915008D01*
X90049990Y-100915008D02*
X87389990Y-100915008D01*
X90049990Y-106115008D02*
X88719990Y-106115008D01*
X90049990Y-103515008D02*
X87389990Y-103515008D01*
X87389990Y-103515008D02*
X87389990Y-100915008D01*
X181496742Y-98869500D02*
X181971258Y-98869500D01*
X181496742Y-99914500D02*
X181971258Y-99914500D01*
X137402211Y-113501631D02*
X132312211Y-113501631D01*
X132312211Y-113501631D02*
X132312211Y-109501631D01*
X132312211Y-109501631D02*
X137402211Y-109501631D01*
X137402211Y-109501631D02*
X137402211Y-113501631D01*
X133922211Y-110176631D02*
X136572211Y-110176631D01*
X136572211Y-110176631D02*
X136572211Y-112826631D01*
X136572211Y-112826631D02*
X133922211Y-112826631D01*
X133922211Y-112826631D02*
X133922211Y-110176631D01*
X136572211Y-111501631D02*
G75*
G03*
X136572211Y-111501631I-1325000J0D01*
G01*
M02*
