G04 #@! TF.GenerationSoftware,KiCad,Pcbnew,(6.0.5-0)*
G04 #@! TF.CreationDate,2022-10-09T22:32:15+09:00*
G04 #@! TF.ProjectId,qLAMP-main,714c414d-502d-46d6-9169-6e2e6b696361,rev?*
G04 #@! TF.SameCoordinates,Original*
G04 #@! TF.FileFunction,Paste,Top*
G04 #@! TF.FilePolarity,Positive*
%FSLAX46Y46*%
G04 Gerber Fmt 4.6, Leading zero omitted, Abs format (unit mm)*
G04 Created by KiCad (PCBNEW (6.0.5-0)) date 2022-10-09 22:32:15*
%MOMM*%
%LPD*%
G01*
G04 APERTURE LIST*
G04 Aperture macros list*
%AMRoundRect*
0 Rectangle with rounded corners*
0 $1 Rounding radius*
0 $2 $3 $4 $5 $6 $7 $8 $9 X,Y pos of 4 corners*
0 Add a 4 corners polygon primitive as box body*
4,1,4,$2,$3,$4,$5,$6,$7,$8,$9,$2,$3,0*
0 Add four circle primitives for the rounded corners*
1,1,$1+$1,$2,$3*
1,1,$1+$1,$4,$5*
1,1,$1+$1,$6,$7*
1,1,$1+$1,$8,$9*
0 Add four rect primitives between the rounded corners*
20,1,$1+$1,$2,$3,$4,$5,0*
20,1,$1+$1,$4,$5,$6,$7,0*
20,1,$1+$1,$6,$7,$8,$9,0*
20,1,$1+$1,$8,$9,$2,$3,0*%
G04 Aperture macros list end*
%ADD10C,0.475000*%
%ADD11C,0.120000*%
%ADD12RoundRect,0.100000X-0.100000X0.637500X-0.100000X-0.637500X0.100000X-0.637500X0.100000X0.637500X0*%
%ADD13RoundRect,0.150000X-0.512500X-0.150000X0.512500X-0.150000X0.512500X0.150000X-0.512500X0.150000X0*%
%ADD14RoundRect,0.250000X-0.250000X-0.475000X0.250000X-0.475000X0.250000X0.475000X-0.250000X0.475000X0*%
%ADD15R,1.219200X3.098800*%
%ADD16RoundRect,0.225000X-0.225000X-0.250000X0.225000X-0.250000X0.225000X0.250000X-0.225000X0.250000X0*%
%ADD17RoundRect,0.250000X1.100000X-0.325000X1.100000X0.325000X-1.100000X0.325000X-1.100000X-0.325000X0*%
%ADD18RoundRect,0.225000X0.250000X-0.225000X0.250000X0.225000X-0.250000X0.225000X-0.250000X-0.225000X0*%
%ADD19RoundRect,0.250000X-1.100000X0.325000X-1.100000X-0.325000X1.100000X-0.325000X1.100000X0.325000X0*%
%ADD20RoundRect,0.225000X-0.250000X0.225000X-0.250000X-0.225000X0.250000X-0.225000X0.250000X0.225000X0*%
%ADD21RoundRect,0.250000X0.250000X0.475000X-0.250000X0.475000X-0.250000X-0.475000X0.250000X-0.475000X0*%
%ADD22RoundRect,0.109795X0.765205X0.109794X-0.765205X0.109794X-0.765205X-0.109794X0.765205X-0.109794X0*%
%ADD23RoundRect,0.109795X0.109795X-0.552705X0.109795X0.552705X-0.109795X0.552705X-0.109795X-0.552705X0*%
%ADD24RoundRect,0.150000X0.512500X0.150000X-0.512500X0.150000X-0.512500X-0.150000X0.512500X-0.150000X0*%
%ADD25RoundRect,0.200000X-0.200000X-0.275000X0.200000X-0.275000X0.200000X0.275000X-0.200000X0.275000X0*%
%ADD26RoundRect,0.150000X-0.150000X0.825000X-0.150000X-0.825000X0.150000X-0.825000X0.150000X0.825000X0*%
%ADD27R,1.320800X0.558800*%
%ADD28R,0.558800X1.320800*%
%ADD29RoundRect,0.250000X0.715000X0.695000X-0.715000X0.695000X-0.715000X-0.695000X0.715000X-0.695000X0*%
%ADD30RoundRect,0.100000X0.687500X0.100000X-0.687500X0.100000X-0.687500X-0.100000X0.687500X-0.100000X0*%
%ADD31RoundRect,0.200000X0.200000X0.275000X-0.200000X0.275000X-0.200000X-0.275000X0.200000X-0.275000X0*%
%ADD32RoundRect,0.200000X-0.275000X0.200000X-0.275000X-0.200000X0.275000X-0.200000X0.275000X0.200000X0*%
%ADD33RoundRect,0.225000X0.225000X0.250000X-0.225000X0.250000X-0.225000X-0.250000X0.225000X-0.250000X0*%
%ADD34RoundRect,0.100000X0.250000X0.650000X-0.250000X0.650000X-0.250000X-0.650000X0.250000X-0.650000X0*%
%ADD35RoundRect,0.100000X0.300000X0.650000X-0.300000X0.650000X-0.300000X-0.650000X0.300000X-0.650000X0*%
%ADD36RoundRect,0.150000X-0.825000X-0.150000X0.825000X-0.150000X0.825000X0.150000X-0.825000X0.150000X0*%
%ADD37RoundRect,0.250000X0.475000X-0.250000X0.475000X0.250000X-0.475000X0.250000X-0.475000X-0.250000X0*%
%ADD38R,0.900000X2.000000*%
%ADD39R,2.000000X0.900000*%
%ADD40R,5.000000X5.000000*%
%ADD41R,3.300000X3.300000*%
%ADD42R,3.500000X2.000000*%
%ADD43R,2.000000X3.500000*%
%ADD44RoundRect,0.200000X0.275000X-0.200000X0.275000X0.200000X-0.275000X0.200000X-0.275000X-0.200000X0*%
G04 APERTURE END LIST*
D10*
X148473500Y-128000000D02*
G75*
G03*
X148473500Y-128000000I-237500J0D01*
G01*
X77473500Y-126500000D02*
G75*
G03*
X77473500Y-126500000I-237500J0D01*
G01*
X76473500Y-75000000D02*
G75*
G03*
X76473500Y-75000000I-237500J0D01*
G01*
X204097500Y-129840000D02*
G75*
G03*
X204097500Y-129840000I-237500J0D01*
G01*
X144475700Y-80249000D02*
G75*
G03*
X144475700Y-80249000I-237500J0D01*
G01*
X207587500Y-74695000D02*
G75*
G03*
X207587500Y-74695000I-237500J0D01*
G01*
G36*
X123892203Y-111301631D02*
G01*
X123292203Y-111301631D01*
X123292203Y-110301631D01*
X123892203Y-110301631D01*
X123892203Y-111301631D01*
G37*
D11*
X123892203Y-111301631D02*
X123292203Y-111301631D01*
X123292203Y-110301631D01*
X123892203Y-110301631D01*
X123892203Y-111301631D01*
G36*
X128422203Y-112651631D02*
G01*
X127822203Y-112651631D01*
X127822203Y-111651631D01*
X128422203Y-111651631D01*
X128422203Y-112651631D01*
G37*
X128422203Y-112651631D02*
X127822203Y-112651631D01*
X127822203Y-111651631D01*
X128422203Y-111651631D01*
X128422203Y-112651631D01*
G36*
X123892203Y-112701631D02*
G01*
X123292203Y-112701631D01*
X123292203Y-111701631D01*
X123892203Y-111701631D01*
X123892203Y-112701631D01*
G37*
X123892203Y-112701631D02*
X123292203Y-112701631D01*
X123292203Y-111701631D01*
X123892203Y-111701631D01*
X123892203Y-112701631D01*
G36*
X128422203Y-111351631D02*
G01*
X127822203Y-111351631D01*
X127822203Y-110351631D01*
X128422203Y-110351631D01*
X128422203Y-111351631D01*
G37*
X128422203Y-111351631D02*
X127822203Y-111351631D01*
X127822203Y-110351631D01*
X128422203Y-110351631D01*
X128422203Y-111351631D01*
G36*
X132892211Y-93702076D02*
G01*
X132292211Y-93702076D01*
X132292211Y-92702076D01*
X132892211Y-92702076D01*
X132892211Y-93702076D01*
G37*
X132892211Y-93702076D02*
X132292211Y-93702076D01*
X132292211Y-92702076D01*
X132892211Y-92702076D01*
X132892211Y-93702076D01*
G36*
X137422211Y-93652076D02*
G01*
X136822211Y-93652076D01*
X136822211Y-92652076D01*
X137422211Y-92652076D01*
X137422211Y-93652076D01*
G37*
X137422211Y-93652076D02*
X136822211Y-93652076D01*
X136822211Y-92652076D01*
X137422211Y-92652076D01*
X137422211Y-93652076D01*
G36*
X132892211Y-92302076D02*
G01*
X132292211Y-92302076D01*
X132292211Y-91302076D01*
X132892211Y-91302076D01*
X132892211Y-92302076D01*
G37*
X132892211Y-92302076D02*
X132292211Y-92302076D01*
X132292211Y-91302076D01*
X132892211Y-91302076D01*
X132892211Y-92302076D01*
G36*
X137422211Y-92352076D02*
G01*
X136822211Y-92352076D01*
X136822211Y-91352076D01*
X137422211Y-91352076D01*
X137422211Y-92352076D01*
G37*
X137422211Y-92352076D02*
X136822211Y-92352076D01*
X136822211Y-91352076D01*
X137422211Y-91352076D01*
X137422211Y-92352076D01*
G36*
X97672215Y-112651631D02*
G01*
X97072215Y-112651631D01*
X97072215Y-111651631D01*
X97672215Y-111651631D01*
X97672215Y-112651631D01*
G37*
X97672215Y-112651631D02*
X97072215Y-112651631D01*
X97072215Y-111651631D01*
X97672215Y-111651631D01*
X97672215Y-112651631D01*
G36*
X97672215Y-111351631D02*
G01*
X97072215Y-111351631D01*
X97072215Y-110351631D01*
X97672215Y-110351631D01*
X97672215Y-111351631D01*
G37*
X97672215Y-111351631D02*
X97072215Y-111351631D01*
X97072215Y-110351631D01*
X97672215Y-110351631D01*
X97672215Y-111351631D01*
G36*
X102202215Y-111301631D02*
G01*
X101602215Y-111301631D01*
X101602215Y-110301631D01*
X102202215Y-110301631D01*
X102202215Y-111301631D01*
G37*
X102202215Y-111301631D02*
X101602215Y-111301631D01*
X101602215Y-110301631D01*
X102202215Y-110301631D01*
X102202215Y-111301631D01*
G36*
X102202215Y-112701631D02*
G01*
X101602215Y-112701631D01*
X101602215Y-111701631D01*
X102202215Y-111701631D01*
X102202215Y-112701631D01*
G37*
X102202215Y-112701631D02*
X101602215Y-112701631D01*
X101602215Y-111701631D01*
X102202215Y-111701631D01*
X102202215Y-112701631D01*
G36*
X97672215Y-92352076D02*
G01*
X97072215Y-92352076D01*
X97072215Y-91352076D01*
X97672215Y-91352076D01*
X97672215Y-92352076D01*
G37*
X97672215Y-92352076D02*
X97072215Y-92352076D01*
X97072215Y-91352076D01*
X97672215Y-91352076D01*
X97672215Y-92352076D01*
G36*
X102202215Y-92302076D02*
G01*
X101602215Y-92302076D01*
X101602215Y-91302076D01*
X102202215Y-91302076D01*
X102202215Y-92302076D01*
G37*
X102202215Y-92302076D02*
X101602215Y-92302076D01*
X101602215Y-91302076D01*
X102202215Y-91302076D01*
X102202215Y-92302076D01*
G36*
X97672215Y-93652076D02*
G01*
X97072215Y-93652076D01*
X97072215Y-92652076D01*
X97672215Y-92652076D01*
X97672215Y-93652076D01*
G37*
X97672215Y-93652076D02*
X97072215Y-93652076D01*
X97072215Y-92652076D01*
X97672215Y-92652076D01*
X97672215Y-93652076D01*
G36*
X102202215Y-93702076D02*
G01*
X101602215Y-93702076D01*
X101602215Y-92702076D01*
X102202215Y-92702076D01*
X102202215Y-93702076D01*
G37*
X102202215Y-93702076D02*
X101602215Y-93702076D01*
X101602215Y-92702076D01*
X102202215Y-92702076D01*
X102202215Y-93702076D01*
G36*
X84202200Y-111301631D02*
G01*
X83602200Y-111301631D01*
X83602200Y-110301631D01*
X84202200Y-110301631D01*
X84202200Y-111301631D01*
G37*
X84202200Y-111301631D02*
X83602200Y-111301631D01*
X83602200Y-110301631D01*
X84202200Y-110301631D01*
X84202200Y-111301631D01*
G36*
X84202200Y-112701631D02*
G01*
X83602200Y-112701631D01*
X83602200Y-111701631D01*
X84202200Y-111701631D01*
X84202200Y-112701631D01*
G37*
X84202200Y-112701631D02*
X83602200Y-112701631D01*
X83602200Y-111701631D01*
X84202200Y-111701631D01*
X84202200Y-112701631D01*
G36*
X79672200Y-112651631D02*
G01*
X79072200Y-112651631D01*
X79072200Y-111651631D01*
X79672200Y-111651631D01*
X79672200Y-112651631D01*
G37*
X79672200Y-112651631D02*
X79072200Y-112651631D01*
X79072200Y-111651631D01*
X79672200Y-111651631D01*
X79672200Y-112651631D01*
G36*
X79672200Y-111351631D02*
G01*
X79072200Y-111351631D01*
X79072200Y-110351631D01*
X79672200Y-110351631D01*
X79672200Y-111351631D01*
G37*
X79672200Y-111351631D02*
X79072200Y-111351631D01*
X79072200Y-110351631D01*
X79672200Y-110351631D01*
X79672200Y-111351631D01*
G36*
X119422221Y-112651631D02*
G01*
X118822221Y-112651631D01*
X118822221Y-111651631D01*
X119422221Y-111651631D01*
X119422221Y-112651631D01*
G37*
X119422221Y-112651631D02*
X118822221Y-112651631D01*
X118822221Y-111651631D01*
X119422221Y-111651631D01*
X119422221Y-112651631D01*
G36*
X114892221Y-111301631D02*
G01*
X114292221Y-111301631D01*
X114292221Y-110301631D01*
X114892221Y-110301631D01*
X114892221Y-111301631D01*
G37*
X114892221Y-111301631D02*
X114292221Y-111301631D01*
X114292221Y-110301631D01*
X114892221Y-110301631D01*
X114892221Y-111301631D01*
G36*
X114892221Y-112701631D02*
G01*
X114292221Y-112701631D01*
X114292221Y-111701631D01*
X114892221Y-111701631D01*
X114892221Y-112701631D01*
G37*
X114892221Y-112701631D02*
X114292221Y-112701631D01*
X114292221Y-111701631D01*
X114892221Y-111701631D01*
X114892221Y-112701631D01*
G36*
X119422221Y-111351631D02*
G01*
X118822221Y-111351631D01*
X118822221Y-110351631D01*
X119422221Y-110351631D01*
X119422221Y-111351631D01*
G37*
X119422221Y-111351631D02*
X118822221Y-111351631D01*
X118822221Y-110351631D01*
X119422221Y-110351631D01*
X119422221Y-111351631D01*
G36*
X111202222Y-112701631D02*
G01*
X110602222Y-112701631D01*
X110602222Y-111701631D01*
X111202222Y-111701631D01*
X111202222Y-112701631D01*
G37*
X111202222Y-112701631D02*
X110602222Y-112701631D01*
X110602222Y-111701631D01*
X111202222Y-111701631D01*
X111202222Y-112701631D01*
G36*
X106672222Y-111351631D02*
G01*
X106072222Y-111351631D01*
X106072222Y-110351631D01*
X106672222Y-110351631D01*
X106672222Y-111351631D01*
G37*
X106672222Y-111351631D02*
X106072222Y-111351631D01*
X106072222Y-110351631D01*
X106672222Y-110351631D01*
X106672222Y-111351631D01*
G36*
X111202222Y-111301631D02*
G01*
X110602222Y-111301631D01*
X110602222Y-110301631D01*
X111202222Y-110301631D01*
X111202222Y-111301631D01*
G37*
X111202222Y-111301631D02*
X110602222Y-111301631D01*
X110602222Y-110301631D01*
X111202222Y-110301631D01*
X111202222Y-111301631D01*
G36*
X106672222Y-112651631D02*
G01*
X106072222Y-112651631D01*
X106072222Y-111651631D01*
X106672222Y-111651631D01*
X106672222Y-112651631D01*
G37*
X106672222Y-112651631D02*
X106072222Y-112651631D01*
X106072222Y-111651631D01*
X106672222Y-111651631D01*
X106672222Y-112651631D01*
G36*
X114892221Y-92302076D02*
G01*
X114292221Y-92302076D01*
X114292221Y-91302076D01*
X114892221Y-91302076D01*
X114892221Y-92302076D01*
G37*
X114892221Y-92302076D02*
X114292221Y-92302076D01*
X114292221Y-91302076D01*
X114892221Y-91302076D01*
X114892221Y-92302076D01*
G36*
X119422221Y-93652076D02*
G01*
X118822221Y-93652076D01*
X118822221Y-92652076D01*
X119422221Y-92652076D01*
X119422221Y-93652076D01*
G37*
X119422221Y-93652076D02*
X118822221Y-93652076D01*
X118822221Y-92652076D01*
X119422221Y-92652076D01*
X119422221Y-93652076D01*
G36*
X114892221Y-93702076D02*
G01*
X114292221Y-93702076D01*
X114292221Y-92702076D01*
X114892221Y-92702076D01*
X114892221Y-93702076D01*
G37*
X114892221Y-93702076D02*
X114292221Y-93702076D01*
X114292221Y-92702076D01*
X114892221Y-92702076D01*
X114892221Y-93702076D01*
G36*
X119422221Y-92352076D02*
G01*
X118822221Y-92352076D01*
X118822221Y-91352076D01*
X119422221Y-91352076D01*
X119422221Y-92352076D01*
G37*
X119422221Y-92352076D02*
X118822221Y-92352076D01*
X118822221Y-91352076D01*
X119422221Y-91352076D01*
X119422221Y-92352076D01*
G36*
X106672222Y-93652076D02*
G01*
X106072222Y-93652076D01*
X106072222Y-92652076D01*
X106672222Y-92652076D01*
X106672222Y-93652076D01*
G37*
X106672222Y-93652076D02*
X106072222Y-93652076D01*
X106072222Y-92652076D01*
X106672222Y-92652076D01*
X106672222Y-93652076D01*
G36*
X106672222Y-92352076D02*
G01*
X106072222Y-92352076D01*
X106072222Y-91352076D01*
X106672222Y-91352076D01*
X106672222Y-92352076D01*
G37*
X106672222Y-92352076D02*
X106072222Y-92352076D01*
X106072222Y-91352076D01*
X106672222Y-91352076D01*
X106672222Y-92352076D01*
G36*
X111202222Y-93702076D02*
G01*
X110602222Y-93702076D01*
X110602222Y-92702076D01*
X111202222Y-92702076D01*
X111202222Y-93702076D01*
G37*
X111202222Y-93702076D02*
X110602222Y-93702076D01*
X110602222Y-92702076D01*
X111202222Y-92702076D01*
X111202222Y-93702076D01*
G36*
X111202222Y-92302076D02*
G01*
X110602222Y-92302076D01*
X110602222Y-91302076D01*
X111202222Y-91302076D01*
X111202222Y-92302076D01*
G37*
X111202222Y-92302076D02*
X110602222Y-92302076D01*
X110602222Y-91302076D01*
X111202222Y-91302076D01*
X111202222Y-92302076D01*
G36*
X88672208Y-111351631D02*
G01*
X88072208Y-111351631D01*
X88072208Y-110351631D01*
X88672208Y-110351631D01*
X88672208Y-111351631D01*
G37*
X88672208Y-111351631D02*
X88072208Y-111351631D01*
X88072208Y-110351631D01*
X88672208Y-110351631D01*
X88672208Y-111351631D01*
G36*
X93202208Y-111301631D02*
G01*
X92602208Y-111301631D01*
X92602208Y-110301631D01*
X93202208Y-110301631D01*
X93202208Y-111301631D01*
G37*
X93202208Y-111301631D02*
X92602208Y-111301631D01*
X92602208Y-110301631D01*
X93202208Y-110301631D01*
X93202208Y-111301631D01*
G36*
X88672208Y-112651631D02*
G01*
X88072208Y-112651631D01*
X88072208Y-111651631D01*
X88672208Y-111651631D01*
X88672208Y-112651631D01*
G37*
X88672208Y-112651631D02*
X88072208Y-112651631D01*
X88072208Y-111651631D01*
X88672208Y-111651631D01*
X88672208Y-112651631D01*
G36*
X93202208Y-112701631D02*
G01*
X92602208Y-112701631D01*
X92602208Y-111701631D01*
X93202208Y-111701631D01*
X93202208Y-112701631D01*
G37*
X93202208Y-112701631D02*
X92602208Y-112701631D01*
X92602208Y-111701631D01*
X93202208Y-111701631D01*
X93202208Y-112701631D01*
G36*
X123892203Y-92302076D02*
G01*
X123292203Y-92302076D01*
X123292203Y-91302076D01*
X123892203Y-91302076D01*
X123892203Y-92302076D01*
G37*
X123892203Y-92302076D02*
X123292203Y-92302076D01*
X123292203Y-91302076D01*
X123892203Y-91302076D01*
X123892203Y-92302076D01*
G36*
X128422203Y-93652076D02*
G01*
X127822203Y-93652076D01*
X127822203Y-92652076D01*
X128422203Y-92652076D01*
X128422203Y-93652076D01*
G37*
X128422203Y-93652076D02*
X127822203Y-93652076D01*
X127822203Y-92652076D01*
X128422203Y-92652076D01*
X128422203Y-93652076D01*
G36*
X128422203Y-92352076D02*
G01*
X127822203Y-92352076D01*
X127822203Y-91352076D01*
X128422203Y-91352076D01*
X128422203Y-92352076D01*
G37*
X128422203Y-92352076D02*
X127822203Y-92352076D01*
X127822203Y-91352076D01*
X128422203Y-91352076D01*
X128422203Y-92352076D01*
G36*
X123892203Y-93702076D02*
G01*
X123292203Y-93702076D01*
X123292203Y-92702076D01*
X123892203Y-92702076D01*
X123892203Y-93702076D01*
G37*
X123892203Y-93702076D02*
X123292203Y-93702076D01*
X123292203Y-92702076D01*
X123892203Y-92702076D01*
X123892203Y-93702076D01*
G36*
X146422218Y-111351631D02*
G01*
X145822218Y-111351631D01*
X145822218Y-110351631D01*
X146422218Y-110351631D01*
X146422218Y-111351631D01*
G37*
X146422218Y-111351631D02*
X145822218Y-111351631D01*
X145822218Y-110351631D01*
X146422218Y-110351631D01*
X146422218Y-111351631D01*
G36*
X146422218Y-112651631D02*
G01*
X145822218Y-112651631D01*
X145822218Y-111651631D01*
X146422218Y-111651631D01*
X146422218Y-112651631D01*
G37*
X146422218Y-112651631D02*
X145822218Y-112651631D01*
X145822218Y-111651631D01*
X146422218Y-111651631D01*
X146422218Y-112651631D01*
G36*
X141892218Y-112701631D02*
G01*
X141292218Y-112701631D01*
X141292218Y-111701631D01*
X141892218Y-111701631D01*
X141892218Y-112701631D01*
G37*
X141892218Y-112701631D02*
X141292218Y-112701631D01*
X141292218Y-111701631D01*
X141892218Y-111701631D01*
X141892218Y-112701631D01*
G36*
X141892218Y-111301631D02*
G01*
X141292218Y-111301631D01*
X141292218Y-110301631D01*
X141892218Y-110301631D01*
X141892218Y-111301631D01*
G37*
X141892218Y-111301631D02*
X141292218Y-111301631D01*
X141292218Y-110301631D01*
X141892218Y-110301631D01*
X141892218Y-111301631D01*
G36*
X93202208Y-92302076D02*
G01*
X92602208Y-92302076D01*
X92602208Y-91302076D01*
X93202208Y-91302076D01*
X93202208Y-92302076D01*
G37*
X93202208Y-92302076D02*
X92602208Y-92302076D01*
X92602208Y-91302076D01*
X93202208Y-91302076D01*
X93202208Y-92302076D01*
G36*
X93202208Y-93702076D02*
G01*
X92602208Y-93702076D01*
X92602208Y-92702076D01*
X93202208Y-92702076D01*
X93202208Y-93702076D01*
G37*
X93202208Y-93702076D02*
X92602208Y-93702076D01*
X92602208Y-92702076D01*
X93202208Y-92702076D01*
X93202208Y-93702076D01*
G36*
X88672208Y-93652076D02*
G01*
X88072208Y-93652076D01*
X88072208Y-92652076D01*
X88672208Y-92652076D01*
X88672208Y-93652076D01*
G37*
X88672208Y-93652076D02*
X88072208Y-93652076D01*
X88072208Y-92652076D01*
X88672208Y-92652076D01*
X88672208Y-93652076D01*
G36*
X88672208Y-92352076D02*
G01*
X88072208Y-92352076D01*
X88072208Y-91352076D01*
X88672208Y-91352076D01*
X88672208Y-92352076D01*
G37*
X88672208Y-92352076D02*
X88072208Y-92352076D01*
X88072208Y-91352076D01*
X88672208Y-91352076D01*
X88672208Y-92352076D01*
G36*
X146422218Y-92352076D02*
G01*
X145822218Y-92352076D01*
X145822218Y-91352076D01*
X146422218Y-91352076D01*
X146422218Y-92352076D01*
G37*
X146422218Y-92352076D02*
X145822218Y-92352076D01*
X145822218Y-91352076D01*
X146422218Y-91352076D01*
X146422218Y-92352076D01*
G36*
X146422218Y-93652076D02*
G01*
X145822218Y-93652076D01*
X145822218Y-92652076D01*
X146422218Y-92652076D01*
X146422218Y-93652076D01*
G37*
X146422218Y-93652076D02*
X145822218Y-93652076D01*
X145822218Y-92652076D01*
X146422218Y-92652076D01*
X146422218Y-93652076D01*
G36*
X141892218Y-92302076D02*
G01*
X141292218Y-92302076D01*
X141292218Y-91302076D01*
X141892218Y-91302076D01*
X141892218Y-92302076D01*
G37*
X141892218Y-92302076D02*
X141292218Y-92302076D01*
X141292218Y-91302076D01*
X141892218Y-91302076D01*
X141892218Y-92302076D01*
G36*
X141892218Y-93702076D02*
G01*
X141292218Y-93702076D01*
X141292218Y-92702076D01*
X141892218Y-92702076D01*
X141892218Y-93702076D01*
G37*
X141892218Y-93702076D02*
X141292218Y-93702076D01*
X141292218Y-92702076D01*
X141892218Y-92702076D01*
X141892218Y-93702076D01*
G36*
X84202200Y-92302076D02*
G01*
X83602200Y-92302076D01*
X83602200Y-91302076D01*
X84202200Y-91302076D01*
X84202200Y-92302076D01*
G37*
X84202200Y-92302076D02*
X83602200Y-92302076D01*
X83602200Y-91302076D01*
X84202200Y-91302076D01*
X84202200Y-92302076D01*
G36*
X79672200Y-93652076D02*
G01*
X79072200Y-93652076D01*
X79072200Y-92652076D01*
X79672200Y-92652076D01*
X79672200Y-93652076D01*
G37*
X79672200Y-93652076D02*
X79072200Y-93652076D01*
X79072200Y-92652076D01*
X79672200Y-92652076D01*
X79672200Y-93652076D01*
G36*
X79672200Y-92352076D02*
G01*
X79072200Y-92352076D01*
X79072200Y-91352076D01*
X79672200Y-91352076D01*
X79672200Y-92352076D01*
G37*
X79672200Y-92352076D02*
X79072200Y-92352076D01*
X79072200Y-91352076D01*
X79672200Y-91352076D01*
X79672200Y-92352076D01*
G36*
X84202200Y-93702076D02*
G01*
X83602200Y-93702076D01*
X83602200Y-92702076D01*
X84202200Y-92702076D01*
X84202200Y-93702076D01*
G37*
X84202200Y-93702076D02*
X83602200Y-93702076D01*
X83602200Y-92702076D01*
X84202200Y-92702076D01*
X84202200Y-93702076D01*
G36*
X132892211Y-111301631D02*
G01*
X132292211Y-111301631D01*
X132292211Y-110301631D01*
X132892211Y-110301631D01*
X132892211Y-111301631D01*
G37*
X132892211Y-111301631D02*
X132292211Y-111301631D01*
X132292211Y-110301631D01*
X132892211Y-110301631D01*
X132892211Y-111301631D01*
G36*
X132892211Y-112701631D02*
G01*
X132292211Y-112701631D01*
X132292211Y-111701631D01*
X132892211Y-111701631D01*
X132892211Y-112701631D01*
G37*
X132892211Y-112701631D02*
X132292211Y-112701631D01*
X132292211Y-111701631D01*
X132892211Y-111701631D01*
X132892211Y-112701631D01*
G36*
X137422211Y-111351631D02*
G01*
X136822211Y-111351631D01*
X136822211Y-110351631D01*
X137422211Y-110351631D01*
X137422211Y-111351631D01*
G37*
X137422211Y-111351631D02*
X136822211Y-111351631D01*
X136822211Y-110351631D01*
X137422211Y-110351631D01*
X137422211Y-111351631D01*
G36*
X137422211Y-112651631D02*
G01*
X136822211Y-112651631D01*
X136822211Y-111651631D01*
X137422211Y-111651631D01*
X137422211Y-112651631D01*
G37*
X137422211Y-112651631D02*
X136822211Y-112651631D01*
X136822211Y-111651631D01*
X137422211Y-111651631D01*
X137422211Y-112651631D01*
D12*
X193553292Y-81537300D03*
X192903292Y-81537300D03*
X192253292Y-81537300D03*
X191603292Y-81537300D03*
X190953292Y-81537300D03*
X190303292Y-81537300D03*
X189653292Y-81537300D03*
X189003292Y-81537300D03*
X189003292Y-87262300D03*
X189653292Y-87262300D03*
X190303292Y-87262300D03*
X190953292Y-87262300D03*
X191603292Y-87262300D03*
X192253292Y-87262300D03*
X192903292Y-87262300D03*
X193553292Y-87262300D03*
D13*
X127665878Y-102840011D03*
X127665878Y-103790011D03*
X127665878Y-104740011D03*
X129940878Y-104740011D03*
X129940878Y-102840011D03*
D14*
X127853378Y-100919989D03*
X129753378Y-100919989D03*
D15*
X180659989Y-89207289D03*
X180659989Y-94312689D03*
D16*
X128028376Y-98850000D03*
X129578376Y-98850000D03*
D17*
X173230000Y-90475000D03*
X173230000Y-87525000D03*
D18*
X175700000Y-88945000D03*
X175700000Y-87395000D03*
D19*
X185060000Y-81515000D03*
X185060000Y-84465000D03*
D20*
X160570000Y-101065000D03*
X160570000Y-102615000D03*
D21*
X129733376Y-106560000D03*
X127833376Y-106560000D03*
D16*
X195195000Y-81780000D03*
X196745000Y-81780000D03*
D17*
X95290005Y-99884989D03*
X95290005Y-96934989D03*
D22*
X86295999Y-106695011D03*
X86295999Y-106045013D03*
X86295999Y-105395012D03*
X86295999Y-104745012D03*
X86295999Y-104095012D03*
X86295999Y-103445012D03*
X86295999Y-102795012D03*
X86295999Y-102145012D03*
X86295999Y-101495012D03*
X86295999Y-100845012D03*
X86295999Y-100195011D03*
X86295999Y-99545013D03*
X79095999Y-99545013D03*
X79095999Y-100195011D03*
X79095999Y-100845012D03*
X79095999Y-101495012D03*
X79095999Y-102145012D03*
X79095999Y-102795012D03*
X79095999Y-103445012D03*
X79095999Y-104095012D03*
X79095999Y-104745012D03*
X79095999Y-105395012D03*
X79095999Y-106045013D03*
X79095999Y-106695011D03*
D20*
X96469200Y-103754992D03*
X96469200Y-105304992D03*
D16*
X183625000Y-124360000D03*
X185175000Y-124360000D03*
X91300000Y-102108000D03*
X92850000Y-102108000D03*
D23*
X157664993Y-97555900D03*
X158314993Y-97555900D03*
X158964993Y-97555900D03*
X159614993Y-97555900D03*
X159614993Y-95280900D03*
X158964993Y-95280900D03*
X158314993Y-95280900D03*
X157664993Y-95280900D03*
D24*
X94736500Y-105479992D03*
X94736500Y-104529992D03*
X94736500Y-103579992D03*
X92461500Y-103579992D03*
X92461500Y-105479992D03*
D25*
X154665012Y-95529400D03*
X156315012Y-95529400D03*
X154665012Y-97307400D03*
X156315012Y-97307400D03*
D26*
X170255000Y-89375000D03*
X168985000Y-89375000D03*
X167715000Y-89375000D03*
X166445000Y-89375000D03*
X165175000Y-89375000D03*
X163905000Y-89375000D03*
X162635000Y-89375000D03*
X161365000Y-89375000D03*
X161365000Y-94325000D03*
X162635000Y-94325000D03*
X163905000Y-94325000D03*
X165175000Y-94325000D03*
X166445000Y-94325000D03*
X167715000Y-94325000D03*
X168985000Y-94325000D03*
X170255000Y-94325000D03*
D16*
X128028376Y-97050000D03*
X129578376Y-97050000D03*
D27*
X198277800Y-92670200D03*
X198277800Y-94549800D03*
X200462200Y-93610000D03*
X185287800Y-92210200D03*
X185287800Y-94089800D03*
X187472200Y-93150000D03*
D28*
X194820200Y-85652200D03*
X196699800Y-85652200D03*
X195760000Y-83467800D03*
D29*
X139677500Y-104743000D03*
X139677500Y-102403000D03*
D30*
X142540000Y-107148000D03*
X142540000Y-106498000D03*
X142540000Y-105848000D03*
X142540000Y-105198000D03*
X142540000Y-104548000D03*
X142540000Y-103898000D03*
X142540000Y-103248000D03*
X142540000Y-102598000D03*
X142540000Y-101948000D03*
X142540000Y-101298000D03*
X142540000Y-100648000D03*
X142540000Y-99998000D03*
X136815000Y-99998000D03*
X136815000Y-100648000D03*
X136815000Y-101298000D03*
X136815000Y-101948000D03*
X136815000Y-102598000D03*
X136815000Y-103248000D03*
X136815000Y-103898000D03*
X136815000Y-104548000D03*
X136815000Y-105198000D03*
X136815000Y-105848000D03*
X136815000Y-106498000D03*
X136815000Y-107148000D03*
D31*
X185226000Y-97360000D03*
X183576000Y-97360000D03*
D21*
X201475000Y-97020000D03*
X199575000Y-97020000D03*
D31*
X198845000Y-91305000D03*
X197195000Y-91305000D03*
D25*
X175575000Y-97360000D03*
X177225000Y-97360000D03*
D32*
X187500006Y-79896200D03*
X187500006Y-81546200D03*
X187500006Y-82944200D03*
X187500006Y-84594200D03*
X196100000Y-92745000D03*
X196100000Y-94395000D03*
D25*
X178242000Y-97360000D03*
X179892000Y-97360000D03*
D31*
X134865000Y-105430000D03*
X133215000Y-105430000D03*
X201575000Y-98940000D03*
X199925000Y-98940000D03*
D32*
X187680000Y-86275000D03*
X187680000Y-87925000D03*
D33*
X134815000Y-107000000D03*
X133265000Y-107000000D03*
D19*
X163100000Y-99685000D03*
X163100000Y-102635000D03*
D16*
X184175000Y-79870000D03*
X185725000Y-79870000D03*
D25*
X183576000Y-99392000D03*
X185226000Y-99392000D03*
D31*
X179892000Y-99392000D03*
X178242000Y-99392000D03*
D34*
X194788290Y-78669782D03*
X192788290Y-78669782D03*
D35*
X191588290Y-78669782D03*
D34*
X193788290Y-78669782D03*
X195788290Y-78669782D03*
D35*
X196988290Y-78669782D03*
D19*
X88859995Y-96934989D03*
X88859995Y-99884989D03*
D36*
X98325000Y-97665000D03*
X98325000Y-98935000D03*
X98325000Y-100205000D03*
X98325000Y-101475000D03*
X98325000Y-102745000D03*
X98325000Y-104015000D03*
X98325000Y-105285000D03*
X98325000Y-106555000D03*
X103275000Y-106555000D03*
X103275000Y-105285000D03*
X103275000Y-104015000D03*
X103275000Y-102745000D03*
X103275000Y-101475000D03*
X103275000Y-100205000D03*
X103275000Y-98935000D03*
X103275000Y-97665000D03*
D31*
X92900000Y-99568000D03*
X91250000Y-99568000D03*
X92900000Y-97028000D03*
X91250000Y-97028000D03*
D37*
X198308292Y-87719800D03*
X198308292Y-85819800D03*
D38*
X201261000Y-101920000D03*
X199991000Y-101920000D03*
X198721000Y-101920000D03*
X197451000Y-101920000D03*
X196181000Y-101920000D03*
X194911000Y-101920000D03*
X193641000Y-101920000D03*
X192371000Y-101920000D03*
X191101000Y-101920000D03*
X189831000Y-101920000D03*
X188561000Y-101920000D03*
X187291000Y-101920000D03*
X186021000Y-101920000D03*
X184751000Y-101920000D03*
D39*
X183751000Y-104705000D03*
X183751000Y-105975000D03*
X183751000Y-107245000D03*
X183751000Y-108515000D03*
X183751000Y-109785000D03*
X183751000Y-111055000D03*
X183751000Y-112325000D03*
X183751000Y-113595000D03*
X183751000Y-114865000D03*
X183751000Y-116135000D03*
D38*
X184751000Y-118920000D03*
X186021000Y-118920000D03*
X187291000Y-118920000D03*
X188561000Y-118920000D03*
X189831000Y-118920000D03*
X191101000Y-118920000D03*
X192371000Y-118920000D03*
X193641000Y-118920000D03*
X194911000Y-118920000D03*
X196181000Y-118920000D03*
X197451000Y-118920000D03*
X198721000Y-118920000D03*
X199991000Y-118920000D03*
X201261000Y-118920000D03*
D40*
X193761000Y-109420000D03*
D31*
X182559000Y-97360000D03*
X180909000Y-97360000D03*
D33*
X96065005Y-102108000D03*
X94515005Y-102108000D03*
D25*
X91250000Y-98298000D03*
X92900000Y-98298000D03*
D31*
X177225000Y-99392000D03*
X175575000Y-99392000D03*
D41*
X171990000Y-81090000D03*
X171990000Y-84690000D03*
X175540000Y-81090000D03*
X175540000Y-84690000D03*
D42*
X181165000Y-85190000D03*
X181165000Y-80610000D03*
D31*
X92900000Y-100838000D03*
X91250000Y-100838000D03*
D41*
X169980000Y-103710000D03*
X166380000Y-107260000D03*
X166380000Y-103710000D03*
X169980000Y-107260000D03*
D43*
X170480000Y-98085000D03*
X165900000Y-98085000D03*
D44*
X90932000Y-105354992D03*
X90932000Y-103704992D03*
D25*
X180909000Y-99392000D03*
X182559000Y-99392000D03*
M02*
