G04 #@! TF.GenerationSoftware,KiCad,Pcbnew,(6.0.5-0)*
G04 #@! TF.CreationDate,2022-10-09T22:32:15+09:00*
G04 #@! TF.ProjectId,qLAMP-main,714c414d-502d-46d6-9169-6e2e6b696361,rev?*
G04 #@! TF.SameCoordinates,Original*
G04 #@! TF.FileFunction,Legend,Bot*
G04 #@! TF.FilePolarity,Positive*
%FSLAX46Y46*%
G04 Gerber Fmt 4.6, Leading zero omitted, Abs format (unit mm)*
G04 Created by KiCad (PCBNEW (6.0.5-0)) date 2022-10-09 22:32:15*
%MOMM*%
%LPD*%
G01*
G04 APERTURE LIST*
%ADD10C,0.127000*%
%ADD11C,0.150000*%
%ADD12C,0.250000*%
%ADD13C,0.120000*%
G04 APERTURE END LIST*
D10*
X92419285Y-99817857D02*
X92419285Y-100246428D01*
X93169285Y-100032142D02*
X92419285Y-100032142D01*
X92419285Y-100639285D02*
X92419285Y-100782142D01*
X92455000Y-100853571D01*
X92526428Y-100925000D01*
X92669285Y-100960714D01*
X92919285Y-100960714D01*
X93062142Y-100925000D01*
X93133571Y-100853571D01*
X93169285Y-100782142D01*
X93169285Y-100639285D01*
X93133571Y-100567857D01*
X93062142Y-100496428D01*
X92919285Y-100460714D01*
X92669285Y-100460714D01*
X92526428Y-100496428D01*
X92455000Y-100567857D01*
X92419285Y-100639285D01*
X93169285Y-101282142D02*
X92419285Y-101282142D01*
X92419285Y-101567857D01*
X92455000Y-101639285D01*
X92490714Y-101675000D01*
X92562142Y-101710714D01*
X92669285Y-101710714D01*
X92740714Y-101675000D01*
X92776428Y-101639285D01*
X92812142Y-101567857D01*
X92812142Y-101282142D01*
X93229285Y-104082142D02*
X92479285Y-104082142D01*
X92479285Y-104367857D01*
X92515000Y-104439285D01*
X92550714Y-104475000D01*
X92622142Y-104510714D01*
X92729285Y-104510714D01*
X92800714Y-104475000D01*
X92836428Y-104439285D01*
X92872142Y-104367857D01*
X92872142Y-104082142D01*
X93229285Y-104832142D02*
X92479285Y-104832142D01*
X93229285Y-105189285D02*
X92479285Y-105189285D01*
X93229285Y-105617857D01*
X92479285Y-105617857D01*
D11*
X185694761Y-81057142D02*
X185742380Y-81200000D01*
X185742380Y-81438095D01*
X185694761Y-81533333D01*
X185647142Y-81580952D01*
X185551904Y-81628571D01*
X185456666Y-81628571D01*
X185361428Y-81580952D01*
X185313809Y-81533333D01*
X185266190Y-81438095D01*
X185218571Y-81247619D01*
X185170952Y-81152380D01*
X185123333Y-81104761D01*
X185028095Y-81057142D01*
X184932857Y-81057142D01*
X184837619Y-81104761D01*
X184790000Y-81152380D01*
X184742380Y-81247619D01*
X184742380Y-81485714D01*
X184790000Y-81628571D01*
X185218571Y-82057142D02*
X185218571Y-82390476D01*
X185742380Y-82533333D02*
X185742380Y-82057142D01*
X184742380Y-82057142D01*
X184742380Y-82533333D01*
X185742380Y-83438095D02*
X185742380Y-82961904D01*
X184742380Y-82961904D01*
X188512380Y-85522380D02*
X187512380Y-85522380D01*
X187988571Y-85522380D02*
X187988571Y-86093809D01*
X188512380Y-86093809D02*
X187512380Y-86093809D01*
X188512380Y-86570000D02*
X187512380Y-86570000D01*
X187560000Y-87570000D02*
X187512380Y-87474761D01*
X187512380Y-87331904D01*
X187560000Y-87189047D01*
X187655238Y-87093809D01*
X187750476Y-87046190D01*
X187940952Y-86998571D01*
X188083809Y-86998571D01*
X188274285Y-87046190D01*
X188369523Y-87093809D01*
X188464761Y-87189047D01*
X188512380Y-87331904D01*
X188512380Y-87427142D01*
X188464761Y-87570000D01*
X188417142Y-87617619D01*
X188083809Y-87617619D01*
X188083809Y-87427142D01*
X188512380Y-88046190D02*
X187512380Y-88046190D01*
X187988571Y-88046190D02*
X187988571Y-88617619D01*
X188512380Y-88617619D02*
X187512380Y-88617619D01*
X191264761Y-80717142D02*
X191312380Y-80860000D01*
X191312380Y-81098095D01*
X191264761Y-81193333D01*
X191217142Y-81240952D01*
X191121904Y-81288571D01*
X191026666Y-81288571D01*
X190931428Y-81240952D01*
X190883809Y-81193333D01*
X190836190Y-81098095D01*
X190788571Y-80907619D01*
X190740952Y-80812380D01*
X190693333Y-80764761D01*
X190598095Y-80717142D01*
X190502857Y-80717142D01*
X190407619Y-80764761D01*
X190360000Y-80812380D01*
X190312380Y-80907619D01*
X190312380Y-81145714D01*
X190360000Y-81288571D01*
X190788571Y-81717142D02*
X190788571Y-82050476D01*
X191312380Y-82193333D02*
X191312380Y-81717142D01*
X190312380Y-81717142D01*
X190312380Y-82193333D01*
X191312380Y-83098095D02*
X191312380Y-82621904D01*
X190312380Y-82621904D01*
X191312380Y-83431428D02*
X190312380Y-83431428D01*
X190312380Y-83812380D01*
X190360000Y-83907619D01*
X190407619Y-83955238D01*
X190502857Y-84002857D01*
X190645714Y-84002857D01*
X190740952Y-83955238D01*
X190788571Y-83907619D01*
X190836190Y-83812380D01*
X190836190Y-83431428D01*
D12*
X169692380Y-79667738D02*
X170692380Y-80001071D01*
X169692380Y-80334404D01*
X171073333Y-80953452D02*
X171025714Y-80905833D01*
X170882857Y-80810595D01*
X170787619Y-80762976D01*
X170644761Y-80715357D01*
X170406666Y-80667738D01*
X170216190Y-80667738D01*
X169978095Y-80715357D01*
X169835238Y-80762976D01*
X169740000Y-80810595D01*
X169597142Y-80905833D01*
X169549523Y-80953452D01*
X170692380Y-81334404D02*
X169692380Y-81334404D01*
X170597142Y-82382023D02*
X170644761Y-82334404D01*
X170692380Y-82191547D01*
X170692380Y-82096309D01*
X170644761Y-81953452D01*
X170549523Y-81858214D01*
X170454285Y-81810595D01*
X170263809Y-81762976D01*
X170120952Y-81762976D01*
X169930476Y-81810595D01*
X169835238Y-81858214D01*
X169740000Y-81953452D01*
X169692380Y-82096309D01*
X169692380Y-82191547D01*
X169740000Y-82334404D01*
X169787619Y-82382023D01*
X170644761Y-82858214D02*
X170692380Y-82858214D01*
X170787619Y-82810595D01*
X170835238Y-82762976D01*
X170644761Y-83239166D02*
X170692380Y-83382023D01*
X170692380Y-83620119D01*
X170644761Y-83715357D01*
X170597142Y-83762976D01*
X170501904Y-83810595D01*
X170406666Y-83810595D01*
X170311428Y-83762976D01*
X170263809Y-83715357D01*
X170216190Y-83620119D01*
X170168571Y-83429642D01*
X170120952Y-83334404D01*
X170073333Y-83286785D01*
X169978095Y-83239166D01*
X169882857Y-83239166D01*
X169787619Y-83286785D01*
X169740000Y-83334404D01*
X169692380Y-83429642D01*
X169692380Y-83667738D01*
X169740000Y-83810595D01*
X170168571Y-84239166D02*
X170168571Y-84572500D01*
X170692380Y-84715357D02*
X170692380Y-84239166D01*
X169692380Y-84239166D01*
X169692380Y-84715357D01*
X170692380Y-85620119D02*
X170692380Y-85143928D01*
X169692380Y-85143928D01*
X170644761Y-86001071D02*
X170692380Y-86001071D01*
X170787619Y-85953452D01*
X170835238Y-85905833D01*
X170644761Y-86382023D02*
X170692380Y-86524880D01*
X170692380Y-86762976D01*
X170644761Y-86858214D01*
X170597142Y-86905833D01*
X170501904Y-86953452D01*
X170406666Y-86953452D01*
X170311428Y-86905833D01*
X170263809Y-86858214D01*
X170216190Y-86762976D01*
X170168571Y-86572500D01*
X170120952Y-86477261D01*
X170073333Y-86429642D01*
X169978095Y-86382023D01*
X169882857Y-86382023D01*
X169787619Y-86429642D01*
X169740000Y-86477261D01*
X169692380Y-86572500D01*
X169692380Y-86810595D01*
X169740000Y-86953452D01*
X170168571Y-87382023D02*
X170168571Y-87715357D01*
X170692380Y-87858214D02*
X170692380Y-87382023D01*
X169692380Y-87382023D01*
X169692380Y-87858214D01*
X170692380Y-88762976D02*
X170692380Y-88286785D01*
X169692380Y-88286785D01*
X170692380Y-89096309D02*
X169692380Y-89096309D01*
X169692380Y-89477261D01*
X169740000Y-89572500D01*
X169787619Y-89620119D01*
X169882857Y-89667738D01*
X170025714Y-89667738D01*
X170120952Y-89620119D01*
X170168571Y-89572500D01*
X170216190Y-89477261D01*
X170216190Y-89096309D01*
X171073333Y-90001071D02*
X171025714Y-90048690D01*
X170882857Y-90143928D01*
X170787619Y-90191547D01*
X170644761Y-90239166D01*
X170406666Y-90286785D01*
X170216190Y-90286785D01*
X169978095Y-90239166D01*
X169835238Y-90191547D01*
X169740000Y-90143928D01*
X169597142Y-90048690D01*
X169549523Y-90001071D01*
X170692380Y-91524880D02*
X170025714Y-91524880D01*
X170120952Y-91524880D02*
X170073333Y-91572500D01*
X170025714Y-91667738D01*
X170025714Y-91810595D01*
X170073333Y-91905833D01*
X170168571Y-91953452D01*
X170692380Y-91953452D01*
X170168571Y-91953452D02*
X170073333Y-92001071D01*
X170025714Y-92096309D01*
X170025714Y-92239166D01*
X170073333Y-92334404D01*
X170168571Y-92382023D01*
X170692380Y-92382023D01*
X170025714Y-93286785D02*
X170692380Y-93286785D01*
X170025714Y-92858214D02*
X170549523Y-92858214D01*
X170644761Y-92905833D01*
X170692380Y-93001071D01*
X170692380Y-93143928D01*
X170644761Y-93239166D01*
X170597142Y-93286785D01*
X170644761Y-93715357D02*
X170692380Y-93810595D01*
X170692380Y-94001071D01*
X170644761Y-94096309D01*
X170549523Y-94143928D01*
X170501904Y-94143928D01*
X170406666Y-94096309D01*
X170359047Y-94001071D01*
X170359047Y-93858214D01*
X170311428Y-93762976D01*
X170216190Y-93715357D01*
X170168571Y-93715357D01*
X170073333Y-93762976D01*
X170025714Y-93858214D01*
X170025714Y-94001071D01*
X170073333Y-94096309D01*
X170025714Y-94429642D02*
X170025714Y-94810595D01*
X169692380Y-94572500D02*
X170549523Y-94572500D01*
X170644761Y-94620119D01*
X170692380Y-94715357D01*
X170692380Y-94810595D01*
X170692380Y-95905833D02*
X169692380Y-95905833D01*
X170073333Y-95905833D02*
X170025714Y-96001071D01*
X170025714Y-96191547D01*
X170073333Y-96286785D01*
X170120952Y-96334404D01*
X170216190Y-96382023D01*
X170501904Y-96382023D01*
X170597142Y-96334404D01*
X170644761Y-96286785D01*
X170692380Y-96191547D01*
X170692380Y-96001071D01*
X170644761Y-95905833D01*
X170644761Y-97191547D02*
X170692380Y-97096309D01*
X170692380Y-96905833D01*
X170644761Y-96810595D01*
X170549523Y-96762976D01*
X170168571Y-96762976D01*
X170073333Y-96810595D01*
X170025714Y-96905833D01*
X170025714Y-97096309D01*
X170073333Y-97191547D01*
X170168571Y-97239166D01*
X170263809Y-97239166D01*
X170359047Y-96762976D01*
X170692380Y-98572500D02*
X170644761Y-98477261D01*
X170597142Y-98429642D01*
X170501904Y-98382023D01*
X170216190Y-98382023D01*
X170120952Y-98429642D01*
X170073333Y-98477261D01*
X170025714Y-98572500D01*
X170025714Y-98715357D01*
X170073333Y-98810595D01*
X170120952Y-98858214D01*
X170216190Y-98905833D01*
X170501904Y-98905833D01*
X170597142Y-98858214D01*
X170644761Y-98810595D01*
X170692380Y-98715357D01*
X170692380Y-98572500D01*
X170025714Y-99334404D02*
X170692380Y-99334404D01*
X170120952Y-99334404D02*
X170073333Y-99382023D01*
X170025714Y-99477261D01*
X170025714Y-99620119D01*
X170073333Y-99715357D01*
X170168571Y-99762976D01*
X170692380Y-99762976D01*
X170644761Y-100620119D02*
X170692380Y-100524880D01*
X170692380Y-100334404D01*
X170644761Y-100239166D01*
X170549523Y-100191547D01*
X170168571Y-100191547D01*
X170073333Y-100239166D01*
X170025714Y-100334404D01*
X170025714Y-100524880D01*
X170073333Y-100620119D01*
X170168571Y-100667738D01*
X170263809Y-100667738D01*
X170359047Y-100191547D01*
X170692380Y-102001071D02*
X170644761Y-101905833D01*
X170597142Y-101858214D01*
X170501904Y-101810595D01*
X170216190Y-101810595D01*
X170120952Y-101858214D01*
X170073333Y-101905833D01*
X170025714Y-102001071D01*
X170025714Y-102143928D01*
X170073333Y-102239166D01*
X170120952Y-102286785D01*
X170216190Y-102334404D01*
X170501904Y-102334404D01*
X170597142Y-102286785D01*
X170644761Y-102239166D01*
X170692380Y-102143928D01*
X170692380Y-102001071D01*
X170025714Y-102620119D02*
X170025714Y-103001071D01*
X170692380Y-102762976D02*
X169835238Y-102762976D01*
X169740000Y-102810595D01*
X169692380Y-102905833D01*
X169692380Y-103001071D01*
X170025714Y-103953452D02*
X170025714Y-104334404D01*
X169692380Y-104096309D02*
X170549523Y-104096309D01*
X170644761Y-104143928D01*
X170692380Y-104239166D01*
X170692380Y-104334404D01*
X170692380Y-104667738D02*
X169692380Y-104667738D01*
X170692380Y-105096309D02*
X170168571Y-105096309D01*
X170073333Y-105048690D01*
X170025714Y-104953452D01*
X170025714Y-104810595D01*
X170073333Y-104715357D01*
X170120952Y-104667738D01*
X170644761Y-105953452D02*
X170692380Y-105858214D01*
X170692380Y-105667738D01*
X170644761Y-105572500D01*
X170549523Y-105524880D01*
X170168571Y-105524880D01*
X170073333Y-105572500D01*
X170025714Y-105667738D01*
X170025714Y-105858214D01*
X170073333Y-105953452D01*
X170168571Y-106001071D01*
X170263809Y-106001071D01*
X170359047Y-105524880D01*
X170692380Y-106429642D02*
X170025714Y-106429642D01*
X170120952Y-106429642D02*
X170073333Y-106477261D01*
X170025714Y-106572500D01*
X170025714Y-106715357D01*
X170073333Y-106810595D01*
X170168571Y-106858214D01*
X170692380Y-106858214D01*
X170168571Y-106858214D02*
X170073333Y-106905833D01*
X170025714Y-107001071D01*
X170025714Y-107143928D01*
X170073333Y-107239166D01*
X170168571Y-107286785D01*
X170692380Y-107286785D01*
X170597142Y-107762976D02*
X170644761Y-107810595D01*
X170692380Y-107762976D01*
X170644761Y-107715357D01*
X170597142Y-107762976D01*
X170692380Y-107762976D01*
X171302380Y-79667738D02*
X172302380Y-80001071D01*
X171302380Y-80334404D01*
X172683333Y-80953452D02*
X172635714Y-80905833D01*
X172492857Y-80810595D01*
X172397619Y-80762976D01*
X172254761Y-80715357D01*
X172016666Y-80667738D01*
X171826190Y-80667738D01*
X171588095Y-80715357D01*
X171445238Y-80762976D01*
X171350000Y-80810595D01*
X171207142Y-80905833D01*
X171159523Y-80953452D01*
X172302380Y-81334404D02*
X171302380Y-81334404D01*
X172302380Y-81810595D02*
X171302380Y-81810595D01*
X171302380Y-82191547D01*
X171350000Y-82286785D01*
X171397619Y-82334404D01*
X171492857Y-82382023D01*
X171635714Y-82382023D01*
X171730952Y-82334404D01*
X171778571Y-82286785D01*
X171826190Y-82191547D01*
X171826190Y-81810595D01*
X171397619Y-82762976D02*
X171350000Y-82810595D01*
X171302380Y-82905833D01*
X171302380Y-83143928D01*
X171350000Y-83239166D01*
X171397619Y-83286785D01*
X171492857Y-83334404D01*
X171588095Y-83334404D01*
X171730952Y-83286785D01*
X172302380Y-82715357D01*
X172302380Y-83334404D01*
X171302380Y-83667738D02*
X171302380Y-84334404D01*
X172302380Y-83905833D01*
X171397619Y-84667738D02*
X171350000Y-84715357D01*
X171302380Y-84810595D01*
X171302380Y-85048690D01*
X171350000Y-85143928D01*
X171397619Y-85191547D01*
X171492857Y-85239166D01*
X171588095Y-85239166D01*
X171730952Y-85191547D01*
X172302380Y-84620119D01*
X172302380Y-85239166D01*
X172302380Y-86191547D02*
X172302380Y-85620119D01*
X172302380Y-85905833D02*
X171302380Y-85905833D01*
X171445238Y-85810595D01*
X171540476Y-85715357D01*
X171588095Y-85620119D01*
X172635714Y-86858214D02*
X171207142Y-86858214D01*
X172302380Y-87572500D02*
X171302380Y-87572500D01*
X172302380Y-88048690D02*
X171302380Y-88048690D01*
X171302380Y-88429642D01*
X171350000Y-88524880D01*
X171397619Y-88572500D01*
X171492857Y-88620119D01*
X171635714Y-88620119D01*
X171730952Y-88572500D01*
X171778571Y-88524880D01*
X171826190Y-88429642D01*
X171826190Y-88048690D01*
X171397619Y-89001071D02*
X171350000Y-89048690D01*
X171302380Y-89143928D01*
X171302380Y-89382023D01*
X171350000Y-89477261D01*
X171397619Y-89524880D01*
X171492857Y-89572500D01*
X171588095Y-89572500D01*
X171730952Y-89524880D01*
X172302380Y-88953452D01*
X172302380Y-89572500D01*
X171302380Y-89905833D02*
X171302380Y-90572500D01*
X172302380Y-90143928D01*
X171397619Y-90905833D02*
X171350000Y-90953452D01*
X171302380Y-91048690D01*
X171302380Y-91286785D01*
X171350000Y-91382023D01*
X171397619Y-91429642D01*
X171492857Y-91477261D01*
X171588095Y-91477261D01*
X171730952Y-91429642D01*
X172302380Y-90858214D01*
X172302380Y-91477261D01*
X172302380Y-92429642D02*
X172302380Y-91858214D01*
X172302380Y-92143928D02*
X171302380Y-92143928D01*
X171445238Y-92048690D01*
X171540476Y-91953452D01*
X171588095Y-91858214D01*
X172397619Y-92620119D02*
X172397619Y-93382023D01*
X172302380Y-93620119D02*
X171302380Y-93620119D01*
X171302380Y-93858214D01*
X171350000Y-94001071D01*
X171445238Y-94096309D01*
X171540476Y-94143928D01*
X171730952Y-94191547D01*
X171873809Y-94191547D01*
X172064285Y-94143928D01*
X172159523Y-94096309D01*
X172254761Y-94001071D01*
X172302380Y-93858214D01*
X172302380Y-93620119D01*
X172254761Y-94667738D02*
X172302380Y-94667738D01*
X172397619Y-94620119D01*
X172445238Y-94572500D01*
X172302380Y-95096309D02*
X171302380Y-95096309D01*
X171778571Y-95096309D02*
X171778571Y-95667738D01*
X172302380Y-95667738D02*
X171302380Y-95667738D01*
X172302380Y-96143928D02*
X171635714Y-96143928D01*
X171302380Y-96143928D02*
X171350000Y-96096309D01*
X171397619Y-96143928D01*
X171350000Y-96191547D01*
X171302380Y-96143928D01*
X171397619Y-96143928D01*
X171635714Y-97048690D02*
X172445238Y-97048690D01*
X172540476Y-97001071D01*
X172588095Y-96953452D01*
X172635714Y-96858214D01*
X172635714Y-96715357D01*
X172588095Y-96620119D01*
X172254761Y-97048690D02*
X172302380Y-96953452D01*
X172302380Y-96762976D01*
X172254761Y-96667738D01*
X172207142Y-96620119D01*
X172111904Y-96572500D01*
X171826190Y-96572500D01*
X171730952Y-96620119D01*
X171683333Y-96667738D01*
X171635714Y-96762976D01*
X171635714Y-96953452D01*
X171683333Y-97048690D01*
X172302380Y-97524880D02*
X171302380Y-97524880D01*
X172302380Y-97953452D02*
X171778571Y-97953452D01*
X171683333Y-97905833D01*
X171635714Y-97810595D01*
X171635714Y-97667738D01*
X171683333Y-97572500D01*
X171730952Y-97524880D01*
X172254761Y-98477261D02*
X172302380Y-98477261D01*
X172397619Y-98429642D01*
X172445238Y-98382023D01*
X171778571Y-99239166D02*
X171778571Y-98905833D01*
X172302380Y-98905833D02*
X171302380Y-98905833D01*
X171302380Y-99382023D01*
X172302380Y-99905833D02*
X172254761Y-99810595D01*
X172159523Y-99762976D01*
X171302380Y-99762976D01*
X172302380Y-100429642D02*
X172254761Y-100334404D01*
X172207142Y-100286785D01*
X172111904Y-100239166D01*
X171826190Y-100239166D01*
X171730952Y-100286785D01*
X171683333Y-100334404D01*
X171635714Y-100429642D01*
X171635714Y-100572500D01*
X171683333Y-100667738D01*
X171730952Y-100715357D01*
X171826190Y-100762976D01*
X172111904Y-100762976D01*
X172207142Y-100715357D01*
X172254761Y-100667738D01*
X172302380Y-100572500D01*
X172302380Y-100429642D01*
X172302380Y-101620119D02*
X171778571Y-101620119D01*
X171683333Y-101572500D01*
X171635714Y-101477261D01*
X171635714Y-101286785D01*
X171683333Y-101191547D01*
X172254761Y-101620119D02*
X172302380Y-101524880D01*
X172302380Y-101286785D01*
X172254761Y-101191547D01*
X172159523Y-101143928D01*
X172064285Y-101143928D01*
X171969047Y-101191547D01*
X171921428Y-101286785D01*
X171921428Y-101524880D01*
X171873809Y-101620119D01*
X171635714Y-101953452D02*
X171635714Y-102334404D01*
X171302380Y-102096309D02*
X172159523Y-102096309D01*
X172254761Y-102143928D01*
X172302380Y-102239166D01*
X172302380Y-102334404D01*
X172302380Y-102667738D02*
X171635714Y-102667738D01*
X171302380Y-102667738D02*
X171350000Y-102620119D01*
X171397619Y-102667738D01*
X171350000Y-102715357D01*
X171302380Y-102667738D01*
X171397619Y-102667738D01*
X171635714Y-103143928D02*
X172302380Y-103143928D01*
X171730952Y-103143928D02*
X171683333Y-103191547D01*
X171635714Y-103286785D01*
X171635714Y-103429642D01*
X171683333Y-103524880D01*
X171778571Y-103572500D01*
X172302380Y-103572500D01*
X171635714Y-104477261D02*
X172445238Y-104477261D01*
X172540476Y-104429642D01*
X172588095Y-104382023D01*
X172635714Y-104286785D01*
X172635714Y-104143928D01*
X172588095Y-104048690D01*
X172254761Y-104477261D02*
X172302380Y-104382023D01*
X172302380Y-104191547D01*
X172254761Y-104096309D01*
X172207142Y-104048690D01*
X172111904Y-104001071D01*
X171826190Y-104001071D01*
X171730952Y-104048690D01*
X171683333Y-104096309D01*
X171635714Y-104191547D01*
X171635714Y-104382023D01*
X171683333Y-104477261D01*
X172683333Y-104858214D02*
X172635714Y-104905833D01*
X172492857Y-105001071D01*
X172397619Y-105048690D01*
X172254761Y-105096309D01*
X172016666Y-105143928D01*
X171826190Y-105143928D01*
X171588095Y-105096309D01*
X171445238Y-105048690D01*
X171350000Y-105001071D01*
X171207142Y-104905833D01*
X171159523Y-104858214D01*
X171778571Y-105620119D02*
X171778571Y-106382023D01*
X172064285Y-106382023D02*
X172064285Y-105620119D01*
X171397619Y-106810595D02*
X171350000Y-106858214D01*
X171302380Y-106953452D01*
X171302380Y-107191547D01*
X171350000Y-107286785D01*
X171397619Y-107334404D01*
X171492857Y-107382023D01*
X171588095Y-107382023D01*
X171730952Y-107334404D01*
X172302380Y-106762976D01*
X172302380Y-107382023D01*
X171302380Y-108001071D02*
X171302380Y-108096309D01*
X171350000Y-108191547D01*
X171397619Y-108239166D01*
X171492857Y-108286785D01*
X171683333Y-108334404D01*
X171921428Y-108334404D01*
X172111904Y-108286785D01*
X172207142Y-108239166D01*
X172254761Y-108191547D01*
X172302380Y-108096309D01*
X172302380Y-108001071D01*
X172254761Y-107905833D01*
X172207142Y-107858214D01*
X172111904Y-107810595D01*
X171921428Y-107762976D01*
X171683333Y-107762976D01*
X171492857Y-107810595D01*
X171397619Y-107858214D01*
X171350000Y-107905833D01*
X171302380Y-108001071D01*
X172912380Y-79667738D02*
X173912380Y-80001071D01*
X172912380Y-80334404D01*
X174293333Y-80953452D02*
X174245714Y-80905833D01*
X174102857Y-80810595D01*
X174007619Y-80762976D01*
X173864761Y-80715357D01*
X173626666Y-80667738D01*
X173436190Y-80667738D01*
X173198095Y-80715357D01*
X173055238Y-80762976D01*
X172960000Y-80810595D01*
X172817142Y-80905833D01*
X172769523Y-80953452D01*
X173912380Y-81334404D02*
X172912380Y-81334404D01*
X173912380Y-81810595D02*
X172912380Y-81810595D01*
X172912380Y-82191547D01*
X172960000Y-82286785D01*
X173007619Y-82334404D01*
X173102857Y-82382023D01*
X173245714Y-82382023D01*
X173340952Y-82334404D01*
X173388571Y-82286785D01*
X173436190Y-82191547D01*
X173436190Y-81810595D01*
X173007619Y-82762976D02*
X172960000Y-82810595D01*
X172912380Y-82905833D01*
X172912380Y-83143928D01*
X172960000Y-83239166D01*
X173007619Y-83286785D01*
X173102857Y-83334404D01*
X173198095Y-83334404D01*
X173340952Y-83286785D01*
X173912380Y-82715357D01*
X173912380Y-83334404D01*
X172912380Y-83667738D02*
X172912380Y-84334404D01*
X173912380Y-83905833D01*
X173007619Y-84667738D02*
X172960000Y-84715357D01*
X172912380Y-84810595D01*
X172912380Y-85048690D01*
X172960000Y-85143928D01*
X173007619Y-85191547D01*
X173102857Y-85239166D01*
X173198095Y-85239166D01*
X173340952Y-85191547D01*
X173912380Y-84620119D01*
X173912380Y-85239166D01*
X173912380Y-86191547D02*
X173912380Y-85620119D01*
X173912380Y-85905833D02*
X172912380Y-85905833D01*
X173055238Y-85810595D01*
X173150476Y-85715357D01*
X173198095Y-85620119D01*
X174245714Y-86858214D02*
X172817142Y-86858214D01*
X173912380Y-87572500D02*
X172912380Y-87572500D01*
X173912380Y-88048690D02*
X172912380Y-88048690D01*
X172912380Y-88429642D01*
X172960000Y-88524880D01*
X173007619Y-88572499D01*
X173102857Y-88620119D01*
X173245714Y-88620119D01*
X173340952Y-88572499D01*
X173388571Y-88524880D01*
X173436190Y-88429642D01*
X173436190Y-88048690D01*
X173007619Y-89001071D02*
X172960000Y-89048690D01*
X172912380Y-89143928D01*
X172912380Y-89382023D01*
X172960000Y-89477261D01*
X173007619Y-89524880D01*
X173102857Y-89572499D01*
X173198095Y-89572499D01*
X173340952Y-89524880D01*
X173912380Y-88953452D01*
X173912380Y-89572499D01*
X172912380Y-89905833D02*
X172912380Y-90572499D01*
X173912380Y-90143928D01*
X173007619Y-90905833D02*
X172960000Y-90953452D01*
X172912380Y-91048690D01*
X172912380Y-91286785D01*
X172960000Y-91382023D01*
X173007619Y-91429642D01*
X173102857Y-91477261D01*
X173198095Y-91477261D01*
X173340952Y-91429642D01*
X173912380Y-90858214D01*
X173912380Y-91477261D01*
X173912380Y-92429642D02*
X173912380Y-91858214D01*
X173912380Y-92143928D02*
X172912380Y-92143928D01*
X173055238Y-92048690D01*
X173150476Y-91953452D01*
X173198095Y-91858214D01*
X174007619Y-92620119D02*
X174007619Y-93382023D01*
X173912380Y-93620119D02*
X172912380Y-93620119D01*
X172912380Y-93858214D01*
X172960000Y-94001071D01*
X173055238Y-94096309D01*
X173150476Y-94143928D01*
X173340952Y-94191547D01*
X173483809Y-94191547D01*
X173674285Y-94143928D01*
X173769523Y-94096309D01*
X173864761Y-94001071D01*
X173912380Y-93858214D01*
X173912380Y-93620119D01*
X173864761Y-94667738D02*
X173912380Y-94667738D01*
X174007619Y-94620119D01*
X174055238Y-94572499D01*
X173388571Y-95429642D02*
X173388571Y-95096309D01*
X173912380Y-95096309D02*
X172912380Y-95096309D01*
X172912380Y-95572499D01*
X173864761Y-96001071D02*
X173912380Y-96001071D01*
X174007619Y-95953452D01*
X174055238Y-95905833D01*
X173388571Y-96762976D02*
X173388571Y-96429642D01*
X173912380Y-96429642D02*
X172912380Y-96429642D01*
X172912380Y-96905833D01*
X174293333Y-97191547D02*
X174245714Y-97239166D01*
X174102857Y-97334404D01*
X174007619Y-97382023D01*
X173864761Y-97429642D01*
X173626666Y-97477261D01*
X173436190Y-97477261D01*
X173198095Y-97429642D01*
X173055238Y-97382023D01*
X172960000Y-97334404D01*
X172817142Y-97239166D01*
X172769523Y-97191547D01*
X173388571Y-97953452D02*
X173388571Y-98715357D01*
X173674285Y-98715357D02*
X173674285Y-97953452D01*
X173912380Y-99715357D02*
X173912380Y-99143928D01*
X173912380Y-99429642D02*
X172912380Y-99429642D01*
X173055238Y-99334404D01*
X173150476Y-99239166D01*
X173198095Y-99143928D01*
X172912380Y-100620119D02*
X172912380Y-100143928D01*
X173388571Y-100096309D01*
X173340952Y-100143928D01*
X173293333Y-100239166D01*
X173293333Y-100477261D01*
X173340952Y-100572499D01*
X173388571Y-100620119D01*
X173483809Y-100667738D01*
X173721904Y-100667738D01*
X173817142Y-100620119D01*
X173864761Y-100572499D01*
X173912380Y-100477261D01*
X173912380Y-100239166D01*
X173864761Y-100143928D01*
X173817142Y-100096309D01*
X174522380Y-79667738D02*
X175522380Y-80001071D01*
X174522380Y-80334404D01*
X175903333Y-80953452D02*
X175855714Y-80905833D01*
X175712857Y-80810595D01*
X175617619Y-80762976D01*
X175474761Y-80715357D01*
X175236666Y-80667738D01*
X175046190Y-80667738D01*
X174808095Y-80715357D01*
X174665238Y-80762976D01*
X174570000Y-80810595D01*
X174427142Y-80905833D01*
X174379523Y-80953452D01*
X175522380Y-81334404D02*
X174522380Y-81334404D01*
X175522380Y-81810595D02*
X174522380Y-81810595D01*
X174522380Y-82191547D01*
X174570000Y-82286785D01*
X174617619Y-82334404D01*
X174712857Y-82382023D01*
X174855714Y-82382023D01*
X174950952Y-82334404D01*
X174998571Y-82286785D01*
X175046190Y-82191547D01*
X175046190Y-81810595D01*
X174617619Y-82762976D02*
X174570000Y-82810595D01*
X174522380Y-82905833D01*
X174522380Y-83143928D01*
X174570000Y-83239166D01*
X174617619Y-83286785D01*
X174712857Y-83334404D01*
X174808095Y-83334404D01*
X174950952Y-83286785D01*
X175522380Y-82715357D01*
X175522380Y-83334404D01*
X174522380Y-83667738D02*
X174522380Y-84334404D01*
X175522380Y-83905833D01*
X174617619Y-84667738D02*
X174570000Y-84715357D01*
X174522380Y-84810595D01*
X174522380Y-85048690D01*
X174570000Y-85143928D01*
X174617619Y-85191547D01*
X174712857Y-85239166D01*
X174808095Y-85239166D01*
X174950952Y-85191547D01*
X175522380Y-84620119D01*
X175522380Y-85239166D01*
X175522380Y-86191547D02*
X175522380Y-85620119D01*
X175522380Y-85905833D02*
X174522380Y-85905833D01*
X174665238Y-85810595D01*
X174760476Y-85715357D01*
X174808095Y-85620119D01*
X175855714Y-86858214D02*
X174427142Y-86858214D01*
X175522380Y-87572500D02*
X174522380Y-87572500D01*
X175522380Y-88048690D02*
X174522380Y-88048690D01*
X174522380Y-88429642D01*
X174570000Y-88524880D01*
X174617619Y-88572499D01*
X174712857Y-88620119D01*
X174855714Y-88620119D01*
X174950952Y-88572499D01*
X174998571Y-88524880D01*
X175046190Y-88429642D01*
X175046190Y-88048690D01*
X174617619Y-89001071D02*
X174570000Y-89048690D01*
X174522380Y-89143928D01*
X174522380Y-89382023D01*
X174570000Y-89477261D01*
X174617619Y-89524880D01*
X174712857Y-89572499D01*
X174808095Y-89572499D01*
X174950952Y-89524880D01*
X175522380Y-88953452D01*
X175522380Y-89572499D01*
X174522380Y-89905833D02*
X174522380Y-90572499D01*
X175522380Y-90143928D01*
X174617619Y-90905833D02*
X174570000Y-90953452D01*
X174522380Y-91048690D01*
X174522380Y-91286785D01*
X174570000Y-91382023D01*
X174617619Y-91429642D01*
X174712857Y-91477261D01*
X174808095Y-91477261D01*
X174950952Y-91429642D01*
X175522380Y-90858214D01*
X175522380Y-91477261D01*
X175522380Y-92429642D02*
X175522380Y-91858214D01*
X175522380Y-92143928D02*
X174522380Y-92143928D01*
X174665238Y-92048690D01*
X174760476Y-91953452D01*
X174808095Y-91858214D01*
X175617619Y-92620119D02*
X175617619Y-93382023D01*
X175522380Y-93620119D02*
X174522380Y-93620119D01*
X174522380Y-93858214D01*
X174570000Y-94001071D01*
X174665238Y-94096309D01*
X174760476Y-94143928D01*
X174950952Y-94191547D01*
X175093809Y-94191547D01*
X175284285Y-94143928D01*
X175379523Y-94096309D01*
X175474761Y-94001071D01*
X175522380Y-93858214D01*
X175522380Y-93620119D01*
X175474761Y-94667738D02*
X175522380Y-94667738D01*
X175617619Y-94620119D01*
X175665238Y-94572499D01*
X175522380Y-95572499D02*
X175522380Y-95096309D01*
X174522380Y-95096309D01*
X175522380Y-96048690D02*
X175474761Y-95953452D01*
X175427142Y-95905833D01*
X175331904Y-95858214D01*
X175046190Y-95858214D01*
X174950952Y-95905833D01*
X174903333Y-95953452D01*
X174855714Y-96048690D01*
X174855714Y-96191547D01*
X174903333Y-96286785D01*
X174950952Y-96334404D01*
X175046190Y-96382023D01*
X175331904Y-96382023D01*
X175427142Y-96334404D01*
X175474761Y-96286785D01*
X175522380Y-96191547D01*
X175522380Y-96048690D01*
X174855714Y-96715357D02*
X175522380Y-96905833D01*
X175046190Y-97096309D01*
X175522380Y-97286785D01*
X174855714Y-97477261D01*
X175474761Y-97905833D02*
X175522380Y-97905833D01*
X175617619Y-97858214D01*
X175665238Y-97810595D01*
X174998571Y-98667738D02*
X174998571Y-98334404D01*
X175522380Y-98334404D02*
X174522380Y-98334404D01*
X174522380Y-98810595D01*
X175903333Y-99096309D02*
X175855714Y-99143928D01*
X175712857Y-99239166D01*
X175617619Y-99286785D01*
X175474761Y-99334404D01*
X175236666Y-99382023D01*
X175046190Y-99382023D01*
X174808095Y-99334404D01*
X174665238Y-99286785D01*
X174570000Y-99239166D01*
X174427142Y-99143928D01*
X174379523Y-99096309D01*
X174998571Y-99858214D02*
X174998571Y-100620119D01*
X175284285Y-100620119D02*
X175284285Y-99858214D01*
X174522380Y-101572499D02*
X174522380Y-101096309D01*
X174998571Y-101048690D01*
X174950952Y-101096309D01*
X174903333Y-101191547D01*
X174903333Y-101429642D01*
X174950952Y-101524880D01*
X174998571Y-101572499D01*
X175093809Y-101620119D01*
X175331904Y-101620119D01*
X175427142Y-101572499D01*
X175474761Y-101524880D01*
X175522380Y-101429642D01*
X175522380Y-101191547D01*
X175474761Y-101096309D01*
X175427142Y-101048690D01*
X176132380Y-79667738D02*
X177132380Y-80001071D01*
X176132380Y-80334404D01*
X177513333Y-80953452D02*
X177465714Y-80905833D01*
X177322857Y-80810595D01*
X177227619Y-80762976D01*
X177084761Y-80715357D01*
X176846666Y-80667738D01*
X176656190Y-80667738D01*
X176418095Y-80715357D01*
X176275238Y-80762976D01*
X176180000Y-80810595D01*
X176037142Y-80905833D01*
X175989523Y-80953452D01*
X177132380Y-81334404D02*
X176132380Y-81334404D01*
X177132380Y-81810595D02*
X176132380Y-81810595D01*
X176132380Y-82191547D01*
X176180000Y-82286785D01*
X176227619Y-82334404D01*
X176322857Y-82382023D01*
X176465714Y-82382023D01*
X176560952Y-82334404D01*
X176608571Y-82286785D01*
X176656190Y-82191547D01*
X176656190Y-81810595D01*
X176227619Y-82762976D02*
X176180000Y-82810595D01*
X176132380Y-82905833D01*
X176132380Y-83143928D01*
X176180000Y-83239166D01*
X176227619Y-83286785D01*
X176322857Y-83334404D01*
X176418095Y-83334404D01*
X176560952Y-83286785D01*
X177132380Y-82715357D01*
X177132380Y-83334404D01*
X176132380Y-83667738D02*
X176132380Y-84334404D01*
X177132380Y-83905833D01*
X176227619Y-84667738D02*
X176180000Y-84715357D01*
X176132380Y-84810595D01*
X176132380Y-85048690D01*
X176180000Y-85143928D01*
X176227619Y-85191547D01*
X176322857Y-85239166D01*
X176418095Y-85239166D01*
X176560952Y-85191547D01*
X177132380Y-84620119D01*
X177132380Y-85239166D01*
X177132380Y-86191547D02*
X177132380Y-85620119D01*
X177132380Y-85905833D02*
X176132380Y-85905833D01*
X176275238Y-85810595D01*
X176370476Y-85715357D01*
X176418095Y-85620119D01*
X177227619Y-86382023D02*
X177227619Y-87143928D01*
X177132380Y-87382023D02*
X176132380Y-87382023D01*
X176132380Y-87620119D01*
X176180000Y-87762976D01*
X176275238Y-87858214D01*
X176370476Y-87905833D01*
X176560952Y-87953452D01*
X176703809Y-87953452D01*
X176894285Y-87905833D01*
X176989523Y-87858214D01*
X177084761Y-87762976D01*
X177132380Y-87620119D01*
X177132380Y-87382023D01*
X177084761Y-88429642D02*
X177132380Y-88429642D01*
X177227619Y-88382023D01*
X177275238Y-88334404D01*
X176608571Y-89191547D02*
X176608571Y-88858214D01*
X177132380Y-88858214D02*
X176132380Y-88858214D01*
X176132380Y-89334404D01*
X177084761Y-89762976D02*
X177132380Y-89762976D01*
X177227619Y-89715357D01*
X177275238Y-89667738D01*
X177132380Y-90191547D02*
X176132380Y-90191547D01*
X176608571Y-90191547D02*
X176608571Y-90762976D01*
X177132380Y-90762976D02*
X176132380Y-90762976D01*
X177513333Y-91143928D02*
X177465714Y-91191547D01*
X177322857Y-91286785D01*
X177227619Y-91334404D01*
X177084761Y-91382023D01*
X176846666Y-91429642D01*
X176656190Y-91429642D01*
X176418095Y-91382023D01*
X176275238Y-91334404D01*
X176180000Y-91286785D01*
X176037142Y-91191547D01*
X175989523Y-91143928D01*
X176608571Y-91905833D02*
X176608571Y-92667738D01*
X176894285Y-92667738D02*
X176894285Y-91905833D01*
X177132380Y-93667738D02*
X177132380Y-93096309D01*
X177132380Y-93382023D02*
X176132380Y-93382023D01*
X176275238Y-93286785D01*
X176370476Y-93191547D01*
X176418095Y-93096309D01*
X176227619Y-94048690D02*
X176180000Y-94096309D01*
X176132380Y-94191547D01*
X176132380Y-94429642D01*
X176180000Y-94524880D01*
X176227619Y-94572499D01*
X176322857Y-94620119D01*
X176418095Y-94620119D01*
X176560952Y-94572499D01*
X177132380Y-94001071D01*
X177132380Y-94620119D01*
X177742380Y-79667738D02*
X178742380Y-80001071D01*
X177742380Y-80334404D01*
X179123333Y-80953452D02*
X179075714Y-80905833D01*
X178932857Y-80810595D01*
X178837619Y-80762976D01*
X178694761Y-80715357D01*
X178456666Y-80667738D01*
X178266190Y-80667738D01*
X178028095Y-80715357D01*
X177885238Y-80762976D01*
X177790000Y-80810595D01*
X177647142Y-80905833D01*
X177599523Y-80953452D01*
X178742380Y-81334404D02*
X177742380Y-81334404D01*
X178742380Y-81810595D02*
X177742380Y-81810595D01*
X177742380Y-82191547D01*
X177790000Y-82286785D01*
X177837619Y-82334404D01*
X177932857Y-82382023D01*
X178075714Y-82382023D01*
X178170952Y-82334404D01*
X178218571Y-82286785D01*
X178266190Y-82191547D01*
X178266190Y-81810595D01*
X177837619Y-82762976D02*
X177790000Y-82810595D01*
X177742380Y-82905833D01*
X177742380Y-83143928D01*
X177790000Y-83239166D01*
X177837619Y-83286785D01*
X177932857Y-83334404D01*
X178028095Y-83334404D01*
X178170952Y-83286785D01*
X178742380Y-82715357D01*
X178742380Y-83334404D01*
X177742380Y-83667738D02*
X177742380Y-84334404D01*
X178742380Y-83905833D01*
X177837619Y-84667738D02*
X177790000Y-84715357D01*
X177742380Y-84810595D01*
X177742380Y-85048690D01*
X177790000Y-85143928D01*
X177837619Y-85191547D01*
X177932857Y-85239166D01*
X178028095Y-85239166D01*
X178170952Y-85191547D01*
X178742380Y-84620119D01*
X178742380Y-85239166D01*
X178742380Y-86191547D02*
X178742380Y-85620119D01*
X178742380Y-85905833D02*
X177742380Y-85905833D01*
X177885238Y-85810595D01*
X177980476Y-85715357D01*
X178028095Y-85620119D01*
X178837619Y-86382023D02*
X178837619Y-87143928D01*
X178742380Y-87382023D02*
X177742380Y-87382023D01*
X177742380Y-87620119D01*
X177790000Y-87762976D01*
X177885238Y-87858214D01*
X177980476Y-87905833D01*
X178170952Y-87953452D01*
X178313809Y-87953452D01*
X178504285Y-87905833D01*
X178599523Y-87858214D01*
X178694761Y-87762976D01*
X178742380Y-87620119D01*
X178742380Y-87382023D01*
X178694761Y-88429642D02*
X178742380Y-88429642D01*
X178837619Y-88382023D01*
X178885238Y-88334404D01*
X178218571Y-89191547D02*
X178218571Y-88858214D01*
X178742380Y-88858214D02*
X177742380Y-88858214D01*
X177742380Y-89334404D01*
X178694761Y-89762976D02*
X178742380Y-89762976D01*
X178837619Y-89715357D01*
X178885238Y-89667738D01*
X178742380Y-90667738D02*
X178742380Y-90191547D01*
X177742380Y-90191547D01*
X179123333Y-90905833D02*
X179075714Y-90953452D01*
X178932857Y-91048690D01*
X178837619Y-91096309D01*
X178694761Y-91143928D01*
X178456666Y-91191547D01*
X178266190Y-91191547D01*
X178028095Y-91143928D01*
X177885238Y-91096309D01*
X177790000Y-91048690D01*
X177647142Y-90953452D01*
X177599523Y-90905833D01*
X178218571Y-91667738D02*
X178218571Y-92429642D01*
X178504285Y-92429642D02*
X178504285Y-91667738D01*
X178742380Y-92953452D02*
X178742380Y-93143928D01*
X178694761Y-93239166D01*
X178647142Y-93286785D01*
X178504285Y-93382023D01*
X178313809Y-93429642D01*
X177932857Y-93429642D01*
X177837619Y-93382023D01*
X177790000Y-93334404D01*
X177742380Y-93239166D01*
X177742380Y-93048690D01*
X177790000Y-92953452D01*
X177837619Y-92905833D01*
X177932857Y-92858214D01*
X178170952Y-92858214D01*
X178266190Y-92905833D01*
X178313809Y-92953452D01*
X178361428Y-93048690D01*
X178361428Y-93239166D01*
X178313809Y-93334404D01*
X178266190Y-93382023D01*
X178170952Y-93429642D01*
X179352380Y-79667738D02*
X180352380Y-80001071D01*
X179352380Y-80334404D01*
X180733333Y-80953452D02*
X180685714Y-80905833D01*
X180542857Y-80810595D01*
X180447619Y-80762976D01*
X180304761Y-80715357D01*
X180066666Y-80667738D01*
X179876190Y-80667738D01*
X179638095Y-80715357D01*
X179495238Y-80762976D01*
X179400000Y-80810595D01*
X179257142Y-80905833D01*
X179209523Y-80953452D01*
X180352380Y-81334404D02*
X179352380Y-81334404D01*
X180352380Y-81810595D02*
X179352380Y-81810595D01*
X179352380Y-82191547D01*
X179400000Y-82286785D01*
X179447619Y-82334404D01*
X179542857Y-82382023D01*
X179685714Y-82382023D01*
X179780952Y-82334404D01*
X179828571Y-82286785D01*
X179876190Y-82191547D01*
X179876190Y-81810595D01*
X179447619Y-82762976D02*
X179400000Y-82810595D01*
X179352380Y-82905833D01*
X179352380Y-83143928D01*
X179400000Y-83239166D01*
X179447619Y-83286785D01*
X179542857Y-83334404D01*
X179638095Y-83334404D01*
X179780952Y-83286785D01*
X180352380Y-82715357D01*
X180352380Y-83334404D01*
X179352380Y-83667738D02*
X179352380Y-84334404D01*
X180352380Y-83905833D01*
X179447619Y-84667738D02*
X179400000Y-84715357D01*
X179352380Y-84810595D01*
X179352380Y-85048690D01*
X179400000Y-85143928D01*
X179447619Y-85191547D01*
X179542857Y-85239166D01*
X179638095Y-85239166D01*
X179780952Y-85191547D01*
X180352380Y-84620119D01*
X180352380Y-85239166D01*
X180352380Y-86191547D02*
X180352380Y-85620119D01*
X180352380Y-85905833D02*
X179352380Y-85905833D01*
X179495238Y-85810595D01*
X179590476Y-85715357D01*
X179638095Y-85620119D01*
X180447619Y-86382023D02*
X180447619Y-87143928D01*
X180352380Y-87382023D02*
X179352380Y-87382023D01*
X180066666Y-87715357D01*
X179352380Y-88048690D01*
X180352380Y-88048690D01*
X180066666Y-88477261D02*
X180066666Y-88953452D01*
X180352380Y-88382023D02*
X179352380Y-88715357D01*
X180352380Y-89048690D01*
X179352380Y-89286785D02*
X180352380Y-89953452D01*
X179352380Y-89953452D02*
X180352380Y-89286785D01*
X180352380Y-90858214D02*
X180352380Y-90286785D01*
X180352380Y-90572500D02*
X179352380Y-90572500D01*
X179495238Y-90477261D01*
X179590476Y-90382023D01*
X179638095Y-90286785D01*
X179447619Y-91239166D02*
X179400000Y-91286785D01*
X179352380Y-91382023D01*
X179352380Y-91620119D01*
X179400000Y-91715357D01*
X179447619Y-91762976D01*
X179542857Y-91810595D01*
X179638095Y-91810595D01*
X179780952Y-91762976D01*
X180352380Y-91191547D01*
X180352380Y-91810595D01*
X180304761Y-92286785D02*
X180352380Y-92286785D01*
X180447619Y-92239166D01*
X180495238Y-92191547D01*
X180352380Y-92715357D02*
X179352380Y-92715357D01*
X179828571Y-92715357D02*
X179828571Y-93286785D01*
X180352380Y-93286785D02*
X179352380Y-93286785D01*
X180304761Y-93810595D02*
X180352380Y-93810595D01*
X180447619Y-93762976D01*
X180495238Y-93715357D01*
X179828571Y-94572500D02*
X179828571Y-94239166D01*
X180352380Y-94239166D02*
X179352380Y-94239166D01*
X179352380Y-94715357D01*
X180733333Y-95001071D02*
X180685714Y-95048690D01*
X180542857Y-95143928D01*
X180447619Y-95191547D01*
X180304761Y-95239166D01*
X180066666Y-95286785D01*
X179876190Y-95286785D01*
X179638095Y-95239166D01*
X179495238Y-95191547D01*
X179400000Y-95143928D01*
X179257142Y-95048690D01*
X179209523Y-95001071D01*
X179828571Y-95762976D02*
X179828571Y-96524880D01*
X180114285Y-96524880D02*
X180114285Y-95762976D01*
X180352380Y-97524880D02*
X180352380Y-96953452D01*
X180352380Y-97239166D02*
X179352380Y-97239166D01*
X179495238Y-97143928D01*
X179590476Y-97048690D01*
X179638095Y-96953452D01*
X179447619Y-97905833D02*
X179400000Y-97953452D01*
X179352380Y-98048690D01*
X179352380Y-98286785D01*
X179400000Y-98382023D01*
X179447619Y-98429642D01*
X179542857Y-98477261D01*
X179638095Y-98477261D01*
X179780952Y-98429642D01*
X180352380Y-97858214D01*
X180352380Y-98477261D01*
X180962380Y-79667738D02*
X181962380Y-80001071D01*
X180962380Y-80334404D01*
X182343333Y-80953452D02*
X182295714Y-80905833D01*
X182152857Y-80810595D01*
X182057619Y-80762976D01*
X181914761Y-80715357D01*
X181676666Y-80667738D01*
X181486190Y-80667738D01*
X181248095Y-80715357D01*
X181105238Y-80762976D01*
X181010000Y-80810595D01*
X180867142Y-80905833D01*
X180819523Y-80953452D01*
X181962380Y-81334404D02*
X180962380Y-81334404D01*
X181962380Y-81810595D02*
X180962380Y-81810595D01*
X180962380Y-82191547D01*
X181010000Y-82286785D01*
X181057619Y-82334404D01*
X181152857Y-82382023D01*
X181295714Y-82382023D01*
X181390952Y-82334404D01*
X181438571Y-82286785D01*
X181486190Y-82191547D01*
X181486190Y-81810595D01*
X181057619Y-82762976D02*
X181010000Y-82810595D01*
X180962380Y-82905833D01*
X180962380Y-83143928D01*
X181010000Y-83239166D01*
X181057619Y-83286785D01*
X181152857Y-83334404D01*
X181248095Y-83334404D01*
X181390952Y-83286785D01*
X181962380Y-82715357D01*
X181962380Y-83334404D01*
X180962380Y-83667738D02*
X180962380Y-84334404D01*
X181962380Y-83905833D01*
X181057619Y-84667738D02*
X181010000Y-84715357D01*
X180962380Y-84810595D01*
X180962380Y-85048690D01*
X181010000Y-85143928D01*
X181057619Y-85191547D01*
X181152857Y-85239166D01*
X181248095Y-85239166D01*
X181390952Y-85191547D01*
X181962380Y-84620119D01*
X181962380Y-85239166D01*
X181962380Y-86191547D02*
X181962380Y-85620119D01*
X181962380Y-85905833D02*
X180962380Y-85905833D01*
X181105238Y-85810595D01*
X181200476Y-85715357D01*
X181248095Y-85620119D01*
X182057619Y-86382023D02*
X182057619Y-87143928D01*
X181962380Y-87382023D02*
X180962380Y-87382023D01*
X181676666Y-87715357D01*
X180962380Y-88048690D01*
X181962380Y-88048690D01*
X181676666Y-88477261D02*
X181676666Y-88953452D01*
X181962380Y-88382023D02*
X180962380Y-88715357D01*
X181962380Y-89048690D01*
X180962380Y-89286785D02*
X181962380Y-89953452D01*
X180962380Y-89953452D02*
X181962380Y-89286785D01*
X181962380Y-90858214D02*
X181962380Y-90286785D01*
X181962380Y-90572500D02*
X180962380Y-90572500D01*
X181105238Y-90477261D01*
X181200476Y-90382023D01*
X181248095Y-90286785D01*
X181057619Y-91239166D02*
X181010000Y-91286785D01*
X180962380Y-91382023D01*
X180962380Y-91620119D01*
X181010000Y-91715357D01*
X181057619Y-91762976D01*
X181152857Y-91810595D01*
X181248095Y-91810595D01*
X181390952Y-91762976D01*
X181962380Y-91191547D01*
X181962380Y-91810595D01*
X181914761Y-92286785D02*
X181962380Y-92286785D01*
X182057619Y-92239166D01*
X182105238Y-92191547D01*
X181438571Y-93048690D02*
X181438571Y-92715357D01*
X181962380Y-92715357D02*
X180962380Y-92715357D01*
X180962380Y-93191547D01*
X181914761Y-93620119D02*
X181962380Y-93620119D01*
X182057619Y-93572500D01*
X182105238Y-93524880D01*
X181438571Y-94382023D02*
X181438571Y-94048690D01*
X181962380Y-94048690D02*
X180962380Y-94048690D01*
X180962380Y-94524880D01*
X182343333Y-94810595D02*
X182295714Y-94858214D01*
X182152857Y-94953452D01*
X182057619Y-95001071D01*
X181914761Y-95048690D01*
X181676666Y-95096309D01*
X181486190Y-95096309D01*
X181248095Y-95048690D01*
X181105238Y-95001071D01*
X181010000Y-94953452D01*
X180867142Y-94858214D01*
X180819523Y-94810595D01*
X181438571Y-95572500D02*
X181438571Y-96334404D01*
X181724285Y-96334404D02*
X181724285Y-95572500D01*
X181962380Y-96858214D02*
X181962380Y-97048690D01*
X181914761Y-97143928D01*
X181867142Y-97191547D01*
X181724285Y-97286785D01*
X181533809Y-97334404D01*
X181152857Y-97334404D01*
X181057619Y-97286785D01*
X181010000Y-97239166D01*
X180962380Y-97143928D01*
X180962380Y-96953452D01*
X181010000Y-96858214D01*
X181057619Y-96810595D01*
X181152857Y-96762976D01*
X181390952Y-96762976D01*
X181486190Y-96810595D01*
X181533809Y-96858214D01*
X181581428Y-96953452D01*
X181581428Y-97143928D01*
X181533809Y-97239166D01*
X181486190Y-97286785D01*
X181390952Y-97334404D01*
X182572380Y-79667738D02*
X183572380Y-80001071D01*
X182572380Y-80334404D01*
X183953333Y-80953452D02*
X183905714Y-80905833D01*
X183762857Y-80810595D01*
X183667619Y-80762976D01*
X183524761Y-80715357D01*
X183286666Y-80667738D01*
X183096190Y-80667738D01*
X182858095Y-80715357D01*
X182715238Y-80762976D01*
X182620000Y-80810595D01*
X182477142Y-80905833D01*
X182429523Y-80953452D01*
X183572380Y-81334404D02*
X182572380Y-81334404D01*
X183572380Y-81810595D02*
X182572380Y-81810595D01*
X182572380Y-82191547D01*
X182620000Y-82286785D01*
X182667619Y-82334404D01*
X182762857Y-82382023D01*
X182905714Y-82382023D01*
X183000952Y-82334404D01*
X183048571Y-82286785D01*
X183096190Y-82191547D01*
X183096190Y-81810595D01*
X182667619Y-82762976D02*
X182620000Y-82810595D01*
X182572380Y-82905833D01*
X182572380Y-83143928D01*
X182620000Y-83239166D01*
X182667619Y-83286785D01*
X182762857Y-83334404D01*
X182858095Y-83334404D01*
X183000952Y-83286785D01*
X183572380Y-82715357D01*
X183572380Y-83334404D01*
X182572380Y-83667738D02*
X182572380Y-84334404D01*
X183572380Y-83905833D01*
X182667619Y-84667738D02*
X182620000Y-84715357D01*
X182572380Y-84810595D01*
X182572380Y-85048690D01*
X182620000Y-85143928D01*
X182667619Y-85191547D01*
X182762857Y-85239166D01*
X182858095Y-85239166D01*
X183000952Y-85191547D01*
X183572380Y-84620119D01*
X183572380Y-85239166D01*
X183572380Y-86191547D02*
X183572380Y-85620119D01*
X183572380Y-85905833D02*
X182572380Y-85905833D01*
X182715238Y-85810595D01*
X182810476Y-85715357D01*
X182858095Y-85620119D01*
X183667619Y-86382023D02*
X183667619Y-87143928D01*
X183572380Y-87382023D02*
X182572380Y-87382023D01*
X183286666Y-87715357D01*
X182572380Y-88048690D01*
X183572380Y-88048690D01*
X183286666Y-88477261D02*
X183286666Y-88953452D01*
X183572380Y-88382023D02*
X182572380Y-88715357D01*
X183572380Y-89048690D01*
X182572380Y-89286785D02*
X183572380Y-89953452D01*
X182572380Y-89953452D02*
X183572380Y-89286785D01*
X183572380Y-90858214D02*
X183572380Y-90286785D01*
X183572380Y-90572500D02*
X182572380Y-90572500D01*
X182715238Y-90477261D01*
X182810476Y-90382023D01*
X182858095Y-90286785D01*
X182667619Y-91239166D02*
X182620000Y-91286785D01*
X182572380Y-91382023D01*
X182572380Y-91620119D01*
X182620000Y-91715357D01*
X182667619Y-91762976D01*
X182762857Y-91810595D01*
X182858095Y-91810595D01*
X183000952Y-91762976D01*
X183572380Y-91191547D01*
X183572380Y-91810595D01*
X183524761Y-92286785D02*
X183572380Y-92286785D01*
X183667619Y-92239166D01*
X183715238Y-92191547D01*
X183572380Y-93191547D02*
X183572380Y-92715357D01*
X182572380Y-92715357D01*
X183524761Y-93572500D02*
X183572380Y-93572500D01*
X183667619Y-93524880D01*
X183715238Y-93477261D01*
X183048571Y-94334404D02*
X183048571Y-94001071D01*
X183572380Y-94001071D02*
X182572380Y-94001071D01*
X182572380Y-94477261D01*
X183953333Y-94762976D02*
X183905714Y-94810595D01*
X183762857Y-94905833D01*
X183667619Y-94953452D01*
X183524761Y-95001071D01*
X183286666Y-95048690D01*
X183096190Y-95048690D01*
X182858095Y-95001071D01*
X182715238Y-94953452D01*
X182620000Y-94905833D01*
X182477142Y-94810595D01*
X182429523Y-94762976D01*
X183048571Y-95524880D02*
X183048571Y-96286785D01*
X183334285Y-96286785D02*
X183334285Y-95524880D01*
X182572380Y-97239166D02*
X182572380Y-96762976D01*
X183048571Y-96715357D01*
X183000952Y-96762976D01*
X182953333Y-96858214D01*
X182953333Y-97096309D01*
X183000952Y-97191547D01*
X183048571Y-97239166D01*
X183143809Y-97286785D01*
X183381904Y-97286785D01*
X183477142Y-97239166D01*
X183524761Y-97191547D01*
X183572380Y-97096309D01*
X183572380Y-96858214D01*
X183524761Y-96762976D01*
X183477142Y-96715357D01*
D10*
X94757000Y-108313285D02*
X94757000Y-108676142D01*
X94974714Y-108240714D02*
X94212714Y-108494714D01*
X94974714Y-108748714D01*
X94974714Y-109002714D02*
X94212714Y-109002714D01*
X94757000Y-109256714D01*
X94212714Y-109510714D01*
X94974714Y-109510714D01*
X94974714Y-109873571D02*
X94212714Y-109873571D01*
X94212714Y-110163857D01*
X94249000Y-110236428D01*
X94285285Y-110272714D01*
X94357857Y-110309000D01*
X94466714Y-110309000D01*
X94539285Y-110272714D01*
X94575571Y-110236428D01*
X94611857Y-110163857D01*
X94611857Y-109873571D01*
X95047285Y-110454142D02*
X95047285Y-111034714D01*
X94212714Y-111361285D02*
X94212714Y-111506428D01*
X94249000Y-111579000D01*
X94321571Y-111651571D01*
X94466714Y-111687857D01*
X94720714Y-111687857D01*
X94865857Y-111651571D01*
X94938428Y-111579000D01*
X94974714Y-111506428D01*
X94974714Y-111361285D01*
X94938428Y-111288714D01*
X94865857Y-111216142D01*
X94720714Y-111179857D01*
X94466714Y-111179857D01*
X94321571Y-111216142D01*
X94249000Y-111288714D01*
X94212714Y-111361285D01*
X94212714Y-112014428D02*
X94829571Y-112014428D01*
X94902142Y-112050714D01*
X94938428Y-112087000D01*
X94974714Y-112159571D01*
X94974714Y-112304714D01*
X94938428Y-112377285D01*
X94902142Y-112413571D01*
X94829571Y-112449857D01*
X94212714Y-112449857D01*
X94212714Y-112703857D02*
X94212714Y-113139285D01*
X94974714Y-112921571D02*
X94212714Y-112921571D01*
D11*
X188482380Y-77174285D02*
X188482380Y-76698095D01*
X187482380Y-76698095D01*
X187482380Y-77698095D02*
X187482380Y-77888571D01*
X187530000Y-77983809D01*
X187625238Y-78079047D01*
X187815714Y-78126666D01*
X188149047Y-78126666D01*
X188339523Y-78079047D01*
X188434761Y-77983809D01*
X188482380Y-77888571D01*
X188482380Y-77698095D01*
X188434761Y-77602857D01*
X188339523Y-77507619D01*
X188149047Y-77460000D01*
X187815714Y-77460000D01*
X187625238Y-77507619D01*
X187530000Y-77602857D01*
X187482380Y-77698095D01*
X187482380Y-78460000D02*
X188482380Y-78698095D01*
X187768095Y-78888571D01*
X188482380Y-79079047D01*
X187482380Y-79317142D01*
D10*
X88594714Y-108232857D02*
X87832714Y-108232857D01*
X87832714Y-108523142D01*
X87869000Y-108595714D01*
X87905285Y-108632000D01*
X87977857Y-108668285D01*
X88086714Y-108668285D01*
X88159285Y-108632000D01*
X88195571Y-108595714D01*
X88231857Y-108523142D01*
X88231857Y-108232857D01*
X88594714Y-108994857D02*
X87832714Y-108994857D01*
X87832714Y-109176285D01*
X87869000Y-109285142D01*
X87941571Y-109357714D01*
X88014142Y-109394000D01*
X88159285Y-109430285D01*
X88268142Y-109430285D01*
X88413285Y-109394000D01*
X88485857Y-109357714D01*
X88558428Y-109285142D01*
X88594714Y-109176285D01*
X88594714Y-108994857D01*
X88667285Y-109575428D02*
X88667285Y-110156000D01*
X88594714Y-110337428D02*
X87832714Y-110337428D01*
X88377000Y-110591428D01*
X87832714Y-110845428D01*
X88594714Y-110845428D01*
X87832714Y-111208285D02*
X88449571Y-111208285D01*
X88522142Y-111244571D01*
X88558428Y-111280857D01*
X88594714Y-111353428D01*
X88594714Y-111498571D01*
X88558428Y-111571142D01*
X88522142Y-111607428D01*
X88449571Y-111643714D01*
X87832714Y-111643714D01*
X87832714Y-111934000D02*
X88594714Y-112442000D01*
X87832714Y-112442000D02*
X88594714Y-111934000D01*
X88667285Y-112550857D02*
X88667285Y-113131428D01*
X87832714Y-113458000D02*
X87832714Y-113603142D01*
X87869000Y-113675714D01*
X87941571Y-113748285D01*
X88086714Y-113784571D01*
X88340714Y-113784571D01*
X88485857Y-113748285D01*
X88558428Y-113675714D01*
X88594714Y-113603142D01*
X88594714Y-113458000D01*
X88558428Y-113385428D01*
X88485857Y-113312857D01*
X88340714Y-113276571D01*
X88086714Y-113276571D01*
X87941571Y-113312857D01*
X87869000Y-113385428D01*
X87832714Y-113458000D01*
X87832714Y-114111142D02*
X88449571Y-114111142D01*
X88522142Y-114147428D01*
X88558428Y-114183714D01*
X88594714Y-114256285D01*
X88594714Y-114401428D01*
X88558428Y-114474000D01*
X88522142Y-114510285D01*
X88449571Y-114546571D01*
X87832714Y-114546571D01*
X87832714Y-114800571D02*
X87832714Y-115236000D01*
X88594714Y-115018285D02*
X87832714Y-115018285D01*
D11*
X90832380Y-98506666D02*
X91546666Y-98506666D01*
X91689523Y-98459047D01*
X91784761Y-98363809D01*
X91832380Y-98220952D01*
X91832380Y-98125714D01*
X91832380Y-98982857D02*
X90832380Y-98982857D01*
X90832380Y-99363809D01*
X90880000Y-99459047D01*
X90927619Y-99506666D01*
X91022857Y-99554285D01*
X91165714Y-99554285D01*
X91260952Y-99506666D01*
X91308571Y-99459047D01*
X91356190Y-99363809D01*
X91356190Y-98982857D01*
X90832380Y-100411428D02*
X90832380Y-100220952D01*
X90880000Y-100125714D01*
X90927619Y-100078095D01*
X91070476Y-99982857D01*
X91260952Y-99935238D01*
X91641904Y-99935238D01*
X91737142Y-99982857D01*
X91784761Y-100030476D01*
X91832380Y-100125714D01*
X91832380Y-100316190D01*
X91784761Y-100411428D01*
X91737142Y-100459047D01*
X91641904Y-100506666D01*
X91403809Y-100506666D01*
X91308571Y-100459047D01*
X91260952Y-100411428D01*
X91213333Y-100316190D01*
X91213333Y-100125714D01*
X91260952Y-100030476D01*
X91308571Y-99982857D01*
X91403809Y-99935238D01*
X179882380Y-128586666D02*
X180596666Y-128586666D01*
X180739523Y-128539047D01*
X180834761Y-128443809D01*
X180882380Y-128300952D01*
X180882380Y-128205714D01*
X180882380Y-129062857D02*
X179882380Y-129062857D01*
X179882380Y-129443809D01*
X179930000Y-129539047D01*
X179977619Y-129586666D01*
X180072857Y-129634285D01*
X180215714Y-129634285D01*
X180310952Y-129586666D01*
X180358571Y-129539047D01*
X180406190Y-129443809D01*
X180406190Y-129062857D01*
X179977619Y-130015238D02*
X179930000Y-130062857D01*
X179882380Y-130158095D01*
X179882380Y-130396190D01*
X179930000Y-130491428D01*
X179977619Y-130539047D01*
X180072857Y-130586666D01*
X180168095Y-130586666D01*
X180310952Y-130539047D01*
X180882380Y-129967619D01*
X180882380Y-130586666D01*
X186312380Y-120216666D02*
X187026666Y-120216666D01*
X187169523Y-120169047D01*
X187264761Y-120073809D01*
X187312380Y-119930952D01*
X187312380Y-119835714D01*
X186312380Y-121169047D02*
X186312380Y-120692857D01*
X186788571Y-120645238D01*
X186740952Y-120692857D01*
X186693333Y-120788095D01*
X186693333Y-121026190D01*
X186740952Y-121121428D01*
X186788571Y-121169047D01*
X186883809Y-121216666D01*
X187121904Y-121216666D01*
X187217142Y-121169047D01*
X187264761Y-121121428D01*
X187312380Y-121026190D01*
X187312380Y-120788095D01*
X187264761Y-120692857D01*
X187217142Y-120645238D01*
X89706382Y-109000482D02*
X90420668Y-109000482D01*
X90563525Y-108952863D01*
X90658763Y-108857625D01*
X90706382Y-108714767D01*
X90706382Y-108619529D01*
X89801621Y-109429053D02*
X89754002Y-109476672D01*
X89706382Y-109571910D01*
X89706382Y-109810006D01*
X89754002Y-109905244D01*
X89801621Y-109952863D01*
X89896859Y-110000482D01*
X89992097Y-110000482D01*
X90134954Y-109952863D01*
X90706382Y-109381434D01*
X90706382Y-110000482D01*
X89706382Y-110905244D02*
X89706382Y-110429053D01*
X90182573Y-110381434D01*
X90134954Y-110429053D01*
X90087335Y-110524291D01*
X90087335Y-110762386D01*
X90134954Y-110857625D01*
X90182573Y-110905244D01*
X90277811Y-110952863D01*
X90515906Y-110952863D01*
X90611144Y-110905244D01*
X90658763Y-110857625D01*
X90706382Y-110762386D01*
X90706382Y-110524291D01*
X90658763Y-110429053D01*
X90611144Y-110381434D01*
X92116382Y-109000482D02*
X92830668Y-109000482D01*
X92973525Y-108952863D01*
X93068763Y-108857625D01*
X93116382Y-108714767D01*
X93116382Y-108619529D01*
X92211621Y-109429053D02*
X92164002Y-109476672D01*
X92116382Y-109571910D01*
X92116382Y-109810006D01*
X92164002Y-109905244D01*
X92211621Y-109952863D01*
X92306859Y-110000482D01*
X92402097Y-110000482D01*
X92544954Y-109952863D01*
X93116382Y-109381434D01*
X93116382Y-110000482D01*
X92449716Y-110857625D02*
X93116382Y-110857625D01*
X92068763Y-110619529D02*
X92783049Y-110381434D01*
X92783049Y-111000482D01*
D13*
X89350000Y-106290000D02*
X88240000Y-106290000D01*
X89350000Y-107810000D02*
X88803471Y-107810000D01*
X89350000Y-107050000D02*
X89350000Y-106290000D01*
X87130000Y-107810000D02*
X87130000Y-107745000D01*
X89350000Y-107810000D02*
X87130000Y-107810000D01*
X87676529Y-107810000D02*
X87130000Y-107810000D01*
X89350000Y-107810000D02*
X89350000Y-107745000D01*
X93480000Y-106290000D02*
X93480000Y-106355000D01*
X95700000Y-106290000D02*
X95700000Y-106355000D01*
X93480000Y-106290000D02*
X94026529Y-106290000D01*
X93480000Y-106290000D02*
X95700000Y-106290000D01*
X93480000Y-107050000D02*
X93480000Y-107810000D01*
X93480000Y-107810000D02*
X94590000Y-107810000D01*
X95153471Y-106290000D02*
X95700000Y-106290000D01*
X92190013Y-106305994D02*
X92190013Y-100805994D01*
X90240013Y-106305994D02*
X92190013Y-106305994D01*
X92440013Y-102155994D02*
X92740013Y-101855994D01*
X92740013Y-102455994D02*
X92440013Y-102155994D01*
X92740013Y-101855994D02*
X92740013Y-102455994D01*
X90240013Y-100805994D02*
X90240013Y-106305994D01*
X92190013Y-100805994D02*
X90240013Y-100805994D01*
X181290000Y-130350000D02*
X184090000Y-130350000D01*
X181290000Y-128350000D02*
X181290000Y-130350000D01*
X184090000Y-128350000D02*
X181290000Y-128350000D01*
X184090000Y-130350000D02*
X184090000Y-128350000D01*
X187957487Y-79640005D02*
X186007487Y-79640005D01*
X187957487Y-85140005D02*
X187957487Y-79640005D01*
X186007487Y-85140005D02*
X187957487Y-85140005D01*
X186007487Y-79640005D02*
X186007487Y-85140005D01*
X185757487Y-83790005D02*
X185457487Y-84090005D01*
X185457487Y-83490005D02*
X185757487Y-83790005D01*
X185457487Y-84090005D02*
X185457487Y-83490005D01*
X189670000Y-121460000D02*
X189123471Y-121460000D01*
X187996529Y-121460000D02*
X187450000Y-121460000D01*
X189670000Y-121460000D02*
X189670000Y-121395000D01*
X189670000Y-121460000D02*
X187450000Y-121460000D01*
X189670000Y-119940000D02*
X188560000Y-119940000D01*
X187450000Y-121460000D02*
X187450000Y-121395000D01*
X189670000Y-120700000D02*
X189670000Y-119940000D01*
X88815000Y-106742470D02*
X88815000Y-105940000D01*
X90020000Y-105940000D02*
X88815000Y-105940000D01*
X91540000Y-108160000D02*
X91540000Y-107050000D01*
X88815000Y-108160000D02*
X88815000Y-107357530D01*
X90020000Y-108160000D02*
X90020000Y-107613471D01*
X90780000Y-108160000D02*
X91540000Y-108160000D01*
X90020000Y-106486529D02*
X90020000Y-105940000D01*
X90020000Y-108160000D02*
X88815000Y-108160000D01*
X91290000Y-105940000D02*
X91290000Y-107050000D01*
X94015000Y-105940000D02*
X94015000Y-106742470D01*
X92050000Y-105940000D02*
X91290000Y-105940000D01*
X92810000Y-105940000D02*
X94015000Y-105940000D01*
X92810000Y-107613471D02*
X92810000Y-108160000D01*
X94015000Y-107357530D02*
X94015000Y-108160000D01*
X92810000Y-105940000D02*
X92810000Y-106486529D01*
X92810000Y-108160000D02*
X94015000Y-108160000D01*
X188150003Y-85140005D02*
X190100003Y-85140005D01*
X187900003Y-83790005D02*
X187600003Y-84090005D01*
X190100003Y-79640005D02*
X188150003Y-79640005D01*
X190100003Y-85140005D02*
X190100003Y-79640005D01*
X188150003Y-79640005D02*
X188150003Y-85140005D01*
X187600003Y-84090005D02*
X187600003Y-83490005D01*
X187600003Y-83490005D02*
X187900003Y-83790005D01*
M02*
