M48
INCH,TZ
T1C0.0118
T2C0.0157
T3C0.0236
T4C0.0256
T5C0.0315
T6C0.0394
T7C0.0472
T8C0.0512
%
G90
G05
T1
X54479Y-23749
X54479Y-24261
X54479Y-24773
X54479Y-25285
X54479Y-25796
X54479Y-26308
X54991Y-23749
X54991Y-24261
X54991Y-24773
X54991Y-25285
X54991Y-25796
X54991Y-26308
X55503Y-23749
X55503Y-24261
X55503Y-24773
X55503Y-25285
X55503Y-25796
X55503Y-26308
T2
X26807Y-35441
X26811Y-13437
X27000Y-18941
X27008Y-29858
X27039Y-31795
X27043Y-15173
X27063Y-17012
X27114Y-33854
X27146Y-22665
X27728Y-30567
X28067Y-23669
X28335Y-34756
X28705Y-14343
X28839Y-32669
X28882Y-17807
X28913Y-31063
X29217Y-15276
X29331Y-23831
X29846Y-34020
X29906Y-16594
X29937Y-31602
X30004Y-35457
X30280Y-26079
X30445Y-23504
X30563Y-21894
X30705Y-13437
X31091Y-32606
X31122Y-30520
X31161Y-18268
X31205Y-15256
X31425Y-21728
X31492Y-27169
X31720Y-25583
X31827Y-31496
X31876Y-25946
X31885Y-24933
X31913Y-17118
X31952Y-20670
X31952Y-28150
X31957Y-34756
X32177Y-26287
X32240Y-14366
X32354Y-33961
X32610Y-30520
X32654Y-32563
X32665Y-27138
X32772Y-18287
X32913Y-22331
X32917Y-15945
X33196Y-22826
X33362Y-23537
X33366Y-23932
X33425Y-23148
X33539Y-20169
X33756Y-27768
X34028Y-27067
X34287Y-21039
X34331Y-28669
X34591Y-21740
X34736Y-33366
X34748Y-15205
X35020Y-14354
X35126Y-34787
X35495Y-20670
X35495Y-28150
X35563Y-27102
X35744Y-21748
X36059Y-15665
X36165Y-35425
X36232Y-13528
X36331Y-23547
X36387Y-25402
X36618Y-34071
X36840Y-25270
X37008Y-29602
X37043Y-20197
X37067Y-27795
X37138Y-27165
X37165Y-19193
X37177Y-21862
X37193Y-24676
X37437Y-34803
X37457Y-15146
X37516Y-23224
X37520Y-14374
X37791Y-28701
X37827Y-26461
X37846Y-21067
X38054Y-25524
X38201Y-19185
X38256Y-17150
X38291Y-31760
X38319Y-29787
X38563Y-22240
X38646Y-27165
X38650Y-15996
X38717Y-33079
X39038Y-20670
X39038Y-28150
X39303Y-19185
X39331Y-17858
X39425Y-23071
X39453Y-25378
X39465Y-30630
X39638Y-26799
X39681Y-26106
X39701Y-33913
X39823Y-21811
X39913Y-15268
X39984Y-23882
X40315Y-32996
X40343Y-27142
X40492Y-14366
X40504Y-31720
X40516Y-19382
X40535Y-29516
X40559Y-17094
X40614Y-27827
X40626Y-20197
X40634Y-34803
X41087Y-16067
X41142Y-28669
X41192Y-26230
X41256Y-22327
X41283Y-18165
X41358Y-21004
X41410Y-23899
X41465Y-27113
X41465Y-24290
X41465Y-24685
X41764Y-35437
X41787Y-33587
X41840Y-26988
X41906Y-13547
X42094Y-22016
X42180Y-26787
X42252Y-25151
X42359Y-23306
X42421Y-24406
X42461Y-30531
X42582Y-20670
X42582Y-28150
X42587Y-15228
X42650Y-19575
X42917Y-22043
X42937Y-14307
X42972Y-18390
X42988Y-25181
X43008Y-31669
X43035Y-34803
X43039Y-29205
X43043Y-17051
X43622Y-34024
X43677Y-16087
X43728Y-24559
X44083Y-27780
X44138Y-23819
X44177Y-20295
X44217Y-25335
X44248Y-22382
X44591Y-28492
X44642Y-21016
X45059Y-27142
X45083Y-33583
X45374Y-24512
X45496Y-15185
X45677Y-34787
X45744Y-22008
X45776Y-14358
X45882Y-16339
X46125Y-20670
X46125Y-28150
X46213Y-19173
X46248Y-31740
X46252Y-17650
X46260Y-29657
X46287Y-23402
X46307Y-25291
X46807Y-13508
X46921Y-34106
X47012Y-27016
X47012Y-35472
X47213Y-22465
X47217Y-30642
X47394Y-20220
X47457Y-27850
X47602Y-24370
X47705Y-15268
X48059Y-34756
X48102Y-28669
X48122Y-21000
X48154Y-14323
X48252Y-16512
X48445Y-21988
X48445Y-29693
X48472Y-31512
X48512Y-18059
X48941Y-23500
X48949Y-25220
X49079Y-27079
X49189Y-19220
X49634Y-33575
X49661Y-30677
X49668Y-20670
X49668Y-28150
X49941Y-24378
X49945Y-25846
X49949Y-22295
X49949Y-23469
X50067Y-17130
X50405Y-22826
X50406Y-21641
X50480Y-15299
X50516Y-31598
X50701Y-23563
X50768Y-29559
X50839Y-19244
X50941Y-27819
X50961Y-20252
X51015Y-22905
X51161Y-25114
X51189Y-34807
X51232Y-14295
X51689Y-16173
X51697Y-26236
X51713Y-28654
X51724Y-21031
X51846Y-22484
X51921Y-33969
X52220Y-35441
X52250Y-25160
X52390Y-13457
X52447Y-26081
X52465Y-24829
X52555Y-29571
X52628Y-24469
X52736Y-19232
X52806Y-24117
X52978Y-23762
X53135Y-23399
X53212Y-20670
X53212Y-28150
X53328Y-23055
X53339Y-15205
X53457Y-34787
X53477Y-27128
X53503Y-22702
X53610Y-14335
X54085Y-26570
X54087Y-23091
X54402Y-19232
X54433Y-20157
X54449Y-27823
X54492Y-33941
X54531Y-16142
X54626Y-21047
X54850Y-28618
X54858Y-29327
X55181Y-18354
X55776Y-16823
X56028Y-23189
X56043Y-22386
X56197Y-31469
X56224Y-29244
X56292Y-26861
X56358Y-34772
X56390Y-13417
X56425Y-21641
X56591Y-15260
X56755Y-20670
X56755Y-28150
X56831Y-30303
X56900Y-26680
X56984Y-16516
X57264Y-23173
X57307Y-26791
X57437Y-31374
X57461Y-33925
X57472Y-29240
X57559Y-19031
X57579Y-24252
X57710Y-26963
X57921Y-22236
X57941Y-13941
X58161Y-35484
X58323Y-19276
X58394Y-22996
X58520Y-18094
X58690Y-33538
X58738Y-15120
X58965Y-33941
X59264Y-26067
X59296Y-15054
X59358Y-22717
X59504Y-14718
X59606Y-29260
X59681Y-31906
X59701Y-27827
X59703Y-15436
X59768Y-16685
X59863Y-14882
X59894Y-18469
X60130Y-35531
X60157Y-13433
X60177Y-22201
X60187Y-14601
X60260Y-15323
X60382Y-27185
X60547Y-14438
X60563Y-25783
X60721Y-33859
X60940Y-14275
X61027Y-34342
X61091Y-24291
X61201Y-27717
X61343Y-35417
X61350Y-33366
X61358Y-30961
X61386Y-34783
X61551Y-18547
X61626Y-16098
X61718Y-33866
X61795Y-27386
X61831Y-23811
X61894Y-19681
X61997Y-34145
X62000Y-14059
X62185Y-20559
X62189Y-32799
X62269Y-34457
X62512Y-17264
X62519Y-17941
X62551Y-31697
X62572Y-32569
X63142Y-23803
X63359Y-31434
X63568Y-30061
X63657Y-28976
X63733Y-31271
X63962Y-30061
X64035Y-35547
X64223Y-30945
X64263Y-29782
X64452Y-21839
X64579Y-24063
X64582Y-30722
X64598Y-27547
X64673Y-28441
X65177Y-32709
X65315Y-35539
X65409Y-31594
X65673Y-14689
X66169Y-27197
X66182Y-16339
X66205Y-14921
X66834Y-23343
X66953Y-16933
X67063Y-19354
X67449Y-22461
X67575Y-32004
X67610Y-25543
X67854Y-29874
X68335Y-15461
X68335Y-18209
X68594Y-20965
X68953Y-24016
X68980Y-30898
X69701Y-16783
X69760Y-13484
X69803Y-19409
X70016Y-32004
X70220Y-25559
X70232Y-22492
X70504Y-29768
X70933Y-15051
X71850Y-24000
X71906Y-16244
X71996Y-20965
X72142Y-18319
X72465Y-29925
X72980Y-25528
X73004Y-13346
X73583Y-22512
X73783Y-31776
X74039Y-16441
X74138Y-29783
X74189Y-14909
X74240Y-19406
X74319Y-17661
X74909Y-21236
X75531Y-17811
X75835Y-16398
X75835Y-29362
X75846Y-20402
X75902Y-13315
X75948Y-21078
X76425Y-18669
X76902Y-23736
X76902Y-24236
X76913Y-23228
X76925Y-28224
X76937Y-25709
X76941Y-26728
X76945Y-24736
X76945Y-26232
X76965Y-25240
X77453Y-19114
X77492Y-16579
X78028Y-29244
X78106Y-14598
X78232Y-21689
X78244Y-22969
X78272Y-24890
X78283Y-27299
X78614Y-17953
X78728Y-21669
X79055Y-15992
X79130Y-13303
X79228Y-21654
X79394Y-28492
X79520Y-23909
X79539Y-26098
X79724Y-21642
X80047Y-17528
X80047Y-19047
X80224Y-21626
X80732Y-21614
X80831Y-27311
X80854Y-29291
X80874Y-13504
X80917Y-23035
X80917Y-24878
X80929Y-16220
X81728Y-17461
X81961Y-15035
X82224Y-21610
X82488Y-26118
X82500Y-23937
X82524Y-28291
X82736Y-21618
X83016Y-19102
X83177Y-18197
X83213Y-21216
X83224Y-16295
X83224Y-21622
X83311Y-14004
X83602Y-16594
X83602Y-23012
X83642Y-24878
X83650Y-27134
X83720Y-19315
X83894Y-13421
X83918Y-15637
X83933Y-29256
X84193Y-22244
X84275Y-14953
X84469Y-13999
X84894Y-20972
X84909Y-23756
X84920Y-23361
X84933Y-22967
X85047Y-18080
X85101Y-25252
X85225Y-24690
X85354Y-16882
X85417Y-14200
X85427Y-26076
X85457Y-28137
X85505Y-24411
X85606Y-18126
X85654Y-22823
X85677Y-26796
X85881Y-25786
X85913Y-27113
X86000Y-18093
X86114Y-17008
X86154Y-20614
X86161Y-13630
X86192Y-27392
X86441Y-29240
X86567Y-22067
X86594Y-17957
X86728Y-14736
X86834Y-14249
X87114Y-19720
X87126Y-14748
X87540Y-20960
X87573Y-23510
X87720Y-13630
X87933Y-26362
X87974Y-14553
X88064Y-20952
X88165Y-21909
X88752Y-22953
X88988Y-25154
X89055Y-27283
X89205Y-14264
X89429Y-20909
X90201Y-26299
X90906Y-26358
X91846Y-25114
X91890Y-27260
X92614Y-29728
X92850Y-31882
X92935Y-15309
X93020Y-26346
X93036Y-13421
X93325Y-22126
X93689Y-23520
X93694Y-16767
X93744Y-27374
X93815Y-26311
X93815Y-14669
X94146Y-29650
X94575Y-23650
X94831Y-13323
X94973Y-23623
X95016Y-24677
X95290Y-22748
X95409Y-22441
X95409Y-27291
X95433Y-25898
X95665Y-15429
X95925Y-17335
X96183Y-23725
X96567Y-14528
X97264Y-13441
X97311Y-29094
X97437Y-30823
X97614Y-26165
T4
X34740Y-26398
X35240Y-26398
X35740Y-26398
X36240Y-26398
X36740Y-26398
X37240Y-26398
T5
X41744Y-22909
X41744Y-25909
X42744Y-22909
X42744Y-25909
X43744Y-22909
X43744Y-25909
X44744Y-22909
X44744Y-25909
X45744Y-22909
X45744Y-25909
X46744Y-22909
X46744Y-25909
X47744Y-22909
X47744Y-25909
X48744Y-22909
X48744Y-25909
T6
X34929Y-24506
X34929Y-25506
X61488Y-20335
X61488Y-21335
X63254Y-17941
X63254Y-16941
X63254Y-18941
X63254Y-19941
X63254Y-20941
X64254Y-17941
X64254Y-16941
X64254Y-18941
X64254Y-19941
X64254Y-20941
X65354Y-16335
X65354Y-17335
X65354Y-18335
X65354Y-19335
X65354Y-20335
X65354Y-21335
X65354Y-22335
X65354Y-23335
X65354Y-24335
X65354Y-25335
X65354Y-26335
X65354Y-27335
X65354Y-28335
X65354Y-29335
X71657Y-15551
X72657Y-15551
X73657Y-15551
X74657Y-15551
X75657Y-15551
X76614Y-29008
X76657Y-15551
X77657Y-15551
X80807Y-14134
X80890Y-20972
X81890Y-20972
X82579Y-14134
X97244Y-14335
X97244Y-15335
X97244Y-16335
X97244Y-17335
X97244Y-18335
X97244Y-19335
X97244Y-20335
X97244Y-21335
X97244Y-22335
X97244Y-23335
X97244Y-24335
T7
X90425Y-17744
X90425Y-19122
X95268Y-19827
X95268Y-21205
T8
X80315Y-15118
X83071Y-15118
T3
G00X85224Y-13787
M15
G01X85224Y-13472
M16
G05
G00X85224Y-15283
M15
G01X85224Y-14968
M16
G05
G00X88625Y-13787
M15
G01X88625Y-13472
M16
G05
G00X88625Y-15283
M15
G01X88625Y-14968
M16
G05
T6
G00X92557Y-16461
M15
G01X92557Y-17248
M16
G05
G00X94802Y-15673
M15
G01X94014Y-15673
M16
G05
G00X94802Y-18035
M15
G01X94014Y-18035
M16
G05
T0
M30
