G04 #@! TF.GenerationSoftware,KiCad,Pcbnew,(7.0.0-122-g9f10c142c4)*
G04 #@! TF.CreationDate,2023-03-12T11:56:23+09:00*
G04 #@! TF.ProjectId,qLAMP-main,714c414d-502d-46d6-9169-6e2e6b696361,rev?*
G04 #@! TF.SameCoordinates,Original*
G04 #@! TF.FileFunction,Paste,Top*
G04 #@! TF.FilePolarity,Positive*
%FSLAX46Y46*%
G04 Gerber Fmt 4.6, Leading zero omitted, Abs format (unit mm)*
G04 Created by KiCad (PCBNEW (7.0.0-122-g9f10c142c4)) date 2023-03-12 11:56:23*
%MOMM*%
%LPD*%
G01*
G04 APERTURE LIST*
G04 Aperture macros list*
%AMRoundRect*
0 Rectangle with rounded corners*
0 $1 Rounding radius*
0 $2 $3 $4 $5 $6 $7 $8 $9 X,Y pos of 4 corners*
0 Add a 4 corners polygon primitive as box body*
4,1,4,$2,$3,$4,$5,$6,$7,$8,$9,$2,$3,0*
0 Add four circle primitives for the rounded corners*
1,1,$1+$1,$2,$3*
1,1,$1+$1,$4,$5*
1,1,$1+$1,$6,$7*
1,1,$1+$1,$8,$9*
0 Add four rect primitives between the rounded corners*
20,1,$1+$1,$2,$3,$4,$5,0*
20,1,$1+$1,$4,$5,$6,$7,0*
20,1,$1+$1,$6,$7,$8,$9,0*
20,1,$1+$1,$8,$9,$2,$3,0*%
G04 Aperture macros list end*
%ADD10C,0.475000*%
%ADD11C,0.120000*%
%ADD12RoundRect,0.100000X-0.100000X0.637500X-0.100000X-0.637500X0.100000X-0.637500X0.100000X0.637500X0*%
%ADD13RoundRect,0.150000X-0.512500X-0.150000X0.512500X-0.150000X0.512500X0.150000X-0.512500X0.150000X0*%
%ADD14RoundRect,0.250000X-0.250000X-0.475000X0.250000X-0.475000X0.250000X0.475000X-0.250000X0.475000X0*%
%ADD15R,3.098800X1.219200*%
%ADD16RoundRect,0.225000X-0.225000X-0.250000X0.225000X-0.250000X0.225000X0.250000X-0.225000X0.250000X0*%
%ADD17RoundRect,0.250000X-0.325000X-1.100000X0.325000X-1.100000X0.325000X1.100000X-0.325000X1.100000X0*%
%ADD18RoundRect,0.250000X-1.100000X0.325000X-1.100000X-0.325000X1.100000X-0.325000X1.100000X0.325000X0*%
%ADD19RoundRect,0.250000X0.250000X0.475000X-0.250000X0.475000X-0.250000X-0.475000X0.250000X-0.475000X0*%
%ADD20RoundRect,0.250000X1.100000X-0.325000X1.100000X0.325000X-1.100000X0.325000X-1.100000X-0.325000X0*%
%ADD21RoundRect,0.000000X0.700000X0.175671X-0.700000X0.175671X-0.700000X-0.175671X0.700000X-0.175671X0*%
%ADD22RoundRect,0.225000X-0.250000X0.225000X-0.250000X-0.225000X0.250000X-0.225000X0.250000X0.225000X0*%
%ADD23RoundRect,0.109795X-0.109795X0.552705X-0.109795X-0.552705X0.109795X-0.552705X0.109795X0.552705X0*%
%ADD24RoundRect,0.150000X0.512500X0.150000X-0.512500X0.150000X-0.512500X-0.150000X0.512500X-0.150000X0*%
%ADD25RoundRect,0.200000X0.200000X0.275000X-0.200000X0.275000X-0.200000X-0.275000X0.200000X-0.275000X0*%
%ADD26RoundRect,0.150000X-0.150000X0.825000X-0.150000X-0.825000X0.150000X-0.825000X0.150000X0.825000X0*%
%ADD27R,1.320800X0.558800*%
%ADD28R,0.558800X1.320800*%
%ADD29RoundRect,0.250000X0.715000X0.695000X-0.715000X0.695000X-0.715000X-0.695000X0.715000X-0.695000X0*%
%ADD30RoundRect,0.100000X0.687500X0.100000X-0.687500X0.100000X-0.687500X-0.100000X0.687500X-0.100000X0*%
%ADD31RoundRect,0.200000X0.275000X-0.200000X0.275000X0.200000X-0.275000X0.200000X-0.275000X-0.200000X0*%
%ADD32RoundRect,0.200000X-0.275000X0.200000X-0.275000X-0.200000X0.275000X-0.200000X0.275000X0.200000X0*%
%ADD33RoundRect,0.200000X-0.200000X-0.275000X0.200000X-0.275000X0.200000X0.275000X-0.200000X0.275000X0*%
%ADD34RoundRect,0.225000X0.225000X0.250000X-0.225000X0.250000X-0.225000X-0.250000X0.225000X-0.250000X0*%
%ADD35RoundRect,0.100000X0.250000X0.650000X-0.250000X0.650000X-0.250000X-0.650000X0.250000X-0.650000X0*%
%ADD36RoundRect,0.100000X0.300000X0.650000X-0.300000X0.650000X-0.300000X-0.650000X0.300000X-0.650000X0*%
%ADD37RoundRect,0.150000X-0.825000X-0.150000X0.825000X-0.150000X0.825000X0.150000X-0.825000X0.150000X0*%
%ADD38R,0.750000X2.100000*%
%ADD39RoundRect,0.250000X0.475000X-0.250000X0.475000X0.250000X-0.475000X0.250000X-0.475000X-0.250000X0*%
%ADD40RoundRect,0.225000X0.525000X0.225000X-0.525000X0.225000X-0.525000X-0.225000X0.525000X-0.225000X0*%
%ADD41RoundRect,0.225000X-0.225000X0.525000X-0.225000X-0.525000X0.225000X-0.525000X0.225000X0.525000X0*%
%ADD42RoundRect,0.225000X-0.525000X-0.225000X0.525000X-0.225000X0.525000X0.225000X-0.525000X0.225000X0*%
%ADD43RoundRect,0.225000X-0.225000X-0.225000X0.225000X-0.225000X0.225000X0.225000X-0.225000X0.225000X0*%
%ADD44R,3.300000X3.300000*%
%ADD45R,2.000000X3.500000*%
G04 APERTURE END LIST*
D10*
X145217500Y-88830000D02*
G75*
G03*
X145217500Y-88830000I-237500J0D01*
G01*
X78277500Y-89000000D02*
G75*
G03*
X78277500Y-89000000I-237500J0D01*
G01*
X76473500Y-35000000D02*
G75*
G03*
X76473500Y-35000000I-237500J0D01*
G01*
X247152500Y-80000000D02*
G75*
G03*
X247152500Y-80000000I-237500J0D01*
G01*
X144662500Y-35770000D02*
G75*
G03*
X144662500Y-35770000I-237500J0D01*
G01*
X243162500Y-34690000D02*
G75*
G03*
X243162500Y-34690000I-237500J0D01*
G01*
G36*
X128332219Y-72651633D02*
G01*
X127732219Y-72651633D01*
X127732219Y-71651633D01*
X128332219Y-71651633D01*
X128332219Y-72651633D01*
G37*
D11*
X128332219Y-72651633D02*
X127732219Y-72651633D01*
X127732219Y-71651633D01*
X128332219Y-71651633D01*
X128332219Y-72651633D01*
G36*
X128332219Y-71351633D02*
G01*
X127732219Y-71351633D01*
X127732219Y-70351633D01*
X128332219Y-70351633D01*
X128332219Y-71351633D01*
G37*
X128332219Y-71351633D02*
X127732219Y-71351633D01*
X127732219Y-70351633D01*
X128332219Y-70351633D01*
X128332219Y-71351633D01*
G36*
X123802219Y-72701633D02*
G01*
X123202219Y-72701633D01*
X123202219Y-71701633D01*
X123802219Y-71701633D01*
X123802219Y-72701633D01*
G37*
X123802219Y-72701633D02*
X123202219Y-72701633D01*
X123202219Y-71701633D01*
X123802219Y-71701633D01*
X123802219Y-72701633D01*
G36*
X123802219Y-71301633D02*
G01*
X123202219Y-71301633D01*
X123202219Y-70301633D01*
X123802219Y-70301633D01*
X123802219Y-71301633D01*
G37*
X123802219Y-71301633D02*
X123202219Y-71301633D01*
X123202219Y-70301633D01*
X123802219Y-70301633D01*
X123802219Y-71301633D01*
G36*
X137332219Y-53652054D02*
G01*
X136732219Y-53652054D01*
X136732219Y-52652054D01*
X137332219Y-52652054D01*
X137332219Y-53652054D01*
G37*
X137332219Y-53652054D02*
X136732219Y-53652054D01*
X136732219Y-52652054D01*
X137332219Y-52652054D01*
X137332219Y-53652054D01*
G36*
X137332219Y-52352054D02*
G01*
X136732219Y-52352054D01*
X136732219Y-51352054D01*
X137332219Y-51352054D01*
X137332219Y-52352054D01*
G37*
X137332219Y-52352054D02*
X136732219Y-52352054D01*
X136732219Y-51352054D01*
X137332219Y-51352054D01*
X137332219Y-52352054D01*
G36*
X132802219Y-53702054D02*
G01*
X132202219Y-53702054D01*
X132202219Y-52702054D01*
X132802219Y-52702054D01*
X132802219Y-53702054D01*
G37*
X132802219Y-53702054D02*
X132202219Y-53702054D01*
X132202219Y-52702054D01*
X132802219Y-52702054D01*
X132802219Y-53702054D01*
G36*
X132802219Y-52302054D02*
G01*
X132202219Y-52302054D01*
X132202219Y-51302054D01*
X132802219Y-51302054D01*
X132802219Y-52302054D01*
G37*
X132802219Y-52302054D02*
X132202219Y-52302054D01*
X132202219Y-51302054D01*
X132802219Y-51302054D01*
X132802219Y-52302054D01*
G36*
X97582211Y-71351633D02*
G01*
X96982211Y-71351633D01*
X96982211Y-70351633D01*
X97582211Y-70351633D01*
X97582211Y-71351633D01*
G37*
X97582211Y-71351633D02*
X96982211Y-71351633D01*
X96982211Y-70351633D01*
X97582211Y-70351633D01*
X97582211Y-71351633D01*
G36*
X97582211Y-72651633D02*
G01*
X96982211Y-72651633D01*
X96982211Y-71651633D01*
X97582211Y-71651633D01*
X97582211Y-72651633D01*
G37*
X97582211Y-72651633D02*
X96982211Y-72651633D01*
X96982211Y-71651633D01*
X97582211Y-71651633D01*
X97582211Y-72651633D01*
G36*
X102112211Y-71301633D02*
G01*
X101512211Y-71301633D01*
X101512211Y-70301633D01*
X102112211Y-70301633D01*
X102112211Y-71301633D01*
G37*
X102112211Y-71301633D02*
X101512211Y-71301633D01*
X101512211Y-70301633D01*
X102112211Y-70301633D01*
X102112211Y-71301633D01*
G36*
X102112211Y-72701633D02*
G01*
X101512211Y-72701633D01*
X101512211Y-71701633D01*
X102112211Y-71701633D01*
X102112211Y-72701633D01*
G37*
X102112211Y-72701633D02*
X101512211Y-72701633D01*
X101512211Y-71701633D01*
X102112211Y-71701633D01*
X102112211Y-72701633D01*
G36*
X97582211Y-52352054D02*
G01*
X96982211Y-52352054D01*
X96982211Y-51352054D01*
X97582211Y-51352054D01*
X97582211Y-52352054D01*
G37*
X97582211Y-52352054D02*
X96982211Y-52352054D01*
X96982211Y-51352054D01*
X97582211Y-51352054D01*
X97582211Y-52352054D01*
G36*
X97582211Y-53652054D02*
G01*
X96982211Y-53652054D01*
X96982211Y-52652054D01*
X97582211Y-52652054D01*
X97582211Y-53652054D01*
G37*
X97582211Y-53652054D02*
X96982211Y-53652054D01*
X96982211Y-52652054D01*
X97582211Y-52652054D01*
X97582211Y-53652054D01*
G36*
X102112211Y-52302054D02*
G01*
X101512211Y-52302054D01*
X101512211Y-51302054D01*
X102112211Y-51302054D01*
X102112211Y-52302054D01*
G37*
X102112211Y-52302054D02*
X101512211Y-52302054D01*
X101512211Y-51302054D01*
X102112211Y-51302054D01*
X102112211Y-52302054D01*
G36*
X102112211Y-53702054D02*
G01*
X101512211Y-53702054D01*
X101512211Y-52702054D01*
X102112211Y-52702054D01*
X102112211Y-53702054D01*
G37*
X102112211Y-53702054D02*
X101512211Y-53702054D01*
X101512211Y-52702054D01*
X102112211Y-52702054D01*
X102112211Y-53702054D01*
G36*
X79582211Y-71351633D02*
G01*
X78982211Y-71351633D01*
X78982211Y-70351633D01*
X79582211Y-70351633D01*
X79582211Y-71351633D01*
G37*
X79582211Y-71351633D02*
X78982211Y-71351633D01*
X78982211Y-70351633D01*
X79582211Y-70351633D01*
X79582211Y-71351633D01*
G36*
X79582211Y-72651633D02*
G01*
X78982211Y-72651633D01*
X78982211Y-71651633D01*
X79582211Y-71651633D01*
X79582211Y-72651633D01*
G37*
X79582211Y-72651633D02*
X78982211Y-72651633D01*
X78982211Y-71651633D01*
X79582211Y-71651633D01*
X79582211Y-72651633D01*
G36*
X84112211Y-71301633D02*
G01*
X83512211Y-71301633D01*
X83512211Y-70301633D01*
X84112211Y-70301633D01*
X84112211Y-71301633D01*
G37*
X84112211Y-71301633D02*
X83512211Y-71301633D01*
X83512211Y-70301633D01*
X84112211Y-70301633D01*
X84112211Y-71301633D01*
G36*
X84112211Y-72701633D02*
G01*
X83512211Y-72701633D01*
X83512211Y-71701633D01*
X84112211Y-71701633D01*
X84112211Y-72701633D01*
G37*
X84112211Y-72701633D02*
X83512211Y-72701633D01*
X83512211Y-71701633D01*
X84112211Y-71701633D01*
X84112211Y-72701633D01*
G36*
X119332219Y-72651633D02*
G01*
X118732219Y-72651633D01*
X118732219Y-71651633D01*
X119332219Y-71651633D01*
X119332219Y-72651633D01*
G37*
X119332219Y-72651633D02*
X118732219Y-72651633D01*
X118732219Y-71651633D01*
X119332219Y-71651633D01*
X119332219Y-72651633D01*
G36*
X119332219Y-71351633D02*
G01*
X118732219Y-71351633D01*
X118732219Y-70351633D01*
X119332219Y-70351633D01*
X119332219Y-71351633D01*
G37*
X119332219Y-71351633D02*
X118732219Y-71351633D01*
X118732219Y-70351633D01*
X119332219Y-70351633D01*
X119332219Y-71351633D01*
G36*
X114802219Y-72701633D02*
G01*
X114202219Y-72701633D01*
X114202219Y-71701633D01*
X114802219Y-71701633D01*
X114802219Y-72701633D01*
G37*
X114802219Y-72701633D02*
X114202219Y-72701633D01*
X114202219Y-71701633D01*
X114802219Y-71701633D01*
X114802219Y-72701633D01*
G36*
X114802219Y-71301633D02*
G01*
X114202219Y-71301633D01*
X114202219Y-70301633D01*
X114802219Y-70301633D01*
X114802219Y-71301633D01*
G37*
X114802219Y-71301633D02*
X114202219Y-71301633D01*
X114202219Y-70301633D01*
X114802219Y-70301633D01*
X114802219Y-71301633D01*
G36*
X106582211Y-71351633D02*
G01*
X105982211Y-71351633D01*
X105982211Y-70351633D01*
X106582211Y-70351633D01*
X106582211Y-71351633D01*
G37*
X106582211Y-71351633D02*
X105982211Y-71351633D01*
X105982211Y-70351633D01*
X106582211Y-70351633D01*
X106582211Y-71351633D01*
G36*
X106582211Y-72651633D02*
G01*
X105982211Y-72651633D01*
X105982211Y-71651633D01*
X106582211Y-71651633D01*
X106582211Y-72651633D01*
G37*
X106582211Y-72651633D02*
X105982211Y-72651633D01*
X105982211Y-71651633D01*
X106582211Y-71651633D01*
X106582211Y-72651633D01*
G36*
X111112211Y-71301633D02*
G01*
X110512211Y-71301633D01*
X110512211Y-70301633D01*
X111112211Y-70301633D01*
X111112211Y-71301633D01*
G37*
X111112211Y-71301633D02*
X110512211Y-71301633D01*
X110512211Y-70301633D01*
X111112211Y-70301633D01*
X111112211Y-71301633D01*
G36*
X111112211Y-72701633D02*
G01*
X110512211Y-72701633D01*
X110512211Y-71701633D01*
X111112211Y-71701633D01*
X111112211Y-72701633D01*
G37*
X111112211Y-72701633D02*
X110512211Y-72701633D01*
X110512211Y-71701633D01*
X111112211Y-71701633D01*
X111112211Y-72701633D01*
G36*
X119332219Y-53652054D02*
G01*
X118732219Y-53652054D01*
X118732219Y-52652054D01*
X119332219Y-52652054D01*
X119332219Y-53652054D01*
G37*
X119332219Y-53652054D02*
X118732219Y-53652054D01*
X118732219Y-52652054D01*
X119332219Y-52652054D01*
X119332219Y-53652054D01*
G36*
X119332219Y-52352054D02*
G01*
X118732219Y-52352054D01*
X118732219Y-51352054D01*
X119332219Y-51352054D01*
X119332219Y-52352054D01*
G37*
X119332219Y-52352054D02*
X118732219Y-52352054D01*
X118732219Y-51352054D01*
X119332219Y-51352054D01*
X119332219Y-52352054D01*
G36*
X114802219Y-53702054D02*
G01*
X114202219Y-53702054D01*
X114202219Y-52702054D01*
X114802219Y-52702054D01*
X114802219Y-53702054D01*
G37*
X114802219Y-53702054D02*
X114202219Y-53702054D01*
X114202219Y-52702054D01*
X114802219Y-52702054D01*
X114802219Y-53702054D01*
G36*
X114802219Y-52302054D02*
G01*
X114202219Y-52302054D01*
X114202219Y-51302054D01*
X114802219Y-51302054D01*
X114802219Y-52302054D01*
G37*
X114802219Y-52302054D02*
X114202219Y-52302054D01*
X114202219Y-51302054D01*
X114802219Y-51302054D01*
X114802219Y-52302054D01*
G36*
X106582211Y-52352054D02*
G01*
X105982211Y-52352054D01*
X105982211Y-51352054D01*
X106582211Y-51352054D01*
X106582211Y-52352054D01*
G37*
X106582211Y-52352054D02*
X105982211Y-52352054D01*
X105982211Y-51352054D01*
X106582211Y-51352054D01*
X106582211Y-52352054D01*
G36*
X106582211Y-53652054D02*
G01*
X105982211Y-53652054D01*
X105982211Y-52652054D01*
X106582211Y-52652054D01*
X106582211Y-53652054D01*
G37*
X106582211Y-53652054D02*
X105982211Y-53652054D01*
X105982211Y-52652054D01*
X106582211Y-52652054D01*
X106582211Y-53652054D01*
G36*
X111112211Y-52302054D02*
G01*
X110512211Y-52302054D01*
X110512211Y-51302054D01*
X111112211Y-51302054D01*
X111112211Y-52302054D01*
G37*
X111112211Y-52302054D02*
X110512211Y-52302054D01*
X110512211Y-51302054D01*
X111112211Y-51302054D01*
X111112211Y-52302054D01*
G36*
X111112211Y-53702054D02*
G01*
X110512211Y-53702054D01*
X110512211Y-52702054D01*
X111112211Y-52702054D01*
X111112211Y-53702054D01*
G37*
X111112211Y-53702054D02*
X110512211Y-53702054D01*
X110512211Y-52702054D01*
X111112211Y-52702054D01*
X111112211Y-53702054D01*
G36*
X88582211Y-71351633D02*
G01*
X87982211Y-71351633D01*
X87982211Y-70351633D01*
X88582211Y-70351633D01*
X88582211Y-71351633D01*
G37*
X88582211Y-71351633D02*
X87982211Y-71351633D01*
X87982211Y-70351633D01*
X88582211Y-70351633D01*
X88582211Y-71351633D01*
G36*
X88582211Y-72651633D02*
G01*
X87982211Y-72651633D01*
X87982211Y-71651633D01*
X88582211Y-71651633D01*
X88582211Y-72651633D01*
G37*
X88582211Y-72651633D02*
X87982211Y-72651633D01*
X87982211Y-71651633D01*
X88582211Y-71651633D01*
X88582211Y-72651633D01*
G36*
X93112211Y-71301633D02*
G01*
X92512211Y-71301633D01*
X92512211Y-70301633D01*
X93112211Y-70301633D01*
X93112211Y-71301633D01*
G37*
X93112211Y-71301633D02*
X92512211Y-71301633D01*
X92512211Y-70301633D01*
X93112211Y-70301633D01*
X93112211Y-71301633D01*
G36*
X93112211Y-72701633D02*
G01*
X92512211Y-72701633D01*
X92512211Y-71701633D01*
X93112211Y-71701633D01*
X93112211Y-72701633D01*
G37*
X93112211Y-72701633D02*
X92512211Y-72701633D01*
X92512211Y-71701633D01*
X93112211Y-71701633D01*
X93112211Y-72701633D01*
G36*
X128332219Y-53652054D02*
G01*
X127732219Y-53652054D01*
X127732219Y-52652054D01*
X128332219Y-52652054D01*
X128332219Y-53652054D01*
G37*
X128332219Y-53652054D02*
X127732219Y-53652054D01*
X127732219Y-52652054D01*
X128332219Y-52652054D01*
X128332219Y-53652054D01*
G36*
X128332219Y-52352054D02*
G01*
X127732219Y-52352054D01*
X127732219Y-51352054D01*
X128332219Y-51352054D01*
X128332219Y-52352054D01*
G37*
X128332219Y-52352054D02*
X127732219Y-52352054D01*
X127732219Y-51352054D01*
X128332219Y-51352054D01*
X128332219Y-52352054D01*
G36*
X123802219Y-53702054D02*
G01*
X123202219Y-53702054D01*
X123202219Y-52702054D01*
X123802219Y-52702054D01*
X123802219Y-53702054D01*
G37*
X123802219Y-53702054D02*
X123202219Y-53702054D01*
X123202219Y-52702054D01*
X123802219Y-52702054D01*
X123802219Y-53702054D01*
G36*
X123802219Y-52302054D02*
G01*
X123202219Y-52302054D01*
X123202219Y-51302054D01*
X123802219Y-51302054D01*
X123802219Y-52302054D01*
G37*
X123802219Y-52302054D02*
X123202219Y-52302054D01*
X123202219Y-51302054D01*
X123802219Y-51302054D01*
X123802219Y-52302054D01*
G36*
X146332219Y-72651633D02*
G01*
X145732219Y-72651633D01*
X145732219Y-71651633D01*
X146332219Y-71651633D01*
X146332219Y-72651633D01*
G37*
X146332219Y-72651633D02*
X145732219Y-72651633D01*
X145732219Y-71651633D01*
X146332219Y-71651633D01*
X146332219Y-72651633D01*
G36*
X146332219Y-71351633D02*
G01*
X145732219Y-71351633D01*
X145732219Y-70351633D01*
X146332219Y-70351633D01*
X146332219Y-71351633D01*
G37*
X146332219Y-71351633D02*
X145732219Y-71351633D01*
X145732219Y-70351633D01*
X146332219Y-70351633D01*
X146332219Y-71351633D01*
G36*
X141802219Y-72701633D02*
G01*
X141202219Y-72701633D01*
X141202219Y-71701633D01*
X141802219Y-71701633D01*
X141802219Y-72701633D01*
G37*
X141802219Y-72701633D02*
X141202219Y-72701633D01*
X141202219Y-71701633D01*
X141802219Y-71701633D01*
X141802219Y-72701633D01*
G36*
X141802219Y-71301633D02*
G01*
X141202219Y-71301633D01*
X141202219Y-70301633D01*
X141802219Y-70301633D01*
X141802219Y-71301633D01*
G37*
X141802219Y-71301633D02*
X141202219Y-71301633D01*
X141202219Y-70301633D01*
X141802219Y-70301633D01*
X141802219Y-71301633D01*
G36*
X88582211Y-52352054D02*
G01*
X87982211Y-52352054D01*
X87982211Y-51352054D01*
X88582211Y-51352054D01*
X88582211Y-52352054D01*
G37*
X88582211Y-52352054D02*
X87982211Y-52352054D01*
X87982211Y-51352054D01*
X88582211Y-51352054D01*
X88582211Y-52352054D01*
G36*
X88582211Y-53652054D02*
G01*
X87982211Y-53652054D01*
X87982211Y-52652054D01*
X88582211Y-52652054D01*
X88582211Y-53652054D01*
G37*
X88582211Y-53652054D02*
X87982211Y-53652054D01*
X87982211Y-52652054D01*
X88582211Y-52652054D01*
X88582211Y-53652054D01*
G36*
X93112211Y-52302054D02*
G01*
X92512211Y-52302054D01*
X92512211Y-51302054D01*
X93112211Y-51302054D01*
X93112211Y-52302054D01*
G37*
X93112211Y-52302054D02*
X92512211Y-52302054D01*
X92512211Y-51302054D01*
X93112211Y-51302054D01*
X93112211Y-52302054D01*
G36*
X93112211Y-53702054D02*
G01*
X92512211Y-53702054D01*
X92512211Y-52702054D01*
X93112211Y-52702054D01*
X93112211Y-53702054D01*
G37*
X93112211Y-53702054D02*
X92512211Y-53702054D01*
X92512211Y-52702054D01*
X93112211Y-52702054D01*
X93112211Y-53702054D01*
G36*
X146332219Y-53652054D02*
G01*
X145732219Y-53652054D01*
X145732219Y-52652054D01*
X146332219Y-52652054D01*
X146332219Y-53652054D01*
G37*
X146332219Y-53652054D02*
X145732219Y-53652054D01*
X145732219Y-52652054D01*
X146332219Y-52652054D01*
X146332219Y-53652054D01*
G36*
X146332219Y-52352054D02*
G01*
X145732219Y-52352054D01*
X145732219Y-51352054D01*
X146332219Y-51352054D01*
X146332219Y-52352054D01*
G37*
X146332219Y-52352054D02*
X145732219Y-52352054D01*
X145732219Y-51352054D01*
X146332219Y-51352054D01*
X146332219Y-52352054D01*
G36*
X141802219Y-53702054D02*
G01*
X141202219Y-53702054D01*
X141202219Y-52702054D01*
X141802219Y-52702054D01*
X141802219Y-53702054D01*
G37*
X141802219Y-53702054D02*
X141202219Y-53702054D01*
X141202219Y-52702054D01*
X141802219Y-52702054D01*
X141802219Y-53702054D01*
G36*
X141802219Y-52302054D02*
G01*
X141202219Y-52302054D01*
X141202219Y-51302054D01*
X141802219Y-51302054D01*
X141802219Y-52302054D01*
G37*
X141802219Y-52302054D02*
X141202219Y-52302054D01*
X141202219Y-51302054D01*
X141802219Y-51302054D01*
X141802219Y-52302054D01*
G36*
X79582211Y-52352054D02*
G01*
X78982211Y-52352054D01*
X78982211Y-51352054D01*
X79582211Y-51352054D01*
X79582211Y-52352054D01*
G37*
X79582211Y-52352054D02*
X78982211Y-52352054D01*
X78982211Y-51352054D01*
X79582211Y-51352054D01*
X79582211Y-52352054D01*
G36*
X79582211Y-53652054D02*
G01*
X78982211Y-53652054D01*
X78982211Y-52652054D01*
X79582211Y-52652054D01*
X79582211Y-53652054D01*
G37*
X79582211Y-53652054D02*
X78982211Y-53652054D01*
X78982211Y-52652054D01*
X79582211Y-52652054D01*
X79582211Y-53652054D01*
G36*
X84112211Y-52302054D02*
G01*
X83512211Y-52302054D01*
X83512211Y-51302054D01*
X84112211Y-51302054D01*
X84112211Y-52302054D01*
G37*
X84112211Y-52302054D02*
X83512211Y-52302054D01*
X83512211Y-51302054D01*
X84112211Y-51302054D01*
X84112211Y-52302054D01*
G36*
X84112211Y-53702054D02*
G01*
X83512211Y-53702054D01*
X83512211Y-52702054D01*
X84112211Y-52702054D01*
X84112211Y-53702054D01*
G37*
X84112211Y-53702054D02*
X83512211Y-53702054D01*
X83512211Y-52702054D01*
X84112211Y-52702054D01*
X84112211Y-53702054D01*
G36*
X137332219Y-72651633D02*
G01*
X136732219Y-72651633D01*
X136732219Y-71651633D01*
X137332219Y-71651633D01*
X137332219Y-72651633D01*
G37*
X137332219Y-72651633D02*
X136732219Y-72651633D01*
X136732219Y-71651633D01*
X137332219Y-71651633D01*
X137332219Y-72651633D01*
G36*
X137332219Y-71351633D02*
G01*
X136732219Y-71351633D01*
X136732219Y-70351633D01*
X137332219Y-70351633D01*
X137332219Y-71351633D01*
G37*
X137332219Y-71351633D02*
X136732219Y-71351633D01*
X136732219Y-70351633D01*
X137332219Y-70351633D01*
X137332219Y-71351633D01*
G36*
X132802219Y-72701633D02*
G01*
X132202219Y-72701633D01*
X132202219Y-71701633D01*
X132802219Y-71701633D01*
X132802219Y-72701633D01*
G37*
X132802219Y-72701633D02*
X132202219Y-72701633D01*
X132202219Y-71701633D01*
X132802219Y-71701633D01*
X132802219Y-72701633D01*
G36*
X132802219Y-71301633D02*
G01*
X132202219Y-71301633D01*
X132202219Y-70301633D01*
X132802219Y-70301633D01*
X132802219Y-71301633D01*
G37*
X132802219Y-71301633D02*
X132202219Y-71301633D01*
X132202219Y-70301633D01*
X132802219Y-70301633D01*
X132802219Y-71301633D01*
D12*
X220053002Y-41537300D03*
X219403002Y-41537300D03*
X218753002Y-41537300D03*
X218103002Y-41537300D03*
X217453002Y-41537300D03*
X216803002Y-41537300D03*
X216153002Y-41537300D03*
X215503002Y-41537300D03*
X215503002Y-47262300D03*
X216153002Y-47262300D03*
X216803002Y-47262300D03*
X217453002Y-47262300D03*
X218103002Y-47262300D03*
X218753002Y-47262300D03*
X219403002Y-47262300D03*
X220053002Y-47262300D03*
D13*
X127665878Y-62840011D03*
X127665878Y-63790011D03*
X127665878Y-64740011D03*
X129940878Y-64740011D03*
X129940878Y-62840011D03*
D14*
X127853378Y-60919989D03*
X129753378Y-60919989D03*
D15*
X231252699Y-55619999D03*
X226147299Y-55619999D03*
D16*
X128028376Y-58850000D03*
X129578376Y-58850000D03*
D17*
X234095000Y-57850000D03*
X237045000Y-57850000D03*
D16*
X234555000Y-55260000D03*
X236105000Y-55260000D03*
D18*
X220820000Y-57465000D03*
X220820000Y-60415000D03*
D16*
X220165000Y-66920000D03*
X221715000Y-66920000D03*
D19*
X129733376Y-66560000D03*
X127833376Y-66560000D03*
D16*
X222395000Y-40500000D03*
X223945000Y-40500000D03*
D20*
X95290005Y-59884989D03*
X95290005Y-56934989D03*
D21*
X86295999Y-66695011D03*
X86295999Y-66045013D03*
X86295999Y-65395012D03*
X86295999Y-64745012D03*
X86295999Y-64095012D03*
X86295999Y-63445012D03*
X86295999Y-62795012D03*
X86295999Y-62145012D03*
X86295999Y-61495012D03*
X86295999Y-60845012D03*
X86295999Y-60195011D03*
X86295999Y-59545013D03*
X79095999Y-59545013D03*
X79095999Y-60195011D03*
X79095999Y-60845012D03*
X79095999Y-61495012D03*
X79095999Y-62145012D03*
X79095999Y-62795012D03*
X79095999Y-63445012D03*
X79095999Y-64095012D03*
X79095999Y-64745012D03*
X79095999Y-65395012D03*
X79095999Y-66045013D03*
X79095999Y-66695011D03*
D22*
X96469200Y-63754992D03*
X96469200Y-65304992D03*
X165830000Y-37025000D03*
X165830000Y-38575000D03*
D16*
X91300000Y-62108000D03*
X92850000Y-62108000D03*
D23*
X157130441Y-62803500D03*
X156480441Y-62803500D03*
X155830441Y-62803500D03*
X155180441Y-62803500D03*
X155180441Y-65078500D03*
X155830441Y-65078500D03*
X156480441Y-65078500D03*
X157130441Y-65078500D03*
D24*
X94736500Y-65479992D03*
X94736500Y-64529992D03*
X94736500Y-63579992D03*
X92461500Y-63579992D03*
X92461500Y-65479992D03*
D25*
X160130422Y-64830000D03*
X158480422Y-64830000D03*
X160130422Y-63052000D03*
X158480422Y-63052000D03*
D26*
X160324200Y-67445000D03*
X159054200Y-67445000D03*
X157784200Y-67445000D03*
X156514200Y-67445000D03*
X155244200Y-67445000D03*
X153974200Y-67445000D03*
X152704200Y-67445000D03*
X151434200Y-67445000D03*
X151434200Y-72395000D03*
X152704200Y-72395000D03*
X153974200Y-72395000D03*
X155244200Y-72395000D03*
X156514200Y-72395000D03*
X157784200Y-72395000D03*
X159054200Y-72395000D03*
X160324200Y-72395000D03*
D16*
X128028376Y-57050000D03*
X129578376Y-57050000D03*
D27*
X222980524Y-50557924D03*
X222980524Y-52437524D03*
X225164924Y-51497724D03*
X240899999Y-59119999D03*
X240899999Y-57240399D03*
X238715599Y-58180199D03*
D28*
X221370199Y-44132199D03*
X223249799Y-44132199D03*
X222309999Y-41947799D03*
D29*
X139677500Y-64743000D03*
X139677500Y-62403000D03*
D30*
X142540000Y-67148000D03*
X142540000Y-66498000D03*
X142540000Y-65848000D03*
X142540000Y-65198000D03*
X142540000Y-64548000D03*
X142540000Y-63898000D03*
X142540000Y-63248000D03*
X142540000Y-62598000D03*
X142540000Y-61948000D03*
X142540000Y-61298000D03*
X142540000Y-60648000D03*
X142540000Y-59998000D03*
X136815000Y-59998000D03*
X136815000Y-60648000D03*
X136815000Y-61298000D03*
X136815000Y-61948000D03*
X136815000Y-62598000D03*
X136815000Y-63248000D03*
X136815000Y-63898000D03*
X136815000Y-64548000D03*
X136815000Y-65198000D03*
X136815000Y-65848000D03*
X136815000Y-66498000D03*
X136815000Y-67148000D03*
D31*
X212660000Y-47925000D03*
X212660000Y-46275000D03*
D19*
X218510000Y-74270000D03*
X216610000Y-74270000D03*
D25*
X223025000Y-55970000D03*
X221375000Y-55970000D03*
D31*
X245020000Y-58995000D03*
X245020000Y-57345000D03*
D32*
X213999716Y-39896200D03*
X213999716Y-41546200D03*
X213999716Y-42944200D03*
X213999716Y-44594200D03*
D33*
X221375000Y-54570000D03*
X223025000Y-54570000D03*
D32*
X243670000Y-57345000D03*
X243670000Y-58995000D03*
D25*
X134865000Y-65430000D03*
X133215000Y-65430000D03*
D32*
X216130000Y-71085000D03*
X216130000Y-72735000D03*
X214179710Y-46275000D03*
X214179710Y-47925000D03*
D34*
X134815000Y-67000000D03*
X133265000Y-67000000D03*
D20*
X220820000Y-65175000D03*
X220820000Y-62225000D03*
D22*
X223470000Y-58165000D03*
X223470000Y-59715000D03*
D35*
X221288000Y-38669782D03*
X219288000Y-38669782D03*
D36*
X218088000Y-38669782D03*
D35*
X220288000Y-38669782D03*
X222288000Y-38669782D03*
D36*
X223488000Y-38669782D03*
D18*
X88859995Y-56934989D03*
X88859995Y-59884989D03*
D37*
X98325000Y-57665000D03*
X98325000Y-58935000D03*
X98325000Y-60205000D03*
X98325000Y-61475000D03*
X98325000Y-62745000D03*
X98325000Y-64015000D03*
X98325000Y-65285000D03*
X98325000Y-66555000D03*
X103275000Y-66555000D03*
X103275000Y-65285000D03*
X103275000Y-64015000D03*
X103275000Y-62745000D03*
X103275000Y-61475000D03*
X103275000Y-60205000D03*
X103275000Y-58935000D03*
X103275000Y-57665000D03*
D38*
X164220999Y-87977999D03*
X164220999Y-84377999D03*
X162950999Y-87977999D03*
X162950999Y-84377999D03*
X161680999Y-87977999D03*
X161680999Y-84377999D03*
X160410999Y-87977999D03*
X160410999Y-84377999D03*
X159140999Y-87977999D03*
X159140999Y-84377999D03*
D25*
X92900000Y-59568000D03*
X91250000Y-59568000D03*
X92900000Y-57028000D03*
X91250000Y-57028000D03*
D39*
X225150000Y-43120000D03*
X225150000Y-41220000D03*
D31*
X195060000Y-57755000D03*
X195060000Y-56105000D03*
X212000000Y-44905000D03*
X212000000Y-43255000D03*
D38*
X159140999Y-36021999D03*
X159140999Y-39621999D03*
X160410999Y-36021999D03*
X160410999Y-39621999D03*
X161680999Y-36021999D03*
X161680999Y-39621999D03*
X162950999Y-36021999D03*
X162950999Y-39621999D03*
X164220999Y-36021999D03*
X164220999Y-39621999D03*
D40*
X214430000Y-74266000D03*
X214430000Y-72996000D03*
X214430000Y-71726000D03*
X214430000Y-70456000D03*
X214430000Y-69186000D03*
X214430000Y-67916000D03*
X214430000Y-66646000D03*
X214430000Y-65376000D03*
X214430000Y-64106000D03*
X214430000Y-62836000D03*
X214430000Y-61566000D03*
X214430000Y-60296000D03*
X214430000Y-59026000D03*
X214430000Y-57756000D03*
D41*
X212665000Y-56506000D03*
X211395000Y-56506000D03*
X210125000Y-56506000D03*
X208855000Y-56506000D03*
X207585000Y-56506000D03*
X206315000Y-56506000D03*
X205045000Y-56506000D03*
X203775000Y-56506000D03*
X202505000Y-56506000D03*
X201235000Y-56506000D03*
X199965000Y-56506000D03*
X198695000Y-56506000D03*
D42*
X196930000Y-57756000D03*
X196930000Y-59026000D03*
X196930000Y-60296000D03*
X196930000Y-61566000D03*
X196930000Y-62836000D03*
X196930000Y-64106000D03*
X196930000Y-65376000D03*
X196930000Y-66646000D03*
X196930000Y-67916000D03*
X196930000Y-69186000D03*
X196930000Y-70456000D03*
X196930000Y-71726000D03*
X196930000Y-72996000D03*
X196930000Y-74266000D03*
D43*
X208580000Y-67946000D03*
X208580000Y-66546000D03*
X208580000Y-65146000D03*
X207180000Y-67946000D03*
X207180000Y-66546000D03*
X207180000Y-65146000D03*
X205780000Y-67946000D03*
X205780000Y-66546000D03*
X205780000Y-65146000D03*
D34*
X96065005Y-62108000D03*
X94515005Y-62108000D03*
D33*
X91250000Y-58298000D03*
X92900000Y-58298000D03*
D44*
X227919999Y-67919999D03*
X224319999Y-67919999D03*
X227919999Y-71469999D03*
X224319999Y-71469999D03*
D45*
X228419999Y-62294999D03*
X223839999Y-62294999D03*
D44*
X242699999Y-67919999D03*
X239099999Y-67919999D03*
X242699999Y-71469999D03*
X239099999Y-71469999D03*
D45*
X238619999Y-62294999D03*
X243199999Y-62294999D03*
D25*
X92900000Y-60838000D03*
X91250000Y-60838000D03*
D44*
X235309999Y-67919999D03*
X231709999Y-67919999D03*
X235309999Y-71469999D03*
X231709999Y-71469999D03*
D45*
X235809999Y-62294999D03*
X231229999Y-62294999D03*
D31*
X90932000Y-65354992D03*
X90932000Y-63704992D03*
M02*
