%TF.GenerationSoftware,KiCad,Pcbnew,(6.0.1-0)*%
%TF.CreationDate,2022-03-07T17:04:25+09:00*%
%TF.ProjectId,qLAMP-lcd,714c414d-502d-46c6-9364-2e6b69636164,rev?*%
%TF.SameCoordinates,Original*%
%TF.FileFunction,Copper,L2,Bot*%
%TF.FilePolarity,Positive*%
%FSLAX46Y46*%
G04 Gerber Fmt 4.6, Leading zero omitted, Abs format (unit mm)*
G04 Created by KiCad (PCBNEW (6.0.1-0)) date 2022-03-07 17:04:25*
%MOMM*%
%LPD*%
G01*
G04 APERTURE LIST*
%TA.AperFunction,ComponentPad*%
%ADD10R,1.064920X1.800000*%
%TD*%
%TA.AperFunction,ComponentPad*%
%ADD11O,1.064920X1.800000*%
%TD*%
%TA.AperFunction,ComponentPad*%
%ADD12O,2.032000X2.032000*%
%TD*%
%TA.AperFunction,ComponentPad*%
%ADD13R,1.700000X1.700000*%
%TD*%
%TA.AperFunction,ComponentPad*%
%ADD14O,1.700000X1.700000*%
%TD*%
%TA.AperFunction,ComponentPad*%
%ADD15C,1.700000*%
%TD*%
%TA.AperFunction,ViaPad*%
%ADD16C,0.800000*%
%TD*%
%TA.AperFunction,Conductor*%
%ADD17C,0.762000*%
%TD*%
G04 APERTURE END LIST*
D10*
%TO.P,D1,1,GK*%
%TO.N,Net-(D1-Pad1)*%
X144285005Y-101259996D03*
D11*
%TO.P,D1,2,BK*%
%TO.N,Net-(D1-Pad2)*%
X145555005Y-101259996D03*
%TO.P,D1,3,A*%
%TO.N,VCCL*%
X146825005Y-101259996D03*
%TO.P,D1,4,RK*%
%TO.N,Net-(D1-Pad4)*%
X148095005Y-101259996D03*
%TD*%
D12*
%TO.P,D2,4,SDA*%
%TO.N,SDA*%
X150000000Y-91260000D03*
%TO.P,D2,3,SCL*%
%TO.N,SCL*%
X147460000Y-91260000D03*
%TO.P,D2,2,VCC*%
%TO.N,VCC*%
X144920000Y-91260000D03*
%TO.P,D2,1,GND*%
%TO.N,GND*%
X142380000Y-91260000D03*
%TD*%
D13*
%TO.P,J1,1,Pin_1*%
%TO.N,VCC*%
X161940000Y-91260000D03*
D14*
%TO.P,J1,2,Pin_2*%
%TO.N,SCL*%
X164480000Y-91260000D03*
%TO.P,J1,3,Pin_3*%
%TO.N,SDA*%
X167020000Y-91260000D03*
%TO.P,J1,4,Pin_4*%
%TO.N,GND*%
X169560000Y-91260000D03*
%TD*%
D13*
%TO.P,J3,1,Pin_1*%
%TO.N,VCCL*%
X134940000Y-99700000D03*
D14*
%TO.P,J3,2,Pin_2*%
%TO.N,LED_R*%
X134940000Y-102240000D03*
%TO.P,J3,3,Pin_3*%
%TO.N,LED_G*%
X134940000Y-104779999D03*
%TO.P,J3,4,Pin_4*%
%TO.N,LED_B*%
X134940000Y-107320000D03*
%TD*%
D15*
%TO.P,SW3,1,1*%
%TO.N,TACT3*%
X160940000Y-107910000D03*
%TO.P,SW3,2,2*%
X167440000Y-107910000D03*
%TO.P,SW3,3,3*%
%TO.N,GND*%
X160940000Y-112410000D03*
%TO.P,SW3,4,4*%
X167440000Y-112410000D03*
%TD*%
%TO.P,SW2,1,1*%
%TO.N,TACT2*%
X160940000Y-101410000D03*
%TO.P,SW2,2,2*%
X167440000Y-101410000D03*
%TO.P,SW2,3,3*%
%TO.N,GND*%
X160940000Y-105910000D03*
%TO.P,SW2,4,4*%
X167440000Y-105910000D03*
%TD*%
%TO.P,SW1,1,1*%
%TO.N,TACT1*%
X160940000Y-94910000D03*
%TO.P,SW1,2,2*%
X167440000Y-94910000D03*
%TO.P,SW1,3,3*%
%TO.N,GND*%
X160940000Y-99410000D03*
%TO.P,SW1,4,4*%
X167440000Y-99410000D03*
%TD*%
D13*
%TO.P,J2,1,Pin_1*%
%TO.N,TACT3*%
X161940000Y-115760000D03*
D14*
%TO.P,J2,2,Pin_2*%
%TO.N,TACT2*%
X164480000Y-115760000D03*
%TO.P,J2,3,Pin_3*%
%TO.N,TACT1*%
X167020000Y-115760000D03*
%TO.P,J2,4,Pin_4*%
%TO.N,GND*%
X169560000Y-115760000D03*
%TD*%
D16*
%TO.N,GND*%
X158890000Y-105820000D03*
X161030000Y-103520000D03*
X163600000Y-98170000D03*
X165180000Y-96200000D03*
X168350000Y-92710000D03*
X170710000Y-95910000D03*
X170590000Y-101760000D03*
X170650000Y-107500000D03*
X170310000Y-112740000D03*
X167470000Y-114180000D03*
X167870000Y-110380000D03*
X165540000Y-109260000D03*
X168140000Y-104290000D03*
X164530000Y-102650000D03*
X154080000Y-109200000D03*
X142470000Y-107400000D03*
X142980000Y-103630000D03*
X136860000Y-101130000D03*
X142760000Y-101050000D03*
X137450000Y-98400000D03*
X137180000Y-112680000D03*
X137990000Y-107780000D03*
X133950000Y-109090000D03*
X140360000Y-116570000D03*
X145570000Y-113490000D03*
X149760000Y-116670000D03*
X154910000Y-114600000D03*
X157470000Y-111360000D03*
X152320000Y-112030000D03*
X156440000Y-108070000D03*
X161140000Y-110140000D03*
X152320000Y-104110000D03*
X149520000Y-107910000D03*
X154200000Y-100740000D03*
X150110000Y-100770000D03*
X154480000Y-92110000D03*
X152350000Y-90850000D03*
X142840000Y-93290000D03*
X140280000Y-95180000D03*
X144210000Y-97970000D03*
X133750000Y-96320000D03*
X136270000Y-90850000D03*
X147530000Y-113260000D03*
X143890000Y-109950000D03*
%TO.N,SDA*%
X155465774Y-95984226D03*
%TO.N,SCL*%
X151020000Y-94820000D03*
%TO.N,Net-(Q1-Pad1)*%
X140390000Y-103050000D03*
X147940000Y-110200000D03*
%TD*%
D17*
%TO.N,GND*%
X143890000Y-109950000D02*
X145890000Y-109950000D01*
X145890000Y-109950000D02*
X147530000Y-111590000D01*
X147530000Y-111590000D02*
X147530000Y-113260000D01*
%TO.N,SDA*%
X159878870Y-97308431D02*
X157890400Y-95319961D01*
X167020000Y-91260000D02*
X167020000Y-92221895D01*
X161933464Y-97308431D02*
X159878870Y-97308431D01*
X167020000Y-92221895D02*
X161933464Y-97308431D01*
X157890400Y-95319961D02*
X156130039Y-95319961D01*
X156130039Y-95319961D02*
X155465774Y-95984226D01*
%TO.N,SCL*%
X161533864Y-96343711D02*
X160278470Y-96343711D01*
X160278470Y-96343711D02*
X158290000Y-94355241D01*
X164480000Y-91260000D02*
X164480000Y-93397575D01*
X164480000Y-93397575D02*
X161533864Y-96343711D01*
X158290000Y-94355241D02*
X151484759Y-94355241D01*
X151484759Y-94355241D02*
X151020000Y-94820000D01*
%TO.N,VCC*%
X161940000Y-91260000D02*
X159809479Y-93390521D01*
X147050521Y-93390521D02*
X144920000Y-91260000D01*
X159809479Y-93390521D02*
X147050521Y-93390521D01*
%TO.N,GND*%
X142380000Y-91260000D02*
X150530000Y-99410000D01*
X150530000Y-99410000D02*
X160940000Y-99410000D01*
%TO.N,TACT2*%
X167440000Y-101410000D02*
X160940000Y-101410000D01*
%TO.N,TACT3*%
X167440000Y-107910000D02*
X160940000Y-107910000D01*
%TO.N,GND*%
X160940000Y-112410000D02*
X167440000Y-112410000D01*
X169560000Y-110290000D02*
X169560000Y-105670000D01*
X169560000Y-105670000D02*
X169560000Y-99550000D01*
X169320000Y-105910000D02*
X169560000Y-105670000D01*
X167440000Y-105910000D02*
X169320000Y-105910000D01*
X160940000Y-105910000D02*
X167440000Y-105910000D01*
X169560000Y-99550000D02*
X169560000Y-91260000D01*
X167440000Y-99410000D02*
X169420000Y-99410000D01*
X169420000Y-99410000D02*
X169560000Y-99550000D01*
X160940000Y-99410000D02*
X167440000Y-99410000D01*
X167440000Y-112410000D02*
X169560000Y-110290000D01*
X169560000Y-115760000D02*
X169560000Y-114530000D01*
X169560000Y-114530000D02*
X167440000Y-112410000D01*
%TO.N,Net-(Q1-Pad1)*%
X147940000Y-110200000D02*
X147540000Y-110200000D01*
X147540000Y-110200000D02*
X140390000Y-103050000D01*
%TD*%
%TA.AperFunction,Conductor*%
%TO.N,GND*%
G36*
X171332121Y-89330002D02*
G01*
X171378614Y-89383658D01*
X171390000Y-89436000D01*
X171390000Y-117584000D01*
X171369998Y-117652121D01*
X171316342Y-117698614D01*
X171264000Y-117710000D01*
X132616000Y-117710000D01*
X132547879Y-117689998D01*
X132501386Y-117636342D01*
X132490000Y-117584000D01*
X132490000Y-115599438D01*
X133185066Y-115599438D01*
X133211883Y-115821044D01*
X133277519Y-116034400D01*
X133379901Y-116232759D01*
X133383310Y-116237201D01*
X133383312Y-116237205D01*
X133489036Y-116374987D01*
X133515790Y-116409854D01*
X133680893Y-116560086D01*
X133869990Y-116678707D01*
X134077105Y-116761966D01*
X134082593Y-116763103D01*
X134082598Y-116763104D01*
X134240053Y-116795711D01*
X134295690Y-116807233D01*
X134300303Y-116807499D01*
X134350526Y-116810395D01*
X134350530Y-116810395D01*
X134352349Y-116810500D01*
X134496630Y-116810500D01*
X134499417Y-116810251D01*
X134499423Y-116810251D01*
X134571792Y-116803792D01*
X134662339Y-116795711D01*
X134667753Y-116794230D01*
X134667758Y-116794229D01*
X134795104Y-116759390D01*
X134877651Y-116736808D01*
X134882709Y-116734396D01*
X134882713Y-116734394D01*
X135002393Y-116677309D01*
X135079129Y-116640708D01*
X135260405Y-116510448D01*
X135387987Y-116378794D01*
X135411846Y-116354174D01*
X135411848Y-116354171D01*
X135415749Y-116350146D01*
X135540250Y-116164868D01*
X135629974Y-115960471D01*
X135631282Y-115955023D01*
X135631284Y-115955017D01*
X135680775Y-115748872D01*
X135680775Y-115748871D01*
X135682085Y-115743415D01*
X135690386Y-115599438D01*
X156685066Y-115599438D01*
X156711883Y-115821044D01*
X156777519Y-116034400D01*
X156879901Y-116232759D01*
X156883310Y-116237201D01*
X156883312Y-116237205D01*
X156989036Y-116374987D01*
X157015790Y-116409854D01*
X157180893Y-116560086D01*
X157369990Y-116678707D01*
X157577105Y-116761966D01*
X157582593Y-116763103D01*
X157582598Y-116763104D01*
X157740053Y-116795711D01*
X157795690Y-116807233D01*
X157800303Y-116807499D01*
X157850526Y-116810395D01*
X157850530Y-116810395D01*
X157852349Y-116810500D01*
X157996630Y-116810500D01*
X157999417Y-116810251D01*
X157999423Y-116810251D01*
X158071792Y-116803792D01*
X158162339Y-116795711D01*
X158167753Y-116794230D01*
X158167758Y-116794229D01*
X158295104Y-116759390D01*
X158377651Y-116736808D01*
X158382709Y-116734396D01*
X158382713Y-116734394D01*
X158502393Y-116677309D01*
X158579129Y-116640708D01*
X158593942Y-116630064D01*
X160886300Y-116630064D01*
X160898119Y-116689480D01*
X160943140Y-116756860D01*
X160953455Y-116763752D01*
X160996024Y-116792195D01*
X161010520Y-116801881D01*
X161069936Y-116813700D01*
X162810064Y-116813700D01*
X162869480Y-116801881D01*
X162883977Y-116792195D01*
X162926545Y-116763752D01*
X162936860Y-116756860D01*
X162981881Y-116689480D01*
X162993700Y-116630064D01*
X162993700Y-115745217D01*
X163421305Y-115745217D01*
X163421821Y-115751361D01*
X163438080Y-115944994D01*
X163438081Y-115944999D01*
X163438596Y-115951133D01*
X163457906Y-116018475D01*
X163491260Y-116134791D01*
X163495555Y-116149770D01*
X163590010Y-116333560D01*
X163593835Y-116338386D01*
X163593837Y-116338389D01*
X163653467Y-116413623D01*
X163718364Y-116495503D01*
X163723057Y-116499497D01*
X163723058Y-116499498D01*
X163804370Y-116568699D01*
X163875730Y-116629431D01*
X164056111Y-116730243D01*
X164252639Y-116794099D01*
X164457826Y-116818566D01*
X164463961Y-116818094D01*
X164463963Y-116818094D01*
X164657715Y-116803185D01*
X164657718Y-116803184D01*
X164663858Y-116802712D01*
X164862887Y-116747143D01*
X165047332Y-116653973D01*
X165064311Y-116640708D01*
X165205307Y-116530550D01*
X165205308Y-116530549D01*
X165210168Y-116526752D01*
X165345191Y-116370325D01*
X165447260Y-116190652D01*
X165512486Y-115994575D01*
X165538385Y-115789563D01*
X165538798Y-115760000D01*
X165537348Y-115745217D01*
X165961305Y-115745217D01*
X165961821Y-115751361D01*
X165978080Y-115944994D01*
X165978081Y-115944999D01*
X165978596Y-115951133D01*
X165997906Y-116018475D01*
X166031260Y-116134791D01*
X166035555Y-116149770D01*
X166130010Y-116333560D01*
X166133835Y-116338386D01*
X166133837Y-116338389D01*
X166193467Y-116413623D01*
X166258364Y-116495503D01*
X166263057Y-116499497D01*
X166263058Y-116499498D01*
X166344370Y-116568699D01*
X166415730Y-116629431D01*
X166596111Y-116730243D01*
X166792639Y-116794099D01*
X166997826Y-116818566D01*
X167003961Y-116818094D01*
X167003963Y-116818094D01*
X167197715Y-116803185D01*
X167197718Y-116803184D01*
X167203858Y-116802712D01*
X167402887Y-116747143D01*
X167587332Y-116653973D01*
X167604311Y-116640708D01*
X167745307Y-116530550D01*
X167745308Y-116530549D01*
X167750168Y-116526752D01*
X167885191Y-116370325D01*
X167987260Y-116190652D01*
X168009858Y-116122720D01*
X168050338Y-116064398D01*
X168115926Y-116037218D01*
X168185796Y-116049812D01*
X168237766Y-116098182D01*
X168252332Y-116134791D01*
X168258566Y-116162451D01*
X168261645Y-116172275D01*
X168341770Y-116369603D01*
X168346413Y-116378794D01*
X168457694Y-116560388D01*
X168463777Y-116568699D01*
X168603213Y-116729667D01*
X168610580Y-116736883D01*
X168774434Y-116872916D01*
X168782881Y-116878831D01*
X168966756Y-116986279D01*
X168976042Y-116990729D01*
X169175001Y-117066703D01*
X169184899Y-117069579D01*
X169288250Y-117090606D01*
X169302299Y-117089410D01*
X169306000Y-117079065D01*
X169306000Y-117078517D01*
X169814000Y-117078517D01*
X169818064Y-117092359D01*
X169831478Y-117094393D01*
X169838184Y-117093534D01*
X169848262Y-117091392D01*
X170052255Y-117030191D01*
X170061842Y-117026433D01*
X170253095Y-116932739D01*
X170261945Y-116927464D01*
X170435328Y-116803792D01*
X170443200Y-116797139D01*
X170594052Y-116646812D01*
X170600730Y-116638965D01*
X170725003Y-116466020D01*
X170730313Y-116457183D01*
X170824670Y-116266267D01*
X170828469Y-116256672D01*
X170890377Y-116052910D01*
X170892555Y-116042837D01*
X170893986Y-116031962D01*
X170891775Y-116017778D01*
X170878617Y-116014000D01*
X169832115Y-116014000D01*
X169816876Y-116018475D01*
X169815671Y-116019865D01*
X169814000Y-116027548D01*
X169814000Y-117078517D01*
X169306000Y-117078517D01*
X169306000Y-115487885D01*
X169814000Y-115487885D01*
X169818475Y-115503124D01*
X169819865Y-115504329D01*
X169827548Y-115506000D01*
X170878344Y-115506000D01*
X170891875Y-115502027D01*
X170893180Y-115492947D01*
X170851214Y-115325875D01*
X170847894Y-115316124D01*
X170762972Y-115120814D01*
X170758105Y-115111739D01*
X170642426Y-114932926D01*
X170636136Y-114924757D01*
X170492806Y-114767240D01*
X170485273Y-114760215D01*
X170318139Y-114628222D01*
X170309552Y-114622517D01*
X170123117Y-114519599D01*
X170113705Y-114515369D01*
X169912959Y-114444280D01*
X169902988Y-114441646D01*
X169831837Y-114428972D01*
X169818540Y-114430432D01*
X169814000Y-114444989D01*
X169814000Y-115487885D01*
X169306000Y-115487885D01*
X169306000Y-114443102D01*
X169302082Y-114429758D01*
X169287806Y-114427771D01*
X169249324Y-114433660D01*
X169239288Y-114436051D01*
X169036868Y-114502212D01*
X169027359Y-114506209D01*
X168838463Y-114604542D01*
X168829738Y-114610036D01*
X168659433Y-114737905D01*
X168651726Y-114744748D01*
X168504590Y-114898717D01*
X168498104Y-114906727D01*
X168378098Y-115082649D01*
X168373000Y-115091623D01*
X168283338Y-115284783D01*
X168279775Y-115294470D01*
X168252612Y-115392415D01*
X168215133Y-115452713D01*
X168151004Y-115483176D01*
X168080586Y-115474133D01*
X168026236Y-115428454D01*
X168010573Y-115395162D01*
X168004964Y-115376585D01*
X167998907Y-115356523D01*
X167901895Y-115174070D01*
X167898005Y-115169300D01*
X167898002Y-115169296D01*
X167775187Y-115018710D01*
X167775184Y-115018707D01*
X167771292Y-115013935D01*
X167766543Y-115010006D01*
X167616822Y-114886146D01*
X167616819Y-114886144D01*
X167612072Y-114882217D01*
X167430301Y-114783933D01*
X167303714Y-114744748D01*
X167238788Y-114724650D01*
X167238785Y-114724649D01*
X167232901Y-114722828D01*
X167226776Y-114722184D01*
X167226775Y-114722184D01*
X167033520Y-114701872D01*
X167033519Y-114701872D01*
X167027392Y-114701228D01*
X166900582Y-114712768D01*
X166827742Y-114719397D01*
X166827741Y-114719397D01*
X166821601Y-114719956D01*
X166623367Y-114778300D01*
X166440241Y-114874036D01*
X166279198Y-115003518D01*
X166275239Y-115008236D01*
X166275238Y-115008237D01*
X166188389Y-115111739D01*
X166146371Y-115161814D01*
X166143408Y-115167203D01*
X166143405Y-115167208D01*
X166067913Y-115304528D01*
X166046821Y-115342895D01*
X165984339Y-115539864D01*
X165983653Y-115545981D01*
X165983652Y-115545985D01*
X165977031Y-115605015D01*
X165961305Y-115745217D01*
X165537348Y-115745217D01*
X165518633Y-115554345D01*
X165503169Y-115503124D01*
X165460688Y-115362422D01*
X165460687Y-115362420D01*
X165458907Y-115356523D01*
X165361895Y-115174070D01*
X165358005Y-115169300D01*
X165358002Y-115169296D01*
X165235187Y-115018710D01*
X165235184Y-115018707D01*
X165231292Y-115013935D01*
X165226543Y-115010006D01*
X165076822Y-114886146D01*
X165076819Y-114886144D01*
X165072072Y-114882217D01*
X164890301Y-114783933D01*
X164763714Y-114744748D01*
X164698788Y-114724650D01*
X164698785Y-114724649D01*
X164692901Y-114722828D01*
X164686776Y-114722184D01*
X164686775Y-114722184D01*
X164493520Y-114701872D01*
X164493519Y-114701872D01*
X164487392Y-114701228D01*
X164360582Y-114712768D01*
X164287742Y-114719397D01*
X164287741Y-114719397D01*
X164281601Y-114719956D01*
X164083367Y-114778300D01*
X163900241Y-114874036D01*
X163739198Y-115003518D01*
X163735239Y-115008236D01*
X163735238Y-115008237D01*
X163648389Y-115111739D01*
X163606371Y-115161814D01*
X163603408Y-115167203D01*
X163603405Y-115167208D01*
X163527913Y-115304528D01*
X163506821Y-115342895D01*
X163444339Y-115539864D01*
X163443653Y-115545981D01*
X163443652Y-115545985D01*
X163437031Y-115605015D01*
X163421305Y-115745217D01*
X162993700Y-115745217D01*
X162993700Y-114889936D01*
X162981881Y-114830520D01*
X162936860Y-114763140D01*
X162869480Y-114718119D01*
X162810064Y-114706300D01*
X161069936Y-114706300D01*
X161010520Y-114718119D01*
X160943140Y-114763140D01*
X160898119Y-114830520D01*
X160886300Y-114889936D01*
X160886300Y-116630064D01*
X158593942Y-116630064D01*
X158760405Y-116510448D01*
X158887987Y-116378794D01*
X158911846Y-116354174D01*
X158911848Y-116354171D01*
X158915749Y-116350146D01*
X159040250Y-116164868D01*
X159129974Y-115960471D01*
X159131282Y-115955023D01*
X159131284Y-115955017D01*
X159180775Y-115748872D01*
X159180775Y-115748871D01*
X159182085Y-115743415D01*
X159194934Y-115520562D01*
X159168117Y-115298956D01*
X159102481Y-115085600D01*
X159065492Y-115013935D01*
X159002672Y-114892226D01*
X159000099Y-114887241D01*
X158996690Y-114882799D01*
X158996688Y-114882795D01*
X158867620Y-114714590D01*
X158864210Y-114710146D01*
X158699107Y-114559914D01*
X158510010Y-114441293D01*
X158302895Y-114358034D01*
X158297407Y-114356897D01*
X158297402Y-114356896D01*
X158132845Y-114322818D01*
X158084310Y-114312767D01*
X158079697Y-114312501D01*
X158029474Y-114309605D01*
X158029470Y-114309605D01*
X158027651Y-114309500D01*
X157883370Y-114309500D01*
X157880583Y-114309749D01*
X157880577Y-114309749D01*
X157811003Y-114315959D01*
X157717661Y-114324289D01*
X157712247Y-114325770D01*
X157712242Y-114325771D01*
X157598470Y-114356896D01*
X157502349Y-114383192D01*
X157497291Y-114385604D01*
X157497287Y-114385606D01*
X157408887Y-114427771D01*
X157300871Y-114479292D01*
X157119595Y-114609552D01*
X157054752Y-114676465D01*
X156973592Y-114760215D01*
X156964251Y-114769854D01*
X156839750Y-114955132D01*
X156837491Y-114960278D01*
X156837490Y-114960280D01*
X156815662Y-115010006D01*
X156750026Y-115159529D01*
X156748718Y-115164977D01*
X156748716Y-115164983D01*
X156701316Y-115362420D01*
X156697915Y-115376585D01*
X156685066Y-115599438D01*
X135690386Y-115599438D01*
X135694934Y-115520562D01*
X135668117Y-115298956D01*
X135602481Y-115085600D01*
X135565492Y-115013935D01*
X135502672Y-114892226D01*
X135500099Y-114887241D01*
X135496690Y-114882799D01*
X135496688Y-114882795D01*
X135367620Y-114714590D01*
X135364210Y-114710146D01*
X135199107Y-114559914D01*
X135010010Y-114441293D01*
X134802895Y-114358034D01*
X134797407Y-114356897D01*
X134797402Y-114356896D01*
X134632845Y-114322818D01*
X134584310Y-114312767D01*
X134579697Y-114312501D01*
X134529474Y-114309605D01*
X134529470Y-114309605D01*
X134527651Y-114309500D01*
X134383370Y-114309500D01*
X134380583Y-114309749D01*
X134380577Y-114309749D01*
X134311003Y-114315959D01*
X134217661Y-114324289D01*
X134212247Y-114325770D01*
X134212242Y-114325771D01*
X134098470Y-114356896D01*
X134002349Y-114383192D01*
X133997291Y-114385604D01*
X133997287Y-114385606D01*
X133908887Y-114427771D01*
X133800871Y-114479292D01*
X133619595Y-114609552D01*
X133554752Y-114676465D01*
X133473592Y-114760215D01*
X133464251Y-114769854D01*
X133339750Y-114955132D01*
X133337491Y-114960278D01*
X133337490Y-114960280D01*
X133315662Y-115010006D01*
X133250026Y-115159529D01*
X133248718Y-115164977D01*
X133248716Y-115164983D01*
X133201316Y-115362420D01*
X133197915Y-115376585D01*
X133185066Y-115599438D01*
X132490000Y-115599438D01*
X132490000Y-113534853D01*
X160179977Y-113534853D01*
X160185258Y-113541907D01*
X160346756Y-113636279D01*
X160356042Y-113640729D01*
X160555001Y-113716703D01*
X160564899Y-113719579D01*
X160773595Y-113762038D01*
X160783823Y-113763257D01*
X160996650Y-113771062D01*
X161006936Y-113770595D01*
X161218185Y-113743534D01*
X161228262Y-113741392D01*
X161432255Y-113680191D01*
X161441842Y-113676433D01*
X161633098Y-113582738D01*
X161641944Y-113577465D01*
X161689247Y-113543723D01*
X161696211Y-113534853D01*
X166679977Y-113534853D01*
X166685258Y-113541907D01*
X166846756Y-113636279D01*
X166856042Y-113640729D01*
X167055001Y-113716703D01*
X167064899Y-113719579D01*
X167273595Y-113762038D01*
X167283823Y-113763257D01*
X167496650Y-113771062D01*
X167506936Y-113770595D01*
X167718185Y-113743534D01*
X167728262Y-113741392D01*
X167932255Y-113680191D01*
X167941842Y-113676433D01*
X168133098Y-113582738D01*
X168141944Y-113577465D01*
X168189247Y-113543723D01*
X168197648Y-113533023D01*
X168190660Y-113519870D01*
X167452812Y-112782022D01*
X167438868Y-112774408D01*
X167437035Y-112774539D01*
X167430420Y-112778790D01*
X166686737Y-113522473D01*
X166679977Y-113534853D01*
X161696211Y-113534853D01*
X161697648Y-113533023D01*
X161690660Y-113519870D01*
X160952812Y-112782022D01*
X160938868Y-112774408D01*
X160937035Y-112774539D01*
X160930420Y-112778790D01*
X160186737Y-113522473D01*
X160179977Y-113534853D01*
X132490000Y-113534853D01*
X132490000Y-112381863D01*
X159578050Y-112381863D01*
X159590309Y-112594477D01*
X159591745Y-112604697D01*
X159638565Y-112812446D01*
X159641645Y-112822275D01*
X159721770Y-113019603D01*
X159726413Y-113028794D01*
X159806460Y-113159420D01*
X159816916Y-113168880D01*
X159825694Y-113165096D01*
X160567978Y-112422812D01*
X160574356Y-112411132D01*
X161304408Y-112411132D01*
X161304539Y-112412965D01*
X161308790Y-112419580D01*
X162050474Y-113161264D01*
X162062484Y-113167823D01*
X162074223Y-113158855D01*
X162105004Y-113116019D01*
X162110315Y-113107180D01*
X162204670Y-112916267D01*
X162208469Y-112906672D01*
X162270376Y-112702915D01*
X162272555Y-112692834D01*
X162300590Y-112479887D01*
X162301109Y-112473212D01*
X162302572Y-112413364D01*
X162302378Y-112406646D01*
X162300341Y-112381863D01*
X166078050Y-112381863D01*
X166090309Y-112594477D01*
X166091745Y-112604697D01*
X166138565Y-112812446D01*
X166141645Y-112822275D01*
X166221770Y-113019603D01*
X166226413Y-113028794D01*
X166306460Y-113159420D01*
X166316916Y-113168880D01*
X166325694Y-113165096D01*
X167067978Y-112422812D01*
X167074356Y-112411132D01*
X167804408Y-112411132D01*
X167804539Y-112412965D01*
X167808790Y-112419580D01*
X168550474Y-113161264D01*
X168562484Y-113167823D01*
X168574223Y-113158855D01*
X168605004Y-113116019D01*
X168610315Y-113107180D01*
X168704670Y-112916267D01*
X168708469Y-112906672D01*
X168770376Y-112702915D01*
X168772555Y-112692834D01*
X168800590Y-112479887D01*
X168801109Y-112473212D01*
X168802572Y-112413364D01*
X168802378Y-112406646D01*
X168784781Y-112192604D01*
X168783096Y-112182424D01*
X168731214Y-111975875D01*
X168727894Y-111966124D01*
X168642972Y-111770814D01*
X168638105Y-111761739D01*
X168573063Y-111661197D01*
X168562377Y-111651995D01*
X168552812Y-111656398D01*
X167812022Y-112397188D01*
X167804408Y-112411132D01*
X167074356Y-112411132D01*
X167075592Y-112408868D01*
X167075461Y-112407035D01*
X167071210Y-112400420D01*
X166329849Y-111659059D01*
X166318313Y-111652759D01*
X166306031Y-111662382D01*
X166258089Y-111732662D01*
X166253004Y-111741613D01*
X166163338Y-111934783D01*
X166159775Y-111944470D01*
X166102864Y-112149681D01*
X166100933Y-112159800D01*
X166078302Y-112371574D01*
X166078050Y-112381863D01*
X162300341Y-112381863D01*
X162284781Y-112192604D01*
X162283096Y-112182424D01*
X162231214Y-111975875D01*
X162227894Y-111966124D01*
X162142972Y-111770814D01*
X162138105Y-111761739D01*
X162073063Y-111661197D01*
X162062377Y-111651995D01*
X162052812Y-111656398D01*
X161312022Y-112397188D01*
X161304408Y-112411132D01*
X160574356Y-112411132D01*
X160575592Y-112408868D01*
X160575461Y-112407035D01*
X160571210Y-112400420D01*
X159829849Y-111659059D01*
X159818313Y-111652759D01*
X159806031Y-111662382D01*
X159758089Y-111732662D01*
X159753004Y-111741613D01*
X159663338Y-111934783D01*
X159659775Y-111944470D01*
X159602864Y-112149681D01*
X159600933Y-112159800D01*
X159578302Y-112371574D01*
X159578050Y-112381863D01*
X132490000Y-112381863D01*
X132490000Y-111286427D01*
X160181223Y-111286427D01*
X160187968Y-111298758D01*
X160927188Y-112037978D01*
X160941132Y-112045592D01*
X160942965Y-112045461D01*
X160949580Y-112041210D01*
X161693389Y-111297401D01*
X161699382Y-111286427D01*
X166681223Y-111286427D01*
X166687968Y-111298758D01*
X167427188Y-112037978D01*
X167441132Y-112045592D01*
X167442965Y-112045461D01*
X167449580Y-112041210D01*
X168193389Y-111297401D01*
X168200410Y-111284544D01*
X168193611Y-111275213D01*
X168189554Y-111272518D01*
X168003117Y-111169599D01*
X167993705Y-111165369D01*
X167792959Y-111094280D01*
X167782989Y-111091646D01*
X167573327Y-111054301D01*
X167563073Y-111053331D01*
X167350116Y-111050728D01*
X167339832Y-111051448D01*
X167129321Y-111083661D01*
X167119293Y-111086050D01*
X166916868Y-111152212D01*
X166907359Y-111156209D01*
X166718466Y-111254540D01*
X166709734Y-111260039D01*
X166689677Y-111275099D01*
X166681223Y-111286427D01*
X161699382Y-111286427D01*
X161700410Y-111284544D01*
X161693611Y-111275213D01*
X161689554Y-111272518D01*
X161503117Y-111169599D01*
X161493705Y-111165369D01*
X161292959Y-111094280D01*
X161282989Y-111091646D01*
X161073327Y-111054301D01*
X161063073Y-111053331D01*
X160850116Y-111050728D01*
X160839832Y-111051448D01*
X160629321Y-111083661D01*
X160619293Y-111086050D01*
X160416868Y-111152212D01*
X160407359Y-111156209D01*
X160218466Y-111254540D01*
X160209734Y-111260039D01*
X160189677Y-111275099D01*
X160181223Y-111286427D01*
X132490000Y-111286427D01*
X132490000Y-107305217D01*
X133881305Y-107305217D01*
X133881821Y-107311361D01*
X133898080Y-107504994D01*
X133898081Y-107504999D01*
X133898596Y-107511133D01*
X133900294Y-107517053D01*
X133952307Y-107698442D01*
X133955555Y-107709770D01*
X134050010Y-107893560D01*
X134053835Y-107898386D01*
X134053837Y-107898389D01*
X134083678Y-107936039D01*
X134178364Y-108055503D01*
X134335730Y-108189431D01*
X134516111Y-108290243D01*
X134712639Y-108354099D01*
X134917826Y-108378566D01*
X134923961Y-108378094D01*
X134923963Y-108378094D01*
X135117715Y-108363185D01*
X135117718Y-108363184D01*
X135123858Y-108362712D01*
X135322887Y-108307143D01*
X135507332Y-108213973D01*
X135534899Y-108192436D01*
X135665307Y-108090550D01*
X135665308Y-108090549D01*
X135670168Y-108086752D01*
X135805191Y-107930325D01*
X135814737Y-107913522D01*
X135904213Y-107756015D01*
X135907260Y-107750652D01*
X135972486Y-107554575D01*
X135998385Y-107349563D01*
X135998798Y-107320000D01*
X135978633Y-107114345D01*
X135973162Y-107096222D01*
X135920688Y-106922422D01*
X135918907Y-106916523D01*
X135821895Y-106734070D01*
X135818005Y-106729300D01*
X135818002Y-106729296D01*
X135695187Y-106578710D01*
X135695184Y-106578707D01*
X135691292Y-106573935D01*
X135686543Y-106570006D01*
X135536822Y-106446146D01*
X135536819Y-106446144D01*
X135532072Y-106442217D01*
X135350301Y-106343933D01*
X135248582Y-106312446D01*
X135158788Y-106284650D01*
X135158785Y-106284649D01*
X135152901Y-106282828D01*
X135146776Y-106282184D01*
X135146775Y-106282184D01*
X134953520Y-106261872D01*
X134953519Y-106261872D01*
X134947392Y-106261228D01*
X134820582Y-106272768D01*
X134747742Y-106279397D01*
X134747741Y-106279397D01*
X134741601Y-106279956D01*
X134543367Y-106338300D01*
X134360241Y-106434036D01*
X134199198Y-106563518D01*
X134066371Y-106721814D01*
X134063408Y-106727203D01*
X134063405Y-106727208D01*
X134059633Y-106734070D01*
X133966821Y-106902895D01*
X133904339Y-107099864D01*
X133903653Y-107105981D01*
X133903652Y-107105985D01*
X133884253Y-107278936D01*
X133881305Y-107305217D01*
X132490000Y-107305217D01*
X132490000Y-104765216D01*
X133881305Y-104765216D01*
X133882252Y-104776494D01*
X133898080Y-104964993D01*
X133898081Y-104964998D01*
X133898596Y-104971132D01*
X133900294Y-104977052D01*
X133953437Y-105162382D01*
X133955555Y-105169769D01*
X134050010Y-105353559D01*
X134053835Y-105358385D01*
X134053837Y-105358388D01*
X134146956Y-105475875D01*
X134178364Y-105515502D01*
X134335730Y-105649430D01*
X134516111Y-105750242D01*
X134712639Y-105814098D01*
X134917826Y-105838565D01*
X134923961Y-105838093D01*
X134923963Y-105838093D01*
X135117715Y-105823184D01*
X135117718Y-105823183D01*
X135123858Y-105822711D01*
X135322887Y-105767142D01*
X135507332Y-105673972D01*
X135525472Y-105659800D01*
X135665307Y-105550549D01*
X135665308Y-105550548D01*
X135670168Y-105546751D01*
X135805191Y-105390324D01*
X135907260Y-105210651D01*
X135972486Y-105014574D01*
X135998385Y-104809562D01*
X135998798Y-104779999D01*
X135978633Y-104574344D01*
X135918907Y-104376522D01*
X135821895Y-104194069D01*
X135818005Y-104189299D01*
X135818002Y-104189295D01*
X135695187Y-104038709D01*
X135695184Y-104038706D01*
X135691292Y-104033934D01*
X135686543Y-104030005D01*
X135536822Y-103906145D01*
X135536819Y-103906143D01*
X135532072Y-103902216D01*
X135350301Y-103803932D01*
X135251601Y-103773380D01*
X135158788Y-103744649D01*
X135158785Y-103744648D01*
X135152901Y-103742827D01*
X135146776Y-103742183D01*
X135146775Y-103742183D01*
X134953520Y-103721871D01*
X134953519Y-103721871D01*
X134947392Y-103721227D01*
X134820582Y-103732767D01*
X134747742Y-103739396D01*
X134747741Y-103739396D01*
X134741601Y-103739955D01*
X134543367Y-103798299D01*
X134360241Y-103894035D01*
X134199198Y-104023517D01*
X134066371Y-104181813D01*
X134063408Y-104187202D01*
X134063405Y-104187207D01*
X134059633Y-104194069D01*
X133966821Y-104362894D01*
X133904339Y-104559863D01*
X133903653Y-104565980D01*
X133903652Y-104565984D01*
X133881992Y-104759091D01*
X133881305Y-104765216D01*
X132490000Y-104765216D01*
X132490000Y-102225217D01*
X133881305Y-102225217D01*
X133881821Y-102231361D01*
X133898080Y-102424994D01*
X133898081Y-102424999D01*
X133898596Y-102431133D01*
X133907092Y-102460761D01*
X133952592Y-102619436D01*
X133955555Y-102629770D01*
X134050010Y-102813560D01*
X134053835Y-102818386D01*
X134053837Y-102818389D01*
X134174535Y-102970672D01*
X134178364Y-102975503D01*
X134335730Y-103109431D01*
X134516111Y-103210243D01*
X134712639Y-103274099D01*
X134917826Y-103298566D01*
X134923961Y-103298094D01*
X134923963Y-103298094D01*
X135117715Y-103283185D01*
X135117718Y-103283184D01*
X135123858Y-103282712D01*
X135322887Y-103227143D01*
X135507332Y-103133973D01*
X135534899Y-103112436D01*
X135614813Y-103050000D01*
X139781091Y-103050000D01*
X139801839Y-103207597D01*
X139862669Y-103354454D01*
X139959436Y-103480564D01*
X140085545Y-103577331D01*
X140085990Y-103577515D01*
X140105915Y-103592805D01*
X147093613Y-110580503D01*
X147104480Y-110592894D01*
X147122987Y-110617013D01*
X147129537Y-110622039D01*
X147129538Y-110622040D01*
X147140647Y-110630564D01*
X147191029Y-110669223D01*
X147245127Y-110710734D01*
X147285196Y-110727331D01*
X147387363Y-110769650D01*
X147395551Y-110770728D01*
X147501676Y-110784700D01*
X147501681Y-110784700D01*
X147540000Y-110789745D01*
X147548188Y-110788667D01*
X147570133Y-110785778D01*
X147586579Y-110784700D01*
X147757063Y-110784700D01*
X147781961Y-110787978D01*
X147782403Y-110788161D01*
X147790587Y-110789238D01*
X147790589Y-110789239D01*
X147931812Y-110807831D01*
X147940000Y-110808909D01*
X147948188Y-110807831D01*
X148089409Y-110789239D01*
X148097597Y-110788161D01*
X148105224Y-110785002D01*
X148105227Y-110785001D01*
X148171026Y-110757746D01*
X148244455Y-110727331D01*
X148370564Y-110630564D01*
X148467331Y-110504454D01*
X148528161Y-110357597D01*
X148548909Y-110200000D01*
X148528161Y-110042403D01*
X148467331Y-109895546D01*
X148370564Y-109769436D01*
X148244455Y-109672669D01*
X148171026Y-109642254D01*
X148105227Y-109614999D01*
X148105224Y-109614998D01*
X148097597Y-109611839D01*
X147940000Y-109591091D01*
X147917598Y-109594040D01*
X147840760Y-109604156D01*
X147770611Y-109593217D01*
X147735219Y-109568329D01*
X146062107Y-107895217D01*
X159881305Y-107895217D01*
X159881821Y-107901361D01*
X159898080Y-108094994D01*
X159898081Y-108094999D01*
X159898596Y-108101133D01*
X159955555Y-108299770D01*
X160050010Y-108483560D01*
X160053835Y-108488386D01*
X160053837Y-108488389D01*
X160174535Y-108640672D01*
X160178364Y-108645503D01*
X160335730Y-108779431D01*
X160516111Y-108880243D01*
X160712639Y-108944099D01*
X160917826Y-108968566D01*
X160923961Y-108968094D01*
X160923963Y-108968094D01*
X161117715Y-108953185D01*
X161117718Y-108953184D01*
X161123858Y-108952712D01*
X161322887Y-108897143D01*
X161507332Y-108803973D01*
X161534899Y-108782436D01*
X161665307Y-108680550D01*
X161665308Y-108680549D01*
X161670168Y-108676752D01*
X161789616Y-108538369D01*
X161849269Y-108499872D01*
X161884998Y-108494700D01*
X166497928Y-108494700D01*
X166566049Y-108514702D01*
X166596673Y-108542435D01*
X166678364Y-108645503D01*
X166835730Y-108779431D01*
X167016111Y-108880243D01*
X167212639Y-108944099D01*
X167417826Y-108968566D01*
X167423961Y-108968094D01*
X167423963Y-108968094D01*
X167617715Y-108953185D01*
X167617718Y-108953184D01*
X167623858Y-108952712D01*
X167822887Y-108897143D01*
X168007332Y-108803973D01*
X168034899Y-108782436D01*
X168165307Y-108680550D01*
X168165308Y-108680549D01*
X168170168Y-108676752D01*
X168305191Y-108520325D01*
X168308386Y-108514702D01*
X168343303Y-108453237D01*
X168407260Y-108340652D01*
X168472486Y-108144575D01*
X168498385Y-107939563D01*
X168498798Y-107910000D01*
X168478633Y-107704345D01*
X168418907Y-107506523D01*
X168370401Y-107415297D01*
X168324789Y-107329512D01*
X168324787Y-107329509D01*
X168321895Y-107324070D01*
X168318001Y-107319295D01*
X168317998Y-107319291D01*
X168205889Y-107181831D01*
X168178335Y-107116400D01*
X168190531Y-107046458D01*
X168198262Y-107034180D01*
X168190660Y-107019870D01*
X167452812Y-106282022D01*
X167438868Y-106274408D01*
X167437035Y-106274539D01*
X167430420Y-106278790D01*
X166686737Y-107022473D01*
X166679123Y-107036417D01*
X166679240Y-107038066D01*
X166700931Y-107096222D01*
X166685839Y-107165596D01*
X166671773Y-107186202D01*
X166592821Y-107280292D01*
X166533711Y-107319618D01*
X166496300Y-107325300D01*
X161882728Y-107325300D01*
X161814607Y-107305298D01*
X161785085Y-107278936D01*
X161705889Y-107181832D01*
X161678335Y-107116400D01*
X161690530Y-107046459D01*
X161698262Y-107034180D01*
X161690660Y-107019870D01*
X160952812Y-106282022D01*
X160938868Y-106274408D01*
X160937035Y-106274539D01*
X160930420Y-106278790D01*
X160186737Y-107022473D01*
X160179123Y-107036417D01*
X160179240Y-107038066D01*
X160200931Y-107096222D01*
X160185839Y-107165596D01*
X160171774Y-107186200D01*
X160066371Y-107311814D01*
X160063408Y-107317203D01*
X160063405Y-107317208D01*
X159969788Y-107487498D01*
X159966821Y-107492895D01*
X159904339Y-107689864D01*
X159903653Y-107695981D01*
X159903652Y-107695985D01*
X159896919Y-107756015D01*
X159881305Y-107895217D01*
X146062107Y-107895217D01*
X144048753Y-105881863D01*
X159578050Y-105881863D01*
X159590309Y-106094477D01*
X159591745Y-106104697D01*
X159638565Y-106312446D01*
X159641645Y-106322275D01*
X159721770Y-106519603D01*
X159726413Y-106528794D01*
X159806460Y-106659420D01*
X159816916Y-106668880D01*
X159825694Y-106665096D01*
X160567978Y-105922812D01*
X160574356Y-105911132D01*
X161304408Y-105911132D01*
X161304539Y-105912965D01*
X161308790Y-105919580D01*
X162050474Y-106661264D01*
X162062484Y-106667823D01*
X162074223Y-106658855D01*
X162105004Y-106616019D01*
X162110315Y-106607180D01*
X162204670Y-106416267D01*
X162208469Y-106406672D01*
X162270376Y-106202915D01*
X162272555Y-106192834D01*
X162300590Y-105979887D01*
X162301109Y-105973212D01*
X162302572Y-105913364D01*
X162302378Y-105906646D01*
X162300341Y-105881863D01*
X166078050Y-105881863D01*
X166090309Y-106094477D01*
X166091745Y-106104697D01*
X166138565Y-106312446D01*
X166141645Y-106322275D01*
X166221770Y-106519603D01*
X166226413Y-106528794D01*
X166306460Y-106659420D01*
X166316916Y-106668880D01*
X166325694Y-106665096D01*
X167067978Y-105922812D01*
X167074356Y-105911132D01*
X167804408Y-105911132D01*
X167804539Y-105912965D01*
X167808790Y-105919580D01*
X168550474Y-106661264D01*
X168562484Y-106667823D01*
X168574223Y-106658855D01*
X168605004Y-106616019D01*
X168610315Y-106607180D01*
X168704670Y-106416267D01*
X168708469Y-106406672D01*
X168770376Y-106202915D01*
X168772555Y-106192834D01*
X168800590Y-105979887D01*
X168801109Y-105973212D01*
X168802572Y-105913364D01*
X168802378Y-105906646D01*
X168784781Y-105692604D01*
X168783096Y-105682424D01*
X168731214Y-105475875D01*
X168727894Y-105466124D01*
X168642972Y-105270814D01*
X168638105Y-105261739D01*
X168573063Y-105161197D01*
X168562377Y-105151995D01*
X168552812Y-105156398D01*
X167812022Y-105897188D01*
X167804408Y-105911132D01*
X167074356Y-105911132D01*
X167075592Y-105908868D01*
X167075461Y-105907035D01*
X167071210Y-105900420D01*
X166329849Y-105159059D01*
X166318313Y-105152759D01*
X166306031Y-105162382D01*
X166258089Y-105232662D01*
X166253004Y-105241613D01*
X166163338Y-105434783D01*
X166159775Y-105444470D01*
X166102864Y-105649681D01*
X166100933Y-105659800D01*
X166078302Y-105871574D01*
X166078050Y-105881863D01*
X162300341Y-105881863D01*
X162284781Y-105692604D01*
X162283096Y-105682424D01*
X162231214Y-105475875D01*
X162227894Y-105466124D01*
X162142972Y-105270814D01*
X162138105Y-105261739D01*
X162073063Y-105161197D01*
X162062377Y-105151995D01*
X162052812Y-105156398D01*
X161312022Y-105897188D01*
X161304408Y-105911132D01*
X160574356Y-105911132D01*
X160575592Y-105908868D01*
X160575461Y-105907035D01*
X160571210Y-105900420D01*
X159829849Y-105159059D01*
X159818313Y-105152759D01*
X159806031Y-105162382D01*
X159758089Y-105232662D01*
X159753004Y-105241613D01*
X159663338Y-105434783D01*
X159659775Y-105444470D01*
X159602864Y-105649681D01*
X159600933Y-105659800D01*
X159578302Y-105871574D01*
X159578050Y-105881863D01*
X144048753Y-105881863D01*
X142953317Y-104786427D01*
X160181223Y-104786427D01*
X160187968Y-104798758D01*
X160927188Y-105537978D01*
X160941132Y-105545592D01*
X160942965Y-105545461D01*
X160949580Y-105541210D01*
X161693389Y-104797401D01*
X161699382Y-104786427D01*
X166681223Y-104786427D01*
X166687968Y-104798758D01*
X167427188Y-105537978D01*
X167441132Y-105545592D01*
X167442965Y-105545461D01*
X167449580Y-105541210D01*
X168193389Y-104797401D01*
X168200410Y-104784544D01*
X168193611Y-104775213D01*
X168189554Y-104772518D01*
X168003117Y-104669599D01*
X167993705Y-104665369D01*
X167792959Y-104594280D01*
X167782989Y-104591646D01*
X167573327Y-104554301D01*
X167563073Y-104553331D01*
X167350116Y-104550728D01*
X167339832Y-104551448D01*
X167129321Y-104583661D01*
X167119293Y-104586050D01*
X166916868Y-104652212D01*
X166907359Y-104656209D01*
X166718466Y-104754540D01*
X166709734Y-104760039D01*
X166689677Y-104775099D01*
X166681223Y-104786427D01*
X161699382Y-104786427D01*
X161700410Y-104784544D01*
X161693611Y-104775213D01*
X161689554Y-104772518D01*
X161503117Y-104669599D01*
X161493705Y-104665369D01*
X161292959Y-104594280D01*
X161282989Y-104591646D01*
X161073327Y-104554301D01*
X161063073Y-104553331D01*
X160850116Y-104550728D01*
X160839832Y-104551448D01*
X160629321Y-104583661D01*
X160619293Y-104586050D01*
X160416868Y-104652212D01*
X160407359Y-104656209D01*
X160218466Y-104754540D01*
X160209734Y-104760039D01*
X160189677Y-104775099D01*
X160181223Y-104786427D01*
X142953317Y-104786427D01*
X140932805Y-102765915D01*
X140917514Y-102745989D01*
X140917331Y-102745546D01*
X140820564Y-102619436D01*
X140694455Y-102522669D01*
X140563570Y-102468455D01*
X140555227Y-102464999D01*
X140555224Y-102464998D01*
X140547597Y-102461839D01*
X140390000Y-102441091D01*
X140232403Y-102461839D01*
X140224776Y-102464998D01*
X140224773Y-102464999D01*
X140201655Y-102474575D01*
X140085546Y-102522669D01*
X139959436Y-102619436D01*
X139862669Y-102745546D01*
X139859509Y-102753176D01*
X139821488Y-102844967D01*
X139801839Y-102892403D01*
X139781091Y-103050000D01*
X135614813Y-103050000D01*
X135665307Y-103010550D01*
X135665308Y-103010549D01*
X135670168Y-103006752D01*
X135805191Y-102850325D01*
X135907260Y-102670652D01*
X135972486Y-102474575D01*
X135998385Y-102269563D01*
X135998798Y-102240000D01*
X135992921Y-102180060D01*
X143548845Y-102180060D01*
X143560664Y-102239476D01*
X143605685Y-102306856D01*
X143673065Y-102351877D01*
X143732481Y-102363696D01*
X144837529Y-102363696D01*
X144896945Y-102351877D01*
X144964325Y-102306856D01*
X144980925Y-102282012D01*
X145035402Y-102236484D01*
X145105845Y-102227635D01*
X145148974Y-102243058D01*
X145259463Y-102307235D01*
X145423755Y-102356994D01*
X145595087Y-102367623D01*
X145602302Y-102366383D01*
X145602306Y-102366383D01*
X145757048Y-102339794D01*
X145757050Y-102339793D01*
X145764269Y-102338553D01*
X145838761Y-102306856D01*
X145915488Y-102274208D01*
X145915490Y-102274207D01*
X145922225Y-102271341D01*
X146060483Y-102169595D01*
X146093098Y-102131204D01*
X146152446Y-102092241D01*
X146223439Y-102091548D01*
X146275775Y-102121312D01*
X146375711Y-102215982D01*
X146381025Y-102221016D01*
X146529463Y-102307235D01*
X146693755Y-102356994D01*
X146865087Y-102367623D01*
X146872302Y-102366383D01*
X146872306Y-102366383D01*
X147027048Y-102339794D01*
X147027050Y-102339793D01*
X147034269Y-102338553D01*
X147108761Y-102306856D01*
X147185488Y-102274208D01*
X147185490Y-102274207D01*
X147192225Y-102271341D01*
X147330483Y-102169595D01*
X147363098Y-102131204D01*
X147422446Y-102092241D01*
X147493439Y-102091548D01*
X147545775Y-102121312D01*
X147645711Y-102215982D01*
X147651025Y-102221016D01*
X147799463Y-102307235D01*
X147963755Y-102356994D01*
X148135087Y-102367623D01*
X148142302Y-102366383D01*
X148142306Y-102366383D01*
X148297048Y-102339794D01*
X148297050Y-102339793D01*
X148304269Y-102338553D01*
X148378761Y-102306856D01*
X148455488Y-102274208D01*
X148455490Y-102274207D01*
X148462225Y-102271341D01*
X148600483Y-102169595D01*
X148711626Y-102038771D01*
X148789692Y-101885888D01*
X148800762Y-101840652D01*
X148829160Y-101724596D01*
X148830494Y-101719146D01*
X148831165Y-101708329D01*
X148831165Y-101395217D01*
X159881305Y-101395217D01*
X159881821Y-101401361D01*
X159898080Y-101594994D01*
X159898081Y-101594999D01*
X159898596Y-101601133D01*
X159955555Y-101799770D01*
X160050010Y-101983560D01*
X160053835Y-101988386D01*
X160053837Y-101988389D01*
X160167032Y-102131205D01*
X160178364Y-102145503D01*
X160183057Y-102149497D01*
X160183058Y-102149498D01*
X160279248Y-102231361D01*
X160335730Y-102279431D01*
X160516111Y-102380243D01*
X160712639Y-102444099D01*
X160917826Y-102468566D01*
X160923961Y-102468094D01*
X160923963Y-102468094D01*
X161117715Y-102453185D01*
X161117718Y-102453184D01*
X161123858Y-102452712D01*
X161322887Y-102397143D01*
X161507332Y-102303973D01*
X161534899Y-102282436D01*
X161665307Y-102180550D01*
X161665308Y-102180549D01*
X161670168Y-102176752D01*
X161789616Y-102038369D01*
X161849269Y-101999872D01*
X161884998Y-101994700D01*
X166497928Y-101994700D01*
X166566049Y-102014702D01*
X166596673Y-102042435D01*
X166678364Y-102145503D01*
X166683057Y-102149497D01*
X166683058Y-102149498D01*
X166779248Y-102231361D01*
X166835730Y-102279431D01*
X167016111Y-102380243D01*
X167212639Y-102444099D01*
X167417826Y-102468566D01*
X167423961Y-102468094D01*
X167423963Y-102468094D01*
X167617715Y-102453185D01*
X167617718Y-102453184D01*
X167623858Y-102452712D01*
X167822887Y-102397143D01*
X168007332Y-102303973D01*
X168034899Y-102282436D01*
X168165307Y-102180550D01*
X168165308Y-102180549D01*
X168170168Y-102176752D01*
X168298185Y-102028442D01*
X168301167Y-102024987D01*
X168301167Y-102024986D01*
X168305191Y-102020325D01*
X168308386Y-102014702D01*
X168404213Y-101846015D01*
X168407260Y-101840652D01*
X168472486Y-101644575D01*
X168498385Y-101439563D01*
X168498798Y-101410000D01*
X168478633Y-101204345D01*
X168471823Y-101181787D01*
X168420688Y-101012422D01*
X168418907Y-101006523D01*
X168370401Y-100915296D01*
X168324789Y-100829512D01*
X168324787Y-100829509D01*
X168321895Y-100824070D01*
X168318001Y-100819295D01*
X168317998Y-100819291D01*
X168205889Y-100681831D01*
X168178335Y-100616400D01*
X168190531Y-100546458D01*
X168198262Y-100534180D01*
X168190660Y-100519870D01*
X167452812Y-99782022D01*
X167438868Y-99774408D01*
X167437035Y-99774539D01*
X167430420Y-99778790D01*
X166686737Y-100522473D01*
X166679123Y-100536417D01*
X166679240Y-100538066D01*
X166700931Y-100596222D01*
X166685839Y-100665596D01*
X166671774Y-100686200D01*
X166641776Y-100721950D01*
X166592821Y-100780292D01*
X166533711Y-100819618D01*
X166496300Y-100825300D01*
X161882728Y-100825300D01*
X161814607Y-100805298D01*
X161785085Y-100778936D01*
X161705889Y-100681832D01*
X161678335Y-100616400D01*
X161690530Y-100546459D01*
X161698262Y-100534180D01*
X161690660Y-100519870D01*
X160952812Y-99782022D01*
X160938868Y-99774408D01*
X160937035Y-99774539D01*
X160930420Y-99778790D01*
X160186737Y-100522473D01*
X160179123Y-100536417D01*
X160179240Y-100538066D01*
X160200931Y-100596222D01*
X160185839Y-100665596D01*
X160171774Y-100686200D01*
X160066371Y-100811814D01*
X160063408Y-100817203D01*
X160063405Y-100817208D01*
X160045671Y-100849467D01*
X159966821Y-100992895D01*
X159904339Y-101189864D01*
X159903653Y-101195981D01*
X159903652Y-101195985D01*
X159884566Y-101366146D01*
X159881305Y-101395217D01*
X148831165Y-101395217D01*
X148831165Y-100849467D01*
X148816298Y-100721950D01*
X148809693Y-100703752D01*
X148760224Y-100567469D01*
X148757727Y-100560590D01*
X148692007Y-100460349D01*
X148667618Y-100423150D01*
X148667617Y-100423149D01*
X148663606Y-100417031D01*
X148538985Y-100298976D01*
X148390547Y-100212757D01*
X148226255Y-100162998D01*
X148054923Y-100152369D01*
X148047708Y-100153609D01*
X148047704Y-100153609D01*
X147892962Y-100180198D01*
X147892960Y-100180199D01*
X147885741Y-100181439D01*
X147878997Y-100184308D01*
X147878999Y-100184308D01*
X147734522Y-100245784D01*
X147734520Y-100245785D01*
X147727785Y-100248651D01*
X147589527Y-100350397D01*
X147556912Y-100388788D01*
X147497564Y-100427751D01*
X147426571Y-100428444D01*
X147374235Y-100398680D01*
X147274299Y-100304010D01*
X147268985Y-100298976D01*
X147120547Y-100212757D01*
X146956255Y-100162998D01*
X146784923Y-100152369D01*
X146777708Y-100153609D01*
X146777704Y-100153609D01*
X146622962Y-100180198D01*
X146622960Y-100180199D01*
X146615741Y-100181439D01*
X146608997Y-100184308D01*
X146608999Y-100184308D01*
X146464522Y-100245784D01*
X146464520Y-100245785D01*
X146457785Y-100248651D01*
X146319527Y-100350397D01*
X146286912Y-100388788D01*
X146227564Y-100427751D01*
X146156571Y-100428444D01*
X146104235Y-100398680D01*
X146004299Y-100304010D01*
X145998985Y-100298976D01*
X145850547Y-100212757D01*
X145686255Y-100162998D01*
X145514923Y-100152369D01*
X145507708Y-100153609D01*
X145507704Y-100153609D01*
X145352962Y-100180198D01*
X145352960Y-100180199D01*
X145345741Y-100181439D01*
X145338997Y-100184308D01*
X145338999Y-100184308D01*
X145194522Y-100245784D01*
X145194520Y-100245785D01*
X145187785Y-100248651D01*
X145181888Y-100252991D01*
X145160089Y-100269033D01*
X145093368Y-100293300D01*
X145024120Y-100277643D01*
X144980641Y-100237554D01*
X144971219Y-100223453D01*
X144971217Y-100223451D01*
X144964325Y-100213136D01*
X144896945Y-100168115D01*
X144837529Y-100156296D01*
X143732481Y-100156296D01*
X143673065Y-100168115D01*
X143605685Y-100213136D01*
X143598793Y-100223451D01*
X143568337Y-100269033D01*
X143560664Y-100280516D01*
X143548845Y-100339932D01*
X143548845Y-102180060D01*
X135992921Y-102180060D01*
X135978633Y-102034345D01*
X135972783Y-102014967D01*
X135920688Y-101842422D01*
X135918907Y-101836523D01*
X135821895Y-101654070D01*
X135818005Y-101649300D01*
X135818002Y-101649296D01*
X135695187Y-101498710D01*
X135695184Y-101498707D01*
X135691292Y-101493935D01*
X135686543Y-101490006D01*
X135536822Y-101366146D01*
X135536819Y-101366144D01*
X135532072Y-101362217D01*
X135350301Y-101263933D01*
X135177618Y-101210479D01*
X135158788Y-101204650D01*
X135158785Y-101204649D01*
X135152901Y-101202828D01*
X135146776Y-101202184D01*
X135146775Y-101202184D01*
X134953520Y-101181872D01*
X134953519Y-101181872D01*
X134947392Y-101181228D01*
X134820582Y-101192768D01*
X134747742Y-101199397D01*
X134747741Y-101199397D01*
X134741601Y-101199956D01*
X134543367Y-101258300D01*
X134360241Y-101354036D01*
X134199198Y-101483518D01*
X134066371Y-101641814D01*
X134063408Y-101647203D01*
X134063405Y-101647208D01*
X133979534Y-101799770D01*
X133966821Y-101822895D01*
X133904339Y-102019864D01*
X133903653Y-102025981D01*
X133903652Y-102025985D01*
X133887064Y-102173873D01*
X133881305Y-102225217D01*
X132490000Y-102225217D01*
X132490000Y-100570064D01*
X133886300Y-100570064D01*
X133898119Y-100629480D01*
X133943140Y-100696860D01*
X134010520Y-100741881D01*
X134069936Y-100753700D01*
X135810064Y-100753700D01*
X135869480Y-100741881D01*
X135936860Y-100696860D01*
X135981881Y-100629480D01*
X135993700Y-100570064D01*
X135993700Y-99381863D01*
X159578050Y-99381863D01*
X159590309Y-99594477D01*
X159591745Y-99604697D01*
X159638565Y-99812446D01*
X159641645Y-99822275D01*
X159721770Y-100019603D01*
X159726413Y-100028794D01*
X159806460Y-100159420D01*
X159816916Y-100168880D01*
X159825694Y-100165096D01*
X160567978Y-99422812D01*
X160574356Y-99411132D01*
X161304408Y-99411132D01*
X161304539Y-99412965D01*
X161308790Y-99419580D01*
X162050474Y-100161264D01*
X162062484Y-100167823D01*
X162074223Y-100158855D01*
X162105004Y-100116019D01*
X162110315Y-100107180D01*
X162204670Y-99916267D01*
X162208469Y-99906672D01*
X162270376Y-99702915D01*
X162272555Y-99692834D01*
X162300590Y-99479887D01*
X162301109Y-99473212D01*
X162302572Y-99413364D01*
X162302378Y-99406646D01*
X162300341Y-99381863D01*
X166078050Y-99381863D01*
X166090309Y-99594477D01*
X166091745Y-99604697D01*
X166138565Y-99812446D01*
X166141645Y-99822275D01*
X166221770Y-100019603D01*
X166226413Y-100028794D01*
X166306460Y-100159420D01*
X166316916Y-100168880D01*
X166325694Y-100165096D01*
X167067978Y-99422812D01*
X167074356Y-99411132D01*
X167804408Y-99411132D01*
X167804539Y-99412965D01*
X167808790Y-99419580D01*
X168550474Y-100161264D01*
X168562484Y-100167823D01*
X168574223Y-100158855D01*
X168605004Y-100116019D01*
X168610315Y-100107180D01*
X168704670Y-99916267D01*
X168708469Y-99906672D01*
X168770376Y-99702915D01*
X168772555Y-99692834D01*
X168800590Y-99479887D01*
X168801109Y-99473212D01*
X168802572Y-99413364D01*
X168802378Y-99406646D01*
X168784781Y-99192604D01*
X168783096Y-99182424D01*
X168731214Y-98975875D01*
X168727894Y-98966124D01*
X168642972Y-98770814D01*
X168638105Y-98761739D01*
X168573063Y-98661197D01*
X168562377Y-98651995D01*
X168552812Y-98656398D01*
X167812022Y-99397188D01*
X167804408Y-99411132D01*
X167074356Y-99411132D01*
X167075592Y-99408868D01*
X167075461Y-99407035D01*
X167071210Y-99400420D01*
X166329849Y-98659059D01*
X166318313Y-98652759D01*
X166306031Y-98662382D01*
X166258089Y-98732662D01*
X166253004Y-98741613D01*
X166163338Y-98934783D01*
X166159775Y-98944470D01*
X166102864Y-99149681D01*
X166100933Y-99159800D01*
X166078302Y-99371574D01*
X166078050Y-99381863D01*
X162300341Y-99381863D01*
X162284781Y-99192604D01*
X162283096Y-99182424D01*
X162231214Y-98975875D01*
X162227894Y-98966124D01*
X162142972Y-98770814D01*
X162138105Y-98761739D01*
X162073063Y-98661197D01*
X162062377Y-98651995D01*
X162052812Y-98656398D01*
X161312022Y-99397188D01*
X161304408Y-99411132D01*
X160574356Y-99411132D01*
X160575592Y-99408868D01*
X160575461Y-99407035D01*
X160571210Y-99400420D01*
X159829849Y-98659059D01*
X159818313Y-98652759D01*
X159806031Y-98662382D01*
X159758089Y-98732662D01*
X159753004Y-98741613D01*
X159663338Y-98934783D01*
X159659775Y-98944470D01*
X159602864Y-99149681D01*
X159600933Y-99159800D01*
X159578302Y-99371574D01*
X159578050Y-99381863D01*
X135993700Y-99381863D01*
X135993700Y-98829936D01*
X135981881Y-98770520D01*
X135936860Y-98703140D01*
X135869480Y-98658119D01*
X135810064Y-98646300D01*
X134069936Y-98646300D01*
X134010520Y-98658119D01*
X133943140Y-98703140D01*
X133898119Y-98770520D01*
X133886300Y-98829936D01*
X133886300Y-100570064D01*
X132490000Y-100570064D01*
X132490000Y-91799438D01*
X133185066Y-91799438D01*
X133211883Y-92021044D01*
X133277519Y-92234400D01*
X133379901Y-92432759D01*
X133383310Y-92437201D01*
X133383312Y-92437205D01*
X133469218Y-92549160D01*
X133515790Y-92609854D01*
X133680893Y-92760086D01*
X133869990Y-92878707D01*
X134077105Y-92961966D01*
X134082593Y-92963103D01*
X134082598Y-92963104D01*
X134232896Y-92994229D01*
X134295690Y-93007233D01*
X134300303Y-93007499D01*
X134350526Y-93010395D01*
X134350530Y-93010395D01*
X134352349Y-93010500D01*
X134496630Y-93010500D01*
X134499417Y-93010251D01*
X134499423Y-93010251D01*
X134568997Y-93004041D01*
X134662339Y-92995711D01*
X134667753Y-92994230D01*
X134667758Y-92994229D01*
X134795104Y-92959390D01*
X134877651Y-92936808D01*
X134882709Y-92934396D01*
X134882713Y-92934394D01*
X134999462Y-92878707D01*
X135079129Y-92840708D01*
X135260405Y-92710448D01*
X135362194Y-92605410D01*
X135411846Y-92554174D01*
X135411848Y-92554171D01*
X135415749Y-92550146D01*
X135540250Y-92364868D01*
X135567061Y-92303792D01*
X135592190Y-92246545D01*
X135629974Y-92160471D01*
X135631282Y-92155023D01*
X135631284Y-92155017D01*
X135680775Y-91948872D01*
X135680775Y-91948871D01*
X135682085Y-91943415D01*
X135686941Y-91859197D01*
X135694611Y-91726169D01*
X135694611Y-91726166D01*
X135694934Y-91720562D01*
X135671563Y-91527431D01*
X140876899Y-91527431D01*
X140924953Y-91727586D01*
X140928002Y-91736971D01*
X141016012Y-91949447D01*
X141020493Y-91958241D01*
X141140663Y-92154341D01*
X141146456Y-92162314D01*
X141295829Y-92337207D01*
X141302793Y-92344171D01*
X141477686Y-92493544D01*
X141485659Y-92499337D01*
X141681759Y-92619507D01*
X141690553Y-92623988D01*
X141903029Y-92711998D01*
X141912414Y-92715047D01*
X142108385Y-92762096D01*
X142122470Y-92761391D01*
X142126000Y-92752512D01*
X142126000Y-92748210D01*
X142634000Y-92748210D01*
X142637973Y-92761741D01*
X142647431Y-92763101D01*
X142847586Y-92715047D01*
X142856971Y-92711998D01*
X143069447Y-92623988D01*
X143078241Y-92619507D01*
X143274341Y-92499337D01*
X143282314Y-92493544D01*
X143457207Y-92344171D01*
X143464171Y-92337207D01*
X143613544Y-92162314D01*
X143619337Y-92154341D01*
X143723301Y-91984687D01*
X143775949Y-91937056D01*
X143845990Y-91925449D01*
X143911188Y-91953552D01*
X143933944Y-91978248D01*
X143982087Y-92047003D01*
X144132997Y-92197913D01*
X144137505Y-92201070D01*
X144137508Y-92201072D01*
X144188652Y-92236883D01*
X144307820Y-92320326D01*
X144312802Y-92322649D01*
X144312807Y-92322652D01*
X144496263Y-92408198D01*
X144501245Y-92410521D01*
X144506553Y-92411943D01*
X144506555Y-92411944D01*
X144702077Y-92464334D01*
X144702079Y-92464334D01*
X144707392Y-92465758D01*
X144920000Y-92484359D01*
X145132608Y-92465758D01*
X145137921Y-92464334D01*
X145137923Y-92464334D01*
X145193467Y-92449451D01*
X145264444Y-92451141D01*
X145315173Y-92482063D01*
X145968319Y-93135210D01*
X146604137Y-93771028D01*
X146615004Y-93783419D01*
X146633508Y-93807534D01*
X146664172Y-93831063D01*
X146664173Y-93831064D01*
X146755648Y-93901255D01*
X146897884Y-93960171D01*
X147025252Y-93976940D01*
X147042326Y-93979188D01*
X147050521Y-93980267D01*
X147058717Y-93979188D01*
X147080659Y-93976299D01*
X147097106Y-93975221D01*
X150733698Y-93975221D01*
X150801819Y-93995223D01*
X150848312Y-94048879D01*
X150858416Y-94119153D01*
X150828922Y-94183733D01*
X150822793Y-94190316D01*
X150735912Y-94277197D01*
X150715985Y-94292487D01*
X150715546Y-94292669D01*
X150589436Y-94389436D01*
X150492669Y-94515546D01*
X150431839Y-94662403D01*
X150411091Y-94820000D01*
X150412169Y-94828188D01*
X150426882Y-94939941D01*
X150431839Y-94977597D01*
X150492669Y-95124454D01*
X150589436Y-95250564D01*
X150715545Y-95347331D01*
X150788974Y-95377746D01*
X150854773Y-95405001D01*
X150854776Y-95405002D01*
X150862403Y-95408161D01*
X151020000Y-95428909D01*
X151028188Y-95427831D01*
X151169409Y-95409239D01*
X151177597Y-95408161D01*
X151185224Y-95405002D01*
X151185227Y-95405001D01*
X151251026Y-95377746D01*
X151324455Y-95347331D01*
X151450564Y-95250564D01*
X151547331Y-95124454D01*
X151547513Y-95124014D01*
X151562803Y-95104087D01*
X151690046Y-94976845D01*
X151752358Y-94942820D01*
X151779141Y-94939941D01*
X155378977Y-94939941D01*
X155447098Y-94959943D01*
X155493591Y-95013599D01*
X155503695Y-95083873D01*
X155474201Y-95148453D01*
X155468073Y-95155036D01*
X155181687Y-95441423D01*
X155161760Y-95456713D01*
X155161320Y-95456895D01*
X155035210Y-95553662D01*
X154938443Y-95679772D01*
X154935283Y-95687402D01*
X154885847Y-95806751D01*
X154877613Y-95826629D01*
X154856865Y-95984226D01*
X154877613Y-96141823D01*
X154938443Y-96288680D01*
X155035210Y-96414790D01*
X155161319Y-96511557D01*
X155234748Y-96541972D01*
X155300547Y-96569227D01*
X155300550Y-96569228D01*
X155308177Y-96572387D01*
X155465774Y-96593135D01*
X155473962Y-96592057D01*
X155615183Y-96573465D01*
X155623371Y-96572387D01*
X155630998Y-96569228D01*
X155631001Y-96569227D01*
X155696800Y-96541972D01*
X155770229Y-96511557D01*
X155896338Y-96414790D01*
X155993105Y-96288680D01*
X155993287Y-96288240D01*
X156008577Y-96268313D01*
X156335326Y-95941565D01*
X156397638Y-95907540D01*
X156424421Y-95904661D01*
X157596020Y-95904661D01*
X157664141Y-95924663D01*
X157685115Y-95941566D01*
X159432483Y-97688934D01*
X159443350Y-97701325D01*
X159461857Y-97725444D01*
X159539484Y-97785008D01*
X159583997Y-97819165D01*
X159591632Y-97822327D01*
X159591631Y-97822327D01*
X159642913Y-97843569D01*
X159718603Y-97874921D01*
X159718606Y-97874922D01*
X159726233Y-97878081D01*
X159734421Y-97879159D01*
X159840546Y-97893131D01*
X159840551Y-97893131D01*
X159878870Y-97898176D01*
X159887058Y-97897098D01*
X159909003Y-97894209D01*
X159925449Y-97893131D01*
X160418462Y-97893131D01*
X160486583Y-97913133D01*
X160533076Y-97966789D01*
X160543180Y-98037063D01*
X160513686Y-98101643D01*
X160457607Y-98138896D01*
X160416868Y-98152212D01*
X160407359Y-98156209D01*
X160218466Y-98254540D01*
X160209734Y-98260039D01*
X160189677Y-98275099D01*
X160181223Y-98286427D01*
X160187968Y-98298758D01*
X160927188Y-99037978D01*
X160941132Y-99045592D01*
X160942965Y-99045461D01*
X160949580Y-99041210D01*
X161693389Y-98297401D01*
X161699382Y-98286427D01*
X166681223Y-98286427D01*
X166687968Y-98298758D01*
X167427188Y-99037978D01*
X167441132Y-99045592D01*
X167442965Y-99045461D01*
X167449580Y-99041210D01*
X168193389Y-98297401D01*
X168200410Y-98284544D01*
X168193611Y-98275213D01*
X168189554Y-98272518D01*
X168003117Y-98169599D01*
X167993705Y-98165369D01*
X167792959Y-98094280D01*
X167782989Y-98091646D01*
X167573327Y-98054301D01*
X167563073Y-98053331D01*
X167350116Y-98050728D01*
X167339832Y-98051448D01*
X167129321Y-98083661D01*
X167119293Y-98086050D01*
X166916868Y-98152212D01*
X166907359Y-98156209D01*
X166718466Y-98254540D01*
X166709734Y-98260039D01*
X166689677Y-98275099D01*
X166681223Y-98286427D01*
X161699382Y-98286427D01*
X161700410Y-98284544D01*
X161693611Y-98275213D01*
X161689554Y-98272518D01*
X161503117Y-98169599D01*
X161493705Y-98165369D01*
X161416148Y-98137904D01*
X161358612Y-98096310D01*
X161332696Y-98030212D01*
X161346630Y-97960596D01*
X161395989Y-97909565D01*
X161458208Y-97893131D01*
X161886886Y-97893131D01*
X161903333Y-97894209D01*
X161933464Y-97898176D01*
X161971783Y-97893131D01*
X161971788Y-97893131D01*
X162077913Y-97879159D01*
X162086101Y-97878081D01*
X162186677Y-97836421D01*
X162228337Y-97819165D01*
X162272850Y-97785008D01*
X162350477Y-97725444D01*
X162355503Y-97718894D01*
X162355507Y-97718890D01*
X162368987Y-97701322D01*
X162379855Y-97688930D01*
X165173568Y-94895217D01*
X166381305Y-94895217D01*
X166381821Y-94901361D01*
X166398080Y-95094994D01*
X166398081Y-95094999D01*
X166398596Y-95101133D01*
X166455555Y-95299770D01*
X166479322Y-95346015D01*
X166538889Y-95461920D01*
X166550010Y-95483560D01*
X166553835Y-95488386D01*
X166553837Y-95488389D01*
X166601591Y-95548639D01*
X166678364Y-95645503D01*
X166683057Y-95649497D01*
X166683058Y-95649498D01*
X166727596Y-95687402D01*
X166835730Y-95779431D01*
X167016111Y-95880243D01*
X167212639Y-95944099D01*
X167417826Y-95968566D01*
X167423961Y-95968094D01*
X167423963Y-95968094D01*
X167617715Y-95953185D01*
X167617718Y-95953184D01*
X167623858Y-95952712D01*
X167822887Y-95897143D01*
X168007332Y-95803973D01*
X168034899Y-95782436D01*
X168165307Y-95680550D01*
X168165308Y-95680549D01*
X168170168Y-95676752D01*
X168305191Y-95520325D01*
X168407260Y-95340652D01*
X168472486Y-95144575D01*
X168498385Y-94939563D01*
X168498798Y-94910000D01*
X168478633Y-94704345D01*
X168418907Y-94506523D01*
X168321895Y-94324070D01*
X168318005Y-94319300D01*
X168318002Y-94319296D01*
X168195187Y-94168710D01*
X168195184Y-94168707D01*
X168191292Y-94163935D01*
X168186543Y-94160006D01*
X168036822Y-94036146D01*
X168036819Y-94036144D01*
X168032072Y-94032217D01*
X167850301Y-93933933D01*
X167728495Y-93896228D01*
X167658788Y-93874650D01*
X167658785Y-93874649D01*
X167652901Y-93872828D01*
X167646776Y-93872184D01*
X167646775Y-93872184D01*
X167453520Y-93851872D01*
X167453519Y-93851872D01*
X167447392Y-93851228D01*
X167320582Y-93862768D01*
X167247742Y-93869397D01*
X167247741Y-93869397D01*
X167241601Y-93869956D01*
X167043367Y-93928300D01*
X166860241Y-94024036D01*
X166699198Y-94153518D01*
X166695239Y-94158236D01*
X166695238Y-94158237D01*
X166595418Y-94277197D01*
X166566371Y-94311814D01*
X166563408Y-94317203D01*
X166563405Y-94317208D01*
X166559633Y-94324070D01*
X166466821Y-94492895D01*
X166404339Y-94689864D01*
X166403653Y-94695981D01*
X166403652Y-94695985D01*
X166383046Y-94879695D01*
X166381305Y-94895217D01*
X165173568Y-94895217D01*
X167400503Y-92668282D01*
X167412895Y-92657414D01*
X167430460Y-92643936D01*
X167437013Y-92638908D01*
X167448462Y-92623988D01*
X167505122Y-92550146D01*
X167525707Y-92523319D01*
X167530734Y-92516768D01*
X167565531Y-92432759D01*
X167589650Y-92374532D01*
X167604700Y-92260216D01*
X167604700Y-92260214D01*
X167609745Y-92221895D01*
X167608667Y-92213707D01*
X167608667Y-92205449D01*
X167610566Y-92205449D01*
X167619883Y-92145684D01*
X167656292Y-92100096D01*
X167750168Y-92026752D01*
X167885191Y-91870325D01*
X167987260Y-91690652D01*
X168009858Y-91622720D01*
X168050338Y-91564398D01*
X168115926Y-91537218D01*
X168185796Y-91549812D01*
X168237766Y-91598182D01*
X168252332Y-91634791D01*
X168258566Y-91662451D01*
X168261645Y-91672275D01*
X168341770Y-91869603D01*
X168346413Y-91878794D01*
X168457694Y-92060388D01*
X168463777Y-92068699D01*
X168603213Y-92229667D01*
X168610580Y-92236883D01*
X168774434Y-92372916D01*
X168782881Y-92378831D01*
X168966756Y-92486279D01*
X168976042Y-92490729D01*
X169175001Y-92566703D01*
X169184899Y-92569579D01*
X169288250Y-92590606D01*
X169302299Y-92589410D01*
X169306000Y-92579065D01*
X169306000Y-92578517D01*
X169814000Y-92578517D01*
X169818064Y-92592359D01*
X169831478Y-92594393D01*
X169838184Y-92593534D01*
X169848262Y-92591392D01*
X170052255Y-92530191D01*
X170061842Y-92526433D01*
X170253095Y-92432739D01*
X170261945Y-92427464D01*
X170435328Y-92303792D01*
X170443200Y-92297139D01*
X170594052Y-92146812D01*
X170600730Y-92138965D01*
X170725003Y-91966020D01*
X170730313Y-91957183D01*
X170824670Y-91766267D01*
X170828469Y-91756672D01*
X170890377Y-91552910D01*
X170892555Y-91542837D01*
X170893986Y-91531962D01*
X170891775Y-91517778D01*
X170878617Y-91514000D01*
X169832115Y-91514000D01*
X169816876Y-91518475D01*
X169815671Y-91519865D01*
X169814000Y-91527548D01*
X169814000Y-92578517D01*
X169306000Y-92578517D01*
X169306000Y-90987885D01*
X169814000Y-90987885D01*
X169818475Y-91003124D01*
X169819865Y-91004329D01*
X169827548Y-91006000D01*
X170878344Y-91006000D01*
X170891875Y-91002027D01*
X170893180Y-90992947D01*
X170851214Y-90825875D01*
X170847894Y-90816124D01*
X170762972Y-90620814D01*
X170758105Y-90611739D01*
X170642426Y-90432926D01*
X170636136Y-90424757D01*
X170492806Y-90267240D01*
X170485273Y-90260215D01*
X170318139Y-90128222D01*
X170309552Y-90122517D01*
X170123117Y-90019599D01*
X170113705Y-90015369D01*
X169912959Y-89944280D01*
X169902988Y-89941646D01*
X169831837Y-89928972D01*
X169818540Y-89930432D01*
X169814000Y-89944989D01*
X169814000Y-90987885D01*
X169306000Y-90987885D01*
X169306000Y-89943102D01*
X169302082Y-89929758D01*
X169287806Y-89927771D01*
X169249324Y-89933660D01*
X169239288Y-89936051D01*
X169036868Y-90002212D01*
X169027359Y-90006209D01*
X168838463Y-90104542D01*
X168829738Y-90110036D01*
X168659433Y-90237905D01*
X168651726Y-90244748D01*
X168504590Y-90398717D01*
X168498104Y-90406727D01*
X168378098Y-90582649D01*
X168373000Y-90591623D01*
X168283338Y-90784783D01*
X168279775Y-90794470D01*
X168252612Y-90892415D01*
X168215133Y-90952713D01*
X168151004Y-90983176D01*
X168080586Y-90974133D01*
X168026236Y-90928454D01*
X168010573Y-90895162D01*
X168007387Y-90884612D01*
X167998907Y-90856523D01*
X167945954Y-90756932D01*
X167904789Y-90679512D01*
X167904787Y-90679509D01*
X167901895Y-90674070D01*
X167898005Y-90669300D01*
X167898002Y-90669296D01*
X167775187Y-90518710D01*
X167775184Y-90518707D01*
X167771292Y-90513935D01*
X167765931Y-90509500D01*
X167616822Y-90386146D01*
X167616819Y-90386144D01*
X167612072Y-90382217D01*
X167430301Y-90283933D01*
X167303714Y-90244748D01*
X167238788Y-90224650D01*
X167238785Y-90224649D01*
X167232901Y-90222828D01*
X167226776Y-90222184D01*
X167226775Y-90222184D01*
X167033520Y-90201872D01*
X167033519Y-90201872D01*
X167027392Y-90201228D01*
X166900582Y-90212768D01*
X166827742Y-90219397D01*
X166827741Y-90219397D01*
X166821601Y-90219956D01*
X166623367Y-90278300D01*
X166440241Y-90374036D01*
X166279198Y-90503518D01*
X166275239Y-90508236D01*
X166275238Y-90508237D01*
X166158113Y-90647821D01*
X166146371Y-90661814D01*
X166143408Y-90667203D01*
X166143405Y-90667208D01*
X166078768Y-90784783D01*
X166046821Y-90842895D01*
X165984339Y-91039864D01*
X165983653Y-91045981D01*
X165983652Y-91045985D01*
X165970832Y-91160280D01*
X165961305Y-91245217D01*
X165961821Y-91251361D01*
X165978080Y-91444994D01*
X165978081Y-91444999D01*
X165978596Y-91451133D01*
X165997762Y-91517973D01*
X166031260Y-91634791D01*
X166035555Y-91649770D01*
X166130010Y-91833560D01*
X166133835Y-91838386D01*
X166133837Y-91838389D01*
X166258364Y-91995503D01*
X166256607Y-91996896D01*
X166284873Y-92050886D01*
X166278570Y-92121603D01*
X166250398Y-92164607D01*
X165279795Y-93135210D01*
X165217483Y-93169236D01*
X165146668Y-93164171D01*
X165089832Y-93121624D01*
X165065021Y-93055104D01*
X165064700Y-93046115D01*
X165064700Y-92201858D01*
X165084702Y-92133737D01*
X165113124Y-92102571D01*
X165210168Y-92026752D01*
X165345191Y-91870325D01*
X165447260Y-91690652D01*
X165512486Y-91494575D01*
X165538385Y-91289563D01*
X165538798Y-91260000D01*
X165518633Y-91054345D01*
X165503169Y-91003124D01*
X165463942Y-90873199D01*
X165458907Y-90856523D01*
X165405954Y-90756932D01*
X165364789Y-90679512D01*
X165364787Y-90679509D01*
X165361895Y-90674070D01*
X165358005Y-90669300D01*
X165358002Y-90669296D01*
X165235187Y-90518710D01*
X165235184Y-90518707D01*
X165231292Y-90513935D01*
X165225931Y-90509500D01*
X165076822Y-90386146D01*
X165076819Y-90386144D01*
X165072072Y-90382217D01*
X164890301Y-90283933D01*
X164763714Y-90244748D01*
X164698788Y-90224650D01*
X164698785Y-90224649D01*
X164692901Y-90222828D01*
X164686776Y-90222184D01*
X164686775Y-90222184D01*
X164493520Y-90201872D01*
X164493519Y-90201872D01*
X164487392Y-90201228D01*
X164360582Y-90212768D01*
X164287742Y-90219397D01*
X164287741Y-90219397D01*
X164281601Y-90219956D01*
X164083367Y-90278300D01*
X163900241Y-90374036D01*
X163739198Y-90503518D01*
X163735239Y-90508236D01*
X163735238Y-90508237D01*
X163618113Y-90647821D01*
X163606371Y-90661814D01*
X163603408Y-90667203D01*
X163603405Y-90667208D01*
X163538768Y-90784783D01*
X163506821Y-90842895D01*
X163444339Y-91039864D01*
X163443653Y-91045981D01*
X163443652Y-91045985D01*
X163430832Y-91160280D01*
X163421305Y-91245217D01*
X163421821Y-91251361D01*
X163438080Y-91444994D01*
X163438081Y-91444999D01*
X163438596Y-91451133D01*
X163457762Y-91517973D01*
X163491260Y-91634791D01*
X163495555Y-91649770D01*
X163590010Y-91833560D01*
X163593835Y-91838386D01*
X163593837Y-91838389D01*
X163685114Y-91953552D01*
X163718364Y-91995503D01*
X163723057Y-91999497D01*
X163723058Y-91999498D01*
X163850963Y-92108353D01*
X163889876Y-92167736D01*
X163895300Y-92204307D01*
X163895300Y-93103194D01*
X163875298Y-93171315D01*
X163858395Y-93192289D01*
X162993496Y-94057189D01*
X162199951Y-94850734D01*
X162137639Y-94884759D01*
X162066824Y-94879695D01*
X162009988Y-94837148D01*
X161985457Y-94773936D01*
X161979234Y-94710478D01*
X161978633Y-94704345D01*
X161918907Y-94506523D01*
X161821895Y-94324070D01*
X161818005Y-94319300D01*
X161818002Y-94319296D01*
X161695187Y-94168710D01*
X161695184Y-94168707D01*
X161691292Y-94163935D01*
X161686543Y-94160006D01*
X161536822Y-94036146D01*
X161536819Y-94036144D01*
X161532072Y-94032217D01*
X161350301Y-93933933D01*
X161228495Y-93896228D01*
X161158788Y-93874650D01*
X161158785Y-93874649D01*
X161152901Y-93872828D01*
X161146776Y-93872184D01*
X161146775Y-93872184D01*
X160953520Y-93851872D01*
X160953519Y-93851872D01*
X160947392Y-93851228D01*
X160820582Y-93862768D01*
X160747742Y-93869397D01*
X160747741Y-93869397D01*
X160741601Y-93869956D01*
X160543367Y-93928300D01*
X160360241Y-94024036D01*
X160199198Y-94153518D01*
X160195239Y-94158236D01*
X160195238Y-94158237D01*
X160095418Y-94277197D01*
X160066371Y-94311814D01*
X160063408Y-94317203D01*
X160063405Y-94317208D01*
X160059633Y-94324070D01*
X159966821Y-94492895D01*
X159904339Y-94689864D01*
X159903653Y-94695981D01*
X159903652Y-94695985D01*
X159895814Y-94765862D01*
X159888824Y-94828188D01*
X159887853Y-94836844D01*
X159860382Y-94902310D01*
X159801879Y-94942533D01*
X159730916Y-94944741D01*
X159673543Y-94911894D01*
X158951965Y-94190316D01*
X158917939Y-94128004D01*
X158923004Y-94057189D01*
X158965551Y-94000353D01*
X159032071Y-93975542D01*
X159041060Y-93975221D01*
X159762901Y-93975221D01*
X159779348Y-93976299D01*
X159809479Y-93980266D01*
X159847798Y-93975221D01*
X159847803Y-93975221D01*
X159953928Y-93961249D01*
X159962116Y-93960171D01*
X160062692Y-93918511D01*
X160104352Y-93901255D01*
X160178307Y-93844507D01*
X160226492Y-93807534D01*
X160231518Y-93800984D01*
X160231522Y-93800980D01*
X160245002Y-93783412D01*
X160255870Y-93771020D01*
X161676286Y-92350605D01*
X161738598Y-92316579D01*
X161765381Y-92313700D01*
X162810064Y-92313700D01*
X162869480Y-92301881D01*
X162936860Y-92256860D01*
X162971974Y-92204307D01*
X162974987Y-92199798D01*
X162974987Y-92199797D01*
X162981881Y-92189480D01*
X162993700Y-92130064D01*
X162993700Y-90389936D01*
X162981881Y-90330520D01*
X162936860Y-90263140D01*
X162869480Y-90218119D01*
X162810064Y-90206300D01*
X161069936Y-90206300D01*
X161010520Y-90218119D01*
X160943140Y-90263140D01*
X160898119Y-90330520D01*
X160886300Y-90389936D01*
X160886300Y-91434619D01*
X160866298Y-91502740D01*
X160849395Y-91523714D01*
X159604194Y-92768916D01*
X159541882Y-92802941D01*
X159515099Y-92805821D01*
X158965542Y-92805821D01*
X158897421Y-92785819D01*
X158850928Y-92732163D01*
X158840824Y-92661889D01*
X158875058Y-92592136D01*
X158899704Y-92566703D01*
X158915749Y-92550146D01*
X159040250Y-92364868D01*
X159067061Y-92303792D01*
X159092190Y-92246545D01*
X159129974Y-92160471D01*
X159131282Y-92155023D01*
X159131284Y-92155017D01*
X159180775Y-91948872D01*
X159180775Y-91948871D01*
X159182085Y-91943415D01*
X159186941Y-91859197D01*
X159194611Y-91726169D01*
X159194611Y-91726166D01*
X159194934Y-91720562D01*
X159168117Y-91498956D01*
X159102481Y-91285600D01*
X159000099Y-91087241D01*
X158996690Y-91082799D01*
X158996688Y-91082795D01*
X158867620Y-90914590D01*
X158864210Y-90910146D01*
X158699107Y-90759914D01*
X158510010Y-90641293D01*
X158334037Y-90570553D01*
X158308097Y-90560125D01*
X158308095Y-90560124D01*
X158302895Y-90558034D01*
X158297407Y-90556897D01*
X158297402Y-90556896D01*
X158132845Y-90522818D01*
X158084310Y-90512767D01*
X158079697Y-90512501D01*
X158029474Y-90509605D01*
X158029470Y-90509605D01*
X158027651Y-90509500D01*
X157883370Y-90509500D01*
X157880583Y-90509749D01*
X157880577Y-90509749D01*
X157811003Y-90515959D01*
X157717661Y-90524289D01*
X157712247Y-90525770D01*
X157712242Y-90525771D01*
X157598470Y-90556896D01*
X157502349Y-90583192D01*
X157497291Y-90585604D01*
X157497287Y-90585606D01*
X157442499Y-90611739D01*
X157300871Y-90679292D01*
X157119595Y-90809552D01*
X157074077Y-90856523D01*
X156980862Y-90952713D01*
X156964251Y-90969854D01*
X156839750Y-91155132D01*
X156750026Y-91359529D01*
X156748718Y-91364977D01*
X156748716Y-91364983D01*
X156711866Y-91518475D01*
X156697915Y-91576585D01*
X156697592Y-91582190D01*
X156686979Y-91766267D01*
X156685066Y-91799438D01*
X156711883Y-92021044D01*
X156777519Y-92234400D01*
X156879901Y-92432759D01*
X156883310Y-92437201D01*
X156883312Y-92437205D01*
X156944363Y-92516768D01*
X157003927Y-92594393D01*
X157010621Y-92603117D01*
X157036221Y-92669337D01*
X157021956Y-92738886D01*
X156972355Y-92789682D01*
X156910658Y-92805821D01*
X147344903Y-92805821D01*
X147276782Y-92785819D01*
X147255808Y-92768916D01*
X147169179Y-92682287D01*
X147135153Y-92619975D01*
X147140218Y-92549160D01*
X147182765Y-92492324D01*
X147249285Y-92467513D01*
X147269256Y-92467671D01*
X147454525Y-92483880D01*
X147460000Y-92484359D01*
X147672608Y-92465758D01*
X147677921Y-92464334D01*
X147677923Y-92464334D01*
X147873445Y-92411944D01*
X147873447Y-92411943D01*
X147878755Y-92410521D01*
X147883737Y-92408198D01*
X148067193Y-92322652D01*
X148067198Y-92322649D01*
X148072180Y-92320326D01*
X148191348Y-92236883D01*
X148242492Y-92201072D01*
X148242495Y-92201070D01*
X148247003Y-92197913D01*
X148397913Y-92047003D01*
X148412336Y-92026406D01*
X148517169Y-91876688D01*
X148517170Y-91876686D01*
X148520326Y-91872179D01*
X148522649Y-91867197D01*
X148522652Y-91867192D01*
X148608195Y-91683744D01*
X148608198Y-91683737D01*
X148610521Y-91678755D01*
X148611742Y-91674197D01*
X148653692Y-91617222D01*
X148720014Y-91591883D01*
X148789505Y-91606423D01*
X148840105Y-91656225D01*
X148848180Y-91673907D01*
X148849479Y-91678755D01*
X148851802Y-91683737D01*
X148851805Y-91683744D01*
X148937348Y-91867192D01*
X148937351Y-91867197D01*
X148939674Y-91872179D01*
X148942830Y-91876686D01*
X148942831Y-91876688D01*
X149047665Y-92026406D01*
X149062087Y-92047003D01*
X149212997Y-92197913D01*
X149217505Y-92201070D01*
X149217508Y-92201072D01*
X149268652Y-92236883D01*
X149387820Y-92320326D01*
X149392802Y-92322649D01*
X149392807Y-92322652D01*
X149576263Y-92408198D01*
X149581245Y-92410521D01*
X149586553Y-92411943D01*
X149586555Y-92411944D01*
X149782077Y-92464334D01*
X149782079Y-92464334D01*
X149787392Y-92465758D01*
X150000000Y-92484359D01*
X150212608Y-92465758D01*
X150217921Y-92464334D01*
X150217923Y-92464334D01*
X150413445Y-92411944D01*
X150413447Y-92411943D01*
X150418755Y-92410521D01*
X150423737Y-92408198D01*
X150607193Y-92322652D01*
X150607198Y-92322649D01*
X150612180Y-92320326D01*
X150731348Y-92236883D01*
X150782492Y-92201072D01*
X150782495Y-92201070D01*
X150787003Y-92197913D01*
X150937913Y-92047003D01*
X150952336Y-92026406D01*
X151057169Y-91876688D01*
X151057170Y-91876686D01*
X151060326Y-91872179D01*
X151062649Y-91867197D01*
X151062652Y-91867192D01*
X151148198Y-91683737D01*
X151148199Y-91683736D01*
X151150521Y-91678755D01*
X151152258Y-91672275D01*
X151204334Y-91477923D01*
X151204334Y-91477921D01*
X151205758Y-91472608D01*
X151224359Y-91260000D01*
X151205758Y-91047392D01*
X151194219Y-91004329D01*
X151151944Y-90846555D01*
X151151943Y-90846553D01*
X151150521Y-90841245D01*
X151138807Y-90816124D01*
X151062652Y-90652808D01*
X151062649Y-90652803D01*
X151060326Y-90647821D01*
X151035061Y-90611739D01*
X150941072Y-90477508D01*
X150941070Y-90477505D01*
X150937913Y-90472997D01*
X150787003Y-90322087D01*
X150612180Y-90199674D01*
X150607198Y-90197351D01*
X150607193Y-90197348D01*
X150423737Y-90111802D01*
X150423736Y-90111802D01*
X150418755Y-90109479D01*
X150413447Y-90108057D01*
X150413445Y-90108056D01*
X150217923Y-90055666D01*
X150217921Y-90055666D01*
X150212608Y-90054242D01*
X150000000Y-90035641D01*
X149787392Y-90054242D01*
X149782079Y-90055666D01*
X149782077Y-90055666D01*
X149586555Y-90108056D01*
X149586553Y-90108057D01*
X149581245Y-90109479D01*
X149576264Y-90111801D01*
X149576263Y-90111802D01*
X149392808Y-90197348D01*
X149392803Y-90197351D01*
X149387821Y-90199674D01*
X149383314Y-90202830D01*
X149383312Y-90202831D01*
X149217508Y-90318928D01*
X149217505Y-90318930D01*
X149212997Y-90322087D01*
X149062087Y-90472997D01*
X149058930Y-90477505D01*
X149058928Y-90477508D01*
X148964939Y-90611739D01*
X148939674Y-90647821D01*
X148937351Y-90652803D01*
X148937348Y-90652808D01*
X148861193Y-90816124D01*
X148849479Y-90841245D01*
X148848258Y-90845803D01*
X148806308Y-90902778D01*
X148739986Y-90928117D01*
X148670495Y-90913577D01*
X148619895Y-90863775D01*
X148611820Y-90846093D01*
X148610521Y-90841245D01*
X148598807Y-90816124D01*
X148522652Y-90652808D01*
X148522649Y-90652803D01*
X148520326Y-90647821D01*
X148495061Y-90611739D01*
X148401072Y-90477508D01*
X148401070Y-90477505D01*
X148397913Y-90472997D01*
X148247003Y-90322087D01*
X148072180Y-90199674D01*
X148067198Y-90197351D01*
X148067193Y-90197348D01*
X147883737Y-90111802D01*
X147883736Y-90111802D01*
X147878755Y-90109479D01*
X147873447Y-90108057D01*
X147873445Y-90108056D01*
X147677923Y-90055666D01*
X147677921Y-90055666D01*
X147672608Y-90054242D01*
X147460000Y-90035641D01*
X147247392Y-90054242D01*
X147242079Y-90055666D01*
X147242077Y-90055666D01*
X147046555Y-90108056D01*
X147046553Y-90108057D01*
X147041245Y-90109479D01*
X147036264Y-90111801D01*
X147036263Y-90111802D01*
X146852808Y-90197348D01*
X146852803Y-90197351D01*
X146847821Y-90199674D01*
X146843314Y-90202830D01*
X146843312Y-90202831D01*
X146677508Y-90318928D01*
X146677505Y-90318930D01*
X146672997Y-90322087D01*
X146522087Y-90472997D01*
X146518930Y-90477505D01*
X146518928Y-90477508D01*
X146424939Y-90611739D01*
X146399674Y-90647821D01*
X146397351Y-90652803D01*
X146397348Y-90652808D01*
X146321193Y-90816124D01*
X146309479Y-90841245D01*
X146308258Y-90845803D01*
X146266308Y-90902778D01*
X146199986Y-90928117D01*
X146130495Y-90913577D01*
X146079895Y-90863775D01*
X146071820Y-90846093D01*
X146070521Y-90841245D01*
X146058807Y-90816124D01*
X145982652Y-90652808D01*
X145982649Y-90652803D01*
X145980326Y-90647821D01*
X145955061Y-90611739D01*
X145861072Y-90477508D01*
X145861070Y-90477505D01*
X145857913Y-90472997D01*
X145707003Y-90322087D01*
X145532180Y-90199674D01*
X145527198Y-90197351D01*
X145527193Y-90197348D01*
X145343737Y-90111802D01*
X145343736Y-90111802D01*
X145338755Y-90109479D01*
X145333447Y-90108057D01*
X145333445Y-90108056D01*
X145137923Y-90055666D01*
X145137921Y-90055666D01*
X145132608Y-90054242D01*
X144920000Y-90035641D01*
X144707392Y-90054242D01*
X144702079Y-90055666D01*
X144702077Y-90055666D01*
X144506555Y-90108056D01*
X144506553Y-90108057D01*
X144501245Y-90109479D01*
X144496264Y-90111801D01*
X144496263Y-90111802D01*
X144312808Y-90197348D01*
X144312803Y-90197351D01*
X144307821Y-90199674D01*
X144303314Y-90202830D01*
X144303312Y-90202831D01*
X144137508Y-90318928D01*
X144137505Y-90318930D01*
X144132997Y-90322087D01*
X143982087Y-90472997D01*
X143933946Y-90541750D01*
X143878491Y-90586077D01*
X143807871Y-90593386D01*
X143744511Y-90561356D01*
X143723301Y-90535313D01*
X143619337Y-90365659D01*
X143613544Y-90357686D01*
X143464171Y-90182793D01*
X143457207Y-90175829D01*
X143282314Y-90026456D01*
X143274341Y-90020663D01*
X143078241Y-89900493D01*
X143069447Y-89896012D01*
X142856971Y-89808002D01*
X142847586Y-89804953D01*
X142651615Y-89757904D01*
X142637530Y-89758609D01*
X142634000Y-89767488D01*
X142634000Y-92748210D01*
X142126000Y-92748210D01*
X142126000Y-91532115D01*
X142121525Y-91516876D01*
X142120135Y-91515671D01*
X142112452Y-91514000D01*
X140891790Y-91514000D01*
X140878259Y-91517973D01*
X140876899Y-91527431D01*
X135671563Y-91527431D01*
X135668117Y-91498956D01*
X135602481Y-91285600D01*
X135500099Y-91087241D01*
X135496690Y-91082799D01*
X135496688Y-91082795D01*
X135424245Y-90988385D01*
X140877904Y-90988385D01*
X140878609Y-91002470D01*
X140887488Y-91006000D01*
X142107885Y-91006000D01*
X142123124Y-91001525D01*
X142124329Y-91000135D01*
X142126000Y-90992452D01*
X142126000Y-89771790D01*
X142122027Y-89758259D01*
X142112569Y-89756899D01*
X141912414Y-89804953D01*
X141903029Y-89808002D01*
X141690553Y-89896012D01*
X141681759Y-89900493D01*
X141485659Y-90020663D01*
X141477686Y-90026456D01*
X141302793Y-90175829D01*
X141295829Y-90182793D01*
X141146456Y-90357686D01*
X141140663Y-90365659D01*
X141020493Y-90561759D01*
X141016012Y-90570553D01*
X140928002Y-90783029D01*
X140924953Y-90792414D01*
X140877904Y-90988385D01*
X135424245Y-90988385D01*
X135367620Y-90914590D01*
X135364210Y-90910146D01*
X135199107Y-90759914D01*
X135010010Y-90641293D01*
X134834037Y-90570553D01*
X134808097Y-90560125D01*
X134808095Y-90560124D01*
X134802895Y-90558034D01*
X134797407Y-90556897D01*
X134797402Y-90556896D01*
X134632845Y-90522818D01*
X134584310Y-90512767D01*
X134579697Y-90512501D01*
X134529474Y-90509605D01*
X134529470Y-90509605D01*
X134527651Y-90509500D01*
X134383370Y-90509500D01*
X134380583Y-90509749D01*
X134380577Y-90509749D01*
X134311003Y-90515959D01*
X134217661Y-90524289D01*
X134212247Y-90525770D01*
X134212242Y-90525771D01*
X134098470Y-90556896D01*
X134002349Y-90583192D01*
X133997291Y-90585604D01*
X133997287Y-90585606D01*
X133942499Y-90611739D01*
X133800871Y-90679292D01*
X133619595Y-90809552D01*
X133574077Y-90856523D01*
X133480862Y-90952713D01*
X133464251Y-90969854D01*
X133339750Y-91155132D01*
X133250026Y-91359529D01*
X133248718Y-91364977D01*
X133248716Y-91364983D01*
X133211866Y-91518475D01*
X133197915Y-91576585D01*
X133197592Y-91582190D01*
X133186979Y-91766267D01*
X133185066Y-91799438D01*
X132490000Y-91799438D01*
X132490000Y-89436000D01*
X132510002Y-89367879D01*
X132563658Y-89321386D01*
X132616000Y-89310000D01*
X171264000Y-89310000D01*
X171332121Y-89330002D01*
G37*
%TD.AperFunction*%
%TD*%
M02*
