G04 #@! TF.GenerationSoftware,KiCad,Pcbnew,(6.0.5-0)*
G04 #@! TF.CreationDate,2022-06-09T15:38:58+09:00*
G04 #@! TF.ProjectId,qLAMP-main,714c414d-502d-46d6-9169-6e2e6b696361,rev?*
G04 #@! TF.SameCoordinates,Original*
G04 #@! TF.FileFunction,Soldermask,Bot*
G04 #@! TF.FilePolarity,Negative*
%FSLAX46Y46*%
G04 Gerber Fmt 4.6, Leading zero omitted, Abs format (unit mm)*
G04 Created by KiCad (PCBNEW (6.0.5-0)) date 2022-06-09 15:38:58*
%MOMM*%
%LPD*%
G01*
G04 APERTURE LIST*
G04 Aperture macros list*
%AMRoundRect*
0 Rectangle with rounded corners*
0 $1 Rounding radius*
0 $2 $3 $4 $5 $6 $7 $8 $9 X,Y pos of 4 corners*
0 Add a 4 corners polygon primitive as box body*
4,1,4,$2,$3,$4,$5,$6,$7,$8,$9,$2,$3,0*
0 Add four circle primitives for the rounded corners*
1,1,$1+$1,$2,$3*
1,1,$1+$1,$4,$5*
1,1,$1+$1,$6,$7*
1,1,$1+$1,$8,$9*
0 Add four rect primitives between the rounded corners*
20,1,$1+$1,$2,$3,$4,$5,0*
20,1,$1+$1,$4,$5,$6,$7,0*
20,1,$1+$1,$6,$7,$8,$9,0*
20,1,$1+$1,$8,$9,$2,$3,0*%
%AMFreePoly0*
4,1,6,1.000000,0.000000,0.500000,-0.750000,-0.500000,-0.750000,-0.500000,0.750000,0.500000,0.750000,1.000000,0.000000,1.000000,0.000000,$1*%
%AMFreePoly1*
4,1,6,0.500000,-0.750000,-0.650000,-0.750000,-0.150000,0.000000,-0.650000,0.750000,0.500000,0.750000,0.500000,-0.750000,0.500000,-0.750000,$1*%
G04 Aperture macros list end*
%ADD10R,1.700000X1.700000*%
%ADD11O,1.700000X1.700000*%
%ADD12C,2.000000*%
%ADD13R,3.500000X3.500000*%
%ADD14RoundRect,0.750000X-1.000000X0.750000X-1.000000X-0.750000X1.000000X-0.750000X1.000000X0.750000X0*%
%ADD15RoundRect,0.875000X-0.875000X0.875000X-0.875000X-0.875000X0.875000X-0.875000X0.875000X0.875000X0*%
%ADD16C,1.700000*%
%ADD17O,1.000000X1.800000*%
%ADD18R,1.000000X1.000000*%
%ADD19R,1.500000X1.500000*%
%ADD20FreePoly0,180.000000*%
%ADD21FreePoly0,0.000000*%
%ADD22FreePoly1,180.000000*%
%ADD23O,1.000000X1.000000*%
%ADD24FreePoly0,90.000000*%
%ADD25FreePoly0,270.000000*%
G04 APERTURE END LIST*
D10*
X65000000Y-106075000D03*
D11*
X65000000Y-108615000D03*
X65000000Y-111155000D03*
X65000000Y-113695000D03*
X65000000Y-116235000D03*
X65000000Y-118775000D03*
X65000000Y-121315000D03*
X65000000Y-123855000D03*
X65000000Y-126395000D03*
X65000000Y-128935000D03*
D10*
X64999997Y-74619993D03*
D11*
X64999997Y-77159993D03*
X64999997Y-79699993D03*
X64999997Y-82239993D03*
X64999997Y-84779993D03*
X64999997Y-87319993D03*
X64999997Y-89859993D03*
X64999997Y-92399993D03*
X64999997Y-94939993D03*
X64999997Y-97479993D03*
D12*
X205069999Y-89680009D03*
X205069999Y-93180009D03*
X191850000Y-90800000D03*
X191850000Y-94300000D03*
D10*
X167646956Y-90579052D03*
D11*
X167646956Y-93119052D03*
D10*
X159646956Y-90579052D03*
D11*
X159646956Y-93119052D03*
D10*
X167646956Y-82479052D03*
D11*
X167646956Y-85019052D03*
D10*
X163646956Y-82479052D03*
D11*
X163646956Y-85019052D03*
D10*
X159646956Y-82479052D03*
D11*
X159646956Y-85019052D03*
D10*
X163646956Y-90579052D03*
D11*
X163646956Y-93119052D03*
D13*
X204295792Y-85809800D03*
D14*
X204295792Y-79809800D03*
D15*
X199595792Y-82809800D03*
D16*
X187611003Y-98175006D03*
X190151003Y-98175006D03*
X192691003Y-98175006D03*
X195231003Y-98175006D03*
X187611003Y-122675006D03*
X190151003Y-122675006D03*
X192691003Y-122675006D03*
X195231003Y-122675006D03*
X160611003Y-106615006D03*
X160611003Y-109155006D03*
X160611003Y-111695006D03*
X160611003Y-114235006D03*
D17*
X198608282Y-78419792D03*
X198608282Y-74619792D03*
X189968282Y-78419792D03*
X189968282Y-74619792D03*
D10*
X186001000Y-126628000D03*
D11*
X183461000Y-126628000D03*
X180921000Y-126628000D03*
X178381000Y-126628000D03*
X175841000Y-126628000D03*
X173301000Y-126628000D03*
X170761000Y-126628000D03*
X168221000Y-126628000D03*
X165681000Y-126628000D03*
X163141000Y-126628000D03*
D10*
X186000993Y-129200000D03*
D11*
X188540993Y-129200000D03*
X191080993Y-129200000D03*
X193620993Y-129200000D03*
X196160993Y-129200000D03*
X198701000Y-129199996D03*
X201240993Y-129200000D03*
D10*
X163141000Y-77372000D03*
D11*
X165681000Y-77372000D03*
X168221000Y-77372000D03*
X170761000Y-77372000D03*
X173301000Y-77372000D03*
X175841000Y-77372000D03*
X178381000Y-77372000D03*
X180921000Y-77372000D03*
X183461000Y-77372000D03*
X186001000Y-77372000D03*
D18*
X89155998Y-106419994D03*
X95506007Y-106420006D03*
D19*
X89416000Y-99500000D03*
X91816000Y-99500000D03*
D20*
X92616000Y-99500000D03*
D21*
X88616000Y-99500000D03*
D18*
X90996000Y-97110005D03*
D19*
X91726000Y-103440000D03*
X89326000Y-103440000D03*
D21*
X88526000Y-103440000D03*
D20*
X92526000Y-103440000D03*
X200855000Y-123520000D03*
D22*
X199405000Y-123520000D03*
D18*
X85916000Y-97110005D03*
D23*
X87186000Y-97110005D03*
D19*
X186957487Y-81190005D03*
X186957487Y-83590005D03*
D24*
X186957487Y-84390005D03*
D25*
X186957487Y-80390005D03*
D18*
X91695998Y-106419994D03*
D23*
X90425998Y-106419994D03*
D18*
X92965998Y-106419994D03*
D23*
X94235998Y-106419994D03*
D19*
X133950000Y-102080000D03*
X133950000Y-104480000D03*
D24*
X133950000Y-105280000D03*
D25*
X133950000Y-101280000D03*
D18*
X88456000Y-97110005D03*
D23*
X89726000Y-97110005D03*
D19*
X189100003Y-83590005D03*
X189100003Y-81190005D03*
D24*
X189100003Y-84390005D03*
D25*
X189100003Y-80390005D03*
D18*
X128135000Y-105910000D03*
D23*
X128135000Y-104640000D03*
D18*
X128135000Y-103370000D03*
D23*
X128135000Y-102100000D03*
D19*
X93420000Y-97270000D03*
X95820000Y-97270000D03*
D20*
X96620000Y-97270000D03*
D21*
X92620000Y-97270000D03*
M02*
