G04 #@! TF.GenerationSoftware,KiCad,Pcbnew,(6.0.5-0)*
G04 #@! TF.CreationDate,2022-06-09T15:38:57+09:00*
G04 #@! TF.ProjectId,qLAMP-main,714c414d-502d-46d6-9169-6e2e6b696361,rev?*
G04 #@! TF.SameCoordinates,Original*
G04 #@! TF.FileFunction,Legend,Top*
G04 #@! TF.FilePolarity,Positive*
%FSLAX46Y46*%
G04 Gerber Fmt 4.6, Leading zero omitted, Abs format (unit mm)*
G04 Created by KiCad (PCBNEW (6.0.5-0)) date 2022-06-09 15:38:57*
%MOMM*%
%LPD*%
G01*
G04 APERTURE LIST*
%ADD10C,0.150000*%
%ADD11C,0.100000*%
%ADD12C,0.254000*%
%ADD13C,0.149860*%
%ADD14C,0.120000*%
%ADD15C,0.152400*%
G04 APERTURE END LIST*
D10*
X142400000Y-99032380D02*
X142400000Y-99270476D01*
X142161904Y-99175238D02*
X142400000Y-99270476D01*
X142638095Y-99175238D01*
X142257142Y-99460952D02*
X142400000Y-99270476D01*
X142542857Y-99460952D01*
X135810000Y-99232380D02*
X135810000Y-99470476D01*
X135571904Y-99375238D02*
X135810000Y-99470476D01*
X136048095Y-99375238D01*
X135667142Y-99660952D02*
X135810000Y-99470476D01*
X135952857Y-99660952D01*
X118310000Y-102002380D02*
X118310000Y-102240476D01*
X118071904Y-102145238D02*
X118310000Y-102240476D01*
X118548095Y-102145238D01*
X118167142Y-102430952D02*
X118310000Y-102240476D01*
X118452857Y-102430952D01*
X106980000Y-101252380D02*
X106980000Y-101490476D01*
X106741904Y-101395238D02*
X106980000Y-101490476D01*
X107218095Y-101395238D01*
X106837142Y-101680952D02*
X106980000Y-101490476D01*
X107122857Y-101680952D01*
D11*
X67000000Y-131000000D02*
X67000000Y-73000000D01*
X147657227Y-111500000D02*
X147657227Y-92500000D01*
X70761525Y-88065903D02*
G75*
G03*
X69793791Y-87266166I-1693525J-1063897D01*
G01*
X70234056Y-116598779D02*
G75*
G03*
X71379757Y-115828755I-474256J1942979D01*
G01*
X127907202Y-111501637D02*
G75*
G03*
X127907202Y-111501637I-1750000J0D01*
G01*
X74563906Y-84004758D02*
G75*
G03*
X69793791Y-87266166I-3499996J-2D01*
G01*
X148059038Y-88305454D02*
G75*
G03*
X147886139Y-88404914I-38J-199946D01*
G01*
X76697682Y-115698282D02*
G75*
G03*
X76497682Y-115898256I18J-200018D01*
G01*
X76511958Y-88105442D02*
G75*
G03*
X76712016Y-88305442I200042J42D01*
G01*
X77255380Y-115698260D02*
G75*
G03*
X77428279Y-115598784I20J199960D01*
G01*
X77562677Y-88683690D02*
G75*
G03*
X77428293Y-88404914I-1863477J-726510D01*
G01*
X70761576Y-88065871D02*
G75*
G03*
X72455067Y-89001961I1693524J1063871D01*
G01*
X145907216Y-92502061D02*
G75*
G03*
X145907216Y-92502061I-1750000J0D01*
G01*
X72999668Y-115001696D02*
G75*
G03*
X71379757Y-115828755I32J-2000004D01*
G01*
X76512016Y-87717688D02*
X76512016Y-88105442D01*
X150750462Y-118498940D02*
G75*
G03*
X149182810Y-116546221I-1999962J40D01*
G01*
X77657201Y-90864958D02*
G75*
G03*
X74563643Y-89001961I-3093601J-1637042D01*
G01*
X74563901Y-118498940D02*
X74563901Y-119998940D01*
X147657202Y-108501637D02*
X147657202Y-113138748D01*
X148816736Y-88105442D02*
X148816736Y-87712572D01*
X77428284Y-115598787D02*
G75*
G03*
X77562669Y-115320010I-1729084J1005287D01*
G01*
X72999668Y-115001737D02*
X74563629Y-115001737D01*
X147285904Y-89002089D02*
G75*
G03*
X147751749Y-88683688I-4J499989D01*
G01*
X74563944Y-85504758D02*
G75*
G03*
X76131608Y-87457477I1999956J-42D01*
G01*
X74563915Y-84004758D02*
X74563915Y-85504758D01*
X78028528Y-89002061D02*
X147285904Y-89002061D01*
X109907202Y-111501637D02*
G75*
G03*
X109907202Y-111501637I-1750000J0D01*
G01*
X77657216Y-95502061D02*
X77657216Y-90864950D01*
X91907216Y-92502061D02*
G75*
G03*
X91907216Y-92502061I-1750000J0D01*
G01*
X152314750Y-89001961D02*
X150750789Y-89001961D01*
X77657202Y-113138748D02*
X77657202Y-108501637D01*
D10*
X159656011Y-87499996D02*
X157656011Y-87499996D01*
D11*
X147886136Y-88404912D02*
G75*
G03*
X147751749Y-88683688I1729064J-1005288D01*
G01*
X148934323Y-116474066D02*
G75*
G03*
X149182810Y-116546221I680677J1880166D01*
G01*
D10*
X157655999Y-87500000D02*
X157655999Y-86000003D01*
D11*
X77562682Y-88683688D02*
G75*
G03*
X78028528Y-89002061I465818J181588D01*
G01*
X76131593Y-116546217D02*
G75*
G03*
X76364170Y-116479751I-432293J1952817D01*
G01*
X155080376Y-87404975D02*
G75*
G03*
X150750517Y-84004758I-829876J3400175D01*
G01*
X136907202Y-111501637D02*
G75*
G03*
X136907202Y-111501637I-1750000J0D01*
G01*
X154552886Y-115937800D02*
G75*
G03*
X155520627Y-116737532I1693514J1063900D01*
G01*
X70234037Y-116598704D02*
G75*
G03*
X74563901Y-119998940I829863J-3400196D01*
G01*
X118907216Y-92502061D02*
G75*
G03*
X118907216Y-92502061I-1750000J0D01*
G01*
X147157216Y-96002061D02*
X78157216Y-96002061D01*
X118907202Y-111501637D02*
G75*
G03*
X118907202Y-111501637I-1750000J0D01*
G01*
X76131586Y-116546184D02*
G75*
G03*
X74563901Y-118498940I432314J-1952716D01*
G01*
X147657163Y-108501637D02*
G75*
G03*
X147157202Y-108001637I-499963J37D01*
G01*
X150750499Y-119998940D02*
G75*
G03*
X155520627Y-116737532I3500001J0D01*
G01*
X91907202Y-111501637D02*
G75*
G03*
X91907202Y-111501637I-1750000J0D01*
G01*
X150750775Y-115001737D02*
X152859351Y-115001737D01*
X147657216Y-90864950D02*
X147657216Y-95502061D01*
X147657204Y-113138747D02*
G75*
G03*
X150750775Y-115001737I3093596J1637047D01*
G01*
X100907202Y-111501637D02*
G75*
G03*
X100907202Y-111501637I-1750000J0D01*
G01*
X76712016Y-88305442D02*
X77255394Y-88305442D01*
X136907216Y-92502061D02*
G75*
G03*
X136907216Y-92502061I-1750000J0D01*
G01*
X147886126Y-115598783D02*
G75*
G03*
X148059024Y-115698256I172874J100483D01*
G01*
X109907216Y-92502061D02*
G75*
G03*
X109907216Y-92502061I-1750000J0D01*
G01*
X148059038Y-88305442D02*
X148616736Y-88305442D01*
X155080365Y-87404930D02*
G75*
G03*
X153934661Y-88174943I474235J-1942970D01*
G01*
X149182836Y-87457530D02*
G75*
G03*
X150750517Y-85504758I-432336J1952730D01*
G01*
X148950265Y-87523995D02*
G75*
G03*
X148816736Y-87712572I66435J-188605D01*
G01*
X145907202Y-111501637D02*
G75*
G03*
X145907202Y-111501637I-1750000J0D01*
G01*
X150750517Y-85504758D02*
X150750517Y-84004758D01*
D10*
X167756004Y-87500000D02*
X169556000Y-87500000D01*
D11*
X76497682Y-115898256D02*
X76497682Y-116291126D01*
X149182823Y-87457472D02*
G75*
G03*
X148950248Y-87523947I432377J-1952828D01*
G01*
X76380094Y-87529634D02*
G75*
G03*
X76131608Y-87457477I-680694J-1880166D01*
G01*
X147751722Y-115320015D02*
G75*
G03*
X147285890Y-115001637I-465822J-181585D01*
G01*
X148802444Y-115898256D02*
G75*
G03*
X148602402Y-115698256I-200044J-44D01*
G01*
D10*
X169556000Y-87500000D02*
X169556000Y-86000003D01*
D11*
X76364158Y-116479716D02*
G75*
G03*
X76497682Y-116291126I-66458J188616D01*
G01*
X154552902Y-115937790D02*
G75*
G03*
X152859351Y-115001737I-1693502J-1063910D01*
G01*
X78028514Y-115001627D02*
G75*
G03*
X77562669Y-115320010I-14J-499973D01*
G01*
X147157216Y-96002116D02*
G75*
G03*
X147657216Y-95502061I-16J500016D01*
G01*
X100907216Y-92502061D02*
G75*
G03*
X100907216Y-92502061I-1750000J0D01*
G01*
X152314750Y-89001936D02*
G75*
G03*
X153934661Y-88174943I50J1999936D01*
G01*
X77657214Y-92500000D02*
X77657214Y-111500000D01*
X147751740Y-115320008D02*
G75*
G03*
X147886125Y-115598784I1863460J726508D01*
G01*
X74563643Y-89001961D02*
X72455067Y-89001961D01*
X148616736Y-88305436D02*
G75*
G03*
X148816736Y-88105442I-36J200036D01*
G01*
X78157202Y-108001637D02*
X147157202Y-108001637D01*
X148802392Y-116286010D02*
G75*
G03*
X148934323Y-116474066I200008J10D01*
G01*
X77428280Y-88404922D02*
G75*
G03*
X77255394Y-88305442I-172880J-100478D01*
G01*
X77255380Y-115698256D02*
X76697682Y-115698256D01*
X76512016Y-87717688D02*
G75*
G03*
X76380095Y-87529632I-200016J-12D01*
G01*
X82907216Y-92502061D02*
G75*
G03*
X82907216Y-92502061I-1750000J0D01*
G01*
X77657239Y-95502061D02*
G75*
G03*
X78157216Y-96002061I499961J-39D01*
G01*
X148802402Y-116286010D02*
X148802402Y-115898256D01*
X150750789Y-89001972D02*
G75*
G03*
X147657216Y-90864950I11J-3500028D01*
G01*
X147285890Y-115001637D02*
X78028514Y-115001637D01*
X148602402Y-115698256D02*
X148059024Y-115698256D01*
X82907202Y-111501637D02*
G75*
G03*
X82907202Y-111501637I-1750000J0D01*
G01*
X150750503Y-119998940D02*
X150750503Y-118498940D01*
X74563629Y-115001743D02*
G75*
G03*
X77657202Y-113138748I-29J3500043D01*
G01*
X78157202Y-108001602D02*
G75*
G03*
X77657202Y-108501637I-2J-499998D01*
G01*
X127907216Y-92502061D02*
G75*
G03*
X127907216Y-92502061I-1750000J0D01*
G01*
D12*
X115777142Y-125962875D02*
X115777142Y-124762875D01*
X115777142Y-125220018D02*
X115891428Y-125162875D01*
X116120000Y-125162875D01*
X116234285Y-125220018D01*
X116291428Y-125277160D01*
X116348571Y-125391446D01*
X116348571Y-125734303D01*
X116291428Y-125848589D01*
X116234285Y-125905732D01*
X116120000Y-125962875D01*
X115891428Y-125962875D01*
X115777142Y-125905732D01*
X117377142Y-125962875D02*
X117377142Y-125334303D01*
X117320000Y-125220018D01*
X117205714Y-125162875D01*
X116977142Y-125162875D01*
X116862857Y-125220018D01*
X117377142Y-125905732D02*
X117262857Y-125962875D01*
X116977142Y-125962875D01*
X116862857Y-125905732D01*
X116805714Y-125791446D01*
X116805714Y-125677160D01*
X116862857Y-125562875D01*
X116977142Y-125505732D01*
X117262857Y-125505732D01*
X117377142Y-125448589D01*
X117777142Y-125162875D02*
X118234285Y-125162875D01*
X117948571Y-124762875D02*
X117948571Y-125791446D01*
X118005714Y-125905732D01*
X118120000Y-125962875D01*
X118234285Y-125962875D01*
X119148571Y-125905732D02*
X119034285Y-125962875D01*
X118805714Y-125962875D01*
X118691428Y-125905732D01*
X118634285Y-125848589D01*
X118577142Y-125734303D01*
X118577142Y-125391446D01*
X118634285Y-125277160D01*
X118691428Y-125220018D01*
X118805714Y-125162875D01*
X119034285Y-125162875D01*
X119148571Y-125220018D01*
X119662857Y-125962875D02*
X119662857Y-124762875D01*
X120177142Y-125962875D02*
X120177142Y-125334303D01*
X120120000Y-125220018D01*
X120005714Y-125162875D01*
X119834285Y-125162875D01*
X119720000Y-125220018D01*
X119662857Y-125277160D01*
X120977142Y-124762875D02*
X121091428Y-124762875D01*
X121205714Y-124820018D01*
X121262857Y-124877160D01*
X121320000Y-124991446D01*
X121377142Y-125220018D01*
X121377142Y-125505732D01*
X121320000Y-125734303D01*
X121262857Y-125848589D01*
X121205714Y-125905732D01*
X121091428Y-125962875D01*
X120977142Y-125962875D01*
X120862857Y-125905732D01*
X120805714Y-125848589D01*
X120748571Y-125734303D01*
X120691428Y-125505732D01*
X120691428Y-125220018D01*
X120748571Y-124991446D01*
X120805714Y-124877160D01*
X120862857Y-124820018D01*
X120977142Y-124762875D01*
X121834285Y-124877160D02*
X121891428Y-124820018D01*
X122005714Y-124762875D01*
X122291428Y-124762875D01*
X122405714Y-124820018D01*
X122462857Y-124877160D01*
X122520000Y-124991446D01*
X122520000Y-125105732D01*
X122462857Y-125277160D01*
X121777142Y-125962875D01*
X122520000Y-125962875D01*
X123891428Y-124705732D02*
X122862857Y-126248589D01*
X124291428Y-125962875D02*
X124291428Y-125162875D01*
X124291428Y-125277160D02*
X124348571Y-125220018D01*
X124462857Y-125162875D01*
X124634285Y-125162875D01*
X124748571Y-125220018D01*
X124805714Y-125334303D01*
X124805714Y-125962875D01*
X124805714Y-125334303D02*
X124862857Y-125220018D01*
X124977142Y-125162875D01*
X125148571Y-125162875D01*
X125262857Y-125220018D01*
X125320000Y-125334303D01*
X125320000Y-125962875D01*
X126405714Y-125962875D02*
X126405714Y-125334303D01*
X126348571Y-125220018D01*
X126234285Y-125162875D01*
X126005714Y-125162875D01*
X125891428Y-125220018D01*
X126405714Y-125905732D02*
X126291428Y-125962875D01*
X126005714Y-125962875D01*
X125891428Y-125905732D01*
X125834285Y-125791446D01*
X125834285Y-125677160D01*
X125891428Y-125562875D01*
X126005714Y-125505732D01*
X126291428Y-125505732D01*
X126405714Y-125448589D01*
X126977142Y-125962875D02*
X126977142Y-125162875D01*
X126977142Y-124762875D02*
X126920000Y-124820018D01*
X126977142Y-124877160D01*
X127034285Y-124820018D01*
X126977142Y-124762875D01*
X126977142Y-124877160D01*
X127548571Y-125162875D02*
X127548571Y-125962875D01*
X127548571Y-125277160D02*
X127605714Y-125220018D01*
X127720000Y-125162875D01*
X127891428Y-125162875D01*
X128005714Y-125220018D01*
X128062857Y-125334303D01*
X128062857Y-125962875D01*
X186960380Y-89784571D02*
X186960380Y-89300761D01*
X187976380Y-89300761D01*
X186960380Y-90123238D02*
X187976380Y-90123238D01*
X186960380Y-90607047D02*
X187976380Y-90607047D01*
X187976380Y-90848952D01*
X187928000Y-90994095D01*
X187831238Y-91090857D01*
X187734476Y-91139238D01*
X187540952Y-91187619D01*
X187395809Y-91187619D01*
X187202285Y-91139238D01*
X187105523Y-91090857D01*
X187008761Y-90994095D01*
X186960380Y-90848952D01*
X186960380Y-90607047D01*
X201256380Y-87602476D02*
X200240380Y-87844380D01*
X200966095Y-88037904D01*
X200240380Y-88231428D01*
X201256380Y-88473333D01*
X200772571Y-88860380D02*
X200772571Y-89199047D01*
X200240380Y-89344190D02*
X200240380Y-88860380D01*
X201256380Y-88860380D01*
X201256380Y-89344190D01*
X200240380Y-90263428D02*
X200240380Y-89779619D01*
X201256380Y-89779619D01*
X200240380Y-91085904D02*
X200240380Y-90602095D01*
X201256380Y-90602095D01*
X160071619Y-87497428D02*
X160410285Y-87497428D01*
X160555428Y-88029619D02*
X160071619Y-88029619D01*
X160071619Y-87013619D01*
X160555428Y-87013619D01*
X160894095Y-87013619D02*
X161571428Y-88029619D01*
X161571428Y-87013619D02*
X160894095Y-88029619D01*
X161813333Y-87013619D02*
X162393904Y-87013619D01*
X162103619Y-88029619D02*
X162103619Y-87013619D01*
X163264761Y-88029619D02*
X162684190Y-88029619D01*
X162974476Y-88029619D02*
X162974476Y-87013619D01*
X162877714Y-87158761D01*
X162780952Y-87255523D01*
X162684190Y-87303904D01*
X164425904Y-86965238D02*
X163555047Y-88271523D01*
X164716190Y-87110380D02*
X164764571Y-87062000D01*
X164861333Y-87013619D01*
X165103238Y-87013619D01*
X165200000Y-87062000D01*
X165248380Y-87110380D01*
X165296761Y-87207142D01*
X165296761Y-87303904D01*
X165248380Y-87449047D01*
X164667809Y-88029619D01*
X165296761Y-88029619D01*
X166457904Y-86965238D02*
X165587047Y-88271523D01*
X166699809Y-87013619D02*
X167328761Y-87013619D01*
X166990095Y-87400666D01*
X167135238Y-87400666D01*
X167232000Y-87449047D01*
X167280380Y-87497428D01*
X167328761Y-87594190D01*
X167328761Y-87836095D01*
X167280380Y-87932857D01*
X167232000Y-87981238D01*
X167135238Y-88029619D01*
X166844952Y-88029619D01*
X166748190Y-87981238D01*
X166699809Y-87932857D01*
X162655146Y-95485333D02*
X163138956Y-95485333D01*
X162558384Y-95775619D02*
X162897051Y-94759619D01*
X163235717Y-95775619D01*
X163574384Y-95775619D02*
X163574384Y-94759619D01*
X164638765Y-95775619D02*
X164300098Y-95291809D01*
X164058194Y-95775619D02*
X164058194Y-94759619D01*
X164445241Y-94759619D01*
X164542003Y-94808000D01*
X164590384Y-94856380D01*
X164638765Y-94953142D01*
X164638765Y-95098285D01*
X164590384Y-95195047D01*
X164542003Y-95243428D01*
X164445241Y-95291809D01*
X164058194Y-95291809D01*
X165929432Y-94759619D02*
X166171336Y-95775619D01*
X166364860Y-95049904D01*
X166558384Y-95775619D01*
X166800289Y-94759619D01*
X167187336Y-95243428D02*
X167526003Y-95243428D01*
X167671146Y-95775619D02*
X167187336Y-95775619D01*
X167187336Y-94759619D01*
X167671146Y-94759619D01*
X168590384Y-95775619D02*
X168106575Y-95775619D01*
X168106575Y-94759619D01*
X169412860Y-95775619D02*
X168929051Y-95775619D01*
X168929051Y-94759619D01*
X159211527Y-95775619D02*
X158727717Y-95775619D01*
X158727717Y-94759619D01*
X159550194Y-95775619D02*
X159550194Y-94759619D01*
X160034003Y-95775619D02*
X160034003Y-94759619D01*
X160275908Y-94759619D01*
X160421051Y-94808000D01*
X160517813Y-94904761D01*
X160566194Y-95001523D01*
X160614575Y-95195047D01*
X160614575Y-95340190D01*
X160566194Y-95533714D01*
X160517813Y-95630476D01*
X160421051Y-95727238D01*
X160275908Y-95775619D01*
X160034003Y-95775619D01*
D10*
X170550000Y-116702380D02*
X170550000Y-116940476D01*
X170311904Y-116845238D02*
X170550000Y-116940476D01*
X170788095Y-116845238D01*
X170407142Y-117130952D02*
X170550000Y-116940476D01*
X170692857Y-117130952D01*
X194460000Y-80832380D02*
X194460000Y-81070476D01*
X194221904Y-80975238D02*
X194460000Y-81070476D01*
X194698095Y-80975238D01*
X194317142Y-81260952D02*
X194460000Y-81070476D01*
X194602857Y-81260952D01*
X162830000Y-99392380D02*
X162830000Y-99630476D01*
X162591904Y-99535238D02*
X162830000Y-99630476D01*
X163068095Y-99535238D01*
X162687142Y-99820952D02*
X162830000Y-99630476D01*
X162972857Y-99820952D01*
D12*
X115005714Y-123962873D02*
X115005714Y-122762873D01*
X115462857Y-122762873D01*
X115577142Y-122820016D01*
X115634285Y-122877158D01*
X115691428Y-122991444D01*
X115691428Y-123162873D01*
X115634285Y-123277158D01*
X115577142Y-123334301D01*
X115462857Y-123391444D01*
X115005714Y-123391444D01*
X116662857Y-123905730D02*
X116548571Y-123962873D01*
X116320000Y-123962873D01*
X116205714Y-123905730D01*
X116148571Y-123791444D01*
X116148571Y-123334301D01*
X116205714Y-123220016D01*
X116320000Y-123162873D01*
X116548571Y-123162873D01*
X116662857Y-123220016D01*
X116720000Y-123334301D01*
X116720000Y-123448587D01*
X116148571Y-123562873D01*
X117234285Y-123962873D02*
X117234285Y-123162873D01*
X117234285Y-123391444D02*
X117291428Y-123277158D01*
X117348571Y-123220016D01*
X117462857Y-123162873D01*
X117577142Y-123162873D01*
X117920000Y-123905730D02*
X118034285Y-123962873D01*
X118262857Y-123962873D01*
X118377142Y-123905730D01*
X118434285Y-123791444D01*
X118434285Y-123734301D01*
X118377142Y-123620016D01*
X118262857Y-123562873D01*
X118091428Y-123562873D01*
X117977142Y-123505730D01*
X117920000Y-123391444D01*
X117920000Y-123334301D01*
X117977142Y-123220016D01*
X118091428Y-123162873D01*
X118262857Y-123162873D01*
X118377142Y-123220016D01*
X119120000Y-123962873D02*
X119005714Y-123905730D01*
X118948571Y-123848587D01*
X118891428Y-123734301D01*
X118891428Y-123391444D01*
X118948571Y-123277158D01*
X119005714Y-123220016D01*
X119120000Y-123162873D01*
X119291428Y-123162873D01*
X119405714Y-123220016D01*
X119462857Y-123277158D01*
X119520000Y-123391444D01*
X119520000Y-123734301D01*
X119462857Y-123848587D01*
X119405714Y-123905730D01*
X119291428Y-123962873D01*
X119120000Y-123962873D01*
X120034285Y-123162873D02*
X120034285Y-123962873D01*
X120034285Y-123277158D02*
X120091428Y-123220016D01*
X120205714Y-123162873D01*
X120377142Y-123162873D01*
X120491428Y-123220016D01*
X120548571Y-123334301D01*
X120548571Y-123962873D01*
X121634285Y-123962873D02*
X121634285Y-123334301D01*
X121577142Y-123220016D01*
X121462857Y-123162873D01*
X121234285Y-123162873D01*
X121120000Y-123220016D01*
X121634285Y-123905730D02*
X121520000Y-123962873D01*
X121234285Y-123962873D01*
X121120000Y-123905730D01*
X121062857Y-123791444D01*
X121062857Y-123677158D01*
X121120000Y-123562873D01*
X121234285Y-123505730D01*
X121520000Y-123505730D01*
X121634285Y-123448587D01*
X122377142Y-123962873D02*
X122262857Y-123905730D01*
X122205714Y-123791444D01*
X122205714Y-122762873D01*
X124262857Y-123162873D02*
X124262857Y-124362873D01*
X124262857Y-123905730D02*
X124148571Y-123962873D01*
X123920000Y-123962873D01*
X123805714Y-123905730D01*
X123748571Y-123848587D01*
X123691428Y-123734301D01*
X123691428Y-123391444D01*
X123748571Y-123277158D01*
X123805714Y-123220016D01*
X123920000Y-123162873D01*
X124148571Y-123162873D01*
X124262857Y-123220016D01*
X125405714Y-123962873D02*
X124834285Y-123962873D01*
X124834285Y-122762873D01*
X125748571Y-123620016D02*
X126320000Y-123620016D01*
X125634285Y-123962873D02*
X126034285Y-122762873D01*
X126434285Y-123962873D01*
X126834285Y-123962873D02*
X126834285Y-122762873D01*
X127234285Y-123620016D01*
X127634285Y-122762873D01*
X127634285Y-123962873D01*
X128205714Y-123962873D02*
X128205714Y-122762873D01*
X128662857Y-122762873D01*
X128777142Y-122820016D01*
X128834285Y-122877158D01*
X128891428Y-122991444D01*
X128891428Y-123162873D01*
X128834285Y-123277158D01*
X128777142Y-123334301D01*
X128662857Y-123391444D01*
X128205714Y-123391444D01*
D10*
X197939095Y-126932389D02*
X198510523Y-126932389D01*
X198224809Y-127932389D02*
X198224809Y-126932389D01*
X198748619Y-126932389D02*
X199415285Y-127932389D01*
X199415285Y-126932389D02*
X198748619Y-127932389D01*
D12*
X115872380Y-121864761D02*
X115872380Y-119864761D01*
X117015238Y-121864761D01*
X117015238Y-119864761D01*
X117967619Y-121864761D02*
X117967619Y-120531428D01*
X117967619Y-119864761D02*
X117872380Y-119960000D01*
X117967619Y-120055238D01*
X118062857Y-119960000D01*
X117967619Y-119864761D01*
X117967619Y-120055238D01*
X118920000Y-120531428D02*
X118920000Y-121864761D01*
X118920000Y-120721904D02*
X119015238Y-120626666D01*
X119205714Y-120531428D01*
X119491428Y-120531428D01*
X119681904Y-120626666D01*
X119777142Y-120817142D01*
X119777142Y-121864761D01*
X120729523Y-120531428D02*
X120729523Y-122245714D01*
X120634285Y-122436190D01*
X120443809Y-122531428D01*
X120348571Y-122531428D01*
X120729523Y-119864761D02*
X120634285Y-119960000D01*
X120729523Y-120055238D01*
X120824761Y-119960000D01*
X120729523Y-119864761D01*
X120729523Y-120055238D01*
X122539047Y-121864761D02*
X122539047Y-120817142D01*
X122443809Y-120626666D01*
X122253333Y-120531428D01*
X121872380Y-120531428D01*
X121681904Y-120626666D01*
X122539047Y-121769523D02*
X122348571Y-121864761D01*
X121872380Y-121864761D01*
X121681904Y-121769523D01*
X121586666Y-121579047D01*
X121586666Y-121388571D01*
X121681904Y-121198095D01*
X121872380Y-121102857D01*
X122348571Y-121102857D01*
X122539047Y-121007619D01*
X124443809Y-121864761D02*
X123491428Y-121864761D01*
X123491428Y-119864761D01*
X125110476Y-121864761D02*
X125110476Y-120531428D01*
X125110476Y-119864761D02*
X125015238Y-119960000D01*
X125110476Y-120055238D01*
X125205714Y-119960000D01*
X125110476Y-119864761D01*
X125110476Y-120055238D01*
X125777142Y-120531428D02*
X126539047Y-120531428D01*
X126062857Y-119864761D02*
X126062857Y-121579047D01*
X126158095Y-121769523D01*
X126348571Y-121864761D01*
X126539047Y-121864761D01*
X127967619Y-121769523D02*
X127777142Y-121864761D01*
X127396190Y-121864761D01*
X127205714Y-121769523D01*
X127110476Y-121579047D01*
X127110476Y-120817142D01*
X127205714Y-120626666D01*
X127396190Y-120531428D01*
X127777142Y-120531428D01*
X127967619Y-120626666D01*
X128062857Y-120817142D01*
X128062857Y-121007619D01*
X127110476Y-121198095D01*
D10*
X195994333Y-127932389D02*
X195661000Y-127456199D01*
X195422904Y-127932389D02*
X195422904Y-126932389D01*
X195803857Y-126932389D01*
X195899095Y-126980009D01*
X195946714Y-127027628D01*
X195994333Y-127122866D01*
X195994333Y-127265723D01*
X195946714Y-127360961D01*
X195899095Y-127408580D01*
X195803857Y-127456199D01*
X195422904Y-127456199D01*
X196327666Y-126932389D02*
X196994333Y-127932389D01*
X196994333Y-126932389D02*
X196327666Y-127932389D01*
X150060000Y-114372380D02*
X150060000Y-114610476D01*
X149821904Y-114515238D02*
X150060000Y-114610476D01*
X150298095Y-114515238D01*
X149917142Y-114800952D02*
X150060000Y-114610476D01*
X150202857Y-114800952D01*
X85020000Y-106492380D02*
X85020000Y-106730476D01*
X84781904Y-106635238D02*
X85020000Y-106730476D01*
X85258095Y-106635238D01*
X84877142Y-106920952D02*
X85020000Y-106730476D01*
X85162857Y-106920952D01*
X187779095Y-126980009D02*
X187683857Y-126932389D01*
X187541000Y-126932389D01*
X187398142Y-126980009D01*
X187302904Y-127075247D01*
X187255285Y-127170485D01*
X187207666Y-127360961D01*
X187207666Y-127503818D01*
X187255285Y-127694294D01*
X187302904Y-127789532D01*
X187398142Y-127884770D01*
X187541000Y-127932389D01*
X187636238Y-127932389D01*
X187779095Y-127884770D01*
X187826714Y-127837151D01*
X187826714Y-127503818D01*
X187636238Y-127503818D01*
X188255285Y-127932389D02*
X188255285Y-126932389D01*
X188826714Y-127932389D01*
X188826714Y-126932389D01*
X189302904Y-127932389D02*
X189302904Y-126932389D01*
X189541000Y-126932389D01*
X189683857Y-126980009D01*
X189779095Y-127075247D01*
X189826714Y-127170485D01*
X189874333Y-127360961D01*
X189874333Y-127503818D01*
X189826714Y-127694294D01*
X189779095Y-127789532D01*
X189683857Y-127884770D01*
X189541000Y-127932389D01*
X189302904Y-127932389D01*
X91850000Y-101052380D02*
X91850000Y-101290476D01*
X91611904Y-101195238D02*
X91850000Y-101290476D01*
X92088095Y-101195238D01*
X91707142Y-101480952D02*
X91850000Y-101290476D01*
X91992857Y-101480952D01*
X182370000Y-129222380D02*
X182370000Y-128222380D01*
X183036666Y-128222380D02*
X183227142Y-128222380D01*
X183322380Y-128270000D01*
X183417619Y-128365238D01*
X183465238Y-128555714D01*
X183465238Y-128889047D01*
X183417619Y-129079523D01*
X183322380Y-129174761D01*
X183227142Y-129222380D01*
X183036666Y-129222380D01*
X182941428Y-129174761D01*
X182846190Y-129079523D01*
X182798571Y-128889047D01*
X182798571Y-128555714D01*
X182846190Y-128365238D01*
X182941428Y-128270000D01*
X183036666Y-128222380D01*
X184084285Y-128222380D02*
X184179523Y-128222380D01*
X184274761Y-128270000D01*
X184322380Y-128317619D01*
X184370000Y-128412857D01*
X184417619Y-128603333D01*
X184417619Y-128841428D01*
X184370000Y-129031904D01*
X184322380Y-129127142D01*
X184274761Y-129174761D01*
X184179523Y-129222380D01*
X184084285Y-129222380D01*
X183989047Y-129174761D01*
X183941428Y-129127142D01*
X183893809Y-129031904D01*
X183846190Y-128841428D01*
X183846190Y-128603333D01*
X183893809Y-128412857D01*
X183941428Y-128317619D01*
X183989047Y-128270000D01*
X184084285Y-128222380D01*
X63785714Y-103197380D02*
X63785714Y-103911666D01*
X63738095Y-104054523D01*
X63642857Y-104149761D01*
X63500000Y-104197380D01*
X63404761Y-104197380D01*
X64738095Y-104197380D02*
X64261904Y-104197380D01*
X64261904Y-103197380D01*
X65023809Y-104149761D02*
X65166666Y-104197380D01*
X65404761Y-104197380D01*
X65500000Y-104149761D01*
X65547619Y-104102142D01*
X65595238Y-104006904D01*
X65595238Y-103911666D01*
X65547619Y-103816428D01*
X65500000Y-103768809D01*
X65404761Y-103721190D01*
X65214285Y-103673571D01*
X65119047Y-103625952D01*
X65071428Y-103578333D01*
X65023809Y-103483095D01*
X65023809Y-103387857D01*
X65071428Y-103292619D01*
X65119047Y-103245000D01*
X65214285Y-103197380D01*
X65452380Y-103197380D01*
X65595238Y-103245000D01*
X65976190Y-103292619D02*
X66023809Y-103245000D01*
X66119047Y-103197380D01*
X66357142Y-103197380D01*
X66452380Y-103245000D01*
X66500000Y-103292619D01*
X66547619Y-103387857D01*
X66547619Y-103483095D01*
X66500000Y-103625952D01*
X65928571Y-104197380D01*
X66547619Y-104197380D01*
X63738092Y-71742373D02*
X63738092Y-72456659D01*
X63690473Y-72599516D01*
X63595235Y-72694754D01*
X63452377Y-72742373D01*
X63357139Y-72742373D01*
X64690473Y-72742373D02*
X64214282Y-72742373D01*
X64214282Y-71742373D01*
X65023806Y-72742373D02*
X65023806Y-71742373D01*
X65595235Y-72742373D01*
X65595235Y-71742373D01*
X66023806Y-71837612D02*
X66071425Y-71789993D01*
X66166663Y-71742373D01*
X66404758Y-71742373D01*
X66499997Y-71789993D01*
X66547616Y-71837612D01*
X66595235Y-71932850D01*
X66595235Y-72028088D01*
X66547616Y-72170945D01*
X65976187Y-72742373D01*
X66595235Y-72742373D01*
X206687618Y-88584770D02*
X207687618Y-88584770D01*
X207211427Y-88584770D02*
X207211427Y-89156199D01*
X206687618Y-89156199D02*
X207687618Y-89156199D01*
X207687618Y-89537151D02*
X206687618Y-89775247D01*
X207401903Y-89965723D01*
X206687618Y-90156199D01*
X207687618Y-90394294D01*
X207211427Y-90775247D02*
X207211427Y-91108580D01*
X206687618Y-91251437D02*
X206687618Y-90775247D01*
X207687618Y-90775247D01*
X207687618Y-91251437D01*
X206687618Y-92156199D02*
X206687618Y-91680009D01*
X207687618Y-91680009D01*
X206687618Y-92965723D02*
X206687618Y-92489532D01*
X207687618Y-92489532D01*
X206687618Y-93822866D02*
X206687618Y-93251437D01*
X206687618Y-93537151D02*
X207687618Y-93537151D01*
X207544760Y-93441913D01*
X207449522Y-93346675D01*
X207401903Y-93251437D01*
X149056666Y-125452380D02*
X149056666Y-126166666D01*
X149009047Y-126309523D01*
X148913809Y-126404761D01*
X148770952Y-126452380D01*
X148675714Y-126452380D01*
X149532857Y-126452380D02*
X149532857Y-125452380D01*
X149913809Y-125452380D01*
X150009047Y-125500000D01*
X150056666Y-125547619D01*
X150104285Y-125642857D01*
X150104285Y-125785714D01*
X150056666Y-125880952D01*
X150009047Y-125928571D01*
X149913809Y-125976190D01*
X149532857Y-125976190D01*
X151056666Y-126452380D02*
X150485238Y-126452380D01*
X150770952Y-126452380D02*
X150770952Y-125452380D01*
X150675714Y-125595238D01*
X150580476Y-125690476D01*
X150485238Y-125738095D01*
X189981904Y-83872380D02*
X189981904Y-84681904D01*
X190029523Y-84777142D01*
X190077142Y-84824761D01*
X190172380Y-84872380D01*
X190362857Y-84872380D01*
X190458095Y-84824761D01*
X190505714Y-84777142D01*
X190553333Y-84681904D01*
X190553333Y-83872380D01*
X191553333Y-84872380D02*
X190981904Y-84872380D01*
X191267619Y-84872380D02*
X191267619Y-83872380D01*
X191172380Y-84015238D01*
X191077142Y-84110476D01*
X190981904Y-84158095D01*
X192505714Y-84872380D02*
X191934285Y-84872380D01*
X192220000Y-84872380D02*
X192220000Y-83872380D01*
X192124761Y-84015238D01*
X192029523Y-84110476D01*
X191934285Y-84158095D01*
X114831904Y-103042380D02*
X114831904Y-103851904D01*
X114879523Y-103947142D01*
X114927142Y-103994761D01*
X115022380Y-104042380D01*
X115212857Y-104042380D01*
X115308095Y-103994761D01*
X115355714Y-103947142D01*
X115403333Y-103851904D01*
X115403333Y-103042380D01*
X116403333Y-104042380D02*
X115831904Y-104042380D01*
X116117619Y-104042380D02*
X116117619Y-103042380D01*
X116022380Y-103185238D01*
X115927142Y-103280476D01*
X115831904Y-103328095D01*
X117260476Y-103375714D02*
X117260476Y-104042380D01*
X117022380Y-102994761D02*
X116784285Y-103709047D01*
X117403333Y-103709047D01*
X118767142Y-103847142D02*
X118719523Y-103894761D01*
X118576666Y-103942380D01*
X118481428Y-103942380D01*
X118338571Y-103894761D01*
X118243333Y-103799523D01*
X118195714Y-103704285D01*
X118148095Y-103513809D01*
X118148095Y-103370952D01*
X118195714Y-103180476D01*
X118243333Y-103085238D01*
X118338571Y-102990000D01*
X118481428Y-102942380D01*
X118576666Y-102942380D01*
X118719523Y-102990000D01*
X118767142Y-103037619D01*
X119148095Y-103037619D02*
X119195714Y-102990000D01*
X119290952Y-102942380D01*
X119529047Y-102942380D01*
X119624285Y-102990000D01*
X119671904Y-103037619D01*
X119719523Y-103132857D01*
X119719523Y-103228095D01*
X119671904Y-103370952D01*
X119100476Y-103942380D01*
X119719523Y-103942380D01*
X120100476Y-103037619D02*
X120148095Y-102990000D01*
X120243333Y-102942380D01*
X120481428Y-102942380D01*
X120576666Y-102990000D01*
X120624285Y-103037619D01*
X120671904Y-103132857D01*
X120671904Y-103228095D01*
X120624285Y-103370952D01*
X120052857Y-103942380D01*
X120671904Y-103942380D01*
X177847142Y-92567142D02*
X177799523Y-92614761D01*
X177656666Y-92662380D01*
X177561428Y-92662380D01*
X177418571Y-92614761D01*
X177323333Y-92519523D01*
X177275714Y-92424285D01*
X177228095Y-92233809D01*
X177228095Y-92090952D01*
X177275714Y-91900476D01*
X177323333Y-91805238D01*
X177418571Y-91710000D01*
X177561428Y-91662380D01*
X177656666Y-91662380D01*
X177799523Y-91710000D01*
X177847142Y-91757619D01*
X178228095Y-91757619D02*
X178275714Y-91710000D01*
X178370952Y-91662380D01*
X178609047Y-91662380D01*
X178704285Y-91710000D01*
X178751904Y-91757619D01*
X178799523Y-91852857D01*
X178799523Y-91948095D01*
X178751904Y-92090952D01*
X178180476Y-92662380D01*
X178799523Y-92662380D01*
X179132857Y-91662380D02*
X179751904Y-91662380D01*
X179418571Y-92043333D01*
X179561428Y-92043333D01*
X179656666Y-92090952D01*
X179704285Y-92138571D01*
X179751904Y-92233809D01*
X179751904Y-92471904D01*
X179704285Y-92567142D01*
X179656666Y-92614761D01*
X179561428Y-92662380D01*
X179275714Y-92662380D01*
X179180476Y-92614761D01*
X179132857Y-92567142D01*
X177221428Y-90380952D02*
X177221428Y-89619047D01*
X177602380Y-90000000D02*
X176840476Y-90000000D01*
X179272380Y-87930000D02*
X179510476Y-87930000D01*
X179415238Y-88168095D02*
X179510476Y-87930000D01*
X179415238Y-87691904D01*
X179700952Y-88072857D02*
X179510476Y-87930000D01*
X179700952Y-87787142D01*
X120757142Y-99577142D02*
X120709523Y-99624761D01*
X120566666Y-99672380D01*
X120471428Y-99672380D01*
X120328571Y-99624761D01*
X120233333Y-99529523D01*
X120185714Y-99434285D01*
X120138095Y-99243809D01*
X120138095Y-99100952D01*
X120185714Y-98910476D01*
X120233333Y-98815238D01*
X120328571Y-98720000D01*
X120471428Y-98672380D01*
X120566666Y-98672380D01*
X120709523Y-98720000D01*
X120757142Y-98767619D01*
X121138095Y-98767619D02*
X121185714Y-98720000D01*
X121280952Y-98672380D01*
X121519047Y-98672380D01*
X121614285Y-98720000D01*
X121661904Y-98767619D01*
X121709523Y-98862857D01*
X121709523Y-98958095D01*
X121661904Y-99100952D01*
X121090476Y-99672380D01*
X121709523Y-99672380D01*
X122566666Y-99005714D02*
X122566666Y-99672380D01*
X122328571Y-98624761D02*
X122090476Y-99339047D01*
X122709523Y-99339047D01*
X171847142Y-88427142D02*
X171799523Y-88474761D01*
X171656666Y-88522380D01*
X171561428Y-88522380D01*
X171418571Y-88474761D01*
X171323333Y-88379523D01*
X171275714Y-88284285D01*
X171228095Y-88093809D01*
X171228095Y-87950952D01*
X171275714Y-87760476D01*
X171323333Y-87665238D01*
X171418571Y-87570000D01*
X171561428Y-87522380D01*
X171656666Y-87522380D01*
X171799523Y-87570000D01*
X171847142Y-87617619D01*
X172228095Y-87617619D02*
X172275714Y-87570000D01*
X172370952Y-87522380D01*
X172609047Y-87522380D01*
X172704285Y-87570000D01*
X172751904Y-87617619D01*
X172799523Y-87712857D01*
X172799523Y-87808095D01*
X172751904Y-87950952D01*
X172180476Y-88522380D01*
X172799523Y-88522380D01*
X173704285Y-87522380D02*
X173228095Y-87522380D01*
X173180476Y-87998571D01*
X173228095Y-87950952D01*
X173323333Y-87903333D01*
X173561428Y-87903333D01*
X173656666Y-87950952D01*
X173704285Y-87998571D01*
X173751904Y-88093809D01*
X173751904Y-88331904D01*
X173704285Y-88427142D01*
X173656666Y-88474761D01*
X173561428Y-88522380D01*
X173323333Y-88522380D01*
X173228095Y-88474761D01*
X173180476Y-88427142D01*
X171897142Y-95167142D02*
X171849523Y-95214761D01*
X171706666Y-95262380D01*
X171611428Y-95262380D01*
X171468571Y-95214761D01*
X171373333Y-95119523D01*
X171325714Y-95024285D01*
X171278095Y-94833809D01*
X171278095Y-94690952D01*
X171325714Y-94500476D01*
X171373333Y-94405238D01*
X171468571Y-94310000D01*
X171611428Y-94262380D01*
X171706666Y-94262380D01*
X171849523Y-94310000D01*
X171897142Y-94357619D01*
X172278095Y-94357619D02*
X172325714Y-94310000D01*
X172420952Y-94262380D01*
X172659047Y-94262380D01*
X172754285Y-94310000D01*
X172801904Y-94357619D01*
X172849523Y-94452857D01*
X172849523Y-94548095D01*
X172801904Y-94690952D01*
X172230476Y-95262380D01*
X172849523Y-95262380D01*
X173182857Y-94262380D02*
X173849523Y-94262380D01*
X173420952Y-95262380D01*
X183977142Y-86297142D02*
X183929523Y-86344761D01*
X183786666Y-86392380D01*
X183691428Y-86392380D01*
X183548571Y-86344761D01*
X183453333Y-86249523D01*
X183405714Y-86154285D01*
X183358095Y-85963809D01*
X183358095Y-85820952D01*
X183405714Y-85630476D01*
X183453333Y-85535238D01*
X183548571Y-85440000D01*
X183691428Y-85392380D01*
X183786666Y-85392380D01*
X183929523Y-85440000D01*
X183977142Y-85487619D01*
X184358095Y-85487619D02*
X184405714Y-85440000D01*
X184500952Y-85392380D01*
X184739047Y-85392380D01*
X184834285Y-85440000D01*
X184881904Y-85487619D01*
X184929523Y-85582857D01*
X184929523Y-85678095D01*
X184881904Y-85820952D01*
X184310476Y-86392380D01*
X184929523Y-86392380D01*
X185405714Y-86392380D02*
X185596190Y-86392380D01*
X185691428Y-86344761D01*
X185739047Y-86297142D01*
X185834285Y-86154285D01*
X185881904Y-85963809D01*
X185881904Y-85582857D01*
X185834285Y-85487619D01*
X185786666Y-85440000D01*
X185691428Y-85392380D01*
X185500952Y-85392380D01*
X185405714Y-85440000D01*
X185358095Y-85487619D01*
X185310476Y-85582857D01*
X185310476Y-85820952D01*
X185358095Y-85916190D01*
X185405714Y-85963809D01*
X185500952Y-86011428D01*
X185691428Y-86011428D01*
X185786666Y-85963809D01*
X185834285Y-85916190D01*
X185881904Y-85820952D01*
X170347142Y-101692857D02*
X170394761Y-101740476D01*
X170442380Y-101883333D01*
X170442380Y-101978571D01*
X170394761Y-102121428D01*
X170299523Y-102216666D01*
X170204285Y-102264285D01*
X170013809Y-102311904D01*
X169870952Y-102311904D01*
X169680476Y-102264285D01*
X169585238Y-102216666D01*
X169490000Y-102121428D01*
X169442380Y-101978571D01*
X169442380Y-101883333D01*
X169490000Y-101740476D01*
X169537619Y-101692857D01*
X169442380Y-101359523D02*
X169442380Y-100740476D01*
X169823333Y-101073809D01*
X169823333Y-100930952D01*
X169870952Y-100835714D01*
X169918571Y-100788095D01*
X170013809Y-100740476D01*
X170251904Y-100740476D01*
X170347142Y-100788095D01*
X170394761Y-100835714D01*
X170442380Y-100930952D01*
X170442380Y-101216666D01*
X170394761Y-101311904D01*
X170347142Y-101359523D01*
X170442380Y-99788095D02*
X170442380Y-100359523D01*
X170442380Y-100073809D02*
X169442380Y-100073809D01*
X169585238Y-100169047D01*
X169680476Y-100264285D01*
X169728095Y-100359523D01*
X112067142Y-103827142D02*
X112019523Y-103874761D01*
X111876666Y-103922380D01*
X111781428Y-103922380D01*
X111638571Y-103874761D01*
X111543333Y-103779523D01*
X111495714Y-103684285D01*
X111448095Y-103493809D01*
X111448095Y-103350952D01*
X111495714Y-103160476D01*
X111543333Y-103065238D01*
X111638571Y-102970000D01*
X111781428Y-102922380D01*
X111876666Y-102922380D01*
X112019523Y-102970000D01*
X112067142Y-103017619D01*
X112400476Y-102922380D02*
X113019523Y-102922380D01*
X112686190Y-103303333D01*
X112829047Y-103303333D01*
X112924285Y-103350952D01*
X112971904Y-103398571D01*
X113019523Y-103493809D01*
X113019523Y-103731904D01*
X112971904Y-103827142D01*
X112924285Y-103874761D01*
X112829047Y-103922380D01*
X112543333Y-103922380D01*
X112448095Y-103874761D01*
X112400476Y-103827142D01*
X113352857Y-102922380D02*
X113971904Y-102922380D01*
X113638571Y-103303333D01*
X113781428Y-103303333D01*
X113876666Y-103350952D01*
X113924285Y-103398571D01*
X113971904Y-103493809D01*
X113971904Y-103731904D01*
X113924285Y-103827142D01*
X113876666Y-103874761D01*
X113781428Y-103922380D01*
X113495714Y-103922380D01*
X113400476Y-103874761D01*
X113352857Y-103827142D01*
X192413850Y-81877342D02*
X192366231Y-81924961D01*
X192223374Y-81972580D01*
X192128136Y-81972580D01*
X191985279Y-81924961D01*
X191890041Y-81829723D01*
X191842422Y-81734485D01*
X191794803Y-81544009D01*
X191794803Y-81401152D01*
X191842422Y-81210676D01*
X191890041Y-81115438D01*
X191985279Y-81020200D01*
X192128136Y-80972580D01*
X192223374Y-80972580D01*
X192366231Y-81020200D01*
X192413850Y-81067819D01*
X193366231Y-81972580D02*
X192794803Y-81972580D01*
X193080517Y-81972580D02*
X193080517Y-80972580D01*
X192985279Y-81115438D01*
X192890041Y-81210676D01*
X192794803Y-81258295D01*
X193699565Y-80972580D02*
X194318612Y-80972580D01*
X193985279Y-81353533D01*
X194128136Y-81353533D01*
X194223374Y-81401152D01*
X194270993Y-81448771D01*
X194318612Y-81544009D01*
X194318612Y-81782104D01*
X194270993Y-81877342D01*
X194223374Y-81924961D01*
X194128136Y-81972580D01*
X193842422Y-81972580D01*
X193747184Y-81924961D01*
X193699565Y-81877342D01*
X109117142Y-104447142D02*
X109069523Y-104494761D01*
X108926666Y-104542380D01*
X108831428Y-104542380D01*
X108688571Y-104494761D01*
X108593333Y-104399523D01*
X108545714Y-104304285D01*
X108498095Y-104113809D01*
X108498095Y-103970952D01*
X108545714Y-103780476D01*
X108593333Y-103685238D01*
X108688571Y-103590000D01*
X108831428Y-103542380D01*
X108926666Y-103542380D01*
X109069523Y-103590000D01*
X109117142Y-103637619D01*
X110069523Y-104542380D02*
X109498095Y-104542380D01*
X109783809Y-104542380D02*
X109783809Y-103542380D01*
X109688571Y-103685238D01*
X109593333Y-103780476D01*
X109498095Y-103828095D01*
X110926666Y-103875714D02*
X110926666Y-104542380D01*
X110688571Y-103494761D02*
X110450476Y-104209047D01*
X111069523Y-104209047D01*
X193367619Y-90795238D02*
X194367619Y-90795238D01*
X193891428Y-90795238D02*
X193891428Y-91366666D01*
X193367619Y-91366666D02*
X194367619Y-91366666D01*
X193367619Y-92319047D02*
X193367619Y-91842857D01*
X194367619Y-91842857D01*
X193367619Y-92652380D02*
X194367619Y-92652380D01*
X193367619Y-93128571D02*
X194367619Y-93128571D01*
X194367619Y-93366666D01*
X194320000Y-93509523D01*
X194224761Y-93604761D01*
X194129523Y-93652380D01*
X193939047Y-93700000D01*
X193796190Y-93700000D01*
X193605714Y-93652380D01*
X193510476Y-93604761D01*
X193415238Y-93509523D01*
X193367619Y-93366666D01*
X193367619Y-93128571D01*
X193367619Y-94652380D02*
X193367619Y-94080952D01*
X193367619Y-94366666D02*
X194367619Y-94366666D01*
X194224761Y-94271428D01*
X194129523Y-94176190D01*
X194081904Y-94080952D01*
X81457903Y-102572392D02*
X81457903Y-103381916D01*
X81505522Y-103477154D01*
X81553141Y-103524773D01*
X81648379Y-103572392D01*
X81838856Y-103572392D01*
X81934094Y-103524773D01*
X81981713Y-103477154D01*
X82029332Y-103381916D01*
X82029332Y-102572392D01*
X83029332Y-103572392D02*
X82457903Y-103572392D01*
X82743618Y-103572392D02*
X82743618Y-102572392D01*
X82648379Y-102715250D01*
X82553141Y-102810488D01*
X82457903Y-102858107D01*
X83505522Y-103572392D02*
X83695999Y-103572392D01*
X83791237Y-103524773D01*
X83838856Y-103477154D01*
X83934094Y-103334297D01*
X83981713Y-103143821D01*
X83981713Y-102762869D01*
X83934094Y-102667631D01*
X83886475Y-102620012D01*
X83791237Y-102572392D01*
X83600760Y-102572392D01*
X83505522Y-102620012D01*
X83457903Y-102667631D01*
X83410284Y-102762869D01*
X83410284Y-103000964D01*
X83457903Y-103096202D01*
X83505522Y-103143821D01*
X83600760Y-103191440D01*
X83791237Y-103191440D01*
X83886475Y-103143821D01*
X83934094Y-103096202D01*
X83981713Y-103000964D01*
X93833333Y-103837142D02*
X93785714Y-103884761D01*
X93642857Y-103932380D01*
X93547619Y-103932380D01*
X93404761Y-103884761D01*
X93309523Y-103789523D01*
X93261904Y-103694285D01*
X93214285Y-103503809D01*
X93214285Y-103360952D01*
X93261904Y-103170476D01*
X93309523Y-103075238D01*
X93404761Y-102980000D01*
X93547619Y-102932380D01*
X93642857Y-102932380D01*
X93785714Y-102980000D01*
X93833333Y-103027619D01*
X94404761Y-103360952D02*
X94309523Y-103313333D01*
X94261904Y-103265714D01*
X94214285Y-103170476D01*
X94214285Y-103122857D01*
X94261904Y-103027619D01*
X94309523Y-102980000D01*
X94404761Y-102932380D01*
X94595238Y-102932380D01*
X94690476Y-102980000D01*
X94738095Y-103027619D01*
X94785714Y-103122857D01*
X94785714Y-103170476D01*
X94738095Y-103265714D01*
X94690476Y-103313333D01*
X94595238Y-103360952D01*
X94404761Y-103360952D01*
X94309523Y-103408571D01*
X94261904Y-103456190D01*
X94214285Y-103551428D01*
X94214285Y-103741904D01*
X94261904Y-103837142D01*
X94309523Y-103884761D01*
X94404761Y-103932380D01*
X94595238Y-103932380D01*
X94690476Y-103884761D01*
X94738095Y-103837142D01*
X94785714Y-103741904D01*
X94785714Y-103551428D01*
X94738095Y-103456190D01*
X94690476Y-103408571D01*
X94595238Y-103360952D01*
X177047142Y-123297142D02*
X176999523Y-123344761D01*
X176856666Y-123392380D01*
X176761428Y-123392380D01*
X176618571Y-123344761D01*
X176523333Y-123249523D01*
X176475714Y-123154285D01*
X176428095Y-122963809D01*
X176428095Y-122820952D01*
X176475714Y-122630476D01*
X176523333Y-122535238D01*
X176618571Y-122440000D01*
X176761428Y-122392380D01*
X176856666Y-122392380D01*
X176999523Y-122440000D01*
X177047142Y-122487619D01*
X177999523Y-123392380D02*
X177428095Y-123392380D01*
X177713809Y-123392380D02*
X177713809Y-122392380D01*
X177618571Y-122535238D01*
X177523333Y-122630476D01*
X177428095Y-122678095D01*
X178951904Y-123392380D02*
X178380476Y-123392380D01*
X178666190Y-123392380D02*
X178666190Y-122392380D01*
X178570952Y-122535238D01*
X178475714Y-122630476D01*
X178380476Y-122678095D01*
X88123327Y-105697140D02*
X88075708Y-105744759D01*
X87932851Y-105792378D01*
X87837613Y-105792378D01*
X87694755Y-105744759D01*
X87599517Y-105649521D01*
X87551898Y-105554283D01*
X87504279Y-105363807D01*
X87504279Y-105220950D01*
X87551898Y-105030474D01*
X87599517Y-104935236D01*
X87694755Y-104839998D01*
X87837613Y-104792378D01*
X87932851Y-104792378D01*
X88075708Y-104839998D01*
X88123327Y-104887617D01*
X88980470Y-104792378D02*
X88789994Y-104792378D01*
X88694755Y-104839998D01*
X88647136Y-104887617D01*
X88551898Y-105030474D01*
X88504279Y-105220950D01*
X88504279Y-105601902D01*
X88551898Y-105697140D01*
X88599517Y-105744759D01*
X88694755Y-105792378D01*
X88885232Y-105792378D01*
X88980470Y-105744759D01*
X89028089Y-105697140D01*
X89075708Y-105601902D01*
X89075708Y-105363807D01*
X89028089Y-105268569D01*
X88980470Y-105220950D01*
X88885232Y-105173331D01*
X88694755Y-105173331D01*
X88599517Y-105220950D01*
X88551898Y-105268569D01*
X88504279Y-105363807D01*
X160118095Y-102922380D02*
X160118095Y-103731904D01*
X160165714Y-103827142D01*
X160213333Y-103874761D01*
X160308571Y-103922380D01*
X160499047Y-103922380D01*
X160594285Y-103874761D01*
X160641904Y-103827142D01*
X160689523Y-103731904D01*
X160689523Y-102922380D01*
X161308571Y-103350952D02*
X161213333Y-103303333D01*
X161165714Y-103255714D01*
X161118095Y-103160476D01*
X161118095Y-103112857D01*
X161165714Y-103017619D01*
X161213333Y-102970000D01*
X161308571Y-102922380D01*
X161499047Y-102922380D01*
X161594285Y-102970000D01*
X161641904Y-103017619D01*
X161689523Y-103112857D01*
X161689523Y-103160476D01*
X161641904Y-103255714D01*
X161594285Y-103303333D01*
X161499047Y-103350952D01*
X161308571Y-103350952D01*
X161213333Y-103398571D01*
X161165714Y-103446190D01*
X161118095Y-103541428D01*
X161118095Y-103731904D01*
X161165714Y-103827142D01*
X161213333Y-103874761D01*
X161308571Y-103922380D01*
X161499047Y-103922380D01*
X161594285Y-103874761D01*
X161641904Y-103827142D01*
X161689523Y-103731904D01*
X161689523Y-103541428D01*
X161641904Y-103446190D01*
X161594285Y-103398571D01*
X161499047Y-103350952D01*
X86048095Y-97922380D02*
X86048095Y-98731904D01*
X86095714Y-98827142D01*
X86143333Y-98874761D01*
X86238571Y-98922380D01*
X86429047Y-98922380D01*
X86524285Y-98874761D01*
X86571904Y-98827142D01*
X86619523Y-98731904D01*
X86619523Y-97922380D01*
X87524285Y-98255714D02*
X87524285Y-98922380D01*
X87286190Y-97874761D02*
X87048095Y-98589047D01*
X87667142Y-98589047D01*
D13*
X89883148Y-105812367D02*
X89549815Y-105336177D01*
X89311720Y-105812367D02*
X89311720Y-104812367D01*
X89692672Y-104812367D01*
X89787910Y-104859987D01*
X89835529Y-104907606D01*
X89883148Y-105002844D01*
X89883148Y-105145701D01*
X89835529Y-105240939D01*
X89787910Y-105288558D01*
X89692672Y-105336177D01*
X89311720Y-105336177D01*
X90835529Y-105812367D02*
X90264101Y-105812367D01*
X90549815Y-105812367D02*
X90549815Y-104812367D01*
X90454577Y-104955225D01*
X90359339Y-105050463D01*
X90264101Y-105098082D01*
X91168863Y-104812367D02*
X91787910Y-104812367D01*
X91454577Y-105193320D01*
X91597434Y-105193320D01*
X91692672Y-105240939D01*
X91740291Y-105288558D01*
X91787910Y-105383796D01*
X91787910Y-105621891D01*
X91740291Y-105717129D01*
X91692672Y-105764748D01*
X91597434Y-105812367D01*
X91311720Y-105812367D01*
X91216482Y-105764748D01*
X91168863Y-105717129D01*
D10*
X159917142Y-98802380D02*
X159583809Y-98326190D01*
X159345714Y-98802380D02*
X159345714Y-97802380D01*
X159726666Y-97802380D01*
X159821904Y-97850000D01*
X159869523Y-97897619D01*
X159917142Y-97992857D01*
X159917142Y-98135714D01*
X159869523Y-98230952D01*
X159821904Y-98278571D01*
X159726666Y-98326190D01*
X159345714Y-98326190D01*
X160869523Y-98802380D02*
X160298095Y-98802380D01*
X160583809Y-98802380D02*
X160583809Y-97802380D01*
X160488571Y-97945238D01*
X160393333Y-98040476D01*
X160298095Y-98088095D01*
X161202857Y-97802380D02*
X161869523Y-97802380D01*
X161440952Y-98802380D01*
X163507142Y-98842380D02*
X163173809Y-98366190D01*
X162935714Y-98842380D02*
X162935714Y-97842380D01*
X163316666Y-97842380D01*
X163411904Y-97890000D01*
X163459523Y-97937619D01*
X163507142Y-98032857D01*
X163507142Y-98175714D01*
X163459523Y-98270952D01*
X163411904Y-98318571D01*
X163316666Y-98366190D01*
X162935714Y-98366190D01*
X164459523Y-98842380D02*
X163888095Y-98842380D01*
X164173809Y-98842380D02*
X164173809Y-97842380D01*
X164078571Y-97985238D01*
X163983333Y-98080476D01*
X163888095Y-98128095D01*
X165030952Y-98270952D02*
X164935714Y-98223333D01*
X164888095Y-98175714D01*
X164840476Y-98080476D01*
X164840476Y-98032857D01*
X164888095Y-97937619D01*
X164935714Y-97890000D01*
X165030952Y-97842380D01*
X165221428Y-97842380D01*
X165316666Y-97890000D01*
X165364285Y-97937619D01*
X165411904Y-98032857D01*
X165411904Y-98080476D01*
X165364285Y-98175714D01*
X165316666Y-98223333D01*
X165221428Y-98270952D01*
X165030952Y-98270952D01*
X164935714Y-98318571D01*
X164888095Y-98366190D01*
X164840476Y-98461428D01*
X164840476Y-98651904D01*
X164888095Y-98747142D01*
X164935714Y-98794761D01*
X165030952Y-98842380D01*
X165221428Y-98842380D01*
X165316666Y-98794761D01*
X165364285Y-98747142D01*
X165411904Y-98651904D01*
X165411904Y-98461428D01*
X165364285Y-98366190D01*
X165316666Y-98318571D01*
X165221428Y-98270952D01*
X165658095Y-112032380D02*
X165658095Y-112841904D01*
X165705714Y-112937142D01*
X165753333Y-112984761D01*
X165848571Y-113032380D01*
X166039047Y-113032380D01*
X166134285Y-112984761D01*
X166181904Y-112937142D01*
X166229523Y-112841904D01*
X166229523Y-112032380D01*
X166753333Y-113032380D02*
X166943809Y-113032380D01*
X167039047Y-112984761D01*
X167086666Y-112937142D01*
X167181904Y-112794285D01*
X167229523Y-112603809D01*
X167229523Y-112222857D01*
X167181904Y-112127619D01*
X167134285Y-112080000D01*
X167039047Y-112032380D01*
X166848571Y-112032380D01*
X166753333Y-112080000D01*
X166705714Y-112127619D01*
X166658095Y-112222857D01*
X166658095Y-112460952D01*
X166705714Y-112556190D01*
X166753333Y-112603809D01*
X166848571Y-112651428D01*
X167039047Y-112651428D01*
X167134285Y-112603809D01*
X167181904Y-112556190D01*
X167229523Y-112460952D01*
X122675142Y-103667137D02*
X122627523Y-103714756D01*
X122484666Y-103762375D01*
X122389428Y-103762375D01*
X122246571Y-103714756D01*
X122151333Y-103619518D01*
X122103714Y-103524280D01*
X122056095Y-103333804D01*
X122056095Y-103190947D01*
X122103714Y-103000471D01*
X122151333Y-102905233D01*
X122246571Y-102809995D01*
X122389428Y-102762375D01*
X122484666Y-102762375D01*
X122627523Y-102809995D01*
X122675142Y-102857614D01*
X123056095Y-102857614D02*
X123103714Y-102809995D01*
X123198952Y-102762375D01*
X123437047Y-102762375D01*
X123532285Y-102809995D01*
X123579904Y-102857614D01*
X123627523Y-102952852D01*
X123627523Y-103048090D01*
X123579904Y-103190947D01*
X123008476Y-103762375D01*
X123627523Y-103762375D01*
X124484666Y-102762375D02*
X124294190Y-102762375D01*
X124198952Y-102809995D01*
X124151333Y-102857614D01*
X124056095Y-103000471D01*
X124008476Y-103190947D01*
X124008476Y-103571899D01*
X124056095Y-103667137D01*
X124103714Y-103714756D01*
X124198952Y-103762375D01*
X124389428Y-103762375D01*
X124484666Y-103714756D01*
X124532285Y-103667137D01*
X124579904Y-103571899D01*
X124579904Y-103333804D01*
X124532285Y-103238566D01*
X124484666Y-103190947D01*
X124389428Y-103143328D01*
X124198952Y-103143328D01*
X124103714Y-103190947D01*
X124056095Y-103238566D01*
X124008476Y-103333804D01*
X198209761Y-94847619D02*
X198114523Y-94800000D01*
X198019285Y-94704761D01*
X197876428Y-94561904D01*
X197781190Y-94514285D01*
X197685952Y-94514285D01*
X197733571Y-94752380D02*
X197638333Y-94704761D01*
X197543095Y-94609523D01*
X197495476Y-94419047D01*
X197495476Y-94085714D01*
X197543095Y-93895238D01*
X197638333Y-93800000D01*
X197733571Y-93752380D01*
X197924047Y-93752380D01*
X198019285Y-93800000D01*
X198114523Y-93895238D01*
X198162142Y-94085714D01*
X198162142Y-94419047D01*
X198114523Y-94609523D01*
X198019285Y-94704761D01*
X197924047Y-94752380D01*
X197733571Y-94752380D01*
X199066904Y-93752380D02*
X198590714Y-93752380D01*
X198543095Y-94228571D01*
X198590714Y-94180952D01*
X198685952Y-94133333D01*
X198924047Y-94133333D01*
X199019285Y-94180952D01*
X199066904Y-94228571D01*
X199114523Y-94323809D01*
X199114523Y-94561904D01*
X199066904Y-94657142D01*
X199019285Y-94704761D01*
X198924047Y-94752380D01*
X198685952Y-94752380D01*
X198590714Y-94704761D01*
X198543095Y-94657142D01*
X185314761Y-95707619D02*
X185219523Y-95660000D01*
X185124285Y-95564761D01*
X184981428Y-95421904D01*
X184886190Y-95374285D01*
X184790952Y-95374285D01*
X184838571Y-95612380D02*
X184743333Y-95564761D01*
X184648095Y-95469523D01*
X184600476Y-95279047D01*
X184600476Y-94945714D01*
X184648095Y-94755238D01*
X184743333Y-94660000D01*
X184838571Y-94612380D01*
X185029047Y-94612380D01*
X185124285Y-94660000D01*
X185219523Y-94755238D01*
X185267142Y-94945714D01*
X185267142Y-95279047D01*
X185219523Y-95469523D01*
X185124285Y-95564761D01*
X185029047Y-95612380D01*
X184838571Y-95612380D01*
X185600476Y-94612380D02*
X186219523Y-94612380D01*
X185886190Y-94993333D01*
X186029047Y-94993333D01*
X186124285Y-95040952D01*
X186171904Y-95088571D01*
X186219523Y-95183809D01*
X186219523Y-95421904D01*
X186171904Y-95517142D01*
X186124285Y-95564761D01*
X186029047Y-95612380D01*
X185743333Y-95612380D01*
X185648095Y-95564761D01*
X185600476Y-95517142D01*
X195636469Y-87627819D02*
X195541231Y-87580200D01*
X195445993Y-87484961D01*
X195303136Y-87342104D01*
X195207898Y-87294485D01*
X195112660Y-87294485D01*
X195160279Y-87532580D02*
X195065041Y-87484961D01*
X194969803Y-87389723D01*
X194922184Y-87199247D01*
X194922184Y-86865914D01*
X194969803Y-86675438D01*
X195065041Y-86580200D01*
X195160279Y-86532580D01*
X195350755Y-86532580D01*
X195445993Y-86580200D01*
X195541231Y-86675438D01*
X195588850Y-86865914D01*
X195588850Y-87199247D01*
X195541231Y-87389723D01*
X195445993Y-87484961D01*
X195350755Y-87532580D01*
X195160279Y-87532580D01*
X196541231Y-87532580D02*
X195969803Y-87532580D01*
X196255517Y-87532580D02*
X196255517Y-86532580D01*
X196160279Y-86675438D01*
X196065041Y-86770676D01*
X195969803Y-86818295D01*
X153511904Y-105642380D02*
X153511904Y-106451904D01*
X153559523Y-106547142D01*
X153607142Y-106594761D01*
X153702380Y-106642380D01*
X153892857Y-106642380D01*
X153988095Y-106594761D01*
X154035714Y-106547142D01*
X154083333Y-106451904D01*
X154083333Y-105642380D01*
X155083333Y-106642380D02*
X154511904Y-106642380D01*
X154797619Y-106642380D02*
X154797619Y-105642380D01*
X154702380Y-105785238D01*
X154607142Y-105880476D01*
X154511904Y-105928095D01*
X155702380Y-105642380D02*
X155797619Y-105642380D01*
X155892857Y-105690000D01*
X155940476Y-105737619D01*
X155988095Y-105832857D01*
X156035714Y-106023333D01*
X156035714Y-106261428D01*
X155988095Y-106451904D01*
X155940476Y-106547142D01*
X155892857Y-106594761D01*
X155797619Y-106642380D01*
X155702380Y-106642380D01*
X155607142Y-106594761D01*
X155559523Y-106547142D01*
X155511904Y-106451904D01*
X155464285Y-106261428D01*
X155464285Y-106023333D01*
X155511904Y-105832857D01*
X155559523Y-105737619D01*
X155607142Y-105690000D01*
X155702380Y-105642380D01*
X163407142Y-103752380D02*
X163073809Y-103276190D01*
X162835714Y-103752380D02*
X162835714Y-102752380D01*
X163216666Y-102752380D01*
X163311904Y-102800000D01*
X163359523Y-102847619D01*
X163407142Y-102942857D01*
X163407142Y-103085714D01*
X163359523Y-103180952D01*
X163311904Y-103228571D01*
X163216666Y-103276190D01*
X162835714Y-103276190D01*
X164359523Y-103752380D02*
X163788095Y-103752380D01*
X164073809Y-103752380D02*
X164073809Y-102752380D01*
X163978571Y-102895238D01*
X163883333Y-102990476D01*
X163788095Y-103038095D01*
X164835714Y-103752380D02*
X165026190Y-103752380D01*
X165121428Y-103704761D01*
X165169047Y-103657142D01*
X165264285Y-103514285D01*
X165311904Y-103323809D01*
X165311904Y-102942857D01*
X165264285Y-102847619D01*
X165216666Y-102800000D01*
X165121428Y-102752380D01*
X164930952Y-102752380D01*
X164835714Y-102800000D01*
X164788095Y-102847619D01*
X164740476Y-102942857D01*
X164740476Y-103180952D01*
X164788095Y-103276190D01*
X164835714Y-103323809D01*
X164930952Y-103371428D01*
X165121428Y-103371428D01*
X165216666Y-103323809D01*
X165264285Y-103276190D01*
X165311904Y-103180952D01*
X197933333Y-97367142D02*
X197885714Y-97414761D01*
X197742857Y-97462380D01*
X197647619Y-97462380D01*
X197504761Y-97414761D01*
X197409523Y-97319523D01*
X197361904Y-97224285D01*
X197314285Y-97033809D01*
X197314285Y-96890952D01*
X197361904Y-96700476D01*
X197409523Y-96605238D01*
X197504761Y-96510000D01*
X197647619Y-96462380D01*
X197742857Y-96462380D01*
X197885714Y-96510000D01*
X197933333Y-96557619D01*
X198409523Y-97462380D02*
X198600000Y-97462380D01*
X198695238Y-97414761D01*
X198742857Y-97367142D01*
X198838095Y-97224285D01*
X198885714Y-97033809D01*
X198885714Y-96652857D01*
X198838095Y-96557619D01*
X198790476Y-96510000D01*
X198695238Y-96462380D01*
X198504761Y-96462380D01*
X198409523Y-96510000D01*
X198361904Y-96557619D01*
X198314285Y-96652857D01*
X198314285Y-96890952D01*
X198361904Y-96986190D01*
X198409523Y-97033809D01*
X198504761Y-97081428D01*
X198695238Y-97081428D01*
X198790476Y-97033809D01*
X198838095Y-96986190D01*
X198885714Y-96890952D01*
X196143333Y-90652380D02*
X195810000Y-90176190D01*
X195571904Y-90652380D02*
X195571904Y-89652380D01*
X195952857Y-89652380D01*
X196048095Y-89700000D01*
X196095714Y-89747619D01*
X196143333Y-89842857D01*
X196143333Y-89985714D01*
X196095714Y-90080952D01*
X196048095Y-90128571D01*
X195952857Y-90176190D01*
X195571904Y-90176190D01*
X196619523Y-90652380D02*
X196810000Y-90652380D01*
X196905238Y-90604761D01*
X196952857Y-90557142D01*
X197048095Y-90414285D01*
X197095714Y-90223809D01*
X197095714Y-89842857D01*
X197048095Y-89747619D01*
X197000476Y-89700000D01*
X196905238Y-89652380D01*
X196714761Y-89652380D01*
X196619523Y-89700000D01*
X196571904Y-89747619D01*
X196524285Y-89842857D01*
X196524285Y-90080952D01*
X196571904Y-90176190D01*
X196619523Y-90223809D01*
X196714761Y-90271428D01*
X196905238Y-90271428D01*
X197000476Y-90223809D01*
X197048095Y-90176190D01*
X197095714Y-90080952D01*
X183123333Y-92272380D02*
X182790000Y-91796190D01*
X182551904Y-92272380D02*
X182551904Y-91272380D01*
X182932857Y-91272380D01*
X183028095Y-91320000D01*
X183075714Y-91367619D01*
X183123333Y-91462857D01*
X183123333Y-91605714D01*
X183075714Y-91700952D01*
X183028095Y-91748571D01*
X182932857Y-91796190D01*
X182551904Y-91796190D01*
X183694761Y-91700952D02*
X183599523Y-91653333D01*
X183551904Y-91605714D01*
X183504285Y-91510476D01*
X183504285Y-91462857D01*
X183551904Y-91367619D01*
X183599523Y-91320000D01*
X183694761Y-91272380D01*
X183885238Y-91272380D01*
X183980476Y-91320000D01*
X184028095Y-91367619D01*
X184075714Y-91462857D01*
X184075714Y-91510476D01*
X184028095Y-91605714D01*
X183980476Y-91653333D01*
X183885238Y-91700952D01*
X183694761Y-91700952D01*
X183599523Y-91748571D01*
X183551904Y-91796190D01*
X183504285Y-91891428D01*
X183504285Y-92081904D01*
X183551904Y-92177142D01*
X183599523Y-92224761D01*
X183694761Y-92272380D01*
X183885238Y-92272380D01*
X183980476Y-92224761D01*
X184028095Y-92177142D01*
X184075714Y-92081904D01*
X184075714Y-91891428D01*
X184028095Y-91796190D01*
X183980476Y-91748571D01*
X183885238Y-91700952D01*
X188163333Y-79312380D02*
X187830000Y-78836190D01*
X187591904Y-79312380D02*
X187591904Y-78312380D01*
X187972857Y-78312380D01*
X188068095Y-78360000D01*
X188115714Y-78407619D01*
X188163333Y-78502857D01*
X188163333Y-78645714D01*
X188115714Y-78740952D01*
X188068095Y-78788571D01*
X187972857Y-78836190D01*
X187591904Y-78836190D01*
X188496666Y-78312380D02*
X189115714Y-78312380D01*
X188782380Y-78693333D01*
X188925238Y-78693333D01*
X189020476Y-78740952D01*
X189068095Y-78788571D01*
X189115714Y-78883809D01*
X189115714Y-79121904D01*
X189068095Y-79217142D01*
X189020476Y-79264761D01*
X188925238Y-79312380D01*
X188639523Y-79312380D01*
X188544285Y-79264761D01*
X188496666Y-79217142D01*
X187132380Y-83336666D02*
X186656190Y-83670000D01*
X187132380Y-83908095D02*
X186132380Y-83908095D01*
X186132380Y-83527142D01*
X186180000Y-83431904D01*
X186227619Y-83384285D01*
X186322857Y-83336666D01*
X186465714Y-83336666D01*
X186560952Y-83384285D01*
X186608571Y-83431904D01*
X186656190Y-83527142D01*
X186656190Y-83908095D01*
X186465714Y-82479523D02*
X187132380Y-82479523D01*
X186084761Y-82717619D02*
X186799047Y-82955714D01*
X186799047Y-82336666D01*
X196073333Y-95952380D02*
X195740000Y-95476190D01*
X195501904Y-95952380D02*
X195501904Y-94952380D01*
X195882857Y-94952380D01*
X195978095Y-95000000D01*
X196025714Y-95047619D01*
X196073333Y-95142857D01*
X196073333Y-95285714D01*
X196025714Y-95380952D01*
X195978095Y-95428571D01*
X195882857Y-95476190D01*
X195501904Y-95476190D01*
X196406666Y-94952380D02*
X197073333Y-94952380D01*
X196644761Y-95952380D01*
X183513333Y-97902380D02*
X183180000Y-97426190D01*
X182941904Y-97902380D02*
X182941904Y-96902380D01*
X183322857Y-96902380D01*
X183418095Y-96950000D01*
X183465714Y-96997619D01*
X183513333Y-97092857D01*
X183513333Y-97235714D01*
X183465714Y-97330952D01*
X183418095Y-97378571D01*
X183322857Y-97426190D01*
X182941904Y-97426190D01*
X184370476Y-96902380D02*
X184180000Y-96902380D01*
X184084761Y-96950000D01*
X184037142Y-96997619D01*
X183941904Y-97140476D01*
X183894285Y-97330952D01*
X183894285Y-97711904D01*
X183941904Y-97807142D01*
X183989523Y-97854761D01*
X184084761Y-97902380D01*
X184275238Y-97902380D01*
X184370476Y-97854761D01*
X184418095Y-97807142D01*
X184465714Y-97711904D01*
X184465714Y-97473809D01*
X184418095Y-97378571D01*
X184370476Y-97330952D01*
X184275238Y-97283333D01*
X184084761Y-97283333D01*
X183989523Y-97330952D01*
X183941904Y-97378571D01*
X183894285Y-97473809D01*
X148663333Y-106532380D02*
X148330000Y-106056190D01*
X148091904Y-106532380D02*
X148091904Y-105532380D01*
X148472857Y-105532380D01*
X148568095Y-105580000D01*
X148615714Y-105627619D01*
X148663333Y-105722857D01*
X148663333Y-105865714D01*
X148615714Y-105960952D01*
X148568095Y-106008571D01*
X148472857Y-106056190D01*
X148091904Y-106056190D01*
X149044285Y-105627619D02*
X149091904Y-105580000D01*
X149187142Y-105532380D01*
X149425238Y-105532380D01*
X149520476Y-105580000D01*
X149568095Y-105627619D01*
X149615714Y-105722857D01*
X149615714Y-105818095D01*
X149568095Y-105960952D01*
X148996666Y-106532380D01*
X149615714Y-106532380D01*
X198323333Y-99342380D02*
X197990000Y-98866190D01*
X197751904Y-99342380D02*
X197751904Y-98342380D01*
X198132857Y-98342380D01*
X198228095Y-98390000D01*
X198275714Y-98437619D01*
X198323333Y-98532857D01*
X198323333Y-98675714D01*
X198275714Y-98770952D01*
X198228095Y-98818571D01*
X198132857Y-98866190D01*
X197751904Y-98866190D01*
X199275714Y-99342380D02*
X198704285Y-99342380D01*
X198990000Y-99342380D02*
X198990000Y-98342380D01*
X198894761Y-98485238D01*
X198799523Y-98580476D01*
X198704285Y-98628095D01*
X184897142Y-88282380D02*
X184563809Y-87806190D01*
X184325714Y-88282380D02*
X184325714Y-87282380D01*
X184706666Y-87282380D01*
X184801904Y-87330000D01*
X184849523Y-87377619D01*
X184897142Y-87472857D01*
X184897142Y-87615714D01*
X184849523Y-87710952D01*
X184801904Y-87758571D01*
X184706666Y-87806190D01*
X184325714Y-87806190D01*
X185849523Y-88282380D02*
X185278095Y-88282380D01*
X185563809Y-88282380D02*
X185563809Y-87282380D01*
X185468571Y-87425238D01*
X185373333Y-87520476D01*
X185278095Y-87568095D01*
X186706666Y-87282380D02*
X186516190Y-87282380D01*
X186420952Y-87330000D01*
X186373333Y-87377619D01*
X186278095Y-87520476D01*
X186230476Y-87710952D01*
X186230476Y-88091904D01*
X186278095Y-88187142D01*
X186325714Y-88234761D01*
X186420952Y-88282380D01*
X186611428Y-88282380D01*
X186706666Y-88234761D01*
X186754285Y-88187142D01*
X186801904Y-88091904D01*
X186801904Y-87853809D01*
X186754285Y-87758571D01*
X186706666Y-87710952D01*
X186611428Y-87663333D01*
X186420952Y-87663333D01*
X186325714Y-87710952D01*
X186278095Y-87758571D01*
X186230476Y-87853809D01*
X147577142Y-113597142D02*
X147529523Y-113644761D01*
X147386666Y-113692380D01*
X147291428Y-113692380D01*
X147148571Y-113644761D01*
X147053333Y-113549523D01*
X147005714Y-113454285D01*
X146958095Y-113263809D01*
X146958095Y-113120952D01*
X147005714Y-112930476D01*
X147053333Y-112835238D01*
X147148571Y-112740000D01*
X147291428Y-112692380D01*
X147386666Y-112692380D01*
X147529523Y-112740000D01*
X147577142Y-112787619D01*
X148529523Y-113692380D02*
X147958095Y-113692380D01*
X148243809Y-113692380D02*
X148243809Y-112692380D01*
X148148571Y-112835238D01*
X148053333Y-112930476D01*
X147958095Y-112978095D01*
X149148571Y-112692380D02*
X149243809Y-112692380D01*
X149339047Y-112740000D01*
X149386666Y-112787619D01*
X149434285Y-112882857D01*
X149481904Y-113073333D01*
X149481904Y-113311428D01*
X149434285Y-113501904D01*
X149386666Y-113597142D01*
X149339047Y-113644761D01*
X149243809Y-113692380D01*
X149148571Y-113692380D01*
X149053333Y-113644761D01*
X149005714Y-113597142D01*
X148958095Y-113501904D01*
X148910476Y-113311428D01*
X148910476Y-113073333D01*
X148958095Y-112882857D01*
X149005714Y-112787619D01*
X149053333Y-112740000D01*
X149148571Y-112692380D01*
X171707142Y-102452857D02*
X171754761Y-102500476D01*
X171802380Y-102643333D01*
X171802380Y-102738571D01*
X171754761Y-102881428D01*
X171659523Y-102976666D01*
X171564285Y-103024285D01*
X171373809Y-103071904D01*
X171230952Y-103071904D01*
X171040476Y-103024285D01*
X170945238Y-102976666D01*
X170850000Y-102881428D01*
X170802380Y-102738571D01*
X170802380Y-102643333D01*
X170850000Y-102500476D01*
X170897619Y-102452857D01*
X170897619Y-102071904D02*
X170850000Y-102024285D01*
X170802380Y-101929047D01*
X170802380Y-101690952D01*
X170850000Y-101595714D01*
X170897619Y-101548095D01*
X170992857Y-101500476D01*
X171088095Y-101500476D01*
X171230952Y-101548095D01*
X171802380Y-102119523D01*
X171802380Y-101500476D01*
X171230952Y-100929047D02*
X171183333Y-101024285D01*
X171135714Y-101071904D01*
X171040476Y-101119523D01*
X170992857Y-101119523D01*
X170897619Y-101071904D01*
X170850000Y-101024285D01*
X170802380Y-100929047D01*
X170802380Y-100738571D01*
X170850000Y-100643333D01*
X170897619Y-100595714D01*
X170992857Y-100548095D01*
X171040476Y-100548095D01*
X171135714Y-100595714D01*
X171183333Y-100643333D01*
X171230952Y-100738571D01*
X171230952Y-100929047D01*
X171278571Y-101024285D01*
X171326190Y-101071904D01*
X171421428Y-101119523D01*
X171611904Y-101119523D01*
X171707142Y-101071904D01*
X171754761Y-101024285D01*
X171802380Y-100929047D01*
X171802380Y-100738571D01*
X171754761Y-100643333D01*
X171707142Y-100595714D01*
X171611904Y-100548095D01*
X171421428Y-100548095D01*
X171326190Y-100595714D01*
X171278571Y-100643333D01*
X171230952Y-100738571D01*
X181627142Y-79877142D02*
X181579523Y-79924761D01*
X181436666Y-79972380D01*
X181341428Y-79972380D01*
X181198571Y-79924761D01*
X181103333Y-79829523D01*
X181055714Y-79734285D01*
X181008095Y-79543809D01*
X181008095Y-79400952D01*
X181055714Y-79210476D01*
X181103333Y-79115238D01*
X181198571Y-79020000D01*
X181341428Y-78972380D01*
X181436666Y-78972380D01*
X181579523Y-79020000D01*
X181627142Y-79067619D01*
X181960476Y-78972380D02*
X182579523Y-78972380D01*
X182246190Y-79353333D01*
X182389047Y-79353333D01*
X182484285Y-79400952D01*
X182531904Y-79448571D01*
X182579523Y-79543809D01*
X182579523Y-79781904D01*
X182531904Y-79877142D01*
X182484285Y-79924761D01*
X182389047Y-79972380D01*
X182103333Y-79972380D01*
X182008095Y-79924761D01*
X181960476Y-79877142D01*
X182960476Y-79067619D02*
X183008095Y-79020000D01*
X183103333Y-78972380D01*
X183341428Y-78972380D01*
X183436666Y-79020000D01*
X183484285Y-79067619D01*
X183531904Y-79162857D01*
X183531904Y-79258095D01*
X183484285Y-79400952D01*
X182912857Y-79972380D01*
X183531904Y-79972380D01*
X204006666Y-74882380D02*
X204006666Y-75596666D01*
X203959047Y-75739523D01*
X203863809Y-75834761D01*
X203720952Y-75882380D01*
X203625714Y-75882380D01*
X204435238Y-74977619D02*
X204482857Y-74930000D01*
X204578095Y-74882380D01*
X204816190Y-74882380D01*
X204911428Y-74930000D01*
X204959047Y-74977619D01*
X205006666Y-75072857D01*
X205006666Y-75168095D01*
X204959047Y-75310952D01*
X204387619Y-75882380D01*
X205006666Y-75882380D01*
X105678380Y-94194285D02*
X104678380Y-94194285D01*
X104678380Y-93956190D01*
X104726000Y-93813333D01*
X104821238Y-93718095D01*
X104916476Y-93670476D01*
X105106952Y-93622857D01*
X105249809Y-93622857D01*
X105440285Y-93670476D01*
X105535523Y-93718095D01*
X105630761Y-93813333D01*
X105678380Y-93956190D01*
X105678380Y-94194285D01*
X104678380Y-92718095D02*
X104678380Y-93194285D01*
X105154571Y-93241904D01*
X105106952Y-93194285D01*
X105059333Y-93099047D01*
X105059333Y-92860952D01*
X105106952Y-92765714D01*
X105154571Y-92718095D01*
X105249809Y-92670476D01*
X105487904Y-92670476D01*
X105583142Y-92718095D01*
X105630761Y-92765714D01*
X105678380Y-92860952D01*
X105678380Y-93099047D01*
X105630761Y-93194285D01*
X105583142Y-93241904D01*
X105154571Y-91908571D02*
X105202190Y-91765714D01*
X105249809Y-91718095D01*
X105345047Y-91670476D01*
X105487904Y-91670476D01*
X105583142Y-91718095D01*
X105630761Y-91765714D01*
X105678380Y-91860952D01*
X105678380Y-92241904D01*
X104678380Y-92241904D01*
X104678380Y-91908571D01*
X104726000Y-91813333D01*
X104773619Y-91765714D01*
X104868857Y-91718095D01*
X104964095Y-91718095D01*
X105059333Y-91765714D01*
X105106952Y-91813333D01*
X105154571Y-91908571D01*
X105154571Y-92241904D01*
X105678380Y-90718095D02*
X105678380Y-91289523D01*
X105678380Y-91003809D02*
X104678380Y-91003809D01*
X104821238Y-91099047D01*
X104916476Y-91194285D01*
X104964095Y-91289523D01*
X179827142Y-121262380D02*
X179493809Y-120786190D01*
X179255714Y-121262380D02*
X179255714Y-120262380D01*
X179636666Y-120262380D01*
X179731904Y-120310000D01*
X179779523Y-120357619D01*
X179827142Y-120452857D01*
X179827142Y-120595714D01*
X179779523Y-120690952D01*
X179731904Y-120738571D01*
X179636666Y-120786190D01*
X179255714Y-120786190D01*
X180208095Y-120357619D02*
X180255714Y-120310000D01*
X180350952Y-120262380D01*
X180589047Y-120262380D01*
X180684285Y-120310000D01*
X180731904Y-120357619D01*
X180779523Y-120452857D01*
X180779523Y-120548095D01*
X180731904Y-120690952D01*
X180160476Y-121262380D01*
X180779523Y-121262380D01*
X181112857Y-120262380D02*
X181731904Y-120262380D01*
X181398571Y-120643333D01*
X181541428Y-120643333D01*
X181636666Y-120690952D01*
X181684285Y-120738571D01*
X181731904Y-120833809D01*
X181731904Y-121071904D01*
X181684285Y-121167142D01*
X181636666Y-121214761D01*
X181541428Y-121262380D01*
X181255714Y-121262380D01*
X181160476Y-121214761D01*
X181112857Y-121167142D01*
X132688380Y-113770476D02*
X131688380Y-113770476D01*
X131688380Y-113532380D01*
X131736000Y-113389523D01*
X131831238Y-113294285D01*
X131926476Y-113246666D01*
X132116952Y-113199047D01*
X132259809Y-113199047D01*
X132450285Y-113246666D01*
X132545523Y-113294285D01*
X132640761Y-113389523D01*
X132688380Y-113532380D01*
X132688380Y-113770476D01*
X132688380Y-112246666D02*
X132688380Y-112818095D01*
X132688380Y-112532380D02*
X131688380Y-112532380D01*
X131831238Y-112627619D01*
X131926476Y-112722857D01*
X131974095Y-112818095D01*
X131688380Y-111627619D02*
X131688380Y-111532380D01*
X131736000Y-111437142D01*
X131783619Y-111389523D01*
X131878857Y-111341904D01*
X132069333Y-111294285D01*
X132307428Y-111294285D01*
X132497904Y-111341904D01*
X132593142Y-111389523D01*
X132640761Y-111437142D01*
X132688380Y-111532380D01*
X132688380Y-111627619D01*
X132640761Y-111722857D01*
X132593142Y-111770476D01*
X132497904Y-111818095D01*
X132307428Y-111865714D01*
X132069333Y-111865714D01*
X131878857Y-111818095D01*
X131783619Y-111770476D01*
X131736000Y-111722857D01*
X131688380Y-111627619D01*
X132164571Y-110532380D02*
X132212190Y-110389523D01*
X132259809Y-110341904D01*
X132355047Y-110294285D01*
X132497904Y-110294285D01*
X132593142Y-110341904D01*
X132640761Y-110389523D01*
X132688380Y-110484761D01*
X132688380Y-110865714D01*
X131688380Y-110865714D01*
X131688380Y-110532380D01*
X131736000Y-110437142D01*
X131783619Y-110389523D01*
X131878857Y-110341904D01*
X131974095Y-110341904D01*
X132069333Y-110389523D01*
X132116952Y-110437142D01*
X132164571Y-110532380D01*
X132164571Y-110865714D01*
X132688380Y-109341904D02*
X132688380Y-109913333D01*
X132688380Y-109627619D02*
X131688380Y-109627619D01*
X131831238Y-109722857D01*
X131926476Y-109818095D01*
X131974095Y-109913333D01*
X147062380Y-103162857D02*
X146586190Y-103496190D01*
X147062380Y-103734285D02*
X146062380Y-103734285D01*
X146062380Y-103353333D01*
X146110000Y-103258095D01*
X146157619Y-103210476D01*
X146252857Y-103162857D01*
X146395714Y-103162857D01*
X146490952Y-103210476D01*
X146538571Y-103258095D01*
X146586190Y-103353333D01*
X146586190Y-103734285D01*
X147062380Y-102210476D02*
X147062380Y-102781904D01*
X147062380Y-102496190D02*
X146062380Y-102496190D01*
X146205238Y-102591428D01*
X146300476Y-102686666D01*
X146348095Y-102781904D01*
X146062380Y-101305714D02*
X146062380Y-101781904D01*
X146538571Y-101829523D01*
X146490952Y-101781904D01*
X146443333Y-101686666D01*
X146443333Y-101448571D01*
X146490952Y-101353333D01*
X146538571Y-101305714D01*
X146633809Y-101258095D01*
X146871904Y-101258095D01*
X146967142Y-101305714D01*
X147014761Y-101353333D01*
X147062380Y-101448571D01*
X147062380Y-101686666D01*
X147014761Y-101781904D01*
X146967142Y-101829523D01*
X138681904Y-102722380D02*
X138681904Y-103531904D01*
X138729523Y-103627142D01*
X138777142Y-103674761D01*
X138872380Y-103722380D01*
X139062857Y-103722380D01*
X139158095Y-103674761D01*
X139205714Y-103627142D01*
X139253333Y-103531904D01*
X139253333Y-102722380D01*
X140253333Y-103722380D02*
X139681904Y-103722380D01*
X139967619Y-103722380D02*
X139967619Y-102722380D01*
X139872380Y-102865238D01*
X139777142Y-102960476D01*
X139681904Y-103008095D01*
X140634285Y-102817619D02*
X140681904Y-102770000D01*
X140777142Y-102722380D01*
X141015238Y-102722380D01*
X141110476Y-102770000D01*
X141158095Y-102817619D01*
X141205714Y-102912857D01*
X141205714Y-103008095D01*
X141158095Y-103150952D01*
X140586666Y-103722380D01*
X141205714Y-103722380D01*
X87628380Y-94054285D02*
X86628380Y-94054285D01*
X86628380Y-93816190D01*
X86676000Y-93673333D01*
X86771238Y-93578095D01*
X86866476Y-93530476D01*
X87056952Y-93482857D01*
X87199809Y-93482857D01*
X87390285Y-93530476D01*
X87485523Y-93578095D01*
X87580761Y-93673333D01*
X87628380Y-93816190D01*
X87628380Y-94054285D01*
X86628380Y-93149523D02*
X86628380Y-92482857D01*
X87628380Y-92911428D01*
X87104571Y-91768571D02*
X87152190Y-91625714D01*
X87199809Y-91578095D01*
X87295047Y-91530476D01*
X87437904Y-91530476D01*
X87533142Y-91578095D01*
X87580761Y-91625714D01*
X87628380Y-91720952D01*
X87628380Y-92101904D01*
X86628380Y-92101904D01*
X86628380Y-91768571D01*
X86676000Y-91673333D01*
X86723619Y-91625714D01*
X86818857Y-91578095D01*
X86914095Y-91578095D01*
X87009333Y-91625714D01*
X87056952Y-91673333D01*
X87104571Y-91768571D01*
X87104571Y-92101904D01*
X87628380Y-90578095D02*
X87628380Y-91149523D01*
X87628380Y-90863809D02*
X86628380Y-90863809D01*
X86771238Y-90959047D01*
X86866476Y-91054285D01*
X86914095Y-91149523D01*
X145517142Y-107872380D02*
X145183809Y-107396190D01*
X144945714Y-107872380D02*
X144945714Y-106872380D01*
X145326666Y-106872380D01*
X145421904Y-106920000D01*
X145469523Y-106967619D01*
X145517142Y-107062857D01*
X145517142Y-107205714D01*
X145469523Y-107300952D01*
X145421904Y-107348571D01*
X145326666Y-107396190D01*
X144945714Y-107396190D01*
X146469523Y-107872380D02*
X145898095Y-107872380D01*
X146183809Y-107872380D02*
X146183809Y-106872380D01*
X146088571Y-107015238D01*
X145993333Y-107110476D01*
X145898095Y-107158095D01*
X147326666Y-107205714D02*
X147326666Y-107872380D01*
X147088571Y-106824761D02*
X146850476Y-107539047D01*
X147469523Y-107539047D01*
X126987142Y-98397142D02*
X126939523Y-98444761D01*
X126796666Y-98492380D01*
X126701428Y-98492380D01*
X126558571Y-98444761D01*
X126463333Y-98349523D01*
X126415714Y-98254285D01*
X126368095Y-98063809D01*
X126368095Y-97920952D01*
X126415714Y-97730476D01*
X126463333Y-97635238D01*
X126558571Y-97540000D01*
X126701428Y-97492380D01*
X126796666Y-97492380D01*
X126939523Y-97540000D01*
X126987142Y-97587619D01*
X127368095Y-97587619D02*
X127415714Y-97540000D01*
X127510952Y-97492380D01*
X127749047Y-97492380D01*
X127844285Y-97540000D01*
X127891904Y-97587619D01*
X127939523Y-97682857D01*
X127939523Y-97778095D01*
X127891904Y-97920952D01*
X127320476Y-98492380D01*
X127939523Y-98492380D01*
X128891904Y-98492380D02*
X128320476Y-98492380D01*
X128606190Y-98492380D02*
X128606190Y-97492380D01*
X128510952Y-97635238D01*
X128415714Y-97730476D01*
X128320476Y-97778095D01*
X132608380Y-94154285D02*
X131608380Y-94154285D01*
X131608380Y-93916190D01*
X131656000Y-93773333D01*
X131751238Y-93678095D01*
X131846476Y-93630476D01*
X132036952Y-93582857D01*
X132179809Y-93582857D01*
X132370285Y-93630476D01*
X132465523Y-93678095D01*
X132560761Y-93773333D01*
X132608380Y-93916190D01*
X132608380Y-94154285D01*
X131703619Y-93201904D02*
X131656000Y-93154285D01*
X131608380Y-93059047D01*
X131608380Y-92820952D01*
X131656000Y-92725714D01*
X131703619Y-92678095D01*
X131798857Y-92630476D01*
X131894095Y-92630476D01*
X132036952Y-92678095D01*
X132608380Y-93249523D01*
X132608380Y-92630476D01*
X132084571Y-91868571D02*
X132132190Y-91725714D01*
X132179809Y-91678095D01*
X132275047Y-91630476D01*
X132417904Y-91630476D01*
X132513142Y-91678095D01*
X132560761Y-91725714D01*
X132608380Y-91820952D01*
X132608380Y-92201904D01*
X131608380Y-92201904D01*
X131608380Y-91868571D01*
X131656000Y-91773333D01*
X131703619Y-91725714D01*
X131798857Y-91678095D01*
X131894095Y-91678095D01*
X131989333Y-91725714D01*
X132036952Y-91773333D01*
X132084571Y-91868571D01*
X132084571Y-92201904D01*
X132608380Y-90678095D02*
X132608380Y-91249523D01*
X132608380Y-90963809D02*
X131608380Y-90963809D01*
X131751238Y-91059047D01*
X131846476Y-91154285D01*
X131894095Y-91249523D01*
X129267142Y-101032380D02*
X128933809Y-100556190D01*
X128695714Y-101032380D02*
X128695714Y-100032380D01*
X129076666Y-100032380D01*
X129171904Y-100080000D01*
X129219523Y-100127619D01*
X129267142Y-100222857D01*
X129267142Y-100365714D01*
X129219523Y-100460952D01*
X129171904Y-100508571D01*
X129076666Y-100556190D01*
X128695714Y-100556190D01*
X129648095Y-100127619D02*
X129695714Y-100080000D01*
X129790952Y-100032380D01*
X130029047Y-100032380D01*
X130124285Y-100080000D01*
X130171904Y-100127619D01*
X130219523Y-100222857D01*
X130219523Y-100318095D01*
X130171904Y-100460952D01*
X129600476Y-101032380D01*
X130219523Y-101032380D01*
X131124285Y-100032380D02*
X130648095Y-100032380D01*
X130600476Y-100508571D01*
X130648095Y-100460952D01*
X130743333Y-100413333D01*
X130981428Y-100413333D01*
X131076666Y-100460952D01*
X131124285Y-100508571D01*
X131171904Y-100603809D01*
X131171904Y-100841904D01*
X131124285Y-100937142D01*
X131076666Y-100984761D01*
X130981428Y-101032380D01*
X130743333Y-101032380D01*
X130648095Y-100984761D01*
X130600476Y-100937142D01*
X129608380Y-113699047D02*
X128608380Y-113699047D01*
X128608380Y-113460952D01*
X128656000Y-113318095D01*
X128751238Y-113222857D01*
X128846476Y-113175238D01*
X129036952Y-113127619D01*
X129179809Y-113127619D01*
X129370285Y-113175238D01*
X129465523Y-113222857D01*
X129560761Y-113318095D01*
X129608380Y-113460952D01*
X129608380Y-113699047D01*
X129608380Y-112175238D02*
X129608380Y-112746666D01*
X129608380Y-112460952D02*
X128608380Y-112460952D01*
X128751238Y-112556190D01*
X128846476Y-112651428D01*
X128894095Y-112746666D01*
X129608380Y-111222857D02*
X129608380Y-111794285D01*
X129608380Y-111508571D02*
X128608380Y-111508571D01*
X128751238Y-111603809D01*
X128846476Y-111699047D01*
X128894095Y-111794285D01*
X129322666Y-110841904D02*
X129322666Y-110365714D01*
X129608380Y-110937142D02*
X128608380Y-110603809D01*
X129608380Y-110270476D01*
X129608380Y-109413333D02*
X129608380Y-109984761D01*
X129608380Y-109699047D02*
X128608380Y-109699047D01*
X128751238Y-109794285D01*
X128846476Y-109889523D01*
X128894095Y-109984761D01*
X138528380Y-93962857D02*
X137528380Y-93962857D01*
X137528380Y-93724761D01*
X137576000Y-93581904D01*
X137671238Y-93486666D01*
X137766476Y-93439047D01*
X137956952Y-93391428D01*
X138099809Y-93391428D01*
X138290285Y-93439047D01*
X138385523Y-93486666D01*
X138480761Y-93581904D01*
X138528380Y-93724761D01*
X138528380Y-93962857D01*
X137623619Y-93010476D02*
X137576000Y-92962857D01*
X137528380Y-92867619D01*
X137528380Y-92629523D01*
X137576000Y-92534285D01*
X137623619Y-92486666D01*
X137718857Y-92439047D01*
X137814095Y-92439047D01*
X137956952Y-92486666D01*
X138528380Y-93058095D01*
X138528380Y-92439047D01*
X138242666Y-92058095D02*
X138242666Y-91581904D01*
X138528380Y-92153333D02*
X137528380Y-91820000D01*
X138528380Y-91486666D01*
X138528380Y-90629523D02*
X138528380Y-91200952D01*
X138528380Y-90915238D02*
X137528380Y-90915238D01*
X137671238Y-91010476D01*
X137766476Y-91105714D01*
X137814095Y-91200952D01*
X141638380Y-94064285D02*
X140638380Y-94064285D01*
X140638380Y-93826190D01*
X140686000Y-93683333D01*
X140781238Y-93588095D01*
X140876476Y-93540476D01*
X141066952Y-93492857D01*
X141209809Y-93492857D01*
X141400285Y-93540476D01*
X141495523Y-93588095D01*
X141590761Y-93683333D01*
X141638380Y-93826190D01*
X141638380Y-94064285D01*
X141638380Y-92540476D02*
X141638380Y-93111904D01*
X141638380Y-92826190D02*
X140638380Y-92826190D01*
X140781238Y-92921428D01*
X140876476Y-93016666D01*
X140924095Y-93111904D01*
X141114571Y-91778571D02*
X141162190Y-91635714D01*
X141209809Y-91588095D01*
X141305047Y-91540476D01*
X141447904Y-91540476D01*
X141543142Y-91588095D01*
X141590761Y-91635714D01*
X141638380Y-91730952D01*
X141638380Y-92111904D01*
X140638380Y-92111904D01*
X140638380Y-91778571D01*
X140686000Y-91683333D01*
X140733619Y-91635714D01*
X140828857Y-91588095D01*
X140924095Y-91588095D01*
X141019333Y-91635714D01*
X141066952Y-91683333D01*
X141114571Y-91778571D01*
X141114571Y-92111904D01*
X141638380Y-90588095D02*
X141638380Y-91159523D01*
X141638380Y-90873809D02*
X140638380Y-90873809D01*
X140781238Y-90969047D01*
X140876476Y-91064285D01*
X140924095Y-91159523D01*
X102608380Y-113639047D02*
X101608380Y-113639047D01*
X101608380Y-113400952D01*
X101656000Y-113258095D01*
X101751238Y-113162857D01*
X101846476Y-113115238D01*
X102036952Y-113067619D01*
X102179809Y-113067619D01*
X102370285Y-113115238D01*
X102465523Y-113162857D01*
X102560761Y-113258095D01*
X102608380Y-113400952D01*
X102608380Y-113639047D01*
X102608380Y-112115238D02*
X102608380Y-112686666D01*
X102608380Y-112400952D02*
X101608380Y-112400952D01*
X101751238Y-112496190D01*
X101846476Y-112591428D01*
X101894095Y-112686666D01*
X101941714Y-111258095D02*
X102608380Y-111258095D01*
X101560761Y-111496190D02*
X102275047Y-111734285D01*
X102275047Y-111115238D01*
X102322666Y-110781904D02*
X102322666Y-110305714D01*
X102608380Y-110877142D02*
X101608380Y-110543809D01*
X102608380Y-110210476D01*
X102608380Y-109353333D02*
X102608380Y-109924761D01*
X102608380Y-109639047D02*
X101608380Y-109639047D01*
X101751238Y-109734285D01*
X101846476Y-109829523D01*
X101894095Y-109924761D01*
X133431904Y-97132380D02*
X133431904Y-96132380D01*
X133670000Y-96132380D01*
X133812857Y-96180000D01*
X133908095Y-96275238D01*
X133955714Y-96370476D01*
X134003333Y-96560952D01*
X134003333Y-96703809D01*
X133955714Y-96894285D01*
X133908095Y-96989523D01*
X133812857Y-97084761D01*
X133670000Y-97132380D01*
X133431904Y-97132380D01*
X134336666Y-96132380D02*
X134955714Y-96132380D01*
X134622380Y-96513333D01*
X134765238Y-96513333D01*
X134860476Y-96560952D01*
X134908095Y-96608571D01*
X134955714Y-96703809D01*
X134955714Y-96941904D01*
X134908095Y-97037142D01*
X134860476Y-97084761D01*
X134765238Y-97132380D01*
X134479523Y-97132380D01*
X134384285Y-97084761D01*
X134336666Y-97037142D01*
X102608380Y-94102857D02*
X101608380Y-94102857D01*
X101608380Y-93864761D01*
X101656000Y-93721904D01*
X101751238Y-93626666D01*
X101846476Y-93579047D01*
X102036952Y-93531428D01*
X102179809Y-93531428D01*
X102370285Y-93579047D01*
X102465523Y-93626666D01*
X102560761Y-93721904D01*
X102608380Y-93864761D01*
X102608380Y-94102857D01*
X101608380Y-92674285D02*
X101608380Y-92864761D01*
X101656000Y-92960000D01*
X101703619Y-93007619D01*
X101846476Y-93102857D01*
X102036952Y-93150476D01*
X102417904Y-93150476D01*
X102513142Y-93102857D01*
X102560761Y-93055238D01*
X102608380Y-92960000D01*
X102608380Y-92769523D01*
X102560761Y-92674285D01*
X102513142Y-92626666D01*
X102417904Y-92579047D01*
X102179809Y-92579047D01*
X102084571Y-92626666D01*
X102036952Y-92674285D01*
X101989333Y-92769523D01*
X101989333Y-92960000D01*
X102036952Y-93055238D01*
X102084571Y-93102857D01*
X102179809Y-93150476D01*
X102322666Y-92198095D02*
X102322666Y-91721904D01*
X102608380Y-92293333D02*
X101608380Y-91960000D01*
X102608380Y-91626666D01*
X102608380Y-90769523D02*
X102608380Y-91340952D01*
X102608380Y-91055238D02*
X101608380Y-91055238D01*
X101751238Y-91150476D01*
X101846476Y-91245714D01*
X101894095Y-91340952D01*
X185397142Y-121302380D02*
X185063809Y-120826190D01*
X184825714Y-121302380D02*
X184825714Y-120302380D01*
X185206666Y-120302380D01*
X185301904Y-120350000D01*
X185349523Y-120397619D01*
X185397142Y-120492857D01*
X185397142Y-120635714D01*
X185349523Y-120730952D01*
X185301904Y-120778571D01*
X185206666Y-120826190D01*
X184825714Y-120826190D01*
X185778095Y-120397619D02*
X185825714Y-120350000D01*
X185920952Y-120302380D01*
X186159047Y-120302380D01*
X186254285Y-120350000D01*
X186301904Y-120397619D01*
X186349523Y-120492857D01*
X186349523Y-120588095D01*
X186301904Y-120730952D01*
X185730476Y-121302380D01*
X186349523Y-121302380D01*
X186730476Y-120397619D02*
X186778095Y-120350000D01*
X186873333Y-120302380D01*
X187111428Y-120302380D01*
X187206666Y-120350000D01*
X187254285Y-120397619D01*
X187301904Y-120492857D01*
X187301904Y-120588095D01*
X187254285Y-120730952D01*
X186682857Y-121302380D01*
X187301904Y-121302380D01*
X136961904Y-97072380D02*
X136961904Y-96072380D01*
X137200000Y-96072380D01*
X137342857Y-96120000D01*
X137438095Y-96215238D01*
X137485714Y-96310476D01*
X137533333Y-96500952D01*
X137533333Y-96643809D01*
X137485714Y-96834285D01*
X137438095Y-96929523D01*
X137342857Y-97024761D01*
X137200000Y-97072380D01*
X136961904Y-97072380D01*
X137914285Y-96167619D02*
X137961904Y-96120000D01*
X138057142Y-96072380D01*
X138295238Y-96072380D01*
X138390476Y-96120000D01*
X138438095Y-96167619D01*
X138485714Y-96262857D01*
X138485714Y-96358095D01*
X138438095Y-96500952D01*
X137866666Y-97072380D01*
X138485714Y-97072380D01*
X129347142Y-107892380D02*
X129013809Y-107416190D01*
X128775714Y-107892380D02*
X128775714Y-106892380D01*
X129156666Y-106892380D01*
X129251904Y-106940000D01*
X129299523Y-106987619D01*
X129347142Y-107082857D01*
X129347142Y-107225714D01*
X129299523Y-107320952D01*
X129251904Y-107368571D01*
X129156666Y-107416190D01*
X128775714Y-107416190D01*
X129728095Y-106987619D02*
X129775714Y-106940000D01*
X129870952Y-106892380D01*
X130109047Y-106892380D01*
X130204285Y-106940000D01*
X130251904Y-106987619D01*
X130299523Y-107082857D01*
X130299523Y-107178095D01*
X130251904Y-107320952D01*
X129680476Y-107892380D01*
X130299523Y-107892380D01*
X131156666Y-107225714D02*
X131156666Y-107892380D01*
X130918571Y-106844761D02*
X130680476Y-107559047D01*
X131299523Y-107559047D01*
X132411904Y-102772380D02*
X132411904Y-103581904D01*
X132459523Y-103677142D01*
X132507142Y-103724761D01*
X132602380Y-103772380D01*
X132792857Y-103772380D01*
X132888095Y-103724761D01*
X132935714Y-103677142D01*
X132983333Y-103581904D01*
X132983333Y-102772380D01*
X133983333Y-103772380D02*
X133411904Y-103772380D01*
X133697619Y-103772380D02*
X133697619Y-102772380D01*
X133602380Y-102915238D01*
X133507142Y-103010476D01*
X133411904Y-103058095D01*
X134316666Y-102772380D02*
X134935714Y-102772380D01*
X134602380Y-103153333D01*
X134745238Y-103153333D01*
X134840476Y-103200952D01*
X134888095Y-103248571D01*
X134935714Y-103343809D01*
X134935714Y-103581904D01*
X134888095Y-103677142D01*
X134840476Y-103724761D01*
X134745238Y-103772380D01*
X134459523Y-103772380D01*
X134364285Y-103724761D01*
X134316666Y-103677142D01*
X123748380Y-113730476D02*
X122748380Y-113730476D01*
X122748380Y-113492380D01*
X122796000Y-113349523D01*
X122891238Y-113254285D01*
X122986476Y-113206666D01*
X123176952Y-113159047D01*
X123319809Y-113159047D01*
X123510285Y-113206666D01*
X123605523Y-113254285D01*
X123700761Y-113349523D01*
X123748380Y-113492380D01*
X123748380Y-113730476D01*
X123748380Y-112206666D02*
X123748380Y-112778095D01*
X123748380Y-112492380D02*
X122748380Y-112492380D01*
X122891238Y-112587619D01*
X122986476Y-112682857D01*
X123034095Y-112778095D01*
X123748380Y-111254285D02*
X123748380Y-111825714D01*
X123748380Y-111540000D02*
X122748380Y-111540000D01*
X122891238Y-111635238D01*
X122986476Y-111730476D01*
X123034095Y-111825714D01*
X123224571Y-110492380D02*
X123272190Y-110349523D01*
X123319809Y-110301904D01*
X123415047Y-110254285D01*
X123557904Y-110254285D01*
X123653142Y-110301904D01*
X123700761Y-110349523D01*
X123748380Y-110444761D01*
X123748380Y-110825714D01*
X122748380Y-110825714D01*
X122748380Y-110492380D01*
X122796000Y-110397142D01*
X122843619Y-110349523D01*
X122938857Y-110301904D01*
X123034095Y-110301904D01*
X123129333Y-110349523D01*
X123176952Y-110397142D01*
X123224571Y-110492380D01*
X123224571Y-110825714D01*
X123748380Y-109301904D02*
X123748380Y-109873333D01*
X123748380Y-109587619D02*
X122748380Y-109587619D01*
X122891238Y-109682857D01*
X122986476Y-109778095D01*
X123034095Y-109873333D01*
X114708380Y-113730476D02*
X113708380Y-113730476D01*
X113708380Y-113492380D01*
X113756000Y-113349523D01*
X113851238Y-113254285D01*
X113946476Y-113206666D01*
X114136952Y-113159047D01*
X114279809Y-113159047D01*
X114470285Y-113206666D01*
X114565523Y-113254285D01*
X114660761Y-113349523D01*
X114708380Y-113492380D01*
X114708380Y-113730476D01*
X114708380Y-112206666D02*
X114708380Y-112778095D01*
X114708380Y-112492380D02*
X113708380Y-112492380D01*
X113851238Y-112587619D01*
X113946476Y-112682857D01*
X113994095Y-112778095D01*
X113803619Y-111825714D02*
X113756000Y-111778095D01*
X113708380Y-111682857D01*
X113708380Y-111444761D01*
X113756000Y-111349523D01*
X113803619Y-111301904D01*
X113898857Y-111254285D01*
X113994095Y-111254285D01*
X114136952Y-111301904D01*
X114708380Y-111873333D01*
X114708380Y-111254285D01*
X114184571Y-110492380D02*
X114232190Y-110349523D01*
X114279809Y-110301904D01*
X114375047Y-110254285D01*
X114517904Y-110254285D01*
X114613142Y-110301904D01*
X114660761Y-110349523D01*
X114708380Y-110444761D01*
X114708380Y-110825714D01*
X113708380Y-110825714D01*
X113708380Y-110492380D01*
X113756000Y-110397142D01*
X113803619Y-110349523D01*
X113898857Y-110301904D01*
X113994095Y-110301904D01*
X114089333Y-110349523D01*
X114136952Y-110397142D01*
X114184571Y-110492380D01*
X114184571Y-110825714D01*
X114708380Y-109301904D02*
X114708380Y-109873333D01*
X114708380Y-109587619D02*
X113708380Y-109587619D01*
X113851238Y-109682857D01*
X113946476Y-109778095D01*
X113994095Y-109873333D01*
X193774948Y-74872172D02*
X193774948Y-75586458D01*
X193727329Y-75729315D01*
X193632091Y-75824553D01*
X193489234Y-75872172D01*
X193393996Y-75872172D01*
X194774948Y-75872172D02*
X194203520Y-75872172D01*
X194489234Y-75872172D02*
X194489234Y-74872172D01*
X194393996Y-75015030D01*
X194298758Y-75110268D01*
X194203520Y-75157887D01*
X101848095Y-101992380D02*
X101848095Y-102801904D01*
X101895714Y-102897142D01*
X101943333Y-102944761D01*
X102038571Y-102992380D01*
X102229047Y-102992380D01*
X102324285Y-102944761D01*
X102371904Y-102897142D01*
X102419523Y-102801904D01*
X102419523Y-101992380D01*
X103419523Y-102992380D02*
X102848095Y-102992380D01*
X103133809Y-102992380D02*
X103133809Y-101992380D01*
X103038571Y-102135238D01*
X102943333Y-102230476D01*
X102848095Y-102278095D01*
X162205714Y-128262380D02*
X162205714Y-128976666D01*
X162158095Y-129119523D01*
X162062857Y-129214761D01*
X161920000Y-129262380D01*
X161824761Y-129262380D01*
X163158095Y-129262380D02*
X162681904Y-129262380D01*
X162681904Y-128262380D01*
X163443809Y-129214761D02*
X163586666Y-129262380D01*
X163824761Y-129262380D01*
X163920000Y-129214761D01*
X163967619Y-129167142D01*
X164015238Y-129071904D01*
X164015238Y-128976666D01*
X163967619Y-128881428D01*
X163920000Y-128833809D01*
X163824761Y-128786190D01*
X163634285Y-128738571D01*
X163539047Y-128690952D01*
X163491428Y-128643333D01*
X163443809Y-128548095D01*
X163443809Y-128452857D01*
X163491428Y-128357619D01*
X163539047Y-128310000D01*
X163634285Y-128262380D01*
X163872380Y-128262380D01*
X164015238Y-128310000D01*
X164967619Y-129262380D02*
X164396190Y-129262380D01*
X164681904Y-129262380D02*
X164681904Y-128262380D01*
X164586666Y-128405238D01*
X164491428Y-128500476D01*
X164396190Y-128548095D01*
X84748380Y-113629047D02*
X83748380Y-113629047D01*
X83748380Y-113390952D01*
X83796000Y-113248095D01*
X83891238Y-113152857D01*
X83986476Y-113105238D01*
X84176952Y-113057619D01*
X84319809Y-113057619D01*
X84510285Y-113105238D01*
X84605523Y-113152857D01*
X84700761Y-113248095D01*
X84748380Y-113390952D01*
X84748380Y-113629047D01*
X84748380Y-112105238D02*
X84748380Y-112676666D01*
X84748380Y-112390952D02*
X83748380Y-112390952D01*
X83891238Y-112486190D01*
X83986476Y-112581428D01*
X84034095Y-112676666D01*
X83748380Y-111248095D02*
X83748380Y-111438571D01*
X83796000Y-111533809D01*
X83843619Y-111581428D01*
X83986476Y-111676666D01*
X84176952Y-111724285D01*
X84557904Y-111724285D01*
X84653142Y-111676666D01*
X84700761Y-111629047D01*
X84748380Y-111533809D01*
X84748380Y-111343333D01*
X84700761Y-111248095D01*
X84653142Y-111200476D01*
X84557904Y-111152857D01*
X84319809Y-111152857D01*
X84224571Y-111200476D01*
X84176952Y-111248095D01*
X84129333Y-111343333D01*
X84129333Y-111533809D01*
X84176952Y-111629047D01*
X84224571Y-111676666D01*
X84319809Y-111724285D01*
X84462666Y-110771904D02*
X84462666Y-110295714D01*
X84748380Y-110867142D02*
X83748380Y-110533809D01*
X84748380Y-110200476D01*
X84748380Y-109343333D02*
X84748380Y-109914761D01*
X84748380Y-109629047D02*
X83748380Y-109629047D01*
X83891238Y-109724285D01*
X83986476Y-109819523D01*
X84034095Y-109914761D01*
X120618380Y-113629047D02*
X119618380Y-113629047D01*
X119618380Y-113390952D01*
X119666000Y-113248095D01*
X119761238Y-113152857D01*
X119856476Y-113105238D01*
X120046952Y-113057619D01*
X120189809Y-113057619D01*
X120380285Y-113105238D01*
X120475523Y-113152857D01*
X120570761Y-113248095D01*
X120618380Y-113390952D01*
X120618380Y-113629047D01*
X120618380Y-112105238D02*
X120618380Y-112676666D01*
X120618380Y-112390952D02*
X119618380Y-112390952D01*
X119761238Y-112486190D01*
X119856476Y-112581428D01*
X119904095Y-112676666D01*
X119713619Y-111724285D02*
X119666000Y-111676666D01*
X119618380Y-111581428D01*
X119618380Y-111343333D01*
X119666000Y-111248095D01*
X119713619Y-111200476D01*
X119808857Y-111152857D01*
X119904095Y-111152857D01*
X120046952Y-111200476D01*
X120618380Y-111771904D01*
X120618380Y-111152857D01*
X120332666Y-110771904D02*
X120332666Y-110295714D01*
X120618380Y-110867142D02*
X119618380Y-110533809D01*
X120618380Y-110200476D01*
X120618380Y-109343333D02*
X120618380Y-109914761D01*
X120618380Y-109629047D02*
X119618380Y-109629047D01*
X119761238Y-109724285D01*
X119856476Y-109819523D01*
X119904095Y-109914761D01*
X111618380Y-113569047D02*
X110618380Y-113569047D01*
X110618380Y-113330952D01*
X110666000Y-113188095D01*
X110761238Y-113092857D01*
X110856476Y-113045238D01*
X111046952Y-112997619D01*
X111189809Y-112997619D01*
X111380285Y-113045238D01*
X111475523Y-113092857D01*
X111570761Y-113188095D01*
X111618380Y-113330952D01*
X111618380Y-113569047D01*
X111618380Y-112045238D02*
X111618380Y-112616666D01*
X111618380Y-112330952D02*
X110618380Y-112330952D01*
X110761238Y-112426190D01*
X110856476Y-112521428D01*
X110904095Y-112616666D01*
X110618380Y-111711904D02*
X110618380Y-111092857D01*
X110999333Y-111426190D01*
X110999333Y-111283333D01*
X111046952Y-111188095D01*
X111094571Y-111140476D01*
X111189809Y-111092857D01*
X111427904Y-111092857D01*
X111523142Y-111140476D01*
X111570761Y-111188095D01*
X111618380Y-111283333D01*
X111618380Y-111569047D01*
X111570761Y-111664285D01*
X111523142Y-111711904D01*
X111332666Y-110711904D02*
X111332666Y-110235714D01*
X111618380Y-110807142D02*
X110618380Y-110473809D01*
X111618380Y-110140476D01*
X111618380Y-109283333D02*
X111618380Y-109854761D01*
X111618380Y-109569047D02*
X110618380Y-109569047D01*
X110761238Y-109664285D01*
X110856476Y-109759523D01*
X110904095Y-109854761D01*
X102517142Y-97272380D02*
X102183809Y-96796190D01*
X101945714Y-97272380D02*
X101945714Y-96272380D01*
X102326666Y-96272380D01*
X102421904Y-96320000D01*
X102469523Y-96367619D01*
X102517142Y-96462857D01*
X102517142Y-96605714D01*
X102469523Y-96700952D01*
X102421904Y-96748571D01*
X102326666Y-96796190D01*
X101945714Y-96796190D01*
X103469523Y-97272380D02*
X102898095Y-97272380D01*
X103183809Y-97272380D02*
X103183809Y-96272380D01*
X103088571Y-96415238D01*
X102993333Y-96510476D01*
X102898095Y-96558095D01*
X104421904Y-97272380D02*
X103850476Y-97272380D01*
X104136190Y-97272380D02*
X104136190Y-96272380D01*
X104040952Y-96415238D01*
X103945714Y-96510476D01*
X103850476Y-96558095D01*
X120578380Y-94282857D02*
X119578380Y-94282857D01*
X119578380Y-94044761D01*
X119626000Y-93901904D01*
X119721238Y-93806666D01*
X119816476Y-93759047D01*
X120006952Y-93711428D01*
X120149809Y-93711428D01*
X120340285Y-93759047D01*
X120435523Y-93806666D01*
X120530761Y-93901904D01*
X120578380Y-94044761D01*
X120578380Y-94282857D01*
X119911714Y-92854285D02*
X120578380Y-92854285D01*
X119530761Y-93092380D02*
X120245047Y-93330476D01*
X120245047Y-92711428D01*
X120292666Y-92378095D02*
X120292666Y-91901904D01*
X120578380Y-92473333D02*
X119578380Y-92140000D01*
X120578380Y-91806666D01*
X120578380Y-90949523D02*
X120578380Y-91520952D01*
X120578380Y-91235238D02*
X119578380Y-91235238D01*
X119721238Y-91330476D01*
X119816476Y-91425714D01*
X119864095Y-91520952D01*
X111618380Y-94082857D02*
X110618380Y-94082857D01*
X110618380Y-93844761D01*
X110666000Y-93701904D01*
X110761238Y-93606666D01*
X110856476Y-93559047D01*
X111046952Y-93511428D01*
X111189809Y-93511428D01*
X111380285Y-93559047D01*
X111475523Y-93606666D01*
X111570761Y-93701904D01*
X111618380Y-93844761D01*
X111618380Y-94082857D01*
X110618380Y-92606666D02*
X110618380Y-93082857D01*
X111094571Y-93130476D01*
X111046952Y-93082857D01*
X110999333Y-92987619D01*
X110999333Y-92749523D01*
X111046952Y-92654285D01*
X111094571Y-92606666D01*
X111189809Y-92559047D01*
X111427904Y-92559047D01*
X111523142Y-92606666D01*
X111570761Y-92654285D01*
X111618380Y-92749523D01*
X111618380Y-92987619D01*
X111570761Y-93082857D01*
X111523142Y-93130476D01*
X111332666Y-92178095D02*
X111332666Y-91701904D01*
X111618380Y-92273333D02*
X110618380Y-91940000D01*
X111618380Y-91606666D01*
X111618380Y-90749523D02*
X111618380Y-91320952D01*
X111618380Y-91035238D02*
X110618380Y-91035238D01*
X110761238Y-91130476D01*
X110856476Y-91225714D01*
X110904095Y-91320952D01*
X80658380Y-89754285D02*
X79658380Y-89754285D01*
X79658380Y-89516190D01*
X79706000Y-89373333D01*
X79801238Y-89278095D01*
X79896476Y-89230476D01*
X80086952Y-89182857D01*
X80229809Y-89182857D01*
X80420285Y-89230476D01*
X80515523Y-89278095D01*
X80610761Y-89373333D01*
X80658380Y-89516190D01*
X80658380Y-89754285D01*
X80086952Y-88611428D02*
X80039333Y-88706666D01*
X79991714Y-88754285D01*
X79896476Y-88801904D01*
X79848857Y-88801904D01*
X79753619Y-88754285D01*
X79706000Y-88706666D01*
X79658380Y-88611428D01*
X79658380Y-88420952D01*
X79706000Y-88325714D01*
X79753619Y-88278095D01*
X79848857Y-88230476D01*
X79896476Y-88230476D01*
X79991714Y-88278095D01*
X80039333Y-88325714D01*
X80086952Y-88420952D01*
X80086952Y-88611428D01*
X80134571Y-88706666D01*
X80182190Y-88754285D01*
X80277428Y-88801904D01*
X80467904Y-88801904D01*
X80563142Y-88754285D01*
X80610761Y-88706666D01*
X80658380Y-88611428D01*
X80658380Y-88420952D01*
X80610761Y-88325714D01*
X80563142Y-88278095D01*
X80467904Y-88230476D01*
X80277428Y-88230476D01*
X80182190Y-88278095D01*
X80134571Y-88325714D01*
X80086952Y-88420952D01*
X80134571Y-87468571D02*
X80182190Y-87325714D01*
X80229809Y-87278095D01*
X80325047Y-87230476D01*
X80467904Y-87230476D01*
X80563142Y-87278095D01*
X80610761Y-87325714D01*
X80658380Y-87420952D01*
X80658380Y-87801904D01*
X79658380Y-87801904D01*
X79658380Y-87468571D01*
X79706000Y-87373333D01*
X79753619Y-87325714D01*
X79848857Y-87278095D01*
X79944095Y-87278095D01*
X80039333Y-87325714D01*
X80086952Y-87373333D01*
X80134571Y-87468571D01*
X80134571Y-87801904D01*
X80658380Y-86278095D02*
X80658380Y-86849523D01*
X80658380Y-86563809D02*
X79658380Y-86563809D01*
X79801238Y-86659047D01*
X79896476Y-86754285D01*
X79944095Y-86849523D01*
X96708380Y-113740476D02*
X95708380Y-113740476D01*
X95708380Y-113502380D01*
X95756000Y-113359523D01*
X95851238Y-113264285D01*
X95946476Y-113216666D01*
X96136952Y-113169047D01*
X96279809Y-113169047D01*
X96470285Y-113216666D01*
X96565523Y-113264285D01*
X96660761Y-113359523D01*
X96708380Y-113502380D01*
X96708380Y-113740476D01*
X96708380Y-112216666D02*
X96708380Y-112788095D01*
X96708380Y-112502380D02*
X95708380Y-112502380D01*
X95851238Y-112597619D01*
X95946476Y-112692857D01*
X95994095Y-112788095D01*
X96041714Y-111359523D02*
X96708380Y-111359523D01*
X95660761Y-111597619D02*
X96375047Y-111835714D01*
X96375047Y-111216666D01*
X96184571Y-110502380D02*
X96232190Y-110359523D01*
X96279809Y-110311904D01*
X96375047Y-110264285D01*
X96517904Y-110264285D01*
X96613142Y-110311904D01*
X96660761Y-110359523D01*
X96708380Y-110454761D01*
X96708380Y-110835714D01*
X95708380Y-110835714D01*
X95708380Y-110502380D01*
X95756000Y-110407142D01*
X95803619Y-110359523D01*
X95898857Y-110311904D01*
X95994095Y-110311904D01*
X96089333Y-110359523D01*
X96136952Y-110407142D01*
X96184571Y-110502380D01*
X96184571Y-110835714D01*
X96708380Y-109311904D02*
X96708380Y-109883333D01*
X96708380Y-109597619D02*
X95708380Y-109597619D01*
X95851238Y-109692857D01*
X95946476Y-109788095D01*
X95994095Y-109883333D01*
X195187142Y-87267142D02*
X195139523Y-87314761D01*
X194996666Y-87362380D01*
X194901428Y-87362380D01*
X194758571Y-87314761D01*
X194663333Y-87219523D01*
X194615714Y-87124285D01*
X194568095Y-86933809D01*
X194568095Y-86790952D01*
X194615714Y-86600476D01*
X194663333Y-86505238D01*
X194758571Y-86410000D01*
X194901428Y-86362380D01*
X194996666Y-86362380D01*
X195139523Y-86410000D01*
X195187142Y-86457619D01*
X196139523Y-87362380D02*
X195568095Y-87362380D01*
X195853809Y-87362380D02*
X195853809Y-86362380D01*
X195758571Y-86505238D01*
X195663333Y-86600476D01*
X195568095Y-86648095D01*
X196472857Y-86362380D02*
X197139523Y-86362380D01*
X196710952Y-87362380D01*
X187778095Y-108462380D02*
X187778095Y-109271904D01*
X187825714Y-109367142D01*
X187873333Y-109414761D01*
X187968571Y-109462380D01*
X188159047Y-109462380D01*
X188254285Y-109414761D01*
X188301904Y-109367142D01*
X188349523Y-109271904D01*
X188349523Y-108462380D01*
X189301904Y-108462380D02*
X188825714Y-108462380D01*
X188778095Y-108938571D01*
X188825714Y-108890952D01*
X188920952Y-108843333D01*
X189159047Y-108843333D01*
X189254285Y-108890952D01*
X189301904Y-108938571D01*
X189349523Y-109033809D01*
X189349523Y-109271904D01*
X189301904Y-109367142D01*
X189254285Y-109414761D01*
X189159047Y-109462380D01*
X188920952Y-109462380D01*
X188825714Y-109414761D01*
X188778095Y-109367142D01*
X80578380Y-118510476D02*
X79578380Y-118510476D01*
X79578380Y-118272380D01*
X79626000Y-118129523D01*
X79721238Y-118034285D01*
X79816476Y-117986666D01*
X80006952Y-117939047D01*
X80149809Y-117939047D01*
X80340285Y-117986666D01*
X80435523Y-118034285D01*
X80530761Y-118129523D01*
X80578380Y-118272380D01*
X80578380Y-118510476D01*
X80578380Y-116986666D02*
X80578380Y-117558095D01*
X80578380Y-117272380D02*
X79578380Y-117272380D01*
X79721238Y-117367619D01*
X79816476Y-117462857D01*
X79864095Y-117558095D01*
X79578380Y-116129523D02*
X79578380Y-116320000D01*
X79626000Y-116415238D01*
X79673619Y-116462857D01*
X79816476Y-116558095D01*
X80006952Y-116605714D01*
X80387904Y-116605714D01*
X80483142Y-116558095D01*
X80530761Y-116510476D01*
X80578380Y-116415238D01*
X80578380Y-116224761D01*
X80530761Y-116129523D01*
X80483142Y-116081904D01*
X80387904Y-116034285D01*
X80149809Y-116034285D01*
X80054571Y-116081904D01*
X80006952Y-116129523D01*
X79959333Y-116224761D01*
X79959333Y-116415238D01*
X80006952Y-116510476D01*
X80054571Y-116558095D01*
X80149809Y-116605714D01*
X80054571Y-115272380D02*
X80102190Y-115129523D01*
X80149809Y-115081904D01*
X80245047Y-115034285D01*
X80387904Y-115034285D01*
X80483142Y-115081904D01*
X80530761Y-115129523D01*
X80578380Y-115224761D01*
X80578380Y-115605714D01*
X79578380Y-115605714D01*
X79578380Y-115272380D01*
X79626000Y-115177142D01*
X79673619Y-115129523D01*
X79768857Y-115081904D01*
X79864095Y-115081904D01*
X79959333Y-115129523D01*
X80006952Y-115177142D01*
X80054571Y-115272380D01*
X80054571Y-115605714D01*
X80578380Y-114081904D02*
X80578380Y-114653333D01*
X80578380Y-114367619D02*
X79578380Y-114367619D01*
X79721238Y-114462857D01*
X79816476Y-114558095D01*
X79864095Y-114653333D01*
X143357142Y-100867142D02*
X143309523Y-100914761D01*
X143166666Y-100962380D01*
X143071428Y-100962380D01*
X142928571Y-100914761D01*
X142833333Y-100819523D01*
X142785714Y-100724285D01*
X142738095Y-100533809D01*
X142738095Y-100390952D01*
X142785714Y-100200476D01*
X142833333Y-100105238D01*
X142928571Y-100010000D01*
X143071428Y-99962380D01*
X143166666Y-99962380D01*
X143309523Y-100010000D01*
X143357142Y-100057619D01*
X144309523Y-100962380D02*
X143738095Y-100962380D01*
X144023809Y-100962380D02*
X144023809Y-99962380D01*
X143928571Y-100105238D01*
X143833333Y-100200476D01*
X143738095Y-100248095D01*
X144785714Y-100962380D02*
X144976190Y-100962380D01*
X145071428Y-100914761D01*
X145119047Y-100867142D01*
X145214285Y-100724285D01*
X145261904Y-100533809D01*
X145261904Y-100152857D01*
X145214285Y-100057619D01*
X145166666Y-100010000D01*
X145071428Y-99962380D01*
X144880952Y-99962380D01*
X144785714Y-100010000D01*
X144738095Y-100057619D01*
X144690476Y-100152857D01*
X144690476Y-100390952D01*
X144738095Y-100486190D01*
X144785714Y-100533809D01*
X144880952Y-100581428D01*
X145071428Y-100581428D01*
X145166666Y-100533809D01*
X145214285Y-100486190D01*
X145261904Y-100390952D01*
X202926666Y-127872380D02*
X202926666Y-128586666D01*
X202879047Y-128729523D01*
X202783809Y-128824761D01*
X202640952Y-128872380D01*
X202545714Y-128872380D01*
X203307619Y-127872380D02*
X203926666Y-127872380D01*
X203593333Y-128253333D01*
X203736190Y-128253333D01*
X203831428Y-128300952D01*
X203879047Y-128348571D01*
X203926666Y-128443809D01*
X203926666Y-128681904D01*
X203879047Y-128777142D01*
X203831428Y-128824761D01*
X203736190Y-128872380D01*
X203450476Y-128872380D01*
X203355238Y-128824761D01*
X203307619Y-128777142D01*
D13*
X166677142Y-103702380D02*
X166343809Y-103226190D01*
X166105714Y-103702380D02*
X166105714Y-102702380D01*
X166486666Y-102702380D01*
X166581904Y-102750000D01*
X166629523Y-102797619D01*
X166677142Y-102892857D01*
X166677142Y-103035714D01*
X166629523Y-103130952D01*
X166581904Y-103178571D01*
X166486666Y-103226190D01*
X166105714Y-103226190D01*
X167058095Y-102797619D02*
X167105714Y-102750000D01*
X167200952Y-102702380D01*
X167439047Y-102702380D01*
X167534285Y-102750000D01*
X167581904Y-102797619D01*
X167629523Y-102892857D01*
X167629523Y-102988095D01*
X167581904Y-103130952D01*
X167010476Y-103702380D01*
X167629523Y-103702380D01*
X168248571Y-102702380D02*
X168343809Y-102702380D01*
X168439047Y-102750000D01*
X168486666Y-102797619D01*
X168534285Y-102892857D01*
X168581904Y-103083333D01*
X168581904Y-103321428D01*
X168534285Y-103511904D01*
X168486666Y-103607142D01*
X168439047Y-103654761D01*
X168343809Y-103702380D01*
X168248571Y-103702380D01*
X168153333Y-103654761D01*
X168105714Y-103607142D01*
X168058095Y-103511904D01*
X168010476Y-103321428D01*
X168010476Y-103083333D01*
X168058095Y-102892857D01*
X168105714Y-102797619D01*
X168153333Y-102750000D01*
X168248571Y-102702380D01*
D10*
X93738380Y-113729047D02*
X92738380Y-113729047D01*
X92738380Y-113490952D01*
X92786000Y-113348095D01*
X92881238Y-113252857D01*
X92976476Y-113205238D01*
X93166952Y-113157619D01*
X93309809Y-113157619D01*
X93500285Y-113205238D01*
X93595523Y-113252857D01*
X93690761Y-113348095D01*
X93738380Y-113490952D01*
X93738380Y-113729047D01*
X93738380Y-112205238D02*
X93738380Y-112776666D01*
X93738380Y-112490952D02*
X92738380Y-112490952D01*
X92881238Y-112586190D01*
X92976476Y-112681428D01*
X93024095Y-112776666D01*
X92738380Y-111300476D02*
X92738380Y-111776666D01*
X93214571Y-111824285D01*
X93166952Y-111776666D01*
X93119333Y-111681428D01*
X93119333Y-111443333D01*
X93166952Y-111348095D01*
X93214571Y-111300476D01*
X93309809Y-111252857D01*
X93547904Y-111252857D01*
X93643142Y-111300476D01*
X93690761Y-111348095D01*
X93738380Y-111443333D01*
X93738380Y-111681428D01*
X93690761Y-111776666D01*
X93643142Y-111824285D01*
X93452666Y-110871904D02*
X93452666Y-110395714D01*
X93738380Y-110967142D02*
X92738380Y-110633809D01*
X93738380Y-110300476D01*
X93738380Y-109443333D02*
X93738380Y-110014761D01*
X93738380Y-109729047D02*
X92738380Y-109729047D01*
X92881238Y-109824285D01*
X92976476Y-109919523D01*
X93024095Y-110014761D01*
X129768380Y-93992857D02*
X128768380Y-93992857D01*
X128768380Y-93754761D01*
X128816000Y-93611904D01*
X128911238Y-93516666D01*
X129006476Y-93469047D01*
X129196952Y-93421428D01*
X129339809Y-93421428D01*
X129530285Y-93469047D01*
X129625523Y-93516666D01*
X129720761Y-93611904D01*
X129768380Y-93754761D01*
X129768380Y-93992857D01*
X128768380Y-93088095D02*
X128768380Y-92469047D01*
X129149333Y-92802380D01*
X129149333Y-92659523D01*
X129196952Y-92564285D01*
X129244571Y-92516666D01*
X129339809Y-92469047D01*
X129577904Y-92469047D01*
X129673142Y-92516666D01*
X129720761Y-92564285D01*
X129768380Y-92659523D01*
X129768380Y-92945238D01*
X129720761Y-93040476D01*
X129673142Y-93088095D01*
X129482666Y-92088095D02*
X129482666Y-91611904D01*
X129768380Y-92183333D02*
X128768380Y-91850000D01*
X129768380Y-91516666D01*
X129768380Y-90659523D02*
X129768380Y-91230952D01*
X129768380Y-90945238D02*
X128768380Y-90945238D01*
X128911238Y-91040476D01*
X129006476Y-91135714D01*
X129054095Y-91230952D01*
X93877130Y-98348862D02*
X93924749Y-98396481D01*
X93972368Y-98539338D01*
X93972368Y-98634576D01*
X93924749Y-98777433D01*
X93829511Y-98872671D01*
X93734273Y-98920290D01*
X93543797Y-98967909D01*
X93400940Y-98967909D01*
X93210464Y-98920290D01*
X93115226Y-98872671D01*
X93019988Y-98777433D01*
X92972368Y-98634576D01*
X92972368Y-98539338D01*
X93019988Y-98396481D01*
X93067607Y-98348862D01*
X93972368Y-97396481D02*
X93972368Y-97967909D01*
X93972368Y-97682195D02*
X92972368Y-97682195D01*
X93115226Y-97777433D01*
X93210464Y-97872671D01*
X93258083Y-97967909D01*
X93400940Y-96825052D02*
X93353321Y-96920290D01*
X93305702Y-96967909D01*
X93210464Y-97015528D01*
X93162845Y-97015528D01*
X93067607Y-96967909D01*
X93019988Y-96920290D01*
X92972368Y-96825052D01*
X92972368Y-96634576D01*
X93019988Y-96539338D01*
X93067607Y-96491719D01*
X93162845Y-96444100D01*
X93210464Y-96444100D01*
X93305702Y-96491719D01*
X93353321Y-96539338D01*
X93400940Y-96634576D01*
X93400940Y-96825052D01*
X93448559Y-96920290D01*
X93496178Y-96967909D01*
X93591416Y-97015528D01*
X93781892Y-97015528D01*
X93877130Y-96967909D01*
X93924749Y-96920290D01*
X93972368Y-96825052D01*
X93972368Y-96634576D01*
X93924749Y-96539338D01*
X93877130Y-96491719D01*
X93781892Y-96444100D01*
X93591416Y-96444100D01*
X93496178Y-96491719D01*
X93448559Y-96539338D01*
X93400940Y-96634576D01*
X87698380Y-113750476D02*
X86698380Y-113750476D01*
X86698380Y-113512380D01*
X86746000Y-113369523D01*
X86841238Y-113274285D01*
X86936476Y-113226666D01*
X87126952Y-113179047D01*
X87269809Y-113179047D01*
X87460285Y-113226666D01*
X87555523Y-113274285D01*
X87650761Y-113369523D01*
X87698380Y-113512380D01*
X87698380Y-113750476D01*
X87698380Y-112226666D02*
X87698380Y-112798095D01*
X87698380Y-112512380D02*
X86698380Y-112512380D01*
X86841238Y-112607619D01*
X86936476Y-112702857D01*
X86984095Y-112798095D01*
X86698380Y-111321904D02*
X86698380Y-111798095D01*
X87174571Y-111845714D01*
X87126952Y-111798095D01*
X87079333Y-111702857D01*
X87079333Y-111464761D01*
X87126952Y-111369523D01*
X87174571Y-111321904D01*
X87269809Y-111274285D01*
X87507904Y-111274285D01*
X87603142Y-111321904D01*
X87650761Y-111369523D01*
X87698380Y-111464761D01*
X87698380Y-111702857D01*
X87650761Y-111798095D01*
X87603142Y-111845714D01*
X87174571Y-110512380D02*
X87222190Y-110369523D01*
X87269809Y-110321904D01*
X87365047Y-110274285D01*
X87507904Y-110274285D01*
X87603142Y-110321904D01*
X87650761Y-110369523D01*
X87698380Y-110464761D01*
X87698380Y-110845714D01*
X86698380Y-110845714D01*
X86698380Y-110512380D01*
X86746000Y-110417142D01*
X86793619Y-110369523D01*
X86888857Y-110321904D01*
X86984095Y-110321904D01*
X87079333Y-110369523D01*
X87126952Y-110417142D01*
X87174571Y-110512380D01*
X87174571Y-110845714D01*
X87698380Y-109321904D02*
X87698380Y-109893333D01*
X87698380Y-109607619D02*
X86698380Y-109607619D01*
X86841238Y-109702857D01*
X86936476Y-109798095D01*
X86984095Y-109893333D01*
X143807142Y-98397142D02*
X143759523Y-98444761D01*
X143616666Y-98492380D01*
X143521428Y-98492380D01*
X143378571Y-98444761D01*
X143283333Y-98349523D01*
X143235714Y-98254285D01*
X143188095Y-98063809D01*
X143188095Y-97920952D01*
X143235714Y-97730476D01*
X143283333Y-97635238D01*
X143378571Y-97540000D01*
X143521428Y-97492380D01*
X143616666Y-97492380D01*
X143759523Y-97540000D01*
X143807142Y-97587619D01*
X144188095Y-97587619D02*
X144235714Y-97540000D01*
X144330952Y-97492380D01*
X144569047Y-97492380D01*
X144664285Y-97540000D01*
X144711904Y-97587619D01*
X144759523Y-97682857D01*
X144759523Y-97778095D01*
X144711904Y-97920952D01*
X144140476Y-98492380D01*
X144759523Y-98492380D01*
X145378571Y-97492380D02*
X145473809Y-97492380D01*
X145569047Y-97540000D01*
X145616666Y-97587619D01*
X145664285Y-97682857D01*
X145711904Y-97873333D01*
X145711904Y-98111428D01*
X145664285Y-98301904D01*
X145616666Y-98397142D01*
X145569047Y-98444761D01*
X145473809Y-98492380D01*
X145378571Y-98492380D01*
X145283333Y-98444761D01*
X145235714Y-98397142D01*
X145188095Y-98301904D01*
X145140476Y-98111428D01*
X145140476Y-97873333D01*
X145188095Y-97682857D01*
X145235714Y-97587619D01*
X145283333Y-97540000D01*
X145378571Y-97492380D01*
X162128095Y-79042380D02*
X162128095Y-79756666D01*
X162080476Y-79899523D01*
X161985238Y-79994761D01*
X161842380Y-80042380D01*
X161747142Y-80042380D01*
X163080476Y-80042380D02*
X162604285Y-80042380D01*
X162604285Y-79042380D01*
X163413809Y-80042380D02*
X163413809Y-79042380D01*
X163985238Y-80042380D01*
X163985238Y-79042380D01*
X164985238Y-80042380D02*
X164413809Y-80042380D01*
X164699523Y-80042380D02*
X164699523Y-79042380D01*
X164604285Y-79185238D01*
X164509047Y-79280476D01*
X164413809Y-79328095D01*
X123728380Y-94224285D02*
X122728380Y-94224285D01*
X122728380Y-93986190D01*
X122776000Y-93843333D01*
X122871238Y-93748095D01*
X122966476Y-93700476D01*
X123156952Y-93652857D01*
X123299809Y-93652857D01*
X123490285Y-93700476D01*
X123585523Y-93748095D01*
X123680761Y-93843333D01*
X123728380Y-93986190D01*
X123728380Y-94224285D01*
X122728380Y-93319523D02*
X122728380Y-92700476D01*
X123109333Y-93033809D01*
X123109333Y-92890952D01*
X123156952Y-92795714D01*
X123204571Y-92748095D01*
X123299809Y-92700476D01*
X123537904Y-92700476D01*
X123633142Y-92748095D01*
X123680761Y-92795714D01*
X123728380Y-92890952D01*
X123728380Y-93176666D01*
X123680761Y-93271904D01*
X123633142Y-93319523D01*
X123204571Y-91938571D02*
X123252190Y-91795714D01*
X123299809Y-91748095D01*
X123395047Y-91700476D01*
X123537904Y-91700476D01*
X123633142Y-91748095D01*
X123680761Y-91795714D01*
X123728380Y-91890952D01*
X123728380Y-92271904D01*
X122728380Y-92271904D01*
X122728380Y-91938571D01*
X122776000Y-91843333D01*
X122823619Y-91795714D01*
X122918857Y-91748095D01*
X123014095Y-91748095D01*
X123109333Y-91795714D01*
X123156952Y-91843333D01*
X123204571Y-91938571D01*
X123204571Y-92271904D01*
X123728380Y-90748095D02*
X123728380Y-91319523D01*
X123728380Y-91033809D02*
X122728380Y-91033809D01*
X122871238Y-91129047D01*
X122966476Y-91224285D01*
X123014095Y-91319523D01*
X99873333Y-97177142D02*
X99825714Y-97224761D01*
X99682857Y-97272380D01*
X99587619Y-97272380D01*
X99444761Y-97224761D01*
X99349523Y-97129523D01*
X99301904Y-97034285D01*
X99254285Y-96843809D01*
X99254285Y-96700952D01*
X99301904Y-96510476D01*
X99349523Y-96415238D01*
X99444761Y-96320000D01*
X99587619Y-96272380D01*
X99682857Y-96272380D01*
X99825714Y-96320000D01*
X99873333Y-96367619D01*
X100825714Y-97272380D02*
X100254285Y-97272380D01*
X100540000Y-97272380D02*
X100540000Y-96272380D01*
X100444761Y-96415238D01*
X100349523Y-96510476D01*
X100254285Y-96558095D01*
X142477142Y-107757142D02*
X142429523Y-107804761D01*
X142286666Y-107852380D01*
X142191428Y-107852380D01*
X142048571Y-107804761D01*
X141953333Y-107709523D01*
X141905714Y-107614285D01*
X141858095Y-107423809D01*
X141858095Y-107280952D01*
X141905714Y-107090476D01*
X141953333Y-106995238D01*
X142048571Y-106900000D01*
X142191428Y-106852380D01*
X142286666Y-106852380D01*
X142429523Y-106900000D01*
X142477142Y-106947619D01*
X143429523Y-107852380D02*
X142858095Y-107852380D01*
X143143809Y-107852380D02*
X143143809Y-106852380D01*
X143048571Y-106995238D01*
X142953333Y-107090476D01*
X142858095Y-107138095D01*
X144286666Y-106852380D02*
X144096190Y-106852380D01*
X144000952Y-106900000D01*
X143953333Y-106947619D01*
X143858095Y-107090476D01*
X143810476Y-107280952D01*
X143810476Y-107661904D01*
X143858095Y-107757142D01*
X143905714Y-107804761D01*
X144000952Y-107852380D01*
X144191428Y-107852380D01*
X144286666Y-107804761D01*
X144334285Y-107757142D01*
X144381904Y-107661904D01*
X144381904Y-107423809D01*
X144334285Y-107328571D01*
X144286666Y-107280952D01*
X144191428Y-107233333D01*
X144000952Y-107233333D01*
X143905714Y-107280952D01*
X143858095Y-107328571D01*
X143810476Y-107423809D01*
X147618380Y-112006857D02*
X146618380Y-112006857D01*
X146618380Y-111768761D01*
X146666000Y-111625904D01*
X146761238Y-111530666D01*
X146856476Y-111483047D01*
X147046952Y-111435428D01*
X147189809Y-111435428D01*
X147380285Y-111483047D01*
X147475523Y-111530666D01*
X147570761Y-111625904D01*
X147618380Y-111768761D01*
X147618380Y-112006857D01*
X147618380Y-110959238D02*
X147618380Y-110768761D01*
X147570761Y-110673523D01*
X147523142Y-110625904D01*
X147380285Y-110530666D01*
X147189809Y-110483047D01*
X146808857Y-110483047D01*
X146713619Y-110530666D01*
X146666000Y-110578285D01*
X146618380Y-110673523D01*
X146618380Y-110864000D01*
X146666000Y-110959238D01*
X146713619Y-111006857D01*
X146808857Y-111054476D01*
X147046952Y-111054476D01*
X147142190Y-111006857D01*
X147189809Y-110959238D01*
X147237428Y-110864000D01*
X147237428Y-110673523D01*
X147189809Y-110578285D01*
X147142190Y-110530666D01*
X147046952Y-110483047D01*
X147332666Y-110102095D02*
X147332666Y-109625904D01*
X147618380Y-110197333D02*
X146618380Y-109864000D01*
X147618380Y-109530666D01*
X147618380Y-108673523D02*
X147618380Y-109244952D01*
X147618380Y-108959238D02*
X146618380Y-108959238D01*
X146761238Y-109054476D01*
X146856476Y-109149714D01*
X146904095Y-109244952D01*
X92427142Y-98662380D02*
X92093809Y-98186190D01*
X91855714Y-98662380D02*
X91855714Y-97662380D01*
X92236666Y-97662380D01*
X92331904Y-97710000D01*
X92379523Y-97757619D01*
X92427142Y-97852857D01*
X92427142Y-97995714D01*
X92379523Y-98090952D01*
X92331904Y-98138571D01*
X92236666Y-98186190D01*
X91855714Y-98186190D01*
X93379523Y-98662380D02*
X92808095Y-98662380D01*
X93093809Y-98662380D02*
X93093809Y-97662380D01*
X92998571Y-97805238D01*
X92903333Y-97900476D01*
X92808095Y-97948095D01*
X93760476Y-97757619D02*
X93808095Y-97710000D01*
X93903333Y-97662380D01*
X94141428Y-97662380D01*
X94236666Y-97710000D01*
X94284285Y-97757619D01*
X94331904Y-97852857D01*
X94331904Y-97948095D01*
X94284285Y-98090952D01*
X93712857Y-98662380D01*
X94331904Y-98662380D01*
X182597142Y-121292380D02*
X182263809Y-120816190D01*
X182025714Y-121292380D02*
X182025714Y-120292380D01*
X182406666Y-120292380D01*
X182501904Y-120340000D01*
X182549523Y-120387619D01*
X182597142Y-120482857D01*
X182597142Y-120625714D01*
X182549523Y-120720952D01*
X182501904Y-120768571D01*
X182406666Y-120816190D01*
X182025714Y-120816190D01*
X182978095Y-120387619D02*
X183025714Y-120340000D01*
X183120952Y-120292380D01*
X183359047Y-120292380D01*
X183454285Y-120340000D01*
X183501904Y-120387619D01*
X183549523Y-120482857D01*
X183549523Y-120578095D01*
X183501904Y-120720952D01*
X182930476Y-121292380D01*
X183549523Y-121292380D01*
X184501904Y-121292380D02*
X183930476Y-121292380D01*
X184216190Y-121292380D02*
X184216190Y-120292380D01*
X184120952Y-120435238D01*
X184025714Y-120530476D01*
X183930476Y-120578095D01*
X176283095Y-87512380D02*
X176283095Y-88321904D01*
X176330714Y-88417142D01*
X176378333Y-88464761D01*
X176473571Y-88512380D01*
X176664047Y-88512380D01*
X176759285Y-88464761D01*
X176806904Y-88417142D01*
X176854523Y-88321904D01*
X176854523Y-87512380D01*
X177759285Y-87512380D02*
X177568809Y-87512380D01*
X177473571Y-87560000D01*
X177425952Y-87607619D01*
X177330714Y-87750476D01*
X177283095Y-87940952D01*
X177283095Y-88321904D01*
X177330714Y-88417142D01*
X177378333Y-88464761D01*
X177473571Y-88512380D01*
X177664047Y-88512380D01*
X177759285Y-88464761D01*
X177806904Y-88417142D01*
X177854523Y-88321904D01*
X177854523Y-88083809D01*
X177806904Y-87988571D01*
X177759285Y-87940952D01*
X177664047Y-87893333D01*
X177473571Y-87893333D01*
X177378333Y-87940952D01*
X177330714Y-87988571D01*
X177283095Y-88083809D01*
X114638380Y-94224285D02*
X113638380Y-94224285D01*
X113638380Y-93986190D01*
X113686000Y-93843333D01*
X113781238Y-93748095D01*
X113876476Y-93700476D01*
X114066952Y-93652857D01*
X114209809Y-93652857D01*
X114400285Y-93700476D01*
X114495523Y-93748095D01*
X114590761Y-93843333D01*
X114638380Y-93986190D01*
X114638380Y-94224285D01*
X113971714Y-92795714D02*
X114638380Y-92795714D01*
X113590761Y-93033809D02*
X114305047Y-93271904D01*
X114305047Y-92652857D01*
X114114571Y-91938571D02*
X114162190Y-91795714D01*
X114209809Y-91748095D01*
X114305047Y-91700476D01*
X114447904Y-91700476D01*
X114543142Y-91748095D01*
X114590761Y-91795714D01*
X114638380Y-91890952D01*
X114638380Y-92271904D01*
X113638380Y-92271904D01*
X113638380Y-91938571D01*
X113686000Y-91843333D01*
X113733619Y-91795714D01*
X113828857Y-91748095D01*
X113924095Y-91748095D01*
X114019333Y-91795714D01*
X114066952Y-91843333D01*
X114114571Y-91938571D01*
X114114571Y-92271904D01*
X114638380Y-90748095D02*
X114638380Y-91319523D01*
X114638380Y-91033809D02*
X113638380Y-91033809D01*
X113781238Y-91129047D01*
X113876476Y-91224285D01*
X113924095Y-91319523D01*
X105647142Y-97242380D02*
X105313809Y-96766190D01*
X105075714Y-97242380D02*
X105075714Y-96242380D01*
X105456666Y-96242380D01*
X105551904Y-96290000D01*
X105599523Y-96337619D01*
X105647142Y-96432857D01*
X105647142Y-96575714D01*
X105599523Y-96670952D01*
X105551904Y-96718571D01*
X105456666Y-96766190D01*
X105075714Y-96766190D01*
X106599523Y-97242380D02*
X106028095Y-97242380D01*
X106313809Y-97242380D02*
X106313809Y-96242380D01*
X106218571Y-96385238D01*
X106123333Y-96480476D01*
X106028095Y-96528095D01*
X107218571Y-96242380D02*
X107313809Y-96242380D01*
X107409047Y-96290000D01*
X107456666Y-96337619D01*
X107504285Y-96432857D01*
X107551904Y-96623333D01*
X107551904Y-96861428D01*
X107504285Y-97051904D01*
X107456666Y-97147142D01*
X107409047Y-97194761D01*
X107313809Y-97242380D01*
X107218571Y-97242380D01*
X107123333Y-97194761D01*
X107075714Y-97147142D01*
X107028095Y-97051904D01*
X106980476Y-96861428D01*
X106980476Y-96623333D01*
X107028095Y-96432857D01*
X107075714Y-96337619D01*
X107123333Y-96290000D01*
X107218571Y-96242380D01*
X178992380Y-109556904D02*
X179801904Y-109556904D01*
X179897142Y-109509285D01*
X179944761Y-109461666D01*
X179992380Y-109366428D01*
X179992380Y-109175952D01*
X179944761Y-109080714D01*
X179897142Y-109033095D01*
X179801904Y-108985476D01*
X178992380Y-108985476D01*
X178992380Y-108604523D02*
X178992380Y-107985476D01*
X179373333Y-108318809D01*
X179373333Y-108175952D01*
X179420952Y-108080714D01*
X179468571Y-108033095D01*
X179563809Y-107985476D01*
X179801904Y-107985476D01*
X179897142Y-108033095D01*
X179944761Y-108080714D01*
X179992380Y-108175952D01*
X179992380Y-108461666D01*
X179944761Y-108556904D01*
X179897142Y-108604523D01*
X93648380Y-94102857D02*
X92648380Y-94102857D01*
X92648380Y-93864761D01*
X92696000Y-93721904D01*
X92791238Y-93626666D01*
X92886476Y-93579047D01*
X93076952Y-93531428D01*
X93219809Y-93531428D01*
X93410285Y-93579047D01*
X93505523Y-93626666D01*
X93600761Y-93721904D01*
X93648380Y-93864761D01*
X93648380Y-94102857D01*
X92648380Y-93198095D02*
X92648380Y-92531428D01*
X93648380Y-92960000D01*
X93362666Y-92198095D02*
X93362666Y-91721904D01*
X93648380Y-92293333D02*
X92648380Y-91960000D01*
X93648380Y-91626666D01*
X93648380Y-90769523D02*
X93648380Y-91340952D01*
X93648380Y-91055238D02*
X92648380Y-91055238D01*
X92791238Y-91150476D01*
X92886476Y-91245714D01*
X92934095Y-91340952D01*
X145609591Y-89682857D02*
X144609591Y-89682857D01*
X144609591Y-89444761D01*
X144657211Y-89301904D01*
X144752449Y-89206666D01*
X144847687Y-89159047D01*
X145038163Y-89111428D01*
X145181020Y-89111428D01*
X145371496Y-89159047D01*
X145466734Y-89206666D01*
X145561972Y-89301904D01*
X145609591Y-89444761D01*
X145609591Y-89682857D01*
X145609591Y-88159047D02*
X145609591Y-88730476D01*
X145609591Y-88444761D02*
X144609591Y-88444761D01*
X144752449Y-88540000D01*
X144847687Y-88635238D01*
X144895306Y-88730476D01*
X145323877Y-87778095D02*
X145323877Y-87301904D01*
X145609591Y-87873333D02*
X144609591Y-87540000D01*
X145609591Y-87206666D01*
X145609591Y-86349523D02*
X145609591Y-86920952D01*
X145609591Y-86635238D02*
X144609591Y-86635238D01*
X144752449Y-86730476D01*
X144847687Y-86825714D01*
X144895306Y-86920952D01*
X84558380Y-94202857D02*
X83558380Y-94202857D01*
X83558380Y-93964761D01*
X83606000Y-93821904D01*
X83701238Y-93726666D01*
X83796476Y-93679047D01*
X83986952Y-93631428D01*
X84129809Y-93631428D01*
X84320285Y-93679047D01*
X84415523Y-93726666D01*
X84510761Y-93821904D01*
X84558380Y-93964761D01*
X84558380Y-94202857D01*
X83986952Y-93060000D02*
X83939333Y-93155238D01*
X83891714Y-93202857D01*
X83796476Y-93250476D01*
X83748857Y-93250476D01*
X83653619Y-93202857D01*
X83606000Y-93155238D01*
X83558380Y-93060000D01*
X83558380Y-92869523D01*
X83606000Y-92774285D01*
X83653619Y-92726666D01*
X83748857Y-92679047D01*
X83796476Y-92679047D01*
X83891714Y-92726666D01*
X83939333Y-92774285D01*
X83986952Y-92869523D01*
X83986952Y-93060000D01*
X84034571Y-93155238D01*
X84082190Y-93202857D01*
X84177428Y-93250476D01*
X84367904Y-93250476D01*
X84463142Y-93202857D01*
X84510761Y-93155238D01*
X84558380Y-93060000D01*
X84558380Y-92869523D01*
X84510761Y-92774285D01*
X84463142Y-92726666D01*
X84367904Y-92679047D01*
X84177428Y-92679047D01*
X84082190Y-92726666D01*
X84034571Y-92774285D01*
X83986952Y-92869523D01*
X84272666Y-92298095D02*
X84272666Y-91821904D01*
X84558380Y-92393333D02*
X83558380Y-92060000D01*
X84558380Y-91726666D01*
X84558380Y-90869523D02*
X84558380Y-91440952D01*
X84558380Y-91155238D02*
X83558380Y-91155238D01*
X83701238Y-91250476D01*
X83796476Y-91345714D01*
X83844095Y-91440952D01*
X105778380Y-113610476D02*
X104778380Y-113610476D01*
X104778380Y-113372380D01*
X104826000Y-113229523D01*
X104921238Y-113134285D01*
X105016476Y-113086666D01*
X105206952Y-113039047D01*
X105349809Y-113039047D01*
X105540285Y-113086666D01*
X105635523Y-113134285D01*
X105730761Y-113229523D01*
X105778380Y-113372380D01*
X105778380Y-113610476D01*
X105778380Y-112086666D02*
X105778380Y-112658095D01*
X105778380Y-112372380D02*
X104778380Y-112372380D01*
X104921238Y-112467619D01*
X105016476Y-112562857D01*
X105064095Y-112658095D01*
X104778380Y-111753333D02*
X104778380Y-111134285D01*
X105159333Y-111467619D01*
X105159333Y-111324761D01*
X105206952Y-111229523D01*
X105254571Y-111181904D01*
X105349809Y-111134285D01*
X105587904Y-111134285D01*
X105683142Y-111181904D01*
X105730761Y-111229523D01*
X105778380Y-111324761D01*
X105778380Y-111610476D01*
X105730761Y-111705714D01*
X105683142Y-111753333D01*
X105254571Y-110372380D02*
X105302190Y-110229523D01*
X105349809Y-110181904D01*
X105445047Y-110134285D01*
X105587904Y-110134285D01*
X105683142Y-110181904D01*
X105730761Y-110229523D01*
X105778380Y-110324761D01*
X105778380Y-110705714D01*
X104778380Y-110705714D01*
X104778380Y-110372380D01*
X104826000Y-110277142D01*
X104873619Y-110229523D01*
X104968857Y-110181904D01*
X105064095Y-110181904D01*
X105159333Y-110229523D01*
X105206952Y-110277142D01*
X105254571Y-110372380D01*
X105254571Y-110705714D01*
X105778380Y-109181904D02*
X105778380Y-109753333D01*
X105778380Y-109467619D02*
X104778380Y-109467619D01*
X104921238Y-109562857D01*
X105016476Y-109658095D01*
X105064095Y-109753333D01*
X96668380Y-94094285D02*
X95668380Y-94094285D01*
X95668380Y-93856190D01*
X95716000Y-93713333D01*
X95811238Y-93618095D01*
X95906476Y-93570476D01*
X96096952Y-93522857D01*
X96239809Y-93522857D01*
X96430285Y-93570476D01*
X96525523Y-93618095D01*
X96620761Y-93713333D01*
X96668380Y-93856190D01*
X96668380Y-94094285D01*
X95668380Y-92665714D02*
X95668380Y-92856190D01*
X95716000Y-92951428D01*
X95763619Y-92999047D01*
X95906476Y-93094285D01*
X96096952Y-93141904D01*
X96477904Y-93141904D01*
X96573142Y-93094285D01*
X96620761Y-93046666D01*
X96668380Y-92951428D01*
X96668380Y-92760952D01*
X96620761Y-92665714D01*
X96573142Y-92618095D01*
X96477904Y-92570476D01*
X96239809Y-92570476D01*
X96144571Y-92618095D01*
X96096952Y-92665714D01*
X96049333Y-92760952D01*
X96049333Y-92951428D01*
X96096952Y-93046666D01*
X96144571Y-93094285D01*
X96239809Y-93141904D01*
X96144571Y-91808571D02*
X96192190Y-91665714D01*
X96239809Y-91618095D01*
X96335047Y-91570476D01*
X96477904Y-91570476D01*
X96573142Y-91618095D01*
X96620761Y-91665714D01*
X96668380Y-91760952D01*
X96668380Y-92141904D01*
X95668380Y-92141904D01*
X95668380Y-91808571D01*
X95716000Y-91713333D01*
X95763619Y-91665714D01*
X95858857Y-91618095D01*
X95954095Y-91618095D01*
X96049333Y-91665714D01*
X96096952Y-91713333D01*
X96144571Y-91808571D01*
X96144571Y-92141904D01*
X96668380Y-90618095D02*
X96668380Y-91189523D01*
X96668380Y-90903809D02*
X95668380Y-90903809D01*
X95811238Y-90999047D01*
X95906476Y-91094285D01*
X95954095Y-91189523D01*
X141698380Y-113094285D02*
X140698380Y-113094285D01*
X140698380Y-112856190D01*
X140746000Y-112713333D01*
X140841238Y-112618095D01*
X140936476Y-112570476D01*
X141126952Y-112522857D01*
X141269809Y-112522857D01*
X141460285Y-112570476D01*
X141555523Y-112618095D01*
X141650761Y-112713333D01*
X141698380Y-112856190D01*
X141698380Y-113094285D01*
X141698380Y-112046666D02*
X141698380Y-111856190D01*
X141650761Y-111760952D01*
X141603142Y-111713333D01*
X141460285Y-111618095D01*
X141269809Y-111570476D01*
X140888857Y-111570476D01*
X140793619Y-111618095D01*
X140746000Y-111665714D01*
X140698380Y-111760952D01*
X140698380Y-111951428D01*
X140746000Y-112046666D01*
X140793619Y-112094285D01*
X140888857Y-112141904D01*
X141126952Y-112141904D01*
X141222190Y-112094285D01*
X141269809Y-112046666D01*
X141317428Y-111951428D01*
X141317428Y-111760952D01*
X141269809Y-111665714D01*
X141222190Y-111618095D01*
X141126952Y-111570476D01*
X141174571Y-110808571D02*
X141222190Y-110665714D01*
X141269809Y-110618095D01*
X141365047Y-110570476D01*
X141507904Y-110570476D01*
X141603142Y-110618095D01*
X141650761Y-110665714D01*
X141698380Y-110760952D01*
X141698380Y-111141904D01*
X140698380Y-111141904D01*
X140698380Y-110808571D01*
X140746000Y-110713333D01*
X140793619Y-110665714D01*
X140888857Y-110618095D01*
X140984095Y-110618095D01*
X141079333Y-110665714D01*
X141126952Y-110713333D01*
X141174571Y-110808571D01*
X141174571Y-111141904D01*
X141698380Y-109618095D02*
X141698380Y-110189523D01*
X141698380Y-109903809D02*
X140698380Y-109903809D01*
X140841238Y-109999047D01*
X140936476Y-110094285D01*
X140984095Y-110189523D01*
X138658380Y-113669047D02*
X137658380Y-113669047D01*
X137658380Y-113430952D01*
X137706000Y-113288095D01*
X137801238Y-113192857D01*
X137896476Y-113145238D01*
X138086952Y-113097619D01*
X138229809Y-113097619D01*
X138420285Y-113145238D01*
X138515523Y-113192857D01*
X138610761Y-113288095D01*
X138658380Y-113430952D01*
X138658380Y-113669047D01*
X138658380Y-112145238D02*
X138658380Y-112716666D01*
X138658380Y-112430952D02*
X137658380Y-112430952D01*
X137801238Y-112526190D01*
X137896476Y-112621428D01*
X137944095Y-112716666D01*
X137658380Y-111526190D02*
X137658380Y-111430952D01*
X137706000Y-111335714D01*
X137753619Y-111288095D01*
X137848857Y-111240476D01*
X138039333Y-111192857D01*
X138277428Y-111192857D01*
X138467904Y-111240476D01*
X138563142Y-111288095D01*
X138610761Y-111335714D01*
X138658380Y-111430952D01*
X138658380Y-111526190D01*
X138610761Y-111621428D01*
X138563142Y-111669047D01*
X138467904Y-111716666D01*
X138277428Y-111764285D01*
X138039333Y-111764285D01*
X137848857Y-111716666D01*
X137753619Y-111669047D01*
X137706000Y-111621428D01*
X137658380Y-111526190D01*
X138372666Y-110811904D02*
X138372666Y-110335714D01*
X138658380Y-110907142D02*
X137658380Y-110573809D01*
X138658380Y-110240476D01*
X138658380Y-109383333D02*
X138658380Y-109954761D01*
X138658380Y-109669047D02*
X137658380Y-109669047D01*
X137801238Y-109764285D01*
X137896476Y-109859523D01*
X137944095Y-109954761D01*
X55197382Y-102873328D02*
X55911668Y-102873328D01*
X56054525Y-102920947D01*
X56149763Y-103016185D01*
X56197382Y-103159042D01*
X56197382Y-103254280D01*
X55197382Y-101968566D02*
X55197382Y-102159042D01*
X55245002Y-102254280D01*
X55292621Y-102301899D01*
X55435478Y-102397137D01*
X55625954Y-102444756D01*
X56006906Y-102444756D01*
X56102144Y-102397137D01*
X56149763Y-102349518D01*
X56197382Y-102254280D01*
X56197382Y-102063804D01*
X56149763Y-101968566D01*
X56102144Y-101920947D01*
X56006906Y-101873328D01*
X55768811Y-101873328D01*
X55673573Y-101920947D01*
X55625954Y-101968566D01*
X55578335Y-102063804D01*
X55578335Y-102254280D01*
X55625954Y-102349518D01*
X55673573Y-102397137D01*
X55768811Y-102444756D01*
D14*
X63670000Y-130265000D02*
X66330000Y-130265000D01*
X63670000Y-107345000D02*
X66330000Y-107345000D01*
X63670000Y-104745000D02*
X65000000Y-104745000D01*
X63670000Y-107345000D02*
X63670000Y-130265000D01*
X66330000Y-107345000D02*
X66330000Y-130265000D01*
X63670000Y-106075000D02*
X63670000Y-104745000D01*
X63669997Y-98809993D02*
X66329997Y-98809993D01*
X63669997Y-75889993D02*
X66329997Y-75889993D01*
X63669997Y-73289993D02*
X64999997Y-73289993D01*
X63669997Y-75889993D02*
X63669997Y-98809993D01*
X66329997Y-75889993D02*
X66329997Y-98809993D01*
X63669997Y-74619993D02*
X63669997Y-73289993D01*
X201669999Y-95430009D02*
X201669999Y-87430009D01*
X201669999Y-87430009D02*
X208469999Y-87430009D01*
X208469999Y-95430009D02*
X201669999Y-95430009D01*
X202569999Y-95430009D02*
X202569999Y-87430009D01*
X208469999Y-87430009D02*
X208469999Y-95430009D01*
X147700000Y-127000000D02*
X146300000Y-127000000D01*
X148400000Y-125700000D02*
X148400000Y-126300000D01*
X146300000Y-125000000D02*
X147700000Y-125000000D01*
X145600000Y-126300000D02*
X145600000Y-125700000D01*
X147700000Y-127000000D02*
G75*
G03*
X148400000Y-126300000I1J699999D01*
G01*
X148400000Y-125700000D02*
G75*
G03*
X147700000Y-125000000I-699999J1D01*
G01*
X145600000Y-126300000D02*
G75*
G03*
X146300000Y-127000000I700000J0D01*
G01*
X146300000Y-125000000D02*
G75*
G03*
X145600000Y-125700000I0J-700000D01*
G01*
X194013292Y-84399800D02*
X194013292Y-80799800D01*
X188543292Y-84399800D02*
X188543292Y-82199800D01*
X188543292Y-84399800D02*
X188543292Y-86599800D01*
X194013292Y-84399800D02*
X194013292Y-86599800D01*
X116100000Y-99590000D02*
X116900000Y-99590000D01*
X116100000Y-99590000D02*
X115300000Y-99590000D01*
X116100000Y-102710000D02*
X115300000Y-102710000D01*
X116100000Y-102710000D02*
X117900000Y-102710000D01*
X118695000Y-100888748D02*
X118695000Y-101411252D01*
X120165000Y-100888748D02*
X120165000Y-101411252D01*
X176149400Y-88649400D02*
X175149400Y-89649400D01*
X181210600Y-88649400D02*
X179622340Y-88649400D01*
X182210600Y-95710600D02*
X182210600Y-89649400D01*
X179622340Y-95710600D02*
X182210600Y-95710600D01*
X175149400Y-89649400D02*
X175149400Y-95710600D01*
X181210600Y-88649400D02*
X182210600Y-89649400D01*
X177737660Y-88649400D02*
X176149400Y-88649400D01*
X175149400Y-95710600D02*
X177737660Y-95710600D01*
X120990000Y-101009420D02*
X120990000Y-101290580D01*
X122010000Y-101009420D02*
X122010000Y-101290580D01*
X173291252Y-91610000D02*
X171868748Y-91610000D01*
X173291252Y-88890000D02*
X171868748Y-88890000D01*
X172730580Y-93770000D02*
X172449420Y-93770000D01*
X172730580Y-92750000D02*
X172449420Y-92750000D01*
X183710000Y-82418748D02*
X183710000Y-83841252D01*
X186430000Y-82418748D02*
X186430000Y-83841252D01*
X171000000Y-101150580D02*
X171000000Y-100869420D01*
X172020000Y-101150580D02*
X172020000Y-100869420D01*
X113435000Y-100888748D02*
X113435000Y-101411252D01*
X111965000Y-100888748D02*
X111965000Y-101411252D01*
X195829420Y-81270000D02*
X196110580Y-81270000D01*
X195829420Y-82290000D02*
X196110580Y-82290000D01*
X111080000Y-100438748D02*
X111080000Y-101861252D01*
X108360000Y-100438748D02*
X108360000Y-101861252D01*
X195250000Y-88550000D02*
X195250000Y-96550000D01*
X188450000Y-88550000D02*
X195250000Y-88550000D01*
X189350000Y-96550000D02*
X189350000Y-88550000D01*
X188450000Y-96550000D02*
X188450000Y-88550000D01*
X195250000Y-96550000D02*
X188450000Y-96550000D01*
D10*
X85570999Y-107445012D02*
X85570999Y-107220012D01*
X85570999Y-107220012D02*
X87170999Y-107220012D01*
X85570999Y-98795012D02*
X85570999Y-99095012D01*
X85570999Y-107445012D02*
X79820999Y-107445012D01*
X79820999Y-98795012D02*
X79820999Y-99095012D01*
X85570999Y-98795012D02*
X79820999Y-98795012D01*
X79820999Y-107445012D02*
X79820999Y-107145012D01*
D14*
X92846000Y-103359420D02*
X92846000Y-103640580D01*
X91826000Y-103359420D02*
X91826000Y-103640580D01*
X179195000Y-122795420D02*
X179195000Y-123076580D01*
X180215000Y-122795420D02*
X180215000Y-123076580D01*
X89290000Y-103640580D02*
X89290000Y-103359420D01*
X88270000Y-103640580D02*
X88270000Y-103359420D01*
X159326750Y-100738153D02*
X159326750Y-99938153D01*
X159326750Y-100738153D02*
X159326750Y-101538153D01*
X162446750Y-100738153D02*
X162446750Y-98938153D01*
X162446750Y-100738153D02*
X162446750Y-101538153D01*
X89696002Y-101520012D02*
X91496002Y-101520012D01*
X89696002Y-101520012D02*
X88896002Y-101520012D01*
X89696002Y-98400012D02*
X90496002Y-98400012D01*
X89696002Y-98400012D02*
X88896002Y-98400012D01*
X90035500Y-103262742D02*
X90035500Y-103737258D01*
X91080500Y-103262742D02*
X91080500Y-103737258D01*
X163648742Y-97632505D02*
X164123258Y-97632505D01*
X163648742Y-96587505D02*
X164123258Y-96587505D01*
X160793258Y-96587500D02*
X160318742Y-96587500D01*
X160793258Y-97632500D02*
X160318742Y-97632500D01*
X166411000Y-117395000D02*
X164461000Y-117395000D01*
X166411000Y-117395000D02*
X169861000Y-117395000D01*
X166411000Y-107275000D02*
X164461000Y-107275000D01*
X166411000Y-107275000D02*
X168361000Y-107275000D01*
X123810000Y-101009420D02*
X123810000Y-101290580D01*
X122790000Y-101009420D02*
X122790000Y-101290580D01*
D15*
X199731200Y-95804000D02*
X199731200Y-94889600D01*
X199731200Y-93670400D02*
X199731200Y-92756000D01*
X198740600Y-95804000D02*
X199731200Y-95804000D01*
X199324800Y-92756000D02*
X198740600Y-92756000D01*
X199731200Y-92756000D02*
X199324800Y-92756000D01*
X198918400Y-93035399D02*
G75*
G03*
X199324800Y-92756000I105381J281982D01*
G01*
X185900600Y-96644000D02*
X186891200Y-96644000D01*
X186484800Y-93596000D02*
X185900600Y-93596000D01*
X186891200Y-93596000D02*
X186484800Y-93596000D01*
X186891200Y-96644000D02*
X186891200Y-95729600D01*
X186891200Y-94510400D02*
X186891200Y-93596000D01*
X186078400Y-93875399D02*
G75*
G03*
X186484800Y-93596000I105381J281982D01*
G01*
X195150400Y-83848800D02*
X194236000Y-83848800D01*
X194236000Y-84255200D02*
X194236000Y-84839400D01*
X197284000Y-83848800D02*
X196369600Y-83848800D01*
X194236000Y-83848800D02*
X194236000Y-84255200D01*
X197284000Y-84839400D02*
X197284000Y-83848800D01*
X194515399Y-84661600D02*
G75*
G03*
X194236000Y-84255200I-281982J105381D01*
G01*
D14*
X157916000Y-110630000D02*
X157916000Y-112830000D01*
X157916000Y-110630000D02*
X157916000Y-108430000D01*
X149596000Y-110630000D02*
X149596000Y-114280000D01*
X149596000Y-110630000D02*
X149596000Y-108430000D01*
X165272488Y-100762743D02*
X165272488Y-101237259D01*
X164227488Y-100762743D02*
X164227488Y-101237259D01*
X200786252Y-97755000D02*
X200263748Y-97755000D01*
X200786252Y-96285000D02*
X200263748Y-96285000D01*
X166316956Y-89249052D02*
X167646956Y-89249052D01*
X168976956Y-91849052D02*
X168976956Y-94449052D01*
X166316956Y-94449052D02*
X168976956Y-94449052D01*
X166316956Y-91849052D02*
X168976956Y-91849052D01*
X166316956Y-91849052D02*
X166316956Y-94449052D01*
X166316956Y-90579052D02*
X166316956Y-89249052D01*
X158316956Y-89249052D02*
X159646956Y-89249052D01*
X158316956Y-91849052D02*
X160976956Y-91849052D01*
X158316956Y-90579052D02*
X158316956Y-89249052D01*
X160976956Y-91849052D02*
X160976956Y-94449052D01*
X158316956Y-91849052D02*
X158316956Y-94449052D01*
X158316956Y-94449052D02*
X160976956Y-94449052D01*
X166316956Y-83749052D02*
X166316956Y-86349052D01*
X166316956Y-83749052D02*
X168976956Y-83749052D01*
X166316956Y-82479052D02*
X166316956Y-81149052D01*
X166316956Y-81149052D02*
X167646956Y-81149052D01*
X168976956Y-83749052D02*
X168976956Y-86349052D01*
X166316956Y-86349052D02*
X168976956Y-86349052D01*
X162316956Y-86349052D02*
X164976956Y-86349052D01*
X162316956Y-82479052D02*
X162316956Y-81149052D01*
X164976956Y-83749052D02*
X164976956Y-86349052D01*
X162316956Y-83749052D02*
X162316956Y-86349052D01*
X162316956Y-83749052D02*
X164976956Y-83749052D01*
X162316956Y-81149052D02*
X163646956Y-81149052D01*
X158316956Y-83749052D02*
X160976956Y-83749052D01*
X160976956Y-83749052D02*
X160976956Y-86349052D01*
X158316956Y-82479052D02*
X158316956Y-81149052D01*
X158316956Y-83749052D02*
X158316956Y-86349052D01*
X158316956Y-81149052D02*
X159646956Y-81149052D01*
X158316956Y-86349052D02*
X160976956Y-86349052D01*
X162316956Y-91849052D02*
X164976956Y-91849052D01*
X162316956Y-91849052D02*
X162316956Y-94449052D01*
X162316956Y-90579052D02*
X162316956Y-89249052D01*
X162316956Y-94449052D02*
X164976956Y-94449052D01*
X162316956Y-89249052D02*
X163646956Y-89249052D01*
X164976956Y-91849052D02*
X164976956Y-94449052D01*
X198257258Y-91827500D02*
X197782742Y-91827500D01*
X198257258Y-90782500D02*
X197782742Y-90782500D01*
X185227258Y-93382500D02*
X184752742Y-93382500D01*
X185227258Y-92337500D02*
X184752742Y-92337500D01*
X188022506Y-80483942D02*
X188022506Y-80958458D01*
X186977506Y-80483942D02*
X186977506Y-80958458D01*
X188022506Y-83531942D02*
X188022506Y-84006458D01*
X186977506Y-83531942D02*
X186977506Y-84006458D01*
X195577500Y-93332742D02*
X195577500Y-93807258D01*
X196622500Y-93332742D02*
X196622500Y-93807258D01*
X183912500Y-94952742D02*
X183912500Y-95427258D01*
X182867500Y-94952742D02*
X182867500Y-95427258D01*
X148233505Y-107982733D02*
X148233505Y-108457249D01*
X149278505Y-107982733D02*
X149278505Y-108457249D01*
X200987258Y-98417500D02*
X200512742Y-98417500D01*
X200987258Y-99462500D02*
X200512742Y-99462500D01*
X186977506Y-86579942D02*
X186977506Y-87054458D01*
X188022506Y-86579942D02*
X188022506Y-87054458D01*
X149266005Y-111149432D02*
X149266005Y-111430592D01*
X148246005Y-111149432D02*
X148246005Y-111430592D01*
X167650000Y-102531252D02*
X167650000Y-101108748D01*
X170370000Y-102531252D02*
X170370000Y-101108748D01*
X184819420Y-80520000D02*
X185100580Y-80520000D01*
X184819420Y-79500000D02*
X185100580Y-79500000D01*
X209095792Y-85859800D02*
X209095792Y-86909800D01*
X199695792Y-72009800D02*
X208895792Y-72009800D01*
X208045792Y-86909800D02*
X209095792Y-86909800D01*
X202395792Y-86709800D02*
X199695792Y-86709800D01*
X208895792Y-86709800D02*
X206295792Y-86709800D01*
X199695792Y-86709800D02*
X199695792Y-84809800D01*
X199695792Y-80809800D02*
X199695792Y-72009800D01*
X208895792Y-72009800D02*
X208895792Y-86709800D01*
X108217211Y-90302066D02*
X106097211Y-90302066D01*
X108217211Y-93502066D02*
X108217211Y-90302066D01*
X106097211Y-90302066D02*
X106097211Y-93502066D01*
X182005500Y-123173258D02*
X182005500Y-122698742D01*
X180960500Y-123173258D02*
X180960500Y-122698742D01*
X133097211Y-113701633D02*
X135217211Y-113701633D01*
X135217211Y-113701633D02*
X135217211Y-110501633D01*
X133097211Y-110501633D02*
X133097211Y-113701633D01*
X144757500Y-102697254D02*
X144757500Y-102222738D01*
X145802500Y-102697254D02*
X145802500Y-102222738D01*
X137370000Y-103300000D02*
X137370000Y-105250000D01*
X142490000Y-103300000D02*
X142490000Y-105250000D01*
X142490000Y-103300000D02*
X142490000Y-99850000D01*
X137370000Y-103300000D02*
X137370000Y-101350000D01*
X90217211Y-93502066D02*
X90217211Y-90302066D01*
X90217211Y-90302066D02*
X88097211Y-90302066D01*
X88097211Y-90302066D02*
X88097211Y-93502066D01*
X144757500Y-105777258D02*
X144757500Y-105302742D01*
X145802500Y-105777258D02*
X145802500Y-105302742D01*
X130701252Y-97305000D02*
X130178748Y-97305000D01*
X130701252Y-98775000D02*
X130178748Y-98775000D01*
X135217211Y-93502066D02*
X135217211Y-90302066D01*
X135217211Y-90302066D02*
X133097211Y-90302066D01*
X133097211Y-90302066D02*
X133097211Y-93502066D01*
X130582502Y-102222729D02*
X130582502Y-102697245D01*
X129537502Y-102222729D02*
X129537502Y-102697245D01*
X126097211Y-113701633D02*
X128217211Y-113701633D01*
X128217211Y-113701633D02*
X128217211Y-110501633D01*
X126097211Y-110501633D02*
X126097211Y-113701633D01*
X135097211Y-90302066D02*
X135097211Y-93502066D01*
X137217211Y-90302066D02*
X135097211Y-90302066D01*
X137217211Y-93502066D02*
X137217211Y-90302066D01*
X144217211Y-90302066D02*
X142097211Y-90302066D01*
X142097211Y-90302066D02*
X142097211Y-93502066D01*
X144217211Y-93502066D02*
X144217211Y-90302066D01*
X99097211Y-110501633D02*
X99097211Y-113701633D01*
X101217211Y-113701633D02*
X101217211Y-110501633D01*
X99097211Y-113701633D02*
X101217211Y-113701633D01*
X197111003Y-124675006D02*
X158111003Y-124675006D01*
X197111003Y-96175006D02*
X197111003Y-124675006D01*
X158111003Y-96175006D02*
X197111003Y-96175006D01*
X158111003Y-124675006D02*
X158111003Y-96175006D01*
X186141003Y-121425006D02*
X196701003Y-121425006D01*
X196701003Y-121425006D02*
X196701003Y-123925006D01*
X196701003Y-123925006D02*
X186141003Y-123925006D01*
X186141003Y-123925006D02*
X186141003Y-121425006D01*
X159361003Y-105145006D02*
X161861003Y-105145006D01*
X161861003Y-105145006D02*
X161861003Y-115705006D01*
X161861003Y-115705006D02*
X159361003Y-115705006D01*
X159361003Y-115705006D02*
X159361003Y-105145006D01*
X186141003Y-96925006D02*
X196701003Y-96925006D01*
X196701003Y-96925006D02*
X196701003Y-99425006D01*
X196701003Y-99425006D02*
X186141003Y-99425006D01*
X186141003Y-99425006D02*
X186141003Y-96925006D01*
X132736800Y-98865500D02*
X135683200Y-98865500D01*
X135683200Y-97214500D02*
X132736800Y-97214500D01*
X99097211Y-90302066D02*
X99097211Y-93502066D01*
X101217211Y-90302066D02*
X99097211Y-90302066D01*
X101217211Y-93502066D02*
X101217211Y-90302066D01*
X184516500Y-123173258D02*
X184516500Y-122698742D01*
X185561500Y-123173258D02*
X185561500Y-122698742D01*
X139313200Y-97214500D02*
X136366800Y-97214500D01*
X136366800Y-98865500D02*
X139313200Y-98865500D01*
X130582502Y-105302733D02*
X130582502Y-105777249D01*
X129537502Y-105302733D02*
X129537502Y-105777249D01*
X131150000Y-103330000D02*
X131150000Y-101380000D01*
X136270000Y-103330000D02*
X136270000Y-105280000D01*
X131150000Y-103330000D02*
X131150000Y-105280000D01*
X136270000Y-103330000D02*
X136270000Y-99880000D01*
X126217211Y-113701633D02*
X126217211Y-110501633D01*
X124097211Y-110501633D02*
X124097211Y-113701633D01*
X124097211Y-113701633D02*
X126217211Y-113701633D01*
X115097211Y-110501633D02*
X115097211Y-113701633D01*
X115097211Y-113701633D02*
X117217211Y-113701633D01*
X117217211Y-113701633D02*
X117217211Y-110501633D01*
X189668282Y-72419792D02*
X198908282Y-72419792D01*
X198908282Y-72019792D02*
X198908282Y-78819792D01*
X198908282Y-78819792D02*
X189668282Y-78819792D01*
X189668282Y-78819792D02*
X189668282Y-72019792D01*
X189668282Y-72019792D02*
X198908282Y-72019792D01*
X97495000Y-102570000D02*
X97495000Y-100620000D01*
X107615000Y-102570000D02*
X107615000Y-104520000D01*
X107615000Y-102570000D02*
X107615000Y-99120000D01*
X97495000Y-102570000D02*
X97495000Y-104520000D01*
X161811000Y-125298000D02*
X161811000Y-127958000D01*
X187331000Y-125298000D02*
X187331000Y-126628000D01*
X186001000Y-125298000D02*
X187331000Y-125298000D01*
X184731000Y-127958000D02*
X161811000Y-127958000D01*
X184731000Y-125298000D02*
X161811000Y-125298000D01*
X184731000Y-125298000D02*
X184731000Y-127958000D01*
X81097211Y-113701633D02*
X83217211Y-113701633D01*
X81097211Y-110501633D02*
X81097211Y-113701633D01*
X83217211Y-113701633D02*
X83217211Y-110501633D01*
X117097211Y-113701633D02*
X119217211Y-113701633D01*
X117097211Y-110501633D02*
X117097211Y-113701633D01*
X119217211Y-113701633D02*
X119217211Y-110501633D01*
X110217211Y-113701633D02*
X110217211Y-110501633D01*
X108097211Y-113701633D02*
X110217211Y-113701633D01*
X108097211Y-110501633D02*
X108097211Y-113701633D01*
X103392258Y-97497502D02*
X102917742Y-97497502D01*
X103392258Y-98542502D02*
X102917742Y-98542502D01*
X117097211Y-90302066D02*
X117097211Y-93502066D01*
X119217211Y-90302066D02*
X117097211Y-90302066D01*
X119217211Y-93502066D02*
X119217211Y-90302066D01*
X108097211Y-90302066D02*
X108097211Y-93502066D01*
X110217211Y-93502066D02*
X110217211Y-90302066D01*
X110217211Y-90302066D02*
X108097211Y-90302066D01*
X81217211Y-90302066D02*
X79097211Y-90302066D01*
X81217211Y-93502066D02*
X81217211Y-90302066D01*
X79097211Y-90302066D02*
X79097211Y-93502066D01*
X99217211Y-113701633D02*
X99217211Y-110501633D01*
X97097211Y-113701633D02*
X99217211Y-113701633D01*
X97097211Y-110501633D02*
X97097211Y-113701633D01*
X197573292Y-87031052D02*
X197573292Y-86508548D01*
X199043292Y-87031052D02*
X199043292Y-86508548D01*
X183126000Y-119540000D02*
X183126000Y-118540000D01*
X202451000Y-101300000D02*
X202451000Y-100920000D01*
X183126000Y-101300000D02*
X183126000Y-102300000D01*
X208871000Y-101300000D02*
X202451000Y-101300000D01*
X208871000Y-119540000D02*
X202451000Y-119540000D01*
X183906000Y-119540000D02*
X183126000Y-119540000D01*
X183906000Y-101300000D02*
X183126000Y-101300000D01*
X208871000Y-101300000D02*
X208871000Y-119540000D01*
X79097211Y-110501633D02*
X79097211Y-113701633D01*
X81217211Y-113701633D02*
X81217211Y-110501633D01*
X79097211Y-113701633D02*
X81217211Y-113701633D01*
X143100013Y-102319407D02*
X143100013Y-102600567D01*
X144120013Y-102319407D02*
X144120013Y-102600567D01*
X198340993Y-130660000D02*
X198340993Y-130250000D01*
X185263373Y-139290000D02*
X185263373Y-130660000D01*
X184670993Y-139290000D02*
X184670993Y-130660000D01*
X186326228Y-139290000D02*
X186326228Y-130660000D01*
X188900993Y-130660000D02*
X188900993Y-130250000D01*
X193260993Y-130660000D02*
X193260993Y-130250000D01*
X184909088Y-139290000D02*
X184909088Y-130660000D01*
X189810993Y-139290000D02*
X189810993Y-130660000D01*
X186680513Y-139290000D02*
X186680513Y-130660000D01*
X184670993Y-128090000D02*
X186000993Y-128090000D01*
X187152893Y-139290000D02*
X187152893Y-130660000D01*
X186444323Y-139290000D02*
X186444323Y-130660000D01*
X185640993Y-130660000D02*
X185640993Y-130310000D01*
X186562418Y-139290000D02*
X186562418Y-130660000D01*
X187270993Y-139290000D02*
X187270993Y-130660000D01*
X185617658Y-139290000D02*
X185617658Y-130660000D01*
X186360993Y-130660000D02*
X186360993Y-130310000D01*
X188180993Y-130660000D02*
X188180993Y-130250000D01*
X200880993Y-130660000D02*
X200880993Y-130250000D01*
X185735753Y-139290000D02*
X185735753Y-130660000D01*
X184670993Y-139290000D02*
X202570993Y-139290000D01*
X196520993Y-130660000D02*
X196520993Y-130250000D01*
X186916703Y-139290000D02*
X186916703Y-130660000D01*
X197430993Y-139290000D02*
X197430993Y-130660000D01*
X185145278Y-139290000D02*
X185145278Y-130660000D01*
X186208133Y-139290000D02*
X186208133Y-130660000D01*
X199060993Y-130660000D02*
X199060993Y-130250000D01*
X184670993Y-129200000D02*
X184670993Y-128090000D01*
X192350993Y-139290000D02*
X192350993Y-130660000D01*
X199970993Y-139290000D02*
X199970993Y-130660000D01*
X185853848Y-139290000D02*
X185853848Y-130660000D01*
X186798608Y-139290000D02*
X186798608Y-130660000D01*
X194890993Y-139290000D02*
X194890993Y-130660000D01*
X202570993Y-139290000D02*
X202570993Y-130660000D01*
X184670993Y-130660000D02*
X202570993Y-130660000D01*
X185971943Y-139290000D02*
X185971943Y-130660000D01*
X185499563Y-139290000D02*
X185499563Y-130660000D01*
X185027183Y-139290000D02*
X185027183Y-130660000D01*
X184790993Y-139290000D02*
X184790993Y-130660000D01*
X191440993Y-130660000D02*
X191440993Y-130250000D01*
X193980993Y-130660000D02*
X193980993Y-130250000D01*
X195800993Y-130660000D02*
X195800993Y-130250000D01*
X187034798Y-139290000D02*
X187034798Y-130660000D01*
X186090038Y-139290000D02*
X186090038Y-130660000D01*
X190720993Y-130660000D02*
X190720993Y-130250000D01*
X201600993Y-130660000D02*
X201600993Y-130250000D01*
X185381468Y-139290000D02*
X185381468Y-130660000D01*
X166005488Y-101237259D02*
X166005488Y-100762743D01*
X167050488Y-101237259D02*
X167050488Y-100762743D01*
X90097211Y-110501633D02*
X90097211Y-113701633D01*
X92217211Y-113701633D02*
X92217211Y-110501633D01*
X90097211Y-113701633D02*
X92217211Y-113701633D01*
X126097211Y-90302066D02*
X126097211Y-93502066D01*
X128217211Y-93502066D02*
X128217211Y-90302066D01*
X128217211Y-90302066D02*
X126097211Y-90302066D01*
X92097836Y-97820000D02*
X91882164Y-97820000D01*
X92097836Y-98540000D02*
X91882164Y-98540000D01*
X90217211Y-113701633D02*
X90217211Y-110501633D01*
X88097211Y-110501633D02*
X88097211Y-113701633D01*
X88097211Y-113701633D02*
X90217211Y-113701633D01*
X141288748Y-98775000D02*
X141811252Y-98775000D01*
X141288748Y-97305000D02*
X141811252Y-97305000D01*
X163141000Y-78702000D02*
X161811000Y-78702000D01*
X187331000Y-78702000D02*
X187331000Y-76042000D01*
X164411000Y-78702000D02*
X187331000Y-78702000D01*
X164411000Y-76042000D02*
X187331000Y-76042000D01*
X164411000Y-78702000D02*
X164411000Y-76042000D01*
X161811000Y-78702000D02*
X161811000Y-77372000D01*
X126217211Y-90302066D02*
X124097211Y-90302066D01*
X126217211Y-93502066D02*
X126217211Y-90302066D01*
X124097211Y-90302066D02*
X124097211Y-93502066D01*
X100150580Y-98530002D02*
X99869420Y-98530002D01*
X100150580Y-97510002D02*
X99869420Y-97510002D01*
X143100001Y-105680580D02*
X143100001Y-105399420D01*
X144120001Y-105680580D02*
X144120001Y-105399420D01*
X146217211Y-113701633D02*
X146217211Y-110501633D01*
X144097211Y-110501633D02*
X144097211Y-113701633D01*
X144097211Y-113701633D02*
X146217211Y-113701633D01*
X93298506Y-99722754D02*
X93298506Y-100197270D01*
X92253506Y-99722754D02*
X92253506Y-100197270D01*
X182738500Y-123173258D02*
X182738500Y-122698742D01*
X183783500Y-123173258D02*
X183783500Y-122698742D01*
X178745000Y-86910000D02*
X177245000Y-86910000D01*
X177245000Y-80110000D02*
X178745000Y-80110000D01*
X178745000Y-86560000D02*
X178745000Y-86910000D01*
X178745000Y-80110000D02*
X178745000Y-80510000D01*
X178745000Y-81910000D02*
X178745000Y-85110000D01*
X117217211Y-93502066D02*
X117217211Y-90302066D01*
X117217211Y-90302066D02*
X115097211Y-90302066D01*
X115097211Y-90302066D02*
X115097211Y-93502066D01*
X106537258Y-97497502D02*
X106062742Y-97497502D01*
X106537258Y-98542502D02*
X106062742Y-98542502D01*
X178390000Y-107095000D02*
X178390000Y-108595000D01*
X178040000Y-107095000D02*
X178390000Y-107095000D01*
X171590000Y-107095000D02*
X171990000Y-107095000D01*
X173390000Y-107095000D02*
X176590000Y-107095000D01*
X171590000Y-108595000D02*
X171590000Y-107095000D01*
X92217211Y-90302066D02*
X90097211Y-90302066D01*
X92217211Y-93502066D02*
X92217211Y-90302066D01*
X90097211Y-90302066D02*
X90097211Y-93502066D01*
X146217211Y-90302066D02*
X144097211Y-90302066D01*
X146217211Y-93502066D02*
X146217211Y-90302066D01*
X144097211Y-90302066D02*
X144097211Y-93502066D01*
X83217211Y-93502066D02*
X83217211Y-90302066D01*
X81097211Y-90302066D02*
X81097211Y-93502066D01*
X83217211Y-90302066D02*
X81097211Y-90302066D01*
X108217211Y-113701633D02*
X108217211Y-110501633D01*
X106097211Y-113701633D02*
X108217211Y-113701633D01*
X106097211Y-110501633D02*
X106097211Y-113701633D01*
X97097211Y-90302066D02*
X97097211Y-93502066D01*
X99217211Y-93502066D02*
X99217211Y-90302066D01*
X99217211Y-90302066D02*
X97097211Y-90302066D01*
X144217211Y-113701633D02*
X144217211Y-110501633D01*
X142097211Y-110501633D02*
X142097211Y-113701633D01*
X142097211Y-113701633D02*
X144217211Y-113701633D01*
X135097211Y-110501633D02*
X135097211Y-113701633D01*
X135097211Y-113701633D02*
X137217211Y-113701633D01*
X137217211Y-113701633D02*
X137217211Y-110501633D01*
X58145002Y-87539995D02*
X58145002Y-117539995D01*
X52495002Y-84539995D02*
X57345002Y-84539995D01*
X57345002Y-87539995D02*
X58145002Y-87539995D01*
X57345002Y-84539995D02*
X57345002Y-87539995D01*
X57345002Y-117539995D02*
X58145002Y-117539995D01*
X57345002Y-120539995D02*
X57345002Y-117539995D01*
X52495002Y-120539995D02*
X57345002Y-120539995D01*
X52495002Y-84539995D02*
X52495002Y-120539995D01*
M02*
