G04 #@! TF.GenerationSoftware,KiCad,Pcbnew,(6.0.5-0)*
G04 #@! TF.CreationDate,2022-08-15T05:53:00+09:00*
G04 #@! TF.ProjectId,qLAMP-main,714c414d-502d-46d6-9169-6e2e6b696361,rev?*
G04 #@! TF.SameCoordinates,Original*
G04 #@! TF.FileFunction,Soldermask,Top*
G04 #@! TF.FilePolarity,Negative*
%FSLAX46Y46*%
G04 Gerber Fmt 4.6, Leading zero omitted, Abs format (unit mm)*
G04 Created by KiCad (PCBNEW (6.0.5-0)) date 2022-08-15 05:53:00*
%MOMM*%
%LPD*%
G01*
G04 APERTURE LIST*
G04 Aperture macros list*
%AMRoundRect*
0 Rectangle with rounded corners*
0 $1 Rounding radius*
0 $2 $3 $4 $5 $6 $7 $8 $9 X,Y pos of 4 corners*
0 Add a 4 corners polygon primitive as box body*
4,1,4,$2,$3,$4,$5,$6,$7,$8,$9,$2,$3,0*
0 Add four circle primitives for the rounded corners*
1,1,$1+$1,$2,$3*
1,1,$1+$1,$4,$5*
1,1,$1+$1,$6,$7*
1,1,$1+$1,$8,$9*
0 Add four rect primitives between the rounded corners*
20,1,$1+$1,$2,$3,$4,$5,0*
20,1,$1+$1,$4,$5,$6,$7,0*
20,1,$1+$1,$6,$7,$8,$9,0*
20,1,$1+$1,$8,$9,$2,$3,0*%
%AMFreePoly0*
4,1,22,0.500000,-0.750000,0.000000,-0.750000,0.000000,-0.745033,-0.079941,-0.743568,-0.215256,-0.701293,-0.333266,-0.622738,-0.424486,-0.514219,-0.481581,-0.384460,-0.499164,-0.250000,-0.500000,-0.250000,-0.500000,0.250000,-0.499164,0.250000,-0.499963,0.256109,-0.478152,0.396186,-0.417904,0.524511,-0.324060,0.630769,-0.204165,0.706417,-0.067858,0.745374,0.000000,0.744959,0.000000,0.750000,
0.500000,0.750000,0.500000,-0.750000,0.500000,-0.750000,$1*%
%AMFreePoly1*
4,1,20,0.000000,0.744959,0.073905,0.744508,0.209726,0.703889,0.328688,0.626782,0.421226,0.519385,0.479903,0.390333,0.500000,0.250000,0.500000,-0.250000,0.499851,-0.262216,0.476331,-0.402017,0.414519,-0.529596,0.319384,-0.634700,0.198574,-0.708877,0.061801,-0.746166,0.000000,-0.745033,0.000000,-0.750000,-0.500000,-0.750000,-0.500000,0.750000,0.000000,0.750000,0.000000,0.744959,
0.000000,0.744959,$1*%
G04 Aperture macros list end*
%ADD10C,0.475000*%
%ADD11C,2.000000*%
%ADD12FreePoly0,180.000000*%
%ADD13FreePoly1,180.000000*%
%ADD14RoundRect,0.100000X-0.100000X0.637500X-0.100000X-0.637500X0.100000X-0.637500X0.100000X0.637500X0*%
%ADD15RoundRect,0.150000X-0.512500X-0.150000X0.512500X-0.150000X0.512500X0.150000X-0.512500X0.150000X0*%
%ADD16RoundRect,0.250000X-0.250000X-0.475000X0.250000X-0.475000X0.250000X0.475000X-0.250000X0.475000X0*%
%ADD17R,1.219200X3.098800*%
%ADD18RoundRect,0.225000X-0.225000X-0.250000X0.225000X-0.250000X0.225000X0.250000X-0.225000X0.250000X0*%
%ADD19RoundRect,0.250000X0.325000X1.100000X-0.325000X1.100000X-0.325000X-1.100000X0.325000X-1.100000X0*%
%ADD20RoundRect,0.225000X0.225000X0.250000X-0.225000X0.250000X-0.225000X-0.250000X0.225000X-0.250000X0*%
%ADD21RoundRect,0.250000X-1.100000X0.325000X-1.100000X-0.325000X1.100000X-0.325000X1.100000X0.325000X0*%
%ADD22RoundRect,0.225000X0.250000X-0.225000X0.250000X0.225000X-0.250000X0.225000X-0.250000X-0.225000X0*%
%ADD23RoundRect,0.250000X0.250000X0.475000X-0.250000X0.475000X-0.250000X-0.475000X0.250000X-0.475000X0*%
%ADD24RoundRect,0.250000X1.100000X-0.325000X1.100000X0.325000X-1.100000X0.325000X-1.100000X-0.325000X0*%
%ADD25RoundRect,0.111230X0.763770X0.111230X-0.763770X0.111230X-0.763770X-0.111230X0.763770X-0.111230X0*%
%ADD26RoundRect,0.225000X-0.250000X0.225000X-0.250000X-0.225000X0.250000X-0.225000X0.250000X0.225000X0*%
%ADD27RoundRect,0.111665X0.111665X-0.550835X0.111665X0.550835X-0.111665X0.550835X-0.111665X-0.550835X0*%
%ADD28RoundRect,0.200000X0.200000X0.275000X-0.200000X0.275000X-0.200000X-0.275000X0.200000X-0.275000X0*%
%ADD29RoundRect,0.200000X-0.275000X0.200000X-0.275000X-0.200000X0.275000X-0.200000X0.275000X0.200000X0*%
%ADD30RoundRect,0.150000X-0.150000X0.825000X-0.150000X-0.825000X0.150000X-0.825000X0.150000X0.825000X0*%
%ADD31R,1.320800X0.558800*%
%ADD32R,0.558800X1.320800*%
%ADD33R,2.400000X4.680000*%
%ADD34RoundRect,0.100000X0.687500X0.100000X-0.687500X0.100000X-0.687500X-0.100000X0.687500X-0.100000X0*%
%ADD35RoundRect,0.200000X-0.200000X-0.275000X0.200000X-0.275000X0.200000X0.275000X-0.200000X0.275000X0*%
%ADD36RoundRect,0.225000X-0.475000X0.225000X-0.475000X-0.225000X0.475000X-0.225000X0.475000X0.225000X0*%
%ADD37O,1.400000X0.900000*%
%ADD38R,1.000000X1.000000*%
%ADD39O,1.000000X1.000000*%
%ADD40R,1.700000X1.700000*%
%ADD41O,1.700000X1.700000*%
%ADD42R,3.500000X3.500000*%
%ADD43RoundRect,0.750000X-1.000000X0.750000X-1.000000X-0.750000X1.000000X-0.750000X1.000000X0.750000X0*%
%ADD44RoundRect,0.875000X-0.875000X0.875000X-0.875000X-0.875000X0.875000X-0.875000X0.875000X0.875000X0*%
%ADD45R,1.600000X1.000000*%
%ADD46RoundRect,0.180000X0.270000X1.370000X-0.270000X1.370000X-0.270000X-1.370000X0.270000X-1.370000X0*%
%ADD47RoundRect,0.180000X0.270000X1.120000X-0.270000X1.120000X-0.270000X-1.120000X0.270000X-1.120000X0*%
%ADD48C,1.700000*%
%ADD49RoundRect,0.260000X0.390000X-0.640000X0.390000X0.640000X-0.390000X0.640000X-0.390000X-0.640000X0*%
%ADD50RoundRect,0.200000X0.300000X-0.700000X0.300000X0.700000X-0.300000X0.700000X-0.300000X-0.700000X0*%
%ADD51RoundRect,0.035000X0.315000X0.465000X-0.315000X0.465000X-0.315000X-0.465000X0.315000X-0.465000X0*%
%ADD52RoundRect,0.040000X0.360000X0.460000X-0.360000X0.460000X-0.360000X-0.460000X0.360000X-0.460000X0*%
%ADD53O,1.000000X1.800000*%
%ADD54RoundRect,0.150000X-0.825000X-0.150000X0.825000X-0.150000X0.825000X0.150000X-0.825000X0.150000X0*%
%ADD55RoundRect,0.280000X0.420000X0.720000X-0.420000X0.720000X-0.420000X-0.720000X0.420000X-0.720000X0*%
%ADD56RoundRect,0.240000X0.460000X0.360000X-0.460000X0.360000X-0.460000X-0.360000X0.460000X-0.360000X0*%
%ADD57RoundRect,0.250000X0.475000X-0.250000X0.475000X0.250000X-0.475000X0.250000X-0.475000X-0.250000X0*%
%ADD58R,0.900000X2.000000*%
%ADD59R,2.000000X0.900000*%
%ADD60R,5.000000X5.000000*%
%ADD61R,3.500000X2.000000*%
%ADD62R,7.000000X7.000000*%
%ADD63R,1.600000X1.600000*%
%ADD64O,1.600000X1.600000*%
%ADD65R,2.000000X3.500000*%
%ADD66RoundRect,0.260000X-0.390000X0.640000X-0.390000X-0.640000X0.390000X-0.640000X0.390000X0.640000X0*%
%ADD67RoundRect,0.200000X-0.300000X0.700000X-0.300000X-0.700000X0.300000X-0.700000X0.300000X0.700000X0*%
G04 APERTURE END LIST*
D10*
X77636000Y-126500000D02*
G75*
G03*
X77636000Y-126500000I-400000J0D01*
G01*
X76636000Y-75000000D02*
G75*
G03*
X76636000Y-75000000I-400000J0D01*
G01*
X148636000Y-128000000D02*
G75*
G03*
X148636000Y-128000000I-400000J0D01*
G01*
X204260000Y-129840000D02*
G75*
G03*
X204260000Y-129840000I-400000J0D01*
G01*
X149340000Y-81660000D02*
G75*
G03*
X149340000Y-81660000I-400000J0D01*
G01*
X207750000Y-74695000D02*
G75*
G03*
X207750000Y-74695000I-400000J0D01*
G01*
D11*
X205069999Y-89680009D03*
X205069999Y-93180009D03*
D12*
X147640000Y-124280000D03*
D13*
X146340000Y-124280000D03*
D14*
X193553292Y-81537300D03*
X192903292Y-81537300D03*
X192253292Y-81537300D03*
X191603292Y-81537300D03*
X190953292Y-81537300D03*
X190303292Y-81537300D03*
X189653292Y-81537300D03*
X189003292Y-81537300D03*
X189003292Y-87262300D03*
X189653292Y-87262300D03*
X190303292Y-87262300D03*
X190953292Y-87262300D03*
X191603292Y-87262300D03*
X192253292Y-87262300D03*
X192903292Y-87262300D03*
X193553292Y-87262300D03*
D15*
X127665878Y-102840011D03*
X127665878Y-103790011D03*
X127665878Y-104740011D03*
X129940878Y-104740011D03*
X129940878Y-102840011D03*
D16*
X127853378Y-100919989D03*
X129753378Y-100919989D03*
D17*
X176200000Y-89387300D03*
X176200000Y-94492700D03*
D18*
X128028376Y-98850000D03*
X129578376Y-98850000D03*
D19*
X171795000Y-88130000D03*
X168845000Y-88130000D03*
D20*
X171235010Y-91440000D03*
X169685010Y-91440000D03*
D21*
X181790000Y-81695000D03*
X181790000Y-84645000D03*
D22*
X163940000Y-101755000D03*
X163940000Y-100205000D03*
D23*
X129733376Y-106560000D03*
X127833376Y-106560000D03*
D18*
X195195000Y-81780000D03*
X196745000Y-81780000D03*
D24*
X94990006Y-100675005D03*
X94990006Y-97725005D03*
D11*
X191850000Y-90800000D03*
X191850000Y-94300000D03*
D25*
X86295999Y-106695011D03*
X86295999Y-106045013D03*
X86295999Y-105395012D03*
X86295999Y-104745012D03*
X86295999Y-104095012D03*
X86295999Y-103445012D03*
X86295999Y-102795012D03*
X86295999Y-102145012D03*
X86295999Y-101495012D03*
X86295999Y-100845012D03*
X86295999Y-100195011D03*
X86295999Y-99545013D03*
X79095999Y-99545013D03*
X79095999Y-100195011D03*
X79095999Y-100845012D03*
X79095999Y-101495012D03*
X79095999Y-102145012D03*
X79095999Y-102795012D03*
X79095999Y-103445012D03*
X79095999Y-104095012D03*
X79095999Y-104745012D03*
X79095999Y-105395012D03*
X79095999Y-106045013D03*
X79095999Y-106695011D03*
D26*
X88080012Y-98635012D03*
X88080012Y-100185012D03*
D22*
X179705000Y-123711000D03*
X179705000Y-122161000D03*
D20*
X92174995Y-103796008D03*
X90624995Y-103796008D03*
D27*
X155235000Y-101287500D03*
X155885000Y-101287500D03*
X156535000Y-101287500D03*
X157185000Y-101287500D03*
X157185000Y-99012500D03*
X156535000Y-99012500D03*
X155885000Y-99012500D03*
X155235000Y-99012500D03*
D15*
X89732499Y-98460012D03*
X89732499Y-99410012D03*
X89732499Y-100360012D03*
X92007499Y-100360012D03*
X92007499Y-98460012D03*
D28*
X92224995Y-102272008D03*
X90574995Y-102272008D03*
D29*
X156670000Y-95535000D03*
X156670000Y-97185000D03*
X155030000Y-95545000D03*
X155030000Y-97195000D03*
D30*
X167105000Y-92465000D03*
X165835000Y-92465000D03*
X164565000Y-92465000D03*
X163295000Y-92465000D03*
X162025000Y-92465000D03*
X160755000Y-92465000D03*
X159485000Y-92465000D03*
X158215000Y-92465000D03*
X158215000Y-97415000D03*
X159485000Y-97415000D03*
X160755000Y-97415000D03*
X162025000Y-97415000D03*
X163295000Y-97415000D03*
X164565000Y-97415000D03*
X165835000Y-97415000D03*
X167105000Y-97415000D03*
D18*
X128028376Y-97050000D03*
X129578376Y-97050000D03*
D31*
X197927800Y-93340200D03*
X197927800Y-95219800D03*
X200112200Y-94280000D03*
X185087800Y-94180200D03*
X185087800Y-96059800D03*
X187272200Y-95120000D03*
D32*
X194820200Y-85652200D03*
X196699800Y-85652200D03*
X195760000Y-83467800D03*
D33*
X138410000Y-101440000D03*
D34*
X141272500Y-105015000D03*
X141272500Y-104365000D03*
X141272500Y-103715000D03*
X141272500Y-103065000D03*
X141272500Y-102415000D03*
X141272500Y-101765000D03*
X141272500Y-101115000D03*
X141272500Y-100465000D03*
X141272500Y-99815000D03*
X141272500Y-99165000D03*
X141272500Y-98515000D03*
X141272500Y-97865000D03*
X135547500Y-97865000D03*
X135547500Y-98515000D03*
X135547500Y-99165000D03*
X135547500Y-99815000D03*
X135547500Y-100465000D03*
X135547500Y-101115000D03*
X135547500Y-101765000D03*
X135547500Y-102415000D03*
X135547500Y-103065000D03*
X135547500Y-103715000D03*
X135547500Y-104365000D03*
X135547500Y-105015000D03*
D35*
X180531000Y-98819995D03*
X182181000Y-98819995D03*
D23*
X201475000Y-97020000D03*
X199575000Y-97020000D03*
D36*
X164035003Y-86795000D03*
D37*
X164035003Y-88045000D03*
D36*
X159590003Y-86795000D03*
D37*
X159590003Y-88045000D03*
D38*
X165106960Y-83749058D03*
D39*
X165106960Y-82479058D03*
D38*
X162376968Y-83749058D03*
D39*
X162376968Y-82479058D03*
D38*
X159646950Y-83749058D03*
D39*
X159646950Y-82479058D03*
D40*
X156020008Y-91915005D03*
D41*
X156020008Y-89375005D03*
D28*
X198845000Y-91305000D03*
X197195000Y-91305000D03*
X185815000Y-92860000D03*
X184165000Y-92860000D03*
D29*
X187500006Y-79896200D03*
X187500006Y-81546200D03*
X187500006Y-82944200D03*
X187500006Y-84594200D03*
X196100000Y-92745000D03*
X196100000Y-94395000D03*
X183390000Y-94365000D03*
X183390000Y-96015000D03*
D35*
X139574998Y-106699991D03*
X141224998Y-106699991D03*
D28*
X201575000Y-98940000D03*
X199925000Y-98940000D03*
D29*
X187500006Y-85992200D03*
X187500006Y-87642200D03*
D18*
X135785001Y-106699991D03*
X137335001Y-106699991D03*
D24*
X166870000Y-102825000D03*
X166870000Y-99875000D03*
D18*
X180905000Y-80050000D03*
X182455000Y-80050000D03*
D42*
X204295792Y-85809800D03*
D43*
X204295792Y-79809800D03*
D44*
X199595792Y-82809800D03*
D29*
X185039000Y-122111000D03*
X185039000Y-123761000D03*
D45*
X89157211Y-91002066D03*
X89157211Y-94002066D03*
X134157211Y-91002066D03*
X134157211Y-94002066D03*
X127157211Y-113001633D03*
X127157211Y-110001633D03*
X136157211Y-91002066D03*
X136157211Y-94002066D03*
X143157211Y-91002066D03*
X143157211Y-94002066D03*
D46*
X101122212Y-111501633D03*
D47*
X96592212Y-111501633D03*
D48*
X187611003Y-98175006D03*
X190151003Y-98175006D03*
X192691003Y-98175006D03*
X195231003Y-98175006D03*
X187611003Y-122675006D03*
X190151003Y-122675006D03*
X192691003Y-122675006D03*
X195231003Y-122675006D03*
X160611003Y-106615006D03*
X160611003Y-109155006D03*
X160611003Y-111695006D03*
X160611003Y-114235006D03*
D49*
X100236001Y-94300000D03*
D50*
X100886001Y-90100000D03*
X99586001Y-90100000D03*
D29*
X181483000Y-122111000D03*
X181483000Y-123761000D03*
D45*
X125157211Y-113001633D03*
X125157211Y-110001633D03*
D51*
X194788282Y-78419792D03*
X192788282Y-78419792D03*
D52*
X191588282Y-78419792D03*
D51*
X193788282Y-78419792D03*
X195788282Y-78419792D03*
D52*
X196988282Y-78419792D03*
D53*
X198608282Y-78419792D03*
X198608282Y-74619792D03*
X189968282Y-78419792D03*
X189968282Y-74619792D03*
D54*
X98335009Y-97554999D03*
X98335009Y-98824999D03*
X98335009Y-100094999D03*
X98335009Y-101364999D03*
X98335009Y-102634999D03*
X98335009Y-103904999D03*
X98335009Y-105174999D03*
X98335009Y-106444999D03*
X103285009Y-106444999D03*
X103285009Y-105174999D03*
X103285009Y-103904999D03*
X103285009Y-102634999D03*
X103285009Y-101364999D03*
X103285009Y-100094999D03*
X103285009Y-98824999D03*
X103285009Y-97554999D03*
D40*
X186001000Y-126628000D03*
D41*
X183461000Y-126628000D03*
X180921000Y-126628000D03*
X178381000Y-126628000D03*
X175841000Y-126628000D03*
X173301000Y-126628000D03*
X170761000Y-126628000D03*
X168221000Y-126628000D03*
X165681000Y-126628000D03*
X163141000Y-126628000D03*
D45*
X82157211Y-113001633D03*
X82157211Y-110001633D03*
D46*
X119122212Y-111501633D03*
D47*
X114592212Y-111501633D03*
D45*
X109157211Y-113001633D03*
X109157211Y-110001633D03*
D35*
X94165006Y-103796008D03*
X95815006Y-103796008D03*
D55*
X119907212Y-92502066D03*
D56*
X113807212Y-92502066D03*
D55*
X110907212Y-92502066D03*
D56*
X104807212Y-92502066D03*
D45*
X80157211Y-91002066D03*
X80157211Y-94002066D03*
D57*
X198308292Y-87719800D03*
X198308292Y-85819800D03*
D58*
X201261000Y-101920000D03*
X199991000Y-101920000D03*
X198721000Y-101920000D03*
X197451000Y-101920000D03*
X196181000Y-101920000D03*
X194910989Y-101919989D03*
X193640989Y-101919989D03*
X192371000Y-101920000D03*
X191101000Y-101920000D03*
X189831000Y-101920000D03*
X188561000Y-101920000D03*
X187291000Y-101920000D03*
X186021000Y-101920000D03*
X184751000Y-101920000D03*
D59*
X183751000Y-104705000D03*
X183751000Y-105975000D03*
X183751000Y-107245000D03*
X183751000Y-108515000D03*
X183751000Y-109785000D03*
X183751000Y-111055000D03*
X183751000Y-112325000D03*
X183751000Y-113595000D03*
X183751000Y-114865000D03*
X183751000Y-116135000D03*
D58*
X184751000Y-118920000D03*
X186021000Y-118920000D03*
X187291000Y-118920000D03*
X188561000Y-118920000D03*
X189831000Y-118920000D03*
X191101000Y-118920000D03*
X192371000Y-118920000D03*
X193641000Y-118920000D03*
X194911000Y-118920000D03*
X196181000Y-118920000D03*
X197451000Y-118920000D03*
X198721000Y-118920000D03*
X199991000Y-118920000D03*
X201261000Y-118920000D03*
D60*
X193761000Y-109420000D03*
D45*
X80157211Y-113001633D03*
X80157211Y-110001633D03*
D40*
X186000993Y-129200000D03*
D41*
X188540993Y-129200000D03*
X191080993Y-129200000D03*
X193620993Y-129200000D03*
X196160993Y-129200000D03*
X198701000Y-129199996D03*
X201240993Y-129200000D03*
D35*
X183579000Y-98819995D03*
X185229000Y-98819995D03*
D55*
X92907212Y-111501633D03*
D56*
X86807212Y-111501633D03*
D45*
X127157211Y-91002066D03*
X127157211Y-94002066D03*
D40*
X163141000Y-77372000D03*
D41*
X165681000Y-77372000D03*
X168221000Y-77372000D03*
X170761000Y-77372000D03*
X173301000Y-77372000D03*
X175841000Y-77372000D03*
X178381000Y-77372000D03*
X180921000Y-77372000D03*
X183461000Y-77372000D03*
X186001000Y-77372000D03*
D45*
X125157211Y-91002066D03*
X125157211Y-94002066D03*
D20*
X95765006Y-105320008D03*
X94215006Y-105320008D03*
D45*
X145157211Y-113001633D03*
X145157211Y-110001633D03*
D29*
X183261000Y-122111000D03*
X183261000Y-123761000D03*
D61*
X177945000Y-85210000D03*
X177945000Y-80630000D03*
D62*
X170545000Y-82910000D03*
D63*
X106029989Y-104929991D03*
D64*
X108569989Y-104929991D03*
X111109989Y-104929991D03*
X113649989Y-104929991D03*
X116189989Y-104929991D03*
X118729989Y-104929991D03*
X121269989Y-104929991D03*
X123809989Y-104929991D03*
X123809989Y-97309991D03*
X121269989Y-97309991D03*
X118729989Y-97309991D03*
X116189989Y-97309991D03*
X113649989Y-97309991D03*
X111109989Y-97309991D03*
X108569989Y-97309991D03*
X106029989Y-97309991D03*
D35*
X94165006Y-102272008D03*
X95815006Y-102272008D03*
D65*
X168270000Y-105815000D03*
X163690000Y-105815000D03*
D62*
X165970000Y-113215000D03*
D35*
X90574995Y-105320008D03*
X92224995Y-105320008D03*
D45*
X91157211Y-91002066D03*
X91157211Y-94002066D03*
X145157211Y-91002066D03*
X145157211Y-94002066D03*
X82157211Y-91002066D03*
X82157211Y-94002066D03*
X107157211Y-113001633D03*
X107157211Y-110001633D03*
D66*
X98136001Y-90700000D03*
D67*
X97486001Y-94900000D03*
X98786001Y-94900000D03*
D40*
X88719990Y-104785008D03*
D41*
X88719990Y-102245008D03*
D45*
X143157211Y-113001633D03*
X143157211Y-110001633D03*
D46*
X137122212Y-111501633D03*
D47*
X132592212Y-111501633D03*
D38*
X88240000Y-107050000D03*
X94590009Y-107050012D03*
X193640989Y-100070006D03*
X89166011Y-96930033D03*
X84085995Y-96930009D03*
D39*
X85355995Y-96930009D03*
D38*
X182280001Y-119160011D03*
X90780000Y-107050000D03*
D39*
X89510000Y-107050000D03*
D38*
X92050000Y-107050000D03*
D39*
X93320000Y-107050000D03*
D38*
X194910989Y-100070006D03*
X86625995Y-96930009D03*
D39*
X87896003Y-96930021D03*
M02*
