0
SECTION
2
HEADER
9
$INSUNITS
70
4
9
$ACADVER
1
AC1014
9
$HANDSEED
5
FFFF
0
ENDSEC
0
SECTION
2
TABLES
0
TABLE
2
VPORT
5
8
100
AcDbSymbolTable
0
ENDTAB
0
TABLE
2
LTYPE
5
5
100
AcDbSymbolTable
0
LTYPE
5
14
100
AcDbSymbolTableRecord
100
AcDbLinetypeTableRecord
2
BYBLOCK
70
0
0
LTYPE
5
15
100
AcDbSymbolTableRecord
100
AcDbLinetypeTableRecord
2
BYLAYER
70
0
0
ENDTAB
0
TABLE
2
LAYER
5
2
100
AcDbSymbolTable
70
2
0
LAYER
5
50
100
AcDbSymbolTableRecord
100
AcDbLayerTableRecord
2
0
70
0
6
CONTINUOUS
0
ENDTAB
0
TABLE
2
STYLE
5
3
100
AcDbSymbolTable
70
1
0
STYLE
5
11
100
AcDbSymbolTableRecord
100
AcDbTextStyleTableRecord
2
STANDARD
70
0
0
ENDTAB
0
TABLE
2
VIEW
5
6
100
AcDbSymbolTable
70
0
0
ENDTAB
0
TABLE
2
UCS
5
7
100
AcDbSymbolTable
70
0
0
ENDTAB
0
TABLE
2
APPID
5
9
100
AcDbSymbolTable
70
2
0
APPID
5
12
100
AcDbSymbolTableRecord
100
AcDbRegAppTableRecord
2
ACAD
70
0
0
ENDTAB
0
TABLE
2
DIMSTYLE
5
A
100
AcDbSymbolTable
70
1
0
ENDTAB
0
TABLE
2
BLOCK_RECORD
5
1
100
AcDbSymbolTable
70
1
0
BLOCK_RECORD
5
1F
100
AcDbSymbolTableRecord
100
AcDbBlockTableRecord
2
*MODEL_SPACE
0
BLOCK_RECORD
5
1B
100
AcDbSymbolTableRecord
100
AcDbBlockTableRecord
2
*PAPER_SPACE
0
ENDTAB
0
ENDSEC
0
SECTION
2
BLOCKS
0
BLOCK
5
20
100
AcDbEntity
100
AcDbBlockBegin
2
*MODEL_SPACE
0
ENDBLK
5
21
100
AcDbEntity
100
AcDbBlockEnd
0
BLOCK
5
1C
100
AcDbEntity
100
AcDbBlockBegin
2
*PAPER_SPACE
0
ENDBLK
5
1D
100
AcDbEntity
100
AcDbBlockEnd
0
ENDSEC
0
SECTION
2
ENTITIES
0
LINE
5
100
100
AcDbEntity
8
0
100
AcDbLine
10
-30.498002070631266
20
-0.83084969314594748
30
1.2283935766355114e-05
11
-30.498002070631266
21
0.035001136152192913
31
1.2283935721946193e-05
0
ARC
5
101
100
AcDbEntity
8
0
100
AcDbCircle
10
-26.000002070631261
20
0.035001136152192913
30
1.2283935721946193e-05
40
4.498000000000002
210
9.8730371242788452e-16
220
0
230
1
100
AcDbArc
50
0
51
180
0
LINE
5
102
100
AcDbEntity
8
0
100
AcDbLine
10
-21.50200207063126
20
0.035001136152192913
30
1.2283935717505301e-05
11
-21.50200207063126
21
-0.83084969314594748
31
1.228393575747333e-05
0
ARC
5
103
100
AcDbEntity
8
0
100
AcDbCircle
10
-26.000002070631261
20
-0.96499886384781242
30
1.2283935766355114e-05
40
4.5000000000000062
210
2.9605947323337466e-15
220
0
230
1
100
AcDbArc
50
0
51
1.7082933783103122
0
LINE
5
104
100
AcDbEntity
8
0
100
AcDbLine
10
-21.500002070631258
20
-0.96499886384781242
30
1.2283935753032438e-05
11
-21.500002070631258
21
-5.815268363897812
31
1.2283935717505301e-05
0
LINE
5
105
100
AcDbEntity
8
0
100
AcDbLine
10
-21.500002070631258
20
-5.815268363897812
30
1.2283935717505301e-05
11
-16.499997487157707
21
-5.815268363897812
31
1.2283935717505301e-05
0
LINE
5
106
100
AcDbEntity
8
0
100
AcDbLine
10
-16.499997487157707
20
-5.815268363897812
30
1.2283935717505301e-05
11
-16.499997487157707
21
-8.315268363897804
31
1.2283935717505301e-05
0
LINE
5
107
100
AcDbEntity
8
0
100
AcDbLine
10
-16.499997487157707
20
-8.315268363897804
30
1.2283935717505301e-05
11
-5.0017120301313334
21
-8.315268363897804
31
1.2283935717505301e-05
0
LINE
5
108
100
AcDbEntity
8
0
100
AcDbLine
10
-5.0017120301313334
20
-8.315268363897804
30
1.2283935717505301e-05
11
-5.0017120301313334
21
-5.815268363897812
31
1.2283935717505301e-05
0
LINE
5
109
100
AcDbEntity
8
0
100
AcDbLine
10
-5.0017120301313334
20
-5.815268363897812
30
1.2283935717505301e-05
11
9.9982879698686666
21
-5.815268363897812
31
1.2283935717505301e-05
0
LINE
5
110
100
AcDbEntity
8
0
100
AcDbLine
10
9.9982879698686666
20
-5.815268363897812
30
1.2283935717505301e-05
11
9.9982879698686666
21
-8.315268363897804
31
1.2283935717505301e-05
0
LINE
5
111
100
AcDbEntity
8
0
100
AcDbLine
10
9.9982879698686666
20
-8.315268363897804
30
1.2283935717505301e-05
11
24.998287969868667
21
-8.315268363897804
31
1.2283935717505301e-05
0
LINE
5
112
100
AcDbEntity
8
0
100
AcDbLine
10
24.998287969868667
20
-8.315268363897804
30
1.2283935717505301e-05
11
24.998287969868667
21
-5.815268363897812
31
1.2283935717505301e-05
0
LINE
5
113
100
AcDbEntity
8
0
100
AcDbLine
10
24.998287969868667
20
-5.815268363897812
30
1.2283935717505301e-05
11
32.998287969868692
21
-5.815268363897812
31
1.2283935713064409e-05
0
LINE
5
114
100
AcDbEntity
8
0
100
AcDbLine
10
32.998287969868692
20
-5.815268363897812
30
1.2283935713064409e-05
11
32.998287969868656
21
3.7847316361021877
31
1.2283935784118682e-05
0
LINE
5
115
100
AcDbEntity
8
0
100
AcDbLine
10
32.998287969868656
20
3.7847316361021877
30
1.2283935784118682e-05
11
30.498287969868656
21
3.7847316361021877
31
1.2283935784118682e-05
0
LINE
5
116
100
AcDbEntity
8
0
100
AcDbLine
10
30.498287969868656
20
3.7847316361021877
30
1.2283935784118682e-05
11
30.498287969868656
21
23.784731636102187
31
1.2283935784118682e-05
0
LINE
5
117
100
AcDbEntity
8
0
100
AcDbLine
10
30.498287969868656
20
23.784731636102187
30
1.2283935784118682e-05
11
32.998287969868656
21
23.784731636102187
31
1.2283935784118682e-05
0
LINE
5
118
100
AcDbEntity
8
0
100
AcDbLine
10
32.998287969868656
20
23.784731636102187
30
1.2283935784118682e-05
11
32.998287969868692
21
34.284731636102194
31
1.2283935713064409e-05
0
LINE
5
119
100
AcDbEntity
8
0
100
AcDbLine
10
32.998287969868692
20
34.284731636102194
30
1.2283935713064409e-05
11
24.998287969868667
21
34.284731636102194
31
1.2283935717505301e-05
0
LINE
5
120
100
AcDbEntity
8
0
100
AcDbLine
10
24.998287969868667
20
34.284731636102194
30
1.2283935717505301e-05
11
24.998287969868667
21
36.784731636102194
31
1.2283935717505301e-05
0
LINE
5
121
100
AcDbEntity
8
0
100
AcDbLine
10
24.998287969868667
20
36.784731636102194
30
1.2283935717505301e-05
11
9.9982879698686666
21
36.784731636102194
31
1.2283935717505301e-05
0
LINE
5
122
100
AcDbEntity
8
0
100
AcDbLine
10
9.9982879698686666
20
36.784731636102194
30
1.2283935717505301e-05
11
9.9982879698686666
21
34.284731636102194
31
1.2283935717505301e-05
0
LINE
5
123
100
AcDbEntity
8
0
100
AcDbLine
10
9.9982879698686666
20
34.284731636102194
30
1.2283935717505301e-05
11
-10.001712030131333
21
34.284731636102194
31
1.2283935717505301e-05
0
LINE
5
124
100
AcDbEntity
8
0
100
AcDbLine
10
-10.001712030131333
20
34.284731636102194
30
1.2283935717505301e-05
11
-10.001712030131333
21
36.784731636102194
31
1.2283935717505301e-05
0
LINE
5
125
100
AcDbEntity
8
0
100
AcDbLine
10
-10.001712030131333
20
36.784731636102194
30
1.2283935717505301e-05
11
-25.001712030131333
21
36.784731636102194
31
1.2283935721946193e-05
0
LINE
5
126
100
AcDbEntity
8
0
100
AcDbLine
10
-25.001712030131333
20
36.784731636102194
30
1.2283935721946193e-05
11
-25.001712030131333
21
34.284731636102194
31
1.2283935721946193e-05
0
LINE
5
127
100
AcDbEntity
8
0
100
AcDbLine
10
-25.001712030131333
20
34.284731636102194
30
1.2283935721946193e-05
11
-33.001712030131351
21
34.284731636102194
31
1.2283935721946193e-05
0
LINE
5
128
100
AcDbEntity
8
0
100
AcDbLine
10
-33.001712030131351
20
34.284731636102194
30
1.2283935721946193e-05
11
-33.001712030131351
21
23.784731636102194
31
1.2283935793000467e-05
0
LINE
5
129
100
AcDbEntity
8
0
100
AcDbLine
10
-33.001712030131351
20
23.784731636102194
30
1.2283935793000467e-05
11
-30.501712030131351
21
23.784731636102187
31
1.2283935793000467e-05
0
LINE
5
130
100
AcDbEntity
8
0
100
AcDbLine
10
-30.501712030131351
20
23.784731636102187
30
1.2283935793000467e-05
11
-30.501712030131351
21
8.7847316361021868
31
1.2283935721946193e-05
0
LINE
5
131
100
AcDbEntity
8
0
100
AcDbLine
10
-30.501712030131351
20
8.7847316361021868
30
1.2283935721946193e-05
11
-33.001712030131351
21
8.7847316361021868
31
1.2283935721946193e-05
0
LINE
5
132
100
AcDbEntity
8
0
100
AcDbLine
10
-33.001712030131351
20
8.7847316361021868
30
1.2283935721946193e-05
11
-33.001712030131351
21
-5.815268363897812
31
1.2283935721946193e-05
0
LINE
5
133
100
AcDbEntity
8
0
100
AcDbLine
10
-33.001712030131351
20
-5.815268363897812
30
1.2283935721946193e-05
11
-30.500002070631265
21
-5.815268363897812
31
1.2283935721946193e-05
0
LINE
5
134
100
AcDbEntity
8
0
100
AcDbLine
10
-30.500002070631265
20
-5.815268363897812
30
1.2283935721946193e-05
11
-30.500002070631268
21
-0.96499886384780797
31
1.2283935793000467e-05
0
ARC
5
135
100
AcDbEntity
8
0
100
AcDbCircle
10
-26.000002070631261
20
-0.96499886384781242
30
1.2283935766355114e-05
40
4.5000000000000018
210
0
220
0
230
1
100
AcDbArc
50
178.29170662168968
51
180
0
ENDSEC
0
SECTION
2
OBJECTS
0
DICTIONARY
5
C
100
AcDbDictionary
3
ACAD_GROUP
350
D
3
ACAD_MLINESTYLE
350
17
0
DICTIONARY
5
D
100
AcDbDictionary
0
DICTIONARY
5
1A
330
C
100
AcDbDictionary
0
DICTIONARY
5
17
100
AcDbDictionary
0
ENDSEC
0
EOF
