0
SECTION
2
HEADER
9
$INSUNITS
70
4
9
$ACADVER
1
AC1014
9
$HANDSEED
5
FFFF
0
ENDSEC
0
SECTION
2
TABLES
0
TABLE
2
VPORT
5
8
100
AcDbSymbolTable
0
ENDTAB
0
TABLE
2
LTYPE
5
5
100
AcDbSymbolTable
0
LTYPE
5
14
100
AcDbSymbolTableRecord
100
AcDbLinetypeTableRecord
2
BYBLOCK
70
0
0
LTYPE
5
15
100
AcDbSymbolTableRecord
100
AcDbLinetypeTableRecord
2
BYLAYER
70
0
0
ENDTAB
0
TABLE
2
LAYER
5
2
100
AcDbSymbolTable
70
2
0
LAYER
5
50
100
AcDbSymbolTableRecord
100
AcDbLayerTableRecord
2
0
70
0
6
CONTINUOUS
0
ENDTAB
0
TABLE
2
STYLE
5
3
100
AcDbSymbolTable
70
1
0
STYLE
5
11
100
AcDbSymbolTableRecord
100
AcDbTextStyleTableRecord
2
STANDARD
70
0
0
ENDTAB
0
TABLE
2
VIEW
5
6
100
AcDbSymbolTable
70
0
0
ENDTAB
0
TABLE
2
UCS
5
7
100
AcDbSymbolTable
70
0
0
ENDTAB
0
TABLE
2
APPID
5
9
100
AcDbSymbolTable
70
2
0
APPID
5
12
100
AcDbSymbolTableRecord
100
AcDbRegAppTableRecord
2
ACAD
70
0
0
ENDTAB
0
TABLE
2
DIMSTYLE
5
A
100
AcDbSymbolTable
70
1
0
ENDTAB
0
TABLE
2
BLOCK_RECORD
5
1
100
AcDbSymbolTable
70
1
0
BLOCK_RECORD
5
1F
100
AcDbSymbolTableRecord
100
AcDbBlockTableRecord
2
*MODEL_SPACE
0
BLOCK_RECORD
5
1B
100
AcDbSymbolTableRecord
100
AcDbBlockTableRecord
2
*PAPER_SPACE
0
ENDTAB
0
ENDSEC
0
SECTION
2
BLOCKS
0
BLOCK
5
20
100
AcDbEntity
100
AcDbBlockBegin
2
*MODEL_SPACE
0
ENDBLK
5
21
100
AcDbEntity
100
AcDbBlockEnd
0
BLOCK
5
1C
100
AcDbEntity
100
AcDbBlockBegin
2
*PAPER_SPACE
0
ENDBLK
5
1D
100
AcDbEntity
100
AcDbBlockEnd
0
ENDSEC
0
SECTION
2
ENTITIES
0
LWPOLYLINE
5
100
100
AcDbEntity
8
0
100
AcDbPolyline
90
28
70
1
43
0.0
10
297.65499840921825
20
-3.814998863847805
10
297.65499716883113
20
-8.3152687703638151
10
327.65499716883113
20
-8.3152687703638151
10
327.65499697870678
20
-3.814998863847805
10
336.15499763549815
20
-3.814998863847805
10
336.15499763549815
20
-5.8152683638978075
10
361.2553152906795
20
-5.815268363897812
10
361.2553152906795
20
8.7847316361021921
10
363.75531529067956
20
8.7847316361021921
10
363.75531529067956
20
23.784731636102194
10
361.25531529067956
20
23.784731636102194
10
361.2553152906795
20
34.284731636102194
10
327.65499716883113
20
34.284731636102194
10
327.65499716883113
20
36.785001348294742
10
297.65499716883107
20
36.785001348294742
10
297.65499716883107
20
34.384731636102195
10
159.33531529067952
20
34.384731636102195
10
159.33531529067952
20
23.784731636102194
10
156.8353152906796
20
23.784731636102194
10
156.8353152906796
20
3.7847316361021921
10
159.33531529067952
20
3.7847316361021921
10
159.33531529067952
20
-5.815268363897812
10
184.40281529067954
20
-5.815268363897812
10
184.40281529067954
20
-8.3152683638978075
10
214.40281529067954
20
-8.3152683638978075
10
214.40281529067954
20
-5.815268363897812
10
289.1549976354982
20
-5.8152683638978075
10
289.1549976354982
20
-3.814998863847805
0
LWPOLYLINE
5
101
100
AcDbEntity
8
0
100
AcDbPolyline
90
4
70
1
43
0.0
10
261.2553170596268
20
20.034731636102006
10
258.7553152906795
20
20.034731636102006
10
258.7553152906795
20
29.034731636101995
10
261.2553170596268
20
29.034731636101995
0
ENDSEC
0
SECTION
2
OBJECTS
0
DICTIONARY
5
C
100
AcDbDictionary
3
ACAD_GROUP
350
D
3
ACAD_MLINESTYLE
350
17
0
DICTIONARY
5
D
100
AcDbDictionary
0
DICTIONARY
5
1A
330
C
100
AcDbDictionary
0
DICTIONARY
5
17
100
AcDbDictionary
0
ENDSEC
0
EOF
