0
SECTION
2
HEADER
9
$INSUNITS
70
4
9
$ACADVER
1
AC1014
9
$HANDSEED
5
FFFF
0
ENDSEC
0
SECTION
2
TABLES
0
TABLE
2
VPORT
5
8
100
AcDbSymbolTable
0
ENDTAB
0
TABLE
2
LTYPE
5
5
100
AcDbSymbolTable
0
LTYPE
5
14
100
AcDbSymbolTableRecord
100
AcDbLinetypeTableRecord
2
BYBLOCK
70
0
0
LTYPE
5
15
100
AcDbSymbolTableRecord
100
AcDbLinetypeTableRecord
2
BYLAYER
70
0
0
ENDTAB
0
TABLE
2
LAYER
5
2
100
AcDbSymbolTable
70
2
0
LAYER
5
50
100
AcDbSymbolTableRecord
100
AcDbLayerTableRecord
2
0
70
0
6
CONTINUOUS
0
ENDTAB
0
TABLE
2
STYLE
5
3
100
AcDbSymbolTable
70
1
0
STYLE
5
11
100
AcDbSymbolTableRecord
100
AcDbTextStyleTableRecord
2
STANDARD
70
0
0
ENDTAB
0
TABLE
2
VIEW
5
6
100
AcDbSymbolTable
70
0
0
ENDTAB
0
TABLE
2
UCS
5
7
100
AcDbSymbolTable
70
0
0
ENDTAB
0
TABLE
2
APPID
5
9
100
AcDbSymbolTable
70
2
0
APPID
5
12
100
AcDbSymbolTableRecord
100
AcDbRegAppTableRecord
2
ACAD
70
0
0
ENDTAB
0
TABLE
2
DIMSTYLE
5
A
100
AcDbSymbolTable
70
1
0
ENDTAB
0
TABLE
2
BLOCK_RECORD
5
1
100
AcDbSymbolTable
70
1
0
BLOCK_RECORD
5
1F
100
AcDbSymbolTableRecord
100
AcDbBlockTableRecord
2
*MODEL_SPACE
0
BLOCK_RECORD
5
1B
100
AcDbSymbolTableRecord
100
AcDbBlockTableRecord
2
*PAPER_SPACE
0
ENDTAB
0
ENDSEC
0
SECTION
2
BLOCKS
0
BLOCK
5
20
100
AcDbEntity
100
AcDbBlockBegin
2
*MODEL_SPACE
0
ENDBLK
5
21
100
AcDbEntity
100
AcDbBlockEnd
0
BLOCK
5
1C
100
AcDbEntity
100
AcDbBlockBegin
2
*PAPER_SPACE
0
ENDBLK
5
1D
100
AcDbEntity
100
AcDbBlockEnd
0
ENDSEC
0
SECTION
2
ENTITIES
0
LWPOLYLINE
5
100
100
AcDbEntity
8
0
100
AcDbPolyline
90
44
70
1
43
0.0
10
-258.75531505908572
20
-32.998287770464607
10
-264.25555166342116
20
-32.998287770464607
10
-264.25555166342116
20
-35.095977598469744
42
0.41421356237309509
10
-262.25555166342116
20
-37.09597759846973
10
-245.51073133924848
20
-37.095977598469752
42
0.41421356237309509
10
-244.51073133924851
20
-36.095977598469759
10
-244.51073133924851
20
-34.096395598469599
42
0.41421356237309509
10
-245.51073133924854
20
-33.096395598469584
10
-248.01073133924854
20
-33.096395598469584
10
-248.01073133924854
20
-28.596395598469606
10
-243.01073133924857
20
-28.596395598469613
42
-0.41421356237309509
10
-242.01073133924854
20
-29.596395598469627
10
-242.01073133924851
20
-36.095977598469737
42
0.41421356237309509
10
-241.01073133924854
20
-37.095977598469716
10
-224.55341564130703
20
-37.09597759846973
42
0.36201137140430273
10
-222.09446075363925
20
-35.047132627716557
42
-0.36201139916124531
10
-219.63550562056326
20
-32.998287656963399
10
-212.41756808643461
20
-32.998288365499647
42
0.17158052514474834
10
-208.64619307646598
20
-31.664843302142884
42
-0.35357011072175953
10
-204.87481819739264
20
-31.664843672353324
42
0.17158052514474859
10
-201.10344344921472
20
-32.998289476130992
10
-193.85801754497697
20
-32.998290187365633
42
-0.3620111981578566
10
-191.39906313484957
20
-35.047133892917657
42
0.36201122591479346
10
-188.94010847931398
20
-37.09597759846973
10
-172.52473133924843
20
-37.09597759846973
42
0.4142135623731002
10
-171.52473133924843
20
-36.095977598469716
10
-171.52473133924858
20
-29.596123089008586
42
-0.41421356237309509
10
-170.52473133924855
20
-28.596123089008572
10
-165.52473133924855
20
-28.596123089008589
10
-165.52473133924855
20
-33.096123089008586
10
-167.99582069630156
20
-33.0961230890086
42
0.40998599349991549
10
-168.99571621931528
20
-34.081668226260611
10
-169.02462686226031
20
-36.081522735721791
42
0.41845380678962335
10
-168.02473133924852
20
-37.095977598469752
10
-159.3495441114803
20
-37.095977598469752
10
-159.3495441114803
20
-10.09597759846975
10
-156.83530942199621
20
-10.09597759846975
10
-156.8353094219963
20
9.9040224015302591
10
-159.3495441114803
20
9.9040224015302591
10
-159.3495441114803
20
30.501711922760968
10
-262.25555166342122
20
30.501711922760968
42
0.41421356237309509
10
-264.25555166342116
20
28.501711922760968
10
-264.25555166342116
20
-30.498287770464607
10
-258.75531505908572
20
-30.498287770464607
0
LWPOLYLINE
5
101
100
AcDbEntity
8
0
100
AcDbPolyline
90
4
70
1
43
0.0
10
-261.25531863820305
20
-24.998287770464735
10
-261.25531908043985
20
-9.9982877704647333
10
-258.75531863820299
20
-9.9982877704647333
10
-258.75531505908572
20
-24.998287770464724
0
LWPOLYLINE
5
102
100
AcDbEntity
8
0
100
AcDbPolyline
90
4
70
1
43
0.0
10
-168.01050113696758
20
-21.997973685687526
10
-165.5105082304735
20
-21.997973685687526
10
-165.51050586597154
20
-24.498120770464602
10
-168.01050113696758
20
-24.498120770464602
0
LWPOLYLINE
5
103
100
AcDbEntity
8
0
100
AcDbPolyline
90
16
70
1
43
0.0
10
-240.64915011148031
20
14.302505401530263
42
0.41421356237307422
10
-240.14915011148034
20
13.802505401530265
10
-186.8491501114803
20
13.802505401530256
42
0.41421356237309509
10
-186.3491501114803
20
14.302505401530263
10
-186.3491501114803
20
19.902505556230231
10
-176.3495441114803
20
19.902505401530242
10
-176.3495441114803
20
13.802505246730181
10
-177.84954411148027
20
13.802505401530247
10
-177.84954411148027
20
5.9053414015302508
42
-0.41421356237309509
10
-178.8495441114803
20
4.9053414015302543
10
-248.14954411148028
20
4.9053414015302543
42
-0.41421356237309509
10
-249.14954411148031
20
5.9053414015302685
10
-249.14954411148031
20
13.802505401530265
10
-250.64954411148028
20
13.802505401530247
10
-250.64954411148028
20
19.902506551214422
10
-240.64915011148031
20
19.90250639646834
0
LWPOLYLINE
5
104
100
AcDbEntity
8
0
100
AcDbPolyline
90
4
70
1
43
0.0
10
-237.99954466385029
20
27.402505401530259
10
-237.99954411147752
20
25.802505401530276
10
-242.99954497332033
20
25.802505401530276
10
-242.99954411147951
20
27.402505401530259
0
LWPOLYLINE
5
105
100
AcDbEntity
8
0
100
AcDbPolyline
90
4
70
1
43
0.0
10
-215.99954411147948
20
27.402505401530259
10
-210.99954466385029
20
27.402505401530259
10
-210.99954411147752
20
25.802505401530276
10
-215.99954497332027
20
25.802505401530276
0
LWPOLYLINE
5
106
100
AcDbEntity
8
0
100
AcDbPolyline
90
4
70
1
43
0.0
10
-229.99954411148028
20
27.402505401530259
10
-223.99954466385307
20
27.402505401530259
10
-223.9995441114803
20
25.802505401530276
10
-229.99954497332106
20
25.802505401530276
0
LWPOLYLINE
5
107
100
AcDbEntity
8
0
100
AcDbPolyline
90
4
70
1
43
0.0
10
-188.99954411147951
20
27.402505401530259
10
-183.99954466385026
20
27.402505401530259
10
-183.99954411147752
20
25.802505401530276
10
-188.9995449733203
20
25.802505401530276
0
LWPOLYLINE
5
108
100
AcDbEntity
8
0
100
AcDbPolyline
90
4
70
1
43
0.0
10
-196.99954466385307
20
27.402505401530259
10
-196.99954411148028
20
25.802505401530276
10
-202.99954497332109
20
25.802505401530276
10
-202.9995441114803
20
27.402505401530259
0
LWPOLYLINE
5
109
100
AcDbEntity
8
0
100
AcDbPolyline
90
4
70
1
43
0.0
10
-196.99954411148028
20
-25.99446059846974
10
-196.9995446638531
20
-27.594460598469752
10
-202.9995441114803
20
-27.594460598469741
10
-202.99954497332109
20
-25.99446059846974
0
LWPOLYLINE
5
110
100
AcDbEntity
8
0
100
AcDbPolyline
90
4
70
1
43
0.0
10
-210.99954466385029
20
-27.594460598469741
10
-215.99954411147948
20
-27.594460598469741
10
-215.99954497332027
20
-25.99446059846974
10
-210.99954411147749
20
-25.99446059846974
0
LWPOLYLINE
5
111
100
AcDbEntity
8
0
100
AcDbPolyline
90
4
70
1
43
0.0
10
-223.99954466385307
20
-27.594460598469741
10
-229.9995441114803
20
-27.594460598469741
10
-229.99954497332106
20
-25.99446059846974
10
-223.9995441114803
20
-25.99446059846974
0
LWPOLYLINE
5
112
100
AcDbEntity
8
0
100
AcDbPolyline
90
16
70
1
43
0.0
10
-186.3491501114803
20
-14.494460598469736
42
0.4142135623731002
10
-186.8491501114803
20
-13.994460598469729
10
-240.14915011148031
20
-13.994460598469729
42
0.41421356237309509
10
-240.64915011148031
20
-14.494460598469727
10
-240.64915011148031
20
-20.09446059846973
10
-250.6495448185803
20
-20.094460753209738
10
-250.64954411148028
20
-13.994460598469711
10
-249.14954411148031
20
-13.994460598469729
10
-249.14954411148031
20
-6.0972965984697325
42
-0.41421356237309509
10
-248.14954411148028
20
-5.097296598469736
10
-178.8495441114803
20
-5.097296598469736
42
-0.41421356237309509
10
-177.84954411148027
20
-6.0972965984697503
10
-177.84954411148027
20
-13.994460598469747
10
-176.3495441114803
20
-13.994460443739669
10
-176.3495441114803
20
-20.094460598469741
10
-186.34915087006027
20
-20.094460753209749
0
LWPOLYLINE
5
113
100
AcDbEntity
8
0
100
AcDbPolyline
90
4
70
1
43
0.0
10
-226.13550586597142
20
-32.998287770464607
10
-236.13550586597145
20
-32.998288000534757
10
-236.13550586597145
20
-30.498288000534757
10
-226.13550586597142
20
-30.498287770464607
0
LWPOLYLINE
5
114
100
AcDbEntity
8
0
100
AcDbPolyline
90
4
70
1
43
0.0
10
-188.99954411147957
20
-27.594460598469741
10
-188.9995449733203
20
-25.99446059846974
10
-183.99954411147752
20
-25.99446059846974
10
-183.99954466385032
20
-27.594460598469752
0
LWPOLYLINE
5
115
100
AcDbEntity
8
0
100
AcDbPolyline
90
4
70
1
43
0.0
10
-242.99954411147954
20
-27.594460598469741
10
-242.99954497332033
20
-25.99446059846974
10
-237.99954411147752
20
-25.99446059846974
10
-237.99954466385032
20
-27.594460598469741
0
LWPOLYLINE
5
116
100
AcDbEntity
8
0
100
AcDbPolyline
90
4
70
1
43
0.0
10
-187.38550586597148
20
-32.998289841095847
10
-187.38550586597148
20
-30.498287770464607
10
-177.38550586597148
20
-30.498289841095847
10
-177.38550586597148
20
-32.998289841095847
0
LWPOLYLINE
5
117
100
AcDbEntity
8
0
100
AcDbPolyline
90
4
70
1
43
0.0
10
-258.75531863820299
20
10.001712229535267
10
-261.2553195226767
20
10.001712229535267
10
-261.25531863820305
20
25.001712229535265
10
-258.75531863820299
20
25.001712229535265
0
CIRCLE
5
118
100
AcDbEntity
8
0
100
AcDbCircle
10
-163.80002595757131
20
-13.99999818316477
30
-1.6391448798280805e-06
40
1.6000000000000014
210
-6.9388939039072345e-18
220
5.4210108520399756e-17
230
1
0
CIRCLE
5
119
100
AcDbEntity
8
0
100
AcDbCircle
10
-255.0856851114803
20
-18.09514459846973
30
-1.6391448820485266e-06
40
1.6000000000000003
210
1.6711410014406207e-33
220
5.4210108520399756e-17
230
1
0
CIRCLE
5
120
100
AcDbEntity
8
0
100
AcDbCircle
10
-255.0856851114803
20
17.903189401530266
30
-1.6391448864894187e-06
40
1.6000000000000003
210
1.6711410014406207e-33
220
5.4210108520399756e-17
230
1
0
CIRCLE
5
121
100
AcDbEntity
8
0
100
AcDbCircle
10
-171.91368511148028
20
17.903189401530248
30
-1.6391448842689726e-06
40
1.6000000000000003
210
1.6711410014406207e-33
220
5.4210108520399756e-17
230
1
0
CIRCLE
5
122
100
AcDbEntity
8
0
100
AcDbCircle
10
-171.91368511148028
20
-18.095144598469748
30
-1.6391448798280805e-06
40
1.6000000000000003
210
1.6711410014406207e-33
220
5.4210108520399756e-17
230
1
0
CIRCLE
5
123
100
AcDbEntity
8
0
100
AcDbCircle
10
-164.81425143084903
20
20.90231198883022
30
-1.6391448842689726e-06
40
1.6000000000000014
210
-6.9388939039072284e-18
220
5.4210108520399756e-17
230
1
0
ENDSEC
0
SECTION
2
OBJECTS
0
DICTIONARY
5
C
100
AcDbDictionary
3
ACAD_GROUP
350
D
3
ACAD_MLINESTYLE
350
17
0
DICTIONARY
5
D
100
AcDbDictionary
0
DICTIONARY
5
1A
330
C
100
AcDbDictionary
0
DICTIONARY
5
17
100
AcDbDictionary
0
ENDSEC
0
EOF
