0
SECTION
2
HEADER
9
$INSUNITS
70
4
9
$ACADVER
1
AC1014
9
$HANDSEED
5
FFFF
0
ENDSEC
0
SECTION
2
TABLES
0
TABLE
2
VPORT
5
8
100
AcDbSymbolTable
0
ENDTAB
0
TABLE
2
LTYPE
5
5
100
AcDbSymbolTable
0
LTYPE
5
14
100
AcDbSymbolTableRecord
100
AcDbLinetypeTableRecord
2
BYBLOCK
70
0
0
LTYPE
5
15
100
AcDbSymbolTableRecord
100
AcDbLinetypeTableRecord
2
BYLAYER
70
0
0
ENDTAB
0
TABLE
2
LAYER
5
2
100
AcDbSymbolTable
70
2
0
LAYER
5
50
100
AcDbSymbolTableRecord
100
AcDbLayerTableRecord
2
0
70
0
6
CONTINUOUS
0
ENDTAB
0
TABLE
2
STYLE
5
3
100
AcDbSymbolTable
70
1
0
STYLE
5
11
100
AcDbSymbolTableRecord
100
AcDbTextStyleTableRecord
2
STANDARD
70
0
0
ENDTAB
0
TABLE
2
VIEW
5
6
100
AcDbSymbolTable
70
0
0
ENDTAB
0
TABLE
2
UCS
5
7
100
AcDbSymbolTable
70
0
0
ENDTAB
0
TABLE
2
APPID
5
9
100
AcDbSymbolTable
70
2
0
APPID
5
12
100
AcDbSymbolTableRecord
100
AcDbRegAppTableRecord
2
ACAD
70
0
0
ENDTAB
0
TABLE
2
DIMSTYLE
5
A
100
AcDbSymbolTable
70
1
0
ENDTAB
0
TABLE
2
BLOCK_RECORD
5
1
100
AcDbSymbolTable
70
1
0
BLOCK_RECORD
5
1F
100
AcDbSymbolTableRecord
100
AcDbBlockTableRecord
2
*MODEL_SPACE
0
BLOCK_RECORD
5
1B
100
AcDbSymbolTableRecord
100
AcDbBlockTableRecord
2
*PAPER_SPACE
0
ENDTAB
0
ENDSEC
0
SECTION
2
BLOCKS
0
BLOCK
5
20
100
AcDbEntity
100
AcDbBlockBegin
2
*MODEL_SPACE
0
ENDBLK
5
21
100
AcDbEntity
100
AcDbBlockEnd
0
BLOCK
5
1C
100
AcDbEntity
100
AcDbBlockBegin
2
*PAPER_SPACE
0
ENDBLK
5
1D
100
AcDbEntity
100
AcDbBlockEnd
0
ENDSEC
0
SECTION
2
ENTITIES
0
LWPOLYLINE
5
100
100
AcDbEntity
8
0
100
AcDbPolyline
90
50
70
1
43
0.0
10
-258.75531529067956
20
20.034731636101917
10
-261.25531705962686
20
20.034731636101917
10
-261.25531705962686
20
29.034731636101906
10
-258.75531529067956
20
29.034731636101906
10
-258.75531171156217
20
34.284731636102194
10
-297.65499716897278
20
34.284731636102194
10
-297.65499716897278
20
36.78500134829472
10
-327.65499716897284
20
36.785001348294728
10
-327.65499716897284
20
34.284731636102194
10
-361.25531529067956
20
34.284731636102194
10
-361.25531529067956
20
23.784731636102187
10
-363.75531529067956
20
23.784731636102187
10
-363.75531529067956
20
3.7847316361021877
10
-361.25531529067956
20
3.7847316361021877
10
-361.25531529067956
20
-5.815268363897812
10
-327.65499716897284
20
-5.8152683638978164
10
-327.65499716897284
20
-8.3152687703638328
10
-297.65499716897284
20
-8.3152687703638328
10
-297.65499716897284
20
-5.8152683638978209
10
-236.13550251844788
20
-5.8152683638978342
10
-236.13550251844788
20
-8.3152683638978431
10
-226.13550251844788
20
-8.3152683638978431
10
-226.13550251844788
20
-5.8152683638978342
10
-187.38550251844796
20
-5.8152683638978431
10
-187.38550251844796
20
-8.3152687047062468
10
-177.38550251844796
20
-8.3152687047062468
10
-177.38550251844796
20
-5.8152683638978431
10
-159.33531529067952
20
-5.8152683638978475
10
-159.33531529067952
20
-1.7152683638978061
10
-156.83531529067952
20
-1.7152683638978061
10
-156.83531529067952
20
8.2847316361021939
10
-159.33531529067952
20
8.2847316361021939
10
-159.33531529067952
20
14.184731636102171
10
-165.51050251844777
20
14.184731636102173
10
-165.51050251844777
20
9.9347316361021942
10
-171.51050251844779
20
9.9347316361021942
10
-171.51050251844779
20
14.184731636102164
10
-177.38550251844794
20
14.184731636102166
10
-177.38550251844794
20
16.685001413952335
10
-187.38550251844794
20
16.685001413952335
10
-187.38550251844794
20
14.184731636102166
10
-226.13550251844785
20
14.184731636102173
10
-226.13550251844785
20
16.684731636102182
10
-236.13550251844785
20
16.684731636102182
10
-236.13550251844785
20
14.184731636102175
10
-241.99650251844787
20
14.184731636102176
10
-241.99650251844787
20
9.9347316361021853
10
-247.99650222164911
20
9.9347316361021853
10
-247.99650222164911
20
14.184731636102176
10
-258.75531171156217
20
14.184732027163475
0
LWPOLYLINE
5
101
100
AcDbEntity
8
0
100
AcDbPolyline
90
8
70
1
43
0.0
10
-296.73487316879823
20
3.5400011361022043
10
-281.49487316879822
20
3.5400011361022132
42
-0.41421356237309509
10
-280.49487316879822
20
2.540001136102199
10
-280.49487316879822
20
1.1361022079272066e-06
42
-0.41421356237309509
10
-281.49487316879822
20
-0.99999886389779302
10
-296.73487316879823
20
-0.99999886389781079
42
-0.41421356237309509
10
-297.73487316879829
20
1.1361022034250823e-06
10
-297.73487316879829
20
2.5400011361021946
42
-0.41421356237309509
0
LWPOLYLINE
5
102
100
AcDbEntity
8
0
100
AcDbPolyline
90
8
70
1
43
0.0
10
-327.04287316879828
20
-0.86999886389779402
10
-327.04287316879828
20
4.1300011361022015
42
-0.41421356237309509
10
-326.04287316879828
20
5.1300011361022024
10
-317.04287316879828
20
5.1300011361022202
42
-0.41421356237309509
10
-316.04287316879828
20
4.130001136102206
10
-316.04287316879828
20
-0.86999886389778958
42
-0.41421356237309509
10
-317.04287316879828
20
-1.8699988638977905
10
-326.04287316879828
20
-1.8699988638978082
42
-0.41421356237309509
0
LWPOLYLINE
5
103
100
AcDbEntity
8
0
100
AcDbPolyline
90
8
70
1
43
0.0
10
-299.25499715389708
20
23.980001121951041
10
-323.25499718369934
20
23.980001121951023
42
-0.4142135623730937
10
-324.25499718369934
20
24.980001121951034
10
-324.25499718369934
20
27.18000115100336
42
-0.41421356237309509
10
-323.25499718369934
20
28.18000115100336
10
-299.25499715389708
20
28.180001151003374
42
-0.4142135623730937
10
-298.25499715389708
20
27.180001151003363
10
-298.25499715389708
20
24.980001121951041
42
-0.41421356237309509
0
CIRCLE
5
104
100
AcDbEntity
8
0
100
AcDbCircle
10
-340.5508731687982
20
6.5000011361022025
30
-2.0706312575669017e-06
40
5.4999999999999716
210
5.0074178554068132e-33
220
1.8488927466117464e-32
230
1
0
CIRCLE
5
105
100
AcDbEntity
8
0
100
AcDbCircle
10
-308.25487316879833
20
4.0000011361022025
30
-2.0706312575669017e-06
40
3.0000000000000071
210
5.0074178554068132e-33
220
1.8488927466117464e-32
230
1
0
ENDSEC
0
SECTION
2
OBJECTS
0
DICTIONARY
5
C
100
AcDbDictionary
3
ACAD_GROUP
350
D
3
ACAD_MLINESTYLE
350
17
0
DICTIONARY
5
D
100
AcDbDictionary
0
DICTIONARY
5
1A
330
C
100
AcDbDictionary
0
DICTIONARY
5
17
100
AcDbDictionary
0
ENDSEC
0
EOF
