0
SECTION
2
HEADER
9
$INSUNITS
70
4
9
$ACADVER
1
AC1014
9
$HANDSEED
5
FFFF
0
ENDSEC
0
SECTION
2
TABLES
0
TABLE
2
VPORT
5
8
100
AcDbSymbolTable
0
ENDTAB
0
TABLE
2
LTYPE
5
5
100
AcDbSymbolTable
0
LTYPE
5
14
100
AcDbSymbolTableRecord
100
AcDbLinetypeTableRecord
2
BYBLOCK
70
0
0
LTYPE
5
15
100
AcDbSymbolTableRecord
100
AcDbLinetypeTableRecord
2
BYLAYER
70
0
0
ENDTAB
0
TABLE
2
LAYER
5
2
100
AcDbSymbolTable
70
2
0
LAYER
5
50
100
AcDbSymbolTableRecord
100
AcDbLayerTableRecord
2
0
70
0
6
CONTINUOUS
0
ENDTAB
0
TABLE
2
STYLE
5
3
100
AcDbSymbolTable
70
1
0
STYLE
5
11
100
AcDbSymbolTableRecord
100
AcDbTextStyleTableRecord
2
STANDARD
70
0
0
ENDTAB
0
TABLE
2
VIEW
5
6
100
AcDbSymbolTable
70
0
0
ENDTAB
0
TABLE
2
UCS
5
7
100
AcDbSymbolTable
70
0
0
ENDTAB
0
TABLE
2
APPID
5
9
100
AcDbSymbolTable
70
2
0
APPID
5
12
100
AcDbSymbolTableRecord
100
AcDbRegAppTableRecord
2
ACAD
70
0
0
ENDTAB
0
TABLE
2
DIMSTYLE
5
A
100
AcDbSymbolTable
70
1
0
ENDTAB
0
TABLE
2
BLOCK_RECORD
5
1
100
AcDbSymbolTable
70
1
0
BLOCK_RECORD
5
1F
100
AcDbSymbolTableRecord
100
AcDbBlockTableRecord
2
*MODEL_SPACE
0
BLOCK_RECORD
5
1B
100
AcDbSymbolTableRecord
100
AcDbBlockTableRecord
2
*PAPER_SPACE
0
ENDTAB
0
ENDSEC
0
SECTION
2
BLOCKS
0
BLOCK
5
20
100
AcDbEntity
100
AcDbBlockBegin
2
*MODEL_SPACE
0
ENDBLK
5
21
100
AcDbEntity
100
AcDbBlockEnd
0
BLOCK
5
1C
100
AcDbEntity
100
AcDbBlockBegin
2
*PAPER_SPACE
0
ENDBLK
5
1D
100
AcDbEntity
100
AcDbBlockEnd
0
ENDSEC
0
SECTION
2
ENTITIES
0
LWPOLYLINE
5
100
100
AcDbEntity
8
0
100
AcDbPolyline
90
4
70
1
43
0.0
10
177.38550251844768
20
-24.998120969868705
10
177.38550251844771
20
-22.498120969868705
10
197.38550251844771
20
-22.498120969868705
10
197.38550251844768
20
-24.998120969868705
0
LWPOLYLINE
5
101
100
AcDbEntity
8
0
100
AcDbPolyline
90
4
70
1
43
0.0
10
216.13550251844759
20
-22.498120969868722
10
236.13550251844759
20
-22.498120969868715
10
236.13550251844759
20
-24.998120969868687
10
216.13550251844759
20
-24.998120969868705
0
ARC
5
102
100
AcDbEntity
8
0
100
AcDbCircle
10
161.33531038650401
20
-29.99812096986858
30
9.6852954323267682e-07
40
1.9999999999999929
210
0
220
0
230
1
100
AcDbArc
50
180
51
270
0
LINE
5
103
100
AcDbEntity
8
0
100
AcDbLine
10
161.33531038650401
20
-31.998120969868573
30
9.6852954323267682e-07
11
165.51050251844777
21
-31.998120969868573
31
9.6852954545312286e-07
0
LINE
5
104
100
AcDbEntity
8
0
100
AcDbLine
10
165.51050251844777
20
-31.998120969868573
30
9.6852954545312286e-07
11
165.51050330661511
21
-27.498246303201938
31
9.6853005615571419e-07
0
LINE
5
105
100
AcDbEntity
8
0
100
AcDbLine
10
165.51050330661511
20
-27.498246303201938
30
9.6853005615571419e-07
11
168.0105009421132
21
-27.498246303201938
31
9.6853005615571419e-07
0
LINE
5
106
100
AcDbEntity
8
0
100
AcDbLine
10
168.0105009421132
20
-27.498246303201938
30
9.6853005615571419e-07
11
168.01050251844777
21
-28.998120969868584
31
9.6852954545312286e-07
0
ARC
5
107
100
AcDbEntity
8
0
100
AcDbCircle
10
171.01050251844779
20
-28.998120969868584
30
9.6852954545312286e-07
40
3.0000000000000071
210
0
220
0
230
1
100
AcDbArc
50
180
51
270
0
LINE
5
108
100
AcDbEntity
8
0
100
AcDbLine
10
171.01050251844779
20
-31.998120969868591
30
9.6852954545312286e-07
11
199.76050251844771
21
-31.998120969868609
31
9.6852954767356891e-07
0
ARC
5
109
100
AcDbEntity
8
0
100
AcDbCircle
10
199.76050251844771
20
-33.998120969868744
30
9.6852685649295722e-07
40
1.9999999999999929
210
-3.3306690738754816e-14
220
-2.9582283945788153e-28
230
1
100
AcDbArc
50
0
51
90
0
ARC
5
110
100
AcDbEntity
8
0
100
AcDbCircle
10
206.76050251844771
20
-33.998120969868694
30
9.6852685649295722e-07
40
5
210
1.3322676295501878e-14
220
9.4663308626521417e-29
230
1
100
AcDbArc
50
180
51
360
0
ARC
5
111
100
AcDbEntity
8
0
100
AcDbCircle
10
213.76050251844771
20
-33.998120969868765
30
9.6852685649295722e-07
40
1.9999999999999929
210
0
220
-3.3306690738754816e-14
230
1
100
AcDbArc
50
90
51
180
0
LINE
5
112
100
AcDbEntity
8
0
100
AcDbLine
10
213.76050251844771
20
-31.998120969868769
30
9.685269231063387e-07
11
242.51050251844765
21
-31.998120969868644
31
9.6852954989401496e-07
0
ARC
5
113
100
AcDbEntity
8
0
100
AcDbCircle
10
242.51050251844765
20
-28.998120969868637
30
9.6852954989401496e-07
40
3.0000000000000071
210
0
220
0
230
1
100
AcDbArc
50
-90
51
0
0
LINE
5
114
100
AcDbEntity
8
0
100
AcDbLine
10
245.51050251844768
20
-28.998120969868637
30
9.6852954989401496e-07
11
245.51050330661502
21
-27.498246303201981
31
9.6853000064456296e-07
0
LINE
5
115
100
AcDbEntity
8
0
100
AcDbLine
10
245.51050330661502
20
-27.498246303201981
30
9.6853000064456296e-07
11
248.01050094211314
21
-27.498246303201988
31
9.6853000064456296e-07
0
LINE
5
116
100
AcDbEntity
8
0
100
AcDbLine
10
248.01050094211314
20
-27.498246303201988
30
9.6853000064456296e-07
11
248.01050251844771
21
-31.998120969868644
31
9.6852954989401496e-07
0
LINE
5
117
100
AcDbEntity
8
0
100
AcDbLine
10
248.01050251844771
20
-31.998120969868644
30
9.6852954989401496e-07
11
256.75539816690127
21
-31.998120969868662
31
9.6852955211446101e-07
0
ARC
5
118
100
AcDbEntity
8
0
100
AcDbCircle
10
256.75539816690127
20
-29.998120969868669
30
9.6852955211446101e-07
40
1.9999999999999929
210
0
220
0
230
1
100
AcDbArc
50
270
51
359.99009283082989
0
LINE
5
119
100
AcDbEntity
8
0
100
AcDbLine
10
258.75539813700249
20
-29.998466795310108
30
9.6852955211446101e-07
11
258.7565485212304
21
-23.345490623315222
31
1.9728312983247065e-07
0
ARC
5
120
100
AcDbEntity
8
0
100
AcDbCircle
10
256.75654855110974
20
-23.345144797873772
30
9.9981369440328024e-05
40
2.0000000000000941
210
3.8562320537613966e-07
220
-6.6679158610981891e-11
230
0.99999999999992584
100
AcDbArc
50
-0.0099071691701037197
51
90
0
LINE
5
121
100
AcDbEntity
8
0
100
AcDbLine
10
256.75654855112924
20
-21.345144797873779
30
9.6852955211446101e-07
11
255.08568176395667
21
-21.34514479787379
31
1.9728312983247065e-07
0
ARC
5
122
100
AcDbEntity
8
0
100
AcDbCircle
10
255.08568176395664
20
-18.095144797873797
30
1.9728312983247065e-07
40
3.2499999999999729
210
-5.4379195128208766e-16
220
-4.1360840712359746e-16
230
1
100
AcDbArc
50
217.25663529387364
51
270.00000000000051
0
ARC
5
123
100
AcDbEntity
8
0
100
AcDbCircle
10
248.51924359326654
20
-23.089580676985495
30
2.932360183719748e-05
40
5.0000000000000702
210
1.2277192597040139e-07
220
9.3380383104956361e-08
230
0.99999999999998823
100
AcDbArc
50
37.256635293873117
51
89.931111730024412
0
LINE
5
124
100
AcDbEntity
8
0
100
AcDbLine
10
248.52525522745552
20
-18.089584290958509
30
9.6852954989401496e-07
11
178.4616539217547
21
-18.00534488189551
31
9.6852954545312286e-07
0
ARC
5
125
100
AcDbEntity
8
0
100
AcDbCircle
10
178.45564228756771
20
-23.005341267919661
30
9.6852954545312286e-07
40
5.0000000000000178
210
0
220
-0
230
1
100
AcDbArc
50
89.931111730024412
51
142.62591076423897
0
ARC
5
126
100
AcDbEntity
8
0
100
AcDbCircle
10
171.89945629067955
20
-17.997454969868521
30
9.6852954545312286e-07
40
3.2499999999999982
210
0
220
0
230
1
100
AcDbArc
50
217.30520096578513
51
322.62591076423911
0
ARC
5
127
100
AcDbEntity
8
0
100
AcDbCircle
10
165.33725391647621
20
-22.997454969868514
30
9.6852954323267682e-07
40
5.0000000000000018
210
-3.5323675966499019e-16
220
-2.6914497566670418e-16
230
1
100
AcDbArc
50
37.305200965785005
51
90
0
LINE
5
128
100
AcDbEntity
8
0
100
AcDbLine
10
165.33725391647621
20
-17.997454969868514
30
9.6852954323267682e-07
11
161.33531038650398
21
-17.997454969868507
31
9.6852954323267682e-07
0
ARC
5
129
100
AcDbEntity
8
0
100
AcDbCircle
10
161.33531038650398
20
-19.997454969868507
30
9.6852954323267682e-07
40
2.0000000000000018
210
0
220
-0
230
1
100
AcDbArc
50
90
51
180
0
LINE
5
130
100
AcDbEntity
8
0
100
AcDbLine
10
159.33531038650398
20
-19.997454969868507
30
9.6852954323267682e-07
11
159.33531038650401
21
-29.99812096986858
31
9.6852954323267682e-07
0
CIRCLE
5
131
100
AcDbEntity
8
0
100
AcDbCircle
10
-206.76050251844771
20
-33.998120969868694
30
-9.685268512234363e-07
40
1.6000000000000014
210
2.0708261494473196e-17
220
-2.9056618118736077e-17
230
-1
0
ENDSEC
0
SECTION
2
OBJECTS
0
DICTIONARY
5
C
100
AcDbDictionary
3
ACAD_GROUP
350
D
3
ACAD_MLINESTYLE
350
17
0
DICTIONARY
5
D
100
AcDbDictionary
0
DICTIONARY
5
1A
330
C
100
AcDbDictionary
0
DICTIONARY
5
17
100
AcDbDictionary
0
ENDSEC
0
EOF
