0
SECTION
2
HEADER
9
$INSUNITS
70
4
9
$ACADVER
1
AC1014
9
$HANDSEED
5
FFFF
0
ENDSEC
0
SECTION
2
TABLES
0
TABLE
2
VPORT
5
8
100
AcDbSymbolTable
0
ENDTAB
0
TABLE
2
LTYPE
5
5
100
AcDbSymbolTable
0
LTYPE
5
14
100
AcDbSymbolTableRecord
100
AcDbLinetypeTableRecord
2
BYBLOCK
70
0
0
LTYPE
5
15
100
AcDbSymbolTableRecord
100
AcDbLinetypeTableRecord
2
BYLAYER
70
0
0
ENDTAB
0
TABLE
2
LAYER
5
2
100
AcDbSymbolTable
70
2
0
LAYER
5
50
100
AcDbSymbolTableRecord
100
AcDbLayerTableRecord
2
0
70
0
6
CONTINUOUS
0
ENDTAB
0
TABLE
2
STYLE
5
3
100
AcDbSymbolTable
70
1
0
STYLE
5
11
100
AcDbSymbolTableRecord
100
AcDbTextStyleTableRecord
2
STANDARD
70
0
0
ENDTAB
0
TABLE
2
VIEW
5
6
100
AcDbSymbolTable
70
0
0
ENDTAB
0
TABLE
2
UCS
5
7
100
AcDbSymbolTable
70
0
0
ENDTAB
0
TABLE
2
APPID
5
9
100
AcDbSymbolTable
70
2
0
APPID
5
12
100
AcDbSymbolTableRecord
100
AcDbRegAppTableRecord
2
ACAD
70
0
0
ENDTAB
0
TABLE
2
DIMSTYLE
5
A
100
AcDbSymbolTable
70
1
0
ENDTAB
0
TABLE
2
BLOCK_RECORD
5
1
100
AcDbSymbolTable
70
1
0
BLOCK_RECORD
5
1F
100
AcDbSymbolTableRecord
100
AcDbBlockTableRecord
2
*MODEL_SPACE
0
BLOCK_RECORD
5
1B
100
AcDbSymbolTableRecord
100
AcDbBlockTableRecord
2
*PAPER_SPACE
0
ENDTAB
0
ENDSEC
0
SECTION
2
BLOCKS
0
BLOCK
5
20
100
AcDbEntity
100
AcDbBlockBegin
2
*MODEL_SPACE
0
ENDBLK
5
21
100
AcDbEntity
100
AcDbBlockEnd
0
BLOCK
5
1C
100
AcDbEntity
100
AcDbBlockBegin
2
*PAPER_SPACE
0
ENDBLK
5
1D
100
AcDbEntity
100
AcDbBlockEnd
0
ENDSEC
0
SECTION
2
ENTITIES
0
LWPOLYLINE
5
100
100
AcDbEntity
8
0
100
AcDbPolyline
90
4
70
1
43
0.0
10
-363.75531767486552
20
-9.9982927382402664
10
-361.25531767486552
20
-9.9982927382402487
10
-361.25531767486552
20
-24.998292738240266
10
-363.75531767486552
20
-24.998292738240266
0
LWPOLYLINE
5
101
100
AcDbEntity
8
0
100
AcDbPolyline
90
4
70
1
43
0.0
10
-327.65499955301692
20
30.501707261726239
10
-327.65499955301692
20
33.001707261759705
10
-297.65499955301692
20
33.001707261759712
10
-297.65499955301692
20
30.501707261726239
0
LWPOLYLINE
5
102
100
AcDbEntity
8
0
100
AcDbPolyline
90
4
70
1
43
0.0
10
-297.65499955315863
20
-30.498292738240327
10
-297.65499955315863
20
-32.99829273827379
10
-327.65499955315863
20
-32.99829273827379
10
-327.65499955315863
20
-30.498292738240327
0
LWPOLYLINE
5
103
100
AcDbEntity
8
0
100
AcDbPolyline
90
8
70
1
43
0.0
10
-258.75529542725451
20
35.00171339719175
42
0.41421356237309509
10
-260.75529542725451
20
37.001713397191757
10
-365.75530849179268
20
37.001713397191764
42
0.41421356237309509
10
-367.75530849179268
20
35.001713397191764
10
-367.75530849179268
20
-34.998286257019195
42
0.41421356237309509
10
-365.75530849179268
20
-36.998286257019188
10
-260.75529542725457
20
-36.998286257019203
42
0.41421356237309509
10
-258.75529542725457
20
-34.998286257019217
0
LWPOLYLINE
5
104
100
AcDbEntity
8
0
100
AcDbPolyline
90
4
70
1
43
0.0
10
-341.45499955298408
20
17.600997348835836
10
-283.85499955338406
20
17.600997348835836
10
-283.85499955298405
20
-25.599002651164167
10
-341.45499955298408
20
-25.599002651164167
0
LWPOLYLINE
5
105
100
AcDbEntity
8
0
100
AcDbPolyline
90
4
70
1
43
0.0
10
-363.75531767486552
20
25.001707261759734
10
-361.25531767486552
20
25.001707261759734
10
-361.25531767486552
20
10.001707261759751
10
-363.75531767486552
20
10.001707261759751
0
CIRCLE
5
106
100
AcDbEntity
8
0
100
AcDbCircle
10
-271.6749995529841
20
-25.999002651164211
30
1.0220312982034407e-06
40
1.6000000000000014
210
1.0785207688568521e-31
220
-2.4651903288156619e-32
230
1
0
CIRCLE
5
107
100
AcDbEntity
8
0
100
AcDbCircle
10
-271.67499955298405
20
26.000997348835782
30
1.0220312934849929e-06
40
1.6000000000000014
210
1.0785207688568521e-31
220
-2.4651903288156619e-32
230
1
0
CIRCLE
5
108
100
AcDbEntity
8
0
100
AcDbCircle
10
-355.7549995529842
20
18.000997348835782
30
1.0220312920972141e-06
40
1.5999999999999659
210
1.0785207688568521e-31
220
-2.4651903288156619e-32
230
1
0
CIRCLE
5
109
100
AcDbEntity
8
0
100
AcDbCircle
10
-355.75499955298403
20
-25.999002651164265
30
1.0220312970932177e-06
40
1.5999999999999659
210
1.0785207688568521e-31
220
-2.4651903288156619e-32
230
1
0
CIRCLE
5
110
100
AcDbEntity
8
0
100
AcDbCircle
10
-271.6749995529841
20
18.000997348835774
30
1.0220312957054389e-06
40
1.6000000000000014
210
1.0785207688568521e-31
220
-2.4651903288156619e-32
230
1
0
CIRCLE
5
111
100
AcDbEntity
8
0
100
AcDbCircle
10
-347.75499955298415
20
18.000997348835757
30
1.0220312934849929e-06
40
1.5999999999999659
210
1.0785207688568521e-31
220
-2.4651903288156619e-32
230
1
0
CIRCLE
5
112
100
AcDbEntity
8
0
100
AcDbCircle
10
-347.75499955298415
20
-25.999002651164265
30
1.0220312962605504e-06
40
1.5999999999999659
210
1.0785207688568521e-31
220
-2.4651903288156619e-32
230
1
0
ENDSEC
0
SECTION
2
OBJECTS
0
DICTIONARY
5
C
100
AcDbDictionary
3
ACAD_GROUP
350
D
3
ACAD_MLINESTYLE
350
17
0
DICTIONARY
5
D
100
AcDbDictionary
0
DICTIONARY
5
1A
330
C
100
AcDbDictionary
0
DICTIONARY
5
17
100
AcDbDictionary
0
ENDSEC
0
EOF
