0
SECTION
2
HEADER
9
$INSUNITS
70
4
9
$ACADVER
1
AC1014
9
$HANDSEED
5
FFFF
0
ENDSEC
0
SECTION
2
TABLES
0
TABLE
2
VPORT
5
8
100
AcDbSymbolTable
0
ENDTAB
0
TABLE
2
LTYPE
5
5
100
AcDbSymbolTable
0
LTYPE
5
14
100
AcDbSymbolTableRecord
100
AcDbLinetypeTableRecord
2
BYBLOCK
70
0
0
LTYPE
5
15
100
AcDbSymbolTableRecord
100
AcDbLinetypeTableRecord
2
BYLAYER
70
0
0
ENDTAB
0
TABLE
2
LAYER
5
2
100
AcDbSymbolTable
70
2
0
LAYER
5
50
100
AcDbSymbolTableRecord
100
AcDbLayerTableRecord
2
0
70
0
6
CONTINUOUS
0
ENDTAB
0
TABLE
2
STYLE
5
3
100
AcDbSymbolTable
70
1
0
STYLE
5
11
100
AcDbSymbolTableRecord
100
AcDbTextStyleTableRecord
2
STANDARD
70
0
0
ENDTAB
0
TABLE
2
VIEW
5
6
100
AcDbSymbolTable
70
0
0
ENDTAB
0
TABLE
2
UCS
5
7
100
AcDbSymbolTable
70
0
0
ENDTAB
0
TABLE
2
APPID
5
9
100
AcDbSymbolTable
70
2
0
APPID
5
12
100
AcDbSymbolTableRecord
100
AcDbRegAppTableRecord
2
ACAD
70
0
0
ENDTAB
0
TABLE
2
DIMSTYLE
5
A
100
AcDbSymbolTable
70
1
0
ENDTAB
0
TABLE
2
BLOCK_RECORD
5
1
100
AcDbSymbolTable
70
1
0
BLOCK_RECORD
5
1F
100
AcDbSymbolTableRecord
100
AcDbBlockTableRecord
2
*MODEL_SPACE
0
BLOCK_RECORD
5
1B
100
AcDbSymbolTableRecord
100
AcDbBlockTableRecord
2
*PAPER_SPACE
0
ENDTAB
0
ENDSEC
0
SECTION
2
BLOCKS
0
BLOCK
5
20
100
AcDbEntity
100
AcDbBlockBegin
2
*MODEL_SPACE
0
ENDBLK
5
21
100
AcDbEntity
100
AcDbBlockEnd
0
BLOCK
5
1C
100
AcDbEntity
100
AcDbBlockBegin
2
*PAPER_SPACE
0
ENDBLK
5
1D
100
AcDbEntity
100
AcDbBlockEnd
0
ENDSEC
0
SECTION
2
ENTITIES
0
LWPOLYLINE
5
100
100
AcDbEntity
8
0
100
AcDbPolyline
90
44
70
1
43
0.0
10
-258.75531505908572
20
67.0017122295354
10
-264.25555166342116
20
67.0017122295354
10
-264.25555166342116
20
64.904022401530256
42
0.41421356237309509
10
-262.25555166342116
20
62.90402240153027
10
-245.51073133924848
20
62.904022401530248
42
0.41421356237309509
10
-244.51073133924851
20
63.904022401530241
10
-244.51073133924851
20
65.903604401530401
42
0.41421356237309509
10
-245.51073133924854
20
66.903604401530416
10
-248.01073133924854
20
66.903604401530416
10
-248.01073133924854
20
71.403604401530401
10
-243.01073133924857
20
71.403604401530387
42
-0.41421356237309509
10
-242.01073133924854
20
70.403604401530373
10
-242.01073133924851
20
63.904022401530263
42
0.41421356237309509
10
-241.01073133924854
20
62.904022401530284
10
-224.55341564130703
20
62.90402240153027
42
0.36201137140430273
10
-222.09446075363925
20
64.95286737228345
42
-0.36201139916124531
10
-219.63550562056326
20
67.001712343036601
10
-212.41756808643461
20
67.001711634500353
42
0.17158052514474834
10
-208.64619307646598
20
68.335156697857116
42
-0.35357011072175953
10
-204.87481819739264
20
68.335156327646672
42
0.17158052514474859
10
-201.10344344921472
20
67.001710523869008
10
-193.85801754497697
20
67.001709812634374
42
-0.3620111981578566
10
-191.39906313484957
20
64.952866107082343
42
0.36201122591479346
10
-188.94010847931398
20
62.90402240153027
10
-172.52473133924843
20
62.90402240153027
42
0.4142135623731002
10
-171.52473133924843
20
63.904022401530284
10
-171.52473133924858
20
70.403876910991414
42
-0.41421356237309509
10
-170.52473133924855
20
71.403876910991428
10
-165.52473133924855
20
71.403876910991414
10
-165.52473133924855
20
66.903876910991414
10
-167.99582069630156
20
66.9038769109914
42
0.40998599349991549
10
-168.99571621931528
20
65.918331773739396
10
-169.02462686226031
20
63.918477264278209
42
0.41845380678962335
10
-168.02473133924852
20
62.904022401530248
10
-159.3495441114803
20
62.904022401530248
10
-159.3495441114803
20
89.904022401530241
10
-156.83530942199621
20
89.904022401530241
10
-156.8353094219963
20
109.90402240153026
10
-159.3495441114803
20
109.90402240153026
10
-159.3495441114803
20
130.50171192276096
10
-262.25555166342122
20
130.50171192276096
42
0.41421356237309509
10
-264.25555166342116
20
128.50171192276096
10
-264.25555166342116
20
69.5017122295354
10
-258.75531505908572
20
69.5017122295354
0
LWPOLYLINE
5
101
100
AcDbEntity
8
0
100
AcDbPolyline
90
4
70
1
43
0.0
10
-261.25531863820305
20
75.001712229535272
10
-261.25531908043985
20
90.001712229535258
10
-258.75531863820299
20
90.001712229535258
10
-258.75531505908572
20
75.001712229535272
0
LWPOLYLINE
5
102
100
AcDbEntity
8
0
100
AcDbPolyline
90
4
70
1
43
0.0
10
-168.01050113696758
20
78.002026314312474
10
-165.5105082304735
20
78.002026314312474
10
-165.51050586597154
20
75.50187922953539
10
-168.01050113696758
20
75.50187922953539
0
LWPOLYLINE
5
103
100
AcDbEntity
8
0
100
AcDbPolyline
90
4
70
1
43
0.0
10
-196.99954411148028
20
74.005539401530257
10
-196.9995446638531
20
72.405539401530248
10
-202.9995441114803
20
72.405539401530262
10
-202.99954497332109
20
74.005539401530257
0
LWPOLYLINE
5
104
100
AcDbEntity
8
0
100
AcDbPolyline
90
4
70
1
43
0.0
10
-210.99954466385029
20
72.405539401530262
10
-215.99954411147948
20
72.405539401530262
10
-215.99954497332027
20
74.005539401530257
10
-210.99954411147749
20
74.005539401530257
0
LWPOLYLINE
5
105
100
AcDbEntity
8
0
100
AcDbPolyline
90
4
70
1
43
0.0
10
-223.99954466385307
20
72.405539401530262
10
-229.9995441114803
20
72.405539401530262
10
-229.99954497332106
20
74.005539401530257
10
-223.9995441114803
20
74.005539401530257
0
LWPOLYLINE
5
106
100
AcDbEntity
8
0
100
AcDbPolyline
90
16
70
1
43
0.0
10
-186.3491501114803
20
85.505539401530257
42
0.41421356237309509
10
-186.8491501114803
20
86.005539401530271
10
-240.14915011148031
20
86.005539401530271
42
0.41421356237309509
10
-240.64915011148031
20
85.505539401530257
10
-240.64915011148031
20
79.905539401530262
10
-250.6495448185803
20
79.905539246790255
10
-250.64954411148028
20
86.005539401530285
10
-249.14954411148031
20
86.005539401530271
10
-249.14954411148031
20
93.90270340153026
42
-0.41421356237309509
10
-248.14954411148028
20
94.90270340153026
10
-178.8495441114803
20
94.90270340153026
42
-0.41421356237309509
10
-177.84954411148027
20
93.902703401530246
10
-177.84954411148027
20
86.005539401530257
10
-176.3495441114803
20
86.005539556260331
10
-176.3495441114803
20
79.905539401530262
10
-186.34915087006027
20
79.905539246790255
0
LWPOLYLINE
5
107
100
AcDbEntity
8
0
100
AcDbPolyline
90
4
70
1
43
0.0
10
-226.13550586597142
20
67.0017122295354
10
-236.13550586597145
20
67.001711999465243
10
-236.13550586597145
20
69.501711999465243
10
-226.13550586597142
20
69.5017122295354
0
LWPOLYLINE
5
108
100
AcDbEntity
8
0
100
AcDbPolyline
90
4
70
1
43
0.0
10
-188.99954411147957
20
72.405539401530262
10
-188.9995449733203
20
74.005539401530257
10
-183.99954411147752
20
74.005539401530257
10
-183.99954466385032
20
72.405539401530248
0
LWPOLYLINE
5
109
100
AcDbEntity
8
0
100
AcDbPolyline
90
4
70
1
43
0.0
10
-242.99954411147954
20
72.405539401530262
10
-242.99954497332033
20
74.005539401530257
10
-237.99954411147752
20
74.005539401530257
10
-237.99954466385032
20
72.405539401530262
0
LWPOLYLINE
5
110
100
AcDbEntity
8
0
100
AcDbPolyline
90
4
70
1
43
0.0
10
-187.38550586597148
20
67.00171015890416
10
-187.38550586597148
20
69.5017122295354
10
-177.38550586597148
20
69.50171015890416
10
-177.38550586597148
20
67.00171015890416
0
LWPOLYLINE
5
111
100
AcDbEntity
8
0
100
AcDbPolyline
90
4
70
1
43
0.0
10
-258.75531863820299
20
110.00171222953526
10
-261.2553195226767
20
110.00171222953526
10
-261.25531863820305
20
125.00171222953526
10
-258.75531863820299
20
125.00171222953526
0
CIRCLE
5
112
100
AcDbEntity
8
0
100
AcDbCircle
10
-163.80002595757131
20
86.000001816835237
30
-1.6391448598440661e-06
40
1.6000000000000014
210
-6.9388939039072469e-18
220
5.4210108520399725e-17
230
1
0
CIRCLE
5
113
100
AcDbEntity
8
0
100
AcDbCircle
10
-255.0856851114803
20
81.90485540153027
30
-1.6391448620645122e-06
40
1.6000000000000003
210
-1.0654810642637686e-32
220
5.4210108520399725e-17
230
1
0
CIRCLE
5
114
100
AcDbEntity
8
0
100
AcDbCircle
10
-255.0856851114803
20
117.90318940153027
30
-1.6391448665054043e-06
40
1.6000000000000003
210
-1.0654810642637686e-32
220
5.4210108520399725e-17
230
1
0
CIRCLE
5
115
100
AcDbEntity
8
0
100
AcDbCircle
10
-171.91368511148028
20
117.90318940153026
30
-1.6391448642849582e-06
40
1.6000000000000003
210
-1.0654810642637686e-32
220
5.4210108520399725e-17
230
1
0
CIRCLE
5
116
100
AcDbEntity
8
0
100
AcDbCircle
10
-171.91368511148028
20
81.904855401530256
30
-1.6391448598440661e-06
40
1.6000000000000003
210
-1.0654810642637686e-32
220
5.4210108520399725e-17
230
1
0
CIRCLE
5
117
100
AcDbEntity
8
0
100
AcDbCircle
10
-164.81425143084903
20
120.90231198883021
30
-1.6391448642849582e-06
40
1.6000000000000014
210
-6.9388939039072407e-18
220
5.4210108520399725e-17
230
1
0
ENDSEC
0
SECTION
2
OBJECTS
0
DICTIONARY
5
C
100
AcDbDictionary
3
ACAD_GROUP
350
D
3
ACAD_MLINESTYLE
350
17
0
DICTIONARY
5
D
100
AcDbDictionary
0
DICTIONARY
5
1A
330
C
100
AcDbDictionary
0
DICTIONARY
5
17
100
AcDbDictionary
0
ENDSEC
0
EOF
