0
SECTION
2
HEADER
9
$INSUNITS
70
4
9
$ACADVER
1
AC1014
9
$HANDSEED
5
FFFF
0
ENDSEC
0
SECTION
2
TABLES
0
TABLE
2
VPORT
5
8
100
AcDbSymbolTable
0
ENDTAB
0
TABLE
2
LTYPE
5
5
100
AcDbSymbolTable
0
LTYPE
5
14
100
AcDbSymbolTableRecord
100
AcDbLinetypeTableRecord
2
BYBLOCK
70
0
0
LTYPE
5
15
100
AcDbSymbolTableRecord
100
AcDbLinetypeTableRecord
2
BYLAYER
70
0
0
ENDTAB
0
TABLE
2
LAYER
5
2
100
AcDbSymbolTable
70
2
0
LAYER
5
50
100
AcDbSymbolTableRecord
100
AcDbLayerTableRecord
2
0
70
0
6
CONTINUOUS
0
ENDTAB
0
TABLE
2
STYLE
5
3
100
AcDbSymbolTable
70
1
0
STYLE
5
11
100
AcDbSymbolTableRecord
100
AcDbTextStyleTableRecord
2
STANDARD
70
0
0
ENDTAB
0
TABLE
2
VIEW
5
6
100
AcDbSymbolTable
70
0
0
ENDTAB
0
TABLE
2
UCS
5
7
100
AcDbSymbolTable
70
0
0
ENDTAB
0
TABLE
2
APPID
5
9
100
AcDbSymbolTable
70
2
0
APPID
5
12
100
AcDbSymbolTableRecord
100
AcDbRegAppTableRecord
2
ACAD
70
0
0
ENDTAB
0
TABLE
2
DIMSTYLE
5
A
100
AcDbSymbolTable
70
1
0
ENDTAB
0
TABLE
2
BLOCK_RECORD
5
1
100
AcDbSymbolTable
70
1
0
BLOCK_RECORD
5
1F
100
AcDbSymbolTableRecord
100
AcDbBlockTableRecord
2
*MODEL_SPACE
0
BLOCK_RECORD
5
1B
100
AcDbSymbolTableRecord
100
AcDbBlockTableRecord
2
*PAPER_SPACE
0
ENDTAB
0
ENDSEC
0
SECTION
2
BLOCKS
0
BLOCK
5
20
100
AcDbEntity
100
AcDbBlockBegin
2
*MODEL_SPACE
0
ENDBLK
5
21
100
AcDbEntity
100
AcDbBlockEnd
0
BLOCK
5
1C
100
AcDbEntity
100
AcDbBlockBegin
2
*PAPER_SPACE
0
ENDBLK
5
1D
100
AcDbEntity
100
AcDbBlockEnd
0
ENDSEC
0
SECTION
2
ENTITIES
0
LWPOLYLINE
5
100
100
AcDbEntity
8
0
100
AcDbPolyline
90
4
70
1
43
0.0
10
-177.38550251844794
20
-30.498290040499878
10
-177.38550251844794
20
-32.998287969868642
10
-187.38550251844794
20
-32.998287969868642
10
-187.38550251844794
20
-30.498287969868638
0
LWPOLYLINE
5
101
100
AcDbEntity
8
0
100
AcDbPolyline
90
4
70
1
43
0.0
10
-226.13550251844785
20
-30.498287969868656
10
-226.13550251844785
20
-32.998287969868656
10
-236.13550251844785
20
-32.998287969868656
10
-236.13550251844785
20
-30.498288199938806
0
LWPOLYLINE
5
102
100
AcDbEntity
8
0
100
AcDbPolyline
90
4
70
1
43
0.0
10
-363.7553152906795
20
-9.998287969868711
10
-361.25531529067939
20
-9.998287969868711
10
-361.25531529067939
20
-24.998287969868713
10
-363.7553152906795
20
-24.998287969868713
0
LWPOLYLINE
5
103
100
AcDbEntity
8
0
100
AcDbPolyline
90
4
70
1
43
0.0
10
-156.83531529067946
20
-24.99828796986862
10
-159.33531529067949
20
-24.99828796986862
10
-159.33531529067952
20
-9.9982879698686222
10
-156.83531529067949
20
-9.9982879698686222
0
LWPOLYLINE
5
104
100
AcDbEntity
8
0
100
AcDbPolyline
90
4
70
1
43
0.0
10
-156.83531529067952
20
10.001712030131378
10
-159.33531529067952
20
10.001712030131378
10
-159.33531529067952
20
25.00171203013138
10
-156.83531529067952
20
25.00171203013138
0
LWPOLYLINE
5
105
100
AcDbEntity
8
0
100
AcDbPolyline
90
4
70
1
43
0.0
10
-184.40281529067954
20
33.001712030131387
10
-184.40281529067954
20
30.50171203013139
10
-214.40281529067954
20
30.501712030131372
10
-214.40281529067954
20
33.001712030131372
0
LWPOLYLINE
5
106
100
AcDbEntity
8
0
100
AcDbPolyline
90
8
70
1
43
0.0
10
-186.02136052948373
20
-11.379458882591438
10
-197.52137052948373
20
-11.379458882591429
42
-0.41421356237309509
10
-198.5213705294837
20
-10.37945888259145
10
-198.52137052948379
20
10.320541117408535
42
-0.41421356237309509
10
-197.52137052948376
20
11.32054111740854
10
-186.02136052948373
20
11.320541117408522
42
-0.41421356237309509
10
-185.02136052948376
20
10.320541117408544
10
-185.02136052948373
20
-10.379458882591441
42
-0.41421356237309509
0
LWPOLYLINE
5
107
100
AcDbEntity
8
0
100
AcDbPolyline
90
4
70
1
43
0.0
10
-297.65499716897267
20
-30.498287969868727
10
-297.65499716897267
20
-32.998287969902194
10
-327.65499716897267
20
-32.998287969902208
10
-327.65499716897267
20
-30.498287969868745
0
LWPOLYLINE
5
108
100
AcDbEntity
8
0
100
AcDbPolyline
90
4
70
1
43
0.0
10
-363.7553152906795
20
16.500002070793332
10
-361.2553152906795
20
16.500002070800637
10
-361.2553152906795
20
5.001712030131289
10
-363.7553152906795
20
5.001712030131289
0
LWPOLYLINE
5
109
100
AcDbEntity
8
0
100
AcDbPolyline
90
4
70
1
43
0.0
10
-297.65499716883107
20
30.501712030097817
10
-327.65499716883107
20
30.501712030097803
10
-327.65499716883107
20
33.00171203013128
10
-297.65499716883107
20
33.001712030131294
0
LWPOLYLINE
5
110
100
AcDbEntity
8
0
100
AcDbPolyline
90
12
70
1
43
0.0
10
-154.83531529067957
20
-36.998287969868606
42
0.41421356237309509
10
-152.83531529067957
20
-34.998287969868613
10
-152.83531529067952
20
35.001712030131401
42
0.41421356237309509
10
-154.83531529067955
20
37.001712030131408
10
-347.49999763551375
20
37.001712030131308
42
0.41421356237349044
10
-349.49999763551369
20
35.001712030128608
10
-349.49999763549931
20
24.396416378594413
42
-0.41421356237309509
10
-351.49999763549664
20
22.396416378591709
10
-365.75531529068223
20
22.396416378572439
42
0.41421356237269957
10
-367.7553152906795
20
20.396416378572439
10
-367.7553152906795
20
-34.998287969868755
42
0.41421356237309509
10
-365.75531529067945
20
-36.998287969868748
0
CIRCLE
5
111
100
AcDbEntity
8
0
100
AcDbCircle
10
-251.57172818439727
20
-9.5002516632004141
30
2.7779532008054275e-07
40
1.6000000000000014
210
-1.3529657859320335e-32
220
6.162975822039139e-33
230
1
0
CIRCLE
5
112
100
AcDbEntity
8
0
100
AcDbCircle
10
-175.39962624001492
20
9.5001903365278739
30
2.7779531563965065e-07
40
1.6000000000000014
210
-1.3529657859320335e-32
220
6.162975822039139e-33
230
1
0
CIRCLE
5
113
100
AcDbEntity
8
0
100
AcDbCircle
10
-175.39945624469394
20
-9.4993484185020982
30
2.7779532008054275e-07
40
1.6000000000000014
210
-1.3529657859320335e-32
220
6.162975822039139e-33
230
1
0
CIRCLE
5
114
100
AcDbEntity
8
0
100
AcDbCircle
10
-251.5716386952208
20
-0.0014350546456487479
30
2.7779532008054275e-07
40
1.6000000000000014
210
-1.3529657859320335e-32
220
6.162975822039139e-33
230
1
0
CIRCLE
5
115
100
AcDbEntity
8
0
100
AcDbCircle
10
-164.80002261004819
20
21.000001617431362
30
2.7779531563965065e-07
40
1.6000000000000014
210
-6.9388939039072422e-18
220
-3.8518598887744874e-33
230
1
0
CIRCLE
5
116
100
AcDbEntity
8
0
100
AcDbCircle
10
-355.75499716879835
20
18.001002117207335
30
2.7779531119875855e-07
40
1.5999999999999659
210
-6.9388939039072422e-18
220
-3.8518598887744874e-33
230
1
0
CIRCLE
5
117
100
AcDbEntity
8
0
100
AcDbCircle
10
-271.6749971687982
20
26.001002117207381
30
2.7779531119875855e-07
40
1.6000000000000014
210
-6.9388939039072422e-18
220
-3.8518598887744874e-33
230
1
0
CIRCLE
5
118
100
AcDbEntity
8
0
100
AcDbCircle
10
-355.75499716879813
20
-25.9989978827927
30
2.7779531563965065e-07
40
1.5999999999999659
210
-6.9388939039072422e-18
220
-3.8518598887744874e-33
230
1
0
CIRCLE
5
119
100
AcDbEntity
8
0
100
AcDbCircle
10
-163.80002261004773
20
-13.999998382568783
30
2.7779532008054275e-07
40
1.6000000000000014
210
-6.9388939039072422e-18
220
-3.8518598887744874e-33
230
1
0
CIRCLE
5
120
100
AcDbEntity
8
0
100
AcDbCircle
10
-331.25487316879827
20
-24.999123882568711
30
2.7779531563965065e-07
40
1.5999999999999659
210
-6.938893903907206e-18
220
-1.5053010847239246e-47
230
1
0
ENDSEC
0
SECTION
2
OBJECTS
0
DICTIONARY
5
C
100
AcDbDictionary
3
ACAD_GROUP
350
D
3
ACAD_MLINESTYLE
350
17
0
DICTIONARY
5
D
100
AcDbDictionary
0
DICTIONARY
5
1A
330
C
100
AcDbDictionary
0
DICTIONARY
5
17
100
AcDbDictionary
0
ENDSEC
0
EOF
