0
SECTION
2
HEADER
9
$INSUNITS
70
4
9
$ACADVER
1
AC1014
9
$HANDSEED
5
FFFF
0
ENDSEC
0
SECTION
2
TABLES
0
TABLE
2
VPORT
5
8
100
AcDbSymbolTable
0
ENDTAB
0
TABLE
2
LTYPE
5
5
100
AcDbSymbolTable
0
LTYPE
5
14
100
AcDbSymbolTableRecord
100
AcDbLinetypeTableRecord
2
BYBLOCK
70
0
0
LTYPE
5
15
100
AcDbSymbolTableRecord
100
AcDbLinetypeTableRecord
2
BYLAYER
70
0
0
ENDTAB
0
TABLE
2
LAYER
5
2
100
AcDbSymbolTable
70
2
0
LAYER
5
50
100
AcDbSymbolTableRecord
100
AcDbLayerTableRecord
2
0
70
0
6
CONTINUOUS
0
ENDTAB
0
TABLE
2
STYLE
5
3
100
AcDbSymbolTable
70
1
0
STYLE
5
11
100
AcDbSymbolTableRecord
100
AcDbTextStyleTableRecord
2
STANDARD
70
0
0
ENDTAB
0
TABLE
2
VIEW
5
6
100
AcDbSymbolTable
70
0
0
ENDTAB
0
TABLE
2
UCS
5
7
100
AcDbSymbolTable
70
0
0
ENDTAB
0
TABLE
2
APPID
5
9
100
AcDbSymbolTable
70
2
0
APPID
5
12
100
AcDbSymbolTableRecord
100
AcDbRegAppTableRecord
2
ACAD
70
0
0
ENDTAB
0
TABLE
2
DIMSTYLE
5
A
100
AcDbSymbolTable
70
1
0
ENDTAB
0
TABLE
2
BLOCK_RECORD
5
1
100
AcDbSymbolTable
70
1
0
BLOCK_RECORD
5
1F
100
AcDbSymbolTableRecord
100
AcDbBlockTableRecord
2
*MODEL_SPACE
0
BLOCK_RECORD
5
1B
100
AcDbSymbolTableRecord
100
AcDbBlockTableRecord
2
*PAPER_SPACE
0
ENDTAB
0
ENDSEC
0
SECTION
2
BLOCKS
0
BLOCK
5
20
100
AcDbEntity
100
AcDbBlockBegin
2
*MODEL_SPACE
0
ENDBLK
5
21
100
AcDbEntity
100
AcDbBlockEnd
0
BLOCK
5
1C
100
AcDbEntity
100
AcDbBlockBegin
2
*PAPER_SPACE
0
ENDBLK
5
1D
100
AcDbEntity
100
AcDbBlockEnd
0
ENDSEC
0
SECTION
2
ENTITIES
0
LWPOLYLINE
5
100
100
AcDbEntity
8
0
100
AcDbPolyline
90
25
70
1
43
0.0
10
-22.220584207438463
20
-6.9041023978566756
10
-22.220584207438474
20
-4.9899999999451685
10
-34.717270122661418
20
-4.9899999999451685
10
-34.717270122661425
20
-2.4899999999451694
10
-44.717270122661439
20
-2.4899999999451694
10
-44.717270122661432
20
-4.9899999999451685
10
-52.717270122661432
20
-4.9899999999451685
10
-52.717270122661432
20
-2.4899999999451694
10
-62.717270122661439
20
-2.4899999999451694
10
-62.717270122661439
20
-4.9899999999451685
10
-73.220417207438459
20
-4.9899999999451685
10
-73.220417207438473
20
-7.9899999999451694
10
-70.720417207438473
20
-7.9899999999451694
10
-70.720417207438473
20
-11.989999999945171
10
-73.220417207438473
20
-11.989999999945171
10
-73.220417207438473
20
-14.989999999945173
10
-40.717270122661432
20
-14.989999999945173
10
-40.717270122661432
20
-17.489999999945169
10
-34.717270122661432
20
-17.489999999945169
10
-34.717270122661432
20
-14.989999999945171
10
-22.220584207438456
20
-14.989999999945173
10
-22.220584207438456
20
-17.489999999945169
10
-20.043112323886156
20
-17.489999999945166
42
2.0532048506357685
10
-13.470208207438519
20
-14.842885682915208
10
-19.72058420743846
20
-11.23422941677887
42
-0.26794919243112225
0
LWPOLYLINE
5
101
100
AcDbEntity
8
0
100
AcDbPolyline
90
4
70
1
43
0.0
10
-24.220584207438449
20
-11.989999999945171
10
-26.720584207438449
20
-11.989999999945171
10
-26.720584207438449
20
-7.9899999999451694
10
-24.220584207438449
20
-7.9899999999451694
0
CIRCLE
5
102
100
AcDbEntity
8
0
100
AcDbCircle
10
-15.720208207438519
20
-18.739999999945166
30
-1.9176146348819244e-91
40
2.5
210
-0
220
0
230
1
0
ENDSEC
0
SECTION
2
OBJECTS
0
DICTIONARY
5
C
100
AcDbDictionary
3
ACAD_GROUP
350
D
3
ACAD_MLINESTYLE
350
17
0
DICTIONARY
5
D
100
AcDbDictionary
0
DICTIONARY
5
1A
330
C
100
AcDbDictionary
0
DICTIONARY
5
17
100
AcDbDictionary
0
ENDSEC
0
EOF
